<svg width="693" height="175" viewBox="0 0 693 175" fill="none" xmlns="http://www.w3.org/2000/svg">
<path fill-rule="evenodd" clip-rule="evenodd" d="M221.108 520.347C182.956 492.444 185.295 442.262 157.57 406.03C128.137 367.568 78.3364 343.71 54.6499 302.821C23.7495 249.478 -6.37617 191.016 1.95901 137.403C10.9682 79.4555 34.8296 0.037774 101.669 0.390619C182.419 0.816897 231.541 135.16 312.881 139.045C399.679 143.189 418.929 10.3391 506.293 19.7121C577.866 27.391 631.007 112.493 656.253 175.884C680.358 236.41 633.271 289.366 638.013 350.452C642.6 409.535 718.056 481.417 683.401 525.584C647.067 571.892 553.621 538.29 486.61 543.416C442.358 546.801 401.038 554.649 355.352 550.68C309.885 546.729 259.491 548.418 221.108 520.347Z" fill="#8BBBC6" fill-opacity="0.4"/>
</svg>
