<svg width="481" height="241" viewBox="0 0 481 241" fill="none" xmlns="http://www.w3.org/2000/svg">
<path fill-rule="evenodd" clip-rule="evenodd" d="M110.741 -416.761C174.827 -398.628 196.888 -315.929 244.503 -267.679C279.021 -232.7 318.249 -206.906 352.564 -171.711C398.253 -124.851 471.58 -92.4128 479.971 -26.1747C488.17 38.5522 446.295 109.981 392.479 143.383C337.91 177.252 268.148 135.6 205.198 144.366C171.137 149.11 142.841 169.833 110.741 182.618C60.6442 202.572 16.3959 243.182 -37.1886 240.908C-101.304 238.188 -203.825 235.015 -213.341 168.866C-225.025 87.6474 -77.4376 55.9304 -75.6116 -26.1747C-73.8564 -105.092 -205.465 -137.128 -204.78 -216.063C-204.2 -282.971 -127.53 -322.586 -72.7367 -357.439C-17.1289 -392.81 47.8721 -434.549 110.741 -416.761Z" fill="#135EF5" fill-opacity="0.4"/>
</svg>
