<svg width="708" height="713" viewBox="0 0 708 713" fill="none" xmlns="http://www.w3.org/2000/svg">
<path d="M99.3935 434.439L77.3266 434.909L66.1335 435.094C62.4024 435.178 58.6378 435.094 54.8899 435.195H54.1504V434.439L54.0664 415.632V414.792H54.9067L77.1585 414.909C84.5702 414.909 91.9987 415.094 99.4103 415.178H99.8641V415.632C99.8641 418.825 99.7297 422.002 99.6456 425.145L99.3935 434.439ZM99.3935 434.439L99.1583 424.943C99.1583 421.817 98.9566 418.708 98.9398 415.632L99.3935 416.086C91.9819 416.187 84.5534 416.355 77.1417 416.372L54.8899 416.472L55.7302 415.632L55.6294 434.439L54.8899 433.699C58.5537 433.699 62.2176 433.699 65.8814 433.783L76.9401 433.968L99.3935 434.439Z" fill="#EBEBEB"/>
<path d="M74.5705 458.153L52.5036 458.623L41.3104 458.808C37.5794 458.892 33.8147 458.808 30.0669 458.909H29.3106V458.153L29.2266 439.346V438.556H30.0669L52.3187 438.674C59.7304 438.674 67.142 438.859 74.5705 438.943H75.0243V439.396C75.0243 442.59 74.873 445.766 74.8058 448.909L74.5705 458.153ZM74.5705 458.153L74.3352 448.64C74.3352 445.497 74.1335 442.405 74.0999 439.329L74.5705 439.783C67.142 439.884 59.7304 440.052 52.3187 440.069L30.0669 440.237L30.9072 439.396L30.8064 458.203L30.0669 457.463C33.7307 457.463 37.3777 457.463 41.0583 457.463L52.117 457.648L74.5705 458.153Z" fill="#EBEBEB"/>
<path d="M437.708 232.811L415.642 233.281L404.448 233.466C400.717 233.466 396.953 233.466 393.205 233.55H392.449V232.794L392.365 213.988V213.13H393.222L415.473 213.231C422.885 213.231 430.297 213.416 437.725 213.5H438.179V213.954C438.179 217.147 438.028 220.307 437.961 223.45L437.708 232.811ZM437.708 232.811L437.456 223.298C437.456 220.172 437.271 217.08 437.238 214.004L437.708 214.458C430.28 214.542 422.868 214.727 415.457 214.727L393.205 214.845L394.045 214.004L393.944 232.811L393.205 232.055C396.869 232.055 400.516 232.055 404.196 232.155L415.255 232.34L437.708 232.811Z" fill="#EBEBEB"/>
<path d="M412.869 256.525L390.902 257.046L379.709 257.248C375.961 257.248 372.214 257.248 368.449 257.248H367.709V256.491L367.609 237.685V236.878H368.449L390.701 236.979C398.129 236.979 405.541 237.164 412.953 237.248H413.423V237.702C413.423 240.895 413.272 244.054 413.205 247.197L412.869 256.525ZM412.869 256.525L412.633 247.012C412.633 243.886 412.448 240.794 412.415 237.718L412.869 238.172C405.457 238.172 398.045 238.441 390.617 238.441L368.365 238.559L369.205 237.718V256.525L368.449 255.769C372.13 255.769 375.777 255.769 379.457 255.869L390.516 256.054L412.869 256.525Z" fill="#EBEBEB"/>
<path d="M388.146 232.811L366.096 233.281L354.903 233.466C351.155 233.466 347.39 233.466 343.643 233.55H342.903V232.794L342.819 213.988V213.13H343.659L365.911 213.231C373.323 213.231 380.751 213.416 388.163 213.5H388.634V213.954C388.634 217.147 388.499 220.307 388.415 223.45L388.146 232.811ZM388.146 232.811L387.911 223.298C387.827 220.172 387.726 217.08 387.692 214.004L388.146 214.458C380.735 214.542 373.306 214.727 365.894 214.727L343.643 214.845L344.483 214.004V232.811L343.727 232.055C347.39 232.055 351.054 232.055 354.735 232.155L365.794 232.34L388.146 232.811Z" fill="#EBEBEB"/>
<path d="M672.075 368.742L650.025 369.212L638.832 369.397C635.084 369.397 631.319 369.397 627.572 369.397H626.832V368.641L626.748 349.835V348.994H627.588L649.84 349.095C657.252 349.095 664.68 349.28 672.092 349.364H672.563V349.818C672.563 353.011 672.428 356.171 672.344 359.313L672.075 368.742ZM672.075 368.742L671.84 359.229C671.756 356.103 671.655 353.011 671.621 349.935L672.075 350.389C664.664 350.473 657.235 350.658 649.823 350.658L627.572 350.776L628.412 349.935L628.328 368.742L627.572 367.986C631.235 367.986 634.899 367.986 638.58 368.086L649.639 368.271L672.075 368.742Z" fill="#EBEBEB"/>
<path d="M692.646 393.918L670.58 394.389L659.386 394.573C655.639 394.657 651.891 394.573 648.143 394.658H647.387V393.901L647.302 375.095V374.254H648.16L670.411 374.355C677.823 374.355 685.235 374.557 692.663 374.641H693.117V375.095C693.117 378.288 692.966 381.464 692.899 384.59L692.646 393.918ZM692.646 393.918L692.394 384.422C692.394 381.28 692.209 378.187 692.176 375.112L692.646 375.565C685.218 375.649 677.806 375.834 670.395 375.851L648.143 375.952L648.966 375.112L648.882 393.918L648.143 393.162C651.807 393.162 655.454 393.162 659.134 393.263L670.193 393.447L692.646 393.918Z" fill="#EBEBEB"/>
<path d="M679.789 30.6119L657.722 31.0824L646.529 31.2673C642.798 31.3513 639.034 31.2673 635.286 31.3513H634.597V30.595V11.7886V10.9482H635.454L657.706 11.0491C665.117 11.0491 672.529 11.234 679.957 11.3348H680.411V11.7886C680.411 14.9818 680.26 18.1582 680.193 21.2842L679.789 30.6119ZM679.789 30.6119L679.554 21.1162C679.47 17.9734 679.352 14.881 679.319 11.8054L679.789 12.2591C672.361 12.2591 664.949 12.5281 657.538 12.5449L635.286 12.6457L636.126 11.8054L636.025 30.6119L635.286 29.8556C638.95 29.8556 642.597 29.8556 646.277 29.9564L657.336 30.1413L679.789 30.6119Z" fill="#EBEBEB"/>
<path d="M704.613 54.3259L682.546 54.7965L671.352 54.9813C667.621 54.9813 663.857 54.9813 660.109 54.9813H659.353V54.225L659.269 35.4186V34.5782H660.109L682.361 34.6791C689.772 34.6791 697.201 34.864 704.613 34.9648H705.066V35.4186C705.066 38.6118 704.932 41.7882 704.848 44.9142L704.613 54.3259ZM704.613 54.3259L704.377 44.8302C704.377 41.6874 704.176 38.595 704.159 35.5194L704.613 35.9732C697.201 35.9732 689.772 36.2421 682.361 36.2589L660.109 36.3597L660.949 35.5194L660.848 54.3259L660.109 53.5696C663.773 53.5696 667.437 53.5696 671.1 53.6704L682.159 53.8553L704.613 54.3259Z" fill="#EBEBEB"/>
<path d="M74.5705 30.6119L52.5036 31.0825L41.3272 31.2673C37.5962 31.3514 33.8315 31.2673 30.0837 31.3514H29.3274V30.5951L29.2266 11.8054V10.9651H30.0669L52.3187 11.0659C59.7304 11.0659 67.142 11.2508 74.5705 11.3516H75.0243V11.8054C75.0243 14.9986 74.873 18.1751 74.8058 21.3011L74.5705 30.6119ZM74.5705 30.6119L74.3352 21.1162C74.3352 17.9734 74.1335 14.881 74.0999 11.8054L74.5705 12.2592C67.142 12.2592 59.7304 12.5281 52.3187 12.5449L30.0669 12.6457L30.9072 11.8054L30.8064 30.6119L30.0669 29.8556C33.7307 29.8556 37.3777 29.8556 41.0583 29.9564L52.117 30.1413L74.5705 30.6119Z" fill="#EBEBEB"/>
<path d="M685.352 574.823H522.043L515.455 444.892H691.94L685.352 574.823Z" fill="#EBEBEB"/>
<path d="M534.816 459.262H672.63L670.142 504.37H537.707L534.816 459.262ZM670.949 460.858H536.497L539.186 502.774H668.596L670.949 460.858Z" fill="#C7C7C7"/>
<path d="M537.606 515.547H666.932L664.848 556.202H540.161L537.606 515.547ZM665.336 517.143H539.304L541.657 554.655H663.386L665.336 517.143Z" fill="#C7C7C7"/>
<path d="M589.757 475.816H614.799L613.404 486.707H591.152L589.757 475.816ZM612.983 477.413H591.572L592.563 485.093H611.992L612.983 477.413Z" fill="#C7C7C7"/>
<path d="M589.757 530.454H614.799L613.404 541.345H591.152L589.757 530.454ZM612.983 532.051H591.572L592.563 539.748H611.992L612.983 532.051Z" fill="#C7C7C7"/>
<path d="M656.966 574.823L658.949 588.974L662.949 617.411H670.764V574.823H656.966Z" fill="#EBEBEB"/>
<path d="M656.966 574.823L658.949 588.974H670.764V574.823H656.966Z" fill="#C7C7C7"/>
<path d="M550.43 574.823L548.447 588.974L544.447 617.411H536.632V574.823H550.43Z" fill="#EBEBEB"/>
<path d="M550.43 574.823L548.447 588.974H536.632V574.823H550.43Z" fill="#C7C7C7"/>
<path d="M234.064 29.8723H13.1763V331.331H234.064V29.8723Z" fill="#EBEBEB"/>
<path d="M118.15 41.9395H25.9829V176.022H118.15V41.9395Z" fill="white"/>
<path d="M221.241 41.9395H129.074V176.022H221.241V41.9395Z" fill="white"/>
<path d="M118.15 185.164H25.9829V319.247H118.15V185.164Z" fill="white"/>
<path d="M221.241 185.164H129.074V319.247H221.241V185.164Z" fill="white"/>
<path d="M142.855 29.8723H234.064V461.144H181.258L218.115 241.685L142.855 29.8723Z" fill="#DBDBDB"/>
<path d="M158.653 41.5193L173.897 91.4514L188.989 141.417L218.921 241.449L218.972 241.618L218.938 241.802L204.854 346.406L197.661 398.691L190.3 450.942L196.838 398.573L203.56 346.238L217.291 241.584L217.308 241.937L187.762 141.787L173.124 91.6867L158.653 41.5193Z" fill="#EBEBEB"/>
<path d="M228.619 50.3763L229.039 93.6195L229.274 136.879L229.459 223.382L229.274 309.886L229.039 353.146L228.619 396.389L228.216 353.146L227.98 309.886L227.795 223.382L227.98 136.879L228.216 93.6195L228.619 50.3763Z" fill="#EBEBEB"/>
<path d="M211.594 58.4771L215.207 104.409L218.669 150.341L225.325 242.239V242.273V242.323L221.98 344.742L220.148 395.935L218.115 447.144L219.291 395.918L220.636 344.692L223.678 242.273V242.357L217.426 150.425L214.434 104.46L211.594 58.4771Z" fill="#EBEBEB"/>
<path d="M199.712 440.506L204.754 390.792L210.031 341.078C213.678 307.97 217.19 274.844 220.972 241.752V242.004L204.485 164.694L196.367 126.039L188.384 87.3002L197.073 125.955L205.644 164.61L222.552 241.92C218.989 275.029 215.14 308.121 211.443 341.213L205.661 390.842L199.712 440.506Z" fill="#EBEBEB"/>
<path d="M234.064 238.071H213.459V248.122H234.064V238.071Z" fill="#DBDBDB"/>
<path d="M104.587 29.8723H13.3948V461.144H66.184L29.3273 241.685L104.587 29.8723Z" fill="#DBDBDB"/>
<path d="M88.7887 41.5193L74.3184 91.6867L59.6799 141.787L30.1341 241.937L30.1509 241.584L43.8818 346.238L50.5876 398.573L57.1421 450.942L49.7809 398.691L42.5877 346.406L28.5038 241.802L28.4702 241.618L28.5206 241.449L58.453 141.417L73.5453 91.4514L88.7887 41.5193Z" fill="#EBEBEB"/>
<path d="M18.8064 50.3763L19.2266 93.6195L19.4618 136.879L19.6467 223.382L19.4618 309.886L19.2266 353.146L18.8064 396.389L18.403 353.146L18.1677 309.886L17.9661 223.382L18.1677 136.879L18.403 93.6195L18.8064 50.3763Z" fill="#EBEBEB"/>
<path d="M35.8483 58.4771L33.008 104.46L30.0164 150.425L23.7476 242.357L23.7644 242.273L26.8064 344.692L28.1509 395.918L29.3274 447.144L27.3106 395.935L25.4619 344.742L22.1174 242.323L22.1006 242.273L22.1174 242.239L28.7728 150.341L32.2349 104.409L35.8483 58.4771Z" fill="#EBEBEB"/>
<path d="M47.7304 440.506L41.7809 390.893L35.9995 341.263C32.302 308.171 28.4534 275.079 24.8904 241.97V241.701L41.7977 164.392L50.369 125.737L59.058 87.0817L51.0581 125.955L43.0078 164.61L26.5206 241.92V241.668C30.3021 274.76 33.7978 307.885 37.4616 340.994L42.7053 390.674L47.7304 440.506Z" fill="#EBEBEB"/>
<path d="M13.3947 248.122H33.9995V238.071H13.3947V248.122Z" fill="#DBDBDB"/>
<path d="M531.556 166.526L445.221 125.821L497.472 14.9987L561.589 45.2167L573.858 76.8298L531.556 166.526Z" fill="#EBEBEB"/>
<path d="M561.589 45.2167L573.858 76.8297L551.623 66.3424L561.589 45.2167Z" fill="#DBDBDB"/>
<path d="M495.756 40.4494L543.764 63.0812L545.104 60.2384L497.096 37.6067L495.756 40.4494Z" fill="#DBDBDB"/>
<path d="M492.367 47.6185L540.375 70.2502L541.715 67.4075L493.707 44.7758L492.367 47.6185Z" fill="#DBDBDB"/>
<path d="M488.985 54.81L536.993 77.4418L538.333 74.599L490.325 51.9673L488.985 54.81Z" fill="#DBDBDB"/>
<path d="M485.594 61.9919L555.934 95.1512L557.274 92.3085L486.935 59.1492L485.594 61.9919Z" fill="#DBDBDB"/>
<path d="M482.198 69.1764L552.537 102.336L553.877 99.4929L483.538 66.3336L482.198 69.1764Z" fill="#DBDBDB"/>
<path d="M478.816 76.3679L549.156 109.527L550.496 106.684L480.156 73.5252L478.816 76.3679Z" fill="#DBDBDB"/>
<path d="M475.426 83.537L545.766 116.696L547.106 113.854L476.766 80.6943L475.426 83.537Z" fill="#DBDBDB"/>
<path d="M472.045 90.7285L542.384 123.888L543.724 121.045L473.385 87.8857L472.045 90.7285Z" fill="#DBDBDB"/>
<path d="M468.648 97.9129L538.988 131.072L540.328 128.229L469.988 95.0701L468.648 97.9129Z" fill="#DBDBDB"/>
<path d="M465.274 105.089L535.613 138.249L536.953 135.406L466.614 102.246L465.274 105.089Z" fill="#DBDBDB"/>
<path d="M461.877 112.274L532.216 145.433L533.556 142.59L463.217 109.431L461.877 112.274Z" fill="#DBDBDB"/>
<path d="M458.502 119.45L528.842 152.609L530.182 149.766L459.842 116.607L458.502 119.45Z" fill="#DBDBDB"/>
<path d="M298.332 224.492L203.006 219.651L209.207 97.2832L279.979 100.863L303.357 125.434L298.332 224.492Z" fill="#EBEBEB"/>
<path d="M279.979 100.863L303.357 125.434L278.803 124.19L279.979 100.863Z" fill="#DBDBDB"/>
<path d="M217.281 121.447L270.288 124.132L270.447 120.994L217.44 118.308L217.281 121.447Z" fill="#DBDBDB"/>
<path d="M216.875 129.377L269.882 132.062L270.041 128.923L217.034 126.238L216.875 129.377Z" fill="#DBDBDB"/>
<path d="M216.469 137.306L269.476 139.992L269.635 136.853L216.628 134.168L216.469 137.306Z" fill="#DBDBDB"/>
<path d="M216.076 145.249L293.74 149.183L293.899 146.045L216.235 142.11L216.076 145.249Z" fill="#DBDBDB"/>
<path d="M215.67 153.179L293.334 157.113L293.493 153.974L215.829 150.04L215.67 153.179Z" fill="#DBDBDB"/>
<path d="M215.264 161.108L292.928 165.042L293.087 161.904L215.423 157.969L215.264 161.108Z" fill="#DBDBDB"/>
<path d="M214.858 169.038L292.522 172.972L292.681 169.833L215.017 165.899L214.858 169.038Z" fill="#DBDBDB"/>
<path d="M214.469 176.967L292.134 180.902L292.293 177.763L214.628 173.829L214.469 176.967Z" fill="#DBDBDB"/>
<path d="M214.063 184.897L291.728 188.831L291.887 185.693L214.222 181.758L214.063 184.897Z" fill="#DBDBDB"/>
<path d="M213.658 192.827L291.322 196.761L291.481 193.622L213.817 189.688L213.658 192.827Z" fill="#DBDBDB"/>
<path d="M213.252 200.756L290.916 204.691L291.075 201.552L213.411 197.618L213.252 200.756Z" fill="#DBDBDB"/>
<path d="M212.862 208.703L290.526 212.637L290.685 209.498L213.021 205.564L212.862 208.703Z" fill="#DBDBDB"/>
<path d="M353.575 679.982C504.899 679.982 627.572 666.287 627.572 649.394C627.572 632.501 504.899 618.806 353.575 618.806C202.251 618.806 79.5789 632.501 79.5789 649.394C79.5789 666.287 202.251 679.982 353.575 679.982Z" fill="#EBEBEB"/>
<path d="M524.06 712.906C612.425 712.906 684.058 702.574 684.058 689.83C684.058 677.086 612.425 666.755 524.06 666.755C435.696 666.755 364.062 677.086 364.062 689.83C364.062 702.574 435.696 712.906 524.06 712.906Z" fill="#EBEBEB"/>
<path d="M2.33618 617.882L90.2342 617.478L178.132 617.327L353.928 617.041L529.724 617.327L617.622 617.461L705.503 617.882L617.622 618.285L529.724 618.436L353.928 618.722L178.132 618.436L90.2342 618.285L2.33618 617.882Z" fill="#263238"/>
<path d="M64.8563 370.423C64.8563 370.423 30.1172 365.566 38.2348 323.633C38.302 323.633 77.1082 332.356 64.8563 370.423Z" fill="#6F95C9"/>
<path opacity="0.1" d="M64.8563 370.423C64.8563 370.423 30.1172 365.566 38.2348 323.633C38.302 323.633 77.1082 332.356 64.8563 370.423Z" fill="black"/>
<path d="M63.1756 361.683C62.4957 359.559 61.7047 357.472 60.8059 355.431C60.8059 355.162 60.8059 354.893 60.8059 354.641L60.6546 352.961C60.6546 351.7 60.4866 350.457 60.4194 349.196C60.2681 346.692 60.1 344.154 60.0664 341.684C60.0577 341.662 60.0426 341.643 60.0231 341.63C60.0037 341.617 59.9807 341.61 59.9572 341.61C59.9337 341.61 59.9107 341.617 59.8912 341.63C59.8717 341.643 59.8567 341.662 59.8479 341.684C59.8479 344.188 59.8479 346.725 59.8479 349.213C59.8479 350.457 59.9656 351.717 60.0496 352.961V353.801C58.109 349.604 55.7796 345.598 53.0917 341.835C51.8985 340.154 50.638 338.574 49.2934 337.028C47.9489 335.482 46.4531 333.936 45.0414 332.356C45.0414 332.255 44.8061 332.356 44.8902 332.524C47.3938 335.279 49.6437 338.255 51.6128 341.415C52.6716 343.095 53.6631 344.658 54.6043 346.322L54.2682 346.12L53.0245 345.633L50.201 344.557L44.6885 342.541C44.5876 342.541 44.5036 342.692 44.6885 342.742C46.5372 343.482 48.3523 344.255 50.1842 345.045L52.8732 346.204L54.2346 346.759C54.5248 346.898 54.829 347.005 55.1421 347.078C55.848 348.339 56.5371 349.599 57.1757 350.893C58.7928 354.138 60.2128 357.478 61.4277 360.893L61.6798 361.616C60.7672 361.089 59.818 360.629 58.8395 360.238L55.2429 358.557C52.806 357.431 50.3859 356.305 48.0498 354.977C47.9321 354.977 47.8313 355.095 47.9489 355.162C50.3355 356.473 52.6716 357.851 55.0581 359.162C56.2513 359.801 57.4614 360.44 58.6883 361.028C59.7011 361.63 60.8009 362.072 61.9487 362.339C63.1054 365.516 63.8674 368.824 64.2176 372.187C64.6042 376.927 64.5706 381.717 64.6714 386.456C64.6714 386.54 64.789 386.54 64.8059 386.456C65.142 382.154 65.3437 377.801 65.3605 373.465C65.2615 369.446 64.524 365.47 63.1756 361.683Z" fill="#263238"/>
<path d="M57.8144 337.011C57.4794 339.461 57.3613 341.936 57.4615 344.406C57.4615 344.49 57.5623 344.406 57.5791 344.406C57.7136 341.952 57.7304 339.515 58.0161 337.078C58.0329 336.944 57.8312 336.877 57.8144 337.011Z" fill="#263238"/>
<path d="M47.8816 339.112C46.3271 338.524 44.8305 337.792 43.4111 336.927C43.2934 336.843 43.1926 337.045 43.3103 337.112C44.7023 338.049 46.2259 338.774 47.8312 339.263C47.8312 339.263 48.0497 339.146 47.8816 339.112Z" fill="#263238"/>
<path d="M66.0328 436.993C66.0328 433.161 65.932 429.329 65.8816 425.481C65.8143 412.741 65.6799 399.996 65.4782 387.246C65.2989 377.162 65.0636 367.044 64.7723 356.893C64.7723 356.893 64.7723 356.793 64.6715 356.759C64.6715 354.003 64.6715 351.23 64.6715 348.473C64.6715 348.473 64.5875 348.372 64.5034 348.372C64.4194 348.372 64.3354 348.372 64.3354 348.473V356.776C64.3354 356.776 64.3354 356.776 64.3354 356.893C63.8312 374.91 63.3774 392.926 63.2598 410.926C63.2598 414.59 63.2598 418.254 63.2598 421.918C63.1365 433.66 63.0917 445.424 63.1253 457.211C63.1253 459.077 63.1253 460.942 63.1253 462.808C63.1253 473.564 63.2261 484.303 63.243 495.043C63.243 495.631 63.8816 495.917 64.5707 495.934C65.2597 495.95 66.2513 495.665 66.2513 494.992C66.2513 483.144 66.2513 471.295 66.2513 459.447C66.0496 452.001 66.0832 444.472 66.0328 436.993Z" fill="#263238"/>
<path d="M51.5119 425.329C51.5119 425.329 34.8063 412.96 18.9577 421.329C3.10919 429.699 0.621826 461.934 0.621826 461.934C0.621826 461.934 23.8988 465.295 38.5541 451.295C52.6884 437.85 51.5119 425.329 51.5119 425.329Z" fill="#6F95C9"/>
<path d="M56.0665 426.103C52.9999 424.886 49.6787 424.453 46.4028 424.842C45.7252 424.725 45.0399 424.658 44.3524 424.64L41.9995 424.455L37.1256 424.119C33.7643 423.867 30.5207 423.666 27.2266 423.329C27.1089 423.329 27.0921 423.531 27.2266 423.548C30.487 423.968 33.7139 424.422 36.9912 424.758C38.6718 424.926 40.3525 425.094 42.0331 425.212L43.2432 425.329L41.7642 425.699C39.1472 426.47 36.6137 427.501 34.2013 428.775C32.8736 429.01 31.5795 429.38 30.2854 429.682C28.2182 430.17 26.151 430.708 24.1006 431.245C20.0502 432.304 16.0334 433.514 11.9999 434.607C11.9731 434.607 11.9475 434.617 11.9286 434.636C11.9097 434.655 11.8991 434.681 11.8991 434.707C11.8991 434.734 11.9097 434.76 11.9286 434.779C11.9475 434.798 11.9731 434.808 11.9999 434.808C16.0166 433.834 20.067 432.926 24.1006 431.968C26.0501 431.497 28.0165 431.044 29.966 430.556L31.5122 430.203C27.0208 432.98 23.0082 436.464 19.63 440.523C16.3778 444.564 13.6241 448.982 11.4285 453.682C11.4285 453.8 11.5461 453.917 11.6133 453.783C14.3606 449.005 17.7163 444.604 21.5964 440.691L21.3779 441.346C21.0754 442.338 20.7561 443.312 20.4536 444.304C19.8317 446.27 19.2099 448.237 18.6217 450.203C18.6217 450.338 18.7729 450.388 18.8233 450.203C19.5292 448.304 20.2015 446.388 20.8737 444.472L21.8653 441.649L22.3695 440.186L22.5208 439.733C24.388 437.926 26.3697 436.242 28.4535 434.691C31.209 432.686 34.1798 430.995 37.3105 429.649C37.3105 429.934 37.2096 430.22 37.1424 430.506C36.9912 431.262 36.8063 432.018 36.655 432.792C36.3357 434.371 36.0164 435.951 35.7139 437.548C35.092 440.775 34.6887 444.052 34.0332 447.279C34.0332 447.413 34.2181 447.464 34.2517 447.279C34.9912 444.035 35.9324 440.825 36.6886 437.581C37.0416 435.901 37.4113 434.321 37.7474 432.674C37.9155 431.918 38.0668 431.145 38.218 430.388C38.218 429.968 38.4029 429.531 38.4533 429.111C38.7558 428.993 39.0584 428.842 39.3609 428.741C43.7477 426.838 48.5697 426.164 53.3103 426.792C55.5265 427.199 57.6072 428.149 59.3668 429.557C61.1264 430.965 62.51 432.786 63.3942 434.859C63.5454 435.212 64.1169 434.993 64.0328 434.623C63.4683 432.677 62.4528 430.891 61.0686 429.41C59.6845 427.93 57.9708 426.797 56.0665 426.103Z" fill="#263238"/>
<path d="M14.336 445.279C12.2184 446.354 10.1512 447.581 7.9327 448.472C7.78145 448.472 7.9327 448.724 7.9327 448.657C10.1624 447.654 12.3338 446.526 14.4368 445.279C14.4368 445.279 14.4368 445.279 14.336 445.279Z" fill="#263238"/>
<path d="M55.2766 402.607C55.2766 402.607 34.8567 403.901 25.361 390.439C15.8653 376.977 17.9997 357.75 17.9997 357.75C17.9997 357.75 39.4448 360.356 47.9657 370.019C56.4866 379.683 55.2766 402.607 55.2766 402.607Z" fill="#6F95C9"/>
<path d="M64.8563 422.758C64.1504 420.556 63.2764 418.405 62.4529 416.271C61.6294 414.136 60.7723 412.17 59.9151 410.153C58.0884 406.038 56.0464 402.021 53.7976 398.12C52.3522 395.632 50.806 393.229 49.2094 390.859C49.2094 390.49 49.1086 390.137 49.0581 389.767C48.9573 389.128 48.8733 388.506 48.7724 387.868C48.5707 386.574 48.3355 385.28 48.1338 384.002C47.6632 381.179 47.075 378.372 46.6212 375.599C46.6212 375.572 46.6106 375.547 46.5917 375.528C46.5727 375.509 46.5471 375.498 46.5203 375.498C46.4936 375.498 46.468 375.509 46.4491 375.528C46.4301 375.547 46.4195 375.572 46.4195 375.599C46.8229 378.372 47.1086 381.179 47.4951 384.002C47.68 385.38 47.8649 386.742 48.0834 388.12C48.0834 388.607 48.2346 389.095 48.3018 389.599C45.196 385.038 41.8291 380.661 38.2179 376.49L36.739 374.809C36.739 374.658 36.6045 374.507 36.5373 374.339L36.1003 373.179C35.7978 372.355 35.5121 371.498 35.2096 370.742C34.6382 369.145 34.134 367.532 33.697 365.885C33.697 365.75 33.4617 365.885 33.4953 365.885C33.8987 367.566 34.3356 369.246 34.823 370.927C35.0751 371.734 35.3272 372.524 35.6129 373.297L35.7642 373.7C33.1424 370.86 30.4197 368.103 27.6803 365.398C27.5794 365.297 27.4282 365.398 27.529 365.549C32.8068 371.073 37.645 377.002 41.9994 383.28C41.5038 383.119 40.9986 382.99 40.4868 382.893C38.907 382.591 37.3272 382.372 35.7474 382.17C32.3861 381.733 29.0248 381.313 25.7811 380.792C25.6467 380.792 25.5963 380.977 25.7811 381.011C28.9408 381.633 32.0836 382.338 35.2264 383.061C36.7054 383.397 38.2011 383.7 39.6801 383.986C40.8996 384.25 42.1009 384.593 43.2767 385.011L44.2683 386.422C45.7585 388.607 47.2038 390.848 48.6044 393.145L46.5203 392.725C44.9573 392.422 43.3607 392.137 41.7809 391.885C38.6717 391.364 35.5457 390.826 32.4701 390.12C32.3357 390.12 32.2852 390.305 32.4701 390.322C35.5961 391.061 38.6885 391.918 41.7809 392.742C43.2767 393.145 44.7893 393.515 46.3019 393.834L48.5707 394.322C48.8731 394.406 49.1825 394.462 49.4951 394.49C52.4699 399.33 55.2765 404.271 57.8984 409.33C59.0412 411.548 60.1336 413.8 61.2597 416.052C62.3857 418.304 63.2932 420.741 64.3016 423.094C64.2848 423.43 65.0243 423.262 64.8563 422.758Z" fill="#263238"/>
<path d="M43.9658 375.818C43.5625 373.868 43.1591 371.935 42.7221 370.003C42.7221 369.868 42.5036 370.003 42.5205 370.003C42.9126 371.918 43.2824 373.834 43.6297 375.75C43.9142 377.68 44.3013 379.593 44.7893 381.481C44.6378 379.578 44.3627 377.686 43.9658 375.818Z" fill="#263238"/>
<path d="M32.05 375.263C31.1089 374.792 30.1005 374.406 29.1089 374.019L27.5627 373.414L26.7728 373.095C26.4732 373.007 26.1855 372.882 25.9157 372.725C25.7644 372.607 25.6636 372.876 25.8148 372.893C26.1221 372.974 26.4164 373.099 26.6888 373.263L27.4618 373.599L28.9576 374.271C29.9359 374.728 30.9405 375.127 31.966 375.465C32.0836 375.498 32.1677 375.313 32.05 375.263Z" fill="#263238"/>
<path d="M76.1838 386.557C76.1838 386.557 88.5366 363.465 107.343 359.885C126.15 356.305 137.595 375.666 137.595 375.666C137.595 375.666 123.881 393.179 106.62 396.221C89.3601 399.263 76.1838 386.557 76.1838 386.557Z" fill="#6F95C9"/>
<path d="M119.931 370.238C115.036 369.579 110.071 369.636 105.192 370.406L106.032 369.969L110.2 367.818C113.067 366.23 116.012 364.789 119.024 363.498C119.175 363.498 119.024 363.246 119.024 363.314C116.082 364.675 113.04 365.834 110.083 367.179C108.604 367.868 107.158 368.574 105.73 369.33C104.788 369.818 103.763 370.288 102.856 370.876C98.7266 371.71 94.714 373.041 90.9063 374.843L93.2592 372.288C94.9399 370.372 96.7381 368.355 98.6541 366.608C98.7549 366.507 98.6541 366.372 98.5028 366.456C96.5365 368.255 94.4525 369.818 92.5533 371.75C91.629 372.658 90.7382 373.599 89.8811 374.557C89.4441 375.028 89.024 375.532 88.6038 376.036C82.1513 379.498 76.5448 384.344 72.1862 390.228C67.8277 396.112 64.8252 402.888 63.394 410.069C63.394 410.204 63.5621 410.271 63.5957 410.069C66.2522 401.275 70.9979 393.254 77.4275 386.691C84.347 379.629 93.0638 374.591 102.637 372.12C108.315 370.672 114.187 370.139 120.032 370.54C120.15 370.624 120.166 370.271 119.931 370.238Z" fill="#263238"/>
<path opacity="0.1" d="M137.645 375.666C137.645 375.666 123.931 393.179 106.671 396.237C93.5114 398.557 82.688 391.7 78.2847 388.322L77.3435 386.759C77.3435 386.759 86.2341 379.263 103.074 374.994C119.914 370.725 137.645 375.666 137.645 375.666Z" fill="black"/>
<path d="M109.007 362.003C107.595 362.876 106.167 363.683 104.839 364.759C103.529 365.767 102.314 366.892 101.209 368.12C101.108 368.221 101.209 368.355 101.377 368.271C102.62 367.179 103.881 366.103 105.175 365.078C106.433 364.048 107.752 363.093 109.125 362.221C109.242 362.12 109.125 361.935 109.007 362.003Z" fill="#263238"/>
<path d="M119.326 365.919L117.225 366.742L115.141 367.616C114.99 367.616 115.141 367.919 115.141 367.851L117.242 367.011L119.326 366.12C119.511 366.07 119.461 365.868 119.326 365.919Z" fill="#263238"/>
<path d="M73.7134 415.599C73.7134 415.599 77.0747 438.489 94.2341 446.506C111.394 454.522 132.435 446.506 132.435 446.506C132.435 446.506 124.183 396.96 73.7134 415.599Z" fill="#6F95C9"/>
<path d="M120.57 431.615C118.99 431.43 117.41 431.161 115.83 430.876L113.528 430.439L112.318 430.186L110.923 428.909C107.658 426.035 104.13 423.475 100.385 421.262C98.3481 420.062 96.2438 418.979 94.0828 418.019H94.4021L100.066 418.271C103.847 418.439 107.629 418.523 111.41 418.775C111.545 418.775 111.528 418.573 111.41 418.556C107.629 418.304 103.847 417.884 100.066 417.565L94.5702 417.077L91.7467 416.842L91.024 416.758C90.0324 416.405 89.0409 416.052 88.0493 415.733C83.3345 414.15 78.273 413.906 73.4276 415.027C69.0915 416.136 64.7723 418.977 63.6462 423.531C63.6462 423.699 63.8647 423.8 63.9319 423.649C65.6126 419.834 69.7806 417.901 73.5957 417.111C76.1674 416.616 78.8049 416.564 81.3939 416.96C81.5699 418.14 81.8626 419.3 82.2678 420.422C82.7384 422.103 83.209 423.649 83.6964 425.245C84.6712 428.472 85.7468 431.649 86.7048 434.876C86.7048 435.01 86.9401 434.876 86.9064 434.876C86.0997 431.665 85.4275 428.422 84.6544 425.212C84.2846 423.632 83.8813 422.052 83.4947 420.472C83.2679 419.369 82.9761 418.281 82.6208 417.212C84.1299 417.479 85.6225 417.833 87.0913 418.271C89.7475 419.06 92.3519 420.015 94.8895 421.128C95.1416 422.808 95.5114 424.371 95.8811 425.985C96.3517 428.002 96.8727 430.018 97.5618 431.985C97.5618 432.012 97.5724 432.037 97.5913 432.056C97.6102 432.075 97.6359 432.086 97.6626 432.086C97.6893 432.086 97.715 432.075 97.7339 432.056C97.7528 432.037 97.7634 432.012 97.7634 431.985C97.7634 431.85 97.7634 431.733 97.7634 431.598C97.3769 429.733 96.9735 427.867 96.5702 425.985C96.2509 424.489 95.9651 422.96 95.629 421.464C97.7634 422.422 99.8811 423.481 101.915 424.64C101.915 425.111 102.066 425.582 102.133 426.002C102.251 426.792 102.402 427.581 102.536 428.355C102.873 430.119 103.226 431.884 103.646 433.632C104.419 437.008 105.407 440.331 106.604 443.581C106.587 443.6 106.578 443.624 106.578 443.649C106.578 443.673 106.587 443.697 106.604 443.716L106.705 443.833C106.705 443.917 106.906 443.833 106.873 443.733C106.083 440.371 105.192 437.01 104.419 433.649C104.049 431.968 103.679 430.287 103.343 428.607C103.158 427.75 103.007 426.926 102.839 426.052C102.839 425.8 102.839 425.548 102.721 425.279C105.048 426.635 107.293 428.128 109.444 429.75C113.16 432.539 116.598 435.679 119.713 439.128C119.83 439.262 120.082 439.128 119.965 438.909C118.654 437.228 117.343 435.548 115.864 433.867C114.99 432.943 114.099 432.052 113.175 431.178H113.461C114.267 431.313 115.141 431.43 115.898 431.531C117.477 431.75 119.074 431.901 120.671 432.086C120.654 431.834 120.704 431.632 120.57 431.615Z" fill="#263238"/>
<path d="M108.553 439.38C108.553 439.178 108.553 438.976 108.553 438.775C108.553 438.573 108.368 438.287 108.335 438.035C107.982 436.506 107.679 434.976 107.394 433.413C107.394 433.313 107.209 433.413 107.209 433.413C107.322 435.465 107.765 437.485 108.52 439.396H108.654L108.553 439.38Z" fill="#263238"/>
<path d="M94.0659 439.01C94.0659 438.983 94.0553 438.958 94.0364 438.939C94.0175 438.92 93.9918 438.909 93.9651 438.909C93.4777 436.892 93.0071 434.859 92.6038 432.808C92.3685 431.733 92.15 430.674 91.9483 429.598C91.8307 429.01 91.7298 428.439 91.629 427.918C91.5858 427.408 91.4609 426.909 91.2592 426.439C91.2488 426.421 91.234 426.407 91.2163 426.397C91.1987 426.387 91.1787 426.382 91.1584 426.382C91.1381 426.382 91.1181 426.387 91.1005 426.397C91.0828 426.407 91.068 426.421 91.0576 426.439C91.0435 427.48 91.1909 428.518 91.4945 429.514C91.6962 430.64 91.9147 431.75 92.1668 432.876C92.671 435.144 93.2256 437.38 93.8474 439.598C93.8474 439.716 94.0995 439.699 94.0827 439.598L94.0659 439.01Z" fill="#263238"/>
<path d="M119.007 425.01C115.864 424.59 112.721 424.136 109.562 423.75C109.444 423.75 109.377 423.934 109.562 423.951C112.704 424.422 115.864 424.808 119.007 425.229C119.091 425.245 119.141 425.111 119.007 425.01Z" fill="#263238"/>
<path d="M64.8563 361.902C64.8563 361.902 54.3186 315.667 103.982 296.961C104.015 296.961 117.78 357.885 64.8563 361.902Z" fill="#6F95C9"/>
<path d="M75.6125 335.684L76.1503 335.364L78.957 333.784L84.7048 330.574C88.5031 328.44 92.251 326.238 96.066 324.171C96.1837 324.171 96.066 323.919 95.9484 323.986C92.1333 326.07 88.2342 328.003 84.3855 330.037L78.6881 333.045L76.3688 334.289C78.0495 331.146 79.7301 328.053 81.7469 325.095C84.3351 321.129 87.1754 317.364 90.1501 313.667C90.1813 313.634 90.198 313.589 90.1964 313.543C90.1948 313.498 90.1752 313.455 90.1417 313.423C90.1083 313.392 90.0639 313.375 90.0182 313.377C89.9725 313.379 89.9292 313.398 89.898 313.432C85.5428 317.669 81.691 322.395 78.4192 327.516C78.4108 327.353 78.4108 327.191 78.4192 327.028C78.4192 325.885 78.4192 324.743 78.52 323.667C78.52 321.415 78.52 319.146 78.52 316.944C78.52 316.81 78.3184 316.827 78.3184 316.944C78.2175 319.163 77.9486 321.364 77.831 323.667C77.831 324.759 77.7133 325.869 77.6797 327.028C77.6797 327.633 77.6797 328.322 77.6797 328.978C76.6545 330.658 75.6797 332.339 74.7386 333.919C73.0847 336.936 71.6033 340.045 70.3017 343.23C70.3017 342.087 70.184 340.927 70.1168 339.868C69.9655 337.331 69.663 334.826 69.5622 332.289C69.5535 332.267 69.5384 332.248 69.5189 332.235C69.4994 332.222 69.4765 332.215 69.4529 332.215C69.4294 332.215 69.4064 332.222 69.387 332.235C69.3675 332.248 69.3524 332.267 69.3437 332.289C69.3437 334.826 69.3437 337.331 69.3437 339.885C69.3437 341.146 69.3437 342.406 69.495 343.683C69.495 344.132 69.5286 344.602 69.5958 345.095C68.0056 349.218 66.7468 353.461 65.8311 357.784C64.9808 362.405 64.3637 367.067 63.9824 371.75C64.5171 367.533 65.3997 363.368 66.621 359.297C67.2429 357.129 67.8815 354.944 68.5874 352.793C70.6546 351.818 72.6378 350.608 74.6209 349.431L80.8561 346.07C85.0073 343.801 89.1417 341.499 93.4106 339.482C93.5451 339.482 93.4106 339.247 93.3098 339.297C88.9737 341.263 84.604 343.129 80.352 345.263C78.2511 346.322 76.1671 347.465 74.0999 348.625C72.4193 349.599 70.6042 350.574 68.9571 351.683C69.4277 350.255 69.9319 348.809 70.4865 347.398C71.9921 343.407 73.7031 339.497 75.6125 335.684Z" fill="#263238"/>
<path d="M71.4277 325.112C71.4277 324.978 71.2092 324.978 71.2092 325.112C71.3941 327.751 71.4781 330.39 71.7638 333.028C71.7638 333.059 71.7762 333.089 71.7983 333.111C71.8204 333.133 71.8503 333.146 71.8815 333.146C71.9127 333.146 71.9426 333.133 71.9647 333.111C71.9867 333.089 71.9991 333.059 71.9991 333.028C71.8983 330.373 71.579 327.751 71.4277 325.112Z" fill="#263238"/>
<path d="M95.2424 333.936C92.1164 335.196 88.9903 336.373 85.8979 337.684C85.8979 337.684 85.8979 337.852 85.8979 337.818C89.0408 336.642 92.1332 335.364 95.2592 334.137C95.4272 334.087 95.36 333.885 95.2424 333.936Z" fill="#263238"/>
<path d="M99.9483 312.625C96.9122 314.021 93.9654 315.604 91.1249 317.364C90.9736 317.449 91.1249 317.667 91.2593 317.583C94.15 315.902 97.0744 314.222 100.066 312.81C100.15 312.743 100.15 312.507 99.9483 312.625Z" fill="#263238"/>
<path d="M99.2087 461.85H27.5793V537.345H99.2087V461.85Z" fill="#37474F"/>
<path d="M26.3191 488.572H22.6553V617.882H26.3191V488.572Z" fill="#263238"/>
<path d="M103.747 488.572H100.083V617.882H103.747V488.572Z" fill="#263238"/>
<path d="M66.9739 488.572H63.3101V617.882H66.9739V488.572Z" fill="#263238"/>
<path d="M101.915 532.505H24.4871V542.958H101.915V532.505Z" fill="#263238"/>
<path d="M73.478 564.756C73.492 583.821 80.706 602.178 93.6761 616.152C106.646 630.125 124.415 638.685 143.427 640.117V640.318H571.455C594.27 640.279 616.197 631.463 632.689 615.698C649.182 599.933 658.977 578.426 660.044 555.635C661.112 532.844 653.37 510.517 638.423 493.279C623.475 476.041 602.469 465.215 579.757 463.043C578.727 428.279 565.614 394.96 542.674 368.818C519.735 342.676 488.402 325.345 454.066 319.806C419.731 314.267 384.538 320.867 354.541 338.469C324.545 356.072 301.62 383.577 289.71 416.254C277.396 410.04 263.79 406.822 249.997 406.859C227.388 406.854 205.628 415.471 189.152 430.954C172.676 446.437 162.725 467.62 161.326 490.186C157.266 489.507 153.156 489.17 149.04 489.177C129.002 489.195 109.791 497.164 95.6234 511.335C81.4561 525.505 73.4914 544.718 73.478 564.756Z" fill="#6F95C9"/>
<g opacity="0.1">
<path d="M73.478 564.756C73.492 583.821 80.706 602.178 93.6761 616.152C106.646 630.125 124.415 638.685 143.427 640.117V640.318H571.455C594.27 640.279 616.197 631.463 632.689 615.698C649.182 599.933 658.977 578.426 660.044 555.635C661.112 532.844 653.37 510.517 638.423 493.279C623.475 476.041 602.469 465.215 579.757 463.043C578.727 428.279 565.614 394.96 542.674 368.818C519.735 342.676 488.402 325.345 454.066 319.806C419.731 314.267 384.538 320.867 354.541 338.469C324.545 356.072 301.62 383.577 289.71 416.254C277.396 410.04 263.79 406.822 249.997 406.859C227.388 406.854 205.628 415.471 189.152 430.954C172.676 446.437 162.725 467.62 161.326 490.186C157.266 489.507 153.156 489.17 149.04 489.177C129.002 489.195 109.791 497.164 95.6234 511.335C81.4561 525.505 73.4914 544.718 73.478 564.756Z" fill="black"/>
</g>
<path d="M47.5791 564.756C47.593 583.821 54.807 602.178 67.7771 616.152C80.7472 630.125 98.5164 638.685 117.528 640.117V640.318H545.522C568.346 640.305 590.29 631.507 606.802 615.75C623.314 599.992 633.128 578.484 634.209 555.686C635.29 532.887 627.554 510.547 612.607 493.298C597.659 476.05 576.646 465.216 553.925 463.043C552.895 428.279 539.782 394.96 516.842 368.818C493.903 342.676 462.57 325.345 428.235 319.806C393.899 314.267 358.706 320.867 328.71 338.469C298.713 356.072 275.789 383.577 263.879 416.254C251.566 410.037 237.958 406.818 224.165 406.859C201.545 406.833 179.768 415.442 163.28 430.928C146.791 446.413 136.835 467.608 135.443 490.186C131.384 489.508 127.274 489.171 123.158 489.177C103.117 489.191 83.9013 497.158 69.7304 511.329C55.5595 525.499 47.5925 544.715 47.5791 564.756Z" fill="#6F95C9"/>
<path d="M294.5 479.631L280.668 468.976C289.37 457.715 301.087 449.155 314.46 444.288C327.833 439.421 342.312 438.449 356.215 441.483C370.119 444.517 382.876 451.433 393.006 461.429C403.135 471.424 410.221 484.088 413.44 497.95L396.432 501.9C393.973 491.238 388.537 481.495 380.755 473.803C372.973 466.112 363.166 460.79 352.477 458.456C341.787 456.123 330.654 456.875 320.375 460.623C310.096 464.372 301.094 470.964 294.416 479.631H294.5Z" fill="white"/>
<path d="M379.121 492.841L403.591 534.992L427.877 492.724L379.121 492.841Z" fill="white"/>
<g opacity="0.2">
<path d="M294.5 479.631L280.668 468.976C289.37 457.715 301.087 449.155 314.46 444.288C327.833 439.421 342.312 438.449 356.215 441.483C370.119 444.517 382.876 451.433 393.006 461.429C403.135 471.424 410.221 484.088 413.44 497.95L396.432 501.9C393.973 491.238 388.537 481.495 380.755 473.803C372.973 466.112 363.166 460.79 352.477 458.456C341.787 456.123 330.654 456.875 320.375 460.623C310.096 464.372 301.094 470.964 294.416 479.631H294.5Z" fill="white"/>
<path d="M379.121 492.841L403.591 534.992L427.877 492.723L379.121 492.841Z" fill="white"/>
</g>
<path d="M318.954 582.453C306.515 578.457 295.323 571.307 286.469 561.699C277.615 552.092 271.402 540.354 268.433 527.631L285.442 523.698C287.965 534.671 293.641 544.667 301.771 552.458C309.901 560.248 320.13 565.492 331.201 567.546C342.272 569.599 353.702 568.372 364.084 564.016C374.467 559.659 383.351 552.364 389.642 543.025L404.129 552.773C395.002 566.212 381.791 576.355 366.45 581.701C351.11 587.046 334.456 587.31 318.954 582.453Z" fill="white"/>
<path d="M302.836 532.824L278.366 490.656L254.097 532.925L302.836 532.824Z" fill="white"/>
<path d="M255.577 209.618L170.284 252.475L115.276 142.997L178.603 111.166L200.569 100.141L211.039 120.997L255.577 209.618Z" fill="white"/>
<path d="M255.576 209.618L170.401 252.71L170.183 252.827L170.065 252.592L114.906 143.182L114.704 142.812L115.091 142.627L200.434 99.8715L200.686 99.7371L200.821 100.006L255.576 209.618ZM255.576 209.618L200.3 100.275L200.686 100.409L115.461 143.367L115.646 142.812L170.519 252.357L170.166 252.239L255.576 209.618Z" fill="#263238"/>
<path d="M134.236 159.998L203.72 125.081L202.309 122.273L132.825 157.19L134.236 159.998Z" fill="#DBDBDB"/>
<path d="M137.793 167.094L207.277 132.177L205.866 129.369L136.382 164.286L137.793 167.094Z" fill="#DBDBDB"/>
<path d="M141.374 174.188L210.858 139.272L209.447 136.464L139.963 171.38L141.374 174.188Z" fill="#DBDBDB"/>
<path d="M144.939 181.283L214.423 146.366L213.012 143.558L143.528 178.475L144.939 181.283Z" fill="#DBDBDB"/>
<path d="M148.488 188.385L217.972 153.468L216.561 150.66L147.077 185.577L148.488 188.385Z" fill="#DBDBDB"/>
<path d="M152.062 195.464L221.546 160.548L220.135 157.739L150.651 192.656L152.062 195.464Z" fill="#DBDBDB"/>
<path d="M155.627 202.558L225.111 167.642L223.699 164.834L154.215 199.75L155.627 202.558Z" fill="#DBDBDB"/>
<path d="M159.191 209.67L228.675 174.753L227.264 171.945L157.78 206.861L159.191 209.67Z" fill="#DBDBDB"/>
<path d="M162.772 216.764L232.256 181.848L230.845 179.039L161.361 213.956L162.772 216.764Z" fill="#DBDBDB"/>
<path d="M166.337 223.858L235.821 188.942L234.41 186.134L164.926 221.05L166.337 223.858Z" fill="#DBDBDB"/>
<path d="M169.879 230.945L239.363 196.029L237.952 193.221L168.468 228.137L169.879 230.945Z" fill="#DBDBDB"/>
<path d="M173.443 238.04L242.927 203.123L241.516 200.315L172.032 235.231L173.443 238.04Z" fill="#DBDBDB"/>
<path d="M302.707 241.07L302.633 134.92L196.483 134.994L196.558 241.144L302.707 241.07Z" fill="#455A64"/>
<path d="M239.274 218.677C239.254 220.655 238.646 222.583 237.528 224.216C236.41 225.848 234.832 227.111 232.994 227.845C231.156 228.579 229.142 228.75 227.207 228.337C225.272 227.924 223.504 226.945 222.126 225.525C220.748 224.104 219.824 222.307 219.47 220.36C219.116 218.413 219.348 216.405 220.138 214.591C220.927 212.777 222.238 211.238 223.903 210.17C225.569 209.102 227.515 208.553 229.493 208.593C232.122 208.65 234.622 209.741 236.453 211.628C238.283 213.515 239.297 216.048 239.274 218.677Z" fill="white"/>
<path d="M240.256 168.433L232.644 168.281L231.646 218.422L239.258 218.574L240.256 168.433Z" fill="white"/>
<path d="M271.845 204.811C271.825 206.79 271.217 208.718 270.099 210.35C268.981 211.983 267.403 213.246 265.565 213.98C263.727 214.714 261.713 214.885 259.778 214.472C257.843 214.058 256.075 213.08 254.697 211.659C253.319 210.239 252.395 208.441 252.041 206.495C251.687 204.548 251.919 202.54 252.709 200.726C253.498 198.911 254.809 197.372 256.474 196.304C258.14 195.237 260.086 194.688 262.064 194.727C264.693 194.785 267.193 195.875 269.024 197.762C270.854 199.65 271.868 202.182 271.845 204.811Z" fill="white"/>
<path d="M272.851 154.521L265.239 154.371L264.25 204.512L271.862 204.662L272.851 154.521Z" fill="white"/>
<path d="M272.837 154.644L232.518 174.963L232.652 168.274L272.988 147.955L272.837 154.644Z" fill="white"/>
<path d="M272.601 167.282L232.266 187.618L232.4 180.896L272.736 160.577L272.601 167.282Z" fill="white"/>
<path d="M388.079 63.0316L386.415 62.8972L386.533 61.2166L388.213 61.351L388.079 63.0316Z" fill="#263238"/>
<path d="M289.072 95.9053L287.912 94.6952C288.668 93.9725 289.492 93.2162 290.383 92.4095L291.492 93.67C290.635 94.4431 289.828 95.1994 289.072 95.9053ZM293.996 91.502L292.904 90.2079C293.727 89.5188 294.584 88.8129 295.509 88.0903L296.551 89.4012C295.66 90.107 294.803 90.8129 293.996 91.502ZM299.172 87.3844L298.164 86.0399C299.021 85.3844 299.929 84.729 300.87 84.0567L301.845 85.4348C300.92 86.0903 300.03 86.7289 299.172 87.3844ZM304.567 83.5525L303.626 82.1576C304.534 81.5525 305.475 80.9475 306.45 80.3425L307.34 81.771C306.382 82.3592 305.458 82.9643 304.567 83.5525ZM310.231 80.0399L309.374 78.5946L312.282 76.9139L313.105 78.3929C312.046 78.8971 311.088 79.5021 310.231 80.0399ZM316.013 76.8299L315.239 75.3509C316.214 74.8299 317.206 74.3425 318.231 73.8383L318.971 75.3509L316.013 76.8299ZM321.962 73.9392L321.256 72.4098C322.265 71.956 323.29 71.5022 324.332 71.0653L324.987 72.6283C323.895 73.0484 322.886 73.5022 321.895 73.9392H321.962ZM328.046 71.3678L327.441 69.8048C328.466 69.4014 329.508 69.0149 330.567 68.6283L331.138 70.2081L328.046 71.3678ZM334.264 69.1325L333.743 67.4519C334.785 67.0989 335.844 66.7628 336.937 66.4435L337.424 68.1241C336.281 68.4603 335.239 68.8132 334.197 69.1325H334.264ZM340.483 67.2166L340.029 65.5359C341.105 65.2334 342.18 64.9645 343.273 64.6956L343.676 66.3763C342.651 66.662 341.575 66.9309 340.483 67.2166ZM346.903 65.6368L346.533 63.9561L349.894 63.2839L350.214 64.9645C349.105 65.1774 348.018 65.4015 346.953 65.6368H346.903ZM353.39 64.3931L353.121 62.7124C354.197 62.5276 355.306 62.3595 356.483 62.2082L356.718 63.8889C355.609 64.0402 354.516 64.2082 353.441 64.3931H353.39ZM359.945 63.4687L359.743 61.7881L363.104 61.452L363.256 63.1326C362.163 63.2334 361.071 63.3343 359.995 63.4687H359.945ZM366.516 62.8637L366.415 61.183L369.777 60.9982V62.6788L366.516 62.8637ZM383.054 62.7124C381.944 62.7124 380.835 62.6116 379.692 62.5948V60.9141L383.054 61.0318V62.7124ZM373.138 62.578V60.8973H376.113H376.482V62.578H376.113H373.138Z" fill="#263238"/>
<path d="M285.576 99.4345L284.349 98.2917L285.509 97.0648L286.719 98.2413L285.576 99.4345Z" fill="#263238"/>
<path d="M288.164 88.1575L289.694 88.8297L285.257 98.8968L295.122 94.0565L295.878 95.5523L281.845 102.443L288.164 88.1575Z" fill="#263238"/>
<path d="M608.026 207.383C608.026 207.383 607.908 206.811 607.656 205.803L609.336 205.383C609.605 206.475 609.723 207.063 609.723 207.063L608.026 207.383Z" fill="#263238"/>
<path d="M606.715 202.576C606.429 201.618 606.059 200.559 605.639 199.366L607.219 198.795C607.656 200.005 608.026 201.097 608.328 202.072L606.715 202.576ZM604.429 196.206C604.026 195.232 603.589 194.19 603.118 193.097L604.647 192.425C605.135 193.534 605.589 194.576 605.992 195.585L604.429 196.206ZM601.69 190.022C601.219 189.047 600.715 188.038 600.177 186.996L601.673 186.223C602.227 187.282 602.732 188.307 603.219 189.299L601.69 190.022ZM598.58 184.005C598.059 183.047 597.488 182.072 596.9 181.081L598.345 180.223C598.95 181.232 599.505 182.223 600.026 183.198L598.58 184.005ZM595.135 178.19C594.547 177.249 593.925 176.308 593.286 175.35L594.681 174.408C595.331 175.383 595.953 176.341 596.547 177.282L595.135 178.19ZM591.354 172.56C590.715 171.652 590.059 170.745 589.37 169.82L590.715 168.812L592.732 171.585L591.354 172.56ZM587.303 167.131L585.169 164.509L586.463 163.434C587.202 164.325 587.908 165.215 588.614 166.089L587.303 167.131ZM582.967 161.938C582.228 161.098 581.471 160.257 580.698 159.417L581.942 158.274C582.715 159.131 583.488 159.955 584.228 160.829L582.967 161.938ZM578.362 156.896C577.589 156.089 576.799 155.215 575.976 154.493L577.169 153.283C577.992 154.106 578.85 154.963 579.572 155.72L578.362 156.896ZM573.539 152.14C572.732 151.367 571.858 150.61 571.051 149.837L572.177 148.594L574.698 150.913L573.539 152.14ZM568.497 147.602C567.656 146.879 566.816 146.157 565.892 145.434L566.967 144.14C567.858 144.863 568.732 145.602 569.589 146.325L568.497 147.602ZM563.253 143.316C562.379 142.627 561.472 141.938 560.564 141.249L561.572 139.905C562.497 140.594 563.388 141.3 564.295 141.989L563.253 143.316ZM557.825 139.249C556.917 138.594 555.993 137.955 555.052 137.3L555.993 135.922L558.799 137.888L557.825 139.249Z" fill="#263238"/>
<path d="M552.245 135.468L550.833 134.543L551.741 133.132L553.169 134.056L552.245 135.468Z" fill="#263238"/>
<path d="M562.43 134.896L562.043 136.543L551.337 134.022L557.925 142.846L556.581 143.837L547.22 131.333L562.43 134.896Z" fill="#263238"/>
<path d="M178.267 276.121L176.586 276.004L176.72 274.323L178.384 274.457L178.267 276.121Z" fill="#263238"/>
<path d="M210.065 374.692C209.342 373.935 208.569 373.112 207.779 372.221L209.039 371.095C209.812 371.969 210.569 372.776 211.275 373.532L210.065 374.692ZM205.577 369.65C204.888 368.826 204.182 367.969 203.46 367.045L204.77 366.003C205.476 366.893 206.182 367.683 206.854 368.557L205.577 369.65ZM201.409 364.389C200.754 363.532 200.081 362.624 199.426 361.683L200.804 360.709C201.46 361.633 202.098 362.524 202.737 363.381L201.409 364.389ZM197.527 358.927C196.922 358.019 196.317 357.078 195.712 356.104L197.124 355.213C197.729 356.171 198.334 357.095 198.922 357.986L197.527 358.927ZM193.964 353.246C193.409 352.305 192.855 351.33 192.283 350.339L193.745 349.515C194.3 350.507 194.838 351.465 195.426 352.389L193.964 353.246ZM190.72 347.381C190.199 346.406 189.695 345.415 189.208 344.389L190.72 343.65C191.208 344.658 191.695 345.65 192.199 346.608L190.72 347.381ZM187.779 341.364C187.325 340.356 186.872 339.331 186.435 338.289L187.981 337.633C188.418 338.658 188.855 339.667 189.308 340.658L187.779 341.364ZM185.174 335.179C184.771 334.154 184.384 333.112 183.998 332.053L185.577 331.482L186.737 334.574L185.174 335.179ZM182.905 328.877C182.552 327.835 182.216 326.776 181.897 325.684L183.577 325.196C183.914 326.272 184.233 327.314 184.586 328.356L182.905 328.877ZM180.956 322.474C180.67 321.398 180.384 320.322 180.115 319.23L181.796 318.827C182.065 319.902 182.351 320.978 182.636 322.02L180.956 322.474ZM179.275 315.97C179.04 314.877 178.821 313.785 178.603 312.608L180.283 312.289C180.502 313.381 180.72 314.457 180.956 315.516L179.275 315.97ZM178.015 309.381C177.83 308.289 177.662 307.197 177.51 306.02L179.191 305.785C179.342 306.877 179.51 307.97 179.695 309.045L178.015 309.381ZM177.073 302.76C176.956 301.667 176.838 300.541 176.737 299.398L178.418 299.247C178.519 300.368 178.636 301.46 178.771 302.524L177.073 302.76ZM176.468 296.037C176.468 294.945 176.334 293.819 176.283 292.676H177.964C177.964 293.785 178.065 294.894 178.149 296.037H176.468ZM176.183 289.314C176.183 288.34 176.183 287.348 176.183 286.34V285.97H177.863V286.34C177.863 287.331 177.863 288.306 177.863 289.281L176.183 289.314ZM177.863 282.592H176.183C176.183 281.483 176.183 280.373 176.3 279.231H177.981C178.031 280.575 177.981 281.634 177.964 282.743L177.863 282.592Z" fill="#263238"/>
<path d="M213.661 378.187L212.434 377.011L213.611 375.818L214.804 376.96L213.661 378.187Z" fill="#263238"/>
<path d="M203.51 374.372L204.199 372.826L214.266 377.28L209.409 367.397L210.922 366.658L217.812 380.691L203.51 374.372Z" fill="#263238"/>
<path d="M531.707 78.9475H401.121V163.383H531.707V78.9475Z" fill="#6F95C9"/>
<path d="M442.28 70.2081H401.121V78.9475H444.633L442.28 70.2081Z" fill="#6F95C9"/>
<g opacity="0.1">
<path d="M531.707 78.9475H401.121V163.383H531.707V78.9475Z" fill="black"/>
<path d="M442.28 70.2081H401.121V78.9475H444.633L442.28 70.2081Z" fill="black"/>
</g>
<path d="M503.909 134.409L418.969 134.358L419.02 25.3347L482.094 25.3683L503.943 46.158L503.909 134.409Z" fill="#6F95C9"/>
<path opacity="0.6" d="M503.909 134.409L418.969 134.358L419.02 25.3347L482.094 25.3683L503.943 46.158L503.909 134.409Z" fill="white"/>
<path d="M482.094 25.3683L503.943 46.1579L482.078 46.1411L482.094 25.3683Z" fill="#6F95C9"/>
<path opacity="0.4" d="M482.094 25.3683L503.943 46.1579L482.078 46.1411L482.094 25.3683Z" fill="white"/>
<path d="M427.296 46.4295L474.522 46.4542L474.524 43.6475L427.298 43.6228L427.296 46.4295Z" fill="white"/>
<path d="M427.3 53.4882L474.526 53.5129L474.528 50.7063L427.301 50.6815L427.3 53.4882Z" fill="white"/>
<path d="M427.287 60.5638L474.513 60.5885L474.515 57.7818L427.288 57.7571L427.287 60.5638Z" fill="white"/>
<path d="M427.291 67.6278L496.483 67.6641L496.484 64.8574L427.292 64.8212L427.291 67.6278Z" fill="white"/>
<path d="M427.277 74.7033L496.47 74.7395L496.471 71.9328L427.279 71.8966L427.277 74.7033Z" fill="white"/>
<path d="M427.281 81.7453L496.473 81.7815L496.475 78.9748L427.282 78.9386L427.281 81.7453Z" fill="white"/>
<path d="M427.285 88.8208L496.477 88.8571L496.479 86.0504L427.286 86.0141L427.285 88.8208Z" fill="white"/>
<path d="M427.272 95.8795L496.464 95.9158L496.466 93.1091L427.273 93.0729L427.272 95.8795Z" fill="white"/>
<path d="M427.275 102.955L496.468 102.991L496.469 100.185L427.277 100.148L427.275 102.955Z" fill="white"/>
<path d="M427.262 110.014L496.455 110.05L496.456 107.243L427.264 107.207L427.262 110.014Z" fill="white"/>
<path d="M427.249 117.089L496.441 117.126L496.443 114.319L427.251 114.283L427.249 117.089Z" fill="white"/>
<path d="M427.27 124.148L496.462 124.184L496.464 121.378L427.271 121.341L427.27 124.148Z" fill="white"/>
<path d="M531.405 163.383H400.818L391.827 85.9558H522.43L531.405 163.383Z" fill="#6F95C9"/>
<path d="M432.061 77.9222H390.902L391.827 85.9557H435.356L432.061 77.9222Z" fill="#6F95C9"/>
<path d="M522.296 529.16L473.843 570.991C464.532 578.941 456.515 586.117 452.717 590.151C451.731 591.009 450.95 592.077 450.431 593.277C450.431 593.277 450.431 593.277 450.431 593.394C450.935 597.764 512.245 673.965 515.287 675.898C518.329 677.83 524.077 669.343 524.06 664.486C524.044 659.629 513.59 620.066 513.59 620.066L561.606 577.815L522.296 529.16Z" fill="#FFC4C0"/>
<path d="M518.8 640.722C521.388 651.158 523.943 662.133 523.976 664.553C523.976 669.41 518.228 677.998 515.203 675.965C512.178 673.931 450.851 597.831 450.364 593.462C450.364 593.462 450.364 593.462 450.364 593.344C450.884 592.141 451.672 591.072 452.666 590.218C455.742 586.857 461.624 581.596 468.7 575.445C470.38 574.017 472.061 572.554 473.742 571.059L522.195 529.227L561.421 577.832L513.59 620.066C513.59 620.066 516.245 630.15 518.884 640.755L518.8 640.722Z" fill="#FFC4C0"/>
<path d="M523.976 664.553C523.976 669.41 518.228 677.998 515.203 675.965C512.178 673.931 450.851 597.831 450.364 593.462C450.364 593.462 450.364 593.462 450.364 593.344C450.884 592.141 451.672 591.072 452.666 590.218C455.742 586.857 461.624 581.596 468.7 575.445C480.195 596.907 511.674 654.57 517.64 653.965C519.758 653.747 519.472 647.058 518.749 640.789C521.388 651.158 523.943 662.083 523.976 664.553Z" fill="#263238"/>
<path d="M547.64 480.404C544.682 497.917 474.75 569.647 474.75 569.647L527.035 626.15C527.035 626.15 626.193 520.521 619.471 482.253C613.74 448.959 559.32 316.104 559.32 316.104L501.556 317.97C501.556 317.97 550.564 463.178 547.64 480.404Z" fill="#263238"/>
<path d="M547.64 480.404C544.682 497.917 474.75 569.647 474.75 569.647L527.035 626.15C527.035 626.15 626.193 520.521 619.471 482.253C613.74 448.959 559.32 316.104 559.32 316.104L501.556 317.97C501.556 317.97 550.564 463.178 547.64 480.404Z" fill="#37474F"/>
<path d="M532.228 612.151C525.27 604.033 527.388 606.268 520.329 598.235C516.884 594.302 494.195 568.504 490.347 565.412C490.263 565.412 490.128 565.412 490.178 565.546C492.834 569.731 515.96 595.125 519.489 598.991C526.682 606.89 524.716 604.537 531.993 612.436C532.077 612.503 532.363 612.302 532.228 612.151Z" fill="#263238"/>
<path d="M554.547 471.682C553.572 467.379 552.497 463.077 551.438 458.774C549.276 450.001 547.001 441.256 544.615 432.539C539.898 415.262 534.816 398.086 529.371 381.011C523.892 363.885 518.127 346.793 511.573 330.037C510.766 327.969 509.892 325.919 509.102 323.852C509.088 323.823 509.063 323.801 509.034 323.789C509.004 323.777 508.971 323.776 508.94 323.786C508.91 323.796 508.884 323.817 508.868 323.844C508.851 323.872 508.845 323.904 508.85 323.936C514.598 340.742 520.497 357.549 525.909 374.355C531.321 391.162 536.346 408.153 541.136 425.178C543.539 433.733 545.791 442.321 548.009 450.926C549.102 455.161 550.161 459.329 551.203 463.631C552.475 467.918 553.424 472.295 554.043 476.724C554.319 480.934 553.266 485.125 551.035 488.707C548.984 492.32 546.547 495.732 544.194 499.144C539.472 506.001 494.161 559.916 492.699 561.328C492.582 561.445 492.699 561.613 492.884 561.496C499.002 555.63 537.489 511.076 542.346 504.354C544.749 500.992 547.085 497.53 549.371 494.068C551.667 490.922 553.491 487.457 554.783 483.782C555.732 479.794 555.651 475.63 554.547 471.682Z" fill="#263238"/>
<path d="M549.404 316.423L543.371 454.371C531.842 407.599 501.64 317.97 501.64 317.97L549.404 316.423Z" fill="#263238"/>
<path d="M538.8 600.403C538.8 600.403 553.236 660.721 553.236 660.755C553.791 672.99 554.514 683.679 555.388 689.192C555.38 689.219 555.38 689.248 555.388 689.276C555.457 690.585 555.825 691.861 556.463 693.007V693.091C560.211 695.376 658.008 693.729 661.403 692.536C664.798 691.343 661.621 681.561 657.773 678.603C653.924 675.645 616.193 659.528 616.193 659.528L601.152 599.277L538.8 600.403Z" fill="#FFC4C0"/>
<path d="M661.487 692.519C658.126 693.729 560.295 695.393 556.547 693.091V693.007C555.909 691.861 555.541 690.585 555.472 689.276C555.461 689.249 555.461 689.219 555.472 689.192C554.783 684.805 554.178 677.108 553.673 667.982C578.681 672.015 641.386 681.528 644.428 676.503C645.605 674.57 639.387 670.368 633.622 667.057C644.109 671.662 655.857 677.024 657.924 678.603C661.655 681.561 664.848 691.343 661.487 692.519Z" fill="#263238"/>
<path d="M558.749 316.121C556.818 325.693 555.477 335.375 554.732 345.112C553.909 357.229 552.749 367.969 551.186 369.364C549.623 370.759 540.463 377.078 537.455 379.061C537.455 379.061 568.698 464.405 576.984 492.925C588.967 534.269 618.53 658.52 618.53 658.52L550.564 660.705C550.564 660.705 526.043 542.303 515.741 502.908C506.867 469.127 473.943 367.969 473.943 367.969C470.555 360.194 468.874 351.782 469.013 343.302C469.152 334.822 471.108 326.47 474.75 318.81C474.75 318.81 558.766 316.087 558.749 316.121Z" fill="#37474F"/>
<path d="M615.639 645.377C604.967 645.663 608.025 645.377 597.337 645.848C592.127 646.032 557.791 647.377 552.951 648.419C552.85 648.419 552.85 648.637 552.951 648.637C557.858 649.209 592.16 647.276 597.387 646.957C608.042 646.352 604.984 646.402 615.639 645.663C615.857 645.679 615.841 645.377 615.639 645.377Z" fill="#263238"/>
<path d="M555.875 365.801C549.395 369.643 543.26 374.041 537.539 378.944C537.321 379.145 537.539 379.498 537.808 379.33C544.027 375.145 550.413 371.061 556.396 366.54C556.484 366.467 556.541 366.364 556.556 366.251C556.57 366.138 556.542 366.024 556.477 365.93C556.411 365.837 556.313 365.772 556.201 365.748C556.09 365.724 555.973 365.743 555.875 365.801Z" fill="#263238"/>
<path d="M549.169 319.028C549.169 318.793 548.699 318.827 548.749 319.028C550.312 327.062 551.136 334.154 551.875 341.868C552.211 345.415 553.052 365.213 546.732 364.961C545.674 364.961 544.968 364.019 544.514 362.507C544.16 360.511 544.058 358.478 544.211 356.456C544.127 352.288 543.892 348.053 543.472 344.003C542.746 336.282 541.225 328.656 538.934 321.247C538.916 321.204 538.883 321.169 538.841 321.148C538.8 321.127 538.752 321.12 538.706 321.13C538.661 321.14 538.62 321.166 538.591 321.202C538.562 321.239 538.547 321.284 538.548 321.331C540.704 331.824 542.069 342.465 542.632 353.162C542.816 358.322 541.724 366.339 547.119 366.12C552.514 365.902 553.673 352.675 553.673 349.028C553.475 338.875 551.961 328.792 549.169 319.028Z" fill="#263238"/>
<path d="M546.984 365.498C546.69 366.901 546.488 368.321 546.379 369.75C546.182 370.862 546.182 372 546.379 373.112C546.379 373.313 546.732 373.28 546.816 373.112C547.256 372.004 547.528 370.837 547.623 369.649C547.858 368.339 548.11 367.011 548.295 365.683C548.274 365.535 548.206 365.398 548.1 365.293C547.994 365.187 547.857 365.119 547.709 365.098C547.561 365.077 547.411 365.105 547.28 365.177C547.149 365.249 547.045 365.362 546.984 365.498Z" fill="#263238"/>
<path d="M541.035 610.319C540.816 608.756 540.547 607.193 540.279 605.63C539.758 602.621 539.152 599.647 538.598 596.655C537.472 590.655 536.245 584.655 534.984 578.672C532.464 566.756 529.623 554.874 526.581 543.042C524.901 536.32 522.985 529.765 520.968 523.177C520.817 522.723 520.178 522.975 520.279 523.412C521.556 529.463 522.817 535.513 524.262 541.53C525.707 547.546 527.119 553.529 528.514 559.546C531.287 571.412 533.875 583.327 536.631 595.21C537.405 598.571 538.127 601.932 538.884 605.294C539.27 606.974 539.674 608.655 540.077 610.335C540.48 612.016 541.068 613.613 541.405 615.293C541.405 615.461 541.673 615.377 541.64 615.209C541.354 613.579 541.287 611.932 541.035 610.319Z" fill="#263238"/>
<path d="M584.967 518.521C582.345 507.328 578.934 496.303 575.505 485.329C568.614 463.228 560.631 441.497 552.665 419.783L545.774 400.994C544.632 397.868 539.052 380.977 538.279 379.38C538.273 379.363 538.264 379.346 538.252 379.332C538.241 379.318 538.226 379.306 538.21 379.298C538.193 379.289 538.175 379.284 538.157 379.282C538.139 379.281 538.12 379.282 538.102 379.288C538.085 379.294 538.068 379.302 538.054 379.314C538.04 379.326 538.028 379.341 538.02 379.357C538.011 379.374 538.006 379.391 538.004 379.41C538.002 379.428 538.004 379.447 538.01 379.464C539.69 385.229 541.959 393.632 543.842 399.33C545.724 405.027 547.707 410.557 549.657 416.136C553.489 427.145 557.371 438.136 561.102 449.178C568.48 471.026 575.808 492.875 581.942 515.059C583.623 521.278 585.303 527.496 586.984 533.748C588.665 540 589.959 546.303 591.488 552.555C591.488 552.723 591.807 552.672 591.791 552.555C590.244 541.076 587.539 529.765 584.967 518.521Z" fill="#263238"/>
<path d="M544.631 578.874C540.194 557.479 535.035 536.235 529.371 515.143C523.707 494.051 517.455 472.892 510.665 452.001C503.876 431.111 496.397 410.472 488.447 390.019C484.48 380.409 481.091 370.571 478.296 360.557C475.725 350.591 474.246 339.751 476.246 329.549C476.734 326.957 477.419 324.406 478.296 321.919C478.296 321.751 478.111 321.616 478.044 321.785C470.481 341.095 476.464 361.75 483.288 380.322C487.036 390.405 491.002 400.489 494.682 410.775C498.363 421.061 502.128 431.749 505.64 442.304C512.598 463.222 519.057 484.303 525.018 505.547C530.979 526.79 536.323 548.157 541.052 569.647C545.858 591.243 550.01 612.94 554.211 634.671C554.766 637.495 555.203 640.335 555.673 643.175C555.673 643.327 555.942 643.327 555.925 643.175C552.614 621.747 549.068 600.218 544.631 578.874Z" fill="#263238"/>
<path d="M551.875 186.055C562.261 199.618 555.371 214.71 558.85 224.424C560.967 230.374 570.329 238.155 571.152 244.592C572.48 255.281 563.287 257.063 564.026 262.878C565.085 271.096 575.471 272.676 574.665 285.617C573.858 298.558 557.287 309.028 523.674 305.785C490.061 302.541 474.716 286.659 475.792 275.768C476.868 264.878 488.515 263.651 490.918 255.869C492.464 250.828 486.481 245.937 488.128 236.525C489.775 227.114 499.506 225.988 502.498 218.341C505.489 210.694 505.371 190.509 519.102 183.131C532.833 175.753 546.766 179.366 551.875 186.055Z" fill="#263238"/>
<path d="M550.346 186.038C553.366 189.294 555.551 193.232 556.715 197.517C557.901 202.048 558.555 206.701 558.665 211.383C558.655 214.159 558.959 216.927 559.573 219.635C560.274 221.926 561.372 224.076 562.816 225.988C565.69 229.937 569.404 233.265 571.808 237.55C574.11 241.584 575.488 246.643 573.304 250.996C572.11 253.382 569.942 255.08 568.463 257.231C566.984 259.382 566.026 261.937 567.556 264.206C568.85 266.138 571.068 267.365 572.598 269.063C574.151 270.735 575.433 272.64 576.396 274.71C577.367 276.77 577.899 279.01 577.957 281.288C578.015 283.565 577.598 285.829 576.732 287.936C572.648 297.718 561.875 301.482 552.279 303.264C550.934 303.516 549.59 303.734 548.245 303.97C548.043 303.97 547.943 303.701 548.161 303.65C557.842 301.566 569.102 299.096 574.614 289.919C575.835 287.922 576.581 285.672 576.797 283.341C577.012 281.011 576.691 278.662 575.858 276.474C575.018 274.303 573.788 272.304 572.228 270.575C570.732 268.895 568.867 267.634 567.304 266.004C566.517 265.249 565.947 264.298 565.652 263.249C565.356 262.2 565.346 261.092 565.623 260.037C566.396 257.761 567.705 255.704 569.438 254.038C571.241 252.305 572.477 250.066 572.984 247.617C573.222 245.184 572.792 242.732 571.741 240.525C569.808 236.038 566.278 232.609 563.236 228.878C560.075 225.337 558.106 220.893 557.606 216.173C557.421 213.702 557.522 211.131 557.421 208.727C557.357 206.422 557.166 204.121 556.85 201.837C556.305 197.268 554.767 192.875 552.346 188.963C551.69 187.964 550.942 187.03 550.111 186.173C550.111 186.089 550.262 185.938 550.346 186.038Z" fill="#263238"/>
<path d="M476.044 267.584C476.81 265.932 477.929 264.469 479.321 263.298C480.767 262.088 482.397 261.164 483.943 260.105C485.484 259.185 486.736 257.851 487.557 256.256C488.219 254.225 488.154 252.026 487.372 250.038C486.661 247.974 486.099 245.862 485.691 243.718C485.38 241.607 485.38 239.461 485.691 237.349C486.432 233.011 488.485 229.004 491.573 225.87C493.069 224.273 494.699 222.811 496.212 221.231C497.874 219.509 499.304 217.577 500.464 215.483C502.985 210.862 504.397 205.736 506.666 200.996C508.998 196.148 511.813 191.548 515.069 187.265C515.069 187.164 515.304 187.265 515.22 187.417C512.298 191.283 509.791 195.446 507.741 199.837C505.758 204.005 504.38 208.374 502.699 212.643C501.895 214.75 500.881 216.772 499.674 218.677C498.492 220.419 497.153 222.051 495.674 223.551C492.699 226.677 489.657 229.752 488.145 233.903C486.642 237.98 486.472 242.429 487.657 246.609C488.683 250.222 490.346 254.323 488.027 257.819C486.078 260.777 482.582 262.054 479.977 264.306C478.587 265.549 477.476 267.073 476.717 268.776C475.958 270.479 475.568 272.324 475.574 274.189C475.389 283.718 483.607 290.222 492.111 292.491C492.158 292.51 492.196 292.545 492.22 292.59C492.244 292.634 492.251 292.686 492.241 292.735C492.231 292.785 492.205 292.829 492.166 292.861C492.127 292.893 492.078 292.911 492.027 292.911C484.565 291.23 477.12 286.188 475.103 278.474C474.146 274.845 474.478 270.995 476.044 267.584Z" fill="#263238"/>
<path d="M527.136 258.374C542.749 288.104 562.43 320.205 579.942 324.776C596.631 329.112 636.378 287.499 643.118 273.684C645.437 268.928 613.975 248.071 609.505 251.567C601.101 258.172 582.749 279.113 580.127 278.592C577.505 278.071 555.22 258.206 535.102 241.517C522.934 231.399 516.313 237.786 527.136 258.374Z" fill="#FFC4C0"/>
<path d="M615.202 203.265L603.185 245.281C602.681 246.508 603.286 247.55 604.496 247.584L626.345 248.273C627.016 248.245 627.664 248.026 628.215 247.642C628.766 247.258 629.196 246.725 629.454 246.105L641.471 204.089C641.613 203.857 641.69 203.591 641.693 203.318C641.697 203.046 641.627 202.778 641.491 202.543C641.355 202.307 641.158 202.112 640.921 201.979C640.684 201.846 640.415 201.779 640.143 201.786L618.294 201.097C617.628 201.132 616.984 201.354 616.437 201.738C615.891 202.121 615.463 202.65 615.202 203.265Z" fill="#A6A6A6"/>
<path d="M617.79 203.265L605.757 245.365C605.62 245.598 605.548 245.863 605.547 246.133C605.546 246.403 605.617 246.669 605.751 246.903C605.886 247.136 606.081 247.33 606.315 247.465C606.549 247.599 606.814 247.669 607.084 247.668L628.933 248.34C629.601 248.311 630.248 248.094 630.798 247.714C631.348 247.333 631.78 246.804 632.042 246.189L644.059 204.173C644.546 202.929 643.958 201.904 642.731 201.87L620.883 201.181C620.224 201.207 619.586 201.416 619.04 201.784C618.494 202.152 618.061 202.665 617.79 203.265Z" fill="#DBDBDB"/>
<path d="M623.74 205.467C623.714 205.959 623.494 206.42 623.129 206.751C622.763 207.082 622.282 207.254 621.79 207.231C621.297 207.201 620.835 206.978 620.505 206.61C620.175 206.242 620.002 205.759 620.025 205.265C620.087 204.8 620.323 204.375 620.684 204.075C621.046 203.775 621.507 203.623 621.976 203.648C622.445 203.674 622.887 203.875 623.214 204.212C623.541 204.549 623.729 204.997 623.74 205.467Z" fill="#455A64"/>
<path d="M653.235 249.87C655.084 237.634 653.689 234.206 660.731 224.66C665.353 218.425 663.353 212.794 656.075 216.257C644.193 221.988 638.496 237.265 638.042 243.147L653.235 249.87Z" fill="#FFC4C0"/>
<path d="M637.454 281.92C637.454 281.92 648.865 268.592 652.126 255.752C654.378 246.878 657.168 227.013 637.723 207.752C633.118 203.181 623.319 199.937 628.126 210.122C631.487 217.366 635.891 220.929 637.118 225.5C637.118 225.5 624.16 222.845 619.756 227.635C615.925 231.834 612.387 236.293 609.168 240.979C609.896 241.76 610.67 242.495 611.488 243.181C611.488 243.181 607.807 248.054 608.58 257.298L637.454 281.92Z" fill="#FFC4C0"/>
<path d="M652.933 246.962C650.765 242.676 646.008 233.685 639.487 227.668C632.328 220.946 616.715 210.072 611.858 215.416C608.278 219.332 613.858 224.021 613.858 224.021C613.858 224.021 606.463 220.862 604.009 225.097C601.774 228.979 606.311 232.34 606.311 232.34C606.311 232.34 601.505 231.198 600.059 235.332C598.379 240.374 608.715 241.903 611.32 248.458C611.975 249.886 652.933 246.962 652.933 246.962Z" fill="#FFC4C0"/>
<path d="M633.757 236.391C628.634 230.334 621.786 225.984 614.127 223.92C613.925 223.92 613.79 224.004 613.958 224.088C621.02 227.393 627.651 231.547 633.706 236.458C633.706 236.458 633.79 236.424 633.757 236.391Z" fill="#263238"/>
<path d="M626.815 243.416C621.173 237.893 614.14 234.001 606.463 232.156C606.278 232.156 606.143 232.256 606.311 232.324C613.529 235.254 620.386 239.004 626.748 243.5C626.748 243.5 626.849 243.466 626.815 243.416Z" fill="#263238"/>
<path d="M598.698 257.046L631.454 291.802C631.454 291.802 596.849 330.591 580.597 326.541C564.346 322.49 533.623 278.491 523.775 250.575C516.968 231.248 527.724 234.357 539.001 243.853C550.278 253.348 579.808 276.844 581.102 276.491C582.396 276.138 598.698 257.046 598.698 257.046Z" fill="#6F95C9"/>
<g opacity="0.2">
<path d="M598.698 257.046L631.454 291.802C631.454 291.802 596.849 330.591 580.597 326.541C564.346 322.49 533.623 278.491 523.775 250.575C516.968 231.248 527.724 234.357 539.001 243.853C550.278 253.348 579.808 276.844 581.102 276.491C582.396 276.138 598.698 257.046 598.698 257.046Z" fill="black"/>
</g>
<path opacity="0.1" d="M523.775 250.508C533.623 278.424 564.346 322.406 580.597 326.474C587.774 328.272 598.564 321.684 608.345 313.768C591.774 296.692 547.707 255.365 527.674 236.76C522.229 234.979 519.439 238.189 523.775 250.508Z" fill="black"/>
<path d="M620.832 297.499C616.076 292.709 597.303 272.407 593.639 267.735C593.37 267.416 593.522 267.163 593.824 267.466C603.433 276.929 612.511 286.916 621.017 297.382C621.152 297.382 620.95 297.634 620.832 297.499Z" fill="#263238"/>
<path d="M474.38 320.238L560.783 318.86L553.169 293.213C555.329 289.889 556.732 286.131 557.278 282.204C557.824 278.277 557.5 274.279 556.329 270.491C554.026 262.945 543.825 251.853 537.556 244.811C522.313 227.651 509.825 236.038 505.909 240.693C490.935 258.592 474.38 320.238 474.38 320.238Z" fill="#EBEBEB"/>
<path d="M530.027 292.44C533.706 291.984 537.413 291.805 541.119 291.903C542.968 291.903 544.783 292.121 546.615 292.323C547.539 292.424 548.447 292.491 549.371 292.541C550.325 292.659 551.291 292.659 552.245 292.541C552.329 292.541 552.346 292.642 552.245 292.676C551.367 292.909 550.474 293.083 549.573 293.197C548.694 293.247 547.813 293.247 546.934 293.197C545.069 293.197 543.203 292.995 541.338 292.928C537.556 292.777 533.791 292.625 530.027 292.76C529.993 292.749 529.964 292.727 529.943 292.699C529.922 292.67 529.911 292.636 529.911 292.6C529.911 292.565 529.922 292.53 529.943 292.502C529.964 292.473 529.993 292.452 530.027 292.44Z" fill="#263238"/>
<path d="M521.791 297.566C524.696 296.613 527.653 295.828 530.648 295.214C532.144 294.894 533.657 294.693 535.169 294.508L537.354 294.289C538.161 294.289 539.035 294.289 539.774 294.188C539.858 294.188 539.875 294.306 539.774 294.306C539.035 294.407 538.295 294.625 537.539 294.777L535.304 295.197L530.8 296.054C527.791 296.592 524.8 297.163 521.825 297.735C521.674 297.852 521.64 297.617 521.791 297.566Z" fill="#263238"/>
<path d="M503.506 240.055C475.624 256.861 435.692 296.961 438.448 307.869C441.507 320.003 480.464 296.407 480.733 294.541C481.002 293.129 499.22 267.214 512.75 248.441C526.279 229.668 510.363 235.903 503.506 240.055Z" fill="#FFC4C0"/>
<path d="M480.901 294.625C482.582 291.802 507.052 257.651 514.329 246.861C521.607 236.071 518.649 231.265 503.792 239.147C488.935 247.029 453.171 276.878 442.179 294.777C431.591 312.003 441.221 314.457 456.145 309.079C468.347 304.676 480.901 294.625 480.901 294.625Z" fill="#6F95C9"/>
<g opacity="0.2">
<path d="M480.901 294.625C482.582 291.802 507.052 257.651 514.329 246.861C521.607 236.071 518.649 231.265 503.792 239.147C488.935 247.029 453.171 276.878 442.179 294.777C431.591 312.003 441.221 314.457 456.145 309.079C468.347 304.676 480.901 294.625 480.901 294.625Z" fill="black"/>
</g>
<path d="M480.901 294.625C482.767 291.516 484.767 288.474 486.767 285.449C488.767 282.424 490.851 279.466 492.884 276.474C494.918 273.483 497.086 270.575 499.254 267.668C501.422 264.76 503.607 261.869 505.976 259.046C504.111 262.172 502.128 265.197 500.128 268.222C498.128 271.247 496.027 274.205 493.993 277.197C491.96 280.188 489.792 283.113 487.624 286.004C485.456 288.894 483.204 291.819 480.901 294.625Z" fill="#263238"/>
<path d="M506.144 261.869C505.526 262.962 504.724 263.939 503.775 264.76C503.306 265.176 502.8 265.547 502.262 265.869C501.742 266.202 501.175 266.456 500.582 266.626C501.489 265.735 502.363 264.945 503.271 264.121C504.171 263.3 505.132 262.548 506.144 261.869Z" fill="#263238"/>
<path d="M438.33 306.793C441.44 315.079 454.448 319.818 486.094 334.86C490.481 336.927 513.472 309.986 508.918 307.516C503.17 304.423 480.195 293.634 478.414 293.045C463.406 288.188 436.28 301.197 438.33 306.793Z" fill="#FFC4C0"/>
<path d="M502.632 304.289C502.632 304.289 516.212 310.037 522.396 315.247C528.704 320.838 533.555 327.881 536.531 335.768C539.791 344.171 541.774 367.045 535.304 368.759C529.455 370.305 528.581 346.91 528.581 346.91C528.581 346.91 533.388 370.608 526.01 371.179C518.632 371.75 519.17 344.557 519.17 344.557C519.17 344.557 523.556 369.011 515.808 368.406C509.993 367.935 509.086 343.196 509.086 343.196C509.086 343.196 512.716 364.255 506.699 364.036C500.061 363.801 497.808 341.078 497.808 341.078C482.683 337.952 476.666 330.255 473.069 324.272C472.279 322.894 502.632 304.289 502.632 304.289Z" fill="#FFC4C0"/>
<path d="M527.472 338.608C528.128 341.381 528.833 344.171 529.237 347.011C529.64 349.851 529.976 352.641 530.128 355.414C530.413 359.122 530.261 362.851 529.674 366.523C529.878 360.001 529.473 353.475 528.464 347.028C528.044 344.221 527.775 341.381 527.354 338.625C527.354 338.557 527.455 338.557 527.472 338.608Z" fill="#263238"/>
<path d="M517.287 339.936C517.977 343.499 518.8 347.011 519.338 350.608C519.876 354.204 520.077 357.633 520.363 361.246C520.363 361.532 520.229 361.448 520.195 361.162C519.758 357.582 519.086 354.288 518.615 350.692C518.145 347.095 517.792 343.499 517.203 339.952C517.187 339.885 517.271 339.885 517.287 339.936Z" fill="#263238"/>
<path d="M508.329 339.499C509.533 344.942 510.17 350.495 510.229 356.07C510.229 356.339 510.044 356.221 510.027 355.935C509.489 350.423 509.119 346.087 508.145 339.549C508.128 339.398 508.313 339.398 508.329 339.499Z" fill="#263238"/>
<path d="M505.573 305.045L468.095 330.104C468.095 330.104 440.314 315.869 437.961 307.096C436.364 301.381 463.742 286.928 479.977 293.516L505.573 305.045Z" fill="#6F95C9"/>
<path opacity="0.2" d="M505.573 305.045L468.095 330.104C468.095 330.104 440.314 315.869 437.961 307.096C436.364 301.381 463.742 286.928 479.977 293.516L505.573 305.045Z" fill="black"/>
<path d="M458.481 293.701C465.345 291.002 472.963 290.93 479.876 293.499C479.96 293.499 479.876 293.667 479.876 293.651C472.615 291.566 461.742 292.877 458.548 293.835C458.431 293.852 458.414 293.735 458.481 293.701Z" fill="#263238"/>
<path d="M461.49 322.591C465.456 319.617 469.591 316.86 473.725 314.188C477.859 311.516 481.994 308.676 486.212 306.02C488.582 304.541 490.952 303.029 493.389 301.617C493.389 301.617 493.523 301.617 493.473 301.718C489.506 304.692 485.372 307.465 481.271 310.239C477.17 313.012 472.985 315.751 468.817 318.457C466.448 319.97 464.061 321.448 461.641 322.86C461.605 322.88 461.563 322.885 461.524 322.874C461.484 322.863 461.451 322.837 461.431 322.801C461.411 322.766 461.406 322.724 461.417 322.684C461.428 322.645 461.454 322.611 461.49 322.591Z" fill="#263238"/>
<path d="M505.741 304.642C504.085 303.643 502.361 302.761 500.582 302.003C498.834 301.174 497.069 300.384 495.287 299.634C489.609 296.858 483.713 294.553 477.657 292.743C477.657 292.743 477.876 293.18 477.96 293.197C481.237 293.852 503.17 304.373 505.103 304.961L504.8 305.297C504.8 305.381 504.8 305.533 504.918 305.482C505.183 305.376 505.441 305.253 505.691 305.113C505.732 305.091 505.767 305.059 505.793 305.02C505.82 304.982 505.836 304.937 505.841 304.891C505.846 304.844 505.839 304.797 505.822 304.754C505.805 304.71 505.777 304.672 505.741 304.642Z" fill="#263238"/>
<path d="M519.775 239.113C519.943 240.693 526.06 251.5 533.102 252.004C535.388 252.155 536.833 239.702 536.833 239.702L537.136 238.794L541.556 226.256L527.573 214.744L525.539 213.198C525.539 213.198 524.565 216.71 523.388 221.097C523.388 221.298 523.27 221.5 523.22 221.719C523.137 221.949 523.07 222.185 523.018 222.425L522.464 224.408C522.329 224.929 522.212 225.416 522.094 225.954C521.976 226.492 521.842 227.013 521.707 227.55C520.797 231.356 520.151 235.219 519.775 239.113Z" fill="#FFC4C0"/>
<path d="M523.388 221.097C524.257 224.866 525.935 228.401 528.306 231.457C530.677 234.513 533.684 237.016 537.119 238.794L541.539 226.256L527.556 214.744L525.522 213.198C525.522 213.198 524.564 216.71 523.388 221.097Z" fill="#263238"/>
<path d="M562.194 204.307C567.236 227.097 554.144 232.693 549.236 233.769C544.766 234.744 529.455 237.517 522.094 215.282C514.733 193.047 523.775 183.585 533.858 180.812C543.942 178.039 557.169 181.518 562.194 204.307Z" fill="#FFC4C0"/>
<path d="M558.228 203.114C557.666 203.117 557.105 203.084 556.547 203.013C555.958 203.071 555.366 202.929 554.867 202.61C554.737 202.479 554.654 202.31 554.629 202.128C554.605 201.946 554.641 201.761 554.732 201.601C554.958 201.314 555.256 201.092 555.595 200.956C555.934 200.82 556.303 200.776 556.665 200.828C557.415 200.823 558.141 201.099 558.698 201.601C558.815 201.716 558.898 201.861 558.938 202.019C558.978 202.178 558.973 202.345 558.925 202.501C558.876 202.657 558.785 202.797 558.662 202.905C558.539 203.013 558.389 203.086 558.228 203.114Z" fill="#263238"/>
<path d="M542.716 204.845C543.237 204.694 543.707 204.475 544.211 204.274C544.775 204.155 545.283 203.854 545.657 203.416C545.746 203.255 545.779 203.069 545.752 202.887C545.724 202.704 545.638 202.536 545.505 202.408C545.205 202.196 544.853 202.068 544.487 202.038C544.12 202.009 543.752 202.078 543.422 202.24C542.712 202.451 542.11 202.926 541.741 203.568C541.664 203.717 541.632 203.885 541.647 204.053C541.662 204.22 541.724 204.38 541.826 204.513C541.928 204.647 542.066 204.749 542.223 204.808C542.38 204.866 542.551 204.879 542.716 204.845Z" fill="#263238"/>
<path d="M546.766 208.778C546.766 208.778 546.665 208.879 546.665 208.929C547.001 210.492 547.102 212.29 545.774 213.097C545.774 213.097 545.774 213.198 545.774 213.181C547.489 212.643 547.321 210.206 546.766 208.778Z" fill="#263238"/>
<path d="M545.085 207.383C542.531 207.618 543.22 212.71 545.573 212.425C547.925 212.139 547.203 207.181 545.085 207.383Z" fill="#263238"/>
<path d="M544.127 207.786C543.724 208.122 543.354 208.694 542.816 208.811C542.279 208.929 541.674 208.492 541.136 208.038H541.052C541.169 209.013 541.674 209.971 542.732 209.971C543.791 209.971 544.279 209.03 544.413 208.005C544.48 207.887 544.295 207.635 544.127 207.786Z" fill="#263238"/>
<path d="M555.421 206.862C555.421 206.862 555.556 206.862 555.556 206.996C555.707 208.576 556.144 210.357 557.64 210.71C555.858 210.778 555.304 208.391 555.421 206.862Z" fill="#263238"/>
<path d="M556.631 205.047C559.136 204.542 559.993 209.601 557.64 210.089C555.287 210.576 554.514 205.467 556.631 205.047Z" fill="#263238"/>
<path d="M557.741 205.198C558.177 205.4 558.665 205.82 559.135 205.786C559.606 205.753 560.026 205.114 560.295 204.526C560.48 205.484 560.295 206.542 559.421 206.879C558.547 207.215 557.841 206.458 557.455 205.534C557.472 205.416 557.556 205.114 557.741 205.198Z" fill="#263238"/>
<path d="M548.48 222.088C548.9 222.425 549.321 222.912 549.892 222.912C550.485 222.847 551.058 222.658 551.573 222.357C551.573 222.357 551.69 222.357 551.657 222.357C551.457 222.687 551.172 222.956 550.832 223.136C550.491 223.317 550.109 223.402 549.724 223.383C549.391 223.33 549.081 223.178 548.836 222.948C548.59 222.717 548.419 222.417 548.346 222.088C548.364 222.072 548.388 222.063 548.413 222.063C548.438 222.063 548.462 222.072 548.48 222.088Z" fill="#263238"/>
<path d="M554.245 215.45C554.245 215.45 554.9 217.752 555.068 218.811C555.068 218.912 554.816 219.013 554.447 219.08C553.521 219.389 552.529 219.438 551.577 219.222C550.626 219.005 549.752 218.532 549.052 217.853C548.951 217.752 549.052 217.618 549.186 217.668C550.749 218.435 552.517 218.676 554.228 218.357C554.228 218.038 552.968 214.441 553.136 214.408C554.009 214.363 554.885 214.431 555.741 214.609C554.497 209.786 552.48 205.181 551.321 200.341C551.319 200.309 551.328 200.278 551.346 200.251C551.363 200.225 551.389 200.204 551.419 200.193C551.448 200.182 551.481 200.181 551.512 200.189C551.542 200.197 551.57 200.215 551.589 200.24C553.902 205.087 555.721 210.154 557.018 215.366C557.102 216.088 554.715 215.584 554.245 215.45Z" fill="#263238"/>
<path d="M554.278 218.744C553.79 219.736 553.055 220.587 552.144 221.214C551.645 221.54 551.059 221.704 550.463 221.685C549.152 221.685 548.884 220.475 548.9 219.45C548.924 218.882 549.008 218.319 549.152 217.769C550.714 218.63 552.51 218.971 554.278 218.744Z" fill="#263238"/>
<path d="M552.144 221.214C551.645 221.54 551.059 221.704 550.463 221.685C549.152 221.685 548.884 220.475 548.9 219.45C549.561 219.336 550.24 219.448 550.829 219.768C551.418 220.088 551.881 220.598 552.144 221.214Z" fill="#FF9ABB"/>
<path d="M522.262 216.71C523.711 215.88 524.918 214.688 525.767 213.25C526.616 211.812 527.076 210.178 527.102 208.509C531.061 206.432 534.396 203.341 536.766 199.551C536.648 200.055 535.758 203.601 535.254 205.4C549.875 201.601 553.741 189.954 553.741 189.954C556.757 192.358 559.187 195.415 560.85 198.895C560.85 198.895 560.329 189.803 555.236 184.038C553.567 182.037 551.395 180.516 548.944 179.63C546.493 178.744 543.85 178.525 541.287 178.997C537.565 178.365 533.742 178.749 530.22 180.106C526.698 181.464 523.606 183.745 521.271 186.711C512.313 197.702 522.262 216.71 522.262 216.71Z" fill="#263238"/>
<path d="M546.346 202.089C544.055 203.569 541.557 204.701 538.934 205.45C543.021 204.024 546.63 201.486 549.354 198.122C550.513 196.658 551.484 195.055 552.245 193.349C553.157 191.549 553.694 189.582 553.825 187.568C553.825 187.537 553.837 187.507 553.859 187.485C553.881 187.463 553.911 187.45 553.942 187.45C553.974 187.45 554.003 187.463 554.026 187.485C554.048 187.507 554.06 187.537 554.06 187.568C554.132 189.569 553.87 191.568 553.287 193.484C552.625 195.365 551.623 197.109 550.329 198.627C549.178 199.963 547.842 201.129 546.363 202.089" fill="#263238"/>
<path d="M526.329 214.24C526.329 214.24 520.313 207.668 517.287 209.988C514.262 212.307 519.422 222.189 523.455 223.13C523.965 223.283 524.501 223.331 525.029 223.271C525.558 223.211 526.069 223.045 526.532 222.783C526.995 222.521 527.401 222.168 527.724 221.746C528.047 221.323 528.282 220.839 528.413 220.324L526.329 214.24Z" fill="#FFC4C0"/>
</svg>
