<svg width="696" height="519" viewBox="0 0 696 519" fill="none" xmlns="http://www.w3.org/2000/svg">
<path d="M695.313 455.291H0V455.638H695.313V455.291Z" fill="#E0E0E0"/>
<path d="M188.527 470.018H140.69V470.365H188.527V470.018Z" fill="#E0E0E0"/>
<path d="M130.496 470.184H103.574V470.532H130.496V470.184Z" fill="#E0E0E0"/>
<path d="M297.928 469.378H243.359V469.726H297.928V469.378Z" fill="#E0E0E0"/>
<path d="M437.435 464.427H276.429V464.775H437.435V464.427Z" fill="#E0E0E0"/>
<path d="M575.26 464.608H501.571V464.956H575.26V464.608Z" fill="#E0E0E0"/>
<path d="M329.578 393.269H61.0623C58.9588 393.265 56.9427 392.427 55.4565 390.938C53.9704 389.45 53.1357 387.432 53.1357 385.328V7.87094C53.1541 5.77948 53.9968 3.77969 55.481 2.30596C56.9651 0.832231 58.9708 0.00358279 61.0623 0H329.578C331.684 0 333.704 0.836583 335.193 2.32571C336.682 3.81484 337.519 5.83453 337.519 7.94047V385.328C337.519 387.434 336.682 389.454 335.193 390.943C333.704 392.432 331.684 393.269 329.578 393.269ZM61.0623 0.278126C59.051 0.28181 57.1233 1.08339 55.7024 2.50692C54.2814 3.93045 53.4834 5.85961 53.4834 7.87094V385.328C53.4834 387.34 54.2814 389.269 55.7024 390.693C57.1233 392.116 59.051 392.918 61.0623 392.921H329.578C331.591 392.918 333.52 392.116 334.943 390.693C336.366 389.27 337.167 387.341 337.171 385.328V7.87094C337.167 5.85833 336.366 3.9292 334.943 2.50607C333.52 1.08294 331.591 0.281802 329.578 0.278126H61.0623Z" fill="#E0E0E0"/>
<path d="M630.384 393.269H361.855C359.75 393.265 357.732 392.428 356.244 390.939C354.756 389.451 353.918 387.433 353.914 385.328V7.87094C353.936 5.77821 354.782 3.77844 356.268 2.30509C357.755 0.831745 359.762 0.00354372 361.855 0H630.384C632.474 0.00723751 634.476 0.837503 635.957 2.31084C637.438 3.78418 638.279 5.78188 638.297 7.87094V385.328C638.297 387.43 637.464 389.445 635.981 390.933C634.498 392.422 632.486 393.262 630.384 393.269ZM361.855 0.278126C359.842 0.281802 357.913 1.08294 356.49 2.50607C355.067 3.9292 354.266 5.85833 354.262 7.87094V385.328C354.266 387.341 355.067 389.27 356.49 390.693C357.913 392.116 359.842 392.918 361.855 392.921H630.384C632.397 392.918 634.326 392.116 635.749 390.693C637.172 389.27 637.974 387.341 637.977 385.328V7.87094C637.974 5.85833 637.172 3.9292 635.749 2.50607C634.326 1.08294 632.397 0.281802 630.384 0.278126H361.855Z" fill="#E0E0E0"/>
<path d="M297.232 319.302C296.467 319.302 295.703 319.302 294.924 319.371C290.078 319.713 285.369 321.123 281.132 323.5C276.896 325.876 273.237 329.161 270.42 333.118C267.602 337.074 265.694 341.606 264.834 346.386C263.973 351.167 264.181 356.079 265.443 360.77C269.035 374.778 270.77 389.197 270.602 403.657V445.765C270.602 447.24 271.188 448.655 272.231 449.698C273.274 450.741 274.689 451.328 276.164 451.328H409.831V319.302H297.232Z" fill="#E6E6E6"/>
<path d="M442.706 352.218C442.656 343.703 439.31 335.539 433.37 329.438C427.43 323.338 419.358 319.775 410.848 319.498C402.338 319.221 394.051 322.251 387.727 327.952C381.403 333.654 377.533 341.583 376.929 350.076C376.698 353.679 377.055 357.296 377.986 360.784C381.59 374.79 383.329 389.21 383.159 403.671V445.779C383.159 447.254 383.745 448.669 384.788 449.712C385.831 450.755 387.246 451.341 388.722 451.341H430.927C432.402 451.341 433.817 450.755 434.86 449.712C435.904 448.669 436.49 447.254 436.49 445.779V401.196C436.368 387.636 438.08 374.121 441.579 361.02C442.351 358.15 442.73 355.189 442.706 352.218Z" fill="#F0F0F0"/>
<path d="M364.427 371.158H244.458V451.3H364.427V371.158Z" fill="#E6E6E6"/>
<path d="M170.213 241.427H280.906C284.188 241.412 287.441 242.046 290.477 243.291C293.513 244.537 296.274 246.37 298.599 248.686C300.925 251.001 302.771 253.754 304.03 256.784C305.289 259.815 305.938 263.065 305.938 266.347V389.278H145.307V266.347C145.307 259.74 147.93 253.403 152.601 248.73C157.271 244.057 163.606 241.43 170.213 241.427Z" fill="#E0E0E0"/>
<path d="M200.389 241.426H313.531C316.644 241.426 319.727 242.04 322.604 243.231C325.481 244.423 328.094 246.169 330.296 248.371C332.498 250.573 334.244 253.187 335.436 256.063C336.627 258.94 337.241 262.023 337.241 265.137V389.264H176.61V265.151C176.608 262.03 177.222 258.94 178.417 256.057C179.612 253.174 181.364 250.555 183.574 248.351C185.783 246.147 188.406 244.401 191.291 243.213C194.177 242.024 197.269 241.417 200.389 241.426Z" fill="#F0F0F0"/>
<path d="M252.301 363.843H362.884C364.802 363.843 366.641 364.605 367.997 365.961C369.353 367.317 370.115 369.157 370.115 371.074V389.25C370.115 391.168 369.353 393.007 367.997 394.363C366.641 395.719 364.802 396.481 362.884 396.481H252.301C251.73 396.481 251.181 396.254 250.777 395.85C250.373 395.446 250.146 394.897 250.146 394.326V365.999C250.146 365.427 250.373 364.879 250.777 364.475C251.181 364.07 251.73 363.843 252.301 363.843Z" fill="#E0E0E0"/>
<path d="M133.5 319.302C132.735 319.302 131.97 319.302 131.192 319.371C126.346 319.713 121.636 321.123 117.4 323.5C113.163 325.876 109.505 329.161 106.687 333.118C103.869 337.074 101.962 341.606 101.102 346.386C100.241 351.167 100.449 356.079 101.71 360.77C105.303 374.778 107.037 389.197 106.87 403.657V445.765C106.87 447.24 107.456 448.655 108.499 449.698C109.542 450.741 110.957 451.328 112.432 451.328H246.085V319.302H133.5Z" fill="#E6E6E6"/>
<path d="M278.946 352.218C278.896 343.703 275.55 335.539 269.61 329.438C263.67 323.338 255.598 319.775 247.088 319.498C238.578 319.221 230.291 322.251 223.967 327.952C217.643 333.654 213.773 341.583 213.169 350.076C212.938 353.679 213.295 357.296 214.226 360.784C217.83 374.79 219.569 389.21 219.399 403.671V445.779C219.399 447.254 219.985 448.669 221.028 449.712C222.071 450.755 223.486 451.341 224.961 451.341H267.167C268.642 451.341 270.057 450.755 271.1 449.712C272.143 448.669 272.729 447.254 272.729 445.779V401.196C272.608 387.636 274.32 374.121 277.819 361.02C278.591 358.15 278.969 355.189 278.946 352.218Z" fill="#F0F0F0"/>
<path d="M407.453 455.305H135.822C134.76 455.305 133.741 454.883 132.99 454.132C132.239 453.381 131.817 452.362 131.817 451.3H411.444C411.444 452.36 411.024 453.376 410.276 454.127C409.528 454.878 408.513 455.301 407.453 455.305Z" fill="#E0E0E0"/>
<path d="M199.332 64.6085H119.413V147.434H199.332V64.6085Z" fill="#E0E0E0"/>
<path d="M203.894 64.6085H125.977V147.434H203.894V64.6085Z" fill="#F0F0F0"/>
<path d="M197.358 140.898V71.1305H132.499V140.898H197.358Z" fill="#FAFAFA"/>
<path d="M164.928 88.3882L147.198 119.107H182.673L164.928 88.3882Z" fill="#F0F0F0"/>
<path d="M305.868 99.4854H225.949V182.311H305.868V99.4854Z" fill="#E0E0E0"/>
<path d="M310.415 99.4854H232.499V182.311H310.415V99.4854Z" fill="#F0F0F0"/>
<path d="M303.88 175.789V106.021H239.021V175.789H303.88Z" fill="#FAFAFA"/>
<path d="M279.404 153.344L287.095 140.022C287.896 138.628 288.318 137.047 288.316 135.439C288.315 133.831 287.891 132.251 287.087 130.858C286.282 129.465 285.126 128.308 283.734 127.502C282.342 126.697 280.763 126.272 279.154 126.269H263.76C262.151 126.27 260.571 126.694 259.178 127.5C257.785 128.305 256.629 129.463 255.826 130.857C255.023 132.251 254.6 133.832 254.602 135.441C254.603 137.049 255.028 138.629 255.833 140.022L263.524 153.344C264.327 154.739 265.484 155.898 266.878 156.704C268.272 157.509 269.854 157.933 271.464 157.933C273.074 157.933 274.656 157.509 276.05 156.704C277.444 155.898 278.601 154.739 279.404 153.344Z" fill="#F0F0F0"/>
<path d="M490.988 257.891H469.141V448.699H490.988V257.891Z" fill="#E6E6E6"/>
<path d="M595.897 448.699H474.899V455.277H595.897V448.699Z" fill="#E6E6E6"/>
<path d="M490.974 448.713H601.654V257.905H490.974V448.713Z" fill="#F0F0F0"/>
<path d="M502.781 391.322H589.862V357.252H502.781V391.322Z" fill="#E6E6E6"/>
<path d="M502.781 435.919H589.862V401.849H502.781V435.919Z" fill="#E6E6E6"/>
<path d="M558.92 371.951H533.708C532.487 371.951 531.497 372.941 531.497 374.162V374.412C531.497 375.633 532.487 376.623 533.708 376.623H558.92C560.141 376.623 561.131 375.633 561.131 374.412V374.162C561.131 372.941 560.141 371.951 558.92 371.951Z" fill="#F0F0F0"/>
<path d="M558.92 416.548H533.708C532.487 416.548 531.497 417.538 531.497 418.759V419.009C531.497 420.231 532.487 421.221 533.708 421.221H558.92C560.141 421.221 561.131 420.231 561.131 419.009V418.759C561.131 417.538 560.141 416.548 558.92 416.548Z" fill="#F0F0F0"/>
<path d="M502.781 302.489H589.862V268.419H502.781V302.489Z" fill="#E6E6E6"/>
<path d="M502.781 346.739H589.862V312.668H502.781V346.739Z" fill="#E6E6E6"/>
<path d="M558.92 283.117H533.708C532.487 283.117 531.497 284.107 531.497 285.329V285.579C531.497 286.8 532.487 287.79 533.708 287.79H558.92C560.141 287.79 561.131 286.8 561.131 285.579V285.329C561.131 284.107 560.141 283.117 558.92 283.117Z" fill="#F0F0F0"/>
<path d="M558.92 327.353H533.708C532.487 327.353 531.497 328.343 531.497 329.564V329.815C531.497 331.036 532.487 332.026 533.708 332.026H558.92C560.141 332.026 561.131 331.036 561.131 329.815V329.564C561.131 328.343 560.141 327.353 558.92 327.353Z" fill="#F0F0F0"/>
<path d="M573.174 202.767H552.662C552.662 202.767 556.222 215.06 556.222 222.236C556.222 229.411 540.62 257.836 562.925 257.836C585.231 257.836 569.614 229.481 569.614 222.236C569.614 214.991 573.174 202.767 573.174 202.767Z" fill="#F0F0F0"/>
<path d="M519.788 219.288C519.774 221.21 519.192 223.085 518.114 224.677C517.036 226.268 515.511 227.505 513.731 228.231C511.951 228.958 509.996 229.14 508.112 228.757C506.229 228.374 504.501 227.441 503.146 226.077C501.792 224.713 500.872 222.978 500.502 221.092C500.132 219.206 500.328 217.252 501.067 215.477C501.806 213.703 503.054 212.186 504.653 211.12C506.252 210.053 508.131 209.484 510.054 209.484C512.642 209.502 515.118 210.543 516.941 212.38C518.765 214.216 519.788 216.7 519.788 219.288Z" fill="#F0F0F0"/>
<path d="M536.573 223.96C536.573 225.899 535.998 227.795 534.921 229.407C533.843 231.019 532.312 232.276 530.521 233.018C528.729 233.76 526.758 233.954 524.856 233.576C522.955 233.198 521.208 232.264 519.837 230.893C518.466 229.522 517.532 227.775 517.153 225.873C516.775 223.971 516.969 222 517.711 220.208C518.453 218.417 519.71 216.886 521.322 215.809C522.934 214.731 524.83 214.156 526.769 214.156C529.369 214.156 531.863 215.189 533.701 217.028C535.54 218.866 536.573 221.36 536.573 223.96Z" fill="#F0F0F0"/>
<path d="M550.91 220.178C550.91 222.117 550.335 224.012 549.258 225.624C548.181 227.237 546.65 228.493 544.858 229.235C543.067 229.977 541.096 230.172 539.194 229.793C537.292 229.415 535.545 228.481 534.174 227.11C532.803 225.739 531.869 223.992 531.491 222.09C531.113 220.189 531.307 218.217 532.049 216.426C532.791 214.634 534.047 213.103 535.66 212.026C537.272 210.949 539.167 210.374 541.106 210.374C543.707 210.374 546.2 211.407 548.039 213.245C549.877 215.084 550.91 217.578 550.91 220.178Z" fill="#F0F0F0"/>
<path d="M492.434 224.141V235.266C492.434 247.67 504.436 257.822 519.093 257.822H532.332C547.003 257.822 559.004 247.67 559.004 235.266V224.141H492.434Z" fill="#E6E6E6"/>
<path d="M449.673 166.875C442.285 166.875 435.201 163.94 429.977 158.717C424.753 153.493 421.818 146.408 421.818 139.021C421.818 131.633 424.753 124.549 429.977 119.325C435.201 114.101 442.285 111.167 449.673 111.167H453.094V166.875H449.673Z" fill="#E0E0E0"/>
<path d="M480.228 145.396C483.733 130.417 474.431 115.433 459.452 111.928C444.474 108.423 429.49 117.724 425.985 132.703C422.48 147.682 431.781 162.666 446.76 166.171C461.739 169.676 476.723 160.374 480.228 145.396Z" fill="#F0F0F0"/>
<path d="M454.345 142.511C453.423 142.511 452.539 142.145 451.887 141.493C451.235 140.841 450.869 139.957 450.869 139.035C450.869 138.113 451.235 137.228 451.887 136.576C452.539 135.924 453.423 135.558 454.345 135.558C462.318 135.551 469.962 132.381 475.601 126.745C481.24 121.109 484.413 113.466 484.424 105.493V59.2545C484.424 58.3325 484.791 57.4482 485.443 56.7962C486.095 56.1442 486.979 55.778 487.901 55.778C488.823 55.778 489.707 56.1442 490.359 56.7962C491.011 57.4482 491.378 58.3325 491.378 59.2545V105.493C491.363 115.309 487.456 124.718 480.514 131.657C473.572 138.597 464.161 142.5 454.345 142.511Z" fill="#E0E0E0"/>
<path d="M520.775 105.395H455.027L462.369 45.1536H513.433L520.775 105.395Z" fill="#F0F0F0"/>
<path d="M347.656 518.092C496.568 518.092 617.285 511.044 617.285 502.35C617.285 493.656 496.568 486.608 347.656 486.608C198.745 486.608 78.028 493.656 78.028 502.35C78.028 511.044 198.745 518.092 347.656 518.092Z" fill="#F5F5F5"/>
<path d="M558.044 377.819L555.666 359.338C555.309 356.587 553.963 354.061 551.88 352.229C549.798 350.397 547.12 349.385 544.346 349.381H482.742C479.969 349.383 477.29 348.375 475.206 346.545C473.122 344.715 471.777 342.188 471.422 339.438L458.642 240.314C458.432 238.706 458.568 237.073 459.04 235.522C459.513 233.971 460.311 232.539 461.381 231.321C462.451 230.103 463.769 229.128 465.247 228.461C466.724 227.793 468.327 227.449 469.948 227.451H525.656C527.278 227.45 528.881 227.104 530.359 226.435C531.836 225.766 533.154 224.79 534.224 223.571C535.294 222.352 536.092 220.919 536.564 219.368C537.036 217.816 537.172 216.182 536.962 214.574L534.598 196.078C534.243 193.328 532.898 190.801 530.814 188.971C528.731 187.141 526.052 186.133 523.279 186.135H461.688C458.915 186.134 456.237 185.122 454.156 183.29C452.075 181.457 450.734 178.929 450.382 176.178L438.534 84.397C438.179 81.6454 436.834 79.117 434.751 77.2846C432.668 75.4522 429.989 74.441 427.214 74.4402H408.913C407.291 74.4407 405.688 74.7869 404.21 75.4558C402.732 76.1247 401.413 77.1009 400.342 78.3194C399.271 79.5378 398.472 80.9706 397.998 82.5221C397.524 84.0737 397.386 85.7084 397.594 87.3174L408.719 173.23C408.926 174.839 408.788 176.474 408.315 178.025C407.841 179.577 407.042 181.01 405.97 182.228C404.899 183.447 403.581 184.423 402.103 185.092C400.625 185.761 399.021 186.107 397.399 186.107H248.227C245.454 186.106 242.776 185.095 240.695 183.262C238.614 181.429 237.273 178.901 236.921 176.151L225.073 84.3692C224.721 81.6187 223.379 79.0906 221.298 77.2579C219.217 75.4253 216.54 74.4136 213.767 74.4124H195.466C193.844 74.4129 192.24 74.7591 190.762 75.428C189.285 76.0969 187.966 77.0731 186.895 78.2916C185.824 79.51 185.025 80.9428 184.551 82.4943C184.077 84.0458 183.939 85.6806 184.147 87.2895L195.272 173.202C195.479 174.811 195.341 176.446 194.867 177.998C194.394 179.549 193.594 180.982 192.523 182.2C191.452 183.419 190.134 184.395 188.656 185.064C187.178 185.733 185.574 186.079 183.952 186.08H128.202C126.58 186.078 124.977 186.423 123.499 187.09C122.021 187.757 120.702 188.732 119.631 189.95C118.56 191.167 117.76 192.599 117.286 194.15C116.812 195.7 116.674 197.335 116.882 198.943L119.274 217.424C119.626 220.177 120.97 222.707 123.054 224.54C125.138 226.373 127.818 227.383 130.594 227.381H192.184C194.958 227.379 197.637 228.387 199.72 230.217C201.804 232.047 203.149 234.574 203.504 237.324L216.298 336.448C216.506 338.056 216.368 339.69 215.894 341.241C215.42 342.792 214.62 344.224 213.549 345.441C212.478 346.659 211.159 347.634 209.681 348.301C208.203 348.968 206.6 349.313 204.978 349.311H149.27C147.647 349.312 146.044 349.658 144.566 350.327C143.088 350.996 141.769 351.972 140.698 353.19C139.627 354.409 138.828 355.842 138.354 357.393C137.88 358.945 137.743 360.579 137.95 362.188L140.342 380.67C140.694 383.42 142.035 385.948 144.116 387.781C146.197 389.614 148.875 390.625 151.648 390.627H213.252C216.026 390.624 218.705 391.632 220.788 393.462C222.872 395.293 224.217 397.819 224.572 400.57L236.406 492.351C236.761 495.103 238.106 497.631 240.189 499.463C242.272 501.296 244.952 502.307 247.726 502.308H266.027C267.649 502.307 269.253 501.961 270.731 501.292C272.208 500.623 273.527 499.647 274.598 498.429C275.669 497.21 276.468 495.777 276.942 494.226C277.416 492.674 277.554 491.04 277.346 489.431L266.221 403.518C266.031 401.916 266.182 400.291 266.665 398.752C267.149 397.213 267.953 395.794 269.026 394.588C270.098 393.383 271.414 392.419 272.887 391.76C274.36 391.101 275.955 390.762 277.569 390.766H426.7C429.467 390.754 432.144 391.75 434.232 393.566C436.32 395.383 437.676 397.897 438.047 400.639L449.881 492.421C450.236 495.172 451.581 497.701 453.664 499.533C455.747 501.365 458.426 502.377 461.201 502.377H479.502C481.123 502.377 482.727 502.031 484.204 501.362C485.681 500.693 486.999 499.716 488.069 498.498C489.139 497.279 489.937 495.846 490.409 494.294C490.881 492.743 491.017 491.108 490.807 489.5L479.682 403.587C479.475 401.979 479.613 400.345 480.087 398.794C480.561 397.243 481.36 395.811 482.431 394.594C483.503 393.377 484.821 392.402 486.299 391.734C487.777 391.067 489.38 390.723 491.002 390.724H546.711C548.337 390.726 549.945 390.381 551.426 389.711C552.908 389.041 554.23 388.063 555.303 386.841C556.376 385.619 557.176 384.182 557.648 382.626C558.121 381.07 558.256 379.431 558.044 377.819ZM257.975 339.438L245.195 240.314C244.988 238.707 245.125 237.074 245.598 235.524C246.071 233.974 246.869 232.543 247.939 231.326C249.009 230.109 250.326 229.133 251.802 228.465C253.279 227.797 254.88 227.451 256.501 227.451H405.632C408.405 227.448 411.084 228.456 413.167 230.286C415.251 232.117 416.596 234.643 416.951 237.394L429.703 336.531C429.911 338.14 429.773 339.774 429.299 341.325C428.825 342.875 428.026 344.307 426.955 345.525C425.883 346.742 424.565 347.717 423.087 348.384C421.609 349.052 420.005 349.396 418.384 349.395H269.295C266.52 349.394 263.841 348.383 261.758 346.55C259.674 344.718 258.33 342.189 257.975 339.438Z" fill="#6F95C9"/>
<path opacity="0.4" d="M558.044 377.819L555.666 359.338C555.309 356.587 553.963 354.061 551.88 352.229C549.798 350.397 547.12 349.385 544.346 349.381H482.742C479.969 349.383 477.29 348.375 475.206 346.545C473.122 344.715 471.777 342.188 471.422 339.438L458.642 240.314C458.432 238.706 458.568 237.073 459.04 235.522C459.513 233.971 460.311 232.539 461.381 231.321C462.451 230.103 463.769 229.128 465.247 228.461C466.724 227.793 468.327 227.449 469.948 227.451H525.656C527.278 227.45 528.881 227.104 530.359 226.435C531.836 225.766 533.154 224.79 534.224 223.571C535.294 222.352 536.092 220.919 536.564 219.368C537.036 217.816 537.172 216.182 536.962 214.574L534.598 196.078C534.243 193.328 532.898 190.801 530.814 188.971C528.731 187.141 526.052 186.133 523.279 186.135H461.688C458.915 186.134 456.237 185.122 454.156 183.29C452.075 181.457 450.734 178.929 450.382 176.178L438.534 84.397C438.179 81.6454 436.834 79.117 434.751 77.2846C432.668 75.4522 429.989 74.441 427.214 74.4402H408.913C407.291 74.4407 405.688 74.7869 404.21 75.4558C402.732 76.1247 401.413 77.1009 400.342 78.3194C399.271 79.5378 398.472 80.9706 397.998 82.5221C397.524 84.0737 397.386 85.7084 397.594 87.3174L408.719 173.23C408.926 174.839 408.788 176.474 408.315 178.025C407.841 179.577 407.042 181.01 405.97 182.228C404.899 183.447 403.581 184.423 402.103 185.092C400.625 185.761 399.021 186.107 397.399 186.107H248.227C245.454 186.106 242.776 185.095 240.695 183.262C238.614 181.429 237.273 178.901 236.921 176.151L225.073 84.3692C224.721 81.6187 223.379 79.0906 221.298 77.2579C219.217 75.4253 216.54 74.4136 213.767 74.4124H195.466C193.844 74.4129 192.24 74.7591 190.762 75.428C189.285 76.0969 187.966 77.0731 186.895 78.2916C185.824 79.51 185.025 80.9428 184.551 82.4943C184.077 84.0458 183.939 85.6806 184.147 87.2895L195.272 173.202C195.479 174.811 195.341 176.446 194.867 177.998C194.394 179.549 193.594 180.982 192.523 182.2C191.452 183.419 190.134 184.395 188.656 185.064C187.178 185.733 185.574 186.079 183.952 186.08H128.202C126.58 186.078 124.977 186.423 123.499 187.09C122.021 187.757 120.702 188.732 119.631 189.95C118.56 191.167 117.76 192.599 117.286 194.15C116.812 195.7 116.674 197.335 116.882 198.943L119.274 217.424C119.626 220.177 120.97 222.707 123.054 224.54C125.138 226.373 127.818 227.383 130.594 227.381H192.184C194.958 227.379 197.637 228.387 199.72 230.217C201.804 232.047 203.149 234.574 203.504 237.324L216.298 336.448C216.506 338.056 216.368 339.69 215.894 341.241C215.42 342.792 214.62 344.224 213.549 345.441C212.478 346.659 211.159 347.634 209.681 348.301C208.203 348.968 206.6 349.313 204.978 349.311H149.27C147.647 349.312 146.044 349.658 144.566 350.327C143.088 350.996 141.769 351.972 140.698 353.19C139.627 354.409 138.828 355.842 138.354 357.393C137.88 358.945 137.743 360.579 137.95 362.188L140.342 380.67C140.694 383.42 142.035 385.948 144.116 387.781C146.197 389.614 148.875 390.625 151.648 390.627H213.252C216.026 390.624 218.705 391.632 220.788 393.462C222.872 395.293 224.217 397.819 224.572 400.57L236.406 492.351C236.761 495.103 238.106 497.631 240.189 499.463C242.272 501.296 244.952 502.307 247.726 502.308H266.027C267.649 502.307 269.253 501.961 270.731 501.292C272.208 500.623 273.527 499.647 274.598 498.429C275.669 497.21 276.468 495.777 276.942 494.226C277.416 492.674 277.554 491.04 277.346 489.431L266.221 403.518C266.031 401.916 266.182 400.291 266.665 398.752C267.149 397.213 267.953 395.794 269.026 394.588C270.098 393.383 271.414 392.419 272.887 391.76C274.36 391.101 275.955 390.762 277.569 390.766H426.7C429.467 390.754 432.144 391.75 434.232 393.566C436.32 395.383 437.676 397.897 438.047 400.639L449.881 492.421C450.236 495.172 451.581 497.701 453.664 499.533C455.747 501.365 458.426 502.377 461.201 502.377H479.502C481.123 502.377 482.727 502.031 484.204 501.362C485.681 500.693 486.999 499.716 488.069 498.498C489.139 497.279 489.937 495.846 490.409 494.294C490.881 492.743 491.017 491.108 490.807 489.5L479.682 403.587C479.475 401.979 479.613 400.345 480.087 398.794C480.561 397.243 481.36 395.811 482.431 394.594C483.503 393.377 484.821 392.402 486.299 391.734C487.777 391.067 489.38 390.723 491.002 390.724H546.711C548.337 390.726 549.945 390.381 551.426 389.711C552.908 389.041 554.23 388.063 555.303 386.841C556.376 385.619 557.176 384.182 557.648 382.626C558.121 381.07 558.256 379.431 558.044 377.819ZM257.975 339.438L245.195 240.314C244.988 238.707 245.125 237.074 245.598 235.524C246.071 233.974 246.869 232.543 247.939 231.326C249.009 230.109 250.326 229.133 251.802 228.465C253.279 227.797 254.88 227.451 256.501 227.451H405.632C408.405 227.448 411.084 228.456 413.167 230.286C415.251 232.117 416.596 234.643 416.951 237.394L429.703 336.531C429.911 338.14 429.773 339.774 429.299 341.325C428.825 342.875 428.026 344.307 426.955 345.525C425.883 346.742 424.565 347.717 423.087 348.384C421.609 349.052 420.005 349.396 418.384 349.395H269.295C266.52 349.394 263.841 348.383 261.758 346.55C259.674 344.718 258.33 342.189 257.975 339.438Z" fill="black"/>
<path d="M295.438 444.597L294.048 434.028L295.438 433.847L296.829 444.416L295.438 444.597ZM490.543 302.475L485.648 264.58L487.039 264.414L491.92 302.294L490.543 302.475ZM259.254 164.191L257.266 148.978L258.656 148.797L260.631 164.094L259.254 164.191ZM256.084 139.619L252.746 113.795L254.137 113.614L257.46 139.438L256.084 139.619Z" fill="#6F95C9"/>
<path opacity="0.3" d="M295.438 444.597L294.048 434.028L295.438 433.847L296.829 444.416L295.438 444.597ZM490.543 302.475L485.648 264.58L487.039 264.414L491.92 302.294L490.543 302.475ZM259.254 164.191L257.266 148.978L258.656 148.797L260.631 164.094L259.254 164.191ZM256.084 139.619L252.746 113.795L254.137 113.614L257.46 139.438L256.084 139.619Z" fill="black"/>
<path d="M578.5 377.819L576.108 359.338C575.754 356.586 574.409 354.058 572.326 352.225C570.242 350.393 567.563 349.382 564.789 349.381H503.184C500.413 349.38 497.737 348.37 495.657 346.54C493.576 344.711 492.233 342.186 491.878 339.438L479.084 240.314C478.879 238.706 479.019 237.073 479.493 235.523C479.968 233.973 480.768 232.542 481.839 231.325C482.909 230.108 484.227 229.134 485.704 228.465C487.181 227.797 488.783 227.451 490.404 227.451H546.113C547.735 227.45 549.338 227.104 550.816 226.435C552.294 225.766 553.613 224.79 554.684 223.572C555.755 222.353 556.554 220.92 557.028 219.369C557.502 217.817 557.64 216.183 557.432 214.574L554.971 196.078C554.619 193.329 553.277 190.803 551.195 188.972C549.114 187.142 546.437 186.133 543.665 186.135H482.06C479.286 186.134 476.607 185.123 474.523 183.291C472.44 181.458 471.096 178.93 470.741 176.178L458.906 84.3971C458.552 81.6454 457.207 79.1171 455.124 77.2846C453.04 75.4522 450.361 74.4411 447.587 74.4402H429.286C427.664 74.4407 426.06 74.7869 424.582 75.4558C423.104 76.1247 421.786 77.1009 420.715 78.3194C419.644 79.5379 418.845 80.9706 418.371 82.5221C417.897 84.0737 417.759 85.7084 417.966 87.3174L429.091 173.23C429.299 174.839 429.161 176.474 428.687 178.025C428.213 179.577 427.414 181.01 426.343 182.228C425.272 183.447 423.954 184.423 422.476 185.092C420.998 185.761 419.394 186.107 417.772 186.107H268.613C265.84 186.115 263.16 185.112 261.071 183.288C258.983 181.463 257.631 178.941 257.266 176.192L245.432 84.411C245.077 81.6593 243.732 79.131 241.649 77.2985C239.566 75.4661 236.886 74.455 234.112 74.4541H215.839C214.217 74.4543 212.614 74.8005 211.137 75.4696C209.659 76.1386 208.342 77.1151 207.272 78.3338C206.202 79.5526 205.404 80.9855 204.932 82.5371C204.459 84.0886 204.324 85.7231 204.533 87.3313L215.658 173.244C215.866 174.853 215.728 176.488 215.254 178.039C214.78 179.591 213.981 181.024 212.91 182.242C211.839 183.461 210.52 184.437 209.042 185.106C207.564 185.775 205.961 186.121 204.339 186.121H148.588C146.967 186.12 145.363 186.464 143.885 187.132C142.407 187.799 141.089 188.774 140.017 189.991C138.946 191.209 138.147 192.641 137.673 194.191C137.199 195.742 137.061 197.376 137.269 198.985L139.647 217.466C140.001 220.218 141.346 222.746 143.429 224.578C145.513 226.411 148.192 227.422 150.966 227.423H212.571C215.344 227.42 218.023 228.429 220.107 230.259C222.19 232.089 223.536 234.616 223.891 237.366L236.671 336.531C236.88 338.139 236.745 339.773 236.272 341.324C235.8 342.874 235.002 344.307 233.932 345.524C232.862 346.742 231.544 347.717 230.066 348.385C228.589 349.052 226.986 349.396 225.365 349.395H169.656C168.035 349.395 166.431 349.741 164.954 350.41C163.477 351.079 162.159 352.056 161.089 353.274C160.019 354.493 159.221 355.926 158.749 357.478C158.277 359.029 158.141 360.664 158.351 362.272L160.729 380.753C161.083 383.505 162.428 386.033 164.511 387.866C166.595 389.698 169.274 390.709 172.048 390.71H233.625C236.397 390.708 239.074 391.717 241.155 393.547C243.237 395.377 244.579 397.904 244.931 400.653L256.779 492.434C257.134 495.186 258.479 497.714 260.562 499.547C262.645 501.379 265.324 502.39 268.099 502.391H286.469C288.091 502.391 289.695 502.045 291.173 501.376C292.651 500.707 293.969 499.731 295.04 498.512C296.111 497.294 296.91 495.861 297.384 494.309C297.858 492.758 297.996 491.123 297.789 489.514L286.664 403.601C286.456 401.993 286.594 400.359 287.068 398.808C287.542 397.257 288.341 395.825 289.412 394.608C290.484 393.391 291.802 392.416 293.28 391.748C294.758 391.081 296.362 390.737 297.983 390.738H447.086C449.857 390.739 452.533 391.749 454.613 393.578C456.694 395.408 458.037 397.933 458.392 400.681L470.24 492.462C470.592 495.213 471.934 497.741 474.015 499.574C476.096 501.406 478.773 502.418 481.546 502.419H499.846C501.469 502.419 503.072 502.072 504.55 501.403C506.028 500.735 507.347 499.758 508.418 498.54C509.489 497.322 510.288 495.889 510.762 494.337C511.236 492.786 511.374 491.151 511.166 489.542L500.041 403.629C499.834 402.022 499.971 400.389 500.444 398.839C500.917 397.289 501.716 395.858 502.785 394.641C503.855 393.424 505.172 392.449 506.648 391.78C508.125 391.112 509.726 390.766 511.347 390.766H567.069C568.708 390.783 570.33 390.447 571.827 389.781C573.324 389.115 574.66 388.134 575.745 386.906C576.829 385.678 577.637 384.23 578.112 382.663C578.587 381.095 578.72 379.443 578.5 377.819ZM278.431 339.438L265.61 240.314C265.404 238.706 265.544 237.073 266.018 235.523C266.493 233.973 267.293 232.542 268.364 231.325C269.435 230.108 270.752 229.134 272.229 228.465C273.706 227.797 275.308 227.451 276.929 227.451H426.018C428.791 227.451 431.468 228.46 433.551 230.29C435.634 232.12 436.98 234.645 437.338 237.394L450.118 336.531C450.325 338.139 450.188 339.771 449.715 341.321C449.241 342.871 448.443 344.302 447.374 345.52C446.304 346.737 444.987 347.712 443.51 348.38C442.034 349.048 440.432 349.394 438.812 349.395H289.681C286.906 349.397 284.225 348.387 282.141 346.554C280.057 344.721 278.714 342.191 278.362 339.438H278.431Z" fill="#6F95C9"/>
<path opacity="0.3" d="M578.5 377.819L576.108 359.338C575.754 356.586 574.409 354.058 572.326 352.225C570.242 350.393 567.563 349.382 564.789 349.381H503.184C500.413 349.38 497.737 348.37 495.657 346.54C493.576 344.711 492.233 342.186 491.878 339.438L479.084 240.314C478.879 238.706 479.019 237.073 479.493 235.523C479.968 233.973 480.768 232.542 481.839 231.325C482.909 230.108 484.227 229.134 485.704 228.465C487.181 227.797 488.783 227.451 490.404 227.451H546.113C547.735 227.45 549.338 227.104 550.816 226.435C552.294 225.766 553.613 224.79 554.684 223.572C555.755 222.353 556.554 220.92 557.028 219.369C557.502 217.817 557.64 216.183 557.432 214.574L554.971 196.078C554.619 193.329 553.277 190.803 551.195 188.972C549.114 187.142 546.437 186.133 543.665 186.135H482.06C479.286 186.134 476.607 185.123 474.523 183.291C472.44 181.458 471.096 178.93 470.741 176.178L458.906 84.3971C458.552 81.6454 457.207 79.1171 455.124 77.2846C453.04 75.4522 450.361 74.4411 447.587 74.4402H429.286C427.664 74.4407 426.06 74.7869 424.582 75.4558C423.104 76.1247 421.786 77.1009 420.715 78.3194C419.644 79.5379 418.845 80.9706 418.371 82.5221C417.897 84.0737 417.759 85.7084 417.966 87.3174L429.091 173.23C429.299 174.839 429.161 176.474 428.687 178.025C428.213 179.577 427.414 181.01 426.343 182.228C425.272 183.447 423.954 184.423 422.476 185.092C420.998 185.761 419.394 186.107 417.772 186.107H268.613C265.84 186.115 263.16 185.112 261.071 183.288C258.983 181.463 257.631 178.941 257.266 176.192L245.432 84.411C245.077 81.6593 243.732 79.131 241.649 77.2985C239.566 75.4661 236.886 74.455 234.112 74.4541H215.839C214.217 74.4543 212.614 74.8005 211.137 75.4696C209.659 76.1386 208.342 77.1151 207.272 78.3338C206.202 79.5526 205.404 80.9855 204.932 82.5371C204.459 84.0886 204.324 85.7231 204.533 87.3313L215.658 173.244C215.866 174.853 215.728 176.488 215.254 178.039C214.78 179.591 213.981 181.024 212.91 182.242C211.839 183.461 210.52 184.437 209.042 185.106C207.564 185.775 205.961 186.121 204.339 186.121H148.588C146.967 186.12 145.363 186.464 143.885 187.132C142.407 187.799 141.089 188.774 140.017 189.991C138.946 191.209 138.147 192.641 137.673 194.191C137.199 195.742 137.061 197.376 137.269 198.985L139.647 217.466C140.001 220.218 141.346 222.746 143.429 224.578C145.513 226.411 148.192 227.422 150.966 227.423H212.571C215.344 227.42 218.023 228.429 220.107 230.259C222.19 232.089 223.536 234.616 223.891 237.366L236.671 336.531C236.88 338.139 236.745 339.773 236.272 341.324C235.8 342.874 235.002 344.307 233.932 345.524C232.862 346.742 231.544 347.717 230.066 348.385C228.589 349.052 226.986 349.396 225.365 349.395H169.656C168.035 349.395 166.431 349.741 164.954 350.41C163.477 351.079 162.159 352.056 161.089 353.274C160.019 354.493 159.221 355.926 158.749 357.478C158.277 359.029 158.141 360.664 158.351 362.272L160.729 380.753C161.083 383.505 162.428 386.033 164.511 387.866C166.595 389.698 169.274 390.709 172.048 390.71H233.625C236.397 390.708 239.074 391.717 241.155 393.547C243.237 395.377 244.579 397.904 244.931 400.653L256.779 492.434C257.134 495.186 258.479 497.714 260.562 499.547C262.645 501.379 265.324 502.39 268.099 502.391H286.469C288.091 502.391 289.695 502.045 291.173 501.376C292.651 500.707 293.969 499.731 295.04 498.512C296.111 497.294 296.91 495.861 297.384 494.309C297.858 492.758 297.996 491.123 297.789 489.514L286.664 403.601C286.456 401.993 286.594 400.359 287.068 398.808C287.542 397.257 288.341 395.825 289.412 394.608C290.484 393.391 291.802 392.416 293.28 391.748C294.758 391.081 296.362 390.737 297.983 390.738H447.086C449.857 390.739 452.533 391.749 454.613 393.578C456.694 395.408 458.037 397.933 458.392 400.681L470.24 492.462C470.592 495.213 471.934 497.741 474.015 499.574C476.096 501.406 478.773 502.418 481.546 502.419H499.846C501.469 502.419 503.072 502.072 504.55 501.403C506.028 500.735 507.347 499.758 508.418 498.54C509.489 497.322 510.288 495.889 510.762 494.337C511.236 492.786 511.374 491.151 511.166 489.542L500.041 403.629C499.834 402.022 499.971 400.389 500.444 398.839C500.917 397.289 501.716 395.858 502.785 394.641C503.855 393.424 505.172 392.449 506.648 391.78C508.125 391.112 509.726 390.766 511.347 390.766H567.069C568.708 390.783 570.33 390.447 571.827 389.781C573.324 389.115 574.66 388.134 575.745 386.906C576.829 385.678 577.637 384.23 578.112 382.663C578.587 381.095 578.72 379.443 578.5 377.819ZM278.431 339.438L265.61 240.314C265.404 238.706 265.544 237.073 266.018 235.523C266.493 233.973 267.293 232.542 268.364 231.325C269.435 230.108 270.752 229.134 272.229 228.465C273.706 227.797 275.308 227.451 276.929 227.451H426.018C428.791 227.451 431.468 228.46 433.551 230.29C435.634 232.12 436.98 234.645 437.338 237.394L450.118 336.531C450.325 338.139 450.188 339.771 449.715 341.321C449.241 342.871 448.443 344.302 447.374 345.52C446.304 346.737 444.987 347.712 443.51 348.38C442.034 349.048 440.432 349.394 438.812 349.395H289.681C286.906 349.397 284.225 348.387 282.141 346.554C280.057 344.721 278.714 342.191 278.362 339.438H278.431Z" fill="black"/>
<path d="M499.846 498.345H481.546C479.745 498.342 478.007 497.685 476.656 496.495C475.305 495.305 474.433 493.664 474.203 491.878L462.355 400.097C461.869 396.383 460.05 392.973 457.235 390.501C454.421 388.029 450.804 386.666 447.058 386.663H297.955C295.764 386.661 293.597 387.126 291.6 388.028C289.602 388.93 287.82 390.247 286.373 391.893C284.925 393.538 283.845 395.473 283.204 397.569C282.564 399.665 282.378 401.873 282.659 404.046L293.784 489.959C293.918 491.004 293.828 492.065 293.52 493.071C293.212 494.078 292.692 495.008 291.995 495.797C291.299 496.587 290.442 497.219 289.482 497.651C288.522 498.084 287.48 498.306 286.427 498.303H268.113C266.31 498.304 264.568 497.648 263.214 496.458C261.86 495.268 260.986 493.625 260.756 491.837L248.922 400.055C248.43 396.344 246.609 392.937 243.796 390.466C240.983 387.996 237.369 386.63 233.625 386.622H172.02C170.219 386.617 168.481 385.959 167.128 384.77C165.775 383.581 164.9 381.941 164.664 380.155L162.286 361.674C162.152 360.631 162.241 359.571 162.549 358.565C162.856 357.559 163.375 356.631 164.07 355.841C164.764 355.051 165.62 354.419 166.578 353.986C167.537 353.553 168.577 353.329 169.629 353.33H225.351C227.542 353.33 229.707 352.863 231.704 351.961C233.7 351.058 235.481 349.741 236.928 348.096C238.376 346.452 239.456 344.518 240.097 342.423C240.739 340.328 240.926 338.12 240.648 335.947L227.854 236.837C227.368 233.122 225.549 229.71 222.735 227.236C219.921 224.763 216.304 223.396 212.557 223.39H150.952C149.154 223.388 147.418 222.733 146.067 221.546C144.716 220.359 143.843 218.721 143.61 216.938L141.218 198.442C141.083 197.398 141.173 196.337 141.482 195.33C141.79 194.323 142.31 193.394 143.006 192.604C143.703 191.814 144.56 191.182 145.52 190.75C146.48 190.318 147.521 190.096 148.574 190.099H204.283C206.474 190.101 208.641 189.636 210.639 188.734C212.636 187.832 214.418 186.515 215.866 184.869C217.314 183.224 218.394 181.289 219.034 179.193C219.675 177.097 219.861 174.889 219.58 172.716L208.455 86.8029C208.32 85.7597 208.41 84.6998 208.717 83.694C209.025 82.6881 209.544 81.7594 210.238 80.9698C210.933 80.1802 211.788 79.5479 212.747 79.1149C213.706 78.682 214.745 78.4584 215.797 78.4591H234.098C235.899 78.4638 237.637 79.1218 238.99 80.311C240.343 81.5002 241.219 83.1398 241.454 84.9255L253.289 176.707C253.777 180.42 255.598 183.828 258.412 186.299C261.225 188.77 264.841 190.135 268.585 190.14H417.744C419.935 190.143 422.102 189.677 424.1 188.776C426.097 187.874 427.879 186.556 429.327 184.911C430.775 183.266 431.855 181.331 432.495 179.235C433.136 177.139 433.322 174.931 433.041 172.757L421.916 86.8446C421.781 85.8014 421.871 84.7415 422.178 83.7357C422.486 82.7299 423.005 81.8012 423.699 81.0115C424.394 80.2219 425.249 79.5896 426.208 79.1566C427.167 78.7237 428.206 78.5001 429.258 78.5008H447.559C449.359 78.5085 451.096 79.1675 452.448 80.3562C453.801 81.5448 454.677 83.1827 454.915 84.9672L466.75 176.749C467.236 180.462 469.055 183.873 471.87 186.344C474.684 188.816 478.301 190.18 482.046 190.182H543.735C545.534 190.187 547.271 190.846 548.621 192.035C549.972 193.224 550.845 194.864 551.077 196.648L553.469 215.088C553.604 216.132 553.514 217.193 553.205 218.2C552.897 219.207 552.377 220.137 551.681 220.926C550.984 221.716 550.128 222.348 549.167 222.78C548.207 223.212 547.166 223.435 546.113 223.432H490.335C488.144 223.432 485.978 223.899 483.982 224.801C481.986 225.704 480.204 227.021 478.757 228.666C477.31 230.31 476.229 232.244 475.588 234.339C474.947 236.434 474.759 238.642 475.038 240.815L487.831 339.938C488.317 343.652 490.137 347.063 492.951 349.534C495.766 352.006 499.383 353.37 503.128 353.372H564.733C566.535 353.374 568.275 354.031 569.629 355.22C570.982 356.41 571.857 358.051 572.09 359.838L574.467 378.32C574.602 379.363 574.512 380.423 574.205 381.429C573.897 382.434 573.379 383.363 572.684 384.153C571.989 384.942 571.134 385.575 570.175 386.008C569.217 386.441 568.177 386.664 567.125 386.663H511.403C509.21 386.657 507.041 387.119 505.041 388.019C503.042 388.919 501.258 390.237 499.809 391.883C498.36 393.529 497.28 395.466 496.642 397.564C496.003 399.662 495.82 401.872 496.106 404.046L507.231 489.959C507.361 491.003 507.268 492.062 506.957 493.067C506.647 494.072 506.127 494.999 505.432 495.788C504.736 496.577 503.881 497.209 502.923 497.642C501.965 498.076 500.926 498.301 499.874 498.303L499.846 498.345ZM297.955 386.344H447.086C450.912 386.352 454.605 387.75 457.478 390.277C460.35 392.804 462.207 396.289 462.703 400.083L474.551 491.864C474.769 493.558 475.594 495.116 476.873 496.248C478.151 497.381 479.796 498.012 481.504 498.025H499.805C500.805 498.02 501.793 497.801 502.702 497.385C503.612 496.969 504.422 496.364 505.08 495.61C505.737 494.856 506.227 493.971 506.517 493.014C506.806 492.056 506.888 491.048 506.758 490.057L495.633 404.144C495.346 401.922 495.536 399.665 496.191 397.523C496.845 395.382 497.949 393.404 499.428 391.722C500.907 390.04 502.728 388.693 504.769 387.77C506.81 386.848 509.024 386.371 511.264 386.371H566.972C567.972 386.366 568.96 386.148 569.869 385.732C570.779 385.315 571.589 384.71 572.247 383.957C572.905 383.203 573.394 382.318 573.684 381.361C573.973 380.403 574.055 379.395 573.925 378.403L571.533 359.922C571.315 358.228 570.49 356.671 569.212 355.538C567.933 354.405 566.288 353.774 564.58 353.761H502.975C499.15 353.75 495.459 352.351 492.587 349.824C489.715 347.298 487.857 343.815 487.359 340.022L474.565 240.898C474.278 238.677 474.469 236.42 475.123 234.278C475.777 232.136 476.881 230.158 478.36 228.476C479.839 226.795 481.66 225.447 483.701 224.525C485.742 223.602 487.956 223.125 490.196 223.126H545.904C546.904 223.121 547.892 222.903 548.801 222.486C549.711 222.07 550.521 221.465 551.179 220.711C551.837 219.957 552.326 219.072 552.616 218.115C552.905 217.157 552.987 216.149 552.857 215.158L550.688 196.648C550.464 194.957 549.637 193.403 548.36 192.271C547.083 191.14 545.441 190.507 543.735 190.488H482.13C478.302 190.48 474.607 189.083 471.733 186.556C468.858 184.029 466.998 180.544 466.499 176.749L454.665 84.9672C454.444 83.2745 453.618 81.7189 452.34 80.5868C451.063 79.4547 449.419 78.8225 447.712 78.8068H429.286C428.287 78.8143 427.3 79.0338 426.392 79.4509C425.483 79.868 424.674 80.4731 424.016 81.2263C423.359 81.9794 422.869 82.8634 422.579 83.82C422.289 84.7765 422.205 85.7837 422.333 86.7751L433.458 172.688C433.754 174.92 433.568 177.191 432.913 179.345C432.258 181.5 431.148 183.489 429.659 185.178C428.17 186.868 426.336 188.219 424.28 189.139C422.225 190.06 419.996 190.529 417.744 190.516H268.613C264.786 190.508 261.091 189.111 258.216 186.584C255.341 184.056 253.481 180.571 252.983 176.776L241.148 84.9951C240.927 83.3024 240.102 81.7467 238.824 80.6146C237.546 79.4825 235.902 78.8504 234.195 78.8346H215.839C214.839 78.8399 213.851 79.0579 212.942 79.4743C212.032 79.8906 211.222 80.4957 210.564 81.2494C209.906 82.0031 209.417 82.888 209.127 83.8455C208.838 84.803 208.756 85.8111 208.886 86.8029L220.011 172.716C220.303 174.946 220.114 177.213 219.456 179.364C218.799 181.516 217.689 183.501 216.2 185.188C214.711 186.874 212.879 188.222 210.825 189.141C208.772 190.06 206.546 190.529 204.297 190.516H148.588C147.589 190.523 146.602 190.743 145.694 191.16C144.785 191.577 143.976 192.182 143.319 192.935C142.661 193.688 142.172 194.572 141.881 195.529C141.591 196.485 141.507 197.493 141.635 198.484L143.958 216.938C144.179 218.63 145.004 220.186 146.282 221.318C147.56 222.45 149.204 223.082 150.911 223.098H212.515C216.343 223.106 220.038 224.503 222.913 227.03C225.788 229.557 227.647 233.042 228.146 236.837L240.926 335.961C241.215 338.182 241.026 340.438 240.374 342.58C239.721 344.722 238.619 346.7 237.141 348.383C235.663 350.065 233.843 351.412 231.802 352.335C229.762 353.258 227.548 353.734 225.309 353.733H169.656C168.656 353.739 167.668 353.957 166.759 354.373C165.849 354.79 165.039 355.395 164.381 356.148C163.724 356.902 163.234 357.787 162.945 358.744C162.655 359.702 162.573 360.71 162.703 361.702L165.081 380.183C165.302 381.876 166.128 383.432 167.406 384.564C168.683 385.696 170.327 386.328 172.034 386.344H233.625C237.451 386.352 241.144 387.75 244.017 390.277C246.889 392.804 248.746 396.289 249.242 400.083L261.09 491.864C261.308 493.558 262.133 495.116 263.412 496.248C264.69 497.381 266.335 498.012 268.043 498.025H286.469C287.469 498.02 288.457 497.801 289.366 497.385C290.276 496.969 291.086 496.364 291.744 495.61C292.402 494.856 292.891 493.971 293.181 493.014C293.47 492.056 293.552 491.048 293.422 490.057L282.297 404.144C282.01 401.922 282.201 399.665 282.855 397.523C283.509 395.382 284.613 393.404 286.092 391.722C287.571 390.04 289.392 388.693 291.433 387.77C293.474 386.848 295.688 386.371 297.928 386.371L297.955 386.344ZM438.812 353.733H289.681C285.854 353.726 282.159 352.328 279.284 349.801C276.409 347.274 274.549 343.789 274.051 339.994L261.257 240.87C260.97 238.649 261.16 236.392 261.815 234.25C262.469 232.108 263.573 230.13 265.052 228.449C266.531 226.767 268.352 225.42 270.393 224.497C272.434 223.574 274.648 223.097 276.887 223.098H426.018C429.846 223.106 433.541 224.503 436.416 227.03C439.29 229.557 441.15 233.042 441.649 236.837L454.429 335.961C454.715 338.181 454.525 340.437 453.872 342.578C453.218 344.719 452.116 346.696 450.638 348.378C449.16 350.059 447.341 351.407 445.302 352.33C443.263 353.254 441.05 353.732 438.812 353.733ZM276.887 223.446C274.697 223.446 272.531 223.913 270.535 224.815C268.538 225.717 266.757 227.035 265.31 228.68C263.863 230.324 262.782 232.258 262.141 234.353C261.5 236.448 261.312 238.656 261.591 240.829L274.384 339.952C274.873 343.665 276.694 347.074 279.507 349.545C282.321 352.016 285.937 353.381 289.681 353.386H438.812C441.003 353.388 443.17 352.923 445.168 352.021C447.165 351.119 448.947 349.802 450.395 348.157C451.843 346.512 452.923 344.576 453.563 342.481C454.204 340.385 454.39 338.176 454.109 336.003L441.329 236.893C440.843 233.178 439.024 229.766 436.21 227.292C433.396 224.818 429.779 223.451 426.032 223.446H276.887Z" fill="#6F95C9"/>
<path d="M383.701 444.778L394.618 451.161L411.097 426.852L400.18 420.456L383.701 444.778Z" fill="#E4897B"/>
<path d="M395.007 450.799L386.038 439.771C385.886 439.579 385.67 439.449 385.429 439.405C385.188 439.362 384.94 439.408 384.73 439.535L374.996 445.376C374.756 445.532 374.551 445.737 374.395 445.977C374.238 446.218 374.135 446.489 374.09 446.772C374.046 447.055 374.061 447.345 374.136 447.622C374.21 447.899 374.342 448.157 374.523 448.379C377.722 452.162 379.46 453.831 383.409 458.684C385.829 461.674 390.543 468.098 393.909 472.215C397.274 476.331 401.515 473.23 400.486 471.213C395.869 462.174 395.689 457.307 395.758 452.927C395.77 452.151 395.503 451.396 395.007 450.799Z" fill="#263238"/>
<path d="M399.11 457.711H398.845C397.065 457.432 395.174 454.317 394.215 452.496C394.194 452.458 394.185 452.414 394.191 452.371C394.196 452.328 394.214 452.288 394.243 452.256C394.272 452.224 394.31 452.202 394.353 452.192C394.395 452.183 394.439 452.187 394.479 452.204C395.063 452.454 400.208 454.721 400.528 456.376C400.555 456.525 400.544 456.678 400.496 456.822C400.447 456.965 400.362 457.094 400.25 457.196C400.105 457.355 399.929 457.482 399.733 457.571C399.537 457.659 399.325 457.707 399.11 457.711ZM394.938 452.816C396.398 455.444 397.9 457.099 398.97 457.266C399.161 457.299 399.356 457.283 399.539 457.219C399.721 457.156 399.884 457.048 400.013 456.904C400.072 456.847 400.117 456.777 400.144 456.7C400.17 456.623 400.178 456.54 400.166 456.459C399.902 455.346 396.662 453.636 394.938 452.816Z" fill="#6F95C9"/>
<path d="M398.498 453.344C397.065 453.332 395.649 453.044 394.326 452.496C394.293 452.482 394.265 452.459 394.245 452.429C394.225 452.399 394.214 452.364 394.214 452.329C394.208 452.292 394.213 452.254 394.227 452.219C394.242 452.185 394.267 452.155 394.298 452.134C394.423 452.051 397.232 450.145 399.221 450.535C399.503 450.588 399.772 450.698 400.012 450.858C400.251 451.018 400.455 451.225 400.611 451.467C401.042 452.12 400.876 452.537 400.611 452.76C400.007 453.216 399.251 453.425 398.498 453.344ZM394.84 452.273C396.551 452.955 399.694 453.191 400.333 452.482C400.333 452.412 400.57 452.217 400.222 451.703C400.099 451.507 399.937 451.339 399.745 451.21C399.554 451.08 399.337 450.993 399.109 450.952C397.578 450.959 396.087 451.44 394.84 452.329V452.273Z" fill="#6F95C9"/>
<path d="M366.569 253.275L367.097 255.388L367.695 257.669C368.099 259.199 368.557 260.742 369.016 262.286C369.943 265.373 370.922 268.456 371.951 271.534C373.035 274.593 374.078 277.68 375.26 280.726C375.83 282.241 376.401 283.785 376.999 285.301L377.708 287.122C377.856 287.437 378.043 287.731 378.264 287.999C379.998 289.744 382.104 291.075 384.424 291.892C387.272 293.049 390.206 293.979 393.199 294.674C396.287 295.397 399.457 295.995 402.669 296.495C405.882 296.996 409.178 297.385 412.404 297.733L412.515 304.283C405.581 305.004 398.59 305.004 391.656 304.283C388.026 303.918 384.438 303.225 380.934 302.211C379.021 301.642 377.161 300.911 375.371 300.027C373.321 299.036 371.443 297.721 369.809 296.134C368.863 295.193 368.045 294.131 367.375 292.977C367.187 292.676 367.016 292.365 366.861 292.045L366.541 291.392L365.985 290.237C365.234 288.694 364.483 287.15 363.788 285.579C362.397 282.436 361.006 279.279 359.783 276.053C358.559 272.827 357.377 269.573 356.32 266.319C355.805 264.65 355.319 262.967 354.929 261.271L354.262 258.684C354.067 257.78 353.886 257.002 353.692 255.903L366.569 253.275Z" fill="#E4897B"/>
<path d="M362.439 239.493C367.654 240.815 371.311 262.286 371.311 262.286L356.932 272.02C356.932 272.02 343.151 250.368 347.197 244.625C351.342 238.701 354.832 237.547 362.439 239.493Z" fill="#6F95C9"/>
<path opacity="0.2" d="M362.439 239.493C367.654 240.815 371.311 262.286 371.311 262.286L356.932 272.02C356.932 272.02 343.151 250.368 347.197 244.625C351.342 238.701 354.832 237.547 362.439 239.493Z" fill="black"/>
<path d="M362.953 247.295L351.828 249.881L350.757 260.798C352.651 264.656 354.739 268.416 357.015 272.062L365.734 266.138C365.276 261.118 364.344 250.688 362.953 247.295Z" fill="#6F95C9"/>
<path opacity="0.3" d="M362.953 247.295L351.828 249.881L350.757 260.798C352.651 264.656 354.739 268.416 357.015 272.062L365.734 266.138C365.276 261.118 364.344 250.688 362.953 247.295Z" fill="black"/>
<path d="M410.485 297.594L419.454 288.499L420.636 301.307C420.636 301.307 413.906 305.868 409.247 303.421L410.485 297.594Z" fill="#E4897B"/>
<path d="M430.009 287.122L430.412 297.914L420.636 301.293L419.454 288.485L430.009 287.122Z" fill="#E4897B"/>
<path d="M365.693 469.795H378.347L382.422 440.481H369.753L365.693 469.795Z" fill="#E4897B"/>
<path d="M379.182 466.013L366.666 459.324C366.452 459.206 366.202 459.171 365.964 459.225C365.726 459.279 365.516 459.418 365.373 459.616L358.656 468.78C358.496 469.018 358.388 469.286 358.338 469.568C358.289 469.851 358.299 470.14 358.368 470.418C358.438 470.696 358.565 470.956 358.741 471.182C358.918 471.408 359.14 471.594 359.393 471.728C363.802 473.981 366.054 474.843 371.575 477.777C374.968 479.585 383.479 484.577 388.179 487.081C392.88 489.584 395.577 485.064 393.853 483.604C386.107 477.068 382.352 471.742 380.725 467.695C380.432 466.966 379.884 466.368 379.182 466.013Z" fill="#263238"/>
<path d="M309.345 190.057C309.025 203.963 292.004 198.22 290.098 214.24C289.028 223.237 278.125 224.169 276.192 232.318C274.301 240.203 281.991 245.932 276.192 255.75C268.432 268.891 264.094 291.809 307.634 294.187C340.008 295.953 351.397 263.065 345.904 242.859C340.411 222.653 337.352 219.538 343.373 213.976C349.395 208.413 359.046 205.632 355.958 188.638C353.567 175.497 347.754 177.04 347.754 177.04C347.462 169.781 310.109 159.115 309.345 190.057Z" fill="#263238"/>
<path d="M411.097 426.852L402.6 439.382L391.67 432.999L400.166 420.456L411.097 426.852Z" fill="#CE6F64"/>
<path d="M369.753 440.495H382.422L380.308 455.597H367.654L369.753 440.495Z" fill="#CE6F64"/>
<path d="M362.439 239.494C362.439 239.494 368.474 241.621 356.389 315.881H304.936C305.799 295.021 305.812 282.061 295.814 239.118C303.013 237.637 310.309 236.679 317.647 236.253C325.42 235.696 333.222 235.696 340.995 236.253C351.063 237.171 362.439 239.494 362.439 239.494Z" fill="#6F95C9"/>
<path opacity="0.2" d="M362.439 239.494C362.439 239.494 368.474 241.621 356.389 315.881H304.936C305.799 295.021 305.812 282.061 295.814 239.118C303.013 237.637 310.309 236.679 317.647 236.253C325.42 235.696 333.222 235.696 340.995 236.253C351.063 237.171 362.439 239.494 362.439 239.494Z" fill="black"/>
<path d="M320.011 209.984C321.485 217.494 322.959 231.247 317.702 236.267C317.702 236.267 319.76 243.888 333.708 243.888C347.142 243.888 341.051 236.267 341.051 236.267C332.707 234.265 332.888 228.049 334.348 222.208L320.011 209.984Z" fill="#E4897B"/>
<path d="M325.851 214.963L334.334 222.194C333.976 223.561 333.739 224.957 333.625 226.366C330.413 225.907 326.018 222.389 325.684 219.037C325.497 217.68 325.553 216.3 325.851 214.963Z" fill="#CE6F64"/>
<path d="M319.135 190.182C317.744 202.698 316.798 207.899 321.916 215.352C329.592 226.561 345.237 225.615 350.382 213.823C355.013 203.212 356.612 184.619 345.404 177.513C342.941 175.939 340.116 175.021 337.198 174.846C334.28 174.672 331.367 175.247 328.734 176.517C326.101 177.786 323.837 179.709 322.156 182.101C320.476 184.493 319.436 187.274 319.135 190.182Z" fill="#E4897B"/>
<path d="M319.065 197.552C320.831 200.834 347.865 185.885 344.792 177.861C341.718 169.837 333.667 172.743 333.667 172.743C333.667 172.743 319.385 175.997 316.979 183.41C314.573 190.822 319.065 197.552 319.065 197.552Z" fill="#263238"/>
<path d="M313.864 198.985C314.115 201.393 315.273 203.616 317.104 205.201C319.552 207.273 321.985 205.423 322.319 202.419C322.625 199.736 321.721 195.466 318.787 194.493C315.853 193.519 313.586 196.078 313.864 198.985Z" fill="#E4897B"/>
<path d="M356.389 315.881C356.389 315.881 436.406 323.585 435.572 362.175C434.71 402.322 405.882 438.478 405.882 438.478L390.766 429.926C390.766 429.926 407.453 394.59 406.591 370.518C405.896 349.937 329.161 345.988 329.161 345.988L318.578 315.881H356.389Z" fill="#6F95C9"/>
<path opacity="0.6" d="M356.389 315.881C356.389 315.881 436.406 323.585 435.572 362.175C434.71 402.322 405.882 438.478 405.882 438.478L390.766 429.926C390.766 429.926 407.453 394.59 406.591 370.518C405.896 349.937 329.161 345.988 329.161 345.988L318.578 315.881H356.389Z" fill="#FAFAFA"/>
<path d="M384.271 338.506L385.885 354.915C397.079 358.42 405.687 363.259 406.535 369.74C408.427 355.221 398.303 346.641 384.271 338.506Z" fill="#6F95C9"/>
<path opacity="0.4" d="M384.271 338.506L385.885 354.915C397.079 358.42 405.687 363.259 406.535 369.74C408.427 355.221 398.303 346.641 384.271 338.506Z" fill="#FAFAFA"/>
<path d="M342.817 315.881C342.817 315.881 397.719 334.07 399.109 356.584C401.668 398.039 383.437 452.676 383.437 452.676H366.11C366.11 452.676 367.083 416.423 369.155 378.862C371.742 331.678 288.499 378.208 304.992 315.881H342.817Z" fill="#6F95C9"/>
<path opacity="0.6" d="M342.817 315.881C342.817 315.881 397.719 334.07 399.109 356.584C401.668 398.039 383.437 452.676 383.437 452.676H366.11C366.11 452.676 367.083 416.423 369.155 378.862C371.742 331.678 288.499 378.208 304.992 315.881H342.817Z" fill="#FAFAFA"/>
<path d="M337.241 196.982C337.06 197.983 337.449 198.887 338.103 199.012C338.756 199.137 339.493 198.4 339.619 197.399C339.744 196.398 339.41 195.48 338.756 195.369C338.103 195.258 337.421 195.967 337.241 196.982Z" fill="#263238"/>
<path d="M348.588 199.012C348.421 200.014 348.797 200.918 349.464 201.043C350.132 201.168 350.855 200.445 350.98 199.43C351.105 198.414 350.771 197.524 350.104 197.399C349.436 197.274 348.769 197.997 348.588 199.012Z" fill="#263238"/>
<path d="M349.812 197.469L352.343 197.205C352.343 197.205 350.771 198.859 349.812 197.469Z" fill="#263238"/>
<path d="M345.278 200.25C345.756 202.664 346.556 205.002 347.656 207.203C347.076 207.469 346.445 207.607 345.807 207.607C345.168 207.607 344.538 207.469 343.957 207.203L345.278 200.25Z" fill="#DE5753"/>
<path d="M338.228 209.901H338.144C336.123 208.951 334.542 207.264 333.722 205.187C333.714 205.163 333.71 205.138 333.712 205.113C333.714 205.088 333.721 205.063 333.733 205.041C333.744 205.019 333.761 204.999 333.78 204.983C333.8 204.968 333.823 204.957 333.847 204.95C333.87 204.942 333.895 204.937 333.919 204.938C333.943 204.939 333.967 204.945 333.989 204.955C334.011 204.966 334.031 204.981 334.047 204.999C334.064 205.017 334.076 205.038 334.084 205.062C334.868 207.025 336.355 208.626 338.256 209.553C338.301 209.575 338.336 209.612 338.354 209.659C338.373 209.706 338.372 209.757 338.353 209.804C338.34 209.828 338.322 209.849 338.301 209.866C338.279 209.882 338.254 209.894 338.228 209.901Z" fill="#263238"/>
<path d="M335.975 192.476C335.921 192.476 335.868 192.464 335.82 192.44C335.771 192.416 335.729 192.38 335.697 192.337C335.659 192.305 335.628 192.264 335.607 192.219C335.586 192.173 335.575 192.123 335.575 192.073C335.575 192.023 335.586 191.973 335.607 191.928C335.628 191.882 335.659 191.842 335.697 191.809C336.369 191.19 337.179 190.742 338.059 190.5C338.94 190.258 339.865 190.23 340.759 190.418C340.857 190.444 340.94 190.508 340.991 190.595C341.042 190.682 341.056 190.786 341.03 190.884C341.004 190.982 340.941 191.065 340.853 191.116C340.766 191.167 340.662 191.181 340.564 191.155C339.788 191.001 338.987 191.035 338.227 191.255C337.467 191.476 336.771 191.875 336.198 192.421C336.13 192.46 336.053 192.48 335.975 192.476Z" fill="#263238"/>
<path d="M354.79 194.493C354.717 194.488 354.646 194.463 354.584 194.422C354.523 194.38 354.474 194.323 354.443 194.256C354.147 193.526 353.683 192.876 353.088 192.359C352.494 191.842 351.786 191.472 351.022 191.28C350.92 191.263 350.83 191.207 350.77 191.124C350.71 191.04 350.686 190.937 350.702 190.835C350.722 190.737 350.78 190.65 350.863 190.593C350.946 190.536 351.047 190.513 351.147 190.53C352.039 190.736 352.867 191.154 353.562 191.75C354.257 192.346 354.798 193.101 355.138 193.95C355.161 193.996 355.174 194.045 355.176 194.096C355.179 194.146 355.17 194.197 355.152 194.244C355.134 194.291 355.106 194.334 355.07 194.37C355.034 194.405 354.991 194.433 354.943 194.451C354.897 194.48 354.844 194.494 354.79 194.493Z" fill="#263238"/>
<path d="M383.924 470.518C382.436 470.518 380.42 468.961 379.293 467.959C379.259 467.935 379.234 467.9 379.221 467.86C379.209 467.82 379.21 467.777 379.224 467.737C379.236 467.697 379.26 467.661 379.292 467.634C379.324 467.607 379.363 467.59 379.404 467.584C379.919 467.584 384.438 467.167 385.384 468.404C385.486 468.535 385.551 468.69 385.573 468.853C385.595 469.017 385.573 469.184 385.509 469.336C385.433 469.604 385.289 469.848 385.092 470.045C384.895 470.242 384.651 470.386 384.383 470.462C384.232 470.496 384.078 470.515 383.924 470.518ZM379.947 467.973C381.782 469.503 383.368 470.282 384.272 470.045C384.473 469.989 384.655 469.881 384.802 469.732C384.948 469.583 385.053 469.399 385.106 469.197C385.159 469.119 385.187 469.027 385.187 468.933C385.187 468.839 385.159 468.747 385.106 468.669C384.438 467.862 381.518 467.876 379.947 467.973Z" fill="#6F95C9"/>
<path d="M379.432 468.015C379.394 468.018 379.356 468.009 379.324 467.989C379.291 467.969 379.266 467.939 379.251 467.904C379.234 467.872 379.225 467.836 379.225 467.799C379.225 467.763 379.234 467.727 379.251 467.695C379.321 467.57 381.031 464.385 382.784 463.968C382.994 463.907 383.216 463.897 383.431 463.938C383.646 463.979 383.848 464.071 384.021 464.205C384.217 464.306 384.37 464.473 384.454 464.677C384.538 464.881 384.548 465.107 384.48 465.317C384.105 466.597 380.976 467.973 379.446 468.015H379.432ZM383.159 464.344H382.867C381.616 464.636 380.308 466.68 379.808 467.5C381.268 467.278 383.771 466.11 384.063 465.15C384.063 464.997 384.133 464.761 383.771 464.511C383.589 464.393 383.375 464.335 383.159 464.344Z" fill="#6F95C9"/>
<path d="M338.45 195.369L340.995 195.105C340.995 195.105 339.41 196.773 338.45 195.369Z" fill="#263238"/>
<path d="M304.213 312.891L303.81 317.494C303.629 317.855 304.046 318.217 304.644 318.217H356.64C357.113 318.217 357.488 317.994 357.516 317.702L357.989 313.099C357.989 312.779 357.613 312.501 357.113 312.501H305.048C304.887 312.492 304.727 312.523 304.581 312.591C304.436 312.659 304.309 312.762 304.213 312.891Z" fill="#263238"/>
<path d="M311.208 318.69H309.817C309.539 318.69 309.331 318.551 309.345 318.37L309.998 312.39C309.998 312.209 310.262 312.07 310.541 312.07H311.931C312.209 312.07 312.418 312.209 312.404 312.39L311.75 318.37C311.723 318.551 311.5 318.69 311.208 318.69Z" fill="#6F95C9"/>
<path opacity="0.6" d="M311.208 318.69H309.817C309.539 318.69 309.331 318.551 309.345 318.37L309.998 312.39C309.998 312.209 310.262 312.07 310.541 312.07H311.931C312.209 312.07 312.418 312.209 312.404 312.39L311.75 318.37C311.723 318.551 311.5 318.69 311.208 318.69Z" fill="#FAFAFA"/>
<path d="M352.732 318.69H351.342C351.063 318.69 350.855 318.551 350.883 318.37L351.536 312.39C351.536 312.209 351.787 312.07 352.065 312.07H353.455C353.733 312.07 353.942 312.209 353.914 312.39L353.261 318.37C353.219 318.551 353.01 318.69 352.732 318.69Z" fill="#6F95C9"/>
<path opacity="0.6" d="M352.732 318.69H351.342C351.063 318.69 350.855 318.551 350.883 318.37L351.536 312.39C351.536 312.209 351.787 312.07 352.065 312.07H353.455C353.733 312.07 353.942 312.209 353.914 312.39L353.261 318.37C353.219 318.551 353.01 318.69 352.732 318.69Z" fill="#FAFAFA"/>
<path d="M331.97 318.69H330.58C330.301 318.69 330.079 318.551 330.107 318.37L330.76 312.39C330.76 312.209 331.025 312.07 331.303 312.07H332.693C332.971 312.07 333.18 312.209 333.166 312.39L332.512 318.37C332.485 318.551 332.248 318.69 331.97 318.69Z" fill="#6F95C9"/>
<path opacity="0.6" d="M331.97 318.69H330.58C330.301 318.69 330.079 318.551 330.107 318.37L330.76 312.39C330.76 312.209 331.025 312.07 331.303 312.07H332.693C332.971 312.07 333.18 312.209 333.166 312.39L332.512 318.37C332.485 318.551 332.248 318.69 331.97 318.69Z" fill="#FAFAFA"/>
<path d="M307.968 259.06L301.335 264.706C302.725 272.215 303.699 278.473 304.311 284.035C305.548 278.459 308.719 263.329 307.968 259.06Z" fill="#6F95C9"/>
<path opacity="0.3" d="M307.968 259.06L301.335 264.706C302.725 272.215 303.699 278.473 304.311 284.035C305.548 278.459 308.719 263.329 307.968 259.06Z" fill="black"/>
<path d="M448.491 280.35H358.281L345.209 333.625H435.419L448.491 280.35Z" fill="#FAFAFA"/>
<path d="M402.781 323.71L347.615 336.573L312.209 326.644L312.571 323.71H402.781Z" fill="#FAFAFA"/>
<path d="M303.546 257.433C302.475 260.979 301.307 264.636 300.264 268.252C299.221 271.867 298.122 275.511 297.177 279.14C296.231 282.77 295.327 286.385 294.632 289.932C294.298 291.698 293.978 293.464 293.77 295.132C293.621 296.304 293.542 297.484 293.533 298.665C293.839 299.612 294.363 300.474 295.063 301.182C296.118 302.327 297.288 303.361 298.553 304.269C301.449 306.331 304.504 308.158 307.69 309.734C310.958 311.417 314.379 312.946 317.869 314.365C321.36 315.783 324.92 317.146 328.41 318.537L326.797 324.822C322.806 324.197 319.01 323.307 315.144 322.347C311.278 321.387 307.509 320.122 303.713 318.731C299.79 317.297 296.01 315.5 292.421 313.364C290.426 312.17 288.562 310.772 286.858 309.192C284.718 307.26 283.097 304.821 282.144 302.099C281.882 301.271 281.7 300.418 281.602 299.555V298.887V298.387V297.497C281.602 296.328 281.602 295.216 281.602 294.117C281.713 291.948 281.949 289.945 282.255 287.86C282.825 283.799 283.646 279.877 284.508 276.011C286.284 268.318 288.451 260.719 291.002 253.247L303.546 257.433Z" fill="#E4897B"/>
<path d="M295.87 239.188C290.724 240.759 282.839 260.979 282.839 260.979L302.823 275.26C302.823 275.26 311.806 257.975 309.637 251.314C307.328 244.319 301.766 237.338 295.87 239.188Z" fill="#6F95C9"/>
<path opacity="0.2" d="M295.87 239.188C290.724 240.759 282.839 260.979 282.839 260.979L302.823 275.26C302.823 275.26 311.806 257.975 309.637 251.314C307.328 244.319 301.766 237.338 295.87 239.188Z" fill="black"/>
<path d="M325.81 318.926L337.825 315.881L332.095 327.409C332.095 327.409 323.988 327.757 321.304 323.237L325.81 318.926Z" fill="#E4897B"/>
<path d="M347.517 320.261L342.205 329.662L332.095 327.409L337.825 315.881L347.517 320.261Z" fill="#E4897B"/>
<path d="M451.272 280.35H361.062L347.99 333.625H438.2L451.272 280.35Z" fill="#263238"/>
<path d="M438.2 333.625L437.838 336.573H347.615L347.976 333.625H438.2Z" fill="#263238"/>
<path d="M342.636 182.756C354.79 187.623 355.792 194.618 355.152 189.709C354.234 182.659 348.379 177.583 344.18 175.872C341.718 174.843 337.324 180.628 342.636 182.756Z" fill="#263238"/>
<path d="M319.983 189.125L319.162 190.085C319.034 190.217 318.962 190.394 318.962 190.578C318.962 190.763 319.034 190.94 319.162 191.072L325.726 197.052C325.857 197.172 326.028 197.238 326.206 197.238C326.384 197.238 326.555 197.172 326.686 197.052L327.812 196.009C327.886 195.942 327.946 195.861 327.987 195.77C328.027 195.679 328.048 195.58 328.048 195.48C328.048 195.38 328.027 195.282 327.987 195.191C327.946 195.1 327.886 195.018 327.812 194.952L320.929 189.055C320.79 188.948 320.617 188.896 320.442 188.909C320.268 188.922 320.104 188.999 319.983 189.125Z" fill="#6F95C9"/>
<path opacity="0.3" d="M319.983 189.125L319.162 190.085C319.034 190.217 318.962 190.394 318.962 190.578C318.962 190.763 319.034 190.94 319.162 191.072L325.726 197.052C325.857 197.172 326.028 197.238 326.206 197.238C326.384 197.238 326.555 197.172 326.686 197.052L327.812 196.009C327.886 195.942 327.946 195.861 327.987 195.77C328.027 195.679 328.048 195.58 328.048 195.48C328.048 195.38 328.027 195.282 327.987 195.191C327.946 195.1 327.886 195.018 327.812 194.952L320.929 189.055C320.79 188.948 320.617 188.896 320.442 188.909C320.268 188.922 320.104 188.999 319.983 189.125Z" fill="black"/>
<path d="M318.3 235.377C318.439 236.434 319.607 241.649 329.536 243.61C329.536 243.61 326.588 246.822 324.92 254.512C324.92 254.512 307.509 247.684 312.793 236.615C312.835 236.526 312.897 236.448 312.974 236.388C313.052 236.328 313.142 236.286 313.238 236.267L318.078 235.238C318.101 235.232 318.126 235.231 318.151 235.235C318.175 235.238 318.198 235.247 318.219 235.26C318.24 235.273 318.258 235.29 318.272 235.31C318.286 235.33 318.295 235.353 318.3 235.377Z" fill="#6F95C9"/>
<path opacity="0.6" d="M318.3 235.377C318.439 236.434 319.607 241.649 329.536 243.61C329.536 243.61 326.588 246.822 324.92 254.512C324.92 254.512 307.509 247.684 312.793 236.615C312.835 236.526 312.897 236.448 312.974 236.388C313.052 236.328 313.142 236.286 313.238 236.267L318.078 235.238C318.101 235.232 318.126 235.231 318.151 235.235C318.175 235.238 318.198 235.247 318.219 235.26C318.24 235.273 318.258 235.29 318.272 235.31C318.286 235.33 318.295 235.353 318.3 235.377Z" fill="#FAFAFA"/>
<path d="M340.481 236.184C341.677 237.449 344.945 241.746 336.684 243.721C336.684 243.721 341.704 246.502 343.373 254.192C343.373 254.192 355.736 245.696 344.486 236.462C344.473 236.456 344.458 236.453 344.444 236.453C344.43 236.453 344.415 236.456 344.402 236.462L340.634 235.933C340.605 235.936 340.577 235.945 340.553 235.96C340.529 235.974 340.508 235.995 340.493 236.019C340.478 236.044 340.469 236.072 340.467 236.1C340.465 236.129 340.47 236.157 340.481 236.184Z" fill="#6F95C9"/>
<path opacity="0.6" d="M340.481 236.184C341.677 237.449 344.945 241.746 336.684 243.721C336.684 243.721 341.704 246.502 343.373 254.192C343.373 254.192 355.736 245.696 344.486 236.462C344.473 236.456 344.458 236.453 344.444 236.453C344.43 236.453 344.415 236.456 344.402 236.462L340.634 235.933C340.605 235.936 340.577 235.945 340.553 235.96C340.529 235.974 340.508 235.995 340.493 236.019C340.478 236.044 340.469 236.072 340.467 236.1C340.465 236.129 340.47 236.157 340.481 236.184Z" fill="#FAFAFA"/>
<path d="M458.503 156.167C456.389 134.32 437.185 116.618 415.616 116.632C394.048 116.646 378.25 134.348 380.406 156.195C381.184 163.284 383.648 170.083 387.592 176.025C391.535 181.966 396.843 186.878 403.073 190.349L402.725 204.255L414.295 194.729C417.246 195.412 420.264 195.762 423.293 195.772C444.861 195.731 460.631 178 458.503 156.167Z" fill="#6F95C9"/>
<path opacity="0.6" d="M458.503 156.167C456.389 134.32 437.185 116.618 415.616 116.632C394.048 116.646 378.25 134.348 380.406 156.195C381.184 163.284 383.648 170.083 387.592 176.025C391.535 181.966 396.843 186.878 403.073 190.349L402.725 204.255L414.295 194.729C417.246 195.412 420.264 195.762 423.293 195.772C444.861 195.731 460.631 178 458.503 156.167Z" fill="#FAFAFA"/>
<path d="M422.75 149.298C413.197 146.419 406.452 136.198 406.452 136.198C406.452 136.198 403.504 136.031 403.671 138.729C403.979 142.464 405.694 145.943 408.469 148.463L403.991 148.213C402.415 148.124 400.836 148.297 399.318 148.727L397.928 149.131C397.332 149.312 396.781 149.614 396.308 150.019C395.836 150.424 395.452 150.923 395.182 151.483C394.911 152.043 394.76 152.654 394.737 153.276C394.714 153.898 394.82 154.518 395.049 155.096L398.025 163.871C399.011 166.71 400.985 169.099 403.587 170.602C405.79 171.916 408.375 172.441 410.916 172.09C415.394 171.408 422.361 170.366 423.557 170.143L426.769 169.865L425.824 150.188L422.75 149.298Z" fill="#FAFAFA"/>
<path d="M439.549 172.521H427.033C426.552 172.504 426.092 172.316 425.737 171.989C425.382 171.662 425.157 171.22 425.1 170.741L422.931 148.352C422.903 148.128 422.924 147.901 422.991 147.685C423.058 147.47 423.17 147.271 423.32 147.103C423.47 146.934 423.655 146.8 423.861 146.708C424.067 146.617 424.291 146.57 424.516 146.572H437.032C437.518 146.586 437.983 146.775 438.341 147.105C438.699 147.434 438.925 147.882 438.979 148.366L441.148 170.741C441.174 170.966 441.151 171.193 441.083 171.409C441.014 171.624 440.9 171.822 440.749 171.991C440.598 172.159 440.413 172.293 440.206 172.384C439.999 172.476 439.775 172.522 439.549 172.521Z" fill="#6F95C9"/>
<path d="M255.722 263.134L243.207 251.272C243.387 248.799 243.359 246.315 243.123 243.846C240.773 219.705 219.552 200.139 195.717 200.153C171.881 200.167 154.471 219.747 156.779 243.888C159.088 268.029 180.336 287.595 204.172 287.581C211.518 287.703 218.745 285.71 224.991 281.839C231.236 277.968 236.237 272.382 239.396 265.749L255.722 263.134Z" fill="#6F95C9"/>
<path d="M219.969 228.229C213.447 222.208 203.824 222.222 198.484 228.229C191.962 222.222 182.339 222.222 176.985 228.229C171.631 234.237 172.577 243.999 179.099 250.007L202.739 271.77L222.111 249.993C227.437 243.985 226.491 234.237 219.969 228.229Z" fill="#6F95C9"/>
<path opacity="0.6" d="M219.969 228.229C213.447 222.208 203.824 222.222 198.484 228.229C191.962 222.222 182.339 222.222 176.985 228.229C171.631 234.237 172.577 243.999 179.099 250.007L202.739 271.77L222.111 249.993C227.437 243.985 226.491 234.237 219.969 228.229Z" fill="#FAFAFA"/>
</svg>
