<svg width="841" height="452" viewBox="0 0 841 452" fill="none" xmlns="http://www.w3.org/2000/svg">
<mask id="mask0_901_12714" style="mask-type:luminance" maskUnits="userSpaceOnUse" x="0" y="-1" width="841" height="453">
<path d="M841 -0.000488281H0V451.191H841V-0.000488281Z" fill="white"/>
</mask>
<g mask="url(#mask0_901_12714)">
<g opacity="0.3">
<path opacity="0.3" d="M188.804 155.989V408.955C188.804 411.476 188.305 413.973 187.336 416.301C186.368 418.629 184.949 420.743 183.16 422.519C181.372 424.295 179.249 425.7 176.916 426.653C174.582 427.605 172.083 428.086 169.564 428.068H136.585C143.009 428.068 149.171 425.514 153.714 420.969C158.256 416.424 160.808 410.259 160.808 403.831C160.808 397.402 158.256 391.238 153.714 386.692C149.171 382.147 143.009 379.593 136.585 379.593H24.2234C17.7989 379.593 11.6376 377.04 7.09483 372.494C2.5521 367.949 0 361.784 0 355.357C0 348.928 2.5521 342.764 7.09483 338.218C11.6376 333.673 17.7989 331.119 24.2234 331.119H85.612C92.0368 331.119 98.1982 328.566 102.741 324.02C107.283 319.475 109.836 313.31 109.836 306.882C109.836 300.454 107.283 294.289 102.741 289.744C98.1982 285.198 92.0368 282.645 85.612 282.645H24.2234C17.7989 282.645 11.6376 280.091 7.09483 275.546C2.5521 271 0 264.836 0 258.408C0 251.98 2.5521 245.815 7.09483 241.27C11.6376 236.724 17.7989 234.171 24.2234 234.171H103.295C109.72 234.171 115.881 231.617 120.424 227.072C124.966 222.526 127.519 216.362 127.519 209.933C127.519 203.505 124.966 197.341 120.424 192.795C115.881 188.25 109.72 185.696 103.295 185.696H57.5479C51.1233 185.696 44.962 183.143 40.4193 178.598C35.8765 174.052 33.3244 167.887 33.3244 161.459C33.3244 155.031 35.8765 148.867 40.4193 144.321C44.962 139.776 51.1233 137.222 57.5479 137.222H169.564C174.594 137.185 179.436 139.135 183.039 142.649C186.641 146.162 188.713 150.956 188.804 155.989Z" fill="#BDDFE9"/>
<path opacity="0.3" d="M652.197 51.9412V305.011C652.197 307.524 652.69 310.012 653.656 312.334C654.616 314.655 656.027 316.763 657.806 318.539C659.579 320.314 661.688 321.721 664.012 322.679C666.331 323.638 668.823 324.129 671.331 324.124H704.415C697.988 324.124 691.829 321.571 687.285 317.025C682.742 312.48 680.192 306.315 680.192 299.887C680.192 293.459 682.742 287.294 687.285 282.749C691.829 278.203 697.988 275.65 704.415 275.65H816.672C823.099 275.65 829.258 273.096 833.802 268.551C838.345 264.006 840.895 257.841 840.895 251.413C840.895 244.985 838.345 238.82 833.802 234.274C829.258 229.729 823.099 227.176 816.672 227.176H755.389C748.962 227.176 742.803 224.622 738.259 220.077C733.716 215.531 731.166 209.367 731.166 202.939C731.166 196.51 733.716 190.346 738.259 185.8C742.803 181.255 748.962 178.701 755.389 178.701H816.672C823.099 178.701 829.258 176.148 833.802 171.602C838.345 167.057 840.895 160.892 840.895 154.464C840.895 148.036 838.345 141.872 833.802 137.326C829.258 132.781 823.099 130.227 816.672 130.227H737.672C731.245 130.227 725.086 127.674 720.542 123.128C715.999 118.583 713.449 112.418 713.449 105.99C713.449 99.5618 715.999 93.3973 720.542 88.8518C725.086 84.3063 731.245 81.7529 737.672 81.7529H783.452C789.879 81.7529 796.038 79.1995 800.582 74.654C805.125 70.1085 807.675 63.9439 807.675 57.5155C807.675 51.0877 805.125 44.9228 800.582 40.3775C796.038 35.8321 789.879 33.2786 783.452 33.2786H671.331C666.336 33.2682 661.536 35.2159 657.958 38.7044C654.385 42.1929 652.313 46.9446 652.197 51.9412Z" fill="#BDDFE9"/>
</g>
<path d="M663.062 414.148C663.068 418.868 662.144 423.542 660.34 427.904C658.54 432.267 655.896 436.231 652.564 439.572C649.233 442.912 645.277 445.563 640.923 447.374C636.563 449.184 631.893 450.118 627.177 450.123H155.41C151.694 450.123 148.015 449.39 144.583 447.966C141.15 446.542 138.032 444.456 135.406 441.825C132.78 439.195 130.698 436.072 129.28 432.636C127.861 429.2 127.133 425.518 127.138 421.8V47.3363C127.138 39.8338 130.117 32.6386 135.419 27.3335C140.721 22.0284 147.911 19.0481 155.41 19.0481H510.178C500.849 19.3379 491.999 23.2497 485.502 29.9549C479.006 36.6601 475.373 45.6322 475.373 54.9709C475.373 64.31 479.006 73.2819 485.502 79.9873C491.999 86.6922 500.849 90.604 510.178 90.8941H577.897C587.231 91.1837 596.076 95.0954 602.577 101.801C609.072 108.506 612.702 117.478 612.702 126.817C612.702 136.155 609.072 145.128 602.577 151.833C596.076 158.538 587.231 162.45 577.897 162.74H460.901C456.189 162.74 451.522 163.668 447.168 165.473C442.814 167.277 438.859 169.922 435.526 173.256C432.194 176.59 429.551 180.548 427.747 184.905C425.944 189.261 425.016 193.93 425.016 198.645C425.016 203.36 425.944 208.029 427.747 212.386C429.551 216.742 432.194 220.7 435.526 224.034C438.859 227.369 442.814 230.013 447.168 231.817C451.522 233.622 456.189 234.551 460.901 234.551H551.702C561.03 234.84 569.881 238.752 576.381 245.458C582.876 252.163 586.507 261.135 586.507 270.474C586.507 279.813 582.876 288.785 576.381 295.49C569.881 302.195 561.03 306.107 551.702 306.397H460.901C456.093 306.247 451.303 307.066 446.816 308.804C442.33 310.542 438.238 313.164 434.784 316.515C431.33 319.865 428.583 323.876 426.708 328.308C424.833 332.741 423.866 337.506 423.866 342.32C423.866 347.133 424.833 351.898 426.708 356.331C428.583 360.763 431.33 364.774 434.784 368.125C438.238 371.475 442.33 374.097 446.816 375.835C451.303 377.573 456.093 378.392 460.901 378.242H627.177C636.694 378.242 645.823 382.025 652.554 388.759C659.28 395.492 663.062 404.625 663.062 414.148Z" fill="#E0F0F5"/>
<path d="M274.416 146.607C274.397 164.64 270.344 182.441 262.555 198.704C254.766 214.966 243.438 229.278 229.401 240.59C215.365 251.902 198.975 259.927 181.436 264.077C163.896 268.227 145.651 268.396 128.037 264.572L126.999 264.33V243.971C102.602 242.747 79.1641 234.084 59.8311 219.145L58.828 218.418C57.2011 217.206 55.5747 215.96 54.0176 214.644L53.5679 214.021C41.3518 195.846 34.3068 174.69 33.1872 152.816C32.0677 130.943 36.9158 109.177 47.2124 89.849C57.509 70.5212 72.8663 54.3601 91.6391 43.0962C110.412 31.8322 131.894 25.89 153.783 25.9058H155.271C160.051 25.9712 164.823 26.3181 169.563 26.9445C192.101 29.9057 213.339 39.1979 230.813 53.7437C231.713 54.4362 232.578 55.198 233.409 55.9598C246.163 67.1609 256.411 80.9301 263.481 96.3666C264.173 97.8555 264.83 99.3791 265.418 100.903C271.373 115.403 274.429 130.93 274.416 146.607Z" fill="#BDDFE9"/>
<path d="M324.732 355.841L303.796 319.555L286.113 350.197L274.763 330.531L239.223 268.968L203.719 330.531L168.18 392.093H239.223H261.924L261.89 392.128H303.796H345.667L324.732 355.841Z" fill="#E8DE98"/>
<path d="M704.452 47.3393V421.768C704.457 425.489 703.733 429.175 702.316 432.615C700.9 436.055 698.817 439.182 696.194 441.816C693.565 444.45 690.449 446.54 687.013 447.966C683.576 449.392 679.893 450.126 676.179 450.126H627.177C636.505 449.836 645.356 445.924 651.851 439.219C658.346 432.514 661.982 423.542 661.982 414.203C661.982 404.864 658.346 395.892 651.851 389.187C645.356 382.482 636.505 378.57 627.177 378.28H460.901C456.092 378.429 451.303 377.611 446.816 375.873C442.33 374.135 438.238 371.512 434.784 368.162C431.33 364.812 428.584 360.801 426.708 356.368C424.833 351.935 423.866 347.171 423.866 342.357C423.866 337.543 424.833 332.779 426.708 328.346C428.584 323.913 431.33 319.903 434.784 316.552C438.238 313.202 442.33 310.579 446.816 308.841C451.303 307.104 456.092 306.285 460.901 306.434H551.702C561.03 306.144 569.881 302.232 576.382 295.528C582.877 288.822 586.507 279.85 586.507 270.512C586.507 261.172 582.877 252.201 576.382 245.495C569.881 238.79 561.03 234.878 551.702 234.588H460.901C456.188 234.588 451.522 233.66 447.168 231.855C442.814 230.051 438.858 227.406 435.526 224.072C432.194 220.738 429.551 216.779 427.747 212.423C425.944 208.067 425.016 203.398 425.016 198.683C425.016 193.967 425.944 189.299 427.747 184.943C429.551 180.586 432.194 176.628 435.526 173.294C438.858 169.96 442.814 167.315 447.168 165.51C451.522 163.706 456.188 162.778 460.901 162.778H577.898C587.231 162.487 596.077 158.576 602.577 151.871C609.072 145.165 612.702 136.193 612.702 126.854C612.702 117.516 609.072 108.543 602.577 101.838C596.077 95.1329 587.231 91.2211 577.898 90.9315H510.178C500.849 90.6414 491.999 86.7297 485.503 80.0248C479.006 73.3193 475.373 64.3474 475.373 55.0088C475.373 45.6698 479.006 36.6977 485.503 29.9925C491.999 23.2873 500.849 19.3755 510.178 19.0857H676.278C683.755 19.1131 690.916 22.1009 696.194 27.3955C701.472 32.6901 704.441 39.8607 704.452 47.3393Z" fill="#E8DE98"/>
<path d="M266.179 18.2893H333.105C333.105 20.3095 332.302 22.247 330.875 23.6756C329.447 25.1041 327.511 25.9067 325.492 25.9067H273.792C271.773 25.9067 269.836 25.1041 268.409 23.6756C266.981 22.247 266.179 20.3095 266.179 18.2893Z" fill="white"/>
<path d="M266.179 65.793H333.105C333.105 67.8128 332.302 69.7503 330.875 71.1789C329.447 72.6075 327.511 73.4102 325.492 73.4102H273.792C271.773 73.4102 269.836 72.6075 268.409 71.1789C266.981 69.7503 266.179 67.8128 266.179 65.793Z" fill="white"/>
<path opacity="0.7" d="M340.545 65.793H407.436C407.436 67.8128 406.633 69.7503 405.206 71.1789C403.778 72.6075 401.842 73.4102 399.823 73.4102H348.158C346.139 73.4102 344.202 72.6075 342.775 71.1789C341.347 69.7503 340.545 67.8128 340.545 65.793Z" fill="white"/>
<path d="M188.803 18.2893H255.694C255.694 20.3095 254.892 22.247 253.464 23.6756C252.036 25.1041 250.1 25.9067 248.081 25.9067H196.416C194.396 25.9067 192.461 25.1041 191.032 23.6756C189.605 22.247 188.803 20.3095 188.803 18.2893Z" fill="white"/>
<path d="M86.754 126.975L70.9393 118.7L53.1523 120.292L61.3887 104.469L59.7969 86.6719L75.6458 94.9129L93.4327 93.3201L85.1623 109.178L86.754 126.975Z" fill="#EEF0F1"/>
<path d="M75.265 159.384C78.5713 159.384 81.2517 156.702 81.2517 153.394C81.2517 150.086 78.5713 147.404 75.265 147.404C71.9587 147.404 69.2783 150.086 69.2783 153.394C69.2783 156.702 71.9587 159.384 75.265 159.384Z" fill="#EEF0F1"/>
<path d="M392.453 20.1913H363.35C362.432 20.1913 361.552 19.8265 360.903 19.1771C360.254 18.5278 359.89 17.6471 359.89 16.7288C359.89 15.8106 360.254 14.9298 360.903 14.2805C361.552 13.6312 362.432 13.2664 363.35 13.2664H392.349C393.266 13.2664 394.147 13.6312 394.796 14.2805C395.445 14.9298 395.809 15.8106 395.809 16.7288C395.809 17.6471 395.445 18.5278 394.796 19.1771C394.147 19.8265 393.266 20.1913 392.349 20.1913H392.453Z" fill="#183154"/>
<path d="M368.403 451.197H156.206C147.811 451.16 139.771 447.8 133.845 441.85C127.918 435.901 124.586 427.846 124.577 419.446V45.017C124.587 36.599 127.933 28.5285 133.882 22.5761C139.831 16.6236 147.896 13.2755 156.31 13.2664H335.908C336.827 13.2664 337.706 13.6312 338.355 14.2805C339.004 14.9298 339.369 15.8106 339.369 16.7288C339.369 17.6471 339.004 18.5278 338.355 19.1771C337.706 19.8265 336.827 20.1913 335.908 20.1913H156.206C149.647 20.2278 143.367 22.8584 138.739 27.5092C134.11 32.16 131.507 38.4535 131.498 45.017V419.446C131.507 426.027 134.125 432.337 138.776 436.991C143.426 441.644 149.732 444.263 156.31 444.272H368.506C369.424 444.272 370.304 444.637 370.953 445.286C371.602 445.935 371.967 446.816 371.967 447.734C371.967 448.652 371.602 449.533 370.953 450.183C370.304 450.832 369.424 451.197 368.506 451.197H368.403Z" fill="#183154"/>
<path d="M426.02 451.198H387.955C387.037 451.198 386.157 450.833 385.508 450.184C384.859 449.534 384.494 448.654 384.494 447.735C384.494 446.817 384.859 445.936 385.508 445.287C386.157 444.638 387.037 444.273 387.955 444.273H426.02C426.938 444.273 427.818 444.638 428.467 445.287C429.116 445.936 429.481 446.817 429.481 447.735C429.481 448.654 429.116 449.534 428.467 450.184C427.818 450.833 426.938 451.198 426.02 451.198Z" fill="#183154"/>
<path d="M443.461 451.198H440.624C439.706 451.198 438.826 450.833 438.177 450.184C437.528 449.534 437.163 448.654 437.163 447.735C437.163 446.817 437.528 445.936 438.177 445.287C438.826 444.638 439.706 444.273 440.624 444.273H443.461C444.379 444.273 445.259 444.638 445.908 445.287C446.557 445.936 446.921 446.817 446.921 447.735C446.921 448.654 446.557 449.534 445.908 450.184C445.259 450.833 444.379 451.198 443.461 451.198Z" fill="#183154"/>
<path d="M676.971 451.199H459.897C458.979 451.199 458.099 450.835 457.45 450.185C456.801 449.536 456.437 448.655 456.437 447.737C456.437 446.819 456.801 445.938 457.45 445.289C458.099 444.639 458.979 444.275 459.897 444.275H676.971C683.555 444.275 689.866 441.659 694.52 437.003C699.168 432.347 701.786 426.033 701.786 419.449V220.808C701.786 219.89 702.148 219.009 702.799 218.36C703.449 217.71 704.325 217.346 705.243 217.346C706.162 217.346 707.043 217.71 707.694 218.36C708.339 219.009 708.706 219.89 708.706 220.808V419.449C708.696 427.866 705.348 435.937 699.399 441.89C693.45 447.842 685.386 451.19 676.971 451.199Z" fill="#183154"/>
<path d="M705.244 205.642C704.326 205.642 703.45 205.277 702.8 204.627C702.149 203.978 701.787 203.098 701.787 202.179V196.708C701.787 195.79 702.149 194.909 702.8 194.26C703.45 193.61 704.326 193.246 705.244 193.246C706.163 193.246 707.044 193.61 707.695 194.26C708.34 194.909 708.707 195.79 708.707 196.708V202.179C708.707 203.098 708.34 203.978 707.695 204.627C707.044 205.277 706.163 205.642 705.244 205.642Z" fill="#183154"/>
<path d="M705.244 181.991C704.326 181.991 703.45 181.626 702.8 180.977C702.149 180.328 701.787 179.447 701.787 178.529V149.375C701.787 148.457 702.149 147.576 702.8 146.926C703.45 146.277 704.326 145.912 705.244 145.912C706.163 145.912 707.044 146.277 707.695 146.926C708.34 147.576 708.707 148.457 708.707 149.375V178.529C708.707 179.447 708.34 180.328 707.695 180.977C707.044 181.626 706.163 181.991 705.244 181.991Z" fill="#183154"/>
<path d="M705.243 125.831C704.325 125.831 703.449 125.466 702.798 124.816C702.148 124.167 701.786 123.287 701.786 122.368V45.017C701.786 38.4328 699.168 32.1183 694.52 27.4626C689.866 22.8069 683.555 20.1913 676.97 20.1913H431.521C430.603 20.1913 429.723 19.8265 429.074 19.1771C428.425 18.5278 428.061 17.6471 428.061 16.7288C428.061 15.8106 428.425 14.9298 429.074 14.2805C429.723 13.6312 430.603 13.2664 431.521 13.2664H676.97C685.386 13.2755 693.455 16.6236 699.399 22.5761C705.348 28.5285 708.695 36.599 708.706 45.017V122.368C708.706 123.287 708.339 124.167 707.693 124.816C707.043 125.466 706.161 125.831 705.243 125.831Z" fill="#183154"/>
<path d="M411.797 20.1913H407.61C406.692 20.1913 405.812 19.8265 405.163 19.1771C404.514 18.5278 404.149 17.6471 404.149 16.7288C404.149 15.8106 404.514 14.9298 405.163 14.2805C405.812 13.6312 406.692 13.2664 407.61 13.2664H411.797C412.715 13.2664 413.595 13.6312 414.244 14.2805C414.893 14.9298 415.258 15.8106 415.258 16.7288C415.258 17.6471 414.893 18.5278 414.244 19.1771C413.595 19.8265 412.715 20.1913 411.797 20.1913Z" fill="#183154"/>
<path d="M249.121 48.9635C253.172 48.9635 256.457 45.6771 256.457 41.6231C256.457 37.5691 253.172 34.2827 249.121 34.2827C245.069 34.2827 241.784 37.5691 241.784 41.6231C241.784 45.6771 245.069 48.9635 249.121 48.9635Z" fill="#8BBBC6"/>
<path d="M270.23 48.9635C274.281 48.9635 277.566 45.6771 277.566 41.6231C277.566 37.5691 274.281 34.2827 270.23 34.2827C266.178 34.2827 262.894 37.5691 262.894 41.6231C262.894 45.6771 266.178 48.9635 270.23 48.9635Z" fill="#8BBBC6"/>
<path d="M292.308 48.9635C296.36 48.9635 299.644 45.6771 299.644 41.6231C299.644 37.5691 296.36 34.2827 292.308 34.2827C288.256 34.2827 284.972 37.5691 284.972 41.6231C284.972 45.6771 288.256 48.9635 292.308 48.9635Z" fill="#8BBBC6"/>
<path d="M249.605 50.6615C247.813 50.6615 246.061 50.1303 244.571 49.1351C243.081 48.1398 241.919 46.725 241.231 45.0694C240.544 43.4138 240.363 41.5916 240.71 39.8328C241.057 38.0741 241.917 36.4576 243.182 35.1875C244.446 33.9175 246.058 33.0508 247.815 32.6969C249.571 32.3429 251.393 32.5176 253.05 33.1989C254.707 33.8802 256.126 35.0376 257.126 36.5249C258.126 38.0121 258.664 39.7626 258.671 41.5553C258.676 42.7495 258.444 43.9328 257.991 45.0375C257.537 46.1421 256.87 47.1462 256.028 47.9923C255.185 48.8383 254.184 49.5096 253.082 49.9677C251.98 50.4258 250.798 50.6615 249.605 50.6615ZM249.605 36.0154C248.493 36.0155 247.407 36.3463 246.483 36.9657C245.56 37.5852 244.841 38.4653 244.419 39.4943C243.997 40.5233 243.89 41.6546 244.112 42.7446C244.334 43.8345 244.875 44.8338 245.666 45.6154C246.456 46.397 247.462 46.9257 248.554 47.1343C249.646 47.3428 250.775 47.2218 251.798 46.7866C252.821 46.3514 253.692 45.6217 254.3 44.6902C254.907 43.7587 255.224 42.6675 255.211 41.5553C255.183 40.0825 254.582 38.6787 253.534 37.6436C252.487 36.6085 251.077 36.0242 249.605 36.0154Z" fill="#183154"/>
<path d="M270.714 50.6615C268.922 50.6615 267.17 50.1303 265.68 49.1351C264.19 48.1398 263.028 46.725 262.341 45.0694C261.654 43.4138 261.472 41.5916 261.819 39.8328C262.166 38.0741 263.026 36.4576 264.291 35.1875C265.555 33.9175 267.167 33.0508 268.924 32.6969C270.68 32.3429 272.502 32.5176 274.16 33.1989C275.816 33.8802 277.235 35.0376 278.236 36.5249C279.236 38.0121 279.773 39.7626 279.78 41.5553C279.785 42.7495 279.553 43.9328 279.1 45.0375C278.646 46.1421 277.98 47.1462 277.137 47.9923C276.294 48.8383 275.293 49.5096 274.191 49.9677C273.089 50.4258 271.907 50.6615 270.714 50.6615ZM270.714 36.0154C269.602 36.0155 268.516 36.3463 267.592 36.9657C266.669 37.5852 265.951 38.4653 265.528 39.4943C265.106 40.5233 264.999 41.6546 265.221 42.7446C265.443 43.8345 265.984 44.8338 266.775 45.6154C267.566 46.397 268.571 46.9257 269.663 47.1343C270.755 47.3428 271.884 47.2218 272.907 46.7866C273.93 46.3514 274.801 45.6217 275.409 44.6902C276.016 43.7587 276.333 42.6675 276.32 41.5553C276.293 40.0825 275.691 38.6787 274.644 37.6436C273.596 36.6085 272.186 36.0242 270.714 36.0154Z" fill="#183154"/>
<path d="M292.792 50.6615C291 50.6615 289.248 50.1303 287.758 49.1351C286.268 48.1398 285.106 46.725 284.419 45.0694C283.732 43.4138 283.55 41.5916 283.897 39.8328C284.244 38.0741 285.104 36.4576 286.369 35.1875C287.633 33.9175 289.245 33.0508 291.002 32.6969C292.758 32.3429 294.58 32.5176 296.238 33.1989C297.895 33.8802 299.313 35.0376 300.314 36.5249C301.314 38.0121 301.851 39.7626 301.858 41.5553C301.868 42.7508 301.639 43.9362 301.188 45.0429C300.735 46.1496 300.069 47.1556 299.226 48.0025C298.382 48.8495 297.379 49.5206 296.275 49.9771C295.171 50.4335 293.986 50.6661 292.792 50.6615ZM292.792 36.0154C291.68 36.0155 290.594 36.3463 289.67 36.9657C288.747 37.5852 288.029 38.4653 287.606 39.4943C287.184 40.5233 287.077 41.6546 287.299 42.7446C287.521 43.8345 288.062 44.8338 288.853 45.6154C289.644 46.397 290.649 46.9257 291.741 47.1343C292.833 47.3428 293.962 47.2218 294.985 46.7866C296.008 46.3514 296.879 45.6217 297.487 44.6902C298.094 43.7587 298.412 42.6675 298.398 41.5553C298.38 40.0797 297.781 38.6707 296.731 37.6337C295.682 36.5967 294.267 36.0153 292.792 36.0154Z" fill="#183154"/>
<path d="M626.348 143.317H416.606C414.771 143.317 413.01 142.588 411.712 141.289C410.415 139.991 409.686 138.229 409.686 136.393C409.686 134.556 410.415 132.795 411.712 131.496C413.01 130.197 414.771 129.468 416.606 129.468H626.348C628.184 129.468 629.942 130.197 631.237 131.496C632.539 132.795 633.268 134.556 633.268 136.393C633.268 138.229 632.539 139.991 631.237 141.289C629.942 142.588 628.184 143.317 626.348 143.317Z" fill="#8BBBC6"/>
<path d="M487.927 176.21H416.606C414.771 176.21 413.01 175.48 411.712 174.182C410.415 172.883 409.686 171.121 409.686 169.285C409.686 167.448 410.415 165.687 411.712 164.388C413.01 163.09 414.771 162.36 416.606 162.36H487.927C489.763 162.36 491.523 163.09 492.821 164.388C494.119 165.687 494.848 167.448 494.848 169.285C494.848 171.121 494.119 172.883 492.821 174.182C491.523 175.48 489.763 176.21 487.927 176.21Z" fill="#8BBBC6"/>
<path d="M487.927 251.067H416.606C414.771 251.067 413.01 250.337 411.712 249.039C410.415 247.74 409.686 245.979 409.686 244.142C409.686 242.306 410.415 240.544 411.712 239.246C413.01 237.947 414.771 237.218 416.606 237.218H487.927C489.763 237.218 491.523 237.947 492.821 239.246C494.119 240.544 494.848 242.306 494.848 244.142C494.848 245.979 494.119 247.74 492.821 249.039C491.523 250.337 489.763 251.067 487.927 251.067Z" fill="#389D9C"/>
<path d="M583.229 209.105H543.021C541.185 209.105 539.422 208.376 538.126 207.077C536.825 205.779 536.096 204.017 536.096 202.181C536.096 200.344 536.825 198.583 538.126 197.284C539.422 195.985 541.185 195.255 543.021 195.255H583.229C585.066 195.255 586.829 195.985 588.124 197.284C589.42 198.583 590.149 200.344 590.149 202.181C590.149 204.017 589.42 205.779 588.124 207.077C586.829 208.376 585.066 209.105 583.229 209.105Z" fill="#8BBBC6"/>
<path opacity="0.8" d="M646.453 209.105H606.239C604.408 209.105 602.646 208.376 601.35 207.077C600.049 205.779 599.319 204.017 599.319 202.181C599.319 200.344 600.049 198.583 601.35 197.284C602.646 195.985 604.408 195.255 606.239 195.255H646.453C648.289 195.255 650.047 195.985 651.348 197.284C652.644 198.583 653.373 200.344 653.373 202.181C653.373 204.017 652.644 205.779 651.348 207.077C650.047 208.376 648.289 209.105 646.453 209.105Z" fill="#8BBBC6"/>
<path d="M456.783 209.105H416.606C414.771 209.105 413.01 208.376 411.712 207.077C410.415 205.779 409.686 204.017 409.686 202.181C409.686 200.344 410.415 198.583 411.712 197.284C413.01 195.985 414.771 195.255 416.606 195.255H456.783C458.618 195.255 460.378 195.985 461.676 197.284C462.974 198.583 463.704 200.344 463.704 202.181C463.704 204.017 462.974 205.779 461.676 207.077C460.378 208.376 458.618 209.105 456.783 209.105Z" fill="#8BBBC6"/>
<path opacity="0.3" d="M520.006 209.105H479.83C477.995 209.105 476.234 208.376 474.936 207.077C473.638 205.779 472.909 204.017 472.909 202.181C472.909 200.344 473.638 198.583 474.936 197.284C476.234 195.985 477.995 195.255 479.83 195.255H520.006C521.841 195.255 523.602 195.985 524.898 197.284C526.2 198.583 526.929 200.344 526.929 202.181C526.929 204.017 526.2 205.779 524.898 207.077C523.602 208.376 521.841 209.105 520.006 209.105Z" fill="#8BBBC6"/>
<path d="M626.348 287.735H416.606C414.771 287.735 413.01 287.005 411.712 285.707C410.415 284.408 409.686 282.647 409.686 280.81C409.686 278.974 410.415 277.212 411.712 275.913C413.01 274.615 414.771 273.885 416.606 273.885H626.348C628.184 273.885 629.942 274.615 631.237 275.913C632.539 277.212 633.268 278.974 633.268 280.81C633.268 282.647 632.539 284.408 631.237 285.707C629.942 287.005 628.184 287.735 626.348 287.735Z" fill="#8BBBC6"/>
<path d="M487.927 320.63H416.606C414.771 320.63 413.01 319.901 411.712 318.602C410.415 317.304 409.686 315.542 409.686 313.706C409.686 311.869 410.415 310.108 411.712 308.809C413.01 307.51 414.771 306.78 416.606 306.78H487.927C489.763 306.78 491.523 307.51 492.821 308.809C494.119 310.108 494.848 311.869 494.848 313.706C494.848 315.542 494.119 317.304 492.821 318.602C491.523 319.901 489.763 320.63 487.927 320.63Z" fill="#8BBBC6"/>
<path d="M487.927 395.488H416.606C414.771 395.488 413.01 394.758 411.712 393.46C410.415 392.161 409.686 390.399 409.686 388.563C409.686 386.726 410.415 384.965 411.712 383.666C413.01 382.368 414.771 381.638 416.606 381.638H487.927C489.763 381.638 491.523 382.368 492.821 383.666C494.119 384.965 494.848 386.726 494.848 388.563C494.848 390.399 494.119 392.161 492.821 393.46C491.523 394.758 489.763 395.488 487.927 395.488Z" fill="#389D9C"/>
<path d="M583.229 353.522H543.021C541.185 353.522 539.422 352.793 538.126 351.494C536.825 350.195 536.096 348.434 536.096 346.597C536.096 344.761 536.825 342.999 538.126 341.701C539.422 340.402 541.185 339.673 543.021 339.673H583.229C585.066 339.673 586.829 340.402 588.124 341.701C589.42 342.999 590.149 344.761 590.149 346.597C590.149 348.434 589.42 350.195 588.124 351.494C586.829 352.793 585.066 353.522 583.229 353.522Z" fill="#8BBBC6"/>
<path opacity="0.8" d="M646.453 353.522H606.239C604.408 353.522 602.646 352.793 601.35 351.494C600.049 350.195 599.319 348.434 599.319 346.597C599.319 344.761 600.049 342.999 601.35 341.701C602.646 340.402 604.408 339.673 606.239 339.673H646.453C648.289 339.673 650.047 340.402 651.348 341.701C652.644 342.999 653.373 344.761 653.373 346.597C653.373 348.434 652.644 350.195 651.348 351.494C650.047 352.793 648.289 353.522 646.453 353.522Z" fill="#8BBBC6"/>
<path d="M456.783 353.522H416.606C414.771 353.522 413.01 352.793 411.712 351.494C410.415 350.195 409.686 348.434 409.686 346.597C409.686 344.761 410.415 342.999 411.712 341.701C413.01 340.402 414.771 339.673 416.606 339.673H456.783C458.618 339.673 460.378 340.402 461.676 341.701C462.974 342.999 463.704 344.761 463.704 346.597C463.704 348.434 462.974 350.195 461.676 351.494C460.378 352.793 458.618 353.522 456.783 353.522Z" fill="#8BBBC6"/>
<path opacity="0.3" d="M520.006 353.522H479.83C477.995 353.522 476.234 352.793 474.936 351.494C473.638 350.195 472.909 348.434 472.909 346.597C472.909 344.761 473.638 342.999 474.936 341.701C476.234 340.402 477.995 339.673 479.83 339.673H520.006C521.841 339.673 523.602 340.402 524.898 341.701C526.2 342.999 526.929 344.761 526.929 346.597C526.929 348.434 526.2 350.195 524.898 351.494C523.602 352.793 521.841 353.522 520.006 353.522Z" fill="#8BBBC6"/>
<path d="M256.734 123.477C256.734 139.326 253.614 155.02 247.551 169.662C241.488 184.305 232.602 197.608 221.399 208.813C210.197 220.019 196.899 228.906 182.263 234.968C167.627 241.03 151.942 244.148 136.102 244.144C134.337 244.144 132.641 244.144 130.807 244.144H129.769C105.372 242.92 81.9341 234.257 62.601 219.318L61.632 218.59C59.833 217.171 58.172 215.682 56.3725 214.193C33.6721 194.312 19.2407 166.643 15.924 136.64C12.6072 106.638 20.646 76.4819 38.4549 52.1174C56.2639 27.7531 82.5505 10.9496 112.13 5.02076C141.711 -0.908156 172.438 4.46782 198.252 20.0885C201.367 21.9582 204.377 23.9665 207.284 26.0786L207.734 26.3902C218.856 34.6138 228.498 44.6716 236.248 56.1326C244.544 68.3998 250.492 82.1008 253.792 96.5395C254.139 98.0284 254.45 99.552 254.727 101.075C256.091 108.464 256.763 115.964 256.734 123.477Z" fill="#6F95C9"/>
<path d="M257.942 125.207C257.924 157.207 245.207 187.889 222.586 210.51C199.965 233.131 169.292 245.839 137.311 245.838C136.307 245.838 135.269 245.838 134.265 245.838C133.919 245.838 133.573 245.838 133.227 245.838C109.004 245.072 85.5835 236.971 66.059 222.605L65.0899 221.878C63.4636 220.666 61.8372 219.42 60.28 218.104C50.3822 209.867 41.8554 200.108 35.0186 189.193C35.6414 189.608 36.2989 189.989 36.9564 190.37C40.6609 192.639 44.4973 194.686 48.4452 196.498C64.2322 203.782 81.4105 207.551 98.795 207.543C110.405 207.552 121.955 205.885 133.089 202.592L134.126 202.281C155.974 195.606 175.48 182.864 190.377 165.537C205.275 148.21 214.952 127.009 218.286 104.397C218.528 102.874 218.701 101.385 218.874 99.8613C219.332 95.5372 219.563 91.1916 219.566 86.8429C219.569 79.2912 218.862 71.7557 217.455 64.3368C215.915 56.1204 213.515 48.0893 210.292 40.3766C208.735 36.6156 206.979 32.9402 205.032 29.366C203.925 27.3232 202.783 25.315 201.571 23.376L201.225 22.822C204.464 24.8366 207.595 27.021 210.603 29.366L211.018 29.6777C221.061 37.4884 229.808 46.8367 236.937 57.3774C245.764 70.2605 251.972 84.7548 255.209 100.034C255.555 101.523 255.866 103.047 256.109 104.57C257.308 111.384 257.921 118.288 257.942 125.207Z" fill="#1F3461"/>
<path d="M136.134 165.823C133.483 165.826 130.918 164.88 128.902 163.157L100.733 138.92C99.5467 138.088 98.5473 137.016 97.7991 135.774C97.051 134.532 96.5715 133.147 96.3905 131.708C96.21 130.269 96.3322 128.809 96.7498 127.42C97.1675 126.032 97.871 124.746 98.8148 123.646C99.7592 122.546 100.923 121.655 102.232 121.033C103.54 120.41 104.965 120.068 106.414 120.029C107.863 119.991 109.303 120.256 110.643 120.808C111.984 121.36 113.193 122.187 114.195 123.235L134.162 140.374L162.642 98.5474C163.407 97.4111 164.389 96.4363 165.531 95.6792C166.674 94.9222 167.954 94.3975 169.298 94.1357C170.643 93.8734 172.026 93.8792 173.369 94.152C174.712 94.4248 175.987 94.9594 177.124 95.7259C178.26 96.4919 179.234 97.4746 179.99 98.6172C180.747 99.7599 181.271 101.041 181.533 102.386C181.795 103.732 181.789 105.116 181.517 106.46C181.244 107.803 180.71 109.079 179.944 110.216L145.339 160.976C144.453 162.27 143.305 163.364 141.97 164.187C140.635 165.01 139.142 165.544 137.588 165.753C137.105 165.811 136.62 165.834 136.134 165.823Z" fill="white"/>
<g opacity="0.15">
<path opacity="0.15" d="M89.8007 77.496C101.956 77.496 111.809 67.6369 111.809 55.4752C111.809 43.3131 101.956 33.4539 89.8007 33.4539C77.6453 33.4539 67.792 43.3131 67.792 55.4752C67.792 67.6369 77.6453 77.496 89.8007 77.496Z" fill="white"/>
<path opacity="0.15" d="M64.435 98.9957C70.5125 98.9957 75.4394 94.0661 75.4394 87.985C75.4394 81.9039 70.5125 76.9744 64.435 76.9744C58.3576 76.9744 53.4307 81.9039 53.4307 87.985C53.4307 94.0661 58.3576 98.9957 64.435 98.9957Z" fill="white"/>
</g>
<path d="M16.6785 144.773C15.8388 144.781 15.0247 144.484 14.3881 143.935C13.7514 143.388 13.3355 142.627 13.218 141.795C12.4163 135.955 12.0116 130.067 12.0068 124.171C12.0068 123.253 12.3714 122.372 13.0204 121.723C13.6694 121.074 14.5495 120.708 15.4673 120.708C16.3851 120.708 17.2653 121.074 17.9142 121.723C18.5632 122.372 18.9278 123.253 18.9278 124.171C18.9268 129.742 19.3084 135.307 20.0697 140.825C20.2019 141.709 19.9876 142.61 19.4717 143.339C18.9558 144.068 18.1781 144.569 17.3014 144.738L16.6785 144.773Z" fill="#183154"/>
<path d="M23.151 170.116C22.4498 170.111 21.7667 169.893 21.192 169.491C20.6173 169.089 20.1781 168.522 19.9328 167.865C18.3764 163.713 17.0365 159.483 15.9186 155.192C15.8042 154.751 15.7779 154.292 15.8413 153.841C15.9047 153.389 16.0565 152.955 16.2879 152.563C16.5194 152.17 16.826 151.828 17.1902 151.554C17.5544 151.28 17.9689 151.081 18.4102 150.968C18.851 150.854 19.31 150.828 19.761 150.891C20.212 150.954 20.6461 151.106 21.0383 151.338C21.4305 151.569 21.7732 151.876 22.0467 152.24C22.3201 152.605 22.519 153.02 22.6319 153.461C23.6846 157.516 24.9436 161.515 26.4038 165.441C26.7191 166.296 26.6852 167.24 26.3095 168.069C25.9338 168.899 25.2466 169.547 24.3968 169.873C24.002 170.037 23.5783 170.119 23.151 170.116Z" fill="#183154"/>
<path d="M54.9525 116.619C56.3291 116.619 57.6496 116.071 58.6229 115.097C59.5961 114.123 60.1433 112.802 60.1433 111.425C60.1433 110.047 59.5961 108.726 58.6229 107.752C57.6496 106.778 56.3291 106.231 54.9525 106.231C53.5758 106.231 52.2555 106.778 51.2821 107.752C50.3086 108.726 49.7617 110.047 49.7617 111.425C49.7617 112.802 50.3086 114.123 51.2821 115.097C52.2555 116.071 53.5758 116.619 54.9525 116.619Z" fill="#FDFEFF"/>
<path d="M64.9516 153.948C61.9066 146.503 60.1061 138.607 59.6223 130.577C59.2766 125.591 51.4903 125.556 51.8364 130.577C52.4482 139.974 54.6115 149.205 58.2383 157.895C60.1764 162.501 66.8897 158.519 64.9516 153.948Z" fill="#FDFEFF"/>
<path d="M705.242 66.0693H242.44C241.522 66.0693 240.642 65.7046 239.993 65.0551C239.344 64.4056 238.979 63.5253 238.979 62.6066C238.979 61.6885 239.344 60.8076 239.993 60.1587C240.642 59.5092 241.522 59.1445 242.44 59.1445H705.242C706.161 59.1445 707.042 59.5092 707.693 60.1587C708.338 60.8076 708.705 61.6885 708.705 62.6066C708.705 63.5253 708.338 64.4056 707.693 65.0551C707.042 65.7046 706.161 66.0693 705.242 66.0693Z" fill="#183154"/>
<path d="M351.445 397.251H255.763H161.984L239.015 263.705L285.87 344.934L303.587 314.257L351.445 397.251ZM267.598 390.327H339.472L303.587 328.002L285.87 358.68L239.015 277.554L173.958 390.257H267.633L267.598 390.327Z" fill="#183154"/>
<path d="M136.102 248.299C134.267 248.299 132.399 248.299 130.599 248.299H129.423C104.374 247.037 80.3144 238.118 60.4898 222.746L59.6247 222.123C57.6179 220.565 55.853 219.042 54.0881 217.518C44.9113 209.428 36.9817 200.024 30.5569 189.611C28.3673 186.05 26.369 182.374 24.5703 178.6C24.3296 178.19 24.1762 177.734 24.1196 177.261C24.0629 176.788 24.1044 176.309 24.2412 175.853C24.3781 175.397 24.6075 174.974 24.9151 174.611C25.2226 174.248 25.6017 173.952 26.0287 173.742C26.4557 173.532 26.9215 173.412 27.3967 173.39C27.872 173.368 28.3467 173.445 28.7912 173.615C29.2356 173.785 29.6402 174.045 29.9798 174.378C30.3193 174.712 30.5864 175.112 30.7645 175.553C32.4948 179.016 34.225 182.478 36.4397 185.767C42.5482 195.618 50.0948 204.5 58.8288 212.117C60.4898 213.536 62.2893 214.991 63.9157 216.41L64.8847 217.103C83.6391 231.667 106.406 240.126 130.115 241.34H130.98C132.849 241.34 134.441 241.34 136.275 241.34C167.3 241.267 197.032 228.895 218.961 206.935C240.89 184.974 253.228 155.214 253.273 124.17C253.277 116.827 252.581 109.5 251.197 102.288C250.92 100.799 250.643 99.3103 250.297 97.8906C247.136 83.9535 241.422 70.7231 233.445 58.8688L233.237 58.5572C225.773 47.488 216.482 37.7699 205.761 29.8189L205.242 29.4727C202.196 27.1644 199.221 25.1908 196.314 23.5519C179.933 13.7357 161.403 8.0736 142.336 7.05826C123.27 6.04292 104.244 9.70518 86.9149 17.7263C69.5855 25.7473 54.4774 37.8842 42.9062 53.081C31.3348 68.2772 23.6503 86.0731 20.5215 104.919C20.2356 105.655 19.7074 106.27 19.0243 106.664C18.3412 107.058 17.5441 107.207 16.765 107.085C15.9859 106.964 15.2715 106.581 14.7401 105.998C14.2087 105.415 13.8921 104.668 13.8428 103.88C17.1706 83.9441 25.3099 65.121 37.5546 49.0445C49.7992 32.9679 65.7792 20.1236 84.1086 11.6258C102.438 3.12801 122.563 -0.766582 142.737 0.279917C162.911 1.32642 182.526 7.28239 199.878 17.6311C202.958 19.5009 206.107 21.5783 209.152 23.7943L209.636 24.1405C220.991 32.5053 230.843 42.7379 238.774 54.4026L239.016 54.7483C247.575 67.3497 253.702 81.4421 257.08 96.2978C257.426 97.8214 257.772 99.3795 258.049 100.972C259.487 108.61 260.217 116.364 260.229 124.136C260.192 157.061 247.102 188.626 223.83 211.905C200.559 235.182 169.008 248.272 136.102 248.299Z" fill="#183154"/>
<g opacity="0.4">
<path opacity="0.4" d="M120.807 84.6284C132.961 84.6284 142.815 74.7693 142.815 62.6071C142.815 50.4453 132.961 40.5862 120.807 40.5862C108.652 40.5862 98.7979 50.4453 98.7979 62.6071C98.7979 74.7693 108.652 84.6284 120.807 84.6284Z" fill="white"/>
<path opacity="0.4" d="M95.4409 106.127C101.519 106.127 106.445 101.198 106.445 95.1173C106.445 89.0362 101.519 84.1067 95.4409 84.1067C89.3634 84.1067 84.4365 89.0362 84.4365 95.1173C84.4365 101.198 89.3634 106.127 95.4409 106.127Z" fill="white"/>
</g>
<path d="M280.781 280.81C292.822 280.81 302.582 271.044 302.582 258.997C302.582 246.949 292.822 237.183 280.781 237.183C268.741 237.183 258.98 246.949 258.98 258.997C258.98 271.044 268.741 280.81 280.781 280.81Z" fill="#E8DE98"/>
<path d="M281.994 284.273C276.997 284.273 272.114 282.791 267.959 280.014C263.805 277.236 260.567 273.289 258.655 268.671C256.743 264.052 256.243 258.97 257.218 254.067C258.193 249.164 260.599 244.66 264.131 241.125C267.664 237.59 272.165 235.183 277.066 234.207C281.966 233.232 287.045 233.733 291.661 235.646C296.277 237.559 300.222 240.798 302.998 244.955C305.774 249.112 307.256 253.998 307.256 258.998C307.246 265.698 304.582 272.122 299.847 276.86C295.111 281.599 288.691 284.264 281.994 284.273ZM281.994 240.681C278.365 240.681 274.818 241.759 271.801 243.776C268.784 245.795 266.433 248.663 265.046 252.018C263.659 255.373 263.298 259.064 264.008 262.625C264.719 266.186 266.469 269.456 269.038 272.021C271.606 274.586 274.877 276.331 278.437 277.035C281.997 277.739 285.686 277.371 289.036 275.977C292.387 274.582 295.249 272.225 297.261 269.203C299.272 266.18 300.341 262.629 300.335 258.998C300.325 254.137 298.389 249.478 294.951 246.044C291.512 242.61 286.852 240.681 281.994 240.681Z" fill="#183154"/>
</g>
</svg>
