<svg width="722" height="469" viewBox="0 0 722 469" fill="none" xmlns="http://www.w3.org/2000/svg">
<path d="M162.019 59.6523H95.4548L94.567 68.8052H162.019V59.6523Z" stroke="#263238" stroke-miterlimit="10"/>
<path d="M162.019 68.8057H95.4548L94.567 77.9585H162.019V68.8057Z" stroke="#263238" stroke-miterlimit="10"/>
<path d="M162.019 77.958H95.4548L94.567 87.1108H162.019V77.958Z" stroke="#263238" stroke-miterlimit="10"/>
<path d="M162.019 87.1113H95.4548L94.567 96.2642H162.019V87.1113Z" stroke="#263238" stroke-miterlimit="10"/>
<path d="M162.019 96.2637H95.4548L94.567 105.406H162.019V96.2637Z" stroke="#263238" stroke-miterlimit="10"/>
<path d="M162.019 105.406H95.4548L94.567 114.559H162.019V105.406Z" stroke="#263238" stroke-miterlimit="10"/>
<path d="M162.019 114.559H95.4548L94.567 123.711H162.019V114.559Z" stroke="#263238" stroke-miterlimit="10"/>
<path d="M162.019 123.712H95.4548L94.567 132.865H162.019V123.712Z" stroke="#263238" stroke-miterlimit="10"/>
<path d="M162.019 132.864H95.4548L94.567 142.017H162.019V132.864Z" stroke="#263238" stroke-miterlimit="10"/>
<path d="M162.019 142.018H95.4548L94.567 151.17H162.019V142.018Z" stroke="#263238" stroke-miterlimit="10"/>
<path d="M162.019 151.17H95.4548L94.567 160.323H162.019V151.17Z" stroke="#263238" stroke-miterlimit="10"/>
<path d="M162.019 160.323H95.4548L94.567 169.476H162.019V160.323Z" stroke="#263238" stroke-miterlimit="10"/>
<path d="M162.019 169.476H95.4548L94.567 178.628H162.019V169.476Z" stroke="#263238" stroke-miterlimit="10"/>
<path d="M162.019 178.629H95.4548L94.567 187.782H162.019V178.629Z" stroke="#263238" stroke-miterlimit="10"/>
<path d="M162.019 187.781H95.4548L94.567 196.934H162.019V187.781Z" stroke="#263238" stroke-miterlimit="10"/>
<path d="M162.019 196.913H95.4548L94.567 206.066H162.019V196.913Z" stroke="#263238" stroke-miterlimit="10"/>
<path d="M162.019 206.056H95.4548L94.567 215.208H162.019V206.056Z" stroke="#263238" stroke-miterlimit="10"/>
<path d="M162.019 215.188H95.4548L94.567 224.34H162.019V215.188Z" stroke="#263238" stroke-miterlimit="10"/>
<path d="M162.019 224.329H95.4548L94.567 233.482H162.019V224.329Z" stroke="#263238" stroke-miterlimit="10"/>
<path d="M162.019 233.461H95.4548L94.567 242.614H162.019V233.461Z" stroke="#263238" stroke-miterlimit="10"/>
<path d="M162.019 242.604H95.4548L94.567 251.746H162.019V242.604Z" stroke="#263238" stroke-miterlimit="10"/>
<path d="M230.454 59.6523H163.879L163.002 68.8052H230.454V59.6523Z" stroke="#263238" stroke-miterlimit="10"/>
<path d="M230.454 68.8057H163.879L163.002 77.9585H230.454V68.8057Z" stroke="#263238" stroke-miterlimit="10"/>
<path d="M230.454 77.958H163.879L163.002 87.1108H230.454V77.958Z" stroke="#263238" stroke-miterlimit="10"/>
<path d="M230.454 87.1113H163.879L163.002 96.2642H230.454V87.1113Z" stroke="#263238" stroke-miterlimit="10"/>
<path d="M230.454 96.2637H163.879L163.002 105.406H230.454V96.2637Z" stroke="#263238" stroke-miterlimit="10"/>
<path d="M230.454 105.406H163.879L163.002 114.559H230.454V105.406Z" stroke="#263238" stroke-miterlimit="10"/>
<path d="M230.454 114.559H163.879L163.002 123.711H230.454V114.559Z" stroke="#263238" stroke-miterlimit="10"/>
<path d="M230.454 123.712H163.879L163.002 132.865H230.454V123.712Z" stroke="#263238" stroke-miterlimit="10"/>
<path d="M230.454 132.864H163.879L163.002 142.017H230.454V132.864Z" stroke="#263238" stroke-miterlimit="10"/>
<path d="M230.454 142.018H163.879L163.002 151.17H230.454V142.018Z" stroke="#263238" stroke-miterlimit="10"/>
<path d="M230.454 151.17H163.879L163.002 160.323H230.454V151.17Z" stroke="#263238" stroke-miterlimit="10"/>
<path d="M230.454 160.323H163.879L163.002 169.476H230.454V160.323Z" stroke="#263238" stroke-miterlimit="10"/>
<path d="M230.454 169.476H163.879L163.002 178.628H230.454V169.476Z" stroke="#263238" stroke-miterlimit="10"/>
<path d="M230.454 178.629H163.879L163.002 187.782H230.454V178.629Z" stroke="#263238" stroke-miterlimit="10"/>
<path d="M230.454 187.781H163.879L163.002 196.934H230.454V187.781Z" stroke="#263238" stroke-miterlimit="10"/>
<path d="M230.454 196.913H163.879L163.002 206.066H230.454V196.913Z" stroke="#263238" stroke-miterlimit="10"/>
<path d="M230.454 206.056H163.879L163.002 215.208H230.454V206.056Z" stroke="#263238" stroke-miterlimit="10"/>
<path d="M230.454 215.188H163.879L163.002 224.34H230.454V215.188Z" stroke="#263238" stroke-miterlimit="10"/>
<path d="M230.454 224.329H163.879L163.002 233.482H230.454V224.329Z" stroke="#263238" stroke-miterlimit="10"/>
<path d="M230.454 233.461H163.879L163.002 242.614H230.454V233.461Z" stroke="#263238" stroke-miterlimit="10"/>
<path d="M230.454 242.604H163.879L163.002 251.746H230.454V242.604Z" stroke="#263238" stroke-miterlimit="10"/>
<path d="M233.783 52.5605H93.0134V59.4622H233.783V52.5605Z" stroke="#263238" stroke-miterlimit="10"/>
<path d="M233.783 59.4727V181.06" stroke="#263238" stroke-miterlimit="10"/>
<path d="M232.251 59.6631V143.085" stroke="#263238" stroke-miterlimit="10"/>
<path d="M234.787 180.796H232.896V183.893H234.787V180.796Z" fill="#263238" stroke="#263238" stroke-miterlimit="10"/>
<path d="M233.075 142.43H231.183V145.526H233.075V142.43Z" fill="#263238" stroke="#263238" stroke-miterlimit="10"/>
<path d="M569.151 59.6523H502.577L501.699 68.8052H569.151V59.6523Z" stroke="#263238" stroke-miterlimit="10"/>
<path d="M569.151 68.8057H502.577L501.699 77.9585H569.151V68.8057Z" stroke="#263238" stroke-miterlimit="10"/>
<path d="M569.151 77.958H502.577L501.699 87.1108H569.151V77.958Z" stroke="#263238" stroke-miterlimit="10"/>
<path d="M569.151 87.1113H502.577L501.699 96.2642H569.151V87.1113Z" stroke="#263238" stroke-miterlimit="10"/>
<path d="M569.151 96.2637H502.577L501.699 105.406H569.151V96.2637Z" stroke="#263238" stroke-miterlimit="10"/>
<path d="M569.151 105.406H502.577L501.699 114.559H569.151V105.406Z" stroke="#263238" stroke-miterlimit="10"/>
<path d="M569.151 114.559H502.577L501.699 123.711H569.151V114.559Z" stroke="#263238" stroke-miterlimit="10"/>
<path d="M569.151 123.712H502.577L501.699 132.865H569.151V123.712Z" stroke="#263238" stroke-miterlimit="10"/>
<path d="M569.151 132.864H502.577L501.699 142.017H569.151V132.864Z" stroke="#263238" stroke-miterlimit="10"/>
<path d="M569.151 142.018H502.577L501.699 151.17H569.151V142.018Z" stroke="#263238" stroke-miterlimit="10"/>
<path d="M569.151 151.17H502.577L501.699 160.323H569.151V151.17Z" stroke="#263238" stroke-miterlimit="10"/>
<path d="M569.151 160.323H502.577L501.699 169.476H569.151V160.323Z" stroke="#263238" stroke-miterlimit="10"/>
<path d="M569.151 169.476H502.577L501.699 178.628H569.151V169.476Z" stroke="#263238" stroke-miterlimit="10"/>
<path d="M569.151 178.629H502.577L501.699 187.782H569.151V178.629Z" stroke="#263238" stroke-miterlimit="10"/>
<path d="M569.151 187.781H502.577L501.699 196.934H569.151V187.781Z" stroke="#263238" stroke-miterlimit="10"/>
<path d="M569.151 196.913H502.577L501.699 206.066H569.151V196.913Z" stroke="#263238" stroke-miterlimit="10"/>
<path d="M569.151 206.056H502.577L501.699 215.208H569.151V206.056Z" stroke="#263238" stroke-miterlimit="10"/>
<path d="M569.151 215.188H502.577L501.699 224.34H569.151V215.188Z" stroke="#263238" stroke-miterlimit="10"/>
<path d="M569.151 224.329H502.577L501.699 233.482H569.151V224.329Z" stroke="#263238" stroke-miterlimit="10"/>
<path d="M569.151 233.461H502.577L501.699 242.614H569.151V233.461Z" stroke="#263238" stroke-miterlimit="10"/>
<path d="M569.151 242.604H502.577L501.699 251.746H569.151V242.604Z" stroke="#263238" stroke-miterlimit="10"/>
<path d="M637.586 59.6523H571.012L570.134 68.8052H637.586V59.6523Z" stroke="#263238" stroke-miterlimit="10"/>
<path d="M637.586 68.8057H571.012L570.134 77.9585H637.586V68.8057Z" stroke="#263238" stroke-miterlimit="10"/>
<path d="M637.586 77.958H571.012L570.134 87.1108H637.586V77.958Z" stroke="#263238" stroke-miterlimit="10"/>
<path d="M637.586 87.1113H571.012L570.134 96.2642H637.586V87.1113Z" stroke="#263238" stroke-miterlimit="10"/>
<path d="M637.586 96.2637H571.012L570.134 105.406H637.586V96.2637Z" stroke="#263238" stroke-miterlimit="10"/>
<path d="M637.586 105.406H571.012L570.134 114.559H637.586V105.406Z" stroke="#263238" stroke-miterlimit="10"/>
<path d="M637.586 114.559H571.012L570.134 123.711H637.586V114.559Z" stroke="#263238" stroke-miterlimit="10"/>
<path d="M637.586 123.712H571.012L570.134 132.865H637.586V123.712Z" stroke="#263238" stroke-miterlimit="10"/>
<path d="M637.586 132.864H571.012L570.134 142.017H637.586V132.864Z" stroke="#263238" stroke-miterlimit="10"/>
<path d="M637.586 142.018H571.012L570.134 151.17H637.586V142.018Z" stroke="#263238" stroke-miterlimit="10"/>
<path d="M637.586 151.17H571.012L570.134 160.323H637.586V151.17Z" stroke="#263238" stroke-miterlimit="10"/>
<path d="M637.586 160.323H571.012L570.134 169.476H637.586V160.323Z" stroke="#263238" stroke-miterlimit="10"/>
<path d="M637.586 169.476H571.012L570.134 178.628H637.586V169.476Z" stroke="#263238" stroke-miterlimit="10"/>
<path d="M637.586 178.629H571.012L570.134 187.782H637.586V178.629Z" stroke="#263238" stroke-miterlimit="10"/>
<path d="M637.586 187.781H571.012L570.134 196.934H637.586V187.781Z" stroke="#263238" stroke-miterlimit="10"/>
<path d="M637.586 196.913H571.012L570.134 206.066H637.586V196.913Z" stroke="#263238" stroke-miterlimit="10"/>
<path d="M637.586 206.056H571.012L570.134 215.208H637.586V206.056Z" stroke="#263238" stroke-miterlimit="10"/>
<path d="M637.586 215.188H571.012L570.134 224.34H637.586V215.188Z" stroke="#263238" stroke-miterlimit="10"/>
<path d="M637.586 224.329H571.012L570.134 233.482H637.586V224.329Z" stroke="#263238" stroke-miterlimit="10"/>
<path d="M637.586 233.461H571.012L570.134 242.614H637.586V233.461Z" stroke="#263238" stroke-miterlimit="10"/>
<path d="M637.586 242.604H571.012L570.134 251.746H637.586V242.604Z" stroke="#263238" stroke-miterlimit="10"/>
<path d="M640.916 52.5605H500.146V59.4622H640.916V52.5605Z" stroke="#263238" stroke-miterlimit="10"/>
<path d="M640.916 59.4727V181.06" stroke="#263238" stroke-miterlimit="10"/>
<path d="M639.383 59.6631V143.085" stroke="#263238" stroke-miterlimit="10"/>
<path d="M641.909 180.796H640.017V183.893H641.909V180.796Z" fill="#263238" stroke="#263238" stroke-miterlimit="10"/>
<path d="M640.208 142.43H638.316V145.526H640.208V142.43Z" fill="#263238" stroke="#263238" stroke-miterlimit="10"/>
<path d="M28.172 352.691C27.9594 351.734 27.6551 350.799 27.2631 349.901C26.8532 348.877 26.3839 347.878 25.8574 346.909C24.9483 345.248 23.9093 343.661 22.7501 342.164C22.7123 342.11 22.6563 342.071 22.5925 342.055C22.5287 342.039 22.4611 342.047 22.4023 342.076C22.3434 342.105 22.297 342.155 22.2716 342.216C22.2462 342.277 22.2435 342.344 22.2639 342.407C22.4224 343.041 22.6233 343.887 22.8663 344.838C23.1094 345.789 23.2891 346.878 23.5005 348.009C23.9655 350.122 24.272 352.448 24.6631 354.075C24.9062 355.079 25.1493 356.031 25.3606 356.897C25.55 357.653 25.7829 358.398 26.0582 359.127L23.9444 357.235C23.2574 356.601 22.4859 356.062 21.7566 355.46C22.1418 354.487 22.2515 353.426 22.0737 352.395C21.86 350.622 21.4048 348.887 20.7208 347.237C20.3146 346.328 19.8522 345.446 19.3363 344.595C18.7316 343.654 18.0753 342.747 17.3704 341.879C16.1518 340.363 14.7929 338.965 13.3119 337.704C13.2648 337.658 13.2029 337.631 13.1373 337.627C13.0718 337.622 13.007 337.642 12.9546 337.682C12.9022 337.721 12.8657 337.778 12.8518 337.842C12.8378 337.907 12.8473 337.974 12.8785 338.031C13.1745 338.644 13.5655 339.427 13.9354 340.335C14.3054 341.244 14.7493 342.259 15.1932 343.305C15.9753 345.356 16.8102 347.533 17.4233 349.118C17.8249 350.091 18.2159 350.989 18.5964 351.782C18.9769 352.574 19.294 353.325 19.6533 353.896L17.92 352.712L16.1444 351.655C16.0465 351.293 15.8696 350.957 15.6265 350.672C15.2584 350.257 14.8514 349.878 14.4111 349.541C13.1702 348.597 11.7856 347.858 10.3102 347.353C8.56319 346.781 6.73735 346.485 4.89887 346.476C3.3112 346.443 1.72526 346.599 0.17448 346.941C-0.0686092 347.005 -0.047471 347.427 0.17448 347.491C1.61364 347.927 3.02538 348.45 4.40212 349.055C6.02976 349.721 7.68911 350.545 9.03139 351.01C11.8111 352.067 14.3159 352.68 15.5208 352.479L17.2753 353.536C17.8566 353.896 18.4167 354.297 18.9769 354.678C18.2438 354.594 17.5054 354.565 16.768 354.593C15.8878 354.66 15.0125 354.78 14.1468 354.953C13.2877 355.133 12.4486 355.399 11.642 355.745C10.7455 356.1 9.8765 356.52 9.04195 357.003C8.207 357.489 7.42488 357.986 6.7696 358.451C6.11431 358.916 5.54358 359.402 5.14196 359.751C4.95171 359.909 4.95171 360.29 5.14196 360.237C5.94521 359.994 7.31919 359.687 8.91512 359.381L11.3777 358.948C12.2021 358.831 13.0159 358.694 13.7452 358.525C15.4257 358.155 17.0216 357.838 18.3639 357.468C19.3445 357.248 20.2715 356.835 21.0907 356.253C21.7883 356.823 22.5176 357.309 23.2045 357.954L25.2021 359.772C24.4789 359.588 23.7446 359.45 23.0037 359.36C22.1283 359.241 21.2432 359.209 20.3615 359.265C18.5137 359.394 16.6926 359.778 14.9501 360.406C14.0306 360.723 13.1745 361.051 12.4135 361.389C11.6525 361.727 11.0078 362.076 10.5322 362.34C10.3102 362.457 10.2468 362.827 10.4476 362.816C11.3355 362.731 12.7728 362.753 14.4428 362.731C15.2777 362.731 16.1233 362.784 16.9899 362.784H19.442C21.133 362.784 22.8558 362.594 24.2086 362.457C25.222 362.417 26.2158 362.165 27.1257 361.717C28.3893 363.01 29.5852 364.369 30.7086 365.786C29.1964 365.161 27.6014 364.758 25.9737 364.592C24.1106 364.442 22.2362 364.524 20.3932 364.835C18.7874 365.103 17.2018 365.481 15.6476 365.966C15.4046 366.05 15.2883 366.409 15.4997 366.431L19.5476 367.075C21.1647 367.435 23.0777 367.699 24.5574 367.921C26.1525 368.125 27.7583 368.234 29.3663 368.248C30.3769 368.352 31.3977 368.233 32.3574 367.9L33.9745 370.087L35.4753 372.349C34.0319 371.563 32.4838 370.986 30.8777 370.637C29.029 370.229 27.1364 370.055 25.2444 370.119C23.6065 370.152 21.9722 370.286 20.3509 370.521C20.0867 370.521 19.9387 370.901 20.1289 370.965C21.0062 371.261 22.4753 371.736 24.1452 372.244C25.7763 372.858 27.4421 373.377 29.1338 373.797C30.6949 374.195 32.28 374.492 33.8793 374.685C34.8837 374.877 35.9172 374.855 36.9127 374.622L38.2867 376.968L39.5444 379.367C38.1893 378.437 36.7089 377.704 35.1476 377.19C33.3456 376.623 31.4833 376.268 29.5989 376.133C27.9412 375.97 26.2756 375.903 24.6102 375.932C24.3566 375.932 24.1558 376.27 24.3566 376.366C25.2655 376.746 26.6501 377.422 28.2883 378.162C29.8523 378.917 31.4538 379.59 33.0867 380.181C34.598 380.737 36.1445 381.192 37.7159 381.544C38.6852 381.85 39.7089 381.944 40.7175 381.819C41.5102 383.447 42.1655 385.138 42.8314 386.818C41.5817 385.754 40.1954 384.862 38.7094 384.166C36.9793 383.406 35.1669 382.849 33.3086 382.506C31.6828 382.175 30.0379 381.945 28.3834 381.819C28.1298 381.819 27.8972 382.105 28.0875 382.221C28.9436 382.686 30.2013 383.51 31.7972 384.335C33.3932 385.159 34.968 386.163 36.2997 386.84C39.4704 388.309 42.4826 389.514 43.698 389.313L44.4907 391.902L45.1566 394.534C44.0644 393.298 42.7967 392.23 41.394 391.363C39.7734 390.416 38.05 389.657 36.2574 389.101C34.6804 388.612 33.0787 388.206 31.459 387.886C31.2054 387.886 30.9411 388.118 31.1102 388.245C31.8289 388.816 33.2241 389.735 34.5135 390.771C35.8029 391.807 37.3777 392.885 38.6883 393.731C41.6371 395.559 44.4907 397.123 45.7062 397.102C46.0431 398.864 46.255 400.648 46.3403 402.439C46.3403 402.661 46.5834 402.831 46.8793 402.831C46.9421 402.838 47.0057 402.832 47.0663 402.814C47.1268 402.796 47.183 402.766 47.2315 402.725C47.28 402.685 47.3196 402.635 47.3481 402.578C47.3766 402.522 47.3933 402.46 47.3972 402.397C47.3118 400.559 47.0928 398.729 46.7419 396.922C47.894 396.605 50.0606 393.984 51.5297 390.211C52.2105 388.291 52.6645 386.297 52.8826 384.271C53.0985 382.472 53.2079 380.661 53.2102 378.849C53.2102 378.564 52.8086 378.511 52.6818 378.775C52.1639 379.938 51.2972 381.83 50.3883 383.827C49.4793 385.825 48.507 387.822 47.8728 389.397C47.2257 391.015 46.6752 392.671 46.224 394.354C46.0127 393.445 45.7696 392.536 45.5371 391.627L44.7232 388.943C45.5731 388.359 46.2488 387.555 46.6785 386.618C47.5204 385.076 48.1565 383.431 48.5704 381.724C49.0237 379.751 49.2541 377.734 49.2574 375.71C49.2612 373.92 49.1659 372.131 48.972 370.352C48.972 370.066 48.5281 370.066 48.4436 370.352C48.0842 371.546 47.3867 373.522 46.6997 375.636C46.0127 377.75 45.2517 379.864 44.8606 381.428C44.3937 383.108 44.0406 384.817 43.8037 386.544C43.1273 384.8 42.4403 383.045 41.6265 381.354C42.4151 380.67 43.0063 379.786 43.3387 378.796C43.9762 377.164 44.4299 375.466 44.6915 373.734C44.8986 371.738 44.8986 369.726 44.6915 367.731C44.5185 365.956 44.2503 364.192 43.8883 362.446C43.8249 362.171 43.4127 362.214 43.3493 362.499C43.1167 363.714 42.62 365.775 42.1549 367.868C41.6899 369.961 41.172 372.148 40.9289 373.808C40.6727 375.527 40.5245 377.26 40.485 378.997L39.1745 376.503L37.7582 374.083C38.4677 373.322 38.9572 372.383 39.1745 371.366C39.6373 369.679 39.9138 367.946 39.9989 366.198C40.0001 364.194 39.8089 362.194 39.4281 360.227C38.9631 358.113 38.3712 356.189 37.9907 354.942C37.9062 354.667 37.4728 354.752 37.4623 355.037C37.3249 356.316 37.1135 358.409 36.8915 360.596C36.6696 362.784 36.3208 364.983 36.2785 366.631C36.1993 368.368 36.2276 370.109 36.3631 371.842L34.82 369.496L33.1501 367.244C33.7713 366.404 34.1645 365.417 34.2915 364.38C34.5824 362.635 34.6605 360.86 34.5241 359.096C34.3117 357.053 33.8502 355.044 33.1501 353.114C32.5038 351.373 31.7629 349.669 30.9306 348.009C30.8948 347.958 30.8437 347.921 30.7848 347.902C30.7259 347.883 30.6625 347.884 30.6041 347.904C30.5457 347.924 30.4955 347.963 30.4609 348.014C30.4264 348.065 30.4095 348.127 30.4127 348.188C30.5184 349.488 30.5924 351.644 30.6875 353.811C30.7826 355.978 30.6875 358.303 30.8883 359.941C30.9932 361.687 31.2156 363.425 31.5541 365.141C30.3493 363.693 29.1655 362.235 27.8338 360.914C28.3515 360.007 28.6144 358.977 28.5948 357.933C28.6852 356.175 28.543 354.412 28.172 352.691Z" fill="#6F95C9"/>
<path d="M68.3663 308.406C69.9305 306.483 72.0126 303.862 73.8622 301.357L78.6395 295.121C78.8931 294.804 78.6395 294.381 78.3752 294.571C76.9907 295.428 74.8134 296.939 72.4565 298.715C70.1934 300.479 68.073 302.419 66.1151 304.517C64.2798 306.657 62.6287 308.948 61.1793 311.366L62.6061 306.293L63.3354 303.756L64.1809 301.262C65.3858 301.41 69.0322 298.387 73.2281 294.371C76.8427 290.851 82.2118 284.626 84.7484 282.089C85.0338 281.793 84.8647 281.349 84.537 281.519C82.3837 282.603 80.2882 283.799 78.259 285.102C77.033 285.894 75.733 286.729 74.5704 287.617C73.4078 288.505 72.3086 289.424 71.3996 290.291C70.2751 291.312 69.2161 292.403 68.2289 293.557C67.2988 294.614 66.4639 295.671 65.7769 296.622C66.7281 294.233 67.5736 291.792 68.6094 289.435C69.7589 288.323 70.7034 287.017 71.3996 285.577C72.6256 283.622 73.9151 281.022 75.3736 278.179C75.9972 276.932 76.6525 275.463 77.3606 273.951L78.4175 271.605C78.7769 270.812 79.1362 270.03 79.4744 269.248C80.8801 266.13 82.2435 263.202 83.1525 261.458C83.3533 261.067 83.0151 260.814 82.698 261.152C80.7062 263.316 78.8395 265.592 77.1069 267.969L75.5744 270.083C75.0988 270.833 74.6126 271.573 74.1476 272.292C73.294 273.653 72.5177 275.061 71.8224 276.509C70.6163 278.899 69.5814 281.371 68.7256 283.907C68.179 285.465 67.8448 287.09 67.7321 288.737L66.95 290.545L66.2419 292.384L64.8256 296.072C64.9419 294.92 65.0159 293.62 65.0582 292.204C65.1004 290.788 65.0582 289.255 65.0582 287.691C65.0582 286.37 64.9948 284.89 64.8785 283.326C64.7622 281.762 64.6777 280.155 64.572 278.623C64.3078 275.452 64.1492 272.588 64.0013 270.791C64.0013 270.379 63.4939 270.537 63.3777 271.002C63.1452 271.996 62.8492 273.306 62.5004 274.797C62.1517 276.287 61.9086 277.967 61.6232 279.701C61.3378 281.434 61.1582 283.199 60.9891 284.869C60.8287 286.389 60.7616 287.917 60.7882 289.445C60.8728 295.576 62.0671 300.215 63.0923 300.934L62.3102 303.333C62.046 304.168 61.824 305.003 61.5809 305.838L60.1964 310.88C60.1787 308.078 60.0023 305.28 59.6679 302.498C59.4671 299.898 58.8541 296.601 58.3468 293.515C57.8395 290.428 57.3216 287.48 57.0256 285.757C56.9622 285.366 56.4866 285.567 56.4126 286.021C56.159 288.071 55.6939 291.38 55.4826 294.867C55.2428 298.134 55.2782 301.415 55.5883 304.675C55.8269 307.281 56.3442 309.853 57.1313 312.349C57.7866 314.315 58.4525 315.583 59.0021 315.9L58.4208 318.426L57.9663 320.994L57.0785 326.12C56.7765 323.332 56.3035 320.564 55.6622 317.834C55.1972 315.255 54.3094 312.042 53.4427 308.988C52.5761 305.933 51.9208 303.132 51.4452 301.389C51.3289 300.987 50.885 301.241 50.8639 301.706C50.6208 305.838 50.5785 315.16 51.9208 320.434C53.1679 326.448 55.398 330.76 56.5289 331.236C56.0427 334.671 55.9899 338.148 55.8208 341.615C55.5671 340.484 55.2289 339.226 54.7639 337.863C54.5525 337.176 54.3305 336.478 54.0874 335.749C53.8444 335.019 53.6013 334.29 53.3899 333.54C52.6395 331.024 51.3606 327.917 50.2192 324.968C49.0777 322.019 48.1053 319.271 47.4289 317.57C47.2809 317.179 46.8687 317.475 46.9004 317.95C46.9744 319.007 47.0696 320.349 47.1858 321.893C47.2886 323.568 47.4791 325.236 47.7565 326.892C48.0419 328.646 48.359 330.422 48.6972 332.071C48.8769 332.895 49.0354 333.698 49.2468 334.449C49.4582 335.199 49.7013 335.907 49.9232 336.562C50.7763 339.036 51.837 341.433 53.0939 343.728C54.1509 345.472 55.0915 346.571 55.6939 346.751C55.6939 350.207 55.6939 353.674 55.7679 357.13C54.9396 354.464 53.9477 351.852 52.798 349.309C52.2907 348.115 51.646 346.793 50.9378 345.441L49.8281 343.39C49.4687 342.682 49.12 341.974 48.7712 341.276C47.2915 338.433 45.9175 335.802 45.0931 334.206C44.8923 333.836 44.5224 334.206 44.607 334.66C44.998 336.774 45.6639 340.093 46.4777 343.485C47.334 346.561 48.386 349.58 49.6273 352.522C52.0265 358.018 54.6899 361.939 55.9053 362.267C56.011 365.723 56.159 369.168 56.3281 372.624C55.4265 369.995 54.3677 367.422 53.1574 364.919C50.5912 360.018 47.7689 355.256 44.7021 350.651C44.4801 350.323 44.1313 350.651 44.2476 351.106C45.22 354.932 47.7248 363.503 50.0078 368.228C52.6078 373.639 55.3874 377.465 56.6135 377.74C56.846 381.196 57.0785 384.641 57.385 388.087C56.3887 385.489 55.2418 382.952 53.95 380.488C51.2292 375.677 48.2515 371.016 45.0297 366.526C44.7972 366.198 44.459 366.526 44.5858 366.991C45.6956 370.764 48.4647 379.251 50.9273 383.901C53.6858 389.186 56.6135 392.959 57.85 393.202C58.1777 396.637 58.5476 400.072 58.9915 403.497C58.9915 403.93 59.3297 404.247 59.6151 404.205C59.9004 404.162 60.0907 403.793 60.0378 403.359C59.6045 399.956 59.2346 396.532 58.8964 393.118C60.059 392.769 62.2151 388.52 64.1809 382.908C65.872 378.057 67.7427 369.686 68.5777 366.05C68.6728 365.628 68.3135 365.31 68.1021 365.628C66.3265 368.46 62.4159 375.14 60.7037 380.023C59.7297 382.691 58.9733 385.434 58.4419 388.224C58.1354 384.715 57.8923 381.206 57.6598 377.655C58.833 377.349 61.137 373.163 63.3037 367.625C65.1533 362.837 67.2777 354.541 68.25 350.936C68.3557 350.524 67.9964 350.186 67.785 350.503C65.9248 353.262 61.7817 359.815 59.911 364.634C58.8473 367.27 57.999 369.988 57.3744 372.762C57.1912 369.239 57.0468 365.716 56.9411 362.193C58.1248 361.928 60.5557 357.817 62.9126 352.363C63.9061 350.006 65.0265 346.772 65.9988 343.686C66.9712 340.6 68.0492 338.053 68.5988 336.404C68.7256 336.034 68.3874 335.696 68.1549 335.971C67.172 337.186 65.5443 339.247 63.9273 341.657C63.5045 342.259 63.0923 342.872 62.6801 343.506C62.2679 344.141 61.9191 344.817 61.5598 345.472C60.8305 346.783 60.1752 348.072 59.6574 349.256C58.5087 351.852 57.5754 354.539 56.8671 357.288C56.8037 353.769 56.7509 350.249 56.7826 346.719C57.3744 346.614 58.3256 345.546 59.4248 343.845C60.8144 341.753 62.0882 339.587 63.2403 337.355C63.5256 336.806 63.811 336.203 64.1069 335.58L65.111 333.593C65.798 332.229 66.4744 330.792 67.1086 329.365C67.7427 327.938 68.4297 326.617 69.0216 325.423L70.5224 322.389C70.6915 322.03 70.3956 321.649 70.1419 321.903C69.0004 322.96 67.1191 324.884 65.1639 327.082C63.3193 329.268 61.6512 331.597 60.1752 334.047C59.7839 334.71 59.4311 335.394 59.1183 336.097C58.8118 336.784 58.5159 337.45 58.2411 338.106C57.6915 339.427 57.1842 340.674 56.8882 341.794C57.0679 338.285 57.1102 334.766 57.5964 331.278C58.8435 331.172 61.6655 327.452 65.0476 322.717C67.7533 318.563 72.0126 311.535 73.9256 308.565C74.137 308.227 73.9256 307.815 73.598 308.036C72.3403 309.03 70.2793 310.71 68.0915 312.708C66.007 314.722 64.0746 316.887 62.3102 319.187C60.7086 321.508 59.2949 323.954 58.0826 326.501L58.9809 321.311L59.4248 318.711L60.0167 316.143C60.6191 316.143 61.7817 315.329 63.1874 313.934C64.5931 312.539 66.5378 310.605 68.3663 308.406Z" fill="#6F95C9"/>
<path d="M95.9622 348.58C99.2704 347.163 104.048 344.352 106.098 343.158C106.331 343.02 106.161 342.65 105.876 342.682C104.629 342.788 102.589 343.041 100.401 343.454C98.306 343.829 96.2503 344.399 94.2606 345.155C92.4447 345.876 90.7205 346.809 89.124 347.935C90.2866 346.001 91.5021 344.119 92.7281 342.238C93.785 342.777 97.3468 342.016 101.268 340.706C102.959 340.135 105.009 339.184 106.922 338.338C108.835 337.493 110.548 336.732 111.583 336.224C111.816 336.129 111.678 335.759 111.404 335.749C109.591 335.695 107.776 335.758 105.971 335.939C103.87 336.126 101.794 336.533 99.7777 337.154C97.9253 337.755 96.1513 338.575 94.4931 339.596C95.4443 338.254 96.3744 336.901 97.3679 335.58C98.5834 335.4 101.046 333.022 103.614 329.967C104.185 329.28 104.809 328.488 105.422 327.611L107.345 324.968C108.407 323.467 109.554 322.027 110.78 320.656C110.97 320.434 110.78 320.075 110.463 320.202C108.717 320.993 107.056 321.959 105.506 323.087C104.565 323.742 103.667 324.503 102.811 325.201C102.04 325.895 101.313 326.636 100.634 327.42C98.1289 330.38 96.7021 333.371 96.6492 334.745C95.5923 336.087 94.6834 337.471 93.7004 338.845C94.0575 336.947 94.28 335.026 94.3663 333.096C94.4614 331.215 94.3663 328.773 94.2923 326.406C94.2183 324.038 94.1338 321.776 94.1338 320.381C94.1308 320.313 94.1037 320.249 94.0573 320.199C94.0109 320.149 93.9483 320.118 93.8808 320.11C93.8133 320.103 93.7452 320.119 93.6889 320.157C93.6326 320.195 93.5917 320.252 93.5736 320.318C92.8191 322.231 92.1768 324.186 91.65 326.173C91.0413 328.352 90.6518 330.586 90.4874 332.842C90.2655 337.165 90.9948 340.716 91.8614 341.572C90.6565 343.432 89.4517 345.282 88.3102 347.184C88.543 345.27 88.6418 343.342 88.6061 341.414C88.5533 339.543 88.3208 337.133 88.0143 334.808C87.7078 332.483 87.4435 330.274 87.2744 328.932C87.2618 328.867 87.2269 328.808 87.1758 328.766C87.1247 328.724 87.0606 328.701 86.9944 328.701C86.9282 328.701 86.864 328.724 86.8129 328.766C86.7618 328.808 86.7269 328.867 86.7143 328.932C85.9639 331.606 84.6004 337.641 84.7273 341.414C84.8118 345.726 85.6891 349.214 86.6191 350.028C85.4883 351.93 84.4102 353.864 83.3427 355.809C83.4924 353.888 83.4924 351.959 83.3427 350.038C83.0785 346.339 81.7574 340.389 81.2289 337.736C81.2121 337.676 81.1762 337.623 81.1266 337.585C81.0769 337.548 81.0164 337.527 80.9541 337.527C80.8918 337.527 80.8313 337.548 80.7817 337.585C80.732 337.623 80.6961 337.676 80.6793 337.736C79.7796 341.83 79.3645 346.016 79.4427 350.207C79.7387 354.488 80.785 357.933 81.7574 358.663C80.7005 360.618 79.7281 362.605 78.7346 364.581C78.815 362.654 78.7337 360.724 78.4915 358.81C77.8172 354.716 76.9174 350.662 75.7964 346.667C75.7796 346.607 75.7437 346.554 75.694 346.516C75.6444 346.479 75.5839 346.458 75.5216 346.458C75.4593 346.458 75.3988 346.479 75.3491 346.516C75.2995 346.554 75.2636 346.607 75.2468 346.667C75.0565 347.998 74.7818 350.186 74.6126 352.501C74.4265 354.706 74.4265 356.923 74.6126 359.128C75.0988 363.355 76.3037 366.79 77.2972 367.509C76.3248 369.506 75.4582 371.546 74.5598 373.565C74.5429 371.638 74.3697 369.715 74.0419 367.815C73.6476 365.646 73.1325 363.501 72.4988 361.389C71.8753 359.17 71.22 357.077 70.8078 355.798C70.7906 355.736 70.7519 355.681 70.6985 355.645C70.6451 355.608 70.5805 355.591 70.516 355.598C70.4515 355.604 70.3914 355.633 70.3461 355.679C70.3009 355.726 70.2735 355.787 70.2687 355.851C70.0045 358.515 69.5712 364.613 70.2053 368.344C70.8712 372.571 72.3192 375.954 73.3021 376.609C72.4777 378.659 71.6744 380.731 70.9452 382.823C70.783 380.896 70.4899 378.982 70.0679 377.095C69.5532 374.95 68.9252 372.833 68.1866 370.754C67.4574 368.555 66.7175 366.526 66.2525 365.205C66.2342 365.14 66.1929 365.084 66.1363 365.048C66.0797 365.012 66.0119 364.998 65.9455 365.008C65.8792 365.019 65.8189 365.053 65.7762 365.105C65.7334 365.157 65.7111 365.222 65.7135 365.289C65.5444 368.006 65.407 374.167 66.2631 377.867C67.1826 382.094 68.7891 385.35 69.8777 385.941C69.1696 388.055 68.546 390.169 67.9647 392.283C67.6685 390.441 67.2555 388.619 66.7281 386.829C65.6712 383.257 63.2086 377.623 62.2045 375.119C62.1891 375.047 62.1459 374.985 62.0845 374.945C62.023 374.905 61.9484 374.892 61.8769 374.907C61.8054 374.923 61.743 374.966 61.7033 375.027C61.6637 375.089 61.6501 375.163 61.6655 375.235C61.6655 377.962 61.8769 384.208 62.9866 387.918C64.2127 392.145 66.0834 395.242 67.2143 395.728C66.7034 397.894 66.3048 400.085 66.02 402.292C66.0142 402.36 66.0219 402.428 66.0427 402.493C66.0635 402.558 66.097 402.619 66.1412 402.671C66.1854 402.723 66.2395 402.766 66.3003 402.797C66.3611 402.828 66.4275 402.847 66.4956 402.852C66.631 402.867 66.7671 402.83 66.8754 402.747C66.9838 402.664 67.0559 402.543 67.0769 402.408C67.349 400.243 67.7406 398.094 68.2501 395.971C69.4232 396.088 72.4777 394.196 75.7435 391.744C78.5232 389.556 82.3492 385.614 84.072 383.944C84.2728 383.754 84.0086 383.436 83.7444 383.532C80.0073 384.883 76.4561 386.701 73.1753 388.943C71.5987 390.106 70.1779 391.466 68.9476 392.991C69.5395 390.824 70.1631 388.668 70.8712 386.533C72.0444 386.755 75.2785 385.128 78.7135 382.834C81.8005 380.53 84.7607 378.06 87.5809 375.436C87.7818 375.256 87.5809 374.918 87.2744 375.002C86.0696 375.393 84.1037 376.059 81.9899 376.915C80.016 377.711 78.1167 378.68 76.3143 379.811C74.6813 380.877 73.1806 382.133 71.8435 383.553C72.5834 381.439 73.3972 379.325 74.2322 377.211C75.4053 377.518 78.7135 376.102 82.307 373.988C85.546 371.846 88.652 369.509 91.6078 366.991C91.8191 366.811 91.6078 366.463 91.3118 366.547C90.0964 366.885 88.1411 367.488 86.0273 368.238C84.0449 368.922 82.122 369.766 80.2777 370.764C78.5918 371.749 77.0183 372.915 75.585 374.241C76.4939 372.191 77.3712 370.119 78.3541 368.101C79.4956 368.46 82.8883 367.245 86.598 365.268C88.4212 364.233 90.1855 363.096 91.8826 361.865C93.6582 360.618 95.2647 359.413 96.237 358.694C96.459 358.536 96.237 358.176 95.9728 358.24C92.02 359.06 88.173 360.326 84.5053 362.013C82.7732 362.921 81.1433 364.013 79.6435 365.268C80.7005 363.26 81.6411 361.241 82.7086 359.254C83.7655 359.677 87.285 358.599 91.0582 356.792C94.4593 354.949 97.7582 352.924 100.94 350.725C101.173 350.567 100.94 350.207 100.697 350.25C96.7481 350.845 92.8842 351.909 89.1874 353.42C87.4095 354.241 85.7291 355.259 84.1777 356.454C85.2346 354.477 86.3655 352.511 87.5069 350.577C88.6061 351.084 92.1256 350.176 95.9622 348.58Z" fill="#6F95C9"/>
<path d="M50.2191 463.402H64.889C76.5151 458.308 85.0337 441.44 85.0337 421.39C85.0863 413.555 83.6851 405.779 80.9012 398.455H34.2069C31.4231 405.779 30.0218 413.555 30.0744 421.39C30.0744 441.44 38.6037 458.308 50.2191 463.402Z" fill="#263238"/>
<path d="M637.555 352.691C637.342 351.734 637.038 350.8 636.646 349.901C636.24 348.878 635.774 347.879 635.251 346.91C634.325 345.244 633.265 343.657 632.08 342.165C632.042 342.111 631.986 342.072 631.922 342.056C631.859 342.04 631.791 342.047 631.732 342.077C631.673 342.106 631.627 342.156 631.601 342.216C631.576 342.277 631.573 342.345 631.594 342.408C631.752 343.042 631.964 343.887 632.196 344.839C632.429 345.79 632.619 346.878 632.841 348.009C633.295 350.123 633.602 352.448 634.003 354.076L634.69 356.898C634.923 357.754 635.155 358.504 635.388 359.128L633.274 357.236C632.577 356.602 631.816 356.063 631.086 355.46C631.472 354.487 631.578 353.426 631.393 352.395C631.179 350.623 630.724 348.887 630.04 347.238C629.642 346.327 629.183 345.444 628.666 344.595C627.002 342.019 624.973 339.698 622.642 337.704C622.593 337.665 622.532 337.643 622.469 337.642C622.406 337.64 622.344 337.66 622.294 337.697C622.243 337.735 622.206 337.788 622.189 337.848C622.171 337.909 622.175 337.973 622.198 338.032C622.494 338.645 622.885 339.427 623.255 340.336C623.625 341.245 624.069 342.26 624.502 343.306L626.742 349.119C627.144 350.091 627.535 350.99 627.916 351.782C628.232 352.505 628.584 353.21 628.973 353.896L627.271 352.734L625.485 351.677C625.396 351.313 625.222 350.977 624.977 350.694C624.609 350.279 624.202 349.9 623.762 349.563C622.521 348.619 621.137 347.88 619.661 347.375C617.911 346.803 616.081 346.507 614.239 346.498C612.652 346.465 611.066 346.621 609.515 346.963C609.272 347.026 609.303 347.449 609.515 347.512C610.953 347.951 612.365 348.473 613.743 349.077C615.37 349.743 617.029 350.567 618.361 351.032C621.141 352.089 623.646 352.702 624.851 352.501L626.616 353.558C627.197 353.917 627.747 354.319 628.317 354.699C627.584 354.616 626.846 354.587 626.108 354.615C625.225 354.682 624.346 354.802 623.477 354.974C622.618 355.156 621.779 355.422 620.972 355.767C620.076 356.124 619.207 356.544 618.372 357.025C617.537 357.511 616.765 358.008 616.099 358.473C615.434 358.938 614.884 359.424 614.482 359.773C614.292 359.931 614.292 360.312 614.482 360.259C615.296 360.016 616.67 359.709 618.266 359.403L620.729 358.969C621.542 358.853 622.356 358.716 623.096 358.547C624.766 358.177 626.362 357.86 627.715 357.49C628.708 357.29 629.65 356.891 630.484 356.317C631.182 356.887 631.921 357.373 632.598 358.018L634.606 359.836C633.882 359.653 633.148 359.515 632.408 359.424C631.532 359.305 630.647 359.273 629.765 359.329C627.908 359.443 626.076 359.817 624.322 360.439C623.403 360.756 622.547 361.083 621.786 361.421C621.025 361.76 620.38 362.108 619.894 362.373C619.672 362.489 619.608 362.859 619.809 362.848C620.697 362.764 622.145 362.785 623.815 362.764C624.65 362.764 625.495 362.817 626.351 362.817H628.814C630.505 362.817 632.217 362.626 633.57 362.489C634.587 362.446 635.583 362.194 636.498 361.749C637.761 363.043 638.957 364.401 640.081 365.818C638.568 365.193 636.974 364.791 635.346 364.624C633.479 364.474 631.601 364.556 629.755 364.867C628.153 365.136 626.571 365.514 625.02 365.998C624.777 366.082 624.66 366.442 624.861 366.463L628.92 367.108C630.537 367.467 632.439 367.731 633.919 367.953C635.518 368.157 637.127 368.267 638.738 368.281C639.749 368.383 640.77 368.264 641.729 367.932L643.347 370.12L644.847 372.382C643.4 371.595 641.849 371.019 640.239 370.669C638.394 370.262 636.505 370.088 634.616 370.152C632.975 370.184 631.337 370.319 629.712 370.553C629.459 370.553 629.3 370.934 629.501 370.997C630.368 371.293 631.837 371.769 633.517 372.276C635.145 372.889 636.807 373.408 638.495 373.83C640.06 374.226 641.649 374.523 643.251 374.717C644.252 374.909 645.282 374.888 646.274 374.654L647.659 377L648.895 379.325C647.539 378.397 646.059 377.664 644.499 377.148C642.693 376.581 640.827 376.226 638.939 376.091C637.285 375.929 635.623 375.862 633.961 375.891C633.697 375.891 633.496 376.229 633.708 376.324C634.617 376.704 636.001 377.381 637.639 378.121C639.201 378.873 640.798 379.547 642.427 380.139C643.939 380.693 645.486 381.148 647.056 381.503C648.029 381.809 649.056 381.902 650.069 381.778C650.851 383.405 651.516 385.096 652.182 386.777C650.931 385.715 649.545 384.823 648.06 384.124C646.33 383.366 644.517 382.809 642.66 382.465C641.034 382.133 639.389 381.903 637.734 381.778C637.47 381.778 637.238 382.063 637.428 382.179C638.295 382.644 639.595 383.469 641.138 384.293C642.681 385.117 644.308 386.121 645.651 386.798C648.821 388.267 651.823 389.472 653.049 389.271L653.831 391.86L654.508 394.492C653.413 393.259 652.146 392.191 650.745 391.321C649.122 390.373 647.395 389.614 645.598 389.06C644.021 388.574 642.419 388.172 640.799 387.855C640.546 387.855 640.282 388.087 640.451 388.214C641.169 388.785 642.564 389.704 643.843 390.74C645.122 391.776 646.708 392.854 648.071 393.699C651.009 395.528 653.863 397.092 655.078 397.071C655.419 398.833 655.634 400.616 655.723 402.408C655.723 402.63 655.966 402.799 656.262 402.799C656.325 402.807 656.388 402.801 656.449 402.783C656.509 402.765 656.566 402.735 656.614 402.694C656.663 402.654 656.702 402.604 656.731 402.547C656.759 402.491 656.776 402.429 656.78 402.366C656.684 400.529 656.465 398.7 656.125 396.891C657.266 396.574 659.443 393.953 660.902 390.18C661.588 388.261 662.042 386.267 662.255 384.24C662.473 382.441 662.586 380.631 662.593 378.818C662.587 378.757 662.56 378.7 662.517 378.656C662.475 378.611 662.419 378.583 662.358 378.574C662.297 378.566 662.235 378.578 662.182 378.609C662.129 378.639 662.087 378.687 662.064 378.744L659.76 383.796C658.809 385.783 657.879 387.791 657.245 389.366C656.596 390.983 656.049 392.638 655.607 394.323C655.385 393.414 655.142 392.505 654.909 391.596L654.095 388.901C654.946 388.315 655.625 387.512 656.061 386.576C656.907 385.03 657.549 383.382 657.974 381.672C658.429 379.7 658.656 377.682 658.651 375.658C658.652 373.868 658.56 372.08 658.376 370.299C658.376 370.014 657.921 370.014 657.837 370.299C657.477 371.494 656.78 373.47 656.103 375.584C655.427 377.698 654.645 379.812 654.264 381.376C653.787 383.053 653.434 384.763 653.208 386.491C652.531 384.747 651.844 382.993 651.03 381.302C651.816 380.615 652.406 379.732 652.743 378.744C653.376 377.112 653.826 375.414 654.085 373.682C654.297 371.686 654.297 369.674 654.085 367.678C653.906 365.904 653.638 364.141 653.282 362.394C653.218 362.119 652.806 362.161 652.743 362.447C652.51 363.662 652.013 365.723 651.548 367.816C651.083 369.908 650.555 372.096 650.322 373.756C650.058 375.474 649.906 377.207 649.868 378.945L648.568 376.451L647.141 374.03C647.85 373.27 648.34 372.331 648.557 371.314C649.026 369.628 649.302 367.894 649.382 366.146C649.392 364.142 649.204 362.141 648.821 360.174C648.346 358.06 647.764 356.137 647.373 354.89C647.289 354.615 646.866 354.699 646.845 354.985C646.718 356.264 646.507 358.356 646.285 360.544C646.063 362.732 645.714 364.93 645.672 366.579C645.587 368.316 645.615 370.057 645.756 371.79L644.203 369.443L642.554 367.234C643.184 366.398 643.582 365.41 643.706 364.37C643.991 362.624 644.069 360.85 643.938 359.086C643.716 357.045 643.255 355.037 642.564 353.104C641.918 351.363 641.177 349.659 640.345 347.999C640.309 347.948 640.258 347.911 640.199 347.892C640.14 347.873 640.077 347.874 640.019 347.894C639.96 347.914 639.91 347.953 639.875 348.004C639.841 348.055 639.824 348.117 639.827 348.178C639.933 349.478 640.007 351.634 640.091 353.801C640.176 355.968 640.091 358.293 640.292 359.931C640.408 361.676 640.63 363.413 640.958 365.131C639.753 363.683 638.58 362.225 637.238 360.904C637.755 359.996 638.021 358.967 638.009 357.923C638.087 356.167 637.935 354.408 637.555 352.691Z" fill="#6F95C9"/>
<path d="M677.76 308.406C679.313 306.483 681.395 303.862 683.245 301.357C685.094 298.852 686.934 296.558 688.022 295.121C688.286 294.804 688.086 294.381 687.769 294.571C686.384 295.428 684.207 296.939 681.85 298.715C679.587 300.479 677.466 302.419 675.508 304.517C673.667 306.654 672.012 308.945 670.562 311.366L671.999 306.293L672.729 303.756L673.574 301.262C674.779 301.41 678.415 298.387 682.621 294.371C686.236 290.851 691.605 284.626 694.142 282.089C694.416 281.793 694.247 281.349 693.92 281.519C691.77 282.604 689.678 283.8 687.652 285.102C686.426 285.894 685.126 286.729 683.964 287.617C682.801 288.505 681.691 289.424 680.793 290.291C679.668 291.311 678.609 292.402 677.622 293.557C676.681 294.614 675.857 295.671 675.17 296.622C676.121 294.233 676.956 291.792 678.003 289.435C679.152 288.323 680.097 287.017 680.793 285.577C682.019 283.622 683.298 281.022 684.756 278.179C685.39 276.932 686.035 275.463 686.754 273.951L687.811 271.605L688.868 269.248C690.273 266.13 691.637 263.202 692.535 261.458C692.746 261.067 692.398 260.814 692.091 261.152C690.129 263.312 688.291 265.581 686.585 267.948L685.052 270.062L683.625 272.271C682.756 273.617 681.962 275.011 681.247 276.445C680.04 278.833 679.008 281.306 678.161 283.844C677.612 285.402 677.275 287.026 677.157 288.674L676.386 290.481L675.677 292.32L674.251 296.009C674.367 294.857 674.451 293.557 674.483 292.141C674.515 290.724 674.483 289.192 674.547 287.628C674.547 286.306 674.473 284.827 674.367 283.263C674.261 281.698 674.166 280.092 674.06 278.559C673.796 275.389 673.627 272.524 673.49 270.728C673.49 270.315 672.972 270.474 672.866 270.939L671.978 274.733C671.693 276.245 671.386 277.904 671.101 279.637C670.816 281.371 670.647 283.136 670.477 284.806C670.312 286.325 670.245 287.854 670.277 289.382C670.361 295.512 671.555 300.152 672.581 300.871L671.746 303.333C671.492 304.168 671.27 305.003 671.027 305.838L669.6 310.837C669.588 308.036 669.411 305.237 669.072 302.456C668.882 299.856 668.268 296.558 667.761 293.472C667.254 290.386 666.757 287.469 666.472 285.715C666.408 285.323 665.933 285.524 665.859 285.979C665.594 288.029 665.129 291.337 664.929 294.825C664.691 298.092 664.723 301.372 665.024 304.633C665.271 307.238 665.791 309.81 666.577 312.306C667.222 314.272 667.899 315.541 668.448 315.858L667.856 318.384L667.412 320.952L666.525 326.078C666.217 323.29 665.745 320.523 665.108 317.792C664.643 315.213 663.755 312 662.889 308.945C662.022 305.891 661.356 303.09 660.881 301.346C660.775 300.945 660.331 301.198 660.31 301.663C660.067 305.796 660.014 315.118 661.367 320.392C662.603 326.406 664.844 330.718 665.975 331.193C665.489 334.628 665.436 338.106 665.256 341.572C665.003 340.441 664.664 339.184 664.252 337.82C664.051 337.133 663.829 336.436 663.586 335.706C663.343 334.977 663.09 334.248 662.878 333.497C662.128 330.982 660.849 327.875 659.707 324.926C658.566 321.977 657.594 319.229 656.917 317.528C656.769 317.136 656.347 317.432 656.378 317.908C656.452 318.965 656.558 320.307 656.664 321.85C656.769 323.393 656.917 325.095 657.234 326.849C657.551 328.604 657.837 330.38 658.186 332.028C658.355 332.853 658.524 333.656 658.725 334.406C658.925 335.157 659.179 335.865 659.412 336.52C660.26 338.996 661.321 341.393 662.582 343.686C663.639 345.43 664.58 346.529 665.182 346.709C665.182 350.165 665.182 353.632 665.256 357.088C664.444 354.425 663.473 351.813 662.35 349.267C661.842 348.072 661.187 346.751 660.479 345.398L659.422 343.348L658.365 341.234L654.677 334.163C654.486 333.793 654.106 334.163 654.201 334.618C654.582 336.732 655.258 340.05 656.061 343.443C656.902 346.513 657.933 349.527 659.147 352.469C661.547 357.965 664.221 361.886 665.489 362.214C665.595 365.67 665.732 369.115 665.912 372.571C665.009 369.942 663.951 367.369 662.741 364.867C660.178 359.963 657.356 355.2 654.286 350.598C654.064 350.271 653.715 350.598 653.82 351.053C654.793 354.879 657.308 363.45 659.591 368.175C662.181 373.586 664.971 377.412 666.197 377.687C666.419 381.143 666.662 384.588 666.958 388.034C665.973 385.437 664.836 382.899 663.555 380.435C660.831 375.624 657.849 370.963 654.624 366.473C654.402 366.145 654.053 366.473 654.18 366.938C655.29 370.711 658.059 379.198 660.521 383.849C663.28 389.133 666.197 392.906 667.434 393.149C667.772 396.584 668.142 400.019 668.586 403.444C668.638 403.877 668.924 404.194 669.209 404.152C669.494 404.11 669.685 403.74 669.632 403.306C669.188 399.903 668.818 396.479 668.49 393.065C669.642 392.716 671.799 388.467 673.775 382.855C675.466 378.004 677.326 369.633 678.172 365.997C678.267 365.575 677.897 365.258 677.696 365.575C675.921 368.407 672.01 375.087 670.298 379.97C669.314 382.635 668.557 385.379 668.036 388.171C667.729 384.662 667.476 381.154 667.254 377.602C668.427 377.296 670.721 373.11 672.887 367.572C674.747 362.784 676.861 354.488 677.844 350.884C677.95 350.471 677.59 350.133 677.379 350.45C675.519 353.209 671.365 359.762 669.494 364.581C668.434 367.218 667.589 369.936 666.968 372.709C666.792 369.186 666.648 365.663 666.535 362.14C667.708 361.875 670.139 357.764 672.507 352.31C673.5 349.954 674.621 346.719 675.593 343.633C676.565 340.547 677.633 338 678.193 336.351C678.32 335.981 677.971 335.643 677.749 335.918C676.755 337.133 675.138 339.194 673.468 341.604C673.056 342.206 672.634 342.819 672.232 343.454C671.83 344.088 671.46 344.764 671.101 345.419C670.382 346.73 669.727 348.019 669.199 349.203C668.059 351.803 667.126 354.489 666.408 357.236C666.345 353.716 666.303 350.197 666.334 346.667C666.926 346.561 667.867 345.493 668.966 343.792C670.363 341.703 671.641 339.536 672.792 337.302C673.077 336.753 673.363 336.15 673.659 335.527L674.663 333.54C675.339 332.176 676.016 330.739 676.65 329.312C677.284 327.885 677.982 326.564 678.573 325.37L680.064 322.336C680.243 321.977 679.947 321.597 679.683 321.85C678.542 322.907 676.671 324.831 674.716 327.029C672.868 329.213 671.199 331.542 669.727 333.994C669.336 334.657 668.983 335.341 668.67 336.045C668.353 336.732 668.057 337.397 667.793 338.053C667.243 339.374 666.789 340.621 666.429 341.741C666.62 338.232 666.662 334.713 667.148 331.225C668.385 331.119 671.217 327.399 674.547 322.664C677.263 318.51 681.512 311.482 683.435 308.512C683.647 308.174 683.435 307.762 683.107 307.984C681.85 308.977 679.778 310.658 677.601 312.655C675.531 314.643 673.609 316.78 671.851 319.049C670.25 321.371 668.837 323.817 667.624 326.363L668.522 321.174L668.977 318.574L669.568 316.006C670.171 316.006 671.323 315.192 672.739 313.797C674.155 312.402 675.868 310.605 677.76 308.406Z" fill="#6F95C9"/>
<path d="M705.355 348.58C708.664 347.163 713.43 344.352 715.481 343.158C715.724 343.02 715.555 342.65 715.269 342.682C714.022 342.788 711.972 343.041 709.784 343.454C707.692 343.829 705.64 344.399 703.654 345.155C701.856 345.88 700.15 346.813 698.57 347.935C699.722 346.001 700.948 344.119 702.174 342.238C703.231 342.777 706.793 342.016 710.714 340.706C712.394 340.135 714.455 339.184 716.358 338.338C718.26 337.493 719.994 336.732 721.019 336.224C721.262 336.129 721.114 335.759 720.839 335.749C719.03 335.695 717.219 335.758 715.417 335.939C713.287 336.12 711.183 336.528 709.139 337.154C707.288 337.757 705.514 338.577 703.855 339.596C704.806 338.254 705.746 336.901 706.729 335.58C707.955 335.4 710.407 333.022 712.986 329.967C713.557 329.28 714.181 328.488 714.794 327.611L716.707 324.968C717.772 323.469 718.919 322.03 720.142 320.656C720.181 320.609 720.204 320.55 720.208 320.488C720.211 320.426 720.194 320.365 720.159 320.314C720.125 320.262 720.074 320.224 720.016 320.204C719.957 320.183 719.894 320.183 719.835 320.202C718.086 320.992 716.421 321.959 714.868 323.087C713.927 323.742 713.039 324.503 712.183 325.201C711.412 325.895 710.685 326.636 710.006 327.42C707.501 330.38 706.064 333.371 706.011 334.745C704.954 336.087 704.045 337.471 703.073 338.845C703.43 336.947 703.652 335.026 703.738 333.096C703.823 331.215 703.738 328.773 703.654 326.406C703.569 324.038 703.506 321.776 703.506 320.381C703.503 320.313 703.476 320.249 703.429 320.199C703.383 320.149 703.32 320.118 703.253 320.11C703.185 320.103 703.117 320.119 703.061 320.157C703.005 320.195 702.964 320.252 702.946 320.318C702.191 322.231 701.549 324.186 701.022 326.173C700.405 328.35 700.012 330.585 699.849 332.842C699.638 337.165 700.367 340.716 701.234 341.572C700.029 343.432 698.813 345.282 697.682 347.184C697.915 345.27 698.014 343.342 697.978 341.414C697.925 339.543 697.693 337.133 697.386 334.808C697.08 332.483 696.805 330.274 696.636 328.932C696.636 328.859 696.607 328.789 696.555 328.737C696.504 328.686 696.434 328.657 696.361 328.657C696.288 328.657 696.218 328.686 696.167 328.737C696.115 328.789 696.086 328.859 696.086 328.932C695.325 331.606 693.973 337.641 694.089 341.414C694.173 345.726 695.051 349.214 695.991 350.028C694.86 351.93 693.782 353.864 692.715 355.809C692.865 353.888 692.865 351.959 692.715 350.038C692.44 346.339 691.129 340.389 690.601 337.736C690.584 337.676 690.548 337.623 690.499 337.585C690.449 337.548 690.388 337.527 690.326 337.527C690.264 337.527 690.203 337.548 690.154 337.585C690.104 337.623 690.068 337.676 690.051 337.736C689.153 341.83 688.734 346.016 688.804 350.207C689.111 354.488 690.157 357.933 691.119 358.663C690.062 360.618 689.1 362.605 688.107 364.581C688.183 362.654 688.098 360.724 687.853 358.81C687.177 354.717 686.281 350.663 685.168 346.667C685.152 346.607 685.116 346.554 685.066 346.516C685.016 346.479 684.956 346.458 684.894 346.458C684.831 346.458 684.771 346.479 684.721 346.516C684.672 346.554 684.636 346.607 684.619 346.667C684.418 347.998 684.143 350.186 683.974 352.501C683.782 354.706 683.782 356.923 683.974 359.128C684.46 363.355 685.655 366.79 686.659 367.509C685.686 369.506 684.82 371.546 683.921 373.565C683.9 371.637 683.724 369.715 683.393 367.815C683.004 365.645 682.488 363.5 681.85 361.389C681.226 359.17 680.571 357.077 680.169 355.798C680.152 355.736 680.113 355.681 680.06 355.645C680.007 355.608 679.942 355.591 679.878 355.598C679.813 355.604 679.753 355.633 679.708 355.679C679.662 355.726 679.635 355.787 679.63 355.851C679.355 358.515 678.922 364.613 679.556 368.344C680.222 372.571 681.67 375.954 682.664 376.609C681.839 378.659 681.025 380.731 680.296 382.823C680.143 380.896 679.854 378.982 679.429 377.095C678.911 374.949 678.279 372.833 677.538 370.754C676.819 368.555 676.069 366.526 675.614 365.205C675.59 365.145 675.547 365.095 675.491 365.063C675.435 365.031 675.369 365.019 675.306 365.029C675.242 365.038 675.183 365.069 675.14 365.117C675.096 365.164 675.069 365.225 675.064 365.289C674.906 368.006 674.768 374.167 675.625 377.867C676.544 382.094 678.151 385.35 679.229 385.941C678.521 388.055 677.908 390.169 677.316 392.283C677.015 390.372 676.588 388.483 676.037 386.628C674.98 383.056 672.517 377.423 671.503 374.918C671.474 374.862 671.428 374.817 671.371 374.79C671.314 374.763 671.25 374.756 671.188 374.769C671.127 374.782 671.072 374.815 671.031 374.863C670.99 374.911 670.967 374.971 670.964 375.034C670.911 377.761 671.175 384.007 672.285 387.717C673.511 391.945 675.381 395.041 676.512 395.528C675.991 397.691 675.593 399.882 675.318 402.091C675.303 402.231 675.344 402.372 675.432 402.482C675.52 402.592 675.648 402.662 675.788 402.678C675.929 402.693 676.069 402.652 676.179 402.564C676.289 402.476 676.36 402.347 676.375 402.207C676.652 400.042 677.044 397.894 677.548 395.771C678.732 395.887 681.776 393.995 685.052 391.543C687.821 389.355 691.647 385.413 693.381 383.743C693.571 383.553 693.317 383.236 693.042 383.331C689.307 384.686 685.757 386.504 682.473 388.742C680.899 389.908 679.479 391.268 678.246 392.79C678.838 390.623 679.461 388.467 680.18 386.332C681.342 386.554 684.577 384.927 688.022 382.633C691.107 380.326 694.067 377.856 696.89 375.235C697.09 375.055 696.89 374.717 696.573 374.802C695.378 375.193 693.402 375.858 691.288 376.715C689.313 377.508 687.414 378.477 685.612 379.61C683.977 380.674 682.476 381.93 681.142 383.352C681.881 381.238 682.695 379.124 683.53 377.01C684.703 377.317 688.012 375.901 691.605 373.787C694.841 371.645 697.943 369.309 700.895 366.79C701.117 366.61 700.895 366.262 700.61 366.346C699.394 366.684 697.386 367.287 695.273 368.037C693.255 368.74 691.3 369.609 689.428 370.637C687.741 371.626 686.164 372.791 684.725 374.115C685.634 372.064 686.521 369.993 687.504 367.974C688.646 368.333 692.038 367.118 695.738 365.141C697.564 364.111 699.328 362.974 701.022 361.738C702.798 360.491 704.404 359.286 705.377 358.567C705.609 358.409 705.377 358.049 705.112 358.113C701.195 358.947 697.383 360.22 693.751 361.907C692.074 362.862 690.502 363.989 689.058 365.268C690.115 363.26 691.066 361.241 692.133 359.254C693.243 359.677 696.71 358.599 700.473 356.792C703.876 354.947 707.178 352.922 710.365 350.725C710.587 350.567 710.365 350.207 710.112 350.25C706.166 350.845 702.306 351.909 698.612 353.42C696.833 354.239 695.152 355.256 693.603 356.454C694.66 354.477 695.78 352.511 696.932 350.577C697.999 351.084 701.519 350.176 705.355 348.58Z" fill="#6F95C9"/>
<path d="M659.602 463.402H674.261C685.887 458.308 694.406 441.44 694.406 421.39C694.46 413.557 693.066 405.782 690.294 398.455H643.611C640.82 405.795 639.419 413.59 639.478 421.443C639.468 441.44 647.997 458.308 659.602 463.402Z" fill="#263238"/>
<path d="M369.871 106.008C390.476 106.008 407.18 89.3047 407.18 68.6995C407.18 48.0944 390.476 31.3906 369.871 31.3906C349.266 31.3906 332.562 48.0944 332.562 68.6995C332.562 89.3047 349.266 106.008 369.871 106.008Z" fill="#263238" stroke="#263238" stroke-miterlimit="10"/>
<path d="M369.871 101.781C388.141 101.781 402.952 86.9697 402.952 68.6995C402.952 50.4292 388.141 35.6182 369.871 35.6182C351.601 35.6182 336.79 50.4292 336.79 68.6995C336.79 86.9697 351.601 101.781 369.871 101.781Z" fill="white" stroke="#263238" stroke-miterlimit="10"/>
<path d="M369.871 72.1875C371.797 72.1875 373.359 70.626 373.359 68.6997C373.359 66.7735 371.797 65.2119 369.871 65.2119C367.945 65.2119 366.383 66.7735 366.383 68.6997C366.383 70.626 367.945 72.1875 369.871 72.1875Z" fill="#263238" stroke="#263238" stroke-miterlimit="10"/>
<path d="M386.148 68.6993H369.871L380.63 43.0059" stroke="#263238" stroke-miterlimit="10" stroke-linecap="round"/>
<path d="M10.5216 463.402H711.253" stroke="#263238" stroke-miterlimit="10" stroke-linecap="round"/>
<path d="M677.326 337.683L673.447 363.408L678.383 460.284" stroke="#263238" stroke-width="4" stroke-miterlimit="10" stroke-linecap="round"/>
<path d="M629.438 337.683L625.569 363.408L630.495 460.284" stroke="#263238" stroke-width="4" stroke-miterlimit="10" stroke-linecap="round"/>
<path d="M610.741 362.351L606.154 461.341" stroke="#263238" stroke-width="4" stroke-miterlimit="10" stroke-linecap="round"/>
<path d="M568.464 362.351L563.877 461.341" stroke="#263238" stroke-width="4" stroke-miterlimit="10" stroke-linecap="round"/>
<path d="M628.751 343.855H676.312C677.571 343.826 678.778 343.348 679.716 342.507C680.654 341.665 681.261 340.517 681.427 339.268L687.663 285.017C687.748 284.441 687.706 283.854 687.54 283.296C687.374 282.738 687.088 282.224 686.703 281.788C686.317 281.352 685.841 281.005 685.308 280.773C684.774 280.54 684.196 280.427 683.615 280.441H636.054C634.798 280.472 633.594 280.95 632.658 281.789C631.723 282.627 631.117 283.772 630.949 285.017L624.703 339.268C624.616 339.845 624.657 340.433 624.822 340.992C624.987 341.551 625.272 342.068 625.658 342.505C626.044 342.942 626.52 343.289 627.055 343.523C627.589 343.756 628.168 343.869 628.751 343.855Z" fill="#6F95C9" stroke="#263238" stroke-miterlimit="10" stroke-linecap="round"/>
<path d="M566.456 365.162H673.204C674.255 365.162 675.264 364.745 676.007 364.001C676.75 363.258 677.168 362.25 677.168 361.199C677.168 360.148 676.75 359.14 676.007 358.396C675.264 357.653 674.255 357.235 673.204 357.235H566.456C565.405 357.235 564.397 357.653 563.654 358.396C562.91 359.14 562.493 360.148 562.493 361.199C562.493 362.25 562.91 363.258 563.654 364.001C564.397 364.745 565.405 365.162 566.456 365.162Z" fill="#6F95C9" stroke="#263238" stroke-miterlimit="10" stroke-linecap="round"/>
<path d="M611.597 240.426C611.597 240.426 607.507 243.153 604.516 250.995C601.525 258.837 595.542 301.6 595.542 304.052C595.542 306.504 601.799 307.857 604.251 305.415C606.703 302.974 612.707 282.554 612.707 282.554L615.148 241.472C615.148 241.472 614.313 239.612 611.597 240.426Z" fill="white" stroke="#263238" stroke-miterlimit="10" stroke-linecap="round"/>
<path d="M611.597 240.426C611.597 240.426 607.507 243.153 604.516 250.995C603.617 253.362 602.402 258.869 601.26 265.474L613.246 273.021L615.127 241.472C615.127 241.472 614.313 239.612 611.597 240.426Z" fill="white" stroke="#263238" stroke-miterlimit="10" stroke-linecap="round"/>
<path d="M631.985 234.443C631.985 234.443 619.196 237.434 614.017 239.062C608.838 240.69 609.663 246.143 607.76 254.303C605.858 262.462 603.142 271.721 604.769 276.339C606.397 280.958 611.576 289.128 611.84 290.216C612.104 291.305 603.955 321.776 603.955 321.776C603.955 321.776 552.801 346.539 551.712 351.433C550.624 356.326 543.257 442.655 543.257 442.655C544.726 445.128 555.232 453.868 554.302 451.047C554.038 450.233 558.529 420.28 563.645 406.942C568.76 393.603 573.442 377.01 575.609 369.125C577.776 361.241 578.399 359.349 578.399 359.349L640.165 360.163C640.165 360.163 660.564 362.89 663.016 345.747C665.468 328.603 660.299 322.072 658.122 318.267C655.945 314.462 648.325 288.61 648.325 288.61C648.325 288.61 658.397 268.201 659.75 261.395C661.103 254.588 662.741 246.429 659.211 242.899C655.681 239.369 641.793 235.004 641.793 235.004L631.985 234.443Z" fill="#263238" stroke="#263238" stroke-miterlimit="10" stroke-linecap="round"/>
<path d="M657.15 316.069C654.264 308.723 648.325 288.589 648.325 288.589C648.325 288.589 658.397 268.18 659.75 261.373C661.103 254.567 662.741 246.408 659.211 242.877C655.681 239.347 641.793 234.982 641.793 234.982L631.995 234.443C631.995 234.443 619.207 237.434 614.028 239.062C608.849 240.69 609.673 246.143 607.771 254.303C605.868 262.462 603.152 271.721 604.78 276.339C606.407 280.958 611.586 289.128 611.851 290.216C612.051 291.009 607.834 307.19 605.509 316.069H657.15Z" fill="white" stroke="#263238" stroke-miterlimit="10" stroke-linecap="round"/>
<path d="M543.321 442.655C543.321 442.655 534.411 450.825 533.502 451.195C532.593 451.565 513.611 456.258 514.953 457.642C516.295 459.027 553.065 465.485 553.065 465.485L554.365 451.037L543.321 442.655Z" fill="white" stroke="#263238" stroke-miterlimit="10" stroke-linecap="round"/>
<path d="M648.895 263.012L652.986 296.199L620.877 331.574L609.99 337.291L608.363 341.91C608.363 341.91 619.513 339.469 622.24 337.831C624.715 336.175 627.077 334.356 629.311 332.387L665.468 306.504C665.468 306.504 665.193 257.526 664.918 251.544C664.643 245.562 656.463 240.658 653.218 240.658" fill="white"/>
<path d="M648.895 263.012L652.986 296.199L620.877 331.574L609.99 337.291L608.363 341.91C608.363 341.91 619.513 339.469 622.24 337.831C624.715 336.175 627.077 334.356 629.311 332.387L665.468 306.504C665.468 306.504 665.193 257.526 664.918 251.544C664.643 245.562 656.463 240.658 653.218 240.658" stroke="#263238" stroke-miterlimit="10" stroke-linecap="round"/>
<path d="M652.954 296.198L620.845 331.573L609.959 337.291L608.331 341.91C608.331 341.91 619.481 339.468 622.208 337.83C624.683 336.174 627.045 334.356 629.279 332.387L665.468 306.503C665.468 306.503 665.341 284.488 665.182 268.18L650.047 272.566L652.954 296.198Z" fill="white" stroke="#263238" stroke-miterlimit="10" stroke-linecap="round"/>
<path d="M596.356 296.991C596.356 296.991 595.299 305.7 595.543 307.867C595.786 310.033 608.056 333.18 608.331 334.533C608.606 335.885 615.402 340.251 615.951 341.064C616.501 341.878 623.836 343.791 623.836 343.791C623.836 343.791 625.738 340.525 624.111 337.534C622.483 334.543 612.411 331.542 612.411 331.542L606.693 301.885V297.53" fill="white"/>
<path d="M596.356 296.991C596.356 296.991 595.299 305.7 595.543 307.867C595.786 310.033 608.056 333.18 608.331 334.533C608.606 335.885 615.402 340.251 615.951 341.064C616.501 341.878 623.836 343.791 623.836 343.791C623.836 343.791 625.738 340.525 624.111 337.534C622.483 334.543 612.411 331.542 612.411 331.542L606.693 301.885V297.53" stroke="#263238" stroke-miterlimit="10" stroke-linecap="round"/>
<path d="M652.954 330.485C652.954 330.485 646.147 328.033 634.173 329.946C622.198 331.859 594.454 348.442 594.993 351.169C595.532 353.895 616.49 444.758 616.49 444.758L628.729 451.839C628.729 451.839 626.616 416.464 626.827 397.937C627.038 379.409 626.827 358.482 626.827 358.482C626.827 358.482 646.147 363.651 654.856 359.296C663.565 354.942 664.104 346.508 663.016 339.976C661.927 333.444 659.475 332.091 659.475 332.091" fill="#263238"/>
<path d="M652.954 330.485C652.954 330.485 646.147 328.033 634.173 329.946C622.198 331.859 594.454 348.442 594.993 351.169C595.532 353.895 616.49 444.758 616.49 444.758L628.729 451.839C628.729 451.839 626.616 416.464 626.827 397.937C627.038 379.409 626.827 358.482 626.827 358.482C626.827 358.482 646.147 363.651 654.856 359.296C663.565 354.942 664.104 346.508 663.016 339.976C661.927 333.444 659.475 332.091 659.475 332.091" stroke="#263238" stroke-miterlimit="10" stroke-linecap="round"/>
<path d="M616.491 444.758C616.491 444.758 609.42 454.555 608.595 455.105C607.771 455.655 590.099 464.078 591.685 465.167C593.27 466.255 630.6 465.167 630.6 465.167L628.962 450.751L616.491 444.758Z" fill="white" stroke="#263238" stroke-miterlimit="10" stroke-linecap="round"/>
<path d="M622.79 196.162C622.79 196.162 616.628 189.747 620.824 184.325C625.02 178.903 637.576 174.718 651.865 180.879C666.155 187.041 666.165 201.331 665.668 209.955C665.172 218.579 660.743 231.643 660.743 231.643C652.767 231.899 644.782 231.652 636.836 230.903C629.329 230.107 622.175 227.299 616.131 222.775C616.131 222.775 621.564 199.851 622.79 196.162Z" fill="#263238" stroke="#263238" stroke-miterlimit="10" stroke-linecap="round"/>
<path d="M629.448 226.96C629.448 226.96 628.951 232.879 628.212 236.567C627.472 240.256 626.975 252.833 627.968 253.827C628.962 254.82 634.13 252.093 638.073 246.185C640.313 243.004 641.904 239.413 642.755 235.616L645.217 226.495C645.217 226.495 634.373 229.423 629.448 226.96Z" fill="white" stroke="#263238" stroke-miterlimit="10" stroke-linecap="round"/>
<path d="M644.953 227.436L643.251 226.939C639.89 227.658 633.073 228.778 629.448 226.939C629.448 226.939 629.152 230.48 628.677 233.788C630.586 233.955 632.509 233.717 634.321 233.091C638.105 231.998 641.663 230.237 644.826 227.891L644.953 227.436Z" fill="#263238" stroke="#263238" stroke-miterlimit="10" stroke-linecap="round"/>
<path d="M624.766 197.642C624.766 197.642 621.437 212.438 622.906 218.103C624.375 223.768 626.584 231.463 633.982 231.463C641.381 231.463 648.367 225.417 649.836 221.232C651.305 217.046 653.123 204.046 653.123 204.046C653.123 204.046 634.099 206.509 624.766 197.642Z" fill="white" stroke="#263238" stroke-miterlimit="10" stroke-linecap="round"/>
<path d="M638.115 210.23C638.115 210.23 639.489 208.179 644.456 209.817" stroke="#263238" stroke-miterlimit="10" stroke-linecap="round"/>
<path d="M629.786 207.767C629.786 207.767 628.497 203.983 625.4 203.983" stroke="#263238" stroke-miterlimit="10" stroke-linecap="round"/>
<path d="M627.884 205.77C627.884 206.626 627.535 206.731 627.133 206.689C626.732 206.647 626.436 206.467 626.436 205.632C626.436 204.797 626.753 204.121 627.155 204.163C627.556 204.205 627.884 204.913 627.884 205.77Z" fill="#263238"/>
<path d="M640.535 210.325C640.377 211.202 640.112 211.224 639.7 211.224C639.288 211.224 638.886 211.224 639.045 210.325C639.203 209.427 639.679 208.719 640.102 208.719C640.525 208.719 640.704 209.469 640.535 210.325Z" fill="#263238"/>
<path d="M631.657 207.154C631.708 208.319 631.491 209.479 631.023 210.547C630.273 211.921 627.947 213.823 628.476 214.563C628.805 215.215 629.329 215.748 629.974 216.089C630.62 216.43 631.356 216.562 632.08 216.466" stroke="#263238" stroke-miterlimit="10" stroke-linecap="round"/>
<path d="M627.842 218.78C627.842 218.78 630.695 220.894 635.885 219.943" stroke="#263238" stroke-miterlimit="10" stroke-linecap="round"/>
<path d="M625.643 201.426C626.521 201.05 627.5 200.982 628.421 201.233C629.343 201.485 630.151 202.04 630.716 202.81" stroke="#263238" stroke-miterlimit="10" stroke-linecap="round"/>
<path d="M637.47 205.135C637.47 205.135 641.603 202.81 645.841 206.721" stroke="#263238" stroke-miterlimit="10" stroke-linecap="round"/>
<path d="M419.081 461.828L422.981 360.259" stroke="#263238" stroke-width="4" stroke-miterlimit="10" stroke-linecap="round"/>
<path d="M425.264 461.827L430.474 333.878" stroke="#263238" stroke-width="4" stroke-miterlimit="10" stroke-linecap="round"/>
<path d="M497.535 461.827L491.997 335.188" stroke="#263238" stroke-width="4" stroke-miterlimit="10" stroke-linecap="round"/>
<path d="M503.073 461.828L499.163 360.259" stroke="#263238" stroke-width="4" stroke-miterlimit="10" stroke-linecap="round"/>
<path d="M490.877 282.195H430.633C428.006 282.195 425.877 284.325 425.877 286.951V340.325C425.877 342.952 428.006 345.081 430.633 345.081H490.877C493.503 345.081 495.633 342.952 495.633 340.325V286.951C495.633 284.325 493.503 282.195 490.877 282.195Z" fill="#6F95C9" stroke="#263238" stroke-miterlimit="10" stroke-linecap="round"/>
<path d="M503.422 365.162H421.427C420.376 365.162 419.368 364.745 418.625 364.001C417.881 363.258 417.464 362.25 417.464 361.199C417.464 360.148 417.881 359.14 418.625 358.396C419.368 357.653 420.376 357.235 421.427 357.235H503.422C504.473 357.235 505.482 357.653 506.225 358.396C506.968 359.14 507.386 360.148 507.386 361.199C507.386 362.25 506.968 363.258 506.225 364.001C505.482 364.745 504.473 365.162 503.422 365.162Z" fill="#6F95C9" stroke="#263238" stroke-miterlimit="10" stroke-linecap="round"/>
<path d="M431.806 319.187C431.806 319.187 426.521 328.942 424.556 332.292C422.59 335.643 420.645 348.146 423.16 351.814C425.676 355.481 427.621 356.834 429.851 357.669C432.081 358.504 490.369 357.669 490.369 357.669C490.369 357.669 496.785 348.749 497.345 344.563C497.905 340.378 496.225 330.337 494.555 326.997C492.885 323.657 488.139 318.066 488.139 318.066L431.806 319.187Z" fill="white" stroke="#263238" stroke-miterlimit="10" stroke-linecap="round"/>
<path d="M512.681 273.74L535.552 240.267C535.552 240.267 537.497 231.632 537.782 229.117C538.068 226.602 539.452 225.217 541.408 223.832C543.435 222.463 545.303 220.871 546.978 219.087C548.098 217.692 548.933 219.372 548.373 221.317C547.812 223.262 545.868 224.107 545.033 224.667C544.198 225.228 543.638 227.458 543.638 227.458C543.638 227.458 553.393 223.832 555.348 222.712C557.304 221.592 561.478 215.462 561.764 218.485C562.049 221.507 558.139 231.041 557.304 231.601C556.469 232.161 541.682 242.751 541.682 242.751C541.682 242.751 525.512 285.979 523.831 289.604C522.151 293.229 519.931 296.019 519.096 296.019C518.261 296.019 501.805 285.45 501.805 285.45L512.374 272.619L512.681 273.74Z" fill="white" stroke="#263238" stroke-miterlimit="10" stroke-linecap="round"/>
<path d="M403.692 273.74L380.821 240.267C380.821 240.267 378.876 231.632 378.591 229.117C378.305 226.602 376.921 225.217 374.965 223.832C372.935 222.462 371.063 220.871 369.385 219.087C368.275 217.692 367.44 219.372 368 221.317C368.561 223.262 370.505 224.107 371.34 224.667C372.175 225.228 372.735 227.458 372.735 227.458C372.735 227.458 362.98 223.832 361.025 222.712C359.069 221.592 354.884 215.462 354.609 218.485C354.334 221.507 358.234 231.041 359.069 231.601C359.904 232.161 374.691 242.751 374.691 242.751C374.691 242.751 390.861 285.979 392.531 289.604C394.201 293.229 396.442 296.019 397.277 296.019C398.112 296.019 414.568 285.45 414.568 285.45L403.999 272.619L403.692 273.74Z" fill="white" stroke="#263238" stroke-miterlimit="10" stroke-linecap="round"/>
<path d="M450.196 236.314L425.655 243.005L403.692 272.852L413.733 291.253L429.343 277.872L432.969 312.444L430.464 321.956C430.464 321.956 429.629 322.791 445.26 325.856C460.892 328.921 465.342 327.811 473.152 326.691C480.963 325.571 491.003 321.956 491.003 321.956L488.213 309.96L492.948 279.838L505.504 293.504L514.15 272.027L496.024 243.026L468.967 236.336L450.196 236.314Z" fill="#263238" stroke="#263238" stroke-miterlimit="10" stroke-linecap="round"/>
<path d="M444.045 201.922C444.045 201.922 440.874 197.187 439.226 202.007C437.577 206.826 444.584 212.745 444.584 212.745L445.06 202.652" fill="white"/>
<path d="M444.045 201.922C444.045 201.922 440.874 197.187 439.226 202.007C437.577 206.826 444.584 212.745 444.584 212.745L445.06 202.652" stroke="#263238" stroke-miterlimit="10" stroke-linecap="round"/>
<path d="M452.437 232.415L449.932 234.634L446.582 240.204L447.427 260.011L462.763 249.695L476.143 260C476.143 260 474.199 237.414 474.199 236.019C474.199 234.624 471.123 232.394 469.178 231.273C467.234 230.153 452.437 232.415 452.437 232.415Z" fill="white" stroke="#263238" stroke-miterlimit="10" stroke-linecap="round"/>
<path d="M451.602 229.349C451.602 229.349 451.887 236.6 452.162 237.995C452.437 239.39 462.731 253.848 462.731 253.848L469.982 236.843L470.542 220.387L451.602 229.349Z" fill="white" stroke="#263238" stroke-miterlimit="10" stroke-linecap="round"/>
<path d="M451.919 235.49C453.35 235.658 454.799 235.572 456.199 235.237C463.439 233.598 467.403 226.834 467.403 226.834L458.821 225.946L451.602 229.35C451.602 229.35 451.739 232.88 451.919 235.49Z" fill="#263238" stroke="#263238" stroke-miterlimit="10" stroke-linecap="round"/>
<path d="M443.104 193.594C443.104 193.594 444.098 219.435 444.806 222.13C445.514 224.826 451.147 233.587 457.489 232.9C463.83 232.213 470.278 227.235 470.901 223.113C471.525 218.991 473.195 206.826 474.252 201.912C475.308 196.997 479.536 191.734 470.415 186.904C461.294 182.074 443.221 185.699 443.104 193.594Z" fill="white" stroke="#263238" stroke-miterlimit="10" stroke-linecap="round"/>
<path d="M449.456 206.901C449.393 207.958 448.854 208.856 448.23 208.825C447.607 208.793 447.173 207.873 447.226 206.785C447.279 205.696 447.839 204.829 448.463 204.861C449.086 204.893 449.52 205.812 449.456 206.901Z" fill="#263238"/>
<path d="M459.825 209.268C459.761 210.325 459.212 211.223 458.599 211.181C457.986 211.139 457.542 210.23 457.595 209.141C457.647 208.053 458.208 207.186 458.821 207.218C459.434 207.249 459.888 208.127 459.825 209.268Z" fill="#263238"/>
<path d="M451.771 204.84C451.541 207.25 451.16 209.643 450.63 212.006C449.964 214.437 447.628 214.923 449.065 216.561C450.503 218.199 453.071 218.041 455.682 217.618" stroke="#263238" stroke-miterlimit="10" stroke-linecap="round"/>
<path d="M448.822 219.9C448.822 219.9 452.331 222.722 459.645 221.052" stroke="#263238" stroke-miterlimit="10" stroke-linecap="round"/>
<path d="M446.243 202.271C446.243 202.271 449.626 200.549 450.693 202.694" stroke="#263238" stroke-miterlimit="10" stroke-linecap="round"/>
<path d="M456.157 203.846C456.157 203.846 460.321 202.525 463.556 207.017" stroke="#263238" stroke-miterlimit="10" stroke-linecap="round"/>
<path d="M469.083 197.135C469.083 197.135 455.164 199.45 448.6 198.129C442.037 196.807 436.161 191.079 439.194 186.196C442.227 181.313 459.698 176.166 466.578 177.255C473.459 178.343 480.181 180.542 480.466 187.644C480.752 194.746 477.75 208.391 477.75 208.391L475.562 209.733C475.562 209.733 472.582 205.316 471.208 205.094C469.834 204.872 465.733 202.251 469.083 197.135Z" fill="#263238" stroke="#263238" stroke-miterlimit="10" stroke-linecap="round"/>
<path d="M471.979 209.173C471.979 209.173 478.321 203.117 480.202 205.389C482.083 207.661 479.948 214.098 476.08 217.163C472.212 220.228 470.669 217.438 470.669 217.438" fill="white"/>
<path d="M471.979 209.173C471.979 209.173 478.321 203.117 480.202 205.389C482.083 207.661 479.948 214.098 476.08 217.163C472.212 220.228 470.669 217.438 470.669 217.438" stroke="#263238" stroke-miterlimit="10" stroke-linecap="round"/>
<path d="M459.846 445.202C459.846 445.202 450.968 341.15 447.026 333.751C443.083 326.353 432.599 322.929 422.896 331.024C413.194 339.12 419.377 353.843 421.469 364.571C423.562 375.298 439.257 439.22 439.257 439.22L459.846 445.202Z" fill="white" stroke="#263238" stroke-miterlimit="10" stroke-linecap="round"/>
<path d="M439.257 439.22L436.013 448.129C436.013 448.129 422.717 458.699 423.245 460.358C423.335 460.612 423.398 460.874 423.435 461.14C423.511 461.741 423.801 462.295 424.251 462.7C424.701 463.106 425.282 463.336 425.887 463.349H463.165C463.466 460.185 463.466 457 463.165 453.837C462.626 450.032 459.994 444.769 459.994 444.769L439.257 439.22Z" fill="#263238" stroke="#263238" stroke-miterlimit="10" stroke-linecap="round"/>
<path d="M463.386 459.819H423.372C423.264 459.977 423.219 460.169 423.245 460.358C423.335 460.612 423.398 460.874 423.435 461.14C423.511 461.742 423.801 462.295 424.251 462.701C424.701 463.106 425.282 463.336 425.887 463.349H463.165C463.165 463.349 463.323 461.87 463.386 459.819Z" fill="white" stroke="#263238" stroke-miterlimit="10" stroke-linecap="round"/>
<path d="M468.808 445.721C468.808 445.721 472.116 341.467 475.731 333.91C479.346 326.353 489.682 322.474 499.723 330.137C509.764 337.799 504.225 352.786 502.598 363.588C500.97 374.39 489.302 439.675 489.302 439.675L468.808 445.721Z" fill="white" stroke="#263238" stroke-miterlimit="10" stroke-linecap="round"/>
<path d="M489.302 439.675L492.473 448.13C492.473 448.13 505.779 458.699 505.24 460.359C505.155 460.614 505.092 460.875 505.05 461.141C504.974 461.743 504.683 462.299 504.231 462.704C503.778 463.11 503.195 463.339 502.587 463.35H465.3C464.998 460.186 464.998 457.001 465.3 453.837C465.839 450.033 468.47 444.769 468.47 444.769L489.302 439.675Z" fill="#263238" stroke="#263238" stroke-miterlimit="10" stroke-linecap="round"/>
<path d="M465.088 459.819H505.156C505.263 459.977 505.308 460.169 505.282 460.358C505.198 460.613 505.134 460.875 505.092 461.14C505.016 461.743 504.725 462.298 504.273 462.704C503.82 463.11 503.237 463.339 502.63 463.349H465.3C465.3 463.349 465.152 461.87 465.088 459.819Z" fill="white" stroke="#263238" stroke-miterlimit="10" stroke-linecap="round"/>
<path d="M414.124 140.252H363.667C361.607 140.252 359.631 141.07 358.174 142.527C356.717 143.984 355.899 145.96 355.899 148.02V175.014C355.899 177.074 356.717 179.05 358.174 180.507C359.631 181.964 361.607 182.782 363.667 182.782H396.526L418.489 198.297L412.147 182.782H414.082C416.142 182.782 418.118 181.964 419.575 180.507C421.031 179.05 421.85 177.074 421.85 175.014V148.02C421.85 145.967 421.037 143.998 419.59 142.542C418.142 141.086 416.177 140.263 414.124 140.252Z" fill="#6F95C9" stroke="#263238" stroke-miterlimit="10"/>
<path d="M376.752 161.179C376.764 161.719 376.615 162.25 376.323 162.704C376.031 163.159 375.61 163.515 375.114 163.728C374.617 163.941 374.069 164.001 373.538 163.899C373.008 163.798 372.52 163.54 372.137 163.159C371.755 162.778 371.495 162.291 371.391 161.761C371.288 161.231 371.345 160.682 371.556 160.185C371.767 159.688 372.122 159.265 372.575 158.971C373.028 158.678 373.559 158.526 374.099 158.537C374.796 158.55 375.462 158.832 375.956 159.325C376.45 159.817 376.735 160.481 376.752 161.179Z" fill="#263238"/>
<path d="M391.591 161.178C391.601 161.714 391.452 162.24 391.162 162.69C390.873 163.14 390.455 163.494 389.964 163.706C389.472 163.918 388.929 163.979 388.403 163.881C387.877 163.783 387.391 163.53 387.009 163.156C386.627 162.781 386.365 162.301 386.257 161.777C386.148 161.253 386.198 160.708 386.401 160.212C386.603 159.717 386.948 159.293 387.393 158.994C387.837 158.696 388.36 158.536 388.895 158.536C389.6 158.539 390.276 158.816 390.78 159.31C391.283 159.803 391.574 160.474 391.591 161.178Z" fill="#263238"/>
<path d="M406.44 161.179C406.442 161.715 406.285 162.239 405.989 162.686C405.692 163.132 405.27 163.481 404.775 163.687C404.28 163.893 403.735 163.947 403.209 163.843C402.683 163.739 402.2 163.481 401.821 163.102C401.442 162.723 401.184 162.24 401.08 161.714C400.976 161.189 401.031 160.644 401.237 160.149C401.443 159.654 401.791 159.232 402.238 158.935C402.684 158.639 403.209 158.481 403.745 158.483C404.459 158.486 405.143 158.771 405.648 159.276C406.153 159.781 406.437 160.465 406.44 161.179Z" fill="#263238"/>
<path d="M262.51 461.828L266.41 360.259" stroke="#263238" stroke-width="4" stroke-miterlimit="10" stroke-linecap="round"/>
<path d="M268.693 461.827L273.904 333.878" stroke="#263238" stroke-width="4" stroke-miterlimit="10" stroke-linecap="round"/>
<path d="M340.965 461.827L335.426 335.188" stroke="#263238" stroke-width="4" stroke-miterlimit="10" stroke-linecap="round"/>
<path d="M346.503 461.828L342.592 360.259" stroke="#263238" stroke-width="4" stroke-miterlimit="10" stroke-linecap="round"/>
<path d="M334.306 282.195H274.062C271.435 282.195 269.306 284.325 269.306 286.951V340.325C269.306 342.952 271.435 345.081 274.062 345.081H334.306C336.933 345.081 339.062 342.952 339.062 340.325V286.951C339.062 284.325 336.933 282.195 334.306 282.195Z" fill="#6F95C9" stroke="#263238" stroke-miterlimit="10" stroke-linecap="round"/>
<path d="M346.852 365.162H264.856C263.805 365.162 262.797 364.745 262.054 364.001C261.311 363.258 260.893 362.25 260.893 361.199C260.893 360.148 261.311 359.14 262.054 358.396C262.797 357.653 263.805 357.235 264.856 357.235H346.852C347.903 357.235 348.911 357.653 349.654 358.396C350.397 359.14 350.815 360.148 350.815 361.199C350.815 362.25 350.397 363.258 349.654 364.001C348.911 364.745 347.903 365.162 346.852 365.162Z" fill="#6F95C9" stroke="#263238" stroke-miterlimit="10" stroke-linecap="round"/>
<path d="M288.785 195.528C287.516 193.664 285.831 192.12 283.863 191.02C281.894 189.919 279.697 189.292 277.444 189.187C269.391 188.574 261.76 193.52 258.039 201.363C254.319 209.205 262.172 213.95 262.172 218.907C262.172 223.864 251.846 225.101 248.348 231.706C244.849 238.312 244.215 250.477 257.627 256.671C271.039 262.864 281.778 259.144 288.172 253.785C294.566 248.427 291.681 239.749 289.408 232.119C287.136 224.488 292.505 208.592 294.154 204.459C295.803 200.327 288.785 195.528 288.785 195.528Z" fill="#263238" stroke="#263238" stroke-miterlimit="10" stroke-linecap="round"/>
<path d="M272.878 291.707L266.294 316.544C266.294 316.544 262.595 320.772 258.103 319.451C253.611 318.13 254.139 312.581 254.404 311.524L261.538 282.987L272.878 291.707Z" fill="white" stroke="#263238" stroke-miterlimit="10" stroke-linecap="round"/>
<path d="M293.879 238.598C293.879 238.598 293.615 247.581 292.03 250.224C290.444 252.866 282.782 254.187 278.29 255.244C273.798 256.301 269.042 258.679 266.4 262.378C263.757 266.077 255.302 288.537 255.302 288.537L273.269 298.049L275.648 289.329L282.782 301.484C282.782 301.484 272.213 318.659 268.513 329.228C264.814 339.797 265.078 347.988 270.891 354.329C276.704 360.671 283.31 361.463 289.652 361.728C295.993 361.992 326.115 362.785 332.985 360.142C339.855 357.5 344.082 351.951 343.29 338.211C342.497 324.472 328.229 303.862 327.436 302.012C326.643 300.163 325.851 298.577 325.851 298.577L327.965 287.216L331.4 295.407L348.046 284.045C348.046 284.045 339.855 264.492 335.363 259.736C330.871 254.98 324.265 254.187 319.245 253.394C314.225 252.602 312.111 251.281 310.261 248.374C308.412 245.468 308.676 238.598 308.676 238.598H293.879Z" fill="white" stroke="#263238" stroke-miterlimit="10" stroke-linecap="round"/>
<path d="M308.665 239.591L301.267 238.598H293.869C293.869 238.598 293.869 240.077 293.668 241.99C295.665 243.639 300.887 247.708 304.057 248.078C305.989 248.234 307.933 248.022 309.786 247.455C308.97 244.916 308.591 242.257 308.665 239.591Z" fill="#263238" stroke="#263238" stroke-miterlimit="10" stroke-linecap="round"/>
<path d="M332.985 291.707L339.591 316.544C339.591 316.544 343.29 320.772 347.782 319.451C352.273 318.13 351.745 312.581 351.481 311.524L344.347 282.987L332.985 291.707Z" fill="white" stroke="#263238" stroke-miterlimit="10" stroke-linecap="round"/>
<path d="M343.29 338.211C342.497 324.472 328.229 303.862 327.436 302.012C326.643 300.163 325.851 298.577 325.851 298.577L327.965 287.216L331.4 295.407L348.046 284.045C348.046 284.045 339.855 264.492 335.363 259.736C332.139 256.322 327.827 254.959 323.737 254.166L318.664 274.004H285.9L279.621 254.98L278.237 255.286C273.745 256.343 268.989 258.721 266.347 262.42C263.704 266.12 255.302 288.537 255.302 288.537L273.269 298.049L275.648 289.329L282.782 301.484C282.782 301.484 272.213 318.659 268.513 329.228C264.814 339.797 265.078 347.988 270.891 354.329C276.704 360.671 283.31 361.464 289.652 361.728C295.993 361.992 326.115 362.785 332.985 360.142C339.855 357.5 344.082 351.951 343.29 338.211Z" fill="#263238" stroke="#263238" stroke-miterlimit="10" stroke-linecap="round"/>
<path d="M294.143 432.54C294.143 432.54 281.989 361.463 281.461 353.8C280.932 346.138 286.481 341.646 292.822 340.325C299.164 339.004 304.448 345.609 304.977 350.101C305.421 353.917 305.304 414.826 305.252 431.483C305.251 434.588 304.946 437.686 304.343 440.731C303.835 443.268 303.286 446.1 303.148 447.073C302.884 448.922 302.884 456.585 299.713 460.813C296.543 465.04 291.787 467.947 290.201 462.926C288.616 457.906 289.937 450.508 291.258 446.544C292.579 442.581 293.9 439.41 293.9 439.41L294.143 432.54Z" fill="white" stroke="#263238" stroke-miterlimit="10" stroke-linecap="round"/>
<path d="M302.863 443.373C301.013 448.129 299.692 451.829 295.729 452.093C291.765 452.357 291.237 446.544 291.237 446.544C289.916 450.507 288.595 457.906 290.18 462.926C291.765 467.946 296.522 465.04 299.692 460.812C302.863 456.585 302.863 448.922 303.127 447.072C303.265 446.132 303.814 443.299 304.322 440.731C304.438 440.15 304.533 439.558 304.628 438.977C304.015 440.477 303.391 442.01 302.863 443.373Z" fill="#263238" stroke="#263238" stroke-miterlimit="10" stroke-linecap="round"/>
<path d="M317.956 432.54C317.956 432.54 330.11 361.463 330.639 353.8C331.167 346.138 325.618 341.646 319.277 340.325C312.935 339.004 307.651 345.609 307.122 350.101C306.668 353.917 306.795 414.826 306.837 431.483C306.848 434.589 307.164 437.687 307.778 440.731C308.285 443.268 308.835 446.1 308.972 447.073C309.236 448.922 309.236 456.585 312.407 460.813C315.578 465.04 320.334 467.947 321.919 462.926C323.504 457.906 322.183 450.508 320.862 446.544C319.541 442.581 318.22 439.41 318.22 439.41L317.956 432.54Z" fill="white" stroke="#263238" stroke-miterlimit="10" stroke-linecap="round"/>
<path d="M309.236 443.373C311.086 448.129 312.407 451.829 316.37 452.093C320.334 452.357 320.862 446.544 320.862 446.544C322.183 450.507 323.504 457.906 321.919 462.926C320.334 467.946 315.578 465.04 312.407 460.812C309.236 456.585 309.236 448.922 308.972 447.072C308.834 446.132 308.285 443.299 307.778 440.731C307.661 440.15 307.556 439.558 307.46 438.977C308.084 440.477 308.697 442.01 309.236 443.373Z" fill="#263238" stroke="#263238" stroke-miterlimit="10" stroke-linecap="round"/>
<path d="M344.082 309.938L313.168 331.869C313.168 331.869 308.148 333.983 307.619 334.776C307.091 335.569 303.92 342.967 304.713 344.288C305.505 345.609 307.069 348.019 307.069 348.019C307.926 347.072 308.638 346.003 309.183 344.848C309.448 343.791 314.204 341.149 315.261 338.771C316.317 336.393 318.167 333.222 318.167 333.222C318.167 333.222 341.683 324.503 344.326 322.653C346.968 320.804 351.724 319.747 351.724 314.198" fill="white"/>
<path d="M344.082 309.938L313.168 331.869C313.168 331.869 308.148 333.983 307.619 334.776C307.091 335.569 303.92 342.967 304.713 344.288C305.505 345.609 307.069 348.019 307.069 348.019C307.926 347.072 308.638 346.003 309.183 344.848C309.448 343.791 314.204 341.149 315.261 338.771C316.317 336.393 318.167 333.222 318.167 333.222C318.167 333.222 341.683 324.503 344.326 322.653C346.968 320.804 351.724 319.747 351.724 314.198" stroke="#263238" stroke-miterlimit="10" stroke-linecap="round"/>
<path d="M261.453 309.675L294.534 328.171C294.534 328.171 299.756 329.735 300.369 330.464C300.982 331.194 304.924 338.211 304.269 339.607L302.43 343.612C301.431 342.747 300.566 341.739 299.861 340.621C299.491 339.564 294.471 337.45 293.171 335.231C291.871 333.011 289.683 330.02 289.683 330.02C289.683 330.02 265.374 323.869 262.542 322.315C259.709 320.762 254.879 320.202 254.287 314.695" fill="white"/>
<path d="M261.453 309.675L294.534 328.171C294.534 328.171 299.756 329.735 300.369 330.464C300.982 331.194 304.924 338.211 304.269 339.607L302.43 343.612C301.431 342.747 300.566 341.739 299.861 340.621C299.491 339.564 294.471 337.45 293.171 335.231C291.871 333.011 289.683 330.02 289.683 330.02C289.683 330.02 265.374 323.869 262.542 322.315C259.709 320.762 254.879 320.202 254.287 314.695" stroke="#263238" stroke-miterlimit="10" stroke-linecap="round"/>
<path d="M296.543 193.784C295.792 193.996 295.042 194.197 294.281 194.366C291.509 194.933 288.994 196.382 287.114 198.497C285.234 200.611 284.088 203.278 283.849 206.097C282.792 214.69 284.261 225.745 287.326 232.816C290.391 239.887 301.13 246.556 307.281 243.797C313.432 241.039 316.983 233.017 316.983 223.483C316.983 213.95 317.258 205.896 312.956 200.052C308.961 194.609 302.282 192.199 296.543 193.784Z" fill="white" stroke="#263238" stroke-miterlimit="10" stroke-linecap="round"/>
<path d="M312.956 200.031C308.961 194.609 302.282 192.199 296.543 193.784C295.792 193.996 295.042 194.197 294.281 194.366C291.509 194.933 288.994 196.382 287.114 198.497C285.234 200.612 284.088 203.278 283.849 206.097C283.354 210.868 283.443 215.68 284.113 220.429L284.219 220.366C284.219 220.366 286.777 218.717 286.777 216.138C286.777 213.559 286.417 207.355 291.723 203.688C297.029 200.02 305.463 199.851 308.75 200.76C312.037 201.669 313.876 202.05 315.704 206.806L316.265 208.264C315.814 205.301 314.682 202.482 312.956 200.031Z" fill="#263238" stroke="#263238" stroke-miterlimit="10" stroke-linecap="round"/>
<path d="M286.967 221.634C286.967 221.634 282.94 216.138 280.921 219.615C278.903 223.092 281.471 227.848 283.299 228.947C285.128 230.047 286.777 226.39 286.777 226.39" fill="white"/>
<path d="M286.967 221.634C286.967 221.634 282.94 216.138 280.921 219.615C278.903 223.092 281.471 227.848 283.299 228.947C285.128 230.047 286.777 226.39 286.777 226.39" stroke="#263238" stroke-miterlimit="10" stroke-linecap="round"/>
<path d="M298.033 220.863C298.617 220.863 299.09 220.025 299.09 218.992C299.09 217.959 298.617 217.121 298.033 217.121C297.449 217.121 296.976 217.959 296.976 218.992C296.976 220.025 297.449 220.863 298.033 220.863Z" fill="#263238"/>
<path d="M308.93 219.837C309.513 219.837 309.987 219 309.987 217.966C309.987 216.933 309.513 216.096 308.93 216.096C308.346 216.096 307.873 216.933 307.873 217.966C307.873 219 308.346 219.837 308.93 219.837Z" fill="#263238"/>
<path d="M305.273 215.409C305.273 215.409 305.632 219.436 306.33 220.694C307.027 221.951 310.726 222.343 309.078 224.351C308.808 224.708 308.469 225.007 308.08 225.229C307.691 225.451 307.262 225.592 306.817 225.644C306.373 225.695 305.922 225.656 305.493 225.528C305.064 225.4 304.666 225.187 304.322 224.9" stroke="#263238" stroke-miterlimit="10" stroke-linecap="round"/>
<path d="M300.326 228.039C301.727 228.784 303.307 229.126 304.89 229.029C306.474 228.932 308 228.399 309.3 227.489" stroke="#263238" stroke-miterlimit="10" stroke-linecap="round"/>
<path d="M292.822 214.669C292.822 214.669 296.12 210.832 300.326 213.21" stroke="#263238" stroke-miterlimit="10" stroke-linecap="round"/>
<path d="M305.452 212.841C305.452 212.841 309.3 210.103 312.037 213.21" stroke="#263238" stroke-miterlimit="10" stroke-linecap="round"/>
<path d="M80.4468 337.683L84.3151 363.408L79.3899 460.284" stroke="#263238" stroke-width="4" stroke-miterlimit="10" stroke-linecap="round"/>
<path d="M129.551 337.683L133.43 363.408L128.494 460.284" stroke="#263238" stroke-width="4" stroke-miterlimit="10" stroke-linecap="round"/>
<path d="M147.022 362.351L151.609 461.341" stroke="#263238" stroke-width="4" stroke-miterlimit="10" stroke-linecap="round"/>
<path d="M189.298 362.351L193.885 461.341" stroke="#263238" stroke-width="4" stroke-miterlimit="10" stroke-linecap="round"/>
<path d="M129.012 343.855H81.4509C80.1933 343.823 78.9883 343.344 78.0525 342.503C77.1168 341.662 76.5117 340.515 76.346 339.268L70.0997 285.017C70.0149 284.441 70.0568 283.854 70.2226 283.296C70.3884 282.738 70.6741 282.224 71.0597 281.788C71.4452 281.352 71.9213 281.005 72.4547 280.773C72.9881 280.54 73.5659 280.427 74.1477 280.441H121.709C122.965 280.472 124.168 280.95 125.104 281.789C126.039 282.627 126.646 283.772 126.813 285.017L133.06 339.268C133.146 339.845 133.106 340.433 132.941 340.992C132.776 341.551 132.49 342.068 132.104 342.505C131.719 342.942 131.242 343.289 130.708 343.523C130.173 343.756 129.595 343.869 129.012 343.855Z" fill="#6F95C9" stroke="#263238" stroke-miterlimit="10" stroke-linecap="round"/>
<path d="M191.327 365.162H84.5794C83.5282 365.162 82.5201 364.745 81.7768 364.001C81.0335 363.258 80.616 362.25 80.616 361.199C80.616 360.148 81.0335 359.14 81.7768 358.396C82.5201 357.653 83.5282 357.235 84.5794 357.235H191.327C192.378 357.235 193.387 357.653 194.13 358.396C194.873 359.14 195.291 360.148 195.291 361.199C195.291 362.25 194.873 363.258 194.13 364.001C193.387 364.745 192.378 365.162 191.327 365.162Z" fill="#6F95C9" stroke="#263238" stroke-miterlimit="10" stroke-linecap="round"/>
<path d="M132.32 254.187C132.32 254.187 140.247 257.093 141.832 260.792C143.418 264.491 153.204 306.768 153.204 306.768L188.875 314.43L184.912 319.715L143.428 320.243L132.32 254.187Z" fill="white" stroke="#263238" stroke-miterlimit="10" stroke-linecap="round"/>
<path d="M139.232 295.321L149.875 292.616C146.884 279.933 142.804 263.075 141.832 260.792C140.247 257.093 132.32 254.187 132.32 254.187L139.232 295.321Z" fill="#263238" stroke="#263238" stroke-miterlimit="10" stroke-linecap="round"/>
<path d="M97.1883 248.902L75.5216 260.792C75.5216 260.792 81.8631 308.882 83.7127 321.036C85.5623 333.191 87.4118 342.174 92.6964 344.024C97.9809 345.874 141.05 335.833 143.957 334.776C146.863 333.719 145.806 324.471 144.485 319.715C143.164 314.959 136.03 263.699 135.765 259.471C135.501 255.244 132.066 253.13 126.518 251.016C120.969 248.902 107.229 248.109 103.001 248.109C98.7736 248.109 97.1883 248.902 97.1883 248.902Z" fill="#263238" stroke="#263238" stroke-miterlimit="10" stroke-linecap="round"/>
<path d="M97.1883 248.902L91.0476 252.274L114.617 282.195L123.822 250.234C117.386 248.712 106.637 248.12 102.991 248.12C98.763 248.11 97.1883 248.902 97.1883 248.902Z" fill="white" stroke="#263238" stroke-miterlimit="10" stroke-linecap="round"/>
<path d="M93.4785 239.389L95.3281 251.016L112.767 274.796L118.316 249.959V238.068L93.4785 239.389Z" fill="white" stroke="#263238" stroke-miterlimit="10" stroke-linecap="round"/>
<path d="M85.5622 199.492C85.5622 199.492 84.2305 195.528 78.6817 195.528C73.1329 195.528 67.5947 201.87 67.5947 208.211C67.5672 209.444 67.7986 210.669 68.274 211.807C68.7495 212.944 69.4583 213.97 70.3548 214.817C71.2513 215.663 72.3155 216.312 73.4785 216.722C74.6416 217.132 75.8777 217.293 77.1069 217.195C81.3346 216.931 83.7126 215.345 84.7695 211.91C85.8264 208.475 85.5622 199.492 85.5622 199.492Z" fill="#263238" stroke="#263238" stroke-miterlimit="10" stroke-linecap="round"/>
<path d="M87.3907 194.862C84.7632 198.014 83.2312 201.935 83.0256 206.034C82.6663 212.935 86.6508 225.269 87.7395 230.712C88.8281 236.156 92.9606 244.685 105.707 246.503C118.453 248.321 122.617 232.89 122.617 227.806C122.617 222.722 120.081 207.492 117.904 200.96C115.726 194.429 112.461 189.715 104.84 188.986C97.2199 188.256 91.65 190.423 87.3907 194.862Z" fill="white" stroke="#263238" stroke-miterlimit="10" stroke-linecap="round"/>
<path d="M122.554 227.806C122.338 223.549 121.833 219.312 121.043 215.123C121.148 216.381 121.339 218.294 121.73 221.169C122.522 226.982 121.201 227.774 121.201 227.774C121.201 227.774 118.823 223.811 111.161 222.49C103.498 221.169 94.5143 232.266 93.7216 232.266C92.9289 232.266 92.6647 231.209 91.6078 227.774C90.5508 224.339 87.3801 217.47 88.437 214.299C89.4939 211.128 89.4939 210.6 87.9086 207.693C86.3232 204.787 85.5305 203.73 90.0224 200.041C95.3069 195.687 104.523 195.179 111.161 194.883C112.688 194.684 114.239 194.988 115.578 195.75C114.511 193.795 112.959 192.147 111.071 190.965C109.183 189.782 107.023 189.104 104.798 188.996C97.1777 188.267 91.65 190.434 87.3907 194.873C84.7632 198.025 83.2312 201.946 83.0256 206.044C82.6663 212.946 86.6508 225.28 87.7395 230.723C88.8281 236.166 92.9606 244.696 105.707 246.513C118.453 248.331 122.554 232.89 122.554 227.806Z" fill="#263238" stroke="#263238" stroke-miterlimit="10" stroke-linecap="round"/>
<path d="M114.881 227.499C110.817 228.968 106.519 229.684 102.198 229.613" stroke="white" stroke-miterlimit="10" stroke-linecap="round"/>
<path d="M109.871 211.117L111.192 220.894C111.192 220.894 108.022 225.385 104.058 219.837" stroke="#263238" stroke-miterlimit="10" stroke-linecap="round"/>
<path d="M103.783 207.683C103.561 207.926 96.385 205.569 94.5354 211.646" stroke="#263238" stroke-width="2" stroke-miterlimit="10" stroke-linecap="round"/>
<path d="M110.125 206.625C110.125 206.625 114.881 202.926 118.58 207.947" stroke="#263238" stroke-width="2" stroke-miterlimit="10" stroke-linecap="round"/>
<path d="M100.475 215.609C101.135 215.609 101.669 214.663 101.669 213.496C101.669 212.328 101.135 211.382 100.475 211.382C99.8156 211.382 99.2809 212.328 99.2809 213.496C99.2809 214.663 99.8156 215.609 100.475 215.609Z" fill="#263238"/>
<path d="M114.881 214.552C115.541 214.552 116.075 213.605 116.075 212.438C116.075 211.271 115.541 210.324 114.881 210.324C114.221 210.324 113.687 211.271 113.687 212.438C113.687 213.605 114.221 214.552 114.881 214.552Z" fill="#263238"/>
<path d="M84.2305 217.723C84.2305 217.723 80.0029 214.553 79.7386 220.63C79.6153 222.556 80.1492 224.468 81.2531 226.052C82.357 227.636 83.9656 228.798 85.8159 229.349C87.137 229.613 87.4012 227.764 87.4012 227.764L84.2305 217.723Z" fill="white" stroke="#263238" stroke-miterlimit="10" stroke-linecap="round"/>
<path d="M78.4175 259.471C78.4175 259.471 70.4907 262.377 68.1127 264.227C65.7346 266.076 62.4688 273.559 64.6883 289.846C65.4704 295.606 71.2834 335.568 71.2834 335.568L136.283 332.133L147.117 328.434L87.137 318.658L82.3915 273.739" fill="#263238"/>
<path d="M78.4175 259.471C78.4175 259.471 70.4907 262.377 68.1127 264.227C65.7346 266.076 62.4688 273.559 64.6883 289.846C65.4704 295.606 71.2834 335.568 71.2834 335.568L136.283 332.133L147.117 328.434L87.137 318.658L82.3915 273.739" stroke="#263238" stroke-miterlimit="10" stroke-linecap="round"/>
<path d="M71.2834 335.568L136.283 332.133L147.117 328.434L87.137 318.657L84.5053 298.101L65.9565 299.718C67.024 314.292 71.2834 335.568 71.2834 335.568Z" fill="white" stroke="#263238" stroke-miterlimit="10" stroke-linecap="round"/>
<path d="M86.6191 336.097C86.6191 336.097 90.8468 353.007 96.924 358.292C103.001 363.577 113.57 362.784 123.611 362.784C133.652 362.784 155.583 356.971 156.375 356.971C157.168 356.971 193.896 366.219 193.896 366.219L182.534 449.979L198.916 453.15C198.916 453.15 221.904 370.975 221.904 369.125C221.904 367.276 227.188 359.877 218.204 348.516C209.221 337.154 165.095 333.719 155.318 331.341C145.542 328.963 86.6191 336.097 86.6191 336.097Z" fill="white" stroke="#263238" stroke-miterlimit="10" stroke-linecap="round"/>
<path d="M175.843 342.364L162.442 358.218L156.375 356.971L148.713 358.82C148.713 358.82 148.332 355.776 153.627 349.424C158.922 343.072 175.843 342.364 175.843 342.364Z" fill="#263238"/>
<path d="M182.523 449.979L179.881 463.455C179.881 463.455 193.356 466.626 197.056 467.419C200.755 468.211 212.645 467.683 215.287 467.419C217.93 467.154 213.438 464.512 211.852 463.719C210.267 462.927 198.113 455.528 198.113 455.528L198.905 453.15L182.523 449.979Z" fill="white" stroke="#263238" stroke-miterlimit="10" stroke-linecap="round"/>
<path d="M103.53 340.589C103.53 340.589 155.318 319.577 160.603 317.601C171.965 313.373 187.987 314.493 190.196 314.958C195.217 316.015 242.249 363.312 242.249 363.312L232.209 372.296L183.855 338.475C183.855 338.475 155.583 355.385 148.713 358.82C141.843 362.255 126.518 364.369 115.156 363.576C103.794 362.784 96.6598 356.971 94.8102 353.271C92.9606 349.572 93.7533 347.194 93.7533 347.194" fill="white"/>
<path d="M103.53 340.589C103.53 340.589 155.318 319.577 160.603 317.601C171.965 313.373 187.987 314.493 190.196 314.958C195.217 316.015 242.249 363.312 242.249 363.312L232.209 372.296L183.855 338.475C183.855 338.475 155.583 355.385 148.713 358.82C141.843 362.255 126.518 364.369 115.156 363.576C103.794 362.784 96.6598 356.971 94.8102 353.271C92.9606 349.572 93.7533 347.194 93.7533 347.194" stroke="#263238" stroke-miterlimit="10" stroke-linecap="round"/>
<path d="M232.198 372.296L245.674 384.715C245.674 384.715 271.304 357.764 272.096 356.707C272.889 355.65 275.267 351.158 273.682 351.158C272.096 351.158 244.881 364.105 244.881 364.105L242.239 363.313L232.198 372.296Z" fill="white" stroke="#263238" stroke-miterlimit="10" stroke-linecap="round"/>
<path d="M188.865 314.431C188.865 314.431 201.019 315.223 201.548 316.28C202.076 317.337 206.568 323.679 206.832 325.528C207 326.843 207.088 328.166 207.096 329.492C207.096 329.492 197.056 323.943 196.527 322.622C196.128 321.331 195.862 320.003 195.735 318.658L188.865 314.431Z" fill="white" stroke="#263238" stroke-miterlimit="10" stroke-linecap="round"/>
<path d="M651.548 49.7598L625.041 76.5947H690.326L663.819 49.7598H651.548Z" fill="#263238" stroke="#263238" stroke-miterlimit="10"/>
<path d="M663.692 46.1865H651.548V49.7589H663.692V46.1865Z" fill="#263238" stroke="#263238" stroke-miterlimit="10"/>
<path d="M657.53 46.187V0" stroke="#263238" stroke-miterlimit="10"/>
<path d="M74.4752 49.7598L47.9679 76.5947H113.253L86.7459 49.7598H74.4752Z" fill="#263238" stroke="#263238" stroke-miterlimit="10"/>
<path d="M86.6191 46.1865H74.4752V49.7589H86.6191V46.1865Z" fill="#263238" stroke="#263238" stroke-miterlimit="10"/>
<path d="M80.4573 46.187V0" stroke="#263238" stroke-miterlimit="10"/>
</svg>
