<svg width="215" height="135" viewBox="0 0 215 135" fill="none" xmlns="http://www.w3.org/2000/svg">
<g clip-path="url(#clip0_902_20573)">
<mask id="mask0_902_20573" style="mask-type:luminance" maskUnits="userSpaceOnUse" x="0" y="1" width="215" height="134">
<path d="M214.117 1.41846H0.16748V134.673H214.117V1.41846Z" fill="white"/>
</mask>
<g mask="url(#mask0_902_20573)">
<path opacity="0.5" d="M53.3806 13.0767V69.5074C53.3806 71.9255 54.5155 74.2448 56.5356 75.9551C58.5557 77.6647 61.2955 78.6258 64.1523 78.6258L172.998 79.0077C174.415 79.0111 175.819 78.7783 177.13 78.3213C178.44 77.8647 179.631 77.1935 180.635 76.3466C181.639 75.4997 182.435 74.4934 182.979 73.3849C183.522 72.277 183.802 71.0888 183.802 69.8893V13.4589L53.3806 13.0767Z" fill="#9CE5E5"/>
<path d="M16.2926 133.471H9.391C5.19841 133.471 1.84436 129.732 1.84436 124.872V26.8897C1.84436 22.1121 5.0694 18.29 9.391 18.29H16.2926C12.1323 18.29 8.74599 22.1121 8.74599 26.8897V124.872C8.58474 129.732 11.971 133.471 16.2926 133.471Z" fill="#D8EAFF"/>
<path d="M177.804 134.617H160.292C160.09 134.643 159.883 134.632 159.687 134.584C159.49 134.536 159.308 134.453 159.153 134.341C158.998 134.228 158.874 134.088 158.789 133.931C158.703 133.774 158.659 133.602 158.659 133.429C158.659 133.257 158.703 133.085 158.789 132.928C158.874 132.771 158.998 132.631 159.153 132.519C159.308 132.406 159.49 132.323 159.687 132.275C159.883 132.227 160.09 132.216 160.292 132.242H177.804C180.121 132.242 182.345 131.463 183.984 130.075C185.623 128.687 186.543 126.805 186.543 124.843V26.8341C186.543 25.8626 186.318 24.9005 185.879 24.0028C185.439 23.1052 184.795 22.2896 183.984 21.6026C183.172 20.9156 182.208 20.3706 181.148 19.9988C180.088 19.627 178.951 19.4357 177.804 19.4357C177.428 19.4357 177.066 19.3091 176.8 19.0838C176.534 18.8585 176.384 18.553 176.384 18.2344C176.384 17.9158 176.534 17.6103 176.8 17.385C177.066 17.1598 177.428 17.0332 177.804 17.0332C179.324 17.0332 180.829 17.2867 182.234 17.7793C183.639 18.2718 184.915 18.9937 185.991 19.9038C187.066 20.8139 187.918 21.8944 188.5 23.0835C189.082 24.2726 189.382 25.5471 189.382 26.8341V124.843C189.382 126.129 189.082 127.403 188.5 128.59C187.918 129.777 187.064 130.856 185.989 131.764C184.913 132.672 183.637 133.392 182.232 133.881C180.827 134.371 179.322 134.62 177.804 134.617Z" fill="#0D345F"/>
<path d="M150.583 13.9551H45.9945C45.6096 13.9551 45.2404 13.8257 44.9683 13.5953C44.6961 13.3649 44.5432 13.0524 44.5432 12.7266C44.5432 12.4007 44.6961 12.0883 44.9683 11.8579C45.2404 11.6275 45.6096 11.498 45.9945 11.498H150.583C150.968 11.498 151.337 11.6275 151.609 11.8579C151.881 12.0883 152.034 12.4007 152.034 12.7266C152.034 13.0524 151.881 13.3649 151.609 13.5953C151.337 13.8257 150.968 13.9551 150.583 13.9551Z" fill="#0D345F"/>
<path d="M44.6726 19.4882H37.3518C36.9754 19.4882 36.6145 19.3617 36.3484 19.1364C36.0823 18.9112 35.9328 18.6056 35.9328 18.287C35.9284 18.1282 35.9621 17.9704 36.0318 17.8229C36.1015 17.6755 36.2059 17.5416 36.3386 17.4293C36.4712 17.317 36.6294 17.2287 36.8036 17.1696C36.9778 17.1106 37.1642 17.082 37.3518 17.0858H44.6726C45.049 17.0858 45.4099 17.2123 45.676 17.4376C45.9421 17.6629 46.0916 17.9684 46.0916 18.287C46.0916 18.6056 45.9421 18.9112 45.676 19.1364C45.4099 19.3617 45.049 19.4882 44.6726 19.4882Z" fill="#0D345F"/>
<path d="M173.771 24.2212H23.4197C19.8218 24.2212 16.9052 26.6903 16.9052 29.736V121.767C16.9052 124.812 19.8218 127.281 23.4197 127.281H173.771C177.369 127.281 180.286 124.812 180.286 121.767V29.736C180.286 26.6903 177.369 24.2212 173.771 24.2212Z" fill="#6F95C9"/>
<path opacity="0.5" d="M202.024 77.1796C201.177 78.7989 199.794 80.1763 198.043 81.1453C196.292 82.1143 194.247 82.6335 192.155 82.6397L83.277 82.2301C80.4231 82.2233 77.688 81.26 75.6697 79.5515C73.6513 77.8429 72.514 75.5282 72.5054 73.1117V18.729H78.4722V71.5009C78.4802 73.01 79.1944 74.4541 80.4578 75.518C81.7206 76.5824 83.4299 77.1796 85.2126 77.1796H202.024Z" fill="#034094"/>
<path d="M17.2589 65.4686C17.1339 65.4805 17.0074 65.4692 16.8879 65.4359C16.7685 65.4025 16.6591 65.3477 16.5672 65.2748C16.4752 65.2025 16.403 65.1138 16.3553 65.0149C16.3078 64.9166 16.2859 64.8104 16.2913 64.7042V29.5955C16.2828 28.7617 16.4704 27.9348 16.8434 27.1631C17.2163 26.3914 17.7672 25.6902 18.4636 25.1006C19.1602 24.511 19.9884 24.0447 20.9001 23.729C21.8117 23.4133 22.7885 23.2545 23.7735 23.2618H51.2509C51.3707 23.2579 51.4901 23.275 51.6017 23.3121C51.7133 23.3492 51.8147 23.4053 51.8995 23.4771C51.9842 23.5489 52.0506 23.6347 52.0944 23.7291C52.1382 23.8236 52.1584 23.9247 52.1539 24.0261C52.1539 24.2289 52.0588 24.4233 51.8894 24.5667C51.7201 24.7101 51.4904 24.7906 51.2509 24.7906H23.7735C22.2852 24.7906 20.8579 25.291 19.8055 26.1819C18.7531 27.0727 18.1619 28.281 18.1619 29.5409V64.7042C18.1619 64.907 18.0668 65.1014 17.8974 65.2449C17.728 65.3878 17.4984 65.4686 17.2589 65.4686Z" fill="#0D345F"/>
<path d="M174.127 127.88H23.7749C22.7899 127.888 21.8131 127.729 20.9014 127.413C19.9898 127.097 19.1615 126.631 18.465 126.041C17.7685 125.452 17.2178 124.751 16.8448 123.979C16.4718 123.207 16.2842 122.38 16.2928 121.547V86.6292C16.2928 86.5286 16.3161 86.4292 16.3615 86.3365C16.4069 86.2439 16.4734 86.1597 16.5573 86.0885C16.6411 86.0179 16.7406 85.9614 16.8502 85.923C16.9597 85.8845 17.0772 85.8648 17.1958 85.8648C17.4327 85.8716 17.6577 85.954 17.8254 86.0959C17.993 86.2382 18.0908 86.4286 18.0988 86.6292V121.547C18.0988 122.806 18.69 124.015 19.7424 124.906C20.7948 125.797 22.2221 126.297 23.7104 126.297H174.127C175.615 126.297 177.042 125.797 178.095 124.906C179.147 124.015 179.738 122.806 179.738 121.547V82.6161C179.734 82.5144 179.754 82.4132 179.797 82.3189C179.841 82.2245 179.908 82.1387 179.992 82.0669C180.077 81.9951 180.179 81.9392 180.291 81.9019C180.402 81.8646 180.522 81.8477 180.641 81.8516C180.878 81.8584 181.103 81.9409 181.271 82.0827C181.439 82.2251 181.536 82.4155 181.544 82.6161V121.547C181.553 122.376 181.367 123.198 180.998 123.966C180.629 124.735 180.084 125.433 179.394 126.022C178.705 126.611 177.885 127.078 176.98 127.397C176.076 127.716 175.106 127.88 174.127 127.88Z" fill="#0D345F"/>
<path d="M17.2589 82.5291C17.1339 82.5409 17.0074 82.5296 16.8879 82.4963C16.7685 82.463 16.6591 82.4076 16.5672 82.3353C16.4752 82.2624 16.403 82.1737 16.3553 82.0754C16.3078 81.9771 16.2859 81.8709 16.2913 81.7647V73.7655C16.2869 73.6638 16.3071 73.5627 16.3509 73.4683C16.3947 73.3739 16.461 73.2881 16.5458 73.2163C16.6305 73.1446 16.7319 73.0881 16.8435 73.0513C16.9552 73.014 17.0746 72.9971 17.1944 73.001C17.4338 73.001 17.6636 73.0813 17.8329 73.2248C18.0022 73.3683 18.0974 73.5627 18.0974 73.7655V81.7647C18.098 81.9579 18.0118 82.1449 17.8561 82.2867C17.7005 82.4285 17.487 82.515 17.2589 82.5291Z" fill="#0D345F"/>
<path opacity="0.35" d="M118.397 113.16C119.27 113.16 119.977 112.561 119.977 111.822C119.977 111.084 119.27 110.485 118.397 110.485C117.524 110.485 116.816 111.084 116.816 111.822C116.816 112.561 117.524 113.16 118.397 113.16Z" fill="#034094"/>
<path opacity="0.5" d="M173.772 121.023H124.234C124.25 120.923 124.25 120.823 124.234 120.723C124.234 120.172 123.977 119.645 123.517 119.256C123.057 118.867 122.434 118.648 121.784 118.648C121.134 118.648 120.51 118.867 120.05 119.256C119.591 119.645 119.333 120.172 119.333 120.723C119.333 120.723 119.333 120.914 119.333 121.023H115.624C115.711 120.812 115.765 120.592 115.785 120.368C115.785 119.724 115.482 119.106 114.945 118.65C114.406 118.194 113.676 117.938 112.915 117.938C112.153 117.938 111.424 118.194 110.885 118.65C110.347 119.106 110.044 119.724 110.044 120.368C110.011 120.585 110.011 120.806 110.044 121.023H23.4197C21.709 121.023 20.0684 120.448 18.8588 119.424C17.6492 118.4 16.9696 117.011 16.9696 115.563V121.788C16.9696 123.236 17.6492 124.624 18.8588 125.648C20.0684 126.673 21.709 127.248 23.4197 127.248H173.772C175.482 127.248 177.123 126.673 178.332 125.648C179.542 124.624 180.222 123.236 180.222 121.788V115.508C180.23 116.23 180.07 116.946 179.749 117.615C179.429 118.284 178.955 118.892 178.355 119.404C177.756 119.918 177.042 120.324 176.255 120.602C175.468 120.88 174.624 121.023 173.772 121.023Z" fill="#034094"/>
<path opacity="0.35" d="M112.593 111.257C113.091 111.257 113.496 110.915 113.496 110.493C113.496 110.07 113.091 109.729 112.593 109.729C112.094 109.729 111.69 110.07 111.69 110.493C111.69 110.915 112.094 111.257 112.593 111.257Z" fill="#034094"/>
<path opacity="0.35" d="M124.88 112.813C125.218 112.813 125.493 112.581 125.493 112.295C125.493 112.008 125.218 111.776 124.88 111.776C124.542 111.776 124.267 112.008 124.267 112.295C124.267 112.581 124.542 112.813 124.88 112.813Z" fill="#034094"/>
<path opacity="0.35" d="M120.817 108.086C121.565 108.086 122.171 107.572 122.171 106.939C122.171 106.305 121.565 105.792 120.817 105.792C120.069 105.792 119.462 106.305 119.462 106.939C119.462 107.572 120.069 108.086 120.817 108.086Z" fill="#034094"/>
<path opacity="0.35" d="M107.077 111.499C107.825 111.499 108.432 110.985 108.432 110.352C108.432 109.719 107.825 109.206 107.077 109.206C106.329 109.206 105.722 109.719 105.722 110.352C105.722 110.985 106.329 111.499 107.077 111.499Z" fill="#034094"/>
<path d="M51.8323 58.7477C51.8323 57.1945 50.3451 55.9355 48.5105 55.9355C46.676 55.9355 45.1887 57.1945 45.1887 58.7477V75.5918C45.1887 77.145 46.676 78.4038 48.5105 78.4038C50.3451 78.4038 51.8323 77.145 51.8323 75.5918V58.7477Z" fill="#034094"/>
<path d="M204.474 1.85906H61.0887C60.3796 1.85458 59.6735 1.93734 58.9924 2.10476H60.8307C58.7904 2.08162 56.8212 2.73861 55.3481 3.93391C53.9311 5.19127 53.1451 6.8646 53.1551 8.60235V93.2341C53.2303 94.9726 54.0992 96.6184 55.579 97.8252C57.0587 99.0321 59.0339 99.7055 61.0887 99.7044H204.474C206.573 99.7044 208.586 99.001 210.073 97.7473C211.56 96.4935 212.4 94.7924 212.408 93.016V8.60235C212.408 6.81861 211.574 5.10756 210.087 3.84374C208.599 2.57992 206.582 1.86628 204.474 1.85906Z" fill="white"/>
<path opacity="0.2" d="M212.472 9.6113V94.2432C212.464 96.0196 211.624 97.7208 210.137 98.9745C208.65 100.228 206.637 100.932 204.538 100.932H105.4C259.203 100.768 154.066 25.5822 194.702 2.84075H204.377C205.438 2.82246 206.492 2.98448 207.478 3.31723C208.463 3.64997 209.36 4.14668 210.115 4.77795C210.87 5.40923 211.467 6.16224 211.872 6.99245C212.277 7.82265 212.481 8.71319 212.472 9.6113Z" fill="#C9D2DF"/>
<path d="M87.9856 22.1412H75.8597C75.5774 22.1412 75.3064 22.0463 75.1069 21.8773C74.9073 21.7083 74.7952 21.4792 74.7952 21.2402C74.7952 21.0013 74.9073 20.7721 75.1069 20.6032C75.3064 20.4342 75.5774 20.3394 75.8597 20.3394H87.9856C88.2679 20.3394 88.5382 20.4342 88.7385 20.6032C88.938 20.7721 89.0501 21.0013 89.0501 21.2402C89.0501 21.4792 88.938 21.7083 88.7385 21.8773C88.5382 22.0463 88.2679 22.1412 87.9856 22.1412Z" fill="white"/>
<path d="M87.9861 55.5587H75.8596C75.7068 55.5815 75.5499 55.5757 75.3997 55.5416C75.2496 55.5076 75.1101 55.4461 74.9913 55.3615C74.8718 55.2769 74.7764 55.1713 74.7103 55.0521C74.6449 54.9329 74.6108 54.803 74.6108 54.6714C74.6108 54.5399 74.6449 54.41 74.7103 54.2907C74.7764 54.1715 74.8718 54.0659 74.9913 53.9814C75.1101 53.8968 75.2496 53.8353 75.3997 53.8012C75.5499 53.7672 75.7068 53.7613 75.8596 53.7842H87.9861C88.139 53.7613 88.2958 53.7672 88.446 53.8012C88.5962 53.8353 88.7357 53.8968 88.8545 53.9814C88.9739 54.0659 89.0694 54.1715 89.1348 54.2907C89.2009 54.41 89.2349 54.5399 89.2349 54.6714C89.2349 54.803 89.2009 54.9329 89.1348 55.0521C89.0694 55.1713 88.9739 55.2769 88.8545 55.3615C88.7357 55.4461 88.5962 55.5076 88.446 55.5416C88.2958 55.5757 88.139 55.5815 87.9861 55.5587Z" fill="white"/>
<path d="M87.9861 72.3975H75.8596C75.7068 72.4207 75.5499 72.4145 75.3997 72.3806C75.2496 72.3467 75.1101 72.2851 74.9913 72.2004C74.8718 72.1162 74.7764 72.0105 74.7103 71.8913C74.6449 71.7721 74.6108 71.6421 74.6108 71.5105C74.6108 71.3789 74.6449 71.2489 74.7103 71.1297C74.7764 71.0105 74.8718 70.9048 74.9913 70.8201C75.1101 70.7359 75.2496 70.6743 75.3997 70.6404C75.5499 70.6059 75.7068 70.6003 75.8596 70.6229H87.9861C88.139 70.6003 88.2958 70.6059 88.446 70.6404C88.5962 70.6743 88.7357 70.7359 88.8545 70.8201C88.9739 70.9048 89.0694 71.0105 89.1348 71.1297C89.2009 71.2489 89.2349 71.3789 89.2349 71.5105C89.2349 71.6421 89.2009 71.7721 89.1348 71.8913C89.0694 72.0105 88.9739 72.1162 88.8545 72.2004C88.7357 72.2851 88.5962 72.3467 88.446 72.3806C88.2958 72.4145 88.139 72.4207 87.9861 72.3975Z" fill="white"/>
<path d="M61.4432 100.5H53.1871C51.0942 100.485 49.0928 99.7716 47.6189 98.5134C46.1449 97.2557 45.3179 95.5557 45.318 93.7838V9.28825C45.3179 7.51644 46.1449 5.81645 47.6189 4.55853C49.0928 3.3006 51.0942 2.58667 53.1871 2.57227H61.4432C60.4014 2.57227 59.3697 2.74598 58.4072 3.08349C57.4447 3.421 56.5701 3.91569 55.8334 4.53933C55.0966 5.16296 54.5122 5.90332 54.1135 6.71816C53.7149 7.53293 53.5096 8.4063 53.5096 9.28825V93.92C53.5519 95.6777 54.4063 97.3512 55.8896 98.5812C57.3729 99.8112 59.3668 100.5 61.4432 100.5Z" fill="#D8EAFF"/>
<path opacity="0.6" d="M52.2511 18.8642C52.2511 17.3112 50.7639 16.0522 48.9293 16.0522C47.0948 16.0522 45.6075 17.3112 45.6075 18.8642V30.3305C45.6075 31.8835 47.0948 33.1425 48.9293 33.1425C50.7639 33.1425 52.2511 31.8835 52.2511 30.3305V18.8642Z" fill="#8647EA"/>
<path d="M198.637 13.6841H59.96C59.7633 13.6841 59.5746 13.6179 59.4355 13.5002C59.2964 13.3824 59.2183 13.2227 59.2183 13.0562C59.2183 12.8897 59.2964 12.7299 59.4355 12.6122C59.5746 12.4944 59.7633 12.4282 59.96 12.4282H198.637C198.834 12.4282 199.023 12.4944 199.162 12.6122C199.3 12.7299 199.379 12.8897 199.379 13.0562C199.379 13.2227 199.3 13.3824 199.162 13.5002C199.023 13.6179 198.834 13.6841 198.637 13.6841Z" fill="#0D345F"/>
<path d="M167.611 45.1075H130.91C130.673 45.1007 130.447 45.018 130.28 44.876C130.112 44.7341 130.015 44.5437 130.007 44.3431C130.007 44.1403 130.102 43.9459 130.271 43.8026C130.441 43.6592 130.67 43.5787 130.91 43.5787H167.611C167.731 43.5748 167.85 43.592 167.962 43.629C168.073 43.6661 168.175 43.7223 168.259 43.794C168.344 43.8658 168.41 43.9516 168.454 44.0461C168.498 44.1405 168.518 44.2417 168.514 44.3431C168.514 44.5458 168.419 44.7402 168.249 44.8836C168.08 45.027 167.85 45.1075 167.611 45.1075Z" fill="#0D345F"/>
<path d="M167.612 37.6476H130.912C130.781 37.6687 130.646 37.6652 130.517 37.6373C130.388 37.6094 130.269 37.5577 130.166 37.486C130.064 37.4142 129.981 37.3242 129.924 37.2223C129.868 37.1205 129.838 37.0093 129.838 36.8967C129.838 36.7842 129.868 36.673 129.924 36.5711C129.981 36.4693 130.064 36.3793 130.166 36.3076C130.269 36.2359 130.388 36.1842 130.517 36.1563C130.646 36.1283 130.781 36.1248 130.912 36.146H167.612C167.743 36.1248 167.878 36.1283 168.007 36.1563C168.136 36.1842 168.255 36.2359 168.358 36.3076C168.46 36.3793 168.543 36.4693 168.599 36.5711C168.656 36.673 168.686 36.7842 168.686 36.8967C168.686 37.0093 168.656 37.1205 168.599 37.2223C168.543 37.3242 168.46 37.4142 168.358 37.486C168.255 37.5577 168.136 37.6094 168.007 37.6373C167.878 37.6652 167.743 37.6687 167.612 37.6476Z" fill="#0D345F"/>
<path d="M187.221 52.5562H130.912C130.781 52.5774 130.646 52.5739 130.517 52.5459C130.388 52.518 130.269 52.4663 130.166 52.3946C130.064 52.3229 129.981 52.2329 129.924 52.131C129.868 52.0292 129.838 51.918 129.838 51.8054C129.838 51.6928 129.868 51.5816 129.924 51.4798C129.981 51.378 130.064 51.288 130.166 51.2162C130.269 51.1445 130.388 51.0928 130.517 51.0649C130.646 51.037 130.781 51.0335 130.912 51.0547H187.221C187.352 51.0335 187.486 51.037 187.614 51.0649C187.743 51.0928 187.863 51.1445 187.966 51.2162C188.068 51.288 188.151 51.378 188.208 51.4798C188.265 51.5816 188.294 51.6928 188.294 51.8054C188.294 51.918 188.265 52.0292 188.208 52.131C188.151 52.2329 188.068 52.3229 187.966 52.3946C187.863 52.4663 187.743 52.518 187.614 52.5459C187.486 52.5739 187.352 52.5774 187.221 52.5562Z" fill="#0D345F"/>
<path d="M68.0862 10.0521C67.6397 10.0521 67.2032 9.94001 66.8321 9.73C66.4609 9.51999 66.1716 9.22156 66.0007 8.87234C65.8298 8.52317 65.7851 8.13892 65.8722 7.76817C65.9593 7.39748 66.1743 7.05696 66.4901 6.78972C66.8058 6.52242 67.2078 6.34044 67.6457 6.2667C68.0842 6.19296 68.538 6.23081 68.9505 6.37545C69.363 6.52011 69.7154 6.76503 69.9637 7.07928C70.2113 7.39358 70.3441 7.76303 70.3441 8.14101C70.3441 8.64787 70.1058 9.13393 69.6827 9.49236C69.2595 9.85074 68.6849 10.0521 68.0862 10.0521ZM68.0862 6.99442C67.8886 6.96865 67.6871 6.97939 67.4948 7.02589C67.3026 7.07239 67.1244 7.15352 66.9722 7.26369C66.8208 7.37392 66.699 7.51059 66.6155 7.66439C66.532 7.81818 66.4887 7.98541 66.4887 8.15469C66.4887 8.32396 66.532 8.4912 66.6155 8.64499C66.699 8.79878 66.8208 8.93545 66.9722 9.04562C67.1244 9.15585 67.3026 9.23699 67.4948 9.28348C67.6871 9.32993 67.8886 9.34072 68.0862 9.31495C68.2837 9.34072 68.486 9.32993 68.6782 9.28348C68.8704 9.23699 69.0486 9.15585 69.2001 9.04562C69.3523 8.93545 69.4738 8.79878 69.5572 8.64499C69.6406 8.4912 69.684 8.32396 69.684 8.15469C69.684 7.98541 69.6406 7.81818 69.5572 7.66439C69.4738 7.51059 69.3523 7.37392 69.2001 7.26369C69.0486 7.15352 68.8704 7.07239 68.6782 7.02589C68.486 6.97939 68.2837 6.96865 68.0862 6.99442Z" fill="#0D345F"/>
<path d="M75.9238 10.052C75.6274 10.052 75.3337 10.0027 75.0601 9.90662C74.7858 9.81057 74.5368 9.66977 74.3273 9.49237C74.1177 9.3149 73.9515 9.10422 73.838 8.87234C73.7246 8.64047 73.6665 8.39199 73.6665 8.14102C73.6665 7.89005 73.7246 7.64156 73.838 7.40969C73.9515 7.17782 74.1177 6.96719 74.3273 6.78972C74.5368 6.61226 74.7858 6.47149 75.0601 6.37545C75.3337 6.27941 75.6274 6.22998 75.9238 6.22998C76.2201 6.22998 76.5138 6.27941 76.7874 6.37545C77.0617 6.47149 77.3107 6.61226 77.5202 6.78972C77.7298 6.96719 77.896 7.17782 78.0095 7.40969C78.1229 7.64156 78.181 7.89005 78.181 8.14102C78.181 8.39199 78.1229 8.64047 78.0095 8.87234C77.896 9.10422 77.7298 9.3149 77.5202 9.49237C77.3107 9.66977 77.0617 9.81057 76.7874 9.90662C76.5138 10.0027 76.2201 10.052 75.9238 10.052ZM75.9238 6.99442C75.6468 6.989 75.3745 7.05391 75.1415 7.18081C74.9086 7.30771 74.7257 7.49077 74.6169 7.70631C74.5081 7.92191 74.4774 8.16017 74.5302 8.3904C74.5829 8.62064 74.7157 8.83229 74.9113 8.99811C75.1068 9.16394 75.3571 9.27626 75.6294 9.32066C75.9011 9.36513 76.1827 9.33959 76.437 9.24733C76.692 9.15512 76.9082 9.00048 77.0577 8.8033C77.2079 8.60612 77.2846 8.37543 77.278 8.14102C77.296 7.98152 77.2746 7.82061 77.2146 7.66863C77.1545 7.51664 77.0577 7.37698 76.9302 7.25867C76.8028 7.14036 76.6472 7.046 76.4737 6.98165C76.3002 6.91736 76.1133 6.88447 75.9238 6.88521V6.99442Z" fill="#0D345F"/>
<path d="M83.7279 10.0521C83.2814 10.0521 82.8449 9.94001 82.4738 9.73C82.102 9.51999 81.813 9.22156 81.6422 8.87234C81.4713 8.52317 81.4266 8.13892 81.5134 7.76817C81.6008 7.39748 81.8157 7.05696 82.1314 6.78972C82.4471 6.52242 82.8495 6.34044 83.2874 6.2667C83.7252 6.19296 84.1791 6.23081 84.5915 6.37545C85.004 6.52011 85.3571 6.76503 85.6047 7.07928C85.853 7.39358 85.9851 7.76303 85.9851 8.14101C85.9851 8.64787 85.7475 9.13393 85.3244 9.49236C84.9006 9.85074 84.3266 10.0521 83.7279 10.0521ZM83.7279 6.99442C83.4002 7.03702 83.1018 7.17747 82.8863 7.39031C82.6707 7.60314 82.5519 7.87428 82.5519 8.15469C82.5519 8.43509 82.6707 8.70623 82.8863 8.91906C83.1018 9.1319 83.4002 9.2723 83.7279 9.31495C83.9254 9.34072 84.127 9.32993 84.3192 9.28348C84.5114 9.23699 84.6897 9.15585 84.8418 9.04562C84.9933 8.93545 85.1155 8.79878 85.1989 8.64499C85.2823 8.4912 85.3257 8.32396 85.3257 8.15469C85.3257 7.98541 85.2823 7.81818 85.1989 7.66439C85.1155 7.51059 84.9933 7.37392 84.8418 7.26369C84.6897 7.15352 84.5114 7.07239 84.3192 7.02589C84.127 6.97939 83.9254 6.96865 83.7279 6.99442Z" fill="#0D345F"/>
<path d="M31.3207 19.9531C32.336 19.9531 33.159 19.2564 33.159 18.397C33.159 17.5376 32.336 16.8408 31.3207 16.8408C30.3054 16.8408 29.4824 17.5376 29.4824 18.397C29.4824 19.2564 30.3054 19.9531 31.3207 19.9531Z" fill="#0D345F"/>
<path d="M17.3891 70.9514C18.4043 70.9514 19.2274 70.2542 19.2274 69.3949C19.2274 68.5355 18.4043 67.8389 17.3891 67.8389C16.3739 67.8389 15.5508 68.5355 15.5508 69.3949C15.5508 70.2542 16.3739 70.9514 17.3891 70.9514Z" fill="#0D345F"/>
<path d="M28.5802 43.3041H28.2577C28.156 43.2688 28.064 43.2161 27.9872 43.1495C27.9105 43.0828 27.8506 43.0036 27.8113 42.9167C27.7721 42.8298 27.7542 42.7369 27.7589 42.6439C27.7636 42.5509 27.7907 42.4597 27.8385 42.3759L32.1601 33.7216C32.2451 33.5614 32.3998 33.4351 32.592 33.369C32.7843 33.3029 32.9992 33.3021 33.1921 33.3667C33.2916 33.3961 33.3826 33.4431 33.459 33.5046C33.5353 33.566 33.5954 33.6406 33.635 33.7233C33.6747 33.8059 33.6931 33.8948 33.689 33.984C33.685 34.0731 33.6585 34.1605 33.6113 34.2403L29.193 42.8673C29.1476 42.9806 29.0666 43.0811 28.9586 43.1581C28.8506 43.2351 28.7197 43.2856 28.5802 43.3041Z" fill="#0D345F"/>
<path d="M34.3199 39.1167H33.9974C33.8082 39.0447 33.6589 38.9137 33.5809 38.7511C33.5028 38.5884 33.5018 38.4064 33.5781 38.2431L35.9002 33.602C35.9852 33.4418 36.1399 33.3155 36.3321 33.2494C36.5243 33.1833 36.7393 33.1825 36.9321 33.2471C37.1214 33.3191 37.2706 33.45 37.3487 33.6128C37.4268 33.7755 37.4278 33.9574 37.3514 34.1207L35.0294 38.7618C34.9598 38.8695 34.8571 38.9593 34.7322 39.0218C34.6074 39.0843 34.4649 39.1171 34.3199 39.1167Z" fill="#0D345F"/>
<path opacity="0.6" d="M49.4461 40.9276C51.1738 40.9276 52.5744 39.742 52.5744 38.2795C52.5744 36.8169 51.1738 35.6313 49.4461 35.6313C47.7184 35.6313 46.3179 36.8169 46.3179 38.2795C46.3179 39.742 47.7184 40.9276 49.4461 40.9276Z" fill="#8647EA"/>
<path d="M83.4378 101.151H60.5077C58.1213 101.151 55.8326 100.348 54.1452 98.9197C52.4577 97.4914 51.5098 95.554 51.5098 93.5336V9.03829C51.5098 7.01816 52.4577 5.08076 54.1452 3.65232C55.8326 2.22388 58.1213 1.42139 60.5077 1.42139H83.4378C83.7201 1.42139 83.9904 1.5163 84.19 1.68526C84.3902 1.85421 84.5023 2.08337 84.5023 2.32231C84.5023 2.56124 84.3902 2.7904 84.19 2.95936C83.9904 3.12831 83.7201 3.22323 83.4378 3.22323H60.5077C58.6858 3.22323 56.9385 3.83588 55.6503 4.92642C54.362 6.01695 53.6383 7.49603 53.6383 9.03829V93.6703C53.6383 95.2128 54.362 96.6919 55.6503 97.7823C56.9385 98.8728 58.6858 99.4852 60.5077 99.4852H83.4378C83.7201 99.4852 83.9904 99.5801 84.19 99.7491C84.3902 99.918 84.5023 100.147 84.5023 100.386C84.5023 100.625 84.3902 100.854 84.19 101.023C83.9904 101.192 83.7201 101.287 83.4378 101.287V101.151Z" fill="#0D345F"/>
<path d="M205.118 101.151H53.5411C51.1547 101.151 48.8661 100.348 47.1786 98.9197C45.4912 97.4914 44.5432 95.554 44.5432 93.5336V9.03829C44.5431 7.03228 45.4778 5.10718 47.1443 3.68107C48.8109 2.25496 51.0748 1.44296 53.4443 1.42139H205.022C207.408 1.42139 209.697 2.22388 211.384 3.65232C213.072 5.08076 214.019 7.01816 214.019 9.03829V93.6703C213.978 95.6523 213.025 97.5428 211.362 98.9394C209.7 100.337 207.46 101.13 205.118 101.151ZM53.4443 3.22323C51.6224 3.22323 49.8752 3.83588 48.587 4.92642C47.2987 6.01695 46.575 7.49603 46.575 9.03829V93.6703C46.575 95.2128 47.2987 96.6919 48.587 97.7823C49.8752 98.8728 51.6224 99.4852 53.4443 99.4852H205.022C206.844 99.4852 208.591 98.8728 209.879 97.7823C211.167 96.6919 211.891 95.2128 211.891 93.6703V9.03829C211.892 7.5101 211.181 6.04331 209.913 4.9551C208.646 3.8669 206.923 3.24476 205.118 3.22323H53.4443Z" fill="#0D345F"/>
<path opacity="0.6" d="M4.90877 81.2759H4.87652C3.11318 81.2759 1.68372 82.4861 1.68372 83.9788V100.796C1.68372 102.289 3.11318 103.499 4.87652 103.499H4.90877C6.6721 103.499 8.10155 102.289 8.10155 100.796V83.9788C8.10155 82.4861 6.6721 81.2759 4.90877 81.2759Z" fill="#8647EA"/>
<path d="M144.166 134.669H11.7451C8.6745 134.669 5.72961 133.637 3.55833 131.799C1.38705 129.961 0.167236 127.468 0.167236 124.869V26.8864C0.167236 24.287 1.38705 21.7942 3.55833 19.9561C5.72961 18.1181 8.6745 17.0854 11.7451 17.0854H25.6451C25.8315 17.0854 26.016 17.1165 26.1881 17.1769C26.3603 17.2373 26.5168 17.3257 26.6485 17.4373C26.7803 17.5489 26.8848 17.6813 26.9562 17.827C27.0274 17.9728 27.0641 18.1289 27.0641 18.2867C27.0641 18.6053 26.9146 18.9108 26.6485 19.1361C26.3824 19.3614 26.0215 19.4879 25.6451 19.4879H11.7451C9.42723 19.4879 7.20415 20.2674 5.56513 21.6549C3.92608 23.0424 3.00528 24.9242 3.00528 26.8864V124.869C3.00528 126.831 3.92608 128.713 5.56513 130.1C7.20415 131.487 9.42723 132.267 11.7451 132.267H144.166C144.542 132.267 144.903 132.394 145.169 132.619C145.435 132.844 145.585 133.15 145.585 133.468C145.585 133.787 145.435 134.092 145.169 134.318C144.903 134.543 144.542 134.669 144.166 134.669Z" fill="#0D345F"/>
<path d="M18.4209 134.233C15.487 134.233 12.6733 133.246 10.5988 131.49C8.52433 129.734 7.35893 127.352 7.35893 124.869V26.8866C7.35466 25.6559 7.63785 24.4367 8.19229 23.2989C8.74666 22.1611 9.56132 21.1274 10.5894 20.2572C11.6174 19.3869 12.8385 18.6973 14.1826 18.228C15.5266 17.7587 16.967 17.5189 18.4209 17.5225C18.5394 17.5225 18.6569 17.5423 18.7664 17.5807C18.876 17.6191 18.9755 17.6754 19.0593 17.7464C19.1432 17.8174 19.2097 17.9017 19.2551 17.9944C19.3005 18.0872 19.3238 18.1865 19.3238 18.2869C19.3158 18.4875 19.2181 18.678 19.0504 18.8199C18.8828 18.9618 18.6578 19.0445 18.4209 19.0514C17.2041 19.0478 15.9986 19.2479 14.8737 19.6404C13.7488 20.0329 12.7267 20.6099 11.8664 21.3382C11.0061 22.0665 10.3245 22.9317 9.8608 23.884C9.3972 24.8362 9.16066 25.8567 9.16493 26.8866V124.869C9.16493 126.947 10.1401 128.94 11.8759 130.409C13.6118 131.878 15.966 132.704 18.4209 132.704C18.5394 132.704 18.6569 132.724 18.7664 132.762C18.876 132.801 18.9755 132.857 19.0593 132.928C19.1432 132.999 19.2097 133.083 19.2551 133.176C19.3005 133.268 19.3238 133.368 19.3238 133.468C19.3158 133.669 19.2181 133.859 19.0504 134.001C18.8828 134.144 18.6578 134.226 18.4209 134.233Z" fill="#0D345F"/>
<path d="M116.365 24.9575H69.3436C67.7404 24.9575 66.4412 26.0576 66.4412 27.4146V60.7212C66.4412 62.0783 67.7404 63.1784 69.3436 63.1784H116.365C117.968 63.1784 119.267 62.0783 119.267 60.7212V27.4146C119.267 26.0576 117.968 24.9575 116.365 24.9575Z" fill="#B29FBF"/>
<path d="M118.591 27.27V60.5493C118.591 61.2081 118.282 61.8403 117.731 62.3065C117.181 62.772 116.434 63.0336 115.656 63.0336H87.0498C102.391 54.2206 113.366 40.9366 117.881 25.7139C118.338 26.1402 118.59 26.6948 118.591 27.27Z" fill="#1F3461"/>
<path d="M116.269 64.2071H69.3446C68.3354 64.2071 67.3676 63.8675 66.6537 63.2636C65.94 62.6596 65.5391 61.8398 65.5391 60.9855V27.6243C65.5391 26.7699 65.94 25.9505 66.6537 25.3463C67.3676 24.7422 68.3354 24.4028 69.3446 24.4028H116.269C116.775 24.3956 117.279 24.4734 117.75 24.6317C118.221 24.79 118.65 25.0257 119.013 25.3252C119.376 25.6247 119.665 25.9821 119.864 26.3767C120.063 26.7713 120.167 27.1953 120.171 27.6243V60.9036C120.18 61.3398 120.085 61.7725 119.892 62.1765C119.699 62.5805 119.412 62.9477 119.048 63.2562C118.684 63.5641 118.25 63.8071 117.773 63.9709C117.295 64.1342 116.784 64.2144 116.269 64.2071ZM69.3446 25.9863C69.0823 25.9863 68.822 26.03 68.5797 26.1151C68.3367 26.2002 68.1165 26.3248 67.9309 26.482C67.7454 26.6392 67.5979 26.8258 67.4971 27.0311C67.397 27.2365 67.3449 27.4566 67.3449 27.6789V60.9036C67.3449 61.1262 67.397 61.346 67.4971 61.5516C67.5979 61.7567 67.7454 61.9437 67.9309 62.1008C68.1165 62.2579 68.3367 62.3827 68.5797 62.4675C68.822 62.5528 69.0823 62.5963 69.3446 62.5963H116.269C116.802 62.5963 117.314 62.4189 117.695 62.1025C118.074 61.7855 118.293 61.355 118.301 60.9036V27.6243C118.276 27.1825 118.051 26.7657 117.673 26.4607C117.294 26.1556 116.792 25.9857 116.269 25.9863H69.3446Z" fill="#0D345F"/>
</g>
</g>
<defs>
<clipPath id="clip0_902_20573">
<rect width="214.245" height="133.903" fill="white" transform="translate(0.167969 0.859863)"/>
</clipPath>
</defs>
</svg>
