<svg width="796" height="449" viewBox="0 0 796 449" fill="none" xmlns="http://www.w3.org/2000/svg">
<g clip-path="url(#clip0_901_17305)">
<mask id="mask0_901_17305" style="mask-type:luminance" maskUnits="userSpaceOnUse" x="0" y="0" width="796" height="449">
<path d="M796 0.845215H0V448.254H796V0.845215Z" fill="white"/>
</mask>
<g mask="url(#mask0_901_17305)">
<path d="M60.7573 125.306C59.9921 125.307 59.2503 125.041 58.6608 124.552C57.9959 124.003 57.5748 123.213 57.4889 122.354C57.403 121.495 57.6597 120.638 58.2025 119.967C59.9648 117.812 61.8687 115.777 63.9016 113.875C64.5154 113.265 65.3451 112.922 66.2107 112.922C67.0762 112.922 67.9059 113.265 68.5197 113.875C68.8266 114.179 69.0704 114.542 69.2367 114.941C69.4031 115.34 69.4885 115.768 69.4885 116.2C69.4885 116.633 69.4031 117.061 69.2367 117.46C69.0704 117.859 68.8266 118.221 68.5197 118.526C66.7082 120.233 65.002 122.049 63.41 123.963C63.1051 124.38 62.7059 124.719 62.2451 124.953C61.7837 125.186 61.2743 125.307 60.7573 125.306Z" fill="#183154"/>
<g opacity="0.3">
<path opacity="0.3" d="M178.701 187.703V426.998C178.706 429.386 178.237 431.751 177.322 433.957C176.407 436.163 175.064 438.166 173.371 439.85C171.678 441.534 169.668 442.866 167.457 443.769C165.246 444.672 162.879 445.128 160.491 445.111H129.277C135.357 445.111 141.189 442.695 145.489 438.396C149.789 434.096 152.204 428.264 152.204 422.184C152.204 416.103 149.789 410.271 145.489 405.971C141.189 401.672 135.357 399.256 129.277 399.256H22.9272C16.8465 399.256 11.0149 396.841 6.7152 392.541C2.41554 388.241 0 382.409 0 376.329C0 370.248 2.41554 364.417 6.7152 360.117C11.0149 355.817 16.8465 353.402 22.9272 353.402H81.0311C87.1121 353.402 92.9438 350.986 97.2431 346.686C101.543 342.387 103.959 336.555 103.959 330.474C103.959 324.394 101.543 318.562 97.2431 314.262C92.9438 309.963 87.1121 307.547 81.0311 307.547H22.9272C16.8465 307.547 11.0149 305.132 6.7152 300.832C2.41554 296.532 9.66308e-07 290.701 9.66308e-07 284.62C9.66308e-07 278.539 2.41554 272.708 6.7152 268.408C11.0149 264.108 16.8465 261.692 22.9272 261.692H97.768C103.849 261.692 109.681 259.277 113.98 254.977C118.28 250.678 120.696 244.846 120.696 238.765C120.696 232.685 118.28 226.853 113.98 222.553C109.681 218.254 103.849 215.838 97.768 215.838H54.4686C48.3878 215.838 42.5562 213.422 38.2565 209.123C33.9568 204.823 31.5413 198.992 31.5413 192.911C31.5413 186.83 33.9568 180.999 38.2565 176.699C42.5562 172.399 48.3878 169.984 54.4686 169.984H160.491C165.246 169.948 169.825 171.788 173.234 175.105C176.642 178.422 178.606 182.948 178.701 187.703Z" fill="#5A87BB"/>
<path opacity="0.3" d="M617.3 89.2792V328.574C617.3 333.369 619.202 337.967 622.593 341.358C625.985 344.749 630.583 346.654 635.38 346.654H666.689C660.611 346.654 654.776 344.238 650.481 339.938C646.18 335.639 643.762 329.807 643.762 323.726C643.762 317.646 646.18 311.814 650.481 307.514C654.776 303.215 660.611 300.799 666.689 300.799H772.974C779.057 300.799 784.887 298.383 789.187 294.084C793.487 289.784 795.901 283.953 795.901 277.872C795.901 271.791 793.487 265.959 789.187 261.66C784.887 257.36 779.057 254.945 772.974 254.945H714.97C708.887 254.945 703.057 252.529 698.757 248.229C694.457 243.93 692.043 238.098 692.043 232.017C692.043 225.937 694.457 220.105 698.757 215.805C703.057 211.506 708.887 209.09 714.97 209.09H772.974C779.057 209.09 784.887 206.675 789.187 202.375C793.487 198.075 795.901 192.244 795.901 186.163C795.901 180.082 793.487 174.251 789.187 169.951C784.887 165.652 779.057 163.236 772.974 163.236H698.201C692.118 163.236 686.288 160.82 681.988 156.521C677.688 152.221 675.274 146.389 675.274 140.309C675.274 134.228 677.688 128.396 681.988 124.097C686.288 119.797 692.118 117.382 698.201 117.382H741.531C747.614 117.382 753.444 114.966 757.744 110.666C762.045 106.366 764.458 100.535 764.458 94.454C764.458 88.3735 762.045 82.5418 757.744 78.242C753.444 73.9422 747.614 71.5269 741.531 71.5269H635.41C630.667 71.5175 626.109 73.3736 622.722 76.6947C619.331 80.0152 617.384 84.5355 617.3 89.2792Z" fill="#5A87BB"/>
</g>
<path d="M635.543 247.116H174.115V392.901H635.543V247.116Z" fill="#6F95C9"/>
<path d="M647.303 312.165H152.499C138.01 312.165 126.264 323.911 126.264 338.4V417.958C126.264 432.447 138.01 444.193 152.499 444.193H647.303C661.793 444.193 673.537 432.447 673.537 417.958V338.4C673.537 323.911 661.793 312.165 647.303 312.165Z" fill="#E0EFFF"/>
<path d="M638.916 228.906H177.489V299.62H638.916V228.906Z" fill="#6F95C9"/>
<path d="M62.2314 182.33C62.2314 170.225 65.8147 158.391 72.5293 148.319C79.2439 138.247 88.7894 130.389 99.9632 125.733C99.0798 121.058 98.6409 116.309 98.6533 111.551C98.909 92.8758 105.806 74.9025 118.108 60.8496C130.41 46.7973 147.314 37.5841 165.79 34.8607C184.268 32.1372 203.111 36.0815 218.944 45.9868C234.777 55.8923 246.567 71.1117 252.2 88.9181C258.302 87.4408 264.558 86.6935 270.837 86.691C303.983 86.691 290.816 130.646 302.279 159.73C305.817 168.639 349.28 154.981 349.28 165.135C349.28 185.983 340.998 205.977 326.257 220.719C311.515 235.461 291.521 243.742 270.673 243.742L132.29 247.116V199.002" fill="#5A87BB"/>
<path d="M164.093 60.6849L149.092 52.857L132.257 54.3636L140.085 39.3627L138.578 22.5276L153.579 30.3556L170.414 28.849L162.586 43.8499L164.093 60.6849Z" fill="#EEF0F1"/>
<path d="M129.605 121.999C132.734 121.999 135.271 119.462 135.271 116.333C135.271 113.203 132.734 110.666 129.605 110.666C126.475 110.666 123.938 113.203 123.938 116.333C123.938 119.462 126.475 121.999 129.605 121.999Z" fill="#EEF0F1"/>
<path d="M521.954 191.96C533.837 191.925 545.338 187.78 554.509 180.228C563.686 172.676 569.957 162.182 572.276 150.528C574.59 138.875 572.798 126.779 567.211 116.295C561.62 105.811 552.573 97.5847 541.608 93.0123C542.333 89.0805 542.696 85.089 542.686 81.0902C542.676 65.2953 536.985 50.0313 526.657 38.0808C516.328 26.1303 502.052 18.2889 486.423 15.9863C470.797 13.6837 454.864 17.073 441.528 25.5365C428.192 33.9999 418.341 46.9739 413.771 62.0934C408.653 60.8709 403.41 60.2442 398.148 60.2263C389.498 60.2263 380.933 61.9301 372.942 65.2402C364.951 68.5503 357.69 73.4023 351.573 79.5185C345.457 85.6348 340.605 92.8956 337.295 100.887C333.985 108.878 332.281 117.443 332.281 126.093C332.281 134.743 333.985 143.308 337.295 151.299C340.605 159.29 345.457 166.552 351.573 172.668C357.69 178.784 364.951 183.636 372.942 186.946C380.933 190.256 389.498 191.96 398.148 191.96H521.954Z" fill="#F7F7F7"/>
<path d="M567.384 136.967C567.374 150.313 562.066 163.109 552.626 172.543C543.186 181.977 530.385 187.276 517.042 187.276H395.854C385.016 187.288 374.35 184.559 364.849 179.342C355.349 174.125 347.322 166.59 341.517 157.438C351.841 164.045 363.846 167.547 376.104 167.526H497.288C510.636 167.526 523.438 162.227 532.877 152.793C542.317 143.359 547.625 130.563 547.63 117.217C547.65 108.726 545.495 100.372 541.379 92.9473C549.259 97.2798 555.834 103.652 560.407 111.396C564.981 119.141 567.389 127.973 567.384 136.967Z" fill="#5A87BB"/>
<path d="M518.84 191.011H397.656C388.252 190.937 378.965 188.906 370.388 185.046C361.812 181.187 354.133 175.583 347.841 168.593C341.549 161.603 336.782 153.379 333.843 144.445C330.904 135.511 329.858 126.063 330.771 116.702C331.684 107.341 334.537 98.2741 339.147 90.0762C343.758 81.8788 350.025 74.7312 357.549 69.0892C365.073 63.4467 373.69 59.4329 382.851 57.3041C392.012 55.1748 401.516 54.9767 410.757 56.7227C415.979 41.5034 426.45 28.6414 440.294 20.442C454.138 12.2427 470.45 9.24208 486.306 11.978C502.16 14.7139 516.526 23.0075 526.82 35.3722C537.114 47.7369 542.671 63.3643 542.492 79.4531C542.502 82.7409 542.273 86.0252 541.802 89.2792C552.811 94.4827 561.714 103.279 567.052 114.219C572.39 125.16 573.845 137.592 571.179 149.47C568.507 161.347 561.873 171.962 552.369 179.566C542.859 187.17 531.051 191.31 518.875 191.305L518.84 191.011ZM397.656 62.1268C381.678 62.4968 366.48 69.1031 355.311 80.5341C344.142 91.9646 337.889 107.312 337.889 123.293C337.889 139.275 344.142 154.622 355.311 166.053C366.48 177.484 381.678 184.09 397.656 184.46H518.84C529.71 184.439 540.237 180.656 548.634 173.755C557.031 166.853 562.782 157.258 564.907 146.599C567.032 135.939 565.403 124.872 560.299 115.278C555.189 105.683 546.921 98.1519 536.891 93.9628L534.433 92.9146L534.924 90.2947C535.614 86.6672 535.957 82.9822 535.942 79.2897C535.927 64.627 530.644 50.4574 521.06 39.363C511.471 28.2686 498.218 20.9881 483.713 18.8484C469.208 16.7087 454.416 19.8523 442.035 27.7062C429.653 35.56 420.506 47.6013 416.26 61.6357L415.343 64.6161L412.329 63.8628C407.568 62.7113 402.686 62.1288 397.787 62.1268H397.656Z" fill="#183154"/>
<path d="M648.25 159.796H153.448C138.959 159.796 127.213 171.542 127.213 186.031V265.588C127.213 280.078 138.959 291.824 153.448 291.824H648.25C662.74 291.824 674.484 280.078 674.484 265.588V186.031C674.484 171.542 662.74 159.796 648.25 159.796Z" fill="#F7F7F7"/>
<path d="M650.639 157.569H155.84C141.35 157.569 129.604 169.315 129.604 183.804V263.362C129.604 277.851 141.35 289.597 155.84 289.597H650.639C665.129 289.597 676.878 277.851 676.878 263.362V183.804C676.878 169.315 665.129 157.569 650.639 157.569Z" fill="#E0EFFF"/>
<path d="M358.713 158.355C358.713 179.203 350.431 199.197 335.689 213.939C320.948 228.681 300.953 236.963 280.105 236.963H132.716H130.096V220.815H256.195C274.458 220.821 292.149 214.449 306.214 202.8C320.279 191.151 329.835 174.956 333.231 157.012H358.68C358.713 157.438 358.713 158.06 358.713 158.355Z" fill="#A4CEFE"/>
<path d="M174.116 245.314C186.977 245.314 197.403 234.888 197.403 222.027C197.403 209.166 186.977 198.739 174.116 198.739C161.255 198.739 150.828 209.166 150.828 222.027C150.828 234.888 161.255 245.314 174.116 245.314Z" fill="#F7F7F7"/>
<path d="M243.946 245.314C256.807 245.314 267.233 234.888 267.233 222.027C267.233 209.166 256.807 198.739 243.946 198.739C231.085 198.739 220.658 209.166 220.658 222.027C220.658 234.888 231.085 245.314 243.946 245.314Z" fill="#F7F7F7"/>
<path d="M673.829 183.837V263.362C673.829 270.311 671.068 276.976 666.157 281.89C661.241 286.804 654.577 289.564 647.63 289.564H502.369C498.868 289.564 495.51 288.174 493.035 285.698C490.559 283.223 489.169 279.865 489.169 276.365C489.169 272.864 490.559 269.507 493.035 267.031C495.51 264.556 498.868 263.165 502.369 263.165H635.936C639.437 263.165 642.793 261.774 645.271 259.299C647.744 256.824 649.135 253.466 649.135 249.966C649.135 246.465 647.744 243.107 645.271 240.632C642.793 238.157 639.437 236.766 635.936 236.766H550.779C549.046 236.766 547.328 236.425 545.724 235.761C544.125 235.098 542.67 234.126 541.444 232.9C540.217 231.674 539.244 230.22 538.583 228.618C537.918 227.017 537.575 225.3 537.575 223.566C537.575 221.833 537.918 220.117 538.583 218.515C539.244 216.914 540.217 215.459 541.444 214.233C542.67 213.007 544.125 212.035 545.724 211.372C547.328 210.708 549.046 210.367 550.779 210.367H591.687C595.192 210.367 598.554 208.975 601.032 206.496C603.51 204.018 604.9 200.656 604.9 197.151C604.9 193.646 603.51 190.284 601.032 187.806C598.554 185.328 595.192 183.935 591.687 183.935H530.961C527.46 183.935 524.104 182.544 521.631 180.069C519.153 177.594 517.762 174.236 517.762 170.736C517.762 167.235 519.153 163.878 521.631 161.403C524.104 158.927 527.46 157.536 530.961 157.536H647.56C651.017 157.528 654.438 158.202 657.631 159.522C660.824 160.84 663.729 162.778 666.167 165.222C668.61 167.667 670.542 170.57 671.858 173.765C673.174 176.959 673.844 180.382 673.829 183.837Z" fill="#A4CEFE"/>
<path d="M421.206 161.631H399.917C399.048 161.631 398.215 161.286 397.601 160.671C396.987 160.058 396.642 159.224 396.642 158.355C396.642 157.487 396.987 156.654 397.601 156.039C398.215 155.425 399.048 155.081 399.917 155.081H421.206C422.075 155.081 422.908 155.425 423.522 156.039C424.137 156.654 424.482 157.487 424.482 158.355C424.482 159.224 424.137 160.058 423.522 160.671C422.908 161.286 422.075 161.631 421.206 161.631Z" fill="#183154"/>
<path d="M648.708 293.692H153.94C146.122 293.692 138.624 290.587 133.096 285.058C127.567 279.53 124.462 272.032 124.462 264.214V184.624C124.462 176.806 127.567 169.308 133.096 163.78C138.624 158.252 146.122 155.146 153.94 155.146H376.857C377.726 155.146 378.559 155.491 379.173 156.105C379.788 156.72 380.133 157.553 380.133 158.421C380.133 159.29 379.788 160.123 379.173 160.737C378.559 161.352 377.726 161.697 376.857 161.697H153.94C147.859 161.697 142.027 164.113 137.728 168.412C133.428 172.712 131.012 178.543 131.012 184.624V264.149C131.012 270.229 133.428 276.061 137.728 280.361C142.027 284.661 147.859 287.076 153.94 287.076H648.708C654.791 287.076 660.62 284.661 664.921 280.361C669.221 276.061 671.634 270.229 671.634 264.149V184.624C671.634 178.543 669.221 172.712 664.921 168.412C660.62 164.113 654.791 161.697 648.708 161.697H461.819C460.95 161.697 460.118 161.352 459.503 160.737C458.889 160.123 458.544 159.29 458.544 158.421C458.544 157.553 458.889 156.72 459.503 156.105C460.118 155.491 460.95 155.146 461.819 155.146H648.742C656.558 155.146 664.057 158.252 669.583 163.78C675.115 169.308 678.219 176.806 678.219 184.624V264.149C678.229 268.028 677.469 271.871 675.989 275.457C674.509 279.043 672.339 282.302 669.598 285.047C666.857 287.791 663.6 289.968 660.014 291.452C656.429 292.935 652.586 293.697 648.708 293.692Z" fill="#183154"/>
<path d="M440.759 161.631H433.095C432.226 161.631 431.393 161.286 430.779 160.671C430.164 160.058 429.819 159.224 429.819 158.355C429.819 157.487 430.164 156.654 430.779 156.039C431.393 155.425 432.226 155.081 433.095 155.081H440.759C441.628 155.081 442.461 155.425 443.075 156.039C443.689 156.654 444.034 157.487 444.034 158.355C444.034 159.224 443.689 160.058 443.075 160.671C442.461 161.286 441.628 161.631 440.759 161.631Z" fill="#183154"/>
<path d="M671.634 341.708V421.233C671.634 428.182 668.873 434.846 663.962 439.761C659.046 444.675 652.382 447.435 645.435 447.435H500.174C496.673 447.435 493.315 446.044 490.839 443.569C488.364 441.093 486.974 437.736 486.974 434.236C486.974 430.735 488.364 427.377 490.839 424.902C493.315 422.426 496.673 421.036 500.174 421.036H633.741C637.242 421.036 640.599 419.645 643.072 417.17C645.549 414.694 646.94 411.337 646.94 407.837C646.94 404.336 645.549 400.978 643.072 398.503C640.599 396.028 637.242 394.637 633.741 394.637H548.584C545.084 394.637 541.722 393.246 539.249 390.771C536.771 388.295 535.381 384.938 535.381 381.437C535.381 377.937 536.771 374.579 539.249 372.104C541.722 369.629 545.084 368.238 548.584 368.238H589.556C593.062 368.238 596.424 366.845 598.902 364.367C601.38 361.889 602.77 358.527 602.77 355.022C602.77 351.517 601.38 348.155 598.902 345.677C596.424 343.198 593.062 341.806 589.556 341.806H528.766C525.266 341.806 521.909 340.415 519.431 337.94C516.958 335.465 515.568 332.107 515.568 328.607C515.568 325.106 516.958 321.748 519.431 319.273C521.909 316.798 525.266 315.407 528.766 315.407H645.237C648.703 315.381 652.139 316.043 655.347 317.354C658.555 318.665 661.469 320.6 663.927 323.046C666.381 325.493 668.327 328.401 669.653 331.604C670.974 334.808 671.649 338.242 671.634 341.708Z" fill="#A4CEFE"/>
<path d="M610.159 159.108C609.29 159.108 608.456 158.763 607.845 158.149C607.229 157.535 606.882 156.701 606.882 155.833V83.5464C606.882 82.6779 607.229 81.8446 607.845 81.2304C608.456 80.6161 609.29 80.271 610.159 80.271C611.028 80.271 611.862 80.6161 612.473 81.2304C613.089 81.8446 613.437 82.6779 613.437 83.5464V155.833C613.437 156.701 613.089 157.535 612.473 158.149C611.862 158.763 611.028 159.108 610.159 159.108Z" fill="#183154"/>
<path d="M637.112 159.926C636.243 159.926 635.414 159.581 634.798 158.967C634.183 158.353 633.84 157.52 633.84 156.651V23.1491C633.84 22.2804 634.183 21.4474 634.798 20.8331C635.414 20.2188 636.243 19.8738 637.112 19.8738C637.981 19.8738 638.815 20.2188 639.431 20.8331C640.042 21.4474 640.39 22.2804 640.39 23.1491V156.651C640.39 157.52 640.042 158.353 639.431 158.967C638.815 159.581 637.981 159.926 637.112 159.926Z" fill="#183154"/>
<path d="M635.544 30.1277C643.196 30.1277 649.398 23.9247 649.398 16.273C649.398 8.62136 643.196 2.41846 635.544 2.41846C627.892 2.41846 621.689 8.62136 621.689 16.273C621.689 23.9247 627.892 30.1277 635.544 30.1277Z" fill="#FFADAD"/>
<path d="M636.686 35.0721C633.299 35.0785 629.982 34.0786 627.157 32.1988C624.336 30.319 622.136 27.6441 620.835 24.5126C619.534 21.3812 619.192 17.9343 619.852 14.6083C620.513 11.2824 622.146 8.22713 624.545 5.82949C626.938 3.43187 629.997 1.79973 633.324 1.13982C636.646 0.479899 640.092 0.821888 643.226 2.12247C646.359 3.42305 649.031 5.62371 650.913 8.44571C652.79 11.2677 653.793 14.5842 653.788 17.9749C653.778 22.5067 651.97 26.8504 648.767 30.0549C645.564 33.2593 641.22 35.0634 636.686 35.0721ZM636.686 7.39562C634.595 7.38917 632.544 8.00407 630.801 9.16261C629.059 10.3211 627.698 11.9711 626.889 13.9037C626.084 15.8362 625.871 17.9643 626.278 20.0187C626.68 22.073 627.683 23.9611 629.163 25.4439C630.643 26.9268 632.525 27.9376 634.58 28.3484C636.631 28.7593 638.761 28.5517 640.698 27.752C642.63 26.9522 644.283 25.5963 645.45 23.8558C646.612 22.1154 647.233 20.0687 647.233 17.9749C647.233 15.1748 646.126 12.4888 644.149 10.5058C642.173 8.52273 639.487 7.40431 636.686 7.39562Z" fill="#183154"/>
<path d="M473.643 352.057H400.539C387.677 352.057 377.251 362.483 377.251 375.344V375.377C377.251 388.239 387.677 398.665 400.539 398.665H473.643C486.505 398.665 496.932 388.239 496.932 375.377V375.344C496.932 362.483 486.505 352.057 473.643 352.057Z" fill="#6F95C9"/>
<path d="M473.611 401.909H400.539C393.494 401.909 386.737 399.11 381.756 394.128C376.774 389.147 373.976 382.39 373.976 375.346C373.976 368.301 376.774 361.545 381.756 356.563C386.737 351.581 393.494 348.783 400.539 348.783H473.611C480.655 348.783 487.412 351.581 492.393 356.563C497.373 361.545 500.174 368.301 500.174 375.346C500.174 382.39 497.373 389.147 492.393 394.128C487.412 399.11 480.655 401.909 473.611 401.909ZM400.539 355.333C395.231 355.333 390.141 357.442 386.388 361.195C382.635 364.948 380.526 370.038 380.526 375.346C380.526 380.653 382.635 385.743 386.388 389.496C390.141 393.249 395.231 395.358 400.539 395.358H473.611C478.918 395.358 484.008 393.249 487.761 389.496C491.514 385.743 493.623 380.653 493.623 375.346C493.623 370.038 491.514 364.948 487.761 361.195C484.008 357.442 478.918 355.333 473.611 355.333H400.539Z" fill="#183154"/>
<path d="M174.64 248.624C169.379 248.63 164.234 247.076 159.855 244.158C155.478 241.239 152.064 237.088 150.046 232.229C148.028 227.369 147.496 222.021 148.519 216.86C149.542 211.698 152.072 206.957 155.79 203.234C159.508 199.511 164.247 196.975 169.407 195.946C174.567 194.917 179.916 195.442 184.778 197.454C189.639 199.466 193.795 202.874 196.719 207.249C199.642 211.623 201.203 216.766 201.203 222.028C201.203 229.076 198.406 235.836 193.425 240.822C188.444 245.809 181.688 248.615 174.64 248.624ZM174.64 202.016C170.673 202.009 166.793 203.18 163.492 205.381C160.19 207.58 157.616 210.711 156.095 214.375C154.573 218.039 154.174 222.072 154.946 225.963C155.718 229.855 157.628 233.429 160.433 236.235C163.239 239.04 166.814 240.95 170.705 241.722C174.597 242.495 178.63 242.095 182.293 240.573C185.958 239.052 189.088 236.478 191.288 233.177C193.488 229.875 194.659 225.995 194.652 222.028C194.644 216.723 192.533 211.638 188.782 207.887C185.03 204.136 179.945 202.024 174.64 202.016Z" fill="#183154"/>
<path d="M244.47 248.624C239.209 248.63 234.064 247.076 229.685 244.158C225.308 241.239 221.894 237.088 219.876 232.229C217.858 227.369 217.326 222.021 218.349 216.86C219.372 211.698 221.902 206.957 225.62 203.234C229.338 199.511 234.077 196.975 239.237 195.946C244.397 194.917 249.746 195.442 254.608 197.454C259.469 199.466 263.625 202.874 266.549 207.249C269.473 211.623 271.033 216.766 271.033 222.028C271.033 229.076 268.236 235.836 263.255 240.822C258.274 245.809 251.518 248.615 244.47 248.624ZM244.47 202.016C240.503 202.009 236.623 203.18 233.322 205.381C230.02 207.58 227.446 210.711 225.925 214.375C224.403 218.039 224.004 222.072 224.776 225.963C225.549 229.855 227.458 233.429 230.263 236.235C233.069 239.04 236.644 240.95 240.535 241.722C244.427 242.495 248.459 242.095 252.123 240.573C255.788 239.052 258.918 236.478 261.118 233.177C263.318 229.875 264.489 225.995 264.483 222.028C264.474 216.723 262.363 211.638 258.612 207.887C254.861 204.136 249.775 202.024 244.47 202.016Z" fill="#183154"/>
<path d="M314.299 245.314C327.16 245.314 337.587 234.888 337.587 222.027C337.587 209.166 327.16 198.739 314.299 198.739C301.438 198.739 291.012 209.166 291.012 222.027C291.012 234.888 301.438 245.314 314.299 245.314Z" fill="#EEF0F1"/>
<path d="M317.148 248.885C311.894 248.853 306.767 247.264 302.414 244.321C298.061 241.378 294.678 237.211 292.691 232.347C290.705 227.482 290.203 222.138 291.25 216.989C292.298 211.84 294.847 207.116 298.576 203.414C302.305 199.713 307.047 197.199 312.204 196.189C317.36 195.18 322.701 195.721 327.55 197.744C332.4 199.766 336.541 203.18 339.453 207.554C342.364 211.929 343.914 217.068 343.908 222.322C343.904 225.826 343.207 229.294 341.858 232.528C340.51 235.761 338.535 238.697 336.049 241.165C333.562 243.633 330.612 245.586 327.369 246.91C324.125 248.235 320.652 248.907 317.148 248.885ZM317.148 202.277C313.191 202.31 309.332 203.512 306.057 205.734C302.782 207.957 300.239 211.098 298.747 214.764C297.254 218.429 296.881 222.454 297.673 226.332C298.465 230.209 300.386 233.766 303.196 236.553C306.006 239.34 309.578 241.233 313.461 241.993C317.345 242.753 321.367 242.347 325.021 240.825C328.674 239.303 331.795 236.734 333.99 233.441C336.185 230.148 337.357 226.279 337.357 222.322C337.357 219.676 336.833 217.056 335.816 214.613C334.798 212.17 333.307 209.953 331.428 208.09C329.55 206.227 327.321 204.753 324.87 203.756C322.419 202.758 319.795 202.255 317.148 202.277Z" fill="#183154"/>
<path d="M618.541 199.002H414.426C401.565 199.002 391.139 209.428 391.139 222.289V222.322C391.139 235.183 401.565 245.609 414.426 245.609H618.541C631.408 245.609 641.831 235.183 641.831 222.322V222.289C641.831 209.428 631.408 199.002 618.541 199.002Z" fill="#EEF0F1"/>
<path d="M615.761 248.753H411.707C408.139 248.878 404.581 248.283 401.247 247.004C397.913 245.725 394.87 243.787 392.301 241.306C389.732 238.826 387.689 235.854 386.294 232.566C384.898 229.279 384.179 225.745 384.179 222.174C384.179 218.602 384.898 215.068 386.294 211.781C387.689 208.494 389.732 205.521 392.301 203.041C394.87 200.56 397.913 198.622 401.247 197.343C404.581 196.064 408.139 195.469 411.707 195.594H615.761C619.331 195.469 622.886 196.064 626.218 197.343C629.555 198.622 632.594 200.56 635.166 203.041C637.734 205.521 639.78 208.494 641.175 211.781C642.57 215.068 643.29 218.602 643.29 222.174C643.29 225.745 642.57 229.279 641.175 232.566C639.78 235.854 637.734 238.826 635.166 241.306C632.594 243.787 629.555 245.725 626.218 247.004C622.886 248.283 619.331 248.878 615.761 248.753ZM411.707 202.145C409.009 202.036 406.317 202.473 403.791 203.431C401.266 204.388 398.961 205.845 397.013 207.716C395.065 209.587 393.515 211.832 392.457 214.316C391.398 216.8 390.853 219.473 390.853 222.174C390.853 224.874 391.398 227.547 392.457 230.031C393.515 232.516 395.065 234.761 397.013 236.631C398.961 238.502 401.266 239.959 403.791 240.917C406.317 241.874 409.009 242.311 411.707 242.202H615.761C618.457 242.311 621.148 241.874 623.676 240.917C626.198 239.959 628.508 238.502 630.454 236.631C632.401 234.761 633.95 232.516 635.013 230.031C636.07 227.547 636.616 224.874 636.616 222.174C636.616 219.473 636.07 216.8 635.013 214.316C633.95 211.832 632.401 209.587 630.454 207.716C628.508 205.845 626.198 204.388 623.676 203.431C621.148 202.473 618.457 202.036 615.761 202.145H411.707Z" fill="#183154"/>
<path d="M174.641 315.441C173.772 315.441 172.939 315.096 172.325 314.481C171.71 313.867 171.365 313.034 171.365 312.165V291.465C171.365 290.597 171.71 289.764 172.325 289.149C172.939 288.535 173.772 288.19 174.641 288.19C175.509 288.19 176.342 288.535 176.957 289.149C177.571 289.764 177.915 290.597 177.915 291.465V312.165C177.915 313.034 177.571 313.867 176.957 314.481C176.342 315.096 175.509 315.441 174.641 315.441Z" fill="#183154"/>
<path d="M635.409 315.441C634.54 315.441 633.711 315.096 633.095 314.481C632.479 313.867 632.137 313.034 632.137 312.165V291.465C632.137 290.597 632.479 289.764 633.095 289.149C633.711 288.535 634.54 288.19 635.409 288.19C636.278 288.19 637.112 288.535 637.728 289.149C638.339 289.764 638.686 290.597 638.686 291.465V312.165C638.686 313.034 638.339 313.867 637.728 314.481C637.112 315.096 636.278 315.441 635.409 315.441Z" fill="#183154"/>
<path d="M107.2 223.14C93.011 223.163 79.2536 218.261 68.2755 209.272C57.2978 200.282 49.7793 187.761 47.004 173.845C44.2287 159.93 46.3683 145.483 53.0576 132.969C59.7469 120.456 70.5716 110.651 83.684 105.229C82.8001 100.553 82.3616 95.8046 82.3735 91.0464C82.7057 72.4271 89.6378 54.5307 101.934 40.5452C114.23 26.5598 131.091 17.3938 149.515 14.6804C167.939 11.967 186.727 15.8824 202.533 25.7291C218.339 35.5757 230.136 50.7141 235.822 68.4471C241.972 67.0036 248.273 66.2994 254.59 66.3506C274.568 67.5756 293.325 76.3753 307.038 90.9551C320.751 105.534 328.386 124.796 328.386 144.811C328.386 164.826 320.751 184.088 307.038 198.667C293.325 213.247 274.568 222.046 254.59 223.271L107.2 223.14Z" fill="#FFADAD"/>
<path opacity="0.7" d="M296.71 76.6689C304.075 88.5558 308.135 102.192 308.473 116.171C308.811 130.149 305.414 143.965 298.632 156.194C291.85 168.422 281.93 178.621 269.893 185.736C257.856 192.853 244.139 196.629 230.156 196.677H82.7665C72.6529 196.68 62.6952 194.182 53.7803 189.405C59.027 199.164 66.8192 207.32 76.329 213.006C85.8383 218.692 96.7101 221.696 107.79 221.7H255.179C272.167 221.592 288.662 215.982 302.195 205.713C315.728 195.443 325.569 181.066 330.247 164.734C334.923 148.403 334.183 130.996 328.138 115.119C322.092 99.2435 311.066 85.7532 296.71 76.6689Z" fill="#99394C"/>
<path d="M142.935 33.304C144.238 33.304 145.487 32.7864 146.409 31.865C147.33 30.9436 147.848 29.694 147.848 28.391C147.848 27.088 147.33 25.8384 146.409 24.917C145.487 23.9957 144.238 23.478 142.935 23.478C141.632 23.478 140.382 23.9957 139.461 24.917C138.539 25.8384 138.021 27.088 138.021 28.391C138.021 29.694 138.539 30.9436 139.461 31.865C140.382 32.7864 141.632 33.304 142.935 33.304Z" fill="#F7F7F7"/>
<path d="M112.802 56.6894C117.463 50.6472 123.097 45.4227 129.473 41.23C133.404 38.6097 129.703 32.2229 125.772 34.8759C118.346 39.7672 111.801 45.8801 106.415 52.9557C103.566 56.755 109.953 60.4236 112.802 56.6894Z" fill="#F7F7F7"/>
<path d="M489.627 343.967C495.38 343.967 500.045 339.304 500.045 333.552C500.045 327.799 495.38 323.136 489.627 323.136C483.875 323.136 479.212 327.799 479.212 333.552C479.212 339.304 483.875 343.967 489.627 343.967Z" fill="#A4CEFE"/>
<path opacity="0.5" d="M467.485 342.1C470.362 342.1 472.693 339.768 472.693 336.892C472.693 334.016 470.362 331.684 467.485 331.684C464.609 331.684 462.277 334.016 462.277 336.892C462.277 339.768 464.609 342.1 467.485 342.1Z" fill="#A4CEFE"/>
<path d="M491.821 186.13C497.572 186.13 502.234 181.467 502.234 175.715C502.234 169.962 497.572 165.299 491.821 165.299C486.069 165.299 481.405 169.962 481.405 175.715C481.405 181.467 486.069 186.13 491.821 186.13Z" fill="#A4CEFE"/>
<path opacity="0.5" d="M469.681 184.263C472.557 184.263 474.888 181.931 474.888 179.055C474.888 176.179 472.557 173.847 469.681 173.847C466.805 173.847 464.473 176.179 464.473 179.055C464.473 181.931 466.805 184.263 469.681 184.263Z" fill="#A4CEFE"/>
<path d="M157.444 343.738C162.093 343.738 165.862 339.97 165.862 335.321C165.862 330.672 162.093 326.903 157.444 326.903C152.795 326.903 149.026 330.672 149.026 335.321C149.026 339.97 152.795 343.738 157.444 343.738Z" fill="#F7F7F7"/>
<path opacity="0.5" d="M146.734 354.122C149.067 354.122 150.959 352.231 150.959 349.897C150.959 347.563 149.067 345.672 146.734 345.672C144.401 345.672 142.509 347.563 142.509 349.897C142.509 352.231 144.401 354.122 146.734 354.122Z" fill="#F7F7F7"/>
<path d="M197.567 342.625C202.216 342.625 205.985 338.856 205.985 334.207C205.985 329.558 202.216 325.79 197.567 325.79C192.918 325.79 189.149 329.558 189.149 334.207C189.149 338.856 192.918 342.625 197.567 342.625Z" fill="#F7F7F7"/>
<path opacity="0.5" d="M179.488 337.908C181.821 337.908 183.713 336.016 183.713 333.683C183.713 331.349 181.821 329.458 179.488 329.458C177.155 329.458 175.263 331.349 175.263 333.683C175.263 336.016 177.155 337.908 179.488 337.908Z" fill="#F7F7F7"/>
<path d="M376.891 201.883C384.741 201.883 391.106 195.519 391.106 187.668C391.106 179.818 384.741 173.454 376.891 173.454C369.04 173.454 362.676 179.818 362.676 187.668C362.676 195.519 369.04 201.883 376.891 201.883Z" fill="#F7F7F7"/>
<path opacity="0.5" d="M370.863 222.029C374.789 222.029 377.971 218.846 377.971 214.921C377.971 210.996 374.789 207.814 370.863 207.814C366.938 207.814 363.756 210.996 363.756 214.921C363.756 218.846 366.938 222.029 370.863 222.029Z" fill="#F7F7F7"/>
<path d="M177.914 398.632C190.776 398.632 201.202 388.206 201.202 375.344C201.202 362.483 190.776 352.057 177.914 352.057C165.053 352.057 154.627 362.483 154.627 375.344C154.627 388.206 165.053 398.632 177.914 398.632Z" fill="#FFADAD"/>
<path opacity="0.7" d="M200.35 373.936C200.295 378.987 198.599 383.883 195.518 387.886C192.436 391.888 188.137 394.781 183.268 396.126C178.399 397.472 173.225 397.198 168.526 395.346C163.826 393.494 159.856 390.164 157.215 385.858C160.804 388.015 164.916 389.148 169.104 389.134C175.28 389.134 181.204 386.68 185.571 382.313C189.938 377.945 192.391 372.022 192.391 365.846C192.406 361.658 191.274 357.546 189.116 353.957C192.557 356.03 195.401 358.961 197.37 362.463C199.339 365.966 200.366 369.918 200.35 373.936Z" fill="#99394C"/>
<path d="M177.49 402.203C172.23 402.203 167.088 400.643 162.714 397.721C158.341 394.799 154.932 390.645 152.919 385.785C150.906 380.926 150.38 375.578 151.405 370.419C152.432 365.26 154.965 360.521 158.684 356.802C162.403 353.082 167.143 350.549 172.302 349.523C177.46 348.497 182.808 349.024 187.668 351.036C192.527 353.049 196.681 356.458 199.603 360.832C202.526 365.205 204.085 370.347 204.085 375.607C204.085 382.661 201.284 389.426 196.296 394.413C191.308 399.401 184.543 402.203 177.49 402.203ZM177.49 355.595C173.524 355.595 169.647 356.772 166.35 358.976C163.053 361.18 160.484 364.312 158.968 367.977C157.452 371.642 157.056 375.673 157.833 379.563C158.609 383.452 160.521 387.023 163.328 389.826C166.134 392.628 169.709 394.534 173.6 395.304C177.49 396.074 181.521 395.672 185.184 394.15C188.846 392.628 191.974 390.054 194.173 386.753C196.371 383.452 197.542 379.573 197.535 375.607C197.526 370.297 195.41 365.207 191.652 361.455C187.894 357.703 182.801 355.595 177.49 355.595Z" fill="#183154"/>
<path d="M244.47 398.632C257.331 398.632 267.758 388.206 267.758 375.344C267.758 362.483 257.331 352.057 244.47 352.057C231.609 352.057 221.183 362.483 221.183 375.344C221.183 388.206 231.609 398.632 244.47 398.632Z" fill="#FFADAD"/>
<path d="M314.299 398.632C327.16 398.632 337.587 388.206 337.587 375.344C337.587 362.483 327.16 352.057 314.299 352.057C301.438 352.057 291.012 362.483 291.012 375.344C291.012 388.206 301.438 398.632 314.299 398.632Z" fill="#EEF0F1"/>
<path d="M317.148 402.203C311.888 402.203 306.746 400.643 302.373 397.721C297.999 394.799 294.59 390.645 292.577 385.785C290.564 380.926 290.038 375.578 291.064 370.419C292.09 365.26 294.623 360.521 298.342 356.802C302.062 353.082 306.801 350.549 311.96 349.523C317.119 348.497 322.466 349.024 327.326 351.036C332.186 353.049 336.339 356.458 339.262 360.832C342.184 365.205 343.744 370.347 343.744 375.607C343.744 382.661 340.942 389.426 335.954 394.413C330.966 399.401 324.202 402.203 317.148 402.203ZM317.148 355.595C313.182 355.595 309.306 356.772 306.008 358.976C302.712 361.18 300.142 364.312 298.626 367.977C297.11 371.642 296.715 375.673 297.491 379.563C298.267 383.452 300.18 387.023 302.986 389.826C305.793 392.628 309.367 394.534 313.258 395.304C317.148 396.074 321.18 395.672 324.842 394.15C328.504 392.628 331.632 390.054 333.831 386.753C336.029 383.452 337.2 379.573 337.193 375.607C337.184 370.297 335.069 365.207 331.311 361.455C327.553 357.703 322.459 355.595 317.148 355.595Z" fill="#183154"/>
<g opacity="0.4">
<path opacity="0.4" d="M115.39 156.226C126.894 156.226 136.221 146.899 136.221 135.395C136.221 123.89 126.894 114.563 115.39 114.563C103.885 114.563 94.5586 123.89 94.5586 135.395C94.5586 146.899 103.885 156.226 115.39 156.226Z" fill="#F7F7F7"/>
<path opacity="0.4" d="M91.4136 176.565C97.1658 176.565 101.829 171.902 101.829 166.15C101.829 160.397 97.1658 155.734 91.4136 155.734C85.6613 155.734 80.998 160.397 80.998 166.15C80.998 171.902 85.6613 176.565 91.4136 176.565Z" fill="#F7F7F7"/>
</g>
<path d="M255.475 225.433H108.085C97.2266 225.422 86.5459 222.673 77.0322 217.439C67.5179 212.205 59.478 204.656 53.6557 195.49C47.8336 186.324 44.4175 175.838 43.7237 165.001C43.0299 154.165 45.0807 143.328 49.6866 133.495C50.0655 132.725 50.7319 132.135 51.5418 131.851C52.3512 131.567 53.2401 131.613 54.0167 131.978C54.7933 132.342 55.3962 132.997 55.6951 133.801C55.9935 134.606 55.9647 135.495 55.6147 136.279C51.9882 143.97 50.1201 152.373 50.145 160.876C50.1623 176.244 56.2701 190.978 67.1306 201.85C77.9905 212.723 92.7178 218.848 108.085 218.882H255.475C266.227 219.053 276.891 216.919 286.751 212.625C296.609 208.33 305.435 201.975 312.634 193.986C319.832 185.997 325.237 176.56 328.484 166.308C331.731 156.056 332.746 145.228 331.46 134.551C330.175 123.875 326.618 113.597 321.029 104.41C315.44 95.222 307.949 87.3375 299.06 81.2863C290.17 75.2346 280.088 71.1568 269.491 69.3264C258.895 67.4961 248.029 67.9554 237.624 70.6741L234.611 71.3947L233.694 68.4143C228.301 51.3417 217.005 36.7479 201.829 27.2485C186.654 17.7492 168.591 13.9652 150.878 16.575C133.166 19.1847 116.962 28.0176 105.171 41.4902C93.3802 54.9627 86.7729 72.1946 86.5335 90.0969C86.5271 94.6564 86.9437 99.207 87.7784 103.69L88.3023 106.277L85.8458 107.325C82.6896 108.672 79.6635 110.305 76.8062 112.205C76.4432 112.442 76.037 112.604 75.6115 112.683C75.1854 112.762 74.7479 112.755 74.3249 112.664C73.9013 112.573 73.5001 112.398 73.1445 112.151C72.789 111.903 72.4861 111.588 72.2532 111.222C71.7854 110.493 71.626 109.607 71.8103 108.759C71.9945 107.912 72.5074 107.172 73.2359 106.703C75.7133 105.09 78.2954 103.646 80.9655 102.379C78.3044 82.3678 83.1295 62.079 94.5139 45.4081C105.898 28.7371 123.04 16.8591 142.647 12.0547C162.254 7.25036 182.945 9.85834 200.747 19.3779C218.549 28.8974 232.206 44.6575 239.098 63.6323C250.388 61.1211 262.083 61.0303 273.411 63.3661C284.739 65.7015 295.445 70.4109 304.821 77.1837C314.197 83.9559 322.032 92.6384 327.81 102.658C333.588 112.678 337.178 123.808 338.343 135.316C339.507 146.824 338.221 158.448 334.568 169.422C330.915 180.397 324.978 190.473 317.149 198.987C309.32 207.501 299.776 214.26 289.146 218.818C278.515 223.377 267.039 225.631 255.475 225.433Z" fill="#183154"/>
<path d="M375.417 436.167H449.799C451.918 436.167 453.951 437.01 455.45 438.508C456.949 440.007 457.79 442.04 457.79 444.159H367.425C367.425 442.04 368.266 440.007 369.766 438.508C371.264 437.01 373.297 436.167 375.417 436.167Z" fill="#A4CEFE"/>
<path d="M275.749 436.167H350.131C352.251 436.167 354.283 437.01 355.782 438.508C357.281 440.007 358.123 442.04 358.123 444.159H267.757C267.757 442.04 268.599 440.007 270.098 438.508C271.596 437.01 273.629 436.167 275.749 436.167Z" fill="#A4CEFE"/>
<path d="M645.237 448.253H150.664C142.846 448.253 135.349 445.148 129.82 439.62C124.292 434.091 121.187 426.594 121.187 418.776V339.218C121.187 331.4 124.292 323.902 129.82 318.374C135.349 312.846 142.846 309.74 150.664 309.74H645.237C653.053 309.74 660.551 312.846 666.083 318.374C671.609 323.902 674.713 331.4 674.713 339.218V418.743C674.718 422.617 673.958 426.454 672.478 430.034C670.999 433.614 668.829 436.868 666.093 439.608C663.356 442.349 660.104 444.523 656.524 446.006C652.948 447.49 649.11 448.253 645.237 448.253ZM150.664 316.225C144.584 316.225 138.752 318.641 134.452 322.941C130.153 327.241 127.737 333.072 127.737 339.153V418.677C127.737 424.758 130.153 430.589 134.452 434.889C138.752 439.189 144.584 441.605 150.664 441.605H645.237C651.32 441.605 657.149 439.189 661.45 434.889C665.75 430.589 668.163 424.758 668.163 418.677V339.218C668.163 333.137 665.75 327.306 661.45 323.006C657.149 318.707 651.32 316.291 645.237 316.291L150.664 316.225Z" fill="#183154"/>
<path d="M312.957 51.2525C317.009 51.2525 320.294 47.9676 320.294 43.9156C320.294 39.8636 317.009 36.5789 312.957 36.5789C308.905 36.5789 305.62 39.8636 305.62 43.9156C305.62 47.9676 308.905 51.2525 312.957 51.2525Z" fill="#E0F0F5"/>
<path opacity="0.7" d="M267.757 376.492C267.76 381.593 266.088 386.555 262.998 390.613C259.908 394.672 255.57 397.603 250.652 398.957C245.734 400.312 240.507 400.014 235.775 398.109C231.043 396.204 227.066 392.798 224.458 388.414C228.047 390.571 232.159 391.704 236.347 391.69C242.524 391.69 248.447 389.236 252.814 384.869C257.181 380.501 259.635 374.578 259.635 368.402C259.649 364.214 258.517 360.102 256.36 356.513C259.831 358.567 262.707 361.489 264.706 364.992C266.705 368.495 267.756 372.459 267.757 376.492Z" fill="#99394C"/>
<path d="M247.318 402.203C242.058 402.203 236.916 400.643 232.542 397.721C228.169 394.799 224.76 390.645 222.747 385.785C220.734 380.926 220.208 375.578 221.234 370.419C222.26 365.26 224.793 360.521 228.512 356.802C232.232 353.082 236.971 350.549 242.13 349.523C247.289 348.497 252.636 349.024 257.496 351.036C262.355 353.049 266.509 356.458 269.432 360.832C272.354 365.205 273.914 370.347 273.914 375.607C273.914 382.661 271.112 389.426 266.124 394.413C261.136 399.401 254.372 402.203 247.318 402.203ZM247.318 355.595C243.352 355.595 239.476 356.772 236.178 358.976C232.882 361.18 230.312 364.312 228.796 367.977C227.28 371.642 226.885 375.673 227.661 379.563C228.437 383.452 230.35 387.023 233.156 389.826C235.963 392.628 239.537 394.534 243.428 395.304C247.318 396.074 251.349 395.672 255.012 394.15C258.674 392.628 261.802 390.054 264.001 386.753C266.199 383.452 267.37 379.573 267.363 375.607C267.354 370.297 265.239 365.207 261.48 361.455C257.722 357.703 252.629 355.595 247.318 355.595Z" fill="#183154"/>
</g>
</g>
<defs>
<clipPath id="clip0_901_17305">
<rect width="796" height="447.409" fill="white" transform="translate(0 0.845215)"/>
</clipPath>
</defs>
</svg>
