<svg width="673" height="594" viewBox="0 0 673 594" fill="none" xmlns="http://www.w3.org/2000/svg">
<path d="M329.199 593.638C504.714 593.638 646.998 573.361 646.998 548.348C646.998 523.335 504.714 503.058 329.199 503.058C153.683 503.058 11.3995 523.335 11.3995 548.348C11.3995 573.361 153.683 593.638 329.199 593.638Z" fill="#6F95C9"/>
<path opacity="0.5" d="M329.199 593.638C504.714 593.638 646.998 573.361 646.998 548.348C646.998 523.335 504.714 503.058 329.199 503.058C153.683 503.058 11.3995 523.335 11.3995 548.348C11.3995 573.361 153.683 593.638 329.199 593.638Z" fill="white"/>
<path d="M656.577 376.83C651.251 378.241 646.453 381.177 642.773 385.279C639.556 388.716 636.757 392.522 634.435 396.617C632.864 399.208 631.561 401.893 630.304 404.61C629.488 406.385 628.86 408.599 628.09 410.625C626.975 412.431 625.86 414.284 624.949 416.011C628.279 403.998 639.083 381.887 639.224 375.605C639.444 368.758 632.943 378.934 629.237 392.879C627.165 400.766 625.591 408.775 624.525 416.859C624.149 417.582 623.819 418.257 623.52 418.901C622.845 420.298 621.699 422.67 620.176 425.779C623.52 415.572 624.73 403.464 622.72 401.956C619.799 399.789 618.746 405.097 618.762 414.928C618.476 421.948 617.321 428.905 615.323 435.641C613.486 439.269 611.428 443.273 609.23 447.498C611.538 440.148 612.873 429.564 614.13 421.633C615.967 410.091 615.182 406.495 611.444 412.038C607.707 417.582 608.303 425.622 609.246 435.453C609.563 441.736 608.423 448.008 605.916 453.779C603.105 459.118 600.122 464.646 597.107 470.08C599.664 464.511 601.283 458.557 601.896 452.46C603.2 439.127 601.488 426.878 598.394 430.349C595.301 433.819 597.138 443.1 596.73 454.392C596.506 461.247 595.734 468.074 594.421 474.807L593.479 476.471C594.72 470.738 595.049 464.844 594.453 459.008C595.065 456.778 594.845 455.349 594.107 454.674C593.997 452.162 594.201 448.393 593.133 446.461C590.432 441.64 587.48 448.126 587.449 450.685C587.451 452.645 587.588 454.602 587.857 456.543C586.805 457.521 585.896 458.641 585.156 459.872C584.748 460.563 584.324 461.317 583.868 462.149C583.868 461.348 583.962 460.485 583.994 459.715C584.135 457.54 583.679 455.368 582.675 453.434C584.296 450.196 585.464 446.751 586.145 443.195C586.461 442.018 586.378 440.77 585.91 439.646C585.754 439.299 585.53 438.986 585.253 438.725C584.976 438.465 584.65 438.261 584.294 438.127C583.938 437.993 583.559 437.93 583.179 437.943C582.798 437.956 582.424 438.043 582.078 438.201C581.911 438.28 581.748 438.37 581.591 438.468C576.472 441.185 575.105 447.717 574.509 452.962C573.946 457.486 573.032 461.96 571.776 466.342C570.724 470.284 569.797 473.849 569.201 476.33C568.794 473.683 568.238 471.062 567.536 468.478C566.955 466.326 566.405 464.254 565.872 462.196C565.38 454.921 566.804 447.644 570.002 441.09C576.063 428.621 580.445 422.748 576.283 422.544C572.122 422.34 565.981 428.826 565.118 439.096C564.469 445.319 564.337 451.586 564.725 457.831C563.39 453.119 562.071 448.55 560.705 443.964C559.649 438.9 559.908 433.651 561.459 428.716C564.317 420.251 572.86 405.16 568.368 406.4C563.877 407.641 558.475 416.31 557.863 425.543C557.7 430.368 558.229 435.191 559.433 439.865C558.459 436.662 557.412 433.333 556.292 429.878C555.821 428.307 555.319 426.737 554.832 425.167C554.851 424.883 554.808 424.599 554.706 424.334C554.08 419.563 554.941 414.716 557.172 410.452C561.474 402.726 569.468 396.083 564.757 394.309C560.045 392.534 552.932 405.097 552.508 411.379C552.413 413.769 552.602 416.162 553.073 418.508L552.492 417.048C551.471 413.436 550.482 409.871 549.618 406.715C549.432 402.054 550.369 397.416 552.351 393.194C556.559 383.551 561.898 372.543 556.449 375.338C552.052 377.615 547.31 390.602 548.236 401.579C547.875 400.135 547.529 398.91 547.262 397.905C546.556 391.623 545.205 376.83 547.262 368.067C548.613 362.194 550.827 356.619 551.502 350.573C551.639 349.903 551.59 349.208 551.361 348.563C549.885 344.92 545.08 352.018 544.357 353.18C541.423 357.855 539.922 363.287 540.039 368.805C540.042 373.508 540.601 378.194 541.703 382.766C542.373 385.687 543.185 388.577 544.137 391.435C544.734 393.272 545.802 395.329 546.619 397.324C547.027 399.412 547.482 401.532 547.969 403.432C542.206 392.283 534.904 368.743 530.821 363.953C526.314 358.818 528.496 370.768 535.249 383.41C539.132 390.631 543.464 397.602 548.22 404.28C548.44 405.066 548.66 405.851 548.88 406.463C549.335 407.939 550.121 410.468 551.126 413.781C546.54 404.092 539.222 394.356 536.725 394.623C533.129 395.031 535.987 399.632 542.693 406.809C547.245 412.132 551.122 417.997 554.235 424.271C555.366 428.197 556.606 432.5 557.878 437.086C554.533 430.145 548.283 421.492 543.745 414.849C537.212 405.16 534.181 403.056 535.233 409.651C536.285 416.247 542.237 421.696 549.634 428.276C554.129 432.677 557.556 438.049 559.653 443.98C561.223 449.79 562.794 455.868 564.364 461.914C562.435 456.091 559.559 450.626 555.852 445.739C547.686 435.076 538.076 427.302 538.186 431.935C538.296 436.568 545.959 442.127 553.403 450.607C557.919 455.757 562 461.272 565.605 467.096C565.762 467.693 565.903 468.305 566.044 468.902C562.715 462.793 557.391 457.815 552.225 453.198C550.403 451.533 547.655 448.031 545.315 447.278C540.07 445.613 542.331 452.366 544.059 454.25C549.665 460.375 557.564 464.159 562.746 470.614C564.701 473.039 566.45 475.624 567.976 478.34C568.337 480.46 568.604 482.439 568.824 484.292C566.835 482.407 564.741 480.627 562.542 478.952C556.261 474.697 552.539 468.839 547.655 463.248C546.195 461.584 543.713 459.511 541.374 459.401C538.044 459.26 537.055 462.746 538.044 465.494C541.892 476.817 556.371 477.319 564.866 483.208C566.416 484.2 567.849 485.365 569.138 486.679C569.499 490.174 569.593 493.691 569.421 497.2H549.948V505.319H555.727L560.438 534.214H599.368L604.079 505.319H609.858V497.2H580.665C581.999 495.536 583.428 493.871 584.873 491.971L591.029 492.159C591.029 492.159 612.434 493.086 620.285 488.814C628.137 484.543 621.133 480.491 613.611 482.674C606.089 484.857 591.327 491.468 588.061 491.468L585.297 491.39C586.868 489.395 588.438 487.338 589.82 485.234C595.713 483.753 601.509 481.907 607.173 479.706C613.313 477.272 620.505 475.309 625.735 471.179C626.751 470.51 627.522 469.529 627.933 468.384C628.172 467.655 628.113 466.861 627.769 466.175C627.424 465.49 626.823 464.968 626.096 464.725C625.927 464.668 625.754 464.626 625.578 464.599C619.971 463.029 614.506 466.923 610.58 470.347C607.125 473.272 603.45 475.929 599.588 478.293C596.117 480.428 593.008 482.439 590.903 483.805C592.474 481.496 593.887 479.188 595.096 476.942C596.149 474.964 597.169 473.079 598.127 471.242C602.751 465.615 608.758 461.286 615.559 458.679C628.499 453.685 635.675 452.397 632.833 449.398C629.99 446.398 620.992 446.948 613.36 453.873C608.628 457.977 604.248 462.468 600.263 467.3C602.54 462.903 604.676 458.694 606.796 454.423C609.493 449.995 613.277 446.331 617.788 443.776C625.64 439.567 642.161 434.353 638.062 432.202C633.963 430.051 624.07 432.673 617.349 439.017C613.931 442.437 611.022 446.329 608.712 450.575C610.188 447.545 611.695 444.42 613.281 441.153C613.957 439.708 614.695 438.232 615.449 436.693C615.606 436.458 615.778 436.238 615.92 435.987C618.722 432.073 622.666 429.122 627.211 427.538C635.55 424.821 646.055 425.418 643.763 420.864C641.47 416.31 627.713 420.675 623.112 424.994C621.42 426.69 619.924 428.57 618.652 430.6C618.856 430.129 619.061 429.626 619.249 429.124C620.914 425.795 622.578 422.466 624.243 419.702C627.273 416.156 631.121 413.401 635.455 411.677C645.113 407.515 656.546 403.103 650.641 401.422C645.93 400.072 633.524 406.322 626.74 414.99L628.53 411.661C632.299 406.558 641.407 394.827 648.945 389.786C653.939 386.441 659.357 383.834 663.942 379.877C664.446 379.499 664.854 379.01 665.136 378.448C666.361 374.616 658.053 376.563 656.577 376.83ZM569.452 477.853C570.708 475.937 572.923 472.404 575.372 467.865C576.127 469.934 576.986 471.962 577.948 473.943C575.686 478.654 573.614 482.643 572.42 483.679L570.347 485.501C570.206 483.02 569.845 480.476 569.483 477.916L569.452 477.853ZM583.585 491.343C582.066 493.363 580.43 495.292 578.686 497.122H571.148C571.038 493.981 570.818 490.228 570.457 486.129L575.09 482.046C575.09 482.046 577.115 480.381 579.801 477.696C581.118 480.285 582.14 483.014 582.847 485.831C583.348 487.669 583.617 489.563 583.648 491.468L583.585 491.343ZM589.867 475.309C589.645 478.422 589.162 481.511 588.422 484.543C587.245 486.349 586.082 487.982 584.983 489.537C584.889 486.741 584.135 481.685 584.057 481.339C583.539 479.076 583.255 476.766 583.209 474.445C585.426 472.164 587.523 469.768 589.49 467.269C589.937 469.945 590.089 472.662 589.946 475.372L589.867 475.309Z" fill="#263238"/>
<path d="M601.614 70.228V375.26C601.614 383.112 595.756 389.393 588.485 389.393H35.9917C28.7365 389.393 22.8476 383.112 22.8476 375.26V70.228C22.8476 62.376 28.7365 56.0945 35.9917 56.0945H588.532C595.803 56.1102 601.614 62.4231 601.614 70.228Z" fill="white" stroke="#263238" stroke-width="1.06897" stroke-linecap="round" stroke-linejoin="round"/>
<path d="M182.305 109.535H53.5329C48.0776 109.535 43.6552 113.957 43.6552 119.412V336.55C43.6552 342.005 48.0776 346.427 53.5329 346.427H182.305C187.76 346.427 192.182 342.005 192.182 336.55V119.412C192.182 113.957 187.76 109.535 182.305 109.535Z" fill="#6F95C9"/>
<path d="M99.3882 162.143C99.3882 166.649 98.0518 171.055 95.5481 174.802C93.0443 178.549 89.4855 181.47 85.3219 183.195C81.1582 184.919 76.5767 185.37 72.1566 184.491C67.7364 183.612 63.6763 181.442 60.4896 178.255C57.3029 175.068 55.1327 171.008 54.2535 166.588C53.3742 162.168 53.8255 157.586 55.5501 153.423C57.2748 149.259 60.1953 145.7 63.9425 143.197C67.6897 140.693 72.0952 139.356 76.6019 139.356C79.5949 139.354 82.5588 139.942 85.3243 141.087C88.0898 142.231 90.6026 143.909 92.7189 146.026C94.8352 148.142 96.5136 150.655 97.6579 153.42C98.8023 156.186 99.3903 159.15 99.3882 162.143Z" fill="white" stroke="#263238" stroke-width="1.06897" stroke-linecap="round" stroke-linejoin="round"/>
<path d="M169.899 149.046H122.332V153.553H169.899V149.046Z" fill="#263238"/>
<path d="M175.709 159.881H122.332V164.388H175.709V159.881Z" fill="#263238"/>
<path d="M169.899 170.717H122.332V175.224H169.899V170.717Z" fill="#263238"/>
<path d="M178.771 181.537H122.332V186.044H178.771V181.537Z" fill="#263238"/>
<path d="M167.292 211.578H68.3417C63.7016 211.578 59.9401 215.34 59.9401 219.98V240.332C59.9401 244.972 63.7016 248.734 68.3417 248.734H167.292C171.932 248.734 175.693 244.972 175.693 240.332V219.98C175.693 215.34 171.932 211.578 167.292 211.578Z" fill="white" stroke="#263238" stroke-width="1.06897" stroke-linecap="round" stroke-linejoin="round"/>
<path d="M167.292 261.093H68.3417C63.7016 261.093 59.9401 264.854 59.9401 269.494V289.847C59.9401 294.487 63.7016 298.248 68.3417 298.248H167.292C171.932 298.248 175.693 294.487 175.693 289.847V269.494C175.693 264.854 171.932 261.093 167.292 261.093Z" fill="white" stroke="#263238" stroke-width="1.06897" stroke-linecap="round" stroke-linejoin="round"/>
<path d="M425.463 108.859V360.828" stroke="#263238" stroke-width="1.06897" stroke-linecap="round" stroke-linejoin="round"/>
<path d="M601.614 69.27V89.685H22.8476V69.27C22.8476 65.7825 24.2319 62.4376 26.6965 59.9701C29.161 57.5026 32.5042 56.1143 35.9917 56.1101H588.532C592.011 56.1226 595.343 57.5156 597.796 59.9831C600.249 62.4506 601.622 65.7908 601.614 69.27Z" fill="#263238"/>
<path d="M62.4213 78.1271C65.3268 78.1271 67.6821 75.7717 67.6821 72.8663C67.6821 69.9608 65.3268 67.6055 62.4213 67.6055C59.5159 67.6055 57.1606 69.9608 57.1606 72.8663C57.1606 75.7717 59.5159 78.1271 62.4213 78.1271Z" fill="white"/>
<path d="M91.976 72.8663C91.976 73.9068 91.6675 74.9239 91.0894 75.789C90.5113 76.6541 89.6897 77.3284 88.7284 77.7266C87.7671 78.1248 86.7094 78.229 85.6889 78.026C84.6684 77.823 83.731 77.3219 82.9953 76.5862C82.2595 75.8505 81.7585 74.9131 81.5555 73.8926C81.3525 72.8721 81.4567 71.8143 81.8549 70.8531C82.253 69.8918 82.9273 69.0701 83.7925 68.4921C84.6576 67.914 85.6747 67.6055 86.7152 67.6055C88.1105 67.6055 89.4486 68.1597 90.4352 69.1463C91.4217 70.1329 91.976 71.471 91.976 72.8663Z" fill="white"/>
<path d="M115.972 72.8663C115.972 73.9068 115.663 74.9239 115.085 75.789C114.507 76.6541 113.685 77.3284 112.724 77.7266C111.763 78.1248 110.705 78.229 109.684 78.026C108.664 77.823 107.727 77.3219 106.991 76.5862C106.255 75.8505 105.754 74.9131 105.551 73.8926C105.348 72.8721 105.452 71.8143 105.85 70.8531C106.249 69.8918 106.923 69.0701 107.788 68.4921C108.653 67.914 109.67 67.6055 110.711 67.6055C112.106 67.6055 113.444 68.1597 114.431 69.1463C115.417 70.1329 115.972 71.471 115.972 72.8663Z" fill="white"/>
<path d="M574.21 132.258H447.857V136.451H574.21V132.258Z" fill="#6F95C9"/>
<path d="M508.882 145.34H447.857V149.533H508.882V145.34Z" fill="#6F95C9"/>
<path d="M545.535 158.421H447.857V162.614H545.535V158.421Z" fill="#6F95C9"/>
<path d="M535.108 171.125H447.857V175.679H535.108V171.125Z" fill="#6F95C9"/>
<path d="M532.375 184.583H447.857V188.776H532.375V184.583Z" fill="#6F95C9"/>
<path d="M502.773 197.665H447.857V201.858H502.773V197.665Z" fill="#6F95C9"/>
<path opacity="0.2" d="M574.21 132.258H447.857V136.451H574.21V132.258Z" fill="black"/>
<path opacity="0.2" d="M508.882 145.34H447.857V149.533H508.882V145.34Z" fill="black"/>
<path opacity="0.2" d="M545.535 158.421H447.857V162.614H545.535V158.421Z" fill="black"/>
<path opacity="0.2" d="M535.108 171.125H447.857V175.679H535.108V171.125Z" fill="black"/>
<path opacity="0.2" d="M532.375 184.583H447.857V188.776H532.375V184.583Z" fill="black"/>
<path opacity="0.2" d="M502.773 197.665H447.857V201.858H502.773V197.665Z" fill="black"/>
<path d="M76.6019 174.25C83.8265 174.25 89.6832 168.394 89.6832 161.169C89.6832 153.944 83.8265 148.088 76.6019 148.088C69.3773 148.088 63.5206 153.944 63.5206 161.169C63.5206 168.394 69.3773 174.25 76.6019 174.25Z" fill="#263238"/>
<path d="M89.6676 180.846C85.7247 183.572 81.0229 184.986 76.2304 184.888C71.4379 184.789 66.7983 183.183 62.971 180.296C65.1224 175.978 69.2525 169.304 74.4976 169.304C81.0618 169.21 85.5374 172.099 89.6676 180.846Z" fill="#263238"/>
<path d="M565.306 65.5952H439.267C435.668 65.5952 432.75 68.513 432.75 72.1123V73.6199C432.75 77.2192 435.668 80.137 439.267 80.137H565.306C568.906 80.137 571.823 77.2192 571.823 73.6199V72.1123C571.823 68.513 568.906 65.5952 565.306 65.5952Z" fill="white"/>
<path d="M440.994 68.0764V77.3103" stroke="#263238" stroke-width="1.06897" stroke-linecap="round" stroke-linejoin="round"/>
<path d="M167.355 312.13H135.821C132.395 312.13 129.618 314.908 129.618 318.333V326.295C129.618 329.721 132.395 332.498 135.821 332.498H167.355C170.78 332.498 173.558 329.721 173.558 326.295V318.333C173.558 314.908 170.78 312.13 167.355 312.13Z" fill="#6F95C9"/>
<path d="M575.749 312.429H458.457V250.964" stroke="#263238" stroke-width="1.06897" stroke-linecap="round" stroke-linejoin="round"/>
<path d="M463.2 287.083L468.241 298.342L494.702 263.323L500.229 280.22L510.688 274.347L534.856 298.342L552.9 281.696L559.873 289.03L571.902 265.38" stroke="#263238" stroke-width="1.06897" stroke-linecap="round" stroke-linejoin="round"/>
<path d="M455.709 308.565H447.213V312.413H455.709V308.565Z" fill="#6F95C9"/>
<path d="M455.709 294.495H447.213V298.342H455.709V294.495Z" fill="#6F95C9"/>
<path d="M455.709 280.408H447.213V284.256H455.709V280.408Z" fill="#6F95C9"/>
<path d="M455.709 266.322H447.213V270.169H455.709V266.322Z" fill="#6F95C9"/>
<path d="M455.709 252.251H447.213V256.099H455.709V252.251Z" fill="#6F95C9"/>
<path d="M515.729 315.522V339.785H519.514V315.522H515.729Z" fill="#6F95C9"/>
<path d="M529.203 315.522V339.785H532.988V315.522H529.203Z" fill="#6F95C9"/>
<path d="M542.677 315.538V339.801H546.462V315.538H542.677Z" fill="#6F95C9"/>
<path d="M556.151 315.538V339.801H559.936V315.538H556.151Z" fill="#6F95C9"/>
<path d="M569.625 315.538V339.801H573.409V315.538H569.625Z" fill="#6F95C9"/>
<path d="M501.91 315.538V339.801H505.694V315.538H501.91Z" fill="#6F95C9"/>
<path d="M488.09 315.538V339.801H491.875V315.538H488.09Z" fill="#6F95C9"/>
<path d="M474.255 315.522V339.785H478.04V315.522H474.255Z" fill="#6F95C9"/>
<path d="M460.436 315.538V339.801H464.22V315.538H460.436Z" fill="#6F95C9"/>
<path d="M352.943 119.899C346.67 119.899 340.655 122.391 336.22 126.826C331.785 131.261 329.293 137.277 329.293 143.549C329.293 149.822 331.785 155.837 336.22 160.272C340.655 164.708 346.67 167.199 352.943 167.199C356.049 167.262 359.136 166.713 362.03 165.582C364.923 164.452 367.566 162.763 369.806 160.611C372.047 158.459 373.842 155.887 375.088 153.042C376.335 150.197 377.009 147.134 377.072 144.028C377.135 140.922 376.585 137.835 375.455 134.941C374.325 132.048 372.635 129.405 370.484 127.165C368.332 124.924 365.76 123.129 362.915 121.883C360.07 120.636 357.007 119.962 353.901 119.899H352.943Z" fill="#263238"/>
<path d="M367.94 135.964C367.766 135.298 367.419 134.69 366.933 134.201C366.448 133.713 365.841 133.362 365.176 133.185C362.726 132.525 352.927 132.525 352.927 132.525C352.927 132.525 343.128 132.525 340.694 133.185C340.026 133.361 339.418 133.712 338.929 134.2C338.441 134.688 338.091 135.297 337.914 135.964C337.05 140.989 337.05 146.125 337.914 151.15C338.091 151.817 338.441 152.426 338.929 152.914C339.418 153.403 340.026 153.753 340.694 153.93C343.128 154.589 352.927 154.589 352.927 154.589C352.927 154.589 362.726 154.589 365.176 153.93C365.84 153.749 366.445 153.397 366.93 152.909C367.415 152.422 367.763 151.815 367.94 151.15C368.821 146.126 368.821 140.988 367.94 135.964Z" fill="white"/>
<path d="M349.724 148.213V138.901L357.921 143.549L349.724 148.213Z" fill="#263238"/>
<path d="M259.772 119.962C255.113 119.962 250.559 121.344 246.685 123.932C242.811 126.52 239.792 130.199 238.009 134.504C236.226 138.808 235.76 143.544 236.669 148.113C237.578 152.683 239.821 156.88 243.115 160.174C246.41 163.469 250.607 165.712 255.176 166.621C259.746 167.53 264.482 167.064 268.786 165.281C273.09 163.498 276.769 160.479 279.358 156.605C281.946 152.731 283.328 148.177 283.328 143.518C283.328 137.271 280.846 131.279 276.428 126.861C272.011 122.444 266.019 119.962 259.772 119.962Z" fill="#263238"/>
<path d="M255.799 158.688H261.908V143.392H266.163L266.619 138.273H261.908V135.336C261.908 134.127 262.143 133.656 263.321 133.656H266.619V128.332H262.41C257.872 128.332 255.814 130.342 255.814 134.158V138.241H252.674V143.408H255.814L255.799 158.688Z" fill="white"/>
<path d="M259.63 215.834C254.954 215.834 250.382 217.221 246.493 219.819C242.604 222.417 239.573 226.11 237.782 230.43C235.992 234.751 235.522 239.505 236.434 244.092C237.345 248.68 239.596 252.894 242.902 256.202C246.208 259.51 250.42 261.764 255.007 262.678C259.594 263.592 264.348 263.126 268.67 261.339C272.992 259.551 276.687 256.522 279.287 252.635C281.888 248.748 283.277 244.177 283.281 239.5C283.281 233.226 280.789 227.209 276.355 222.771C271.92 218.334 265.904 215.838 259.63 215.834Z" fill="#263238"/>
<path d="M259.63 228.193C263.305 228.193 263.745 228.193 265.205 228.193C266.08 228.207 266.946 228.372 267.765 228.68C268.359 228.897 268.896 229.246 269.335 229.701C269.793 230.141 270.147 230.677 270.372 231.271C270.676 232.091 270.836 232.957 270.843 233.831C270.843 235.291 270.843 235.778 270.843 239.39C270.843 243.002 270.843 243.52 270.843 244.965C270.837 245.839 270.678 246.706 270.372 247.525C270.153 248.121 269.798 248.659 269.335 249.095C268.897 249.554 268.36 249.908 267.765 250.131C266.943 250.427 266.079 250.586 265.205 250.603C263.745 250.603 263.305 250.603 259.63 250.603C255.956 250.603 255.516 250.603 254.056 250.603C253.182 250.589 252.317 250.43 251.496 250.131C250.901 249.908 250.364 249.554 249.925 249.095C249.463 248.659 249.108 248.121 248.889 247.525C248.583 246.706 248.424 245.839 248.418 244.965C248.418 243.52 248.324 243.08 248.324 239.39C248.324 235.7 248.324 235.291 248.418 233.831C248.425 232.957 248.585 232.091 248.889 231.271C249.108 230.674 249.463 230.137 249.925 229.701C250.365 229.246 250.902 228.897 251.496 228.68C252.316 228.376 253.181 228.212 254.056 228.193C255.516 228.193 255.94 228.193 259.63 228.193ZM259.63 225.712C255.893 225.712 255.406 225.712 253.946 225.712C252.821 225.723 251.705 225.925 250.648 226.309C249.735 226.662 248.906 227.202 248.214 227.895C247.521 228.587 246.981 229.416 246.628 230.329C246.228 231.4 246.011 232.531 245.984 233.674C245.984 235.15 245.89 235.621 245.89 239.359C245.89 243.096 245.89 243.567 245.984 245.043C246.008 246.187 246.225 247.318 246.628 248.388C246.975 249.312 247.512 250.153 248.204 250.857C248.897 251.56 249.729 252.11 250.648 252.471C251.721 252.863 252.851 253.08 253.993 253.115C255.469 253.115 255.94 253.115 259.678 253.115C263.415 253.115 263.886 253.115 265.362 253.115C266.505 253.08 267.634 252.863 268.707 252.471C269.621 252.114 270.45 251.571 271.142 250.876C271.834 250.182 272.374 249.35 272.728 248.435C273.13 247.365 273.347 246.234 273.371 245.09C273.371 243.63 273.466 243.159 273.466 239.406C273.466 235.652 273.466 235.197 273.371 233.721C273.346 232.583 273.128 231.457 272.728 230.392C272.377 229.475 271.838 228.643 271.145 227.948C270.453 227.252 269.622 226.71 268.707 226.356C267.636 225.956 266.505 225.739 265.362 225.712C263.886 225.712 263.415 225.712 259.678 225.712" fill="white"/>
<path d="M259.63 232.355C258.23 232.352 256.859 232.764 255.693 233.54C254.527 234.315 253.616 235.419 253.077 236.712C252.539 238.005 252.395 239.429 252.665 240.803C252.936 242.178 253.607 243.441 254.596 244.434C255.584 245.427 256.844 246.104 258.218 246.38C259.591 246.657 261.015 246.52 262.311 245.987C263.606 245.453 264.714 244.548 265.495 243.385C266.276 242.222 266.694 240.854 266.697 239.453C266.697 237.579 265.953 235.781 264.627 234.456C263.302 233.131 261.505 232.386 259.63 232.386M259.63 244.023C258.72 244.026 257.829 243.759 257.07 243.255C256.311 242.751 255.719 242.034 255.368 241.193C255.018 240.353 254.924 239.427 255.1 238.534C255.276 237.64 255.713 236.819 256.356 236.174C256.999 235.528 257.818 235.089 258.711 234.91C259.604 234.731 260.53 234.821 261.372 235.169C262.214 235.517 262.933 236.107 263.439 236.864C263.946 237.621 264.216 238.511 264.216 239.421C264.216 240.639 263.733 241.807 262.874 242.67C262.014 243.532 260.848 244.019 259.63 244.023Z" fill="white"/>
<path d="M353.822 261.391C350.862 261.393 347.931 260.812 345.196 259.68C342.461 258.548 339.976 256.888 337.883 254.795C335.79 252.702 334.13 250.217 332.998 247.482C331.867 244.747 331.285 241.816 331.287 238.856C331.287 232.879 333.661 227.148 337.888 222.921C342.114 218.695 347.846 216.321 353.822 216.321C359.799 216.321 365.531 218.695 369.757 222.921C373.983 227.148 376.357 232.879 376.357 238.856C376.359 241.816 375.778 244.747 374.646 247.482C373.514 250.217 371.855 252.702 369.762 254.795C367.669 256.888 365.184 258.548 362.449 259.68C359.714 260.812 356.782 261.393 353.822 261.391Z" fill="#263238" stroke="#263238" stroke-width="1.06897" stroke-linecap="round" stroke-linejoin="round"/>
<path d="M341.825 246.488C344.071 247.935 346.69 248.699 349.362 248.687C351.271 248.701 353.162 248.323 354.919 247.576C356.676 246.83 358.26 245.731 359.575 244.347C360.89 242.963 361.906 241.324 362.562 239.531C363.217 237.739 363.498 235.831 363.386 233.925C364.336 233.216 365.159 232.35 365.82 231.365C364.922 231.767 363.97 232.032 362.993 232.151C364.017 231.529 364.781 230.559 365.145 229.418C364.175 230.001 363.113 230.416 362.004 230.643C361.26 229.858 360.279 229.34 359.212 229.167C358.144 228.995 357.05 229.178 356.097 229.688C355.144 230.199 354.385 231.008 353.937 231.992C353.489 232.976 353.377 234.08 353.618 235.134C351.661 235.034 349.746 234.524 347.999 233.636C346.251 232.749 344.709 231.505 343.473 229.983C342.847 231.074 342.66 232.362 342.952 233.585C343.244 234.808 343.992 235.874 345.044 236.563C344.263 236.536 343.499 236.327 342.814 235.951C342.805 237.093 343.193 238.203 343.912 239.091C344.631 239.979 345.636 240.59 346.756 240.819C346.028 240.999 345.268 240.999 344.541 240.819C344.853 241.799 345.465 242.657 346.291 243.271C347.116 243.886 348.114 244.225 349.143 244.243C348.13 245.08 346.963 245.709 345.707 246.094C344.451 246.48 343.132 246.613 341.825 246.488Z" fill="white"/>
<path d="M353.069 316.637C348.387 316.634 343.81 318.019 339.916 320.618C336.022 323.216 332.987 326.911 331.193 331.236C329.399 335.56 328.929 340.319 329.84 344.91C330.751 349.502 333.004 353.72 336.313 357.032C339.622 360.343 343.839 362.598 348.43 363.513C353.021 364.427 357.78 363.959 362.106 362.169C366.431 360.378 370.128 357.345 372.729 353.453C375.33 349.56 376.719 344.984 376.719 340.303C376.719 334.029 374.227 328.012 369.793 323.574C365.358 319.137 359.342 316.641 353.069 316.637Z" fill="#263238"/>
<path d="M346.159 334.1H340.961V350.903H346.159V334.1Z" fill="white"/>
<path d="M343.536 331.901C344.157 331.901 344.765 331.717 345.281 331.372C345.798 331.027 346.2 330.536 346.438 329.963C346.676 329.389 346.738 328.757 346.617 328.148C346.496 327.539 346.196 326.979 345.757 326.54C345.318 326.101 344.758 325.801 344.149 325.68C343.54 325.559 342.908 325.621 342.334 325.859C341.76 326.097 341.27 326.499 340.925 327.016C340.58 327.532 340.396 328.139 340.396 328.761C340.396 329.594 340.726 330.392 341.315 330.981C341.904 331.57 342.703 331.901 343.536 331.901Z" fill="white"/>
<path d="M354.482 342.093C354.482 339.722 355.565 338.324 357.623 338.324C359.68 338.324 360.449 339.675 360.449 342.093V350.903H365.632V340.303C365.632 335.812 363.072 333.613 359.491 333.613C358.479 333.602 357.481 333.854 356.594 334.344C355.708 334.834 354.964 335.545 354.435 336.408V334.163H349.425V350.966H354.435L354.482 342.093Z" fill="white"/>
<path d="M259.615 363.859C253.342 363.859 247.327 361.367 242.892 356.932C238.456 352.497 235.965 346.481 235.965 340.209C235.965 333.935 238.456 327.918 242.891 323.48C247.326 319.042 253.341 316.547 259.615 316.543C265.891 316.543 271.911 319.036 276.349 323.475C280.787 327.913 283.281 333.932 283.281 340.209C283.276 346.483 280.781 352.498 276.343 356.933C271.906 361.368 265.889 363.859 259.615 363.859Z" fill="#263238"/>
<path d="M256.129 349.176C256.808 349.033 257.45 348.75 258.013 348.343C258.613 347.874 259.098 347.273 259.43 346.587C259.762 345.901 259.933 345.148 259.929 344.386C259.952 343.53 259.729 342.685 259.285 341.952C258.831 341.261 258.155 340.746 257.369 340.491C257.849 340.261 258.281 339.941 258.641 339.549C259.176 338.848 259.443 337.98 259.395 337.099C259.425 336.197 259.16 335.31 258.641 334.571C258.114 333.958 257.45 333.479 256.702 333.173C255.954 332.868 255.144 332.744 254.338 332.812H246.314V349.364H253.757C254.552 349.38 255.346 349.317 256.129 349.176ZM249.627 335.686H253.223C253.888 335.663 254.552 335.754 255.186 335.953C255.492 336.074 255.747 336.295 255.91 336.581C256.072 336.866 256.133 337.199 256.081 337.523C256.111 337.805 256.064 338.09 255.945 338.347C255.826 338.604 255.64 338.824 255.406 338.984C254.867 339.275 254.26 339.416 253.647 339.392H249.627V335.686ZM249.627 346.522V342.093H253.694C254.261 342.081 254.825 342.172 255.359 342.36C255.699 342.514 255.983 342.767 256.174 343.088C256.365 343.408 256.453 343.779 256.427 344.15C256.468 344.566 256.386 344.984 256.19 345.353C255.995 345.722 255.695 346.024 255.328 346.223C254.794 346.439 254.222 346.54 253.647 346.522H249.627Z" fill="white"/>
<path d="M262.677 348.312C263.885 349.331 265.415 349.888 266.996 349.882C267.864 349.95 268.737 349.825 269.552 349.515C270.366 349.206 271.102 348.72 271.707 348.092C272.334 347.511 272.748 346.737 272.885 345.894H269.602C269.443 346.21 269.224 346.492 268.959 346.726C268.448 347.121 267.813 347.321 267.168 347.291C266.546 347.307 265.932 347.149 265.394 346.836C264.977 346.55 264.64 346.161 264.417 345.707C264.195 345.253 264.093 344.75 264.122 344.245H273.057C273.089 343.432 273.057 342.618 272.963 341.811C272.799 340.845 272.412 339.93 271.832 339.141C271.309 338.352 270.575 337.726 269.712 337.335C268.801 336.938 267.816 336.74 266.823 336.754C266.015 336.723 265.21 336.857 264.457 337.149C263.703 337.44 263.017 337.883 262.441 338.45C261.296 339.796 260.731 341.541 260.871 343.302C260.766 344.22 260.874 345.15 261.188 346.019C261.501 346.888 262.011 347.672 262.677 348.312ZM264.97 340.146C265.226 339.906 265.527 339.72 265.856 339.598C266.185 339.477 266.535 339.423 266.886 339.439C267.586 339.421 268.268 339.661 268.802 340.115C269.067 340.361 269.28 340.66 269.426 340.992C269.572 341.325 269.648 341.683 269.65 342.046H264.122C264.198 341.34 264.495 340.675 264.97 340.146Z" fill="white"/>
<path d="M270.278 333.755H263.07V335.435H270.278V333.755Z" fill="white"/>
<path d="M285.181 111.058H234.363C230.451 111.058 227.281 114.229 227.281 118.141V168.958C227.281 172.87 230.451 176.041 234.363 176.041H285.181C289.092 176.041 292.263 172.87 292.263 168.958V118.141C292.263 114.229 289.092 111.058 285.181 111.058Z" stroke="#6F95C9" stroke-width="1.06897" stroke-miterlimit="10"/>
<path d="M378.823 111.058H328.005C324.094 111.058 320.923 114.229 320.923 118.141V168.958C320.923 172.87 324.094 176.041 328.005 176.041H378.823C382.734 176.041 385.905 172.87 385.905 168.958V118.141C385.905 114.229 382.734 111.058 378.823 111.058Z" stroke="#6F95C9" stroke-width="1.06897" stroke-miterlimit="10"/>
<path d="M285.181 206.239H234.363C230.451 206.239 227.281 209.41 227.281 213.321V264.139C227.281 268.051 230.451 271.222 234.363 271.222H285.181C289.092 271.222 292.263 268.051 292.263 264.139V213.321C292.263 209.41 289.092 206.239 285.181 206.239Z" stroke="#6F95C9" stroke-width="1.06897" stroke-miterlimit="10"/>
<path d="M378.823 206.239H328.005C324.094 206.239 320.923 209.41 320.923 213.321V264.139C320.923 268.051 324.094 271.222 328.005 271.222H378.823C382.734 271.222 385.905 268.051 385.905 264.139V213.321C385.905 209.41 382.734 206.239 378.823 206.239Z" stroke="#6F95C9" stroke-width="1.06897" stroke-miterlimit="10"/>
<path d="M285.181 306.131H234.363C230.451 306.131 227.281 309.302 227.281 313.214V364.032C227.281 367.943 230.451 371.114 234.363 371.114H285.181C289.092 371.114 292.263 367.943 292.263 364.032V313.214C292.263 309.302 289.092 306.131 285.181 306.131Z" stroke="#6F95C9" stroke-width="1.06897" stroke-miterlimit="10"/>
<path d="M378.823 306.131H328.005C324.094 306.131 320.923 309.302 320.923 313.214V364.032C320.923 367.943 324.094 371.114 328.005 371.114H378.823C382.734 371.114 385.905 367.943 385.905 364.032V313.214C385.905 309.302 382.734 306.131 378.823 306.131Z" stroke="#6F95C9" stroke-width="1.06897" stroke-miterlimit="10"/>
<path d="M377.08 280.236H331.287V294.134H377.08V280.236Z" fill="#6F95C9"/>
<path d="M377.08 184.897H331.287V198.795H377.08V184.897Z" fill="#6F95C9"/>
<path d="M282.527 184.897H236.734V198.795H282.527V184.897Z" fill="#6F95C9"/>
<path d="M282.527 280.236H236.734V294.134H282.527V280.236Z" fill="#6F95C9"/>
<path d="M377.08 280.236H331.287V294.134H377.08V280.236Z" fill="#263238"/>
<path d="M377.08 184.897H331.287V198.795H377.08V184.897Z" fill="#263238"/>
<path d="M282.527 184.897H236.734V198.795H282.527V184.897Z" fill="#263238"/>
<path d="M282.527 280.236H236.734V294.134H282.527V280.236Z" fill="#263238"/>
<path d="M67.6821 116.491H169.883" stroke="#263238" stroke-width="1.06897" stroke-linecap="round" stroke-linejoin="round"/>
<path d="M201.495 520.112C201.495 520.112 205.154 532.675 203.929 540.354C203.929 540.354 202.468 553.137 200.788 559.953C199.108 566.768 197.396 571.495 206.991 574.196C216.586 576.897 240.158 571.165 245.685 573.097C251.213 575.029 282.684 570.71 287.379 568.637C292.075 566.564 292.813 552.195 282.668 547.201C272.523 542.207 201.495 520.112 201.495 520.112Z" fill="white"/>
<path d="M202.892 546.432C202.892 546.432 200.16 561.79 200.238 564.586C204.899 563.257 209.702 562.487 214.545 562.293C221.015 562.293 240.409 562.544 248.104 561.382C255.799 560.22 270.592 554.802 277.439 554.771C281.783 554.769 286.118 555.153 290.394 555.917C290.394 555.917 291.195 550.436 280.391 547.578C269.587 544.72 230.217 536.444 230.217 536.444C230.217 536.444 221.423 545.898 202.892 546.432Z" fill="#6F95C9"/>
<path d="M340.05 539.114C340.05 539.114 346.944 534.748 353.43 537.418C359.915 540.087 383.016 540.15 383.016 540.15C383.016 540.15 401.295 537.857 409.084 541.721C416.873 545.584 417.737 551.41 417.124 555.948C416.512 560.487 405.017 572.594 389.925 573.223C374.834 573.851 373.593 570.459 361.187 569.799C361.187 569.799 344.541 568.747 339.736 566.658C334.93 564.57 328.649 562.842 328.837 553.86C329.026 544.877 340.05 539.114 340.05 539.114Z" fill="white"/>
<path d="M340.05 539.114C340.05 539.114 347.038 535.156 359.381 538.863C371.725 542.569 393.475 537.088 402.897 540.354C412.319 543.621 413.623 549.777 412.413 552.148C411.204 554.519 403.18 564.114 394.26 565.638C385.34 567.161 365.223 566.234 356.005 567.915C356.005 567.915 336.956 569.014 330.879 559.497C324.802 549.981 340.05 539.114 340.05 539.114Z" fill="#6F95C9"/>
<path d="M80.9048 532.236L69.2839 510.58L100.974 477.885L129.571 481.292L145.762 505.963L141.726 520.112L80.9048 532.236Z" fill="#263238"/>
<path d="M56.925 526.315C56.925 526.315 57.8044 566.816 84.0613 571.197C110.318 575.578 204.023 529.99 204.023 529.99C204.023 529.99 238.917 548.112 265.174 550.405C291.431 552.698 329.56 557.582 333.454 561.947C337.349 566.313 351.922 548.002 343.521 537.01C343.521 537.01 315.081 535.204 297.147 526.268C279.213 517.333 220.575 483.412 208.766 481.339C196.956 479.266 128.676 511.632 128.676 511.632L108.104 516.014L56.925 526.315Z" fill="#263238"/>
<path d="M134.612 497.389L129.571 481.292C129.571 481.292 180.028 425.214 201.495 425.967C222.962 426.721 226.747 445.707 228.191 460.516C229.636 475.325 228.191 497.326 228.191 497.326L178.85 503.497L141.647 520.112L134.533 497.389" fill="#263238"/>
<path d="M189.356 487.982C189.356 488.861 191.083 462.416 198.668 450.591" stroke="white" stroke-width="1.06897" stroke-linecap="round" stroke-linejoin="round"/>
<path d="M206.724 450.151C206.188 455.374 206.219 460.639 206.818 465.855" stroke="white" stroke-width="1.06897" stroke-linecap="round" stroke-linejoin="round"/>
<path d="M203.112 545.898C203.112 545.898 199.39 565.355 200.411 569.454C201.715 574.652 215.314 574.762 219.177 574.934C227.72 575.295 236.247 574.447 244.79 574.589C251.292 574.699 257.777 575.39 264.295 575.295C270.821 575.433 277.295 574.096 283.233 571.385C288.227 568.888 291.494 565.339 290.865 559.529C290.033 551.865 287.473 549.934 276.889 548.725C266.305 547.515 228.945 536.35 228.945 536.35C228.945 536.35 223.15 546.526 203.112 545.898Z" stroke="#263238" stroke-width="1.06897" stroke-linecap="round" stroke-linejoin="round"/>
<path d="M203.112 545.898C204.57 538.642 204.57 531.169 203.112 523.913C200.631 512.731 219.868 522.468 219.868 522.468L230.217 533.633L228.945 536.334" stroke="#263238" stroke-width="1.06897" stroke-linecap="round" stroke-linejoin="round"/>
<path d="M201.495 571.464C201.45 570.35 201.794 569.256 202.467 568.368C203.14 567.48 204.101 566.853 205.185 566.595C207.98 565.857 211.372 566.36 214.215 566.438C219.13 566.595 224.045 566.8 228.961 566.847C245.513 566.988 261.578 561.743 278.114 561.115C281.019 561.005 286.217 560.235 288.793 562.041C292.938 564.947 285.291 570.647 282.417 571.809C275.373 574.344 267.914 575.527 260.431 575.295C250.726 574.84 235.525 574.903 228.945 574.981C222.365 575.06 210.022 577.572 201.495 571.464Z" fill="#263238"/>
<path d="M200.882 564.523C205.238 562.856 209.883 562.076 214.545 562.23C231.725 562.151 250.664 563.172 267.058 557.079C274.314 554.378 286.17 552.933 290.489 557.079" stroke="#263238" stroke-width="1.06897" stroke-linecap="round" stroke-linejoin="round"/>
<path d="M330.612 558.524C330.612 558.524 331.224 565.559 343.018 567.224C354.812 568.888 378.619 571.935 386.486 573.018C394.354 574.102 416.92 565.559 417.125 554.488C417.329 543.417 407.608 540.103 401.593 539.899C395.579 539.695 367.045 540.935 359.381 538.863C351.718 536.79 347.368 535.957 342.814 538.658" stroke="#263238" stroke-width="1.06897" stroke-linecap="round" stroke-linejoin="round"/>
<path d="M405.315 540.354C405.315 540.354 412.021 545.49 412.649 550.656C413.277 555.823 399.819 565.967 387.805 567.004C375.792 568.04 360.402 565.92 353.508 568.574" stroke="#263238" stroke-width="1.06897" stroke-linecap="round" stroke-linejoin="round"/>
<path d="M58.7937 374.239C58.7937 374.239 67.9648 381.039 72.3933 378.118C76.8218 375.197 86.5268 364.141 86.5268 364.141L100.535 371.773L115.233 418.964L125.064 460.673L140.768 468.352V475.026C140.768 475.026 131.534 484.59 121.923 487.432C112.313 490.275 101.822 493.039 93.9076 491.186C85.9928 489.333 70.8229 436.913 70.8229 436.913L32.6625 381.149L58.7937 374.239Z" fill="#263238"/>
<path d="M183.215 483.915L115.218 466.641L183.215 435.139L248.104 451.691L183.215 483.915Z" fill="white" stroke="#263238" stroke-width="1.06897" stroke-linecap="round" stroke-linejoin="round"/>
<path d="M183.215 483.915L198.417 414.127L261.923 389.896L248.873 452.146L183.215 483.915Z" fill="white"/>
<path d="M115.218 465.84V469.656L183.624 487.982L249.564 454.941L249.925 451.141L183.624 483.208L115.218 465.84Z" fill="#263238"/>
<path d="M82.2082 369.104C89.9887 378.471 96.1219 389.091 100.346 400.511C106.439 418.084 117.887 455.271 116.898 469.608L141.129 450.764C138.746 438.754 137.865 426.495 138.507 414.268C139.841 396.366 141.192 367.847 125.535 365.508C109.172 362.006 87.3433 356.666 87.3433 356.666L82.2082 369.104Z" fill="#6F95C9"/>
<path d="M41.2368 362.1C41.2368 362.1 16.6603 375.26 13.6137 380.568C10.5672 385.876 8.79264 384.305 9.93902 392.691C11.0854 401.077 17.1785 428.417 18.6547 437.651C20.1308 446.885 25.1404 486.757 25.1404 486.757C29.6531 488.718 34.3232 490.294 39.1011 491.468L6.98669 533.445C6.98669 533.445 19.0944 559.749 42.2262 560.565C65.358 561.382 76.0837 538.878 86.0871 523.033C96.0904 507.188 102.796 485.768 102.796 485.768L107.648 484.873L105.843 462.102L102.796 462.573C102.796 462.573 102.152 430.82 88.6625 406.887C75.1729 382.955 41.2368 362.1 41.2368 362.1Z" fill="#6F95C9"/>
<path opacity="0.2" d="M93.3579 360.671C93.3579 360.671 104.052 366.136 105.152 373.014C106.251 379.892 102.733 388.42 107.868 391.78C113.003 395.141 119.034 395.848 122.002 404.799C124.97 413.75 124.075 455.145 122.002 462.244C119.929 469.342 116.977 462.244 116.977 462.244L113.569 444.153L106.565 418.257L99.6395 398.816L93.3579 385.342L85.8201 369.999L93.3579 360.671Z" fill="black"/>
<path d="M107.224 479.612C107.224 479.612 117.228 480.931 120.573 479.486C123.918 478.041 126.854 477.319 129.21 470.723C131.565 464.128 135.963 462.102 140.689 461.788C145.416 461.474 156.111 459.385 157.964 454.234L153.331 453.905C154.924 453.454 156.395 452.648 157.634 451.549H155.687C155.687 451.549 146.39 446.665 141.647 445.487C136.905 444.31 131.832 443.085 127.357 446.948C122.881 450.811 120.479 459.134 118.657 461.301C116.835 463.468 112.014 466.154 105.685 466.138L107.224 479.612Z" fill="white"/>
<path d="M107.868 479.659C107.868 479.659 121.436 482.03 125.959 476.707C130.482 471.383 128.912 463.845 138.962 462.102C149.012 460.359 157.524 458.176 157.995 454.25C157.995 454.25 137.329 452.287 132.869 455.82" stroke="#263238" stroke-width="1.06897" stroke-linecap="round" stroke-linejoin="round"/>
<path d="M154.053 453.779C155.475 453.47 156.762 452.716 157.728 451.628L148.447 449.853C145.196 449.225 141.946 448.141 138.585 448.283C135.561 448.635 132.797 450.164 130.89 452.538" stroke="#263238" stroke-width="1.06897" stroke-linecap="round" stroke-linejoin="round"/>
<path d="M155.184 450.638L144.427 446.54C139.48 444.655 133.654 442.833 129.147 445.613C127.333 446.878 125.816 448.523 124.703 450.434C123.406 452.447 122.246 454.546 121.232 456.716C120.567 458.378 119.714 459.959 118.688 461.427C115.752 465.133 111.213 466.059 106.486 466.264" stroke="#263238" stroke-width="1.06897" stroke-linecap="round" stroke-linejoin="round"/>
<path d="M39.4152 362.1C39.4152 362.1 53.0618 367.439 58.7309 374.239C58.7309 374.239 72.409 383.536 78.0938 373.313C83.7786 363.089 84.3753 342.502 84.3753 342.502L89.6675 330.739L87.626 299.19L72.833 276.969L58.7937 266.652L43.5453 296.081L25.8313 308.141L27.8571 341.12L39.4152 362.1Z" fill="white"/>
<path d="M68.0276 279.466C68.0276 279.466 68.6872 304.781 48.0837 314.109C48.0837 314.109 42.0848 344.841 61.9502 351.343C61.9502 351.343 65.3108 365.712 51.036 368.004C32.6154 358.975 35.8661 349.317 35.8661 349.317L29.506 322.102L27.4802 303.807L51.036 285.324L68.0276 279.466Z" fill="#6F95C9"/>
<path opacity="0.5" d="M68.0276 279.466C68.0276 279.466 68.6872 304.781 48.0837 314.109C48.0837 314.109 42.0848 344.841 61.9502 351.343C61.9502 351.343 65.3108 365.712 51.036 368.004C32.6154 358.975 35.8661 349.317 35.8661 349.317L29.506 322.102L27.4802 303.807L51.036 285.324L68.0276 279.466Z" fill="white"/>
<path d="M84.0927 292.799C84.0927 292.799 84.9721 295.657 84.0927 304.2C83.2133 312.743 85.3176 323.657 82.5223 331.32C79.727 338.984 74.9844 350.668 61.9659 351.28C51.9783 351.28 41.5509 337.147 40.2632 327.866C40.2632 327.866 28.2183 322.212 29.6474 314.203C31.0764 306.194 38.8027 308.346 40.8285 314.203" stroke="#263238" stroke-width="1.06897" stroke-linecap="round" stroke-linejoin="round"/>
<path d="M73.257 308.691C72.2524 313.405 72.4086 318.294 73.7124 322.934C74.1535 323.955 74.2365 325.095 73.948 326.169C73.7251 326.617 73.3946 327.001 72.9862 327.289C72.5777 327.577 72.1042 327.759 71.6081 327.818C70.6169 327.923 69.615 327.837 68.6558 327.567" stroke="#263238" stroke-width="1.06897" stroke-linecap="round" stroke-linejoin="round"/>
<path d="M68.0276 333.048C68.0276 333.048 62.4056 334.791 58.888 330.739" stroke="#263238" stroke-width="1.06897" stroke-linecap="round" stroke-linejoin="round"/>
<path d="M41.2368 362.1C44.7231 353.243 38.2217 326.688 38.2217 326.688" stroke="#263238" stroke-width="1.06897" stroke-linecap="round" stroke-linejoin="round"/>
<path d="M62.971 304.263C62.971 304.263 54.8521 297.196 51.0517 307.655" stroke="#263238" stroke-width="1.06897" stroke-linecap="round" stroke-linejoin="round"/>
<path d="M74.7175 303.807C75.3255 302.482 76.3011 301.359 77.5284 300.572C78.1512 300.196 78.8717 300.013 79.5986 300.046C80.3255 300.08 81.026 300.329 81.6115 300.761" stroke="#263238" stroke-width="1.06897" stroke-linecap="round" stroke-linejoin="round"/>
<path d="M60.5212 317.093C61.267 317.093 61.8717 315.729 61.8717 314.046C61.8717 312.364 61.267 311 60.5212 311C59.7753 311 59.1706 312.364 59.1706 314.046C59.1706 315.729 59.7753 317.093 60.5212 317.093Z" fill="#263238"/>
<path d="M77.4185 312.695C77.4185 314.376 76.8218 315.742 76.068 315.742C75.3142 315.742 74.7175 314.376 74.7175 312.695C74.7175 311.015 75.3142 309.649 76.068 309.649C76.8218 309.649 77.4185 311.015 77.4185 312.695Z" fill="#263238"/>
<path d="M69.7393 349.254C69.7393 349.254 66.9441 354.845 71.404 367.078" stroke="#263238" stroke-width="1.06897" stroke-linecap="round" stroke-linejoin="round"/>
<path d="M38.2217 309.649C38.2217 309.649 68.5615 298.405 68.059 279.403C68.059 279.403 73.1157 291.668 84.5167 297.997C84.5167 297.997 81.2503 280.628 77.4499 273.075C73.6496 265.521 50.9732 259.585 42.289 261.422C33.6047 263.26 16.8644 266.746 13.3939 294.73C9.92331 322.715 13.3939 343.758 5.22785 354.986C-2.93816 366.214 -1.71326 385.624 10.1432 388.278C11.3371 384.576 13.3807 381.204 16.1106 378.432C20.3978 374.349 41.6608 362.508 41.6608 362.508C41.6608 362.508 42.5873 341.245 38.2531 326.688C38.2531 326.688 29.1762 323.892 29.6631 314.203C30.5425 306.665 38.2217 309.649 38.2217 309.649Z" fill="#263238"/>
<path d="M76.4135 271.614C80.8452 276.16 84.6193 281.303 87.626 286.894C94.206 298.405 101.477 311.392 104.775 324.238C106.056 329.324 106.308 334.616 105.518 339.801C104.728 344.987 102.911 349.962 100.173 354.436C99.2979 355.715 98.5309 357.065 97.8807 358.472C97.2467 360.218 96.8454 362.04 96.6872 363.89C96.1375 368.083 95.4937 372.433 93.2009 375.998C90.9081 379.563 86.4797 382.091 82.4123 380.866C78.4484 379.262 75.2504 376.199 73.4769 372.307C70.3361 363.749 68.3574 358.3 69.7393 349.286C69.7393 349.286 84.1084 336.628 83.9984 322.071C83.8885 307.513 86.4797 297.479 80.575 290.255C74.6703 283.031 76.4135 271.614 76.4135 271.614Z" fill="#263238"/>
<path d="M41.6294 362.508C41.6294 362.508 21.7169 372.904 13.6137 380.568C5.51053 388.231 12.8442 405.945 16.2049 423.91C19.5655 441.876 22.1723 458.993 25.1404 486.726C54.2553 500.263 81.6743 489.27 107.648 484.81L105.843 462.102C102.058 462.306 82.2867 468.148 65.0125 463.044C56.0927 460.39 48.8218 464.254 42.6816 471.242" stroke="#263238" stroke-width="1.06897" stroke-linecap="round" stroke-linejoin="round"/>
<path d="M37.9861 465.212C46.8588 460.846 54.8835 458.93 63.1123 462.573" stroke="#263238" stroke-width="1.06897" stroke-linecap="round" stroke-linejoin="round"/>
<path d="M61.4006 461.898C56.2654 448.031 55.0091 431.966 52.6221 416.687" stroke="#263238" stroke-width="1.06897" stroke-linecap="round" stroke-linejoin="round"/>
<path d="M25.1404 392.691C36.077 399.037 44.5824 408.853 49.3086 420.581" stroke="#263238" stroke-width="1.06897" stroke-linecap="round" stroke-linejoin="round"/>
<path d="M44.9429 403.04L48.9474 410.735" stroke="#263238" stroke-width="1.06897" stroke-linecap="round" stroke-linejoin="round"/>
<path d="M41.2368 362.1C41.2368 362.1 80.7949 384.839 92.4471 414.676C104.099 444.514 102.513 462.212 102.513 462.212" stroke="#263238" stroke-width="1.06897" stroke-linecap="round" stroke-linejoin="round"/>
<path d="M41.2368 362.1C37.0125 371.177 40.9384 381.777 46.9844 389.001C53.266 396.538 63.552 400.621 73.0843 402.113C74.1207 402.27 75.3613 402.522 75.7068 403.511C75.8746 404.021 75.8746 404.571 75.7068 405.081C74.2777 409.792 69.8807 413.53 69.9749 418.43C70.1442 420.444 70.7156 422.403 71.6552 424.193C76.9938 436.12 83.0076 447.734 89.6675 458.977" stroke="#263238" stroke-width="1.06897" stroke-linecap="round" stroke-linejoin="round"/>
<path opacity="0.5" d="M43.5453 272.305C41.7442 282.615 38.0148 292.493 32.5526 301.42" stroke="white" stroke-width="1.06897" stroke-linecap="round" stroke-linejoin="round"/>
<path opacity="0.5" d="M25.8313 276.969C20.1465 290.239 22.8476 305.393 22.2508 319.825C21.6873 332.826 18.3572 345.557 12.483 357.169" stroke="white" stroke-width="1.06897" stroke-linecap="round" stroke-linejoin="round"/>
<path d="M102.796 485.752C102.796 485.752 82.7892 539.883 63.5363 553.75C44.2834 567.616 22.9104 560.189 7.00238 533.445L39.1011 491.547" stroke="#263238" stroke-width="1.06897" stroke-linecap="round" stroke-linejoin="round"/>
<path d="M44.8644 493.18C47.9421 505.185 55.0424 515.771 64.9811 523.174" stroke="#263238" stroke-width="1.06897" stroke-linecap="round" stroke-linejoin="round"/>
<path d="M40.9856 492.756C39.5312 501.558 39.9756 510.569 42.289 519.186" stroke="#263238" stroke-width="1.06897" stroke-linecap="round" stroke-linejoin="round"/>
<path d="M74.7175 357.499C74.7175 357.499 92.9654 376.971 104.084 410.735C115.202 444.498 116.898 463.044 116.898 463.044" stroke="#263238" stroke-width="1.06897" stroke-linecap="round" stroke-linejoin="round"/>
<path d="M60.5212 375.605C60.5212 375.605 72.3305 383.457 78.1566 373.312C83.9827 363.168 79.727 359.729 79.727 359.729" stroke="#263238" stroke-width="1.06897" stroke-linecap="round" stroke-linejoin="round"/>
<path d="M77.1044 356.054C80.7948 355.457 84.501 356.745 87.9558 358.158C92.1112 359.695 95.9925 361.89 99.451 364.66C102.93 367.462 105.214 371.481 105.843 375.904C106.329 380.756 104.272 386.127 106.8 390.32C109.627 395.031 116.647 395.455 119.96 399.821C121.396 402.055 122.25 404.615 122.441 407.264C124.558 422.693 124.626 438.333 122.646 453.779" stroke="#263238" stroke-width="1.06897" stroke-linecap="round" stroke-linejoin="round"/>
<path d="M119.756 385.467C123.918 389.109 127.396 393.464 130.026 398.329C132.658 403.248 133.347 408.975 131.958 414.378C131.361 416.325 130.388 418.163 129.917 420.126C129.469 422.012 129.201 423.936 129.116 425.873L127.545 446.288" stroke="#263238" stroke-width="1.06897" stroke-linecap="round" stroke-linejoin="round"/>
<path d="M82.2082 354.279C89.9188 356.588 97.5195 359.556 105.371 361.236C113.223 362.916 120.651 363.34 128.126 366.277C129.231 366.675 130.286 367.202 131.267 367.847C137.69 372.339 137.643 381.384 138.365 388.262C140.564 409.227 134.8 424.9 140.689 445.142" stroke="#263238" stroke-width="1.06897" stroke-linecap="round" stroke-linejoin="round"/>
<path d="M100.974 491.091C100.974 491.091 120.651 493.18 138.774 476.77" stroke="#263238" stroke-width="1.06897" stroke-linecap="round" stroke-linejoin="round"/>
<path opacity="0.5" d="M88.0971 378.558C84.4853 373.281 82.0198 366.89 82.962 360.577C83.5744 356.478 85.5688 352.725 87.3591 349.019C89.8527 344.22 91.6857 339.107 92.8083 333.817C93.9124 328.498 93.4542 322.974 91.4892 317.909C89.8093 314.387 87.6707 311.103 85.1291 308.141" stroke="white" stroke-width="1.06897" stroke-linecap="round" stroke-linejoin="round"/>
<path d="M183.215 483.915L261.923 389.896L248.873 452.146L183.215 483.915Z" fill="#263238"/>
<path opacity="0.8" d="M183.215 483.915L261.923 389.896L248.873 452.146L183.215 483.915Z" fill="white"/>
<path d="M234.756 434.228C233.672 438.468 230.516 441.31 227.705 440.588C224.894 439.865 223.527 435.877 224.564 431.605C225.6 427.334 228.82 424.523 231.615 425.245C234.41 425.968 235.855 429.988 234.756 434.228Z" fill="#263238"/>
<path d="M183.215 483.915L198.417 414.127L261.923 389.896L248.873 452.146L183.215 483.915Z" stroke="#263238" stroke-width="1.06897" stroke-linecap="round" stroke-linejoin="round"/>
<path d="M180.64 482.407L195.527 413.075L259.85 388.891L262.222 389.487L198.417 414.127L183.215 483.915L180.64 482.407Z" fill="#263238"/>
<path opacity="0.2" d="M41.2368 362.1C41.2368 362.1 35.6462 377.505 46.9844 389.001C58.3226 400.496 75.7068 403.527 75.7068 403.527V405.097C75.7068 405.097 68.1689 415.32 70.289 420.581C72.409 425.842 91.8818 464.411 91.8818 464.411L102.874 462.573C103.084 444.58 98.9461 426.802 90.8139 410.75C77.1044 384.682 41.2368 362.1 41.2368 362.1Z" fill="black"/>
<path opacity="0.2" d="M35.9132 495.693C35.9132 495.693 36.6984 507.094 41.0327 513.752C41.0327 513.752 41.5352 505.366 42.2262 497.97C42.2262 497.97 48.649 514.396 61.3221 520.191C61.3221 520.191 53.847 505.366 51.4286 497.97C51.4286 497.97 76.8532 502.492 101.414 489.6V486.019C101.414 486.019 63.5363 497.122 39.1011 491.547L35.9132 495.693Z" fill="black"/>
<path opacity="0.2" d="M52.8891 418.964L68.5929 458.977L87.5632 465.259L66.7085 464.458C66.7085 464.458 57.0192 463.06 44.8801 469.609C44.8801 469.609 45.4297 466.075 50.455 463.091C50.455 463.091 48.649 461.333 41.0327 463.798C44.672 460.197 48.9269 457.277 53.5957 455.177L52.8891 418.964Z" fill="black"/>
<path opacity="0.2" d="M122.724 387.823C118.94 383.74 131.754 394.513 133.513 399.789C135.272 405.066 135.366 410.782 135.334 416.325C135.303 421.869 135.177 427.554 136.591 432.94C137.533 436.536 139.574 441.562 140.689 445.111C140.689 445.111 130.372 443.682 127.608 446.178L129.917 420.079C129.917 420.079 138.35 404.783 122.724 387.823Z" fill="black"/>
<path d="M157.995 454.234L184.802 440.808L190.628 442.111" stroke="#263238" stroke-width="1.06897" stroke-linecap="round" stroke-linejoin="round"/>
<path d="M182.572 477.885L135.162 465.384L148.777 460.092" stroke="#263238" stroke-width="1.06897" stroke-linecap="round" stroke-linejoin="round"/>
<path d="M189.984 445.833L145.762 468.007" stroke="#263238" stroke-width="1.06897" stroke-linecap="round" stroke-linejoin="round"/>
<path d="M189.309 454.234L156.378 470.755" stroke="#263238" stroke-width="1.06897" stroke-linecap="round" stroke-linejoin="round"/>
<path d="M187.879 462.51L165.957 473.503" stroke="#263238" stroke-width="1.06897" stroke-linecap="round" stroke-linejoin="round"/>
<path d="M142.26 461.505L184.959 472.577" stroke="#263238" stroke-width="1.06897" stroke-linecap="round" stroke-linejoin="round"/>
<path d="M154.383 458.003L187.016 466.483" stroke="#263238" stroke-width="1.06897" stroke-linecap="round" stroke-linejoin="round"/>
<path d="M160.995 452.743L187.88 459.715" stroke="#263238" stroke-width="1.06897" stroke-linecap="round" stroke-linejoin="round"/>
<path d="M169.176 448.644L189.309 453.873" stroke="#263238" stroke-width="1.06897" stroke-linecap="round" stroke-linejoin="round"/>
<path d="M177.562 444.765L190.628 448.141" stroke="#263238" stroke-width="1.06897" stroke-linecap="round" stroke-linejoin="round"/>
<path d="M226.904 490.683C235.572 493.698 242.607 496.965 242.607 496.965" stroke="white" stroke-width="1.06897" stroke-linecap="round" stroke-linejoin="round"/>
<path d="M116.898 510.313C116.898 510.313 192.151 484.794 206.41 485.736C209.897 486.025 213.35 486.629 216.728 487.542" stroke="white" stroke-width="1.06897" stroke-linecap="round" stroke-linejoin="round"/>
<path d="M129.571 506.136C132.712 502.649 134.675 500.843 136.387 498.032" stroke="white" stroke-width="1.06897" stroke-linecap="round" stroke-linejoin="round"/>
</svg>
