<svg width="708" height="543" viewBox="0 0 708 543" fill="none" xmlns="http://www.w3.org/2000/svg">
<path d="M707.907 478.774H0V479.128H707.907V478.774Z" fill="#EBEBEB"/>
<path d="M506.408 488.416H459.516V488.769H506.408V488.416Z" fill="#EBEBEB"/>
<path d="M619.079 491.516H606.775V491.87H619.079V491.516Z" fill="#EBEBEB"/>
<path d="M534.993 501.554H507.824V501.908H534.993V501.554Z" fill="#EBEBEB"/>
<path d="M353.953 496.769H292.804V497.123H353.953V496.769Z" fill="#EBEBEB"/>
<path d="M280.189 496.769H271.227V497.123H280.189V496.769Z" fill="#EBEBEB"/>
<path d="M242.09 490.794H109.457V491.148H242.09V490.794Z" fill="#EBEBEB"/>
<path d="M335.548 415.629H62.1683C60.0266 415.625 57.974 414.771 56.461 413.256C54.9479 411.74 54.0981 409.686 54.0981 407.544V23.25C54.1168 21.1207 54.9748 19.0847 56.4858 17.5842C57.9969 16.0838 60.0389 15.2402 62.1683 15.2365H335.548C337.692 15.2365 339.748 16.0882 341.264 17.6043C342.78 19.1204 343.632 21.1767 343.632 23.3208V407.544C343.632 409.688 342.78 411.745 341.264 413.261C339.748 414.777 337.692 415.629 335.548 415.629ZM62.1683 15.5197C60.1205 15.5234 58.1579 16.3395 56.7113 17.7888C55.2646 19.2381 54.4521 21.2023 54.4521 23.25V407.544C54.4521 409.592 55.2646 411.556 56.7113 413.005C58.1579 414.455 60.1205 415.271 62.1683 415.275H335.548C337.597 415.271 339.561 414.455 341.01 413.006C342.459 411.557 343.274 409.593 343.278 407.544V23.25C343.274 21.201 342.459 19.2369 341.01 17.788C339.561 16.3391 337.597 15.5234 335.548 15.5197H62.1683Z" fill="#EBEBEB"/>
<path d="M641.802 415.629H368.409C366.266 415.625 364.212 414.772 362.696 413.257C361.181 411.741 360.328 409.687 360.324 407.544V23.25C360.347 21.1194 361.208 19.0834 362.721 17.5834C364.235 16.0833 366.278 15.2401 368.409 15.2365H641.802C643.929 15.2439 645.968 16.0892 647.476 17.5892C648.984 19.0892 649.84 21.1231 649.858 23.25V407.544C649.858 409.683 649.01 411.735 647.5 413.251C645.991 414.766 643.941 415.621 641.802 415.629ZM368.409 15.5197C366.36 15.5234 364.396 16.3391 362.947 17.788C361.498 19.2369 360.682 21.201 360.678 23.25V407.544C360.682 409.593 361.498 411.557 362.947 413.006C364.396 414.455 366.36 415.271 368.409 415.275H641.802C643.851 415.271 645.815 414.455 647.264 413.006C648.713 411.557 649.529 409.593 649.533 407.544V23.25C649.529 21.201 648.713 19.2369 647.264 17.788C645.815 16.3391 643.851 15.5234 641.802 15.5197H368.409Z" fill="#EBEBEB"/>
<path d="M225.737 351.662L617.295 351.662V51.5946L225.737 51.5946L225.737 351.662Z" fill="#E6E6E6"/>
<path d="M203.481 44.5014H630.731C631.008 44.4919 631.284 44.5383 631.543 44.638C631.802 44.7376 632.039 44.8883 632.238 45.0812C632.438 45.2741 632.596 45.5052 632.705 45.7607C632.813 46.0163 632.869 46.291 632.869 46.5685C632.869 46.8393 632.815 47.1074 632.711 47.3574C632.607 47.6074 632.454 47.8343 632.262 48.0252C632.07 48.216 631.842 48.3669 631.591 48.4692C631.341 48.5716 631.072 48.6233 630.801 48.6214H203.481C203.21 48.6233 202.941 48.5716 202.691 48.4692C202.44 48.3669 202.212 48.216 202.02 48.0252C201.828 47.8343 201.675 47.6074 201.571 47.3574C201.467 47.1074 201.414 46.8393 201.414 46.5685C201.414 46.0203 201.631 45.4945 202.019 45.1068C202.407 44.7192 202.932 44.5014 203.481 44.5014Z" fill="#F5F5F5"/>
<path d="M216.931 351.662L613.175 351.662V51.5946L216.931 51.5946L216.931 351.662Z" fill="#EBEBEB"/>
<path d="M600.829 339.33V63.9405L229.263 63.9405V339.33H600.829Z" fill="#FAFAFA"/>
<path d="M524.502 339.33L438.789 63.9405H388.91L474.637 339.33H524.502Z" fill="white"/>
<path d="M439.865 339.33L354.137 63.9405H334.698L420.412 339.33H439.865Z" fill="white"/>
<path d="M230.82 339.33L230.82 63.9405H229.249L229.249 339.33H230.82Z" fill="#E6E6E6"/>
<g opacity="0.4">
<path d="M583.627 331.119H621.924V40.8062H583.627V331.119Z" fill="#F0F0F0"/>
<path d="M568.704 331.119H598.549V40.8062H568.704V331.119Z" fill="#E6E6E6"/>
<path d="M545.329 331.119H583.626V40.8062H545.329V331.119Z" fill="#F0F0F0"/>
<path d="M530.392 331.119H560.237V40.8062H530.392V331.119Z" fill="#E6E6E6"/>
<path d="M507.031 331.119H545.329V40.8062H507.031L507.031 331.119Z" fill="#F0F0F0"/>
</g>
<g opacity="0.4">
<path d="M237.177 331.119H249.41L249.41 40.8061H237.177L237.177 331.119Z" fill="#F0F0F0"/>
<path d="M232.406 331.119H241.934L241.934 40.8061H232.406L232.406 331.119Z" fill="#E6E6E6"/>
<path d="M224.93 331.119H237.163L237.163 40.8061H224.93L224.93 331.119Z" fill="#F0F0F0"/>
<path d="M220.173 331.119H229.702L229.702 40.8061H220.173L220.173 331.119Z" fill="#E6E6E6"/>
<path d="M212.698 331.119H224.93L224.93 40.8061H212.698L212.698 331.119Z" fill="#F0F0F0"/>
</g>
<path d="M106.738 200.142H194.462V89.864L106.738 89.864L106.738 200.142Z" fill="#F0F0F0"/>
<path d="M87.3556 200.142H191.092V89.864L87.3556 89.864L87.3556 200.142Z" fill="#F5F5F5"/>
<path d="M96.0488 98.5572V191.449H182.399V98.5572H96.0488Z" fill="white"/>
<path d="M575.981 471.695H593.325V378.704H575.981V471.695Z" fill="#F0F0F0"/>
<path d="M324.957 480.331L586.147 480.331V471.695L324.957 471.695V480.331Z" fill="#F0F0F0"/>
<path d="M575.967 378.718H317.793V471.709H575.967V378.718Z" fill="#FAFAFA"/>
<path d="M561.299 390.031H332.49V418.644H561.299V390.031Z" fill="#F0F0F0"/>
<path d="M561.299 426.785H332.49V455.399H561.299V426.785Z" fill="#F0F0F0"/>
<path d="M382.567 392.607H511.208C512.646 392.607 513.813 391.441 513.813 390.002V389.082C513.813 387.643 512.646 386.477 511.208 386.477H382.567C381.128 386.477 379.962 387.643 379.962 389.082V390.002C379.962 391.441 381.128 392.607 382.567 392.607Z" fill="#FAFAFA"/>
<path d="M382.567 429.362H511.208C512.646 429.362 513.813 428.196 513.813 426.757V425.837C513.813 424.398 512.646 423.231 511.208 423.231H382.567C381.128 423.231 379.962 424.398 379.962 425.837V426.757C379.962 428.196 381.128 429.362 382.567 429.362Z" fill="#FAFAFA"/>
<path d="M312.81 378.718L575.967 378.718V370.379L312.81 370.379V378.718Z" fill="#F0F0F0"/>
<path d="M598.549 370.379H575.981V378.718H598.549V370.379Z" fill="#E6E6E6"/>
<path d="M141.964 436.526H150.374C150.374 429.008 150.374 390.611 150.968 346.905C151.478 306.399 152.384 290.173 153.205 283.972L146.452 295.752C144.102 304.969 140.194 320.727 139.854 330.411C138.75 360.879 142.997 404.585 141.964 436.526Z" fill="#E6E6E6"/>
<path d="M135.578 290.173C124.379 268.271 101.939 256.831 79.1156 246.014C70.1394 241.767 95.3409 294.152 113.676 317.98C127.834 336.385 141.666 336.032 145.8 354.267C146.593 333.143 145.234 309.06 135.578 290.173Z" fill="#E6E6E6"/>
<path d="M156.858 327.239C166.769 314.285 183.135 310.972 199.757 308.211C206.27 307.135 183.603 338.453 168.609 351.223C156.999 361.134 147.754 357.991 142.997 369.855C144.795 354.918 148.306 338.396 156.858 327.239Z" fill="#E6E6E6"/>
<path d="M136.852 352.002C129.136 341.935 116.436 339.359 103.524 337.221C98.4556 336.385 116.097 360.695 127.692 370.606C136.711 378.322 143.889 375.873 147.514 385.089C146.239 373.508 143.507 360.695 136.852 352.002Z" fill="#E6E6E6"/>
<path d="M152.738 391.446C158.061 384.651 166.726 382.952 175.533 381.536C178.987 380.998 166.839 397.449 158.868 404.189C152.681 409.371 147.811 407.657 145.234 413.915C146.225 406.001 148.165 397.308 152.738 391.446Z" fill="#E6E6E6"/>
<path d="M147.726 290.994C153.927 269.517 178.393 236.103 203.58 229.138C213.491 226.448 177.939 280.801 165.763 307.843C156.292 328.91 147.358 341.695 146.126 356.787C139.84 337.815 141.581 312.472 147.726 290.994Z" fill="#E6E6E6"/>
<path d="M149.821 478.774C132.378 478.774 117.966 476.183 116.96 458.782L114.129 429.05H185.641L182.81 458.782C181.663 476.183 167.25 478.774 149.821 478.774Z" fill="#F0F0F0"/>
<path d="M190.2 435.096H109.428L107.12 418.63H192.508L190.2 435.096Z" fill="#F0F0F0"/>
<path d="M353.953 542.712C505.562 542.712 628.466 535.536 628.466 526.685C628.466 517.833 505.562 510.658 353.953 510.658C202.345 510.658 79.4414 517.833 79.4414 526.685C79.4414 535.536 202.345 542.712 353.953 542.712Z" fill="#F5F5F5"/>
<path d="M536.933 133.358C536.868 133.372 536.8 133.372 536.735 133.358C536.555 133.305 536.403 133.183 536.312 133.019C536.222 132.854 536.201 132.66 536.253 132.48C548.925 90.2746 539.821 53.1945 511.901 33.1041C486.304 14.7693 451.39 15.0524 425.013 33.8403C350.385 86.9758 293.342 97.2687 234.218 68.287C234.134 68.2461 234.06 68.1891 233.998 68.1193C233.936 68.0495 233.889 67.9683 233.859 67.8802C233.828 67.7921 233.816 67.6989 233.822 67.606C233.827 67.513 233.851 67.4221 233.892 67.3384C233.933 67.2548 233.99 67.18 234.06 67.1183C234.13 67.0567 234.211 67.0094 234.299 66.9792C234.387 66.9489 234.48 66.9363 234.573 66.9421C234.666 66.9479 234.757 66.9719 234.841 67.0128C293.427 95.7397 350.046 85.4184 424.192 32.6793C451.092 13.5517 486.643 13.2685 512.723 31.9573C541.166 52.345 550.468 90.0056 537.613 132.891C537.562 133.03 537.47 133.15 537.348 133.233C537.226 133.317 537.081 133.361 536.933 133.358Z" fill="#0D345F"/>
<path d="M490.084 350.317C475.774 350.25 461.681 346.821 448.94 340.307C396.555 313.931 355.808 315.12 340.107 343.479C340.062 343.561 340.002 343.633 339.929 343.692C339.857 343.75 339.773 343.794 339.684 343.82C339.595 343.847 339.501 343.855 339.408 343.845C339.315 343.835 339.226 343.807 339.144 343.762C338.981 343.669 338.86 343.517 338.808 343.338C338.755 343.158 338.774 342.965 338.861 342.799C354.987 313.69 396.371 312.288 449.577 339.033C462.298 345.617 476.431 349.002 490.754 348.896C505.076 348.79 519.158 345.195 531.779 338.424C563.055 322.156 586.529 289.352 591.583 254.891C591.597 254.799 591.629 254.711 591.677 254.631C591.725 254.551 591.788 254.482 591.863 254.426C591.938 254.371 592.024 254.331 592.114 254.309C592.204 254.287 592.298 254.283 592.39 254.297C592.575 254.328 592.74 254.43 592.851 254.58C592.961 254.731 593.01 254.918 592.985 255.104C587.86 290.046 564.088 323.247 532.431 339.713C519.379 346.617 504.849 350.256 490.084 350.317Z" fill="#0D345F"/>
<path d="M577.935 267.605H577.694C577.518 267.541 577.374 267.41 577.294 267.24C577.215 267.07 577.206 266.876 577.27 266.699C592.461 224.947 570.785 208.269 549.817 192.128C529.995 176.837 509.395 160.98 521.104 124.254C521.131 124.165 521.176 124.082 521.236 124.01C521.296 123.939 521.37 123.88 521.454 123.838C521.537 123.795 521.628 123.77 521.721 123.764C521.814 123.758 521.908 123.77 521.996 123.801C522.084 123.828 522.165 123.873 522.236 123.932C522.306 123.991 522.364 124.064 522.406 124.145C522.448 124.227 522.474 124.316 522.481 124.408C522.489 124.499 522.478 124.592 522.449 124.679C511.109 160.471 530.293 175.223 550.751 190.967C572.116 207.405 594.217 224.409 578.671 267.138C578.623 267.29 578.522 267.42 578.388 267.505C578.253 267.591 578.093 267.626 577.935 267.605Z" fill="#0D345F"/>
<path opacity="0.1" d="M564.527 274.415C554.178 309.598 514.705 336.555 478.998 328.216C435.702 318.036 412.88 281.14 420.553 245.278C428.227 209.415 468.195 227.835 504.086 220.147C550.128 210.222 574.82 239.218 564.527 274.415Z" fill="#0D345F"/>
<path d="M358.47 72.2372C358.59 73.1983 358.422 74.1734 357.987 75.0387C357.551 75.904 356.869 76.6203 356.025 77.0966C355.182 77.5729 354.216 77.7878 353.25 77.7138C352.284 77.6398 351.362 77.2804 350.601 76.6812C349.84 76.0819 349.275 75.27 348.976 74.3485C348.678 73.4271 348.66 72.4377 348.925 71.5061C349.19 70.5745 349.727 69.7428 350.466 69.1167C351.205 68.4905 352.113 68.0983 353.076 67.9897C354.353 67.8457 355.635 68.2107 356.645 69.0058C357.655 69.8009 358.31 70.9619 358.47 72.2372Z" fill="white"/>
<path d="M353.613 78.3534C352.537 78.3522 351.484 78.0395 350.581 77.4531C349.679 76.8667 348.965 76.0317 348.526 75.0487C348.087 74.0657 347.942 72.9768 348.109 71.9133C348.275 70.8498 348.746 69.8571 349.463 69.055C350.181 68.2529 351.116 67.6756 352.154 67.3928C353.193 67.11 354.291 67.1337 355.317 67.4611C356.342 67.7886 357.251 68.4057 357.934 69.238C358.616 70.0704 359.043 71.0825 359.163 72.1522C359.308 73.6201 358.874 75.0865 357.954 76.2393C357.033 77.3921 355.7 78.1405 354.236 78.3251C354.03 78.3484 353.822 78.3579 353.613 78.3534ZM353.613 68.5985H353.16C352.343 68.6902 351.57 69.0222 350.941 69.5527C350.312 70.0831 349.854 70.7881 349.626 71.5786C349.397 72.3691 349.408 73.2096 349.657 73.994C349.906 74.7784 350.381 75.4714 351.024 75.9854C351.667 76.4995 352.447 76.8115 353.267 76.8822C354.087 76.9528 354.909 76.7789 355.63 76.3823C356.351 75.9857 356.939 75.3843 357.318 74.6541C357.697 73.9239 357.852 73.0976 357.762 72.2796C357.626 71.2708 357.133 70.3442 356.371 69.6685C355.61 68.9929 354.631 68.6132 353.613 68.5985Z" fill="#0D345F"/>
<path d="M526.683 123.886C526.803 124.848 526.635 125.824 526.199 126.689C525.764 127.555 525.08 128.272 524.236 128.748C523.392 129.224 522.425 129.439 521.459 129.364C520.492 129.289 519.57 128.928 518.809 128.328C518.049 127.727 517.484 126.914 517.187 125.991C516.889 125.069 516.874 124.078 517.141 123.147C517.408 122.215 517.947 121.384 518.688 120.759C519.429 120.135 520.339 119.744 521.302 119.639C522.577 119.499 523.856 119.865 524.863 120.66C525.869 121.455 526.523 122.614 526.683 123.886Z" fill="white"/>
<path d="M521.77 130.017C520.871 130.026 519.983 129.818 519.181 129.41C518.379 129.003 517.688 128.409 517.165 127.677C516.642 126.946 516.303 126.099 516.176 125.209C516.05 124.319 516.141 123.411 516.44 122.563C516.739 121.716 517.238 120.952 517.895 120.338C518.552 119.724 519.347 119.278 520.214 119.037C521.08 118.796 521.991 118.767 522.871 118.953C523.751 119.139 524.573 119.535 525.267 120.106C526.421 121.038 527.163 122.385 527.334 123.858C527.489 125.329 527.062 126.803 526.145 127.964C525.212 129.076 523.88 129.778 522.435 129.917C522.216 129.967 521.994 130 521.77 130.017ZM521.77 120.262C521.614 120.247 521.458 120.247 521.303 120.262C520.752 120.313 520.217 120.474 519.731 120.737C519.244 121 518.816 121.358 518.471 121.791C518.127 122.219 517.871 122.71 517.718 123.238C517.565 123.765 517.518 124.317 517.579 124.863C517.721 125.953 518.28 126.945 519.138 127.631C519.996 128.318 521.086 128.645 522.18 128.544C523.29 128.422 524.308 127.867 525.012 127.001C525.354 126.575 525.608 126.085 525.759 125.56C525.91 125.035 525.954 124.485 525.89 123.943C525.784 122.921 525.303 121.976 524.538 121.29C523.774 120.605 522.782 120.228 521.756 120.233L521.77 120.262Z" fill="#0D345F"/>
<path d="M575.316 305.478C575.433 306.436 575.263 307.408 574.827 308.269C574.392 309.13 573.71 309.843 572.868 310.316C572.027 310.789 571.064 311.001 570.102 310.926C569.139 310.851 568.221 310.491 567.464 309.893C566.706 309.295 566.143 308.485 565.847 307.567C565.55 306.648 565.533 305.662 565.798 304.734C566.063 303.806 566.598 302.977 567.334 302.353C568.071 301.73 568.976 301.339 569.936 301.231C571.21 301.091 572.489 301.458 573.496 302.252C574.502 303.047 575.156 304.206 575.316 305.478Z" fill="white"/>
<path d="M570.46 311.637C569.38 311.636 568.323 311.323 567.418 310.734C566.512 310.146 565.796 309.308 565.357 308.321C564.917 307.335 564.772 306.243 564.94 305.176C565.108 304.109 565.581 303.114 566.302 302.31C567.023 301.506 567.962 300.928 569.004 300.646C570.047 300.364 571.148 300.39 572.176 300.721C573.205 301.051 574.115 301.672 574.798 302.509C575.48 303.346 575.906 304.362 576.024 305.436C576.104 306.165 576.04 306.902 575.836 307.607C575.631 308.311 575.289 308.968 574.83 309.54C574.371 310.112 573.804 310.588 573.161 310.94C572.518 311.293 571.812 311.515 571.083 311.595C570.876 311.623 570.668 311.637 570.46 311.637ZM570.46 301.882C570.304 301.869 570.148 301.869 569.992 301.882C569.176 301.976 568.405 302.311 567.778 302.843C567.151 303.374 566.695 304.08 566.469 304.87C566.242 305.661 566.255 306.501 566.505 307.284C566.755 308.067 567.232 308.759 567.875 309.271C568.518 309.784 569.298 310.095 570.117 310.165C570.937 310.234 571.758 310.06 572.478 309.663C573.199 309.267 573.785 308.665 574.164 307.936C574.543 307.206 574.698 306.381 574.608 305.563C574.486 304.453 573.931 303.436 573.065 302.732C572.321 302.166 571.408 301.866 570.474 301.882H570.46Z" fill="#0D345F"/>
<path d="M525.366 304.799C524.918 305.651 524.227 306.351 523.381 306.81C522.535 307.27 521.572 307.469 520.613 307.381C519.654 307.294 518.743 306.924 517.994 306.319C517.245 305.713 516.693 304.9 516.406 303.981C516.12 303.062 516.112 302.078 516.384 301.155C516.656 300.231 517.195 299.409 517.935 298.792C518.674 298.175 519.579 297.791 520.536 297.688C521.494 297.586 522.46 297.769 523.313 298.215C523.883 298.509 524.389 298.914 524.802 299.405C525.215 299.896 525.526 300.465 525.717 301.077C525.908 301.69 525.975 302.334 525.915 302.973C525.855 303.612 525.668 304.233 525.366 304.799Z" fill="white"/>
<path d="M521.019 308.126C520.117 308.123 519.229 307.904 518.428 307.489C517.13 306.785 516.158 305.603 515.719 304.193C515.28 302.784 515.409 301.258 516.078 299.942C516.778 298.651 517.958 297.688 519.363 297.259C520.767 296.831 522.284 296.972 523.585 297.653C524.887 298.333 525.868 299.498 526.318 300.896C526.768 302.294 526.649 303.813 525.989 305.124C525.508 306.026 524.793 306.782 523.918 307.31C523.043 307.839 522.041 308.12 521.019 308.126ZM521.019 298.371C520.282 298.37 519.557 298.566 518.92 298.938C518.283 299.309 517.756 299.844 517.393 300.486C517.03 301.128 516.845 301.855 516.855 302.593C516.866 303.33 517.072 304.052 517.453 304.683C517.834 305.315 518.376 305.834 519.024 306.187C519.671 306.541 520.401 306.715 521.138 306.694C521.876 306.673 522.594 306.456 523.22 306.065C523.846 305.675 524.357 305.126 524.7 304.473C525.204 303.486 525.302 302.342 524.974 301.284C524.646 300.226 523.918 299.338 522.945 298.81C522.344 298.524 521.684 298.383 521.019 298.399V298.371Z" fill="#0D345F"/>
<path d="M539.297 285.473C539.166 285.469 539.041 285.419 538.943 285.331L510.372 259.535C510.291 259.436 510.248 259.311 510.251 259.183C510.254 259.055 510.302 258.932 510.387 258.836C510.473 258.741 510.589 258.679 510.716 258.661C510.843 258.644 510.972 258.673 511.08 258.742L538.901 283.859L542.738 253.546C542.746 253.477 542.769 253.411 542.804 253.35C542.838 253.29 542.885 253.237 542.94 253.195C542.995 253.153 543.059 253.122 543.126 253.105C543.193 253.087 543.264 253.083 543.332 253.093C543.402 253.102 543.468 253.124 543.528 253.159C543.589 253.194 543.642 253.24 543.684 253.295C543.726 253.351 543.757 253.414 543.774 253.481C543.792 253.549 543.795 253.619 543.785 253.688L539.821 285.006C539.81 285.101 539.773 285.192 539.713 285.267C539.653 285.342 539.572 285.399 539.481 285.43C539.424 285.459 539.361 285.474 539.297 285.473Z" fill="#263238"/>
<path d="M521.019 303.071C520.947 303.071 520.876 303.056 520.81 303.026C520.745 302.997 520.686 302.955 520.637 302.901C520.539 302.801 520.485 302.666 520.485 302.526C520.485 302.386 520.539 302.252 520.637 302.151L538.887 284.553C538.987 284.455 539.122 284.4 539.262 284.4C539.402 284.4 539.537 284.455 539.637 284.553C539.687 284.601 539.727 284.66 539.754 284.724C539.782 284.789 539.796 284.858 539.796 284.928C539.796 284.998 539.782 285.067 539.754 285.131C539.727 285.196 539.687 285.254 539.637 285.303L521.387 302.901C521.341 302.953 521.284 302.995 521.221 303.025C521.158 303.054 521.089 303.07 521.019 303.071Z" fill="#263238"/>
<path d="M514.492 261.107C514.112 261.86 513.516 262.483 512.78 262.897C512.045 263.31 511.202 263.495 510.361 263.428C509.52 263.36 508.718 263.044 508.057 262.519C507.396 261.993 506.907 261.283 506.652 260.479C506.396 259.675 506.386 258.812 506.623 258.002C506.86 257.192 507.333 256.471 507.981 255.931C508.629 255.39 509.424 255.055 510.263 254.969C511.103 254.882 511.949 255.047 512.694 255.443C513.675 255.965 514.412 256.85 514.748 257.908C515.084 258.967 514.993 260.115 514.492 261.107Z" fill="#0D345F"/>
<path d="M545.923 255.005C545.649 255.531 545.225 255.964 544.704 256.249C544.183 256.535 543.59 256.659 542.998 256.607C542.407 256.555 541.844 256.329 541.382 255.957C540.919 255.585 540.577 255.084 540.399 254.518C540.22 253.952 540.214 253.345 540.381 252.775C540.547 252.206 540.879 251.698 541.334 251.317C541.789 250.935 542.346 250.697 542.937 250.633C543.527 250.569 544.123 250.681 544.649 250.955C544.999 251.137 545.309 251.387 545.562 251.689C545.815 251.991 546.007 252.34 546.125 252.716C546.243 253.092 546.286 253.488 546.252 253.88C546.217 254.273 546.106 254.655 545.923 255.005Z" fill="#263238"/>
<path d="M374.27 194.96C374.293 193.997 374.601 193.062 375.154 192.274C375.708 191.486 376.483 190.88 377.381 190.532C378.279 190.185 379.261 190.111 380.201 190.321C381.141 190.531 381.997 191.015 382.662 191.711C383.327 192.408 383.771 193.286 383.937 194.235C384.103 195.184 383.984 196.161 383.595 197.042C383.206 197.923 382.564 198.669 381.751 199.185C380.938 199.702 379.99 199.966 379.027 199.943C378.387 199.931 377.756 199.791 377.17 199.534C376.584 199.276 376.054 198.905 375.612 198.441C375.17 197.978 374.824 197.432 374.593 196.835C374.363 196.237 374.253 195.6 374.27 194.96Z" fill="white"/>
<path d="M379.141 200.708H378.999C377.528 200.675 376.131 200.06 375.112 198.999C374.093 197.937 373.536 196.516 373.562 195.045C373.596 193.573 374.21 192.174 375.271 191.152C376.332 190.131 377.753 189.571 379.226 189.594C380.659 189.682 382.004 190.318 382.981 191.37C383.958 192.423 384.493 193.811 384.475 195.247C384.456 196.683 383.887 198.057 382.883 199.084C381.88 200.111 380.519 200.713 379.084 200.765L379.141 200.708ZM379.141 190.953C378.054 190.953 377.01 191.378 376.232 192.137C375.454 192.896 375.004 193.93 374.978 195.016C374.955 196.118 375.37 197.184 376.132 197.98C376.894 198.776 377.94 199.238 379.042 199.264C379.589 199.285 380.135 199.195 380.647 198.998C381.158 198.8 381.624 198.501 382.015 198.117C382.615 197.546 383.032 196.808 383.21 195.999C383.389 195.189 383.322 194.345 383.018 193.574C382.714 192.803 382.186 192.14 381.503 191.671C380.82 191.201 380.012 190.946 379.183 190.939L379.141 190.953Z" fill="#0D345F"/>
<path d="M361.146 195.045C361.015 195.046 360.887 194.999 360.788 194.913C360.689 194.827 360.625 194.708 360.608 194.578L358.98 179.853C358.965 179.783 358.965 179.711 358.98 179.641L364.643 159.961C364.691 159.839 364.783 159.739 364.901 159.681C365.019 159.623 365.154 159.612 365.28 159.65C365.417 159.689 365.533 159.781 365.602 159.906C365.671 160.031 365.687 160.178 365.648 160.315L360.07 179.896L361.698 194.507C361.71 194.647 361.669 194.786 361.582 194.897C361.495 195.007 361.37 195.08 361.231 195.101L361.146 195.045Z" fill="#263238"/>
<path d="M379.141 195.611C379.023 195.608 378.909 195.569 378.815 195.498L359.178 180.193C359.068 180.104 358.997 179.975 358.981 179.835C358.966 179.695 359.006 179.554 359.093 179.442C359.135 179.389 359.188 179.344 359.249 179.31C359.309 179.277 359.375 179.255 359.443 179.247C359.512 179.24 359.581 179.245 359.647 179.264C359.713 179.283 359.775 179.315 359.829 179.358L379.438 194.662C379.546 194.749 379.617 194.874 379.635 195.011C379.653 195.148 379.618 195.287 379.537 195.399C379.49 195.461 379.431 195.512 379.362 195.548C379.294 195.585 379.218 195.606 379.141 195.611Z" fill="#263238"/>
<path d="M360.863 159.989C360.882 159.15 361.151 158.335 361.634 157.647C362.117 156.96 362.792 156.431 363.576 156.128C364.359 155.825 365.215 155.761 366.035 155.944C366.854 156.127 367.601 156.549 368.181 157.157C368.761 157.765 369.148 158.531 369.293 159.358C369.437 160.185 369.333 161.037 368.994 161.805C368.655 162.574 368.095 163.224 367.386 163.675C366.677 164.125 365.851 164.355 365.011 164.336C364.453 164.323 363.903 164.2 363.393 163.975C362.882 163.749 362.421 163.426 362.036 163.022C361.651 162.618 361.349 162.143 361.148 161.622C360.946 161.102 360.849 160.547 360.863 159.989Z" fill="#0D345F"/>
<path d="M358.201 194.422C358.212 193.824 358.401 193.244 358.743 192.754C359.085 192.264 359.565 191.886 360.122 191.67C360.678 191.453 361.287 191.406 361.871 191.536C362.454 191.666 362.986 191.966 363.398 192.398C363.81 192.831 364.085 193.376 364.187 193.965C364.289 194.553 364.214 195.159 363.971 195.705C363.728 196.251 363.329 196.713 362.823 197.031C362.318 197.35 361.729 197.511 361.131 197.494C360.337 197.472 359.583 197.137 359.034 196.561C358.485 195.986 358.186 195.217 358.201 194.422Z" fill="#263238"/>
<path d="M500.731 175.337L511.378 199.406C511.52 199.732 511.596 200.083 511.602 200.438C511.608 200.794 511.543 201.147 511.411 201.478C511.28 201.808 511.084 202.109 510.835 202.364C510.586 202.618 510.289 202.82 509.962 202.959C509.302 203.239 508.559 203.247 507.894 202.982C507.228 202.717 506.694 202.2 506.408 201.543L495.747 177.475C495.467 176.815 495.459 176.072 495.724 175.407C495.989 174.741 496.506 174.207 497.163 173.921C497.824 173.637 498.571 173.626 499.239 173.891C499.908 174.157 500.444 174.677 500.731 175.337Z" fill="#0D345F"/>
<path d="M431.186 314.2L467.558 311.651C467.992 311.624 468.418 311.77 468.745 312.056C469.071 312.343 469.27 312.747 469.3 313.18C469.327 313.611 469.183 314.036 468.9 314.362C468.616 314.688 468.215 314.889 467.785 314.922L431.412 317.47C431.197 317.486 430.981 317.458 430.777 317.389C430.573 317.321 430.384 317.212 430.222 317.07C430.06 316.927 429.928 316.754 429.833 316.561C429.739 316.367 429.684 316.156 429.671 315.941C429.656 315.727 429.683 315.512 429.75 315.309C429.818 315.105 429.926 314.917 430.067 314.756C430.207 314.594 430.379 314.461 430.571 314.366C430.763 314.271 430.972 314.214 431.186 314.2Z" fill="#263238"/>
<path d="M368.253 114.612L403.351 124.523C403.558 124.582 403.751 124.681 403.92 124.815C404.088 124.948 404.228 125.114 404.332 125.302C404.436 125.491 404.502 125.698 404.525 125.911C404.549 126.125 404.53 126.341 404.469 126.548C404.351 126.963 404.073 127.315 403.697 127.527C403.32 127.739 402.876 127.794 402.459 127.68L367.361 117.77C367.154 117.711 366.961 117.612 366.792 117.478C366.624 117.345 366.484 117.179 366.38 116.991C366.276 116.802 366.21 116.595 366.187 116.382C366.163 116.168 366.182 115.951 366.243 115.745C366.361 115.33 366.639 114.978 367.015 114.766C367.392 114.554 367.836 114.499 368.253 114.612Z" fill="#263238"/>
<path d="M342.075 94.522L323.669 106.273C323.171 106.587 322.568 106.692 321.993 106.565C321.418 106.438 320.916 106.089 320.597 105.594C320.278 105.094 320.171 104.489 320.298 103.91C320.426 103.331 320.777 102.827 321.276 102.507L339.682 90.756C340.184 90.4424 340.79 90.3394 341.368 90.4693C341.945 90.5992 342.449 90.9514 342.768 91.4497C342.925 91.6968 343.032 91.9725 343.081 92.2608C343.131 92.5491 343.124 92.8445 343.06 93.1299C342.995 93.4154 342.875 93.6853 342.706 93.9242C342.537 94.1631 342.322 94.3662 342.075 94.522Z" fill="#0D345F"/>
<path d="M437.387 179.669C437.273 179.668 437.161 179.63 437.07 179.562C436.978 179.493 436.911 179.396 436.877 179.287C436.843 179.15 436.864 179.005 436.935 178.883C437.007 178.761 437.123 178.672 437.26 178.636L461.612 172.08C461.744 172.057 461.88 172.083 461.994 172.155C462.107 172.227 462.19 172.338 462.225 172.468C462.261 172.597 462.247 172.735 462.185 172.855C462.124 172.974 462.021 173.067 461.895 173.114L437.486 179.655L437.387 179.669Z" fill="#263238"/>
<path d="M460.139 173.482C459.966 173.172 459.888 172.819 459.915 172.465C459.942 172.111 460.073 171.773 460.292 171.494C460.511 171.214 460.807 171.006 461.144 170.895C461.481 170.783 461.844 170.775 462.186 170.869C462.528 170.963 462.834 171.157 463.067 171.425C463.299 171.693 463.447 172.024 463.491 172.376C463.536 172.728 463.475 173.086 463.317 173.403C463.159 173.721 462.911 173.985 462.603 174.162C462.397 174.282 462.17 174.36 461.933 174.391C461.697 174.421 461.457 174.405 461.228 174.341C460.998 174.278 460.784 174.169 460.597 174.022C460.41 173.874 460.254 173.691 460.139 173.482Z" fill="#0D345F"/>
<path d="M435.816 180.037C435.582 179.618 435.523 179.124 435.653 178.662C435.783 178.2 436.091 177.809 436.509 177.574C436.714 177.456 436.941 177.38 437.175 177.35C437.41 177.32 437.648 177.338 437.876 177.401C438.104 177.464 438.317 177.572 438.503 177.718C438.689 177.865 438.844 178.047 438.959 178.253C439.098 178.46 439.193 178.694 439.238 178.939C439.283 179.185 439.276 179.437 439.219 179.68C439.162 179.923 439.055 180.151 438.905 180.351C438.756 180.551 438.567 180.718 438.349 180.841C438.132 180.964 437.892 181.041 437.644 181.067C437.396 181.093 437.145 181.068 436.907 180.992C436.669 180.917 436.45 180.793 436.262 180.629C436.074 180.464 435.922 180.263 435.816 180.037Z" fill="#0D345F"/>
<path d="M477.681 236.641C477.911 236.074 477.96 235.45 477.821 234.854C477.681 234.258 477.36 233.72 476.903 233.314L434.117 199.066C433.922 198.893 433.688 198.772 433.435 198.712C433.182 198.652 432.918 198.656 432.667 198.723C432.415 198.791 432.185 198.919 431.996 199.098C431.806 199.276 431.664 199.499 431.582 199.745L417.948 230.893L390.764 251.323C390.54 251.458 390.352 251.646 390.219 251.871C390.085 252.097 390.01 252.352 390 252.613C389.991 252.875 390.046 253.135 390.162 253.369C390.278 253.604 390.451 253.806 390.665 253.957L433.451 288.205C433.947 288.558 434.541 288.748 435.15 288.748C435.759 288.748 436.353 288.558 436.849 288.205L464.104 267.733L477.681 236.641Z" fill="#0D345F"/>
<path d="M462.73 266.685L416.631 229.789L430.28 198.641C430.36 198.394 430.5 198.172 430.688 197.993C430.876 197.814 431.105 197.686 431.356 197.618C431.606 197.551 431.869 197.547 432.121 197.607C432.374 197.667 432.607 197.788 432.8 197.961L475.6 232.21C476.056 232.618 476.374 233.156 476.51 233.752C476.647 234.348 476.596 234.971 476.365 235.537L462.73 266.685Z" fill="#0D345F"/>
<path d="M461.668 262.622C461.589 262.621 461.513 262.591 461.456 262.537L420.086 229.435C419.952 229.297 419.86 229.125 419.82 228.937C419.779 228.749 419.793 228.553 419.859 228.373L431.823 200.977C431.846 200.927 431.879 200.882 431.921 200.845C431.962 200.809 432.011 200.781 432.064 200.765C432.118 200.754 432.173 200.755 432.227 200.767C432.281 200.779 432.331 200.803 432.375 200.835L473.731 233.937C473.87 234.072 473.965 234.245 474.005 234.434C474.046 234.623 474.029 234.819 473.958 234.999L461.937 262.409C461.916 262.459 461.883 262.503 461.841 262.538C461.799 262.572 461.75 262.596 461.697 262.607L461.668 262.622ZM420.61 228.897L461.555 261.701L473.377 234.688C473.398 234.609 473.398 234.526 473.377 234.447L432.389 201.657L420.497 228.656C420.47 228.734 420.47 228.819 420.497 228.897H420.61Z" fill="white"/>
<path d="M462.73 266.685L416.631 229.789L389.349 250.262C389.127 250.398 388.942 250.587 388.811 250.813C388.68 251.038 388.606 251.291 388.596 251.552C388.586 251.812 388.641 252.071 388.755 252.305C388.869 252.539 389.039 252.742 389.25 252.895L432.05 287.143C432.545 287.499 433.139 287.689 433.749 287.689C434.358 287.689 434.952 287.499 435.448 287.143L462.73 266.685Z" fill="#0D345F"/>
<path opacity="0.3" d="M403.507 244.598L414.564 236.302C415.098 235.916 415.739 235.708 416.398 235.708C417.056 235.708 417.698 235.916 418.231 236.302L454.334 265.184C454.559 265.35 454.74 265.569 454.86 265.821C454.981 266.073 455.039 266.351 455.027 266.63C455.016 266.909 454.937 267.182 454.796 267.423C454.656 267.665 454.458 267.868 454.221 268.016L443.178 276.312C442.64 276.695 441.997 276.901 441.337 276.901C440.677 276.901 440.034 276.695 439.497 276.312L403.408 247.43C403.188 247.261 403.012 247.042 402.894 246.791C402.776 246.541 402.719 246.266 402.729 245.989C402.739 245.712 402.814 245.441 402.949 245.199C403.085 244.957 403.276 244.751 403.507 244.598Z" fill="white"/>
<path opacity="0.3" d="M405.489 261.177L411.067 256.93C411.308 256.756 411.598 256.662 411.896 256.662C412.193 256.662 412.483 256.756 412.724 256.93L427.576 268.865C427.681 268.937 427.767 269.033 427.826 269.145C427.886 269.257 427.917 269.382 427.917 269.51C427.917 269.637 427.886 269.762 427.826 269.874C427.767 269.986 427.681 270.082 427.576 270.154L421.912 274.33C421.671 274.504 421.382 274.598 421.084 274.598C420.787 274.598 420.497 274.504 420.256 274.33L405.432 262.466C405.33 262.39 405.248 262.29 405.194 262.175C405.139 262.06 405.113 261.934 405.119 261.807C405.125 261.68 405.161 261.556 405.226 261.446C405.29 261.336 405.381 261.244 405.489 261.177Z" fill="white"/>
<path opacity="0.4" d="M508.277 100.001C510.349 92.6312 510.52 84.8562 508.773 77.4022C507.026 69.9483 503.419 63.0586 498.288 57.3764C493.157 51.6942 486.67 47.4048 479.433 44.9088C472.195 42.4127 464.443 41.7915 456.901 43.1029C449.358 44.4144 442.271 47.6159 436.3 52.4084C430.33 57.201 425.672 63.4282 422.76 70.5088C419.849 77.5894 418.779 85.2923 419.65 92.8984C420.522 100.504 423.307 107.766 427.745 114.004C429.338 116.182 430.426 118.687 430.931 121.338C431.509 124.559 432.98 127.553 435.174 129.981C437.369 132.408 440.201 134.172 443.348 135.071L457.775 139.163C460.925 140.06 464.264 140.055 467.41 139.146C470.557 138.237 473.385 136.462 475.572 134.023C477.367 132.041 479.589 130.492 482.07 129.493C488.379 126.871 494.014 122.856 498.552 117.749C503.091 112.642 506.415 106.575 508.277 100.001Z" fill="#0D345F"/>
<path d="M459.644 150.39L435.943 143.651C435.085 143.404 434.36 142.827 433.925 142.048C433.49 141.268 433.381 140.348 433.621 139.488C433.745 139.055 433.953 138.651 434.234 138.299C434.515 137.947 434.864 137.655 435.259 137.439C435.654 137.222 436.088 137.087 436.536 137.04C436.984 136.994 437.437 137.037 437.868 137.166L461.555 143.906C462.413 144.153 463.138 144.729 463.573 145.509C464.008 146.288 464.117 147.208 463.877 148.068C463.755 148.501 463.548 148.905 463.268 149.257C462.989 149.608 462.641 149.901 462.247 150.117C461.853 150.333 461.42 150.469 460.973 150.516C460.526 150.562 460.074 150.52 459.644 150.39Z" fill="#0D345F"/>
<path d="M454.66 159.154L435.575 153.731C434.716 153.481 433.99 152.902 433.556 152.12C433.121 151.338 433.012 150.416 433.253 149.555C433.5 148.697 434.076 147.972 434.856 147.537C435.636 147.102 436.556 146.992 437.416 147.233L456.501 152.67C457.359 152.917 458.084 153.493 458.519 154.273C458.954 155.052 459.063 155.972 458.823 156.832C458.575 157.69 457.999 158.415 457.22 158.85C456.44 159.285 455.52 159.394 454.66 159.154Z" fill="#0D345F"/>
<path d="M457.831 139.828H457.704C457.519 139.794 457.356 139.689 457.247 139.535C457.139 139.382 457.095 139.192 457.123 139.007C457.35 137.591 461.045 115.844 468.068 99.435C466.114 99.0669 464.004 98.5714 461.739 97.9342C459.474 97.2971 457.407 96.6034 455.552 95.8813C452.904 113.522 444.579 133.981 444.056 135.298C443.984 135.472 443.846 135.611 443.672 135.684C443.499 135.757 443.303 135.758 443.128 135.687C442.954 135.616 442.814 135.478 442.741 135.304C442.668 135.13 442.667 134.934 442.739 134.76C442.866 134.434 451.531 113.126 454.193 95.3291C440.445 89.6659 438.406 82.247 438.222 79.0331C438.07 77.2588 438.471 75.4807 439.371 73.9441C440.272 72.4074 441.626 71.1878 443.249 70.4533C446.477 69.1224 450.059 70.1984 452.834 73.2849C456.571 77.5324 456.954 85.5176 455.764 94.4372C457.647 95.1876 459.771 95.853 462.121 96.575C464.472 97.2971 466.652 97.736 468.662 98.1041C472.343 89.8924 476.888 83.2664 482.283 81.6524C486.289 80.4489 489.9 81.4258 491.938 84.2433C492.921 85.7208 493.423 87.4653 493.378 89.239C493.332 91.0126 492.74 92.729 491.683 94.154C489.829 96.8016 484.222 101.983 469.512 99.619C462.433 116.156 458.582 138.823 458.525 139.177C458.514 139.353 458.436 139.519 458.308 139.64C458.179 139.761 458.008 139.828 457.831 139.828ZM470.107 98.3448C484.194 100.469 489.206 95.2867 490.523 93.4178C491.427 92.2274 491.938 90.7852 491.987 89.2911C492.035 87.797 491.617 86.3249 490.792 85.0786C489.121 82.7567 486.091 81.978 482.679 83.0116C477.794 84.5123 473.575 90.657 470.05 98.3873L470.107 98.3448ZM445.981 71.3169C445.214 71.3162 444.454 71.4653 443.744 71.7558C442.387 72.3824 441.257 73.415 440.512 74.7109C439.766 76.0068 439.441 77.5022 439.582 78.9906C439.723 81.2843 441.252 88.3209 454.363 93.9133C455.467 85.5175 455.113 78.0845 451.729 74.2618C451.034 73.3917 450.163 72.6792 449.172 72.1715C448.181 71.6638 447.093 71.3725 445.981 71.3169Z" fill="white"/>
<path opacity="0.3" d="M311.373 338.379C344.778 321.789 345.441 255.144 312.852 189.524C280.264 123.904 226.765 84.1564 193.359 100.746C159.954 117.336 159.292 183.981 191.88 249.601C224.469 315.222 277.967 354.969 311.373 338.379Z" fill="#0D345F"/>
<path d="M223.302 515.953L233.779 515.783L236.186 491.488L225.709 491.644L223.302 515.953Z" fill="#B55B52"/>
<path d="M152.908 496.825L162.889 499.997L174.145 478.123L164.164 474.951L152.908 496.825Z" fill="#B55B52"/>
<path opacity="0.2" d="M236.186 491.488L234.94 504.018L224.463 504.188L225.709 491.658L236.186 491.488Z" fill="black"/>
<path opacity="0.2" d="M164.15 474.951L174.145 478.123L168.34 489.392L158.345 486.235L164.15 474.951Z" fill="black"/>
<path d="M238.834 501.54L221.094 501.809C221.094 501.809 228.173 432.901 230.395 400.338C230.979 387.347 230.828 374.334 229.942 361.36C228.88 342.36 228.201 334.757 226.771 310.745C225.752 293.614 224.506 282.528 224.506 282.528L261.218 285.544C261.218 285.544 262.633 368.666 258.499 400.366C254.167 433.326 238.834 501.54 238.834 501.54Z" fill="#0D345F"/>
<path opacity="0.2" d="M234.6 305.549C239.202 322.652 234.742 360.922 230.424 371.328C230.296 368.071 230.126 364.744 229.942 361.417C228.881 342.417 228.187 334.814 226.757 310.802C226.757 310.32 226.757 309.853 226.757 309.386C229.131 307.665 231.785 306.367 234.6 305.549Z" fill="black"/>
<path d="M241.41 283.915C241.41 283.915 224.421 369.317 215.926 398.809C206.638 431.118 173.692 488.557 173.692 488.557L155.4 482.766C155.4 482.766 176.467 434.133 184.24 402.306C193.103 366.033 205.364 280.956 205.364 280.956L241.41 283.915Z" fill="#0D345F"/>
<path d="M165.013 499.303L153.46 493.866C153.271 493.777 153.057 493.756 152.854 493.805C152.65 493.853 152.47 493.97 152.342 494.135L146.523 501.682C146.38 501.867 146.282 502.081 146.235 502.31C146.187 502.539 146.193 502.775 146.25 503.001C146.307 503.227 146.415 503.438 146.565 503.616C146.715 503.795 146.904 503.937 147.117 504.032C150.869 505.703 153.672 506.764 158.359 508.959C161.19 510.375 167.93 513.744 171.908 515.613C175.887 517.482 178.194 513.886 176.793 512.668C170.549 507.26 167.632 503.805 166.287 500.606C166.039 500.029 165.585 499.564 165.013 499.303Z" fill="#263238"/>
<path d="M233.694 514.566L222.254 514.75C222.046 514.752 221.844 514.827 221.684 514.961C221.524 515.096 221.416 515.281 221.377 515.486L219.451 524.816C219.401 525.042 219.404 525.275 219.458 525.5C219.513 525.724 219.618 525.933 219.765 526.111C219.913 526.288 220.099 526.43 220.309 526.524C220.52 526.619 220.749 526.664 220.98 526.657C225.114 526.529 231.061 526.189 236.257 526.104C242.317 526.019 243.01 526.26 250.118 526.104C254.365 526.104 255.54 521.673 253.742 521.305C245.516 519.648 243.378 519.563 236.229 515.302C235.466 514.832 234.59 514.578 233.694 514.566Z" fill="#263238"/>
<path d="M214.836 188.575C227.996 187.611 241.223 188.085 254.28 189.99C258.167 190.609 261.728 192.531 264.378 195.441C267.028 198.351 268.61 202.076 268.863 206.003C269.755 219.807 269.444 246.934 262.945 297.819C254.875 301.358 219.649 297.946 202.348 292.509C203.283 286.69 208.762 239.742 204.741 200.482C204.603 199.033 204.757 197.572 205.193 196.184C205.628 194.796 206.337 193.51 207.278 192.4C208.219 191.29 209.372 190.38 210.67 189.723C211.968 189.066 213.384 188.676 214.836 188.575Z" fill="#263238"/>
<path d="M217.738 207.377L215.586 211.78C214.878 213.29 214.184 214.819 213.505 216.367C212.089 219.439 210.886 222.54 209.682 225.655C208.479 228.77 207.445 231.913 206.497 235.042C205.598 238.135 204.861 241.273 204.288 244.443L202.872 239.615C204.081 241.2 205.702 242.425 207.558 243.154C209.938 244.102 212.441 244.702 214.991 244.938C217.813 245.238 220.653 245.318 223.486 245.179C226.415 245.067 229.335 244.802 232.236 244.386H232.448C233.295 244.269 234.156 244.464 234.87 244.934C235.583 245.405 236.102 246.119 236.329 246.943C236.556 247.767 236.475 248.646 236.103 249.415C235.73 250.184 235.09 250.792 234.303 251.125C232.647 251.833 231.16 252.357 229.56 252.867C227.96 253.376 226.389 253.829 224.761 254.198C221.444 254.99 218.059 255.465 214.652 255.613C210.957 255.796 207.257 255.385 203.693 254.396C199.553 253.264 195.827 250.964 192.961 247.77C192.431 247.161 192.032 246.449 191.789 245.68C191.545 244.91 191.462 244.099 191.546 243.296V242.942C191.909 239.131 192.519 235.347 193.372 231.615C194.236 227.977 195.241 224.395 196.43 220.912C197.619 217.429 198.936 213.988 200.394 210.633C201.131 208.948 201.881 207.292 202.674 205.635C203.467 203.979 204.26 202.379 205.236 200.623C206.148 199.054 207.628 197.895 209.37 197.385C211.112 196.876 212.983 197.055 214.597 197.885C216.21 198.716 217.444 200.134 218.041 201.848C218.639 203.562 218.556 205.439 217.809 207.093L217.738 207.377Z" fill="#B55B52"/>
<path d="M228.781 245.094L234.445 238.737L243.718 247.232C243.718 247.232 237.418 254.226 230.735 250.559L228.781 245.094Z" fill="#B55B52"/>
<path d="M243.69 236.288L247.413 240.181C247.718 240.501 247.95 240.882 248.095 241.299C248.239 241.716 248.294 242.16 248.253 242.599C248.213 243.039 248.08 243.465 247.861 243.849C247.643 244.232 247.346 244.565 246.989 244.825L243.69 247.218L234.416 238.723L239.966 235.693C240.567 235.371 241.256 235.255 241.928 235.363C242.601 235.47 243.22 235.795 243.69 236.288Z" fill="#B55B52"/>
<path d="M209.795 190.217C201.3 195.427 192.805 223.078 192.805 223.078L215.175 231.29C219.318 224.725 222.426 217.562 224.392 210.052C227.776 197.239 219.182 184.483 209.795 190.217Z" fill="#263238"/>
<path d="M257.947 190.642C257.763 190.642 258.202 190.642 258.414 190.642L259.278 190.712C259.901 190.712 260.524 190.797 261.189 190.797C262.506 190.797 263.879 190.797 265.253 190.797C268.084 190.712 270.916 190.401 273.747 190.061C275.163 189.877 276.579 189.665 277.995 189.396C279.411 189.127 280.827 188.872 282.327 188.603L286.688 187.64L291.035 186.564L285.796 192.935C286.24 190.379 286.421 187.784 286.334 185.191C286.233 182.373 285.954 179.564 285.499 176.781C285.046 173.949 284.456 171.061 283.729 168.116C283.035 165.284 282.157 162.255 281.35 159.522L281.265 159.267C280.991 158.308 281.063 157.282 281.47 156.371C281.876 155.459 282.59 154.72 283.487 154.282C284.384 153.845 285.407 153.737 286.375 153.978C287.343 154.219 288.196 154.793 288.783 155.6C290.712 158.363 292.435 161.264 293.937 164.279C295.453 167.294 296.768 170.407 297.873 173.595C299.021 176.886 299.893 180.268 300.478 183.704C301.108 187.359 301.294 191.077 301.03 194.776C300.921 196.153 300.416 197.469 299.578 198.566C298.739 199.664 297.601 200.496 296.301 200.963L295.792 201.147L291.063 202.846C289.463 203.37 287.863 203.865 286.235 204.262C282.975 205.22 279.667 206.005 276.324 206.612C272.891 207.249 269.419 207.66 265.932 207.844C264.148 207.844 262.364 207.971 260.51 207.844C259.589 207.844 258.641 207.745 257.678 207.646L256.177 207.462C255.611 207.377 255.257 207.334 254.294 207.122C252.163 206.578 250.326 205.229 249.169 203.358C248.012 201.487 247.626 199.241 248.092 197.091C248.558 194.942 249.839 193.056 251.667 191.832C253.494 190.608 255.725 190.141 257.89 190.528L257.947 190.642Z" fill="#B55B52"/>
<path d="M279.949 159.267L275.829 152.358L287.863 148.804C287.863 148.804 290.327 154.354 289.279 158.163C289.062 158.893 288.634 159.542 288.05 160.03C287.466 160.519 286.751 160.825 285.994 160.91L283.842 161.179C283.078 161.271 282.303 161.139 281.612 160.8C280.921 160.461 280.343 159.928 279.949 159.267Z" fill="#B55B52"/>
<path d="M278.774 141.343L282.101 140.961C283.103 140.859 284.108 141.116 284.938 141.686C285.768 142.257 286.368 143.104 286.631 144.076L287.863 148.804L275.829 152.358L275.078 146.001C274.962 144.896 275.284 143.789 275.975 142.918C276.666 142.047 277.671 141.481 278.774 141.343Z" fill="#B55B52"/>
<path d="M245.063 188.107C254.974 188.971 276.522 186.493 276.522 186.493L277.768 213.564C270.439 215.953 262.58 216.198 255.115 214.272C242.203 210.987 234.119 187.159 245.063 188.107Z" fill="#263238"/>
<path d="M228.512 161.589C229.673 169.32 230.537 183.407 224.945 188.277C228.923 192.595 234.685 198.188 243.775 198.938C249.537 196.404 250.996 192.765 248.744 189.353C240.25 186.932 240.802 180.604 242.557 174.728L228.512 161.589Z" fill="#B55B52"/>
<path opacity="0.2" d="M234.246 166.955L242.557 174.714C242.125 176.1 241.812 177.521 241.623 178.961C238.395 178.352 234.076 174.558 233.878 171.132C233.734 169.729 233.859 168.311 234.246 166.955Z" fill="black"/>
<path d="M245.219 135.581C255.809 142.66 246.748 153.986 246.748 153.986C246.748 153.986 241.495 144.699 245.219 135.581Z" fill="white"/>
<path d="M222.92 153.335C225.44 163.416 226.403 169.447 232.519 173.723C241.736 180.165 253.459 173.156 254.011 162.524C254.493 152.953 250.288 138.058 239.556 135.85C237.188 135.345 234.73 135.455 232.417 136.171C230.105 136.887 228.014 138.183 226.345 139.937C224.676 141.691 223.485 143.844 222.886 146.189C222.286 148.535 222.298 150.995 222.92 153.335Z" fill="#B55B52"/>
<path opacity="0.2" d="M239.641 152.896C238.874 152.84 238.104 152.936 237.375 153.179C236.646 153.422 235.972 153.807 235.393 154.312C236.888 154.124 238.331 153.642 239.641 152.896Z" fill="black"/>
<path opacity="0.2" d="M239.91 153.986C239.221 154.081 238.561 154.325 237.977 154.702C237.392 155.079 236.897 155.579 236.526 156.167C237.797 155.691 238.951 154.947 239.91 153.986Z" fill="black"/>
<path opacity="0.2" d="M240.193 160.499C239.963 160.401 239.714 160.357 239.464 160.37C239.214 160.382 238.971 160.451 238.752 160.571C238.532 160.69 238.343 160.858 238.198 161.062C238.053 161.265 237.955 161.499 237.913 161.745C238.553 161.14 239.338 160.711 240.193 160.499Z" fill="black"/>
<path opacity="0.2" d="M246.196 142.122C242.532 142.499 238.911 143.215 235.379 144.26C241.453 143.254 246.196 142.122 246.196 142.122Z" fill="black"/>
<path opacity="0.2" d="M248.008 142.815C248.008 142.815 239.768 144.514 236.144 146.525C240.168 145.522 244.129 144.283 248.008 142.815Z" fill="black"/>
<path d="M225.78 160.372C230.027 159.947 228.13 153.448 226.488 151.976C229.786 150.56 232.561 145.024 230.254 142.065C242.472 143.014 249.452 141.711 250.387 130.739C246.889 131.447 243.208 127.907 238.508 131.206C238.85 130.526 239.048 129.782 239.09 129.022C239.131 128.261 239.015 127.501 238.75 126.787C238.484 126.073 238.074 125.422 237.545 124.874C237.016 124.327 236.38 123.894 235.676 123.603C235.676 123.603 234.912 130.682 229.546 131.744C224.18 132.806 218.502 136.572 218.148 140.536C216.874 137.266 215.558 137.053 215.558 137.053C216.161 138.278 216.475 139.624 216.475 140.989C216.475 142.354 216.161 143.701 215.558 144.925C213.547 149.442 216.973 150.928 216.973 150.928C216.973 150.928 212.584 150.928 215.345 156.846C217.384 160.98 224.831 166.29 225.78 160.372Z" fill="white"/>
<path d="M220.173 162.807C221.508 164.873 223.604 166.328 226.006 166.856C229.192 167.521 230.565 164.619 229.503 161.717C228.541 159.112 225.737 155.629 222.622 156.266C221.945 156.415 221.315 156.732 220.791 157.187C220.266 157.642 219.864 158.221 219.621 158.871C219.377 159.521 219.3 160.222 219.397 160.909C219.493 161.596 219.76 162.249 220.173 162.807Z" fill="#B55B52"/>
<path d="M175.773 489.647L154.239 482.823L156.278 476.395L180.474 481.79L175.773 489.647Z" fill="#0D345F"/>
<path opacity="0.3" d="M175.773 489.647L154.239 482.823L156.278 476.395L180.474 481.79L175.773 489.647Z" fill="black"/>
<path d="M241.071 501.908L219.933 502.248L219.819 495.41L242.43 494.688L241.071 501.908Z" fill="#0D345F"/>
<path opacity="0.3" d="M241.071 501.908L219.933 502.248L219.819 495.41L242.43 494.688L241.071 501.908Z" fill="black"/>
<path d="M240.504 153.009C240.632 153.845 241.17 154.425 241.722 154.425C242.274 154.425 242.614 153.604 242.486 152.769C242.359 151.933 241.821 151.353 241.269 151.353C240.717 151.353 240.377 152.174 240.504 153.009Z" fill="#263238"/>
<path d="M249.948 151.608C250.075 152.443 250.613 153.024 251.165 153.024C251.717 153.024 252.057 152.202 251.93 151.367C251.802 150.532 251.264 149.951 250.712 149.951C250.16 149.951 249.82 150.772 249.948 151.608Z" fill="#263238"/>
<path d="M247.017 152.457C248.388 154.867 250.089 157.074 252.072 159.012C251.562 159.505 250.951 159.881 250.281 160.114C249.61 160.346 248.898 160.429 248.192 160.357L247.017 152.457Z" fill="#A02724"/>
<path d="M245.12 163.571C244.181 163.716 243.222 163.665 242.303 163.421C241.384 163.177 240.526 162.747 239.782 162.155C239.758 162.134 239.738 162.108 239.724 162.079C239.71 162.05 239.702 162.019 239.7 161.986C239.698 161.954 239.702 161.922 239.713 161.891C239.723 161.861 239.74 161.833 239.761 161.809C239.782 161.784 239.808 161.765 239.837 161.751C239.866 161.736 239.898 161.728 239.93 161.726C239.962 161.724 239.994 161.729 240.025 161.739C240.055 161.75 240.084 161.766 240.108 161.787C240.951 162.414 241.931 162.833 242.966 163.01C244.002 163.187 245.065 163.117 246.068 162.807C246.099 162.798 246.131 162.796 246.163 162.8C246.194 162.804 246.225 162.814 246.253 162.83C246.28 162.845 246.304 162.867 246.324 162.892C246.343 162.917 246.357 162.946 246.366 162.977C246.376 163.008 246.381 163.042 246.378 163.075C246.375 163.108 246.365 163.14 246.349 163.17C246.333 163.199 246.311 163.225 246.285 163.245C246.259 163.265 246.228 163.28 246.196 163.288C245.844 163.408 245.485 163.503 245.12 163.571Z" fill="#263238"/>
<path d="M235.464 150.815C235.385 150.836 235.302 150.836 235.223 150.815C235.163 150.788 235.109 150.749 235.065 150.7C235.021 150.651 234.987 150.594 234.966 150.531C234.944 150.469 234.936 150.403 234.942 150.337C234.947 150.271 234.966 150.207 234.997 150.149C235.334 149.438 235.836 148.818 236.462 148.34C237.087 147.862 237.818 147.541 238.593 147.403C238.724 147.391 238.854 147.429 238.957 147.511C239.06 147.593 239.127 147.711 239.145 147.842C239.157 147.972 239.118 148.103 239.036 148.206C238.955 148.309 238.836 148.376 238.706 148.394C238.091 148.505 237.511 148.765 237.018 149.149C236.525 149.534 236.133 150.033 235.874 150.602C235.826 150.666 235.764 150.718 235.693 150.755C235.622 150.792 235.544 150.812 235.464 150.815Z" fill="white"/>
<path d="M251.76 147.587C251.678 147.591 251.597 147.576 251.523 147.541C251.449 147.506 251.384 147.454 251.335 147.389C250.981 146.876 250.51 146.454 249.961 146.159C249.412 145.863 248.801 145.703 248.178 145.69C248.046 145.69 247.92 145.637 247.828 145.544C247.735 145.451 247.682 145.325 247.682 145.194C247.682 145.063 247.735 144.937 247.828 144.844C247.92 144.751 248.046 144.698 248.178 144.698C248.965 144.703 249.739 144.895 250.436 145.259C251.133 145.624 251.733 146.15 252.185 146.794C252.224 146.846 252.252 146.905 252.268 146.968C252.284 147.031 252.288 147.097 252.279 147.161C252.27 147.226 252.248 147.288 252.215 147.344C252.181 147.4 252.138 147.449 252.086 147.488C251.991 147.556 251.876 147.591 251.76 147.587Z" fill="white"/>
<path d="M167.378 502.432C166.549 502.017 165.77 501.509 165.056 500.917C165.016 500.889 164.987 500.849 164.971 500.804C164.956 500.758 164.956 500.708 164.971 500.662C164.984 500.614 165.011 500.571 165.049 500.538C165.087 500.506 165.134 500.485 165.183 500.478C165.622 500.478 169.572 499.983 170.365 501.016C170.455 501.131 170.51 501.269 170.525 501.415C170.54 501.56 170.514 501.706 170.45 501.837C170.371 502.069 170.237 502.277 170.06 502.445C169.882 502.613 169.666 502.735 169.431 502.8C168.724 502.911 168.001 502.782 167.378 502.432ZM165.849 500.861C166.776 501.757 168.013 502.264 169.303 502.276C169.463 502.231 169.609 502.147 169.728 502.03C169.847 501.914 169.934 501.77 169.983 501.611C169.983 501.427 169.983 501.342 169.983 501.285C169.558 500.86 167.434 500.776 165.849 500.861Z" fill="#0D345F"/>
<path d="M165.098 500.96C165.058 500.934 165.024 500.9 164.999 500.861C164.978 500.821 164.967 500.778 164.967 500.733C164.967 500.689 164.978 500.645 164.999 500.606C164.999 500.492 166.57 497.873 168.1 497.477C168.283 497.425 168.475 497.414 168.663 497.443C168.851 497.473 169.031 497.542 169.19 497.647C169.354 497.73 169.486 497.866 169.566 498.032C169.645 498.199 169.667 498.387 169.629 498.567C169.331 499.714 166.457 500.903 165.225 500.974L165.098 500.96ZM168.822 498.015C168.625 497.943 168.409 497.943 168.213 498.015C167.236 498.27 166.188 499.714 165.707 500.464C167.024 500.181 168.963 499.176 169.147 498.496C169.147 498.496 169.147 498.298 168.921 498.114L168.822 498.015Z" fill="#0D345F"/>
<path d="M234.742 515.996C234.7 515.982 234.663 515.958 234.633 515.926C234.603 515.894 234.582 515.854 234.572 515.811C234.566 515.759 234.575 515.706 234.598 515.659C234.62 515.611 234.655 515.571 234.699 515.542C235.167 515.302 239.358 513.093 240.632 513.787C240.754 513.847 240.858 513.94 240.933 514.054C241.008 514.169 241.05 514.301 241.056 514.438C241.084 514.662 241.057 514.89 240.978 515.102C240.899 515.314 240.771 515.504 240.603 515.656C239.471 516.689 236.469 516.321 234.77 516.01L234.742 515.996ZM240.306 514.183C239.513 513.914 237.248 514.82 235.591 515.599C237.913 515.953 239.641 515.826 240.278 515.245C240.385 515.142 240.466 515.015 240.515 514.875C240.565 514.735 240.58 514.585 240.561 514.438C240.563 514.385 240.549 514.332 240.522 514.287C240.494 514.242 240.453 514.206 240.405 514.183H240.306Z" fill="#0D345F"/>
<path d="M234.742 515.995H234.671C234.634 515.971 234.605 515.937 234.588 515.897C234.57 515.857 234.565 515.812 234.572 515.769C234.572 515.656 234.813 512.824 236.129 511.72C236.321 511.55 236.546 511.422 236.789 511.344C237.033 511.266 237.291 511.24 237.545 511.267C238.225 511.267 238.437 511.663 238.48 511.946C238.692 513.136 236.228 515.429 234.968 516.024C234.932 516.041 234.891 516.048 234.851 516.043C234.811 516.038 234.773 516.021 234.742 515.995ZM237.715 511.748H237.46C237.279 511.731 237.097 511.751 236.924 511.807C236.751 511.863 236.591 511.954 236.455 512.074C235.685 512.995 235.22 514.133 235.124 515.33C236.398 514.537 238.069 512.725 237.956 512.017C237.942 511.96 237.927 511.847 237.715 511.776V511.748Z" fill="#0D345F"/>
<path d="M143.917 165.681C142.24 150.663 143.01 135.472 146.197 120.7L147.613 121.026C144.464 135.65 143.704 150.687 145.362 165.553L143.917 165.681ZM150.997 109.586L149.68 109.105C150.986 105.556 152.538 102.103 154.324 98.7695L155.584 99.435C153.815 102.709 152.273 106.101 150.968 109.586H150.997Z" fill="#0D345F"/>
<path d="M193.839 73.8512C240.957 64.4361 304.57 118.506 335.944 194.606C367.319 270.706 354.562 340.038 307.472 349.439C260.382 358.84 196.798 304.785 165.367 228.685C133.936 152.585 146.749 83.1956 193.839 73.8512ZM190.13 223.743C217.851 291.009 270.831 339.458 308.293 331.954C345.756 324.45 353.769 263.853 326.048 196.588C298.326 129.323 245.346 80.8595 207.87 88.3633C170.393 95.8671 162.394 156.464 190.13 223.743ZM152.342 187.116C155.287 181.949 172.715 175.068 176.566 178.905L152.342 187.116ZM328.058 320.585C332.49 320.047 336.85 330.722 333.891 334.672L328.058 320.585ZM262.35 107.364C265.324 106.557 267.929 102.465 268.283 100.072L262.35 107.364Z" fill="white"/>
<path d="M296.542 351.209C250.712 351.209 193.768 299.433 164.716 228.954C144.498 179.938 141.935 130.824 158.005 100.78C166.032 85.7723 178.378 76.2156 193.697 73.1575C241.042 63.6998 305.15 118.053 336.595 194.337C356.799 243.367 359.376 292.481 343.292 322.51C340.896 327.053 337.927 331.268 334.458 335.055C327.363 342.806 317.969 348.076 307.656 350.091C303.998 350.831 300.275 351.206 296.542 351.209ZM153.134 187.187C156.179 201.29 160.491 215.089 166.018 228.416C197.166 304.091 260.609 358.076 307.331 348.76C317.346 346.799 326.47 341.684 333.367 334.163C334.783 331.996 333.948 327.522 332.221 324.549C331.031 322.482 329.601 321.293 328.327 321.293C323.102 327.129 316.12 331.104 308.435 332.619C270.647 340.194 217.285 291.433 189.507 223.984C183.502 209.563 178.963 194.574 175.957 179.244C175.051 178.508 173.225 178.296 170.761 178.621C164.234 179.471 155.4 183.832 153.134 187.187ZM190.781 223.474C218.347 290.329 271.001 338.693 308.166 331.26C319.096 329.08 327.619 322.397 333.509 311.439C347.129 285.954 344.014 242.064 325.382 196.914C297.816 130.045 245.176 81.6948 208.011 89.1137C197.067 91.294 188.53 97.9908 182.64 108.935C169.034 134.391 172.149 178.267 190.781 223.474ZM329.417 320.033C331.185 320.756 332.622 322.107 333.452 323.827C334.855 326.201 335.579 328.914 335.548 331.671C338.047 328.622 340.233 325.33 342.075 321.845C357.96 292.184 355.369 243.522 335.321 194.875C319.365 156.167 294.97 123.136 268.778 101.346C267.868 103.946 266.094 106.155 263.752 107.604C287.948 127.072 311.309 158.8 326.784 196.319C345.572 241.894 348.658 286.237 334.854 312.048C333.316 314.886 331.494 317.561 329.417 320.033ZM193.966 74.5449C179.072 77.5182 167.066 86.82 159.236 101.445C148.094 122.272 146.041 152.415 152.752 185.389C156.207 181.708 164.716 178.013 170.521 177.234C172.202 176.922 173.933 177.01 175.575 177.489C170.563 149.739 172.389 125.104 181.38 108.255C187.397 97.0139 196.501 89.8499 207.714 87.6554C224.123 84.3848 243.477 91.7188 262.393 106.599C264.771 105.764 266.966 102.479 267.49 100.355C242.755 80.2082 216.435 70.0568 193.966 74.5449Z" fill="#0D345F"/>
<path d="M257.791 154.34L301.922 149.781L300.875 141.768L257.055 148.677L257.791 154.34Z" fill="#0D345F"/>
<path opacity="0.2" d="M282.54 144.656L283.46 151.678L301.908 149.781L300.86 141.768L282.54 144.656Z" fill="black"/>
<path d="M285.839 151.268C285.896 151.6 286.07 151.901 286.33 152.117C286.589 152.332 286.917 152.448 287.254 152.443L338.436 147.714C340.475 147.445 338.733 134.122 336.709 134.391L286.008 142.886C285.669 142.958 285.367 143.152 285.161 143.431C284.955 143.71 284.858 144.055 284.89 144.401L285.839 151.268Z" fill="#0D345F"/>
<path d="M257.947 155.501C258.178 155.473 258.388 155.354 258.532 155.171C258.675 154.988 258.74 154.755 258.712 154.524L257.891 148.266C257.859 148.034 257.737 147.824 257.552 147.681C257.366 147.538 257.132 147.474 256.899 147.502C256.67 147.537 256.463 147.66 256.323 147.845C256.183 148.03 256.121 148.263 256.149 148.493L256.97 154.751C256.984 154.865 257.021 154.975 257.077 155.074C257.134 155.174 257.21 155.261 257.301 155.331C257.392 155.401 257.496 155.452 257.607 155.481C257.718 155.51 257.834 155.517 257.947 155.501Z" fill="#0D345F"/>
<path d="M442.597 369.487C442.689 369.121 442.923 368.806 443.247 368.613C443.571 368.419 443.959 368.362 444.325 368.454C444.691 368.546 445.005 368.779 445.199 369.103C445.393 369.427 445.45 369.815 445.358 370.181C445.576 374.606 444.598 379.007 442.527 382.923C438.053 390.611 428.751 393.344 428.751 393.344L442.597 369.487Z" fill="#0D345F"/>
<path d="M431.129 409.979C423.258 410.091 415.569 407.602 409.255 402.9C404.114 398.595 399.998 393.197 397.206 387.1C397.086 386.953 396.997 386.784 396.942 386.602C396.887 386.421 396.869 386.23 396.888 386.042C396.907 385.853 396.963 385.67 397.053 385.503C397.143 385.336 397.265 385.188 397.412 385.068C397.559 384.948 397.728 384.858 397.909 384.804C398.091 384.749 398.281 384.731 398.47 384.75C398.659 384.769 398.842 384.825 399.009 384.915C399.176 385.005 399.323 385.127 399.443 385.274L431.129 409.979Z" fill="#0D345F"/>
<path d="M457.888 427.805C449.69 439.867 434.102 443.251 434.102 443.251L461.371 403.169C461.502 402.843 461.75 402.578 462.067 402.425C462.383 402.271 462.745 402.241 463.082 402.34C463.42 402.439 463.708 402.66 463.892 402.96C464.075 403.26 464.14 403.617 464.075 403.962C464.174 409.526 463.452 419.607 457.888 427.805Z" fill="#0D345F"/>
<path d="M433.762 492.606H433.678C433.594 492.596 433.513 492.569 433.441 492.527C433.368 492.484 433.305 492.428 433.254 492.36C433.204 492.293 433.168 492.216 433.148 492.134C433.128 492.052 433.125 491.967 433.14 491.884C437.387 461.812 429.614 381.592 420.496 361.828C420.461 361.751 420.441 361.669 420.438 361.585C420.434 361.501 420.447 361.417 420.476 361.338C420.505 361.259 420.549 361.187 420.606 361.125C420.663 361.063 420.732 361.013 420.808 360.978C420.884 360.943 420.966 360.923 421.05 360.919C421.134 360.916 421.218 360.929 421.297 360.958C421.376 360.987 421.448 361.031 421.51 361.088C421.572 361.145 421.622 361.213 421.657 361.29C430.846 381.111 438.647 461.812 434.4 492.068C434.376 492.22 434.298 492.357 434.181 492.456C434.064 492.555 433.916 492.608 433.762 492.606Z" fill="#263238"/>
<path d="M415.994 456.97H451.531C451.975 456.969 452.414 457.06 452.821 457.237C453.228 457.414 453.593 457.674 453.894 458.001C454.195 458.327 454.425 458.712 454.569 459.132C454.713 459.552 454.768 459.997 454.731 460.439L449.705 523.938C449.64 524.742 449.275 525.492 448.682 526.038C448.089 526.584 447.311 526.886 446.505 526.883H421.02C420.214 526.886 419.436 526.584 418.843 526.038C418.25 525.492 417.885 524.742 417.82 523.938L412.78 460.439C412.745 459.996 412.802 459.551 412.948 459.131C413.093 458.711 413.324 458.326 413.626 458C413.928 457.674 414.295 457.414 414.702 457.237C415.11 457.06 415.55 456.969 415.994 456.97Z" fill="#0D345F"/>
<path d="M415.796 365.098C416.499 366.145 417.496 366.959 418.662 367.439C419.828 367.918 421.11 368.041 422.346 367.791C423.581 367.542 424.715 366.932 425.604 366.037C426.492 365.143 427.096 364.006 427.338 362.769C427.58 361.531 427.449 360.25 426.963 359.087C426.476 357.924 425.656 356.932 424.605 356.235C423.554 355.539 422.32 355.17 421.06 355.175C419.799 355.18 418.568 355.559 417.523 356.263C416.124 357.207 415.156 358.667 414.832 360.324C414.508 361.98 414.855 363.697 415.796 365.098Z" fill="white"/>
<path d="M421.091 368.765C419.36 368.768 417.686 368.149 416.373 367.022C415.06 365.894 414.196 364.332 413.938 362.62C413.68 360.909 414.046 359.161 414.968 357.697C415.891 356.232 417.308 355.148 418.963 354.641C420.618 354.134 422.4 354.238 423.985 354.935C425.569 355.631 426.851 356.874 427.596 358.436C428.341 359.999 428.5 361.777 428.044 363.446C427.588 365.116 426.548 366.566 425.112 367.533C423.924 368.334 422.524 368.763 421.091 368.765ZM421.091 356.023C419.863 356.026 418.672 356.44 417.706 357.198C416.741 357.957 416.056 359.016 415.761 360.208C415.466 361.399 415.578 362.656 416.079 363.777C416.58 364.898 417.441 365.819 418.525 366.395C419.609 366.971 420.855 367.167 422.064 366.954C423.273 366.741 424.377 366.13 425.199 365.218C426.021 364.306 426.514 363.145 426.601 361.92C426.688 360.696 426.363 359.477 425.678 358.458C425.167 357.707 424.478 357.093 423.673 356.67C422.868 356.248 421.972 356.031 421.063 356.037L421.091 356.023Z" fill="#0D345F"/>
<path d="M421.53 383.178C421.583 383.707 421.791 384.208 422.128 384.619C422.466 385.03 422.918 385.331 423.426 385.485C423.935 385.64 424.478 385.64 424.987 385.486C425.495 385.331 425.947 385.03 426.285 384.619C426.622 384.209 426.831 383.707 426.883 383.178C426.936 382.65 426.831 382.117 426.581 381.648C426.332 381.178 425.949 380.793 425.48 380.542C425.012 380.29 424.48 380.183 423.951 380.233C423.598 380.267 423.256 380.37 422.943 380.536C422.63 380.703 422.354 380.929 422.129 381.203C421.904 381.476 421.735 381.792 421.632 382.131C421.529 382.47 421.495 382.826 421.53 383.178Z" fill="#263238"/>
<path d="M428.468 437.814C428.468 438.346 428.625 438.866 428.921 439.309C429.216 439.751 429.637 440.096 430.128 440.3C430.62 440.503 431.161 440.556 431.682 440.453C432.204 440.349 432.684 440.093 433.06 439.716C433.436 439.34 433.692 438.861 433.796 438.339C433.9 437.817 433.846 437.276 433.643 436.785C433.439 436.293 433.094 435.873 432.652 435.578C432.21 435.282 431.69 435.124 431.158 435.124C430.444 435.124 429.76 435.408 429.255 435.912C428.751 436.417 428.468 437.101 428.468 437.814Z" fill="#263238"/>
<path d="M436.382 420.371C437.162 420.258 437.891 419.915 438.477 419.387C439.063 418.86 439.48 418.17 439.675 417.406C439.869 416.642 439.833 415.837 439.571 415.093C439.308 414.349 438.832 413.7 438.201 413.227C437.57 412.753 436.813 412.478 436.026 412.434C435.238 412.391 434.456 412.581 433.776 412.982C433.097 413.383 432.552 413.976 432.209 414.686C431.867 415.397 431.742 416.193 431.851 416.974C432.002 418.025 432.564 418.973 433.413 419.61C434.263 420.247 435.331 420.521 436.382 420.371Z" fill="#263238"/>
</svg>
