<svg width="696" height="534" viewBox="0 0 696 534" fill="none" xmlns="http://www.w3.org/2000/svg">
<path d="M695.457 470.354H0V470.701H695.457V470.354Z" fill="#EBEBEB"/>
<path d="M497.502 479.826H451.435V480.173H497.502V479.826Z" fill="#EBEBEB"/>
<path d="M608.191 482.872H596.104V483.22H608.191V482.872Z" fill="#EBEBEB"/>
<path d="M525.584 492.733H498.893V493.081H525.584V492.733Z" fill="#EBEBEB"/>
<path d="M347.728 488.032H287.655V488.38H347.728V488.032Z" fill="#EBEBEB"/>
<path d="M275.262 488.032H266.457V488.38H275.262V488.032Z" fill="#EBEBEB"/>
<path d="M237.832 482.162H107.531V482.51H237.832V482.162Z" fill="#EBEBEB"/>
<path d="M329.647 408.319H61.0751C58.9711 408.315 56.9546 407.477 55.4681 405.988C53.9817 404.499 53.1468 402.481 53.1469 400.377V22.8411C53.1652 20.7492 54.0081 18.749 55.4925 17.2749C56.977 15.8009 58.9831 14.9721 61.0751 14.9685H329.647C331.753 14.9685 333.773 15.8053 335.262 17.2947C336.752 18.7841 337.589 20.8042 337.589 22.9106V400.377C337.589 402.483 336.752 404.503 335.262 405.993C333.773 407.482 331.753 408.319 329.647 408.319ZM61.0751 15.2467C59.0633 15.2504 57.1352 16.0521 55.714 17.4759C54.2928 18.8998 53.4946 20.8293 53.4946 22.8411V400.377C53.4946 402.388 54.2928 404.318 55.714 405.742C57.1352 407.166 59.0633 407.967 61.0751 407.971H329.647C331.66 407.967 333.589 407.166 335.013 405.743C336.436 404.319 337.237 402.39 337.241 400.377V22.8411C337.237 20.828 336.436 18.8985 335.013 17.4751C333.589 16.0517 331.66 15.2504 329.647 15.2467H61.0751Z" fill="#EBEBEB"/>
<path d="M630.515 408.319H361.93C359.824 408.315 357.806 407.477 356.318 405.989C354.829 404.5 353.991 402.482 353.987 400.377V22.8411C354.009 20.7479 354.855 18.7477 356.342 17.2741C357.829 15.8004 359.836 14.9721 361.93 14.9685H630.515C632.604 14.9757 634.607 15.8062 636.088 17.2798C637.57 18.7535 638.411 20.7516 638.429 22.8411V400.377C638.429 402.478 637.596 404.494 636.113 405.983C634.629 407.471 632.616 408.311 630.515 408.319ZM361.93 15.2467C359.917 15.2504 357.987 16.0517 356.564 17.4751C355.14 18.8985 354.339 20.828 354.335 22.8411V400.377C354.339 402.39 355.14 404.319 356.564 405.743C357.987 407.166 359.917 407.967 361.93 407.971H630.515C632.528 407.967 634.457 407.166 635.881 405.743C637.304 404.319 638.106 402.39 638.109 400.377V22.8411C638.106 20.828 637.304 18.8985 635.881 17.4751C634.457 16.0517 632.528 15.2504 630.515 15.2467H361.93Z" fill="#EBEBEB"/>
<path d="M221.767 345.477L606.438 345.477V50.6871L221.767 50.6871L221.767 345.477Z" fill="#E6E6E6"/>
<path d="M199.902 43.7187H619.638C619.91 43.7094 620.182 43.755 620.436 43.8529C620.691 43.9507 620.923 44.0988 621.119 44.2884C621.315 44.4779 621.471 44.7049 621.577 44.9559C621.684 45.2069 621.738 45.4768 621.738 45.7495C621.738 46.0155 621.686 46.2789 621.583 46.5245C621.481 46.7701 621.331 46.993 621.143 47.1805C620.954 47.368 620.73 47.5162 620.484 47.6168C620.237 47.7173 619.974 47.7681 619.708 47.7663H199.902C199.636 47.7681 199.372 47.7173 199.126 47.6168C198.88 47.5162 198.656 47.368 198.467 47.1805C198.278 46.993 198.128 46.7701 198.026 46.5245C197.924 46.2789 197.871 46.0155 197.871 45.7495C197.871 45.2109 198.085 44.6943 198.466 44.3135C198.847 43.9327 199.363 43.7187 199.902 43.7187Z" fill="#F5F5F5"/>
<path d="M213.116 345.477L602.391 345.477V50.6871L213.116 50.6871L213.116 345.477Z" fill="#EBEBEB"/>
<path d="M590.262 333.362V62.8159L225.231 62.8159V333.362H590.262Z" fill="#FAFAFA"/>
<path d="M515.278 333.362L431.072 62.8159H382.07L466.29 333.362H515.278Z" fill="white"/>
<path d="M432.129 333.362L347.909 62.8159H328.812L413.018 333.362H432.129Z" fill="white"/>
<path d="M226.761 333.362L226.761 62.8159H225.217L225.217 333.362H226.761Z" fill="#E6E6E6"/>
<g opacity="0.4">
<path d="M573.362 325.295H610.987V40.0884H573.362V325.295Z" fill="#F0F0F0"/>
<path d="M558.702 325.295H588.023V40.0884H558.702V325.295Z" fill="#E6E6E6"/>
<path d="M535.738 325.295H573.362V40.0884H535.738V325.295Z" fill="#F0F0F0"/>
<path d="M521.064 325.295H550.384V40.0884H521.064V325.295Z" fill="#E6E6E6"/>
<path d="M498.114 325.295H535.738V40.0884H498.114L498.114 325.295Z" fill="#F0F0F0"/>
</g>
<g opacity="0.4">
<path d="M233.006 325.295H245.023L245.023 40.0884H233.006L233.006 325.295Z" fill="#F0F0F0"/>
<path d="M228.318 325.295H237.679L237.679 40.0884H228.318L228.318 325.295Z" fill="#E6E6E6"/>
<path d="M220.974 325.295H232.992L232.992 40.0884H220.974L220.974 325.295Z" fill="#F0F0F0"/>
<path d="M216.301 325.295H225.662L225.662 40.0884H216.301L216.301 325.295Z" fill="#E6E6E6"/>
<path d="M208.957 325.295H220.974L220.974 40.0884H208.957L208.957 325.295Z" fill="#F0F0F0"/>
</g>
<path d="M104.861 196.622H191.042V88.2836L104.861 88.2836L104.861 196.622Z" fill="#F0F0F0"/>
<path d="M85.8194 196.622H187.732V88.2836L85.8194 88.2836L85.8194 196.622Z" fill="#F5F5F5"/>
<path d="M94.3596 96.8237V188.082H179.191V96.8237H94.3596Z" fill="white"/>
<path d="M565.851 463.399H582.89V372.044H565.851V463.399Z" fill="#F0F0F0"/>
<path d="M319.242 471.884L575.838 471.884V463.399L319.242 463.399V471.884Z" fill="#F0F0F0"/>
<path d="M565.837 372.058H312.204V463.413H565.837V372.058Z" fill="#FAFAFA"/>
<path d="M551.428 383.171H326.642V411.281H551.428V383.171Z" fill="#F0F0F0"/>
<path d="M551.428 419.279H326.642V447.39H551.428V419.279Z" fill="#F0F0F0"/>
<path d="M375.839 385.703H502.217C503.631 385.703 504.776 384.557 504.776 383.143V382.239C504.776 380.826 503.631 379.68 502.217 379.68H375.839C374.425 379.68 373.279 380.826 373.279 382.239V383.143C373.279 384.557 374.425 385.703 375.839 385.703Z" fill="#FAFAFA"/>
<path d="M375.839 421.811H502.217C503.631 421.811 504.776 420.665 504.776 419.251V418.347C504.776 416.934 503.631 415.788 502.217 415.788H375.839C374.425 415.788 373.279 416.934 373.279 418.347V419.251C373.279 420.665 374.425 421.811 375.839 421.811Z" fill="#FAFAFA"/>
<path d="M307.308 372.058L565.837 372.058V363.865L307.308 363.865V372.058Z" fill="#F0F0F0"/>
<path d="M588.022 363.865H565.851V372.058H588.022V363.865Z" fill="#E6E6E6"/>
<path d="M139.467 428.849H147.729C147.729 421.463 147.729 383.741 148.313 340.804C148.814 301.01 149.704 285.07 150.511 278.978L143.876 290.55C141.567 299.605 137.728 315.086 137.394 324.6C136.309 354.532 140.482 397.47 139.467 428.849Z" fill="#E6E6E6"/>
<path d="M133.194 285.07C122.192 263.552 100.146 252.314 77.7243 241.687C68.9059 237.515 93.6641 288.978 111.676 312.387C125.586 330.469 139.175 330.122 143.236 348.037C144.015 327.284 142.68 303.625 133.194 285.07Z" fill="#E6E6E6"/>
<path d="M154.099 321.484C163.836 308.757 179.915 305.503 196.244 302.79C202.642 301.733 180.374 332.5 165.644 345.046C154.238 354.783 145.156 351.695 140.482 363.351C142.249 348.676 145.698 332.445 154.099 321.484Z" fill="#E6E6E6"/>
<path d="M134.446 345.811C126.865 335.922 114.389 333.39 101.704 331.29C96.7241 330.469 114.055 354.351 125.446 364.088C134.307 371.668 141.359 369.262 144.919 378.317C143.667 366.939 140.983 354.351 134.446 345.811Z" fill="#E6E6E6"/>
<path d="M150.052 384.562C155.282 377.886 163.794 376.217 172.445 374.826C175.839 374.297 163.905 390.46 156.074 397.08C149.996 402.171 145.211 400.488 142.68 406.636C143.654 398.861 145.559 390.32 150.052 384.562Z" fill="#E6E6E6"/>
<path d="M145.128 285.877C151.22 264.777 175.255 231.951 199.999 225.108C209.736 222.465 174.81 275.862 162.848 302.429C153.543 323.125 144.766 335.685 143.556 350.512C137.381 331.874 139.091 306.977 145.128 285.877Z" fill="#E6E6E6"/>
<path d="M147.187 470.354C130.05 470.354 115.891 467.808 114.903 450.714L112.122 421.505H182.377L179.595 450.714C178.468 467.808 164.309 470.354 147.187 470.354Z" fill="#F0F0F0"/>
<path d="M186.855 427.444H107.504L105.237 411.268H189.123L186.855 427.444Z" fill="#F0F0F0"/>
<path d="M347.728 533.167C496.671 533.167 617.413 526.118 617.413 517.422C617.413 508.726 496.671 501.677 347.728 501.677C198.786 501.677 78.0442 508.726 78.0442 517.422C78.0442 526.118 198.786 533.167 347.728 533.167Z" fill="#F5F5F5"/>
<path d="M527.49 131.012C527.426 131.026 527.359 131.026 527.295 131.012C527.118 130.961 526.969 130.841 526.88 130.679C526.792 130.517 526.771 130.327 526.822 130.15C539.271 88.6869 530.327 52.2589 502.899 32.5218C477.751 14.5095 443.451 14.7877 417.538 33.2451C344.223 85.4461 288.183 95.558 230.099 67.086C230.017 67.0458 229.943 66.9899 229.883 66.9213C229.822 66.8527 229.776 66.7729 229.746 66.6863C229.716 66.5998 229.704 66.5082 229.709 66.4169C229.715 66.3256 229.739 66.2363 229.779 66.1541C229.819 66.0719 229.875 65.9984 229.944 65.9379C230.012 65.8773 230.092 65.8309 230.179 65.8012C230.265 65.7715 230.357 65.7591 230.448 65.7647C230.539 65.7704 230.629 65.794 230.711 65.8342C288.267 94.0558 343.889 83.9161 416.732 32.1046C443.159 13.3133 478.085 13.0351 503.705 31.3952C531.649 51.4243 540.787 88.4226 528.158 130.553C528.108 130.69 528.017 130.808 527.898 130.89C527.778 130.972 527.635 131.015 527.49 131.012Z" fill="#6F95C9"/>
<path d="M481.465 344.156C467.407 344.09 453.561 340.722 441.045 334.322C389.581 308.409 349.55 309.578 334.125 337.438C334.082 337.518 334.022 337.589 333.951 337.647C333.88 337.705 333.798 337.748 333.71 337.773C333.622 337.799 333.53 337.807 333.439 337.798C333.348 337.788 333.26 337.76 333.179 337.716C333.019 337.625 332.901 337.476 332.849 337.299C332.797 337.123 332.816 336.933 332.901 336.77C348.744 308.173 389.4 306.796 441.671 333.07C454.167 339.538 468.052 342.864 482.123 342.76C496.194 342.655 510.027 339.124 522.427 332.472C553.152 316.491 576.214 284.263 581.179 250.408C581.193 250.318 581.224 250.231 581.271 250.153C581.319 250.074 581.381 250.006 581.454 249.952C581.528 249.897 581.612 249.858 581.701 249.836C581.789 249.814 581.882 249.81 581.972 249.824C582.153 249.855 582.315 249.955 582.424 250.103C582.533 250.251 582.58 250.435 582.556 250.617C577.521 284.945 554.168 317.562 523.067 333.738C510.245 340.521 495.97 344.095 481.465 344.156Z" fill="#6F95C9"/>
<path d="M567.771 262.899H567.534C567.361 262.836 567.22 262.707 567.142 262.54C567.063 262.373 567.055 262.182 567.117 262.009C582.042 220.99 560.747 204.606 540.147 188.749C520.675 173.727 500.437 158.149 511.94 122.069C511.966 121.981 512.011 121.899 512.07 121.829C512.129 121.759 512.201 121.701 512.283 121.66C512.365 121.618 512.454 121.593 512.546 121.587C512.637 121.581 512.729 121.593 512.816 121.624C512.902 121.65 512.982 121.694 513.051 121.752C513.12 121.81 513.177 121.882 513.219 121.962C513.26 122.042 513.285 122.13 513.293 122.22C513.3 122.31 513.289 122.4 513.261 122.486C502.12 157.648 520.967 172.142 541.065 187.609C562.054 203.757 583.766 220.462 568.494 262.44C568.447 262.589 568.348 262.717 568.216 262.801C568.084 262.884 567.926 262.919 567.771 262.899Z" fill="#6F95C9"/>
<path opacity="0.1" d="M554.599 269.589C544.431 304.153 505.653 330.636 470.574 322.444C428.04 312.443 405.618 276.196 413.157 240.964C420.696 205.732 459.961 223.828 495.221 216.275C540.453 206.525 564.711 235.011 554.599 269.589Z" fill="#6F95C9"/>
<path d="M352.165 70.9667C352.284 71.9109 352.118 72.8689 351.691 73.7189C351.263 74.569 350.592 75.2727 349.764 75.7406C348.935 76.2086 347.986 76.4196 347.037 76.347C346.089 76.2743 345.183 75.9212 344.435 75.3325C343.688 74.7438 343.132 73.9462 342.839 73.0409C342.545 72.1356 342.528 71.1636 342.789 70.2484C343.049 69.3332 343.576 68.5162 344.302 67.9011C345.028 67.2859 345.92 66.9006 346.866 66.7939C348.121 66.6524 349.381 67.0111 350.373 67.7922C351.365 68.5733 352.009 69.7138 352.165 70.9667Z" fill="white"/>
<path d="M347.395 76.9755C346.337 76.9743 345.302 76.6671 344.416 76.091C343.529 75.5149 342.828 74.6946 342.397 73.7289C341.966 72.7632 341.823 71.6935 341.987 70.6486C342.15 69.6038 342.612 68.6286 343.317 67.8406C344.023 67.0526 344.941 66.4855 345.961 66.2077C346.982 65.9298 348.06 65.9531 349.068 66.2748C350.075 66.5964 350.968 67.2027 351.639 68.0204C352.309 68.8382 352.729 69.8324 352.847 70.8833C352.989 72.3254 352.562 73.766 351.658 74.8986C350.754 76.0311 349.444 76.7663 348.007 76.9477C347.803 76.9706 347.599 76.9799 347.395 76.9755ZM347.395 67.3921H346.949C346.146 67.4822 345.387 67.8084 344.769 68.3295C344.151 68.8506 343.701 69.5432 343.477 70.3198C343.252 71.0964 343.263 71.9222 343.507 72.6927C343.752 73.4633 344.219 74.1441 344.851 74.6491C345.482 75.1542 346.249 75.4607 347.054 75.5301C347.86 75.5995 348.668 75.4286 349.376 75.039C350.084 74.6494 350.661 74.0586 351.034 73.3412C351.407 72.6239 351.558 71.8121 351.47 71.0085C351.337 70.0174 350.852 69.1071 350.104 68.4433C349.356 67.7796 348.394 67.4066 347.395 67.3921Z" fill="#6F95C9"/>
<path d="M517.42 121.707C517.538 122.652 517.373 123.611 516.945 124.461C516.517 125.312 515.846 126.016 515.016 126.484C514.187 126.952 513.237 127.162 512.288 127.089C511.338 127.015 510.432 126.661 509.685 126.071C508.938 125.481 508.383 124.682 508.091 123.775C507.799 122.869 507.783 121.896 508.046 120.981C508.309 120.066 508.838 119.249 509.566 118.636C510.294 118.022 511.188 117.639 512.134 117.535C513.387 117.397 514.643 117.757 515.632 118.538C516.621 119.319 517.263 120.457 517.42 121.707Z" fill="white"/>
<path d="M512.593 127.73C511.71 127.739 510.838 127.535 510.05 127.135C509.262 126.735 508.583 126.151 508.069 125.432C507.555 124.713 507.222 123.882 507.098 123.007C506.974 122.132 507.063 121.241 507.357 120.408C507.651 119.575 508.141 118.825 508.787 118.222C509.432 117.619 510.213 117.18 511.064 116.943C511.915 116.706 512.811 116.678 513.675 116.861C514.539 117.044 515.347 117.432 516.029 117.994C517.162 118.909 517.891 120.232 518.06 121.679C518.212 123.125 517.793 124.573 516.891 125.713C515.975 126.806 514.666 127.495 513.247 127.633C513.032 127.681 512.813 127.713 512.593 127.73ZM512.593 118.146C512.441 118.133 512.287 118.133 512.134 118.146C511.593 118.197 511.068 118.356 510.59 118.614C510.112 118.872 509.691 119.224 509.353 119.649C509.015 120.069 508.763 120.552 508.613 121.07C508.462 121.588 508.416 122.131 508.476 122.667C508.616 123.737 509.164 124.712 510.007 125.387C510.85 126.061 511.922 126.382 512.997 126.283C514.087 126.163 515.087 125.619 515.779 124.767C516.115 124.349 516.364 123.868 516.513 123.352C516.661 122.836 516.704 122.296 516.641 121.763C516.537 120.76 516.064 119.831 515.313 119.157C514.563 118.484 513.588 118.113 512.579 118.119L512.593 118.146Z" fill="#6F95C9"/>
<path d="M565.198 300.106C565.313 301.047 565.146 302.001 564.718 302.847C564.29 303.694 563.62 304.394 562.793 304.858C561.967 305.323 561.021 305.532 560.075 305.458C559.13 305.384 558.228 305.031 557.484 304.443C556.739 303.855 556.186 303.06 555.895 302.158C555.604 301.255 555.587 300.286 555.847 299.375C556.108 298.463 556.633 297.649 557.357 297.036C558.08 296.423 558.97 296.039 559.912 295.933C561.165 295.795 562.421 296.156 563.41 296.937C564.399 297.717 565.041 298.856 565.198 300.106Z" fill="white"/>
<path d="M560.427 306.156C559.366 306.155 558.328 305.847 557.438 305.269C556.549 304.691 555.845 303.868 555.413 302.899C554.982 301.93 554.839 300.857 555.004 299.808C555.169 298.76 555.634 297.783 556.342 296.993C557.051 296.203 557.973 295.636 558.997 295.359C560.021 295.082 561.103 295.107 562.113 295.432C563.123 295.756 564.018 296.367 564.689 297.189C565.359 298.011 565.778 299.009 565.893 300.064C565.972 300.78 565.91 301.505 565.708 302.197C565.507 302.888 565.171 303.534 564.721 304.096C564.27 304.658 563.712 305.125 563.081 305.472C562.449 305.818 561.755 306.037 561.039 306.114C560.836 306.143 560.632 306.157 560.427 306.156ZM560.427 296.573C560.274 296.56 560.121 296.56 559.968 296.573C559.165 296.666 558.408 296.994 557.792 297.516C557.176 298.039 556.729 298.732 556.506 299.509C556.284 300.285 556.296 301.11 556.542 301.879C556.788 302.649 557.256 303.328 557.887 303.832C558.519 304.336 559.286 304.641 560.09 304.71C560.895 304.778 561.702 304.607 562.41 304.217C563.118 303.827 563.694 303.237 564.066 302.52C564.439 301.803 564.59 300.992 564.502 300.189C564.382 299.099 563.838 298.099 562.986 297.407C562.255 296.851 561.359 296.557 560.441 296.573H560.427Z" fill="#6F95C9"/>
<path d="M516.126 299.438C515.686 300.275 515.007 300.963 514.176 301.414C513.345 301.866 512.399 302.061 511.457 301.975C510.515 301.889 509.62 301.526 508.884 300.931C508.148 300.337 507.606 299.537 507.324 298.634C507.042 297.731 507.035 296.765 507.302 295.858C507.569 294.951 508.099 294.143 508.826 293.537C509.552 292.931 510.441 292.553 511.382 292.453C512.322 292.352 513.271 292.532 514.109 292.97C514.67 293.259 515.167 293.656 515.572 294.139C515.978 294.622 516.283 295.18 516.471 295.782C516.658 296.384 516.725 297.017 516.665 297.645C516.606 298.272 516.423 298.882 516.126 299.438Z" fill="white"/>
<path d="M511.856 302.707C510.97 302.704 510.097 302.489 509.311 302.081C508.035 301.39 507.08 300.228 506.649 298.843C506.218 297.459 506.344 295.96 507.002 294.667C507.69 293.399 508.849 292.452 510.229 292.031C511.608 291.611 513.099 291.749 514.377 292.418C515.655 293.086 516.62 294.231 517.061 295.604C517.503 296.978 517.387 298.47 516.738 299.758C516.266 300.644 515.563 301.386 514.704 301.906C513.844 302.425 512.86 302.702 511.856 302.707ZM511.856 293.123C511.131 293.123 510.42 293.315 509.794 293.68C509.168 294.046 508.65 294.57 508.294 295.201C507.937 295.832 507.755 296.547 507.765 297.271C507.776 297.996 507.978 298.704 508.353 299.325C508.727 299.945 509.26 300.455 509.896 300.802C510.532 301.149 511.249 301.321 511.973 301.3C512.697 301.279 513.403 301.066 514.018 300.683C514.633 300.299 515.135 299.759 515.472 299.118C515.967 298.149 516.064 297.025 515.742 295.986C515.419 294.946 514.704 294.074 513.748 293.555C513.157 293.274 512.51 293.136 511.856 293.151V293.123Z" fill="#6F95C9"/>
<path d="M529.813 280.452C529.684 280.449 529.561 280.399 529.465 280.313L501.397 254.971C501.317 254.873 501.275 254.75 501.277 254.625C501.28 254.499 501.327 254.378 501.411 254.284C501.495 254.19 501.61 254.129 501.735 254.112C501.859 254.095 501.986 254.124 502.092 254.192L529.423 278.867L533.193 249.087C533.201 249.019 533.223 248.954 533.257 248.895C533.292 248.835 533.337 248.783 533.392 248.742C533.446 248.701 533.508 248.67 533.574 248.653C533.64 248.636 533.709 248.632 533.777 248.642C533.845 248.651 533.91 248.673 533.97 248.707C534.029 248.741 534.081 248.786 534.122 248.841C534.164 248.895 534.194 248.957 534.211 249.023C534.228 249.09 534.232 249.159 534.222 249.226L530.328 279.993C530.317 280.087 530.28 280.176 530.221 280.25C530.162 280.324 530.083 280.38 529.994 280.41C529.938 280.439 529.876 280.453 529.813 280.452Z" fill="#263238"/>
<path d="M511.856 297.741C511.785 297.741 511.716 297.725 511.651 297.697C511.586 297.668 511.528 297.626 511.481 297.574C511.385 297.475 511.331 297.343 511.331 297.206C511.331 297.068 511.385 296.936 511.481 296.837L529.409 279.548C529.508 279.452 529.64 279.398 529.778 279.398C529.916 279.398 530.048 279.452 530.147 279.548C530.196 279.596 530.235 279.653 530.262 279.716C530.288 279.78 530.302 279.848 530.302 279.917C530.302 279.985 530.288 280.053 530.262 280.117C530.235 280.18 530.196 280.237 530.147 280.285L512.218 297.574C512.172 297.625 512.116 297.666 512.054 297.695C511.992 297.724 511.925 297.739 511.856 297.741Z" fill="#263238"/>
<path d="M505.444 256.515C505.071 257.255 504.485 257.867 503.762 258.273C503.039 258.679 502.212 258.861 501.386 258.795C500.559 258.728 499.771 258.418 499.122 257.902C498.473 257.386 497.992 256.688 497.741 255.898C497.491 255.108 497.481 254.261 497.713 253.465C497.946 252.669 498.41 251.96 499.047 251.43C499.684 250.899 500.465 250.57 501.289 250.485C502.114 250.399 502.946 250.562 503.678 250.951C504.641 251.463 505.365 252.332 505.696 253.372C506.026 254.412 505.936 255.54 505.444 256.515Z" fill="#6F95C9"/>
<path d="M536.322 250.52C536.053 251.037 535.636 251.462 535.124 251.743C534.613 252.023 534.03 252.145 533.449 252.094C532.868 252.043 532.315 251.82 531.861 251.455C531.406 251.09 531.07 250.598 530.895 250.042C530.72 249.485 530.714 248.89 530.877 248.33C531.041 247.77 531.366 247.271 531.813 246.897C532.26 246.522 532.808 246.288 533.388 246.225C533.968 246.162 534.553 246.272 535.07 246.542C535.414 246.721 535.719 246.966 535.967 247.262C536.216 247.559 536.404 247.902 536.52 248.271C536.637 248.641 536.679 249.029 536.645 249.415C536.611 249.801 536.501 250.176 536.322 250.52Z" fill="#263238"/>
<path d="M367.688 191.531C367.71 190.585 368.012 189.667 368.556 188.893C369.1 188.119 369.862 187.523 370.744 187.181C371.627 186.84 372.59 186.768 373.514 186.974C374.437 187.18 375.279 187.655 375.932 188.34C376.586 189.024 377.022 189.887 377.185 190.819C377.348 191.751 377.231 192.711 376.848 193.576C376.466 194.442 375.836 195.175 375.037 195.682C374.239 196.19 373.307 196.449 372.361 196.427C371.732 196.414 371.112 196.278 370.536 196.024C369.961 195.771 369.44 195.406 369.006 194.951C368.572 194.496 368.232 193.96 368.005 193.373C367.779 192.786 367.671 192.16 367.688 191.531Z" fill="white"/>
<path d="M372.473 197.178H372.334C370.889 197.145 369.515 196.541 368.515 195.499C367.514 194.456 366.966 193.06 366.992 191.614C367.025 190.168 367.629 188.794 368.671 187.791C369.713 186.787 371.11 186.237 372.556 186.259C373.964 186.346 375.285 186.971 376.245 188.005C377.205 189.039 377.731 190.402 377.713 191.813C377.695 193.224 377.135 194.573 376.149 195.583C375.163 196.592 373.827 197.183 372.417 197.234L372.473 197.178ZM372.473 187.595C371.405 187.594 370.379 188.012 369.615 188.758C368.851 189.504 368.409 190.519 368.383 191.587C368.361 192.669 368.769 193.716 369.517 194.498C370.265 195.28 371.293 195.734 372.375 195.759C372.913 195.781 373.45 195.692 373.952 195.498C374.454 195.304 374.912 195.01 375.296 194.633C375.886 194.071 376.295 193.347 376.471 192.552C376.646 191.756 376.581 190.927 376.282 190.169C375.983 189.412 375.465 188.761 374.793 188.3C374.122 187.838 373.329 187.588 372.514 187.581L372.473 187.595Z" fill="#6F95C9"/>
<path d="M354.794 191.614C354.665 191.616 354.54 191.57 354.443 191.485C354.346 191.4 354.283 191.283 354.266 191.155L352.666 176.69C352.652 176.621 352.652 176.55 352.666 176.481L358.23 157.148C358.277 157.027 358.367 156.929 358.483 156.873C358.599 156.816 358.732 156.805 358.856 156.842C358.99 156.88 359.104 156.971 359.172 157.094C359.24 157.216 359.256 157.361 359.217 157.495L353.737 176.732L355.337 191.086C355.349 191.223 355.308 191.36 355.223 191.469C355.138 191.577 355.014 191.649 354.878 191.67L354.794 191.614Z" fill="#263238"/>
<path d="M372.473 192.171C372.357 192.168 372.245 192.129 372.153 192.06L352.861 177.024C352.753 176.936 352.684 176.81 352.668 176.672C352.652 176.534 352.692 176.396 352.777 176.287C352.819 176.234 352.871 176.189 352.93 176.156C352.99 176.124 353.055 176.103 353.122 176.095C353.189 176.087 353.257 176.093 353.322 176.111C353.387 176.13 353.448 176.161 353.501 176.203L372.765 191.239C372.871 191.324 372.94 191.446 372.958 191.581C372.976 191.716 372.942 191.852 372.862 191.962C372.816 192.023 372.757 192.073 372.69 192.109C372.623 192.145 372.549 192.166 372.473 192.171Z" fill="#263238"/>
<path d="M354.516 157.175C354.536 156.35 354.799 155.55 355.274 154.875C355.748 154.199 356.412 153.68 357.182 153.382C357.951 153.084 358.792 153.022 359.597 153.201C360.403 153.381 361.136 153.796 361.706 154.393C362.276 154.99 362.656 155.742 362.798 156.555C362.94 157.368 362.838 158.205 362.505 158.96C362.171 159.714 361.622 160.354 360.925 160.796C360.229 161.238 359.416 161.464 358.591 161.445C358.043 161.433 357.503 161.312 357.002 161.091C356.5 160.869 356.047 160.551 355.669 160.155C355.291 159.758 354.994 159.291 354.796 158.78C354.598 158.269 354.503 157.723 354.516 157.175Z" fill="#6F95C9"/>
<path d="M351.901 191.003C351.912 190.416 352.098 189.845 352.434 189.364C352.77 188.882 353.241 188.512 353.788 188.299C354.335 188.086 354.933 188.04 355.506 188.167C356.079 188.295 356.602 188.59 357.007 189.014C357.412 189.439 357.682 189.975 357.782 190.553C357.883 191.132 357.809 191.727 357.57 192.263C357.332 192.8 356.939 193.253 356.442 193.566C355.946 193.879 355.367 194.037 354.78 194.021C353.999 193.999 353.259 193.67 352.719 193.104C352.18 192.539 351.886 191.784 351.901 191.003Z" fill="#263238"/>
<path d="M491.924 172.253L502.384 195.898C502.524 196.219 502.599 196.564 502.605 196.913C502.61 197.263 502.547 197.61 502.417 197.934C502.288 198.259 502.095 198.555 501.851 198.805C501.607 199.054 501.315 199.253 500.993 199.39C500.345 199.665 499.615 199.673 498.961 199.412C498.308 199.152 497.783 198.644 497.502 197.999L487.028 174.353C486.753 173.705 486.745 172.975 487.006 172.322C487.266 171.668 487.774 171.143 488.419 170.862C489.069 170.583 489.802 170.572 490.459 170.833C491.116 171.094 491.643 171.604 491.924 172.253Z" fill="#6F95C9"/>
<path d="M423.603 308.674L459.335 306.17C459.761 306.143 460.18 306.287 460.501 306.568C460.821 306.85 461.018 307.247 461.046 307.672C461.073 308.096 460.932 308.513 460.653 308.833C460.375 309.154 459.981 309.351 459.558 309.383L423.825 311.887C423.614 311.902 423.402 311.875 423.201 311.807C423 311.74 422.815 311.633 422.656 311.493C422.497 311.354 422.367 311.184 422.274 310.993C422.181 310.803 422.127 310.596 422.114 310.385C422.099 310.175 422.126 309.963 422.193 309.764C422.259 309.564 422.365 309.379 422.503 309.22C422.641 309.061 422.81 308.931 422.998 308.837C423.187 308.743 423.392 308.688 423.603 308.674Z" fill="#263238"/>
<path d="M361.777 112.597L396.257 122.333C396.461 122.391 396.65 122.488 396.816 122.619C396.981 122.751 397.119 122.914 397.221 123.099C397.323 123.284 397.388 123.487 397.411 123.697C397.434 123.907 397.416 124.119 397.356 124.322C397.239 124.73 396.967 125.076 396.597 125.284C396.227 125.492 395.79 125.546 395.381 125.435L360.9 115.698C360.697 115.641 360.507 115.544 360.342 115.412C360.176 115.281 360.038 115.118 359.936 114.933C359.834 114.748 359.77 114.545 359.746 114.335C359.723 114.125 359.742 113.912 359.801 113.709C359.918 113.302 360.191 112.956 360.561 112.748C360.93 112.54 361.367 112.485 361.777 112.597Z" fill="#263238"/>
<path d="M336.059 92.8598L317.977 104.404C317.487 104.713 316.896 104.816 316.33 104.691C315.765 104.566 315.272 104.223 314.958 103.737C314.646 103.246 314.54 102.651 314.665 102.083C314.79 101.514 315.136 101.018 315.626 100.705L333.708 89.1599C334.201 88.8519 334.796 88.7507 335.364 88.8783C335.932 89.0059 336.426 89.3519 336.74 89.8415C336.894 90.0842 336.999 90.355 337.048 90.6383C337.097 90.9216 337.09 91.2117 337.026 91.4922C336.963 91.7726 336.845 92.0377 336.679 92.2724C336.513 92.5071 336.302 92.7067 336.059 92.8598Z" fill="#6F95C9"/>
<path d="M429.695 176.509C429.582 176.508 429.473 176.471 429.383 176.404C429.293 176.336 429.227 176.241 429.194 176.134C429.16 175.999 429.181 175.857 429.251 175.737C429.321 175.617 429.436 175.53 429.57 175.494L453.493 169.054C453.623 169.031 453.757 169.057 453.869 169.127C453.98 169.198 454.061 169.307 454.096 169.435C454.131 169.562 454.117 169.697 454.057 169.815C453.997 169.932 453.895 170.023 453.772 170.069L429.792 176.495L429.695 176.509Z" fill="#263238"/>
<path d="M452.047 170.431C451.876 170.127 451.8 169.779 451.826 169.432C451.853 169.084 451.982 168.752 452.197 168.478C452.412 168.203 452.703 167.998 453.034 167.889C453.365 167.78 453.721 167.771 454.057 167.864C454.393 167.957 454.694 168.147 454.923 168.41C455.151 168.674 455.296 168.999 455.34 169.345C455.384 169.691 455.324 170.042 455.169 170.354C455.014 170.666 454.769 170.925 454.467 171.099C454.265 171.217 454.042 171.293 453.809 171.324C453.577 171.354 453.342 171.338 453.116 171.275C452.891 171.213 452.68 171.106 452.496 170.961C452.312 170.816 452.16 170.636 452.047 170.431Z" fill="#6F95C9"/>
<path d="M428.151 176.871C427.921 176.459 427.864 175.974 427.991 175.52C428.119 175.066 428.422 174.682 428.832 174.451C429.034 174.335 429.256 174.26 429.487 174.231C429.717 174.202 429.951 174.219 430.175 174.281C430.399 174.343 430.609 174.449 430.791 174.593C430.974 174.737 431.126 174.915 431.239 175.118C431.376 175.322 431.469 175.551 431.513 175.792C431.557 176.034 431.551 176.281 431.494 176.52C431.438 176.759 431.333 176.983 431.186 177.179C431.039 177.376 430.853 177.539 430.64 177.66C430.427 177.781 430.191 177.857 429.947 177.883C429.703 177.908 429.457 177.883 429.223 177.809C428.99 177.735 428.774 177.613 428.589 177.452C428.405 177.29 428.255 177.093 428.151 176.871Z" fill="#6F95C9"/>
<path d="M469.28 232.48C469.506 231.923 469.554 231.309 469.417 230.724C469.28 230.138 468.965 229.61 468.515 229.211L426.482 195.565C426.291 195.395 426.061 195.276 425.812 195.217C425.563 195.158 425.304 195.162 425.057 195.228C424.811 195.295 424.584 195.421 424.398 195.596C424.212 195.771 424.073 195.99 423.992 196.233L410.598 226.833L383.892 246.903C383.671 247.035 383.487 247.22 383.356 247.442C383.225 247.663 383.151 247.914 383.141 248.171C383.132 248.428 383.186 248.683 383.301 248.914C383.415 249.144 383.585 249.342 383.795 249.491L425.828 283.137C426.316 283.484 426.899 283.67 427.497 283.67C428.096 283.67 428.679 283.484 429.166 283.137L455.941 263.024L469.28 232.48Z" fill="#6F95C9"/>
<path d="M454.592 261.995L409.304 225.748L422.713 195.148C422.791 194.905 422.929 194.687 423.114 194.511C423.298 194.336 423.524 194.209 423.769 194.143C424.015 194.076 424.274 194.072 424.522 194.131C424.769 194.19 424.999 194.31 425.188 194.48L467.236 228.126C467.683 228.527 467.996 229.056 468.13 229.641C468.265 230.227 468.214 230.839 467.987 231.395L454.592 261.995Z" fill="#6F95C9"/>
<path d="M453.549 258.003C453.471 258.003 453.397 257.973 453.34 257.919L412.698 225.4C412.566 225.265 412.476 225.095 412.436 224.91C412.397 224.726 412.41 224.534 412.475 224.357L424.229 197.443C424.251 197.393 424.284 197.349 424.325 197.313C424.366 197.277 424.413 197.25 424.465 197.234C424.518 197.224 424.573 197.225 424.625 197.236C424.678 197.248 424.728 197.271 424.771 197.303L465.4 229.823C465.536 229.955 465.63 230.125 465.669 230.311C465.709 230.497 465.692 230.69 465.622 230.866L453.813 257.794C453.792 257.843 453.76 257.886 453.719 257.92C453.678 257.954 453.629 257.978 453.577 257.989L453.549 258.003ZM413.213 224.871L453.438 257.099L465.052 230.56C465.072 230.483 465.072 230.401 465.052 230.324L424.785 198.11L413.101 224.635C413.075 224.712 413.075 224.795 413.101 224.871H413.213Z" fill="white"/>
<path d="M454.592 261.995L409.304 225.748L382.501 245.86C382.283 245.994 382.102 246.18 381.973 246.401C381.844 246.623 381.771 246.872 381.762 247.128C381.752 247.383 381.806 247.638 381.918 247.868C382.03 248.098 382.197 248.297 382.404 248.447L424.451 282.093C424.938 282.442 425.521 282.63 426.12 282.63C426.719 282.63 427.303 282.442 427.789 282.093L454.592 261.995Z" fill="#6F95C9"/>
<path opacity="0.3" d="M396.41 240.297L407.273 232.146C407.797 231.767 408.428 231.563 409.075 231.563C409.721 231.563 410.352 231.767 410.876 232.146L446.344 260.52C446.565 260.684 446.742 260.898 446.861 261.146C446.98 261.394 447.036 261.666 447.025 261.941C447.014 262.215 446.936 262.483 446.798 262.72C446.66 262.957 446.466 263.157 446.233 263.302L435.384 271.453C434.856 271.829 434.224 272.031 433.576 272.031C432.927 272.031 432.295 271.829 431.767 271.453L396.313 243.078C396.097 242.912 395.924 242.697 395.808 242.451C395.692 242.205 395.637 241.934 395.646 241.662C395.656 241.39 395.73 241.125 395.863 240.887C395.996 240.649 396.183 240.447 396.41 240.297Z" fill="white"/>
<path opacity="0.3" d="M398.358 256.584L403.838 252.412C404.075 252.241 404.359 252.149 404.652 252.149C404.944 252.149 405.228 252.241 405.465 252.412L420.056 264.137C420.159 264.207 420.244 264.301 420.302 264.412C420.361 264.522 420.391 264.645 420.391 264.77C420.391 264.895 420.361 265.018 420.302 265.128C420.244 265.238 420.159 265.333 420.056 265.403L414.492 269.506C414.255 269.677 413.971 269.769 413.679 269.769C413.386 269.769 413.102 269.677 412.865 269.506L398.302 257.85C398.202 257.775 398.121 257.677 398.067 257.565C398.014 257.452 397.989 257.327 397.994 257.202C398 257.077 398.036 256.956 398.099 256.848C398.162 256.74 398.251 256.65 398.358 256.584Z" fill="white"/>
<path opacity="0.4" d="M499.338 98.2426C501.374 91.0021 501.541 83.3638 499.825 76.041C498.109 68.7182 494.565 61.9497 489.525 56.3674C484.484 50.7851 478.111 46.5712 471.001 44.119C463.891 41.6669 456.275 41.0565 448.865 42.345C441.455 43.6334 434.493 46.7785 428.627 51.4868C422.762 56.195 418.186 62.3128 415.325 69.2688C412.465 76.2249 411.414 83.7923 412.27 91.2646C413.127 98.7369 415.863 105.87 420.223 111.999C421.787 114.139 422.856 116.6 423.352 119.204C423.921 122.368 425.365 125.31 427.521 127.695C429.677 130.08 432.459 131.812 435.551 132.696L449.724 136.715C452.819 137.597 456.099 137.591 459.19 136.699C462.282 135.806 465.06 134.062 467.208 131.666C468.972 129.719 471.155 128.197 473.592 127.215C479.79 124.64 485.326 120.696 489.784 115.679C494.243 110.661 497.509 104.701 499.338 98.2426Z" fill="#6F95C9"/>
<path d="M451.56 147.745L428.276 141.124C427.433 140.882 426.721 140.316 426.293 139.55C425.866 138.784 425.759 137.88 425.995 137.035C426.116 136.61 426.321 136.212 426.597 135.867C426.874 135.521 427.216 135.234 427.604 135.021C427.992 134.809 428.419 134.676 428.859 134.63C429.299 134.584 429.744 134.626 430.168 134.754L453.438 141.375C454.281 141.618 454.993 142.184 455.421 142.95C455.848 143.716 455.955 144.619 455.719 145.464C455.599 145.889 455.396 146.286 455.121 146.632C454.846 146.977 454.505 147.265 454.118 147.477C453.731 147.689 453.305 147.822 452.866 147.868C452.427 147.915 451.983 147.873 451.56 147.745Z" fill="#6F95C9"/>
<path d="M446.664 156.355L427.914 151.028C427.071 150.782 426.358 150.213 425.931 149.445C425.504 148.677 425.397 147.771 425.633 146.925C425.876 146.082 426.442 145.369 427.208 144.942C427.974 144.515 428.878 144.407 429.723 144.643L448.472 149.985C449.315 150.227 450.028 150.794 450.455 151.559C450.882 152.325 450.989 153.229 450.753 154.074C450.51 154.917 449.944 155.629 449.178 156.057C448.412 156.484 447.509 156.591 446.664 156.355Z" fill="#6F95C9"/>
<path d="M449.78 137.369H449.654C449.473 137.335 449.312 137.232 449.206 137.081C449.099 136.931 449.056 136.745 449.084 136.562C449.307 135.171 452.937 113.807 459.836 97.6863C457.917 97.3247 455.844 96.8379 453.619 96.2119C451.393 95.586 449.362 94.9045 447.54 94.1951C444.939 111.526 436.761 131.625 436.246 132.918C436.176 133.09 436.041 133.226 435.87 133.298C435.699 133.37 435.507 133.371 435.335 133.301C435.163 133.231 435.027 133.095 434.955 132.924C434.883 132.753 434.882 132.561 434.953 132.39C435.078 132.07 443.59 111.136 446.205 93.6527C432.699 88.089 430.696 80.8006 430.516 77.6432C430.366 75.9001 430.76 74.1533 431.644 72.6437C432.529 71.1341 433.859 69.9359 435.453 69.2143C438.625 67.9069 442.144 68.9639 444.87 71.9961C448.542 76.1689 448.917 84.0136 447.749 92.7764C449.599 93.5136 451.685 94.1673 453.994 94.8767C456.303 95.586 458.445 96.0172 460.42 96.3788C464.037 88.3115 468.501 81.8021 473.801 80.2164C477.737 79.0342 481.284 79.9939 483.287 82.7618C484.252 84.2133 484.746 85.9271 484.701 87.6696C484.656 89.412 484.075 91.0982 483.036 92.4982C481.214 95.0992 475.706 100.19 461.255 97.8671C454.3 114.113 450.517 136.382 450.461 136.729C450.451 136.903 450.374 137.065 450.247 137.184C450.121 137.303 449.953 137.369 449.78 137.369ZM461.839 96.6153C475.678 98.7017 480.602 93.6109 481.896 91.7749C482.784 90.6054 483.287 89.1887 483.334 87.7208C483.382 86.253 482.971 84.8067 482.16 83.5824C480.519 81.3013 477.542 80.5363 474.19 81.5517C469.392 83.0261 465.247 89.0626 461.783 96.657L461.839 96.6153ZM438.138 70.0628C437.384 70.062 436.638 70.2085 435.94 70.4939C434.607 71.1095 433.497 72.1239 432.764 73.397C432.032 74.6701 431.713 76.1392 431.851 77.6015C431.99 79.8548 433.492 86.7676 446.372 92.2617C447.457 84.0136 447.109 76.7113 443.785 72.9559C443.102 72.1011 442.246 71.4011 441.272 70.9023C440.299 70.4035 439.23 70.1174 438.138 70.0628Z" fill="white"/>
<path opacity="0.3" d="M305.897 332.428C338.715 316.13 339.365 250.657 307.35 186.191C275.335 121.724 222.777 82.6763 189.959 98.9745C157.141 115.273 156.49 180.745 188.505 245.212C220.521 309.678 273.079 348.726 305.897 332.428Z" fill="#6F95C9"/>
<path d="M219.375 506.879L229.668 506.712L232.032 482.844L221.739 482.997L219.375 506.879Z" fill="#B55B52"/>
<path d="M150.219 488.088L160.025 491.203L171.082 469.714L161.276 466.598L150.219 488.088Z" fill="#B55B52"/>
<path opacity="0.2" d="M232.032 482.844L230.808 495.154L220.515 495.32L221.739 483.011L232.032 482.844Z" fill="black"/>
<path opacity="0.2" d="M161.262 466.598L171.082 469.714L165.38 480.785L155.56 477.684L161.262 466.598Z" fill="black"/>
<path d="M234.633 492.719L217.205 492.984C217.205 492.984 224.16 425.288 226.343 393.297C226.917 380.535 226.768 367.75 225.898 355.005C224.855 336.339 224.187 328.87 222.783 305.28C221.781 288.45 220.557 277.559 220.557 277.559L256.624 280.522C256.624 280.522 258.014 362.182 253.953 393.325C249.697 425.705 234.633 492.719 234.633 492.719Z" fill="#6F95C9"/>
<path opacity="0.2" d="M230.474 300.175C234.995 316.978 230.613 354.574 226.371 364.797C226.246 361.598 226.079 358.329 225.898 355.061C224.855 336.395 224.173 328.926 222.769 305.336C222.769 304.863 222.769 304.404 222.769 303.945C225.101 302.254 227.708 300.979 230.474 300.175Z" fill="black"/>
<path d="M237.165 278.922C237.165 278.922 220.474 362.822 212.128 391.795C203.004 423.535 170.637 479.965 170.637 479.965L152.667 474.276C152.667 474.276 173.363 426.498 181 395.23C189.707 359.595 201.752 276.015 201.752 276.015L237.165 278.922Z" fill="#6F95C9"/>
<path d="M162.111 490.522L150.761 485.181C150.575 485.093 150.365 485.072 150.165 485.12C149.966 485.168 149.788 485.283 149.662 485.445L143.946 492.859C143.806 493.04 143.709 493.251 143.663 493.476C143.616 493.7 143.621 493.933 143.678 494.155C143.734 494.377 143.84 494.584 143.987 494.759C144.135 494.934 144.32 495.074 144.53 495.167C148.216 496.809 150.97 497.852 155.574 500.008C158.355 501.399 164.976 504.709 168.885 506.545C172.793 508.381 175.06 504.848 173.683 503.652C167.549 498.339 164.684 494.945 163.363 491.802C163.119 491.235 162.672 490.778 162.111 490.522Z" fill="#263238"/>
<path d="M229.584 505.516L218.345 505.697C218.14 505.699 217.943 505.773 217.786 505.905C217.628 506.037 217.522 506.219 217.483 506.42L215.591 515.586C215.543 515.808 215.545 516.037 215.598 516.258C215.652 516.478 215.755 516.683 215.9 516.858C216.045 517.032 216.228 517.171 216.435 517.264C216.642 517.357 216.867 517.402 217.094 517.394C221.155 517.269 226.997 516.935 232.102 516.852C238.055 516.768 238.736 517.005 245.719 516.852C249.891 516.852 251.046 512.498 249.279 512.137C241.198 510.509 239.098 510.426 232.074 506.239C231.324 505.778 230.464 505.528 229.584 505.516Z" fill="#263238"/>
<path d="M211.057 185.258C223.986 184.311 236.98 184.778 249.808 186.649C253.627 187.257 257.125 189.145 259.729 192.004C262.332 194.862 263.886 198.522 264.134 202.38C265.011 215.942 264.705 242.592 258.32 292.581C250.392 296.058 215.786 292.706 198.789 287.365C199.707 281.648 205.09 235.526 201.14 196.956C201.005 195.533 201.156 194.098 201.584 192.734C202.012 191.37 202.708 190.106 203.633 189.016C204.557 187.926 205.69 187.032 206.965 186.387C208.24 185.741 209.631 185.357 211.057 185.258Z" fill="#263238"/>
<path d="M213.909 203.73L211.794 208.055C211.099 209.539 210.417 211.041 209.75 212.562C208.359 215.58 207.177 218.626 205.994 221.686C204.812 224.746 203.797 227.834 202.865 230.908C201.982 233.947 201.258 237.03 200.695 240.144L199.304 235.401C200.492 236.959 202.084 238.161 203.908 238.878C206.246 239.809 208.705 240.399 211.21 240.63C213.982 240.925 216.772 241.004 219.556 240.867C222.433 240.757 225.302 240.497 228.152 240.088H228.36C229.192 239.973 230.037 240.165 230.739 240.627C231.44 241.089 231.95 241.79 232.172 242.6C232.395 243.41 232.316 244.273 231.95 245.029C231.584 245.785 230.956 246.382 230.182 246.709C228.555 247.404 227.094 247.919 225.523 248.42C223.951 248.92 222.407 249.365 220.808 249.727C217.549 250.506 214.224 250.972 210.876 251.118C207.247 251.298 203.612 250.894 200.111 249.922C196.044 248.81 192.383 246.55 189.568 243.412C189.047 242.814 188.655 242.115 188.416 241.359C188.176 240.603 188.095 239.806 188.177 239.017V238.669C188.534 234.925 189.133 231.208 189.971 227.542C190.819 223.967 191.807 220.448 192.975 217.027C194.144 213.605 195.437 210.225 196.87 206.929C197.593 205.273 198.33 203.646 199.109 202.019C199.888 200.391 200.667 198.82 201.627 197.095C202.523 195.553 203.976 194.415 205.688 193.914C207.399 193.413 209.237 193.589 210.822 194.405C212.408 195.221 213.619 196.615 214.206 198.298C214.794 199.982 214.712 201.826 213.978 203.451L213.909 203.73Z" fill="#B55B52"/>
<path d="M224.758 240.783L230.321 234.538L239.432 242.884C239.432 242.884 233.242 249.755 226.677 246.152L224.758 240.783Z" fill="#B55B52"/>
<path d="M239.404 232.132L243.062 235.957C243.361 236.271 243.589 236.646 243.731 237.056C243.874 237.465 243.927 237.901 243.887 238.333C243.848 238.764 243.716 239.183 243.502 239.56C243.288 239.937 242.996 240.264 242.645 240.519L239.404 242.87L230.293 234.524L235.746 231.548C236.336 231.232 237.013 231.118 237.673 231.223C238.334 231.329 238.942 231.648 239.404 232.132Z" fill="#B55B52"/>
<path d="M206.106 186.872C197.76 191.99 189.415 219.155 189.415 219.155L211.391 227.222C215.461 220.773 218.514 213.736 220.446 206.358C223.77 193.771 215.327 181.238 206.106 186.872Z" fill="#263238"/>
<path d="M253.411 187.289C253.23 187.289 253.661 187.289 253.87 187.289L254.718 187.358C255.33 187.358 255.942 187.442 256.596 187.442C257.889 187.442 259.238 187.442 260.588 187.442C263.369 187.358 266.151 187.052 268.933 186.719C270.324 186.538 271.715 186.329 273.106 186.065C274.497 185.8 275.888 185.55 277.362 185.286L281.646 184.34L285.916 183.283L280.77 189.542C281.206 187.031 281.384 184.481 281.298 181.934C281.199 179.165 280.925 176.406 280.478 173.672C280.033 170.89 279.453 168.052 278.739 165.159C278.058 162.378 277.195 159.401 276.402 156.717L276.319 156.466C276.049 155.523 276.12 154.516 276.52 153.621C276.919 152.725 277.62 151.999 278.502 151.569C279.383 151.139 280.387 151.033 281.339 151.27C282.29 151.507 283.128 152.071 283.705 152.864C285.6 155.577 287.292 158.427 288.768 161.39C290.257 164.352 291.549 167.41 292.634 170.542C293.762 173.776 294.619 177.097 295.194 180.473C295.813 184.064 295.995 187.716 295.736 191.35C295.629 192.703 295.133 193.996 294.309 195.074C293.485 196.152 292.367 196.97 291.09 197.429L290.59 197.609L285.944 199.278C284.372 199.793 282.801 200.28 281.201 200.669C277.999 201.611 274.749 202.382 271.465 202.978C268.091 203.604 264.681 204.008 261.255 204.188C259.503 204.188 257.75 204.314 255.928 204.188C255.024 204.188 254.092 204.091 253.146 203.994L251.672 203.813C251.116 203.729 250.768 203.688 249.822 203.479C247.728 202.945 245.923 201.619 244.787 199.782C243.65 197.944 243.271 195.737 243.729 193.625C244.186 191.513 245.445 189.661 247.241 188.459C249.036 187.256 251.228 186.797 253.355 187.178L253.411 187.289Z" fill="#B55B52"/>
<path d="M275.025 156.466L270.978 149.679L282.801 146.188C282.801 146.188 285.221 151.64 284.191 155.381C283.978 156.098 283.558 156.736 282.984 157.216C282.41 157.696 281.708 157.996 280.965 158.08L278.85 158.344C278.099 158.435 277.338 158.306 276.659 157.972C275.98 157.639 275.413 157.116 275.025 156.466Z" fill="#B55B52"/>
<path d="M273.871 138.857L277.139 138.482C278.124 138.381 279.112 138.634 279.927 139.194C280.742 139.755 281.332 140.587 281.59 141.542L282.8 146.187L270.978 149.679L270.24 143.433C270.126 142.347 270.443 141.26 271.121 140.404C271.8 139.549 272.787 138.993 273.871 138.857Z" fill="#B55B52"/>
<path d="M240.753 184.799C250.49 185.648 271.659 183.214 271.659 183.214L272.883 209.808C265.683 212.155 257.962 212.396 250.629 210.503C237.944 207.276 230.001 183.867 240.753 184.799Z" fill="#263238"/>
<path d="M224.493 158.747C225.634 166.342 226.482 180.181 220.988 184.966C224.897 189.208 230.558 194.702 239.487 195.44C245.148 192.95 246.581 189.375 244.37 186.023C236.024 183.645 236.567 177.427 238.291 171.655L224.493 158.747Z" fill="#B55B52"/>
<path opacity="0.2" d="M230.127 164.019L238.291 171.641C237.866 173.003 237.559 174.399 237.373 175.814C234.202 175.216 229.96 171.488 229.765 168.122C229.623 166.744 229.746 165.351 230.127 164.019Z" fill="black"/>
<path d="M240.906 133.196C251.31 140.151 242.408 151.278 242.408 151.278C242.408 151.278 237.248 142.154 240.906 133.196Z" fill="white"/>
<path d="M218.999 150.638C221.475 160.542 222.421 166.467 228.43 170.667C237.485 176.996 249.001 170.111 249.544 159.665C250.017 150.263 245.886 135.63 235.343 133.46C233.016 132.964 230.602 133.073 228.33 133.776C226.058 134.479 224.004 135.753 222.364 137.476C220.725 139.199 219.555 141.314 218.966 143.618C218.376 145.923 218.388 148.34 218.999 150.638Z" fill="#B55B52"/>
<path opacity="0.2" d="M235.426 150.207C234.673 150.152 233.917 150.247 233.2 150.485C232.484 150.724 231.822 151.102 231.253 151.598C232.722 151.413 234.14 150.94 235.426 150.207Z" fill="black"/>
<path opacity="0.2" d="M235.69 151.278C235.014 151.371 234.365 151.611 233.791 151.981C233.217 152.351 232.731 152.842 232.366 153.42C233.615 152.953 234.749 152.222 235.69 151.278Z" fill="black"/>
<path opacity="0.2" d="M235.968 157.676C235.742 157.58 235.498 157.537 235.252 157.549C235.007 157.561 234.768 157.629 234.553 157.746C234.337 157.864 234.151 158.029 234.009 158.229C233.866 158.429 233.77 158.658 233.729 158.9C234.358 158.306 235.129 157.885 235.968 157.676Z" fill="black"/>
<path opacity="0.2" d="M241.866 139.622C238.267 139.993 234.709 140.696 231.239 141.723C237.206 140.735 241.866 139.622 241.866 139.622Z" fill="black"/>
<path opacity="0.2" d="M243.646 140.304C243.646 140.304 235.551 141.973 231.99 143.948C235.944 142.963 239.836 141.746 243.646 140.304Z" fill="black"/>
<path d="M221.809 157.551C225.982 157.134 224.118 150.75 222.504 149.303C225.745 147.912 228.471 142.474 226.204 139.567C238.208 140.499 245.065 139.219 245.983 128.439C242.547 129.135 238.931 125.658 234.313 128.898C234.649 128.23 234.844 127.5 234.885 126.753C234.926 126.006 234.812 125.258 234.551 124.557C234.29 123.856 233.887 123.217 233.367 122.678C232.848 122.14 232.223 121.715 231.531 121.429C231.531 121.429 230.78 128.384 225.509 129.427C220.237 130.47 214.66 134.17 214.312 138.065C213.06 134.852 211.767 134.643 211.767 134.643C212.359 135.846 212.667 137.169 212.667 138.51C212.667 139.851 212.359 141.174 211.767 142.376C209.791 146.813 213.157 148.274 213.157 148.274C213.157 148.274 208.846 148.274 211.558 154.088C213.561 158.149 220.877 163.365 221.809 157.551Z" fill="white"/>
<path d="M216.301 159.943C217.612 161.973 219.672 163.403 222.032 163.921C225.161 164.575 226.51 161.724 225.467 158.872C224.521 156.313 221.767 152.892 218.707 153.517C218.041 153.664 217.423 153.975 216.908 154.422C216.393 154.869 215.997 155.438 215.758 156.077C215.519 156.715 215.444 157.404 215.538 158.079C215.633 158.754 215.895 159.395 216.301 159.943Z" fill="#B55B52"/>
<path d="M172.682 481.036L151.526 474.332L153.529 468.017L177.3 473.316L172.682 481.036Z" fill="#6F95C9"/>
<path opacity="0.3" d="M172.682 481.036L151.526 474.332L153.529 468.017L177.3 473.316L172.682 481.036Z" fill="black"/>
<path d="M236.831 493.081L216.064 493.415L215.953 486.697L238.166 485.988L236.831 493.081Z" fill="#6F95C9"/>
<path opacity="0.3" d="M236.831 493.081L216.064 493.415L215.953 486.697L238.166 485.988L236.831 493.081Z" fill="black"/>
<path d="M236.274 150.319C236.4 151.139 236.928 151.709 237.471 151.709C238.013 151.709 238.347 150.903 238.222 150.082C238.097 149.261 237.568 148.691 237.026 148.691C236.483 148.691 236.149 149.498 236.274 150.319Z" fill="#263238"/>
<path d="M245.552 148.941C245.677 149.762 246.206 150.332 246.748 150.332C247.29 150.332 247.624 149.526 247.499 148.705C247.374 147.884 246.845 147.314 246.303 147.314C245.76 147.314 245.427 148.121 245.552 148.941Z" fill="#263238"/>
<path d="M242.673 149.776C244.019 152.144 245.691 154.311 247.638 156.216C247.137 156.7 246.537 157.069 245.879 157.298C245.22 157.526 244.52 157.608 243.827 157.537L242.673 149.776Z" fill="#A02724"/>
<path d="M240.809 160.695C239.886 160.837 238.944 160.787 238.042 160.547C237.139 160.308 236.296 159.885 235.565 159.304C235.541 159.283 235.522 159.257 235.508 159.229C235.494 159.2 235.486 159.169 235.484 159.138C235.482 159.106 235.486 159.074 235.497 159.044C235.507 159.014 235.523 158.987 235.544 158.963C235.565 158.939 235.591 158.92 235.619 158.906C235.648 158.892 235.679 158.884 235.71 158.882C235.742 158.88 235.774 158.884 235.804 158.895C235.834 158.905 235.861 158.921 235.885 158.942C236.714 159.558 237.676 159.969 238.693 160.143C239.711 160.317 240.755 160.249 241.741 159.944C241.771 159.935 241.802 159.933 241.833 159.937C241.865 159.941 241.895 159.951 241.922 159.966C241.949 159.982 241.973 160.002 241.992 160.027C242.011 160.052 242.025 160.08 242.033 160.111C242.043 160.142 242.047 160.174 242.045 160.207C242.042 160.24 242.032 160.271 242.017 160.3C242.001 160.329 241.979 160.354 241.954 160.374C241.928 160.394 241.898 160.409 241.866 160.417C241.521 160.535 241.167 160.628 240.809 160.695Z" fill="#263238"/>
<path d="M231.323 148.163C231.245 148.183 231.164 148.183 231.086 148.163C231.027 148.136 230.974 148.097 230.931 148.05C230.887 148.002 230.854 147.945 230.833 147.884C230.812 147.823 230.804 147.758 230.81 147.693C230.815 147.629 230.833 147.566 230.864 147.509C231.195 146.81 231.689 146.201 232.303 145.731C232.918 145.262 233.636 144.946 234.397 144.81C234.525 144.799 234.654 144.837 234.755 144.917C234.856 144.997 234.922 145.114 234.939 145.242C234.951 145.37 234.913 145.498 234.833 145.6C234.752 145.701 234.636 145.767 234.508 145.784C233.903 145.894 233.334 146.148 232.85 146.526C232.365 146.904 231.98 147.394 231.726 147.954C231.679 148.017 231.618 148.068 231.548 148.104C231.478 148.14 231.401 148.16 231.323 148.163Z" fill="white"/>
<path d="M247.332 144.991C247.252 144.996 247.172 144.98 247.099 144.946C247.026 144.912 246.963 144.861 246.915 144.797C246.567 144.293 246.104 143.878 245.565 143.588C245.026 143.298 244.425 143.14 243.813 143.127C243.684 143.127 243.56 143.076 243.469 142.985C243.378 142.894 243.326 142.77 243.326 142.641C243.326 142.512 243.378 142.388 243.469 142.296C243.56 142.205 243.684 142.154 243.813 142.154C244.586 142.158 245.347 142.347 246.031 142.705C246.716 143.063 247.305 143.58 247.75 144.212C247.788 144.263 247.816 144.322 247.832 144.384C247.848 144.446 247.851 144.51 247.842 144.573C247.833 144.637 247.812 144.697 247.779 144.752C247.746 144.807 247.703 144.856 247.652 144.894C247.559 144.961 247.447 144.995 247.332 144.991Z" fill="white"/>
<path d="M164.434 493.596C163.619 493.188 162.854 492.689 162.153 492.107C162.114 492.08 162.085 492.041 162.07 491.996C162.055 491.951 162.055 491.902 162.069 491.857C162.082 491.81 162.109 491.767 162.146 491.735C162.183 491.703 162.229 491.683 162.278 491.676C162.709 491.676 166.59 491.189 167.369 492.205C167.457 492.318 167.511 492.454 167.526 492.596C167.541 492.739 167.515 492.883 167.452 493.012C167.375 493.239 167.243 493.444 167.069 493.609C166.894 493.773 166.682 493.893 166.451 493.957C165.757 494.066 165.046 493.939 164.434 493.596ZM162.932 492.052C163.843 492.933 165.058 493.431 166.325 493.443C166.483 493.398 166.626 493.315 166.743 493.201C166.859 493.087 166.945 492.945 166.993 492.789C166.993 492.608 166.993 492.525 166.993 492.469C166.576 492.052 164.489 491.968 162.932 492.052Z" fill="#6F95C9"/>
<path d="M162.194 492.149C162.155 492.124 162.122 492.091 162.097 492.052C162.076 492.013 162.066 491.97 162.066 491.927C162.066 491.883 162.076 491.84 162.097 491.801C162.097 491.69 163.641 489.117 165.143 488.728C165.323 488.677 165.512 488.666 165.697 488.695C165.882 488.724 166.058 488.792 166.214 488.894C166.376 488.976 166.506 489.11 166.584 489.273C166.662 489.437 166.683 489.621 166.645 489.799C166.353 490.925 163.53 492.094 162.32 492.163L162.194 492.149ZM165.853 489.256C165.659 489.186 165.448 489.186 165.254 489.256C164.295 489.506 163.265 490.925 162.793 491.662C164.086 491.384 165.992 490.397 166.172 489.729C166.172 489.729 166.172 489.534 165.95 489.353L165.853 489.256Z" fill="#6F95C9"/>
<path d="M230.613 506.921C230.572 506.908 230.536 506.884 230.506 506.852C230.477 506.821 230.456 506.782 230.447 506.74C230.441 506.689 230.449 506.637 230.472 506.59C230.494 506.543 230.528 506.504 230.572 506.476C231.031 506.239 235.148 504.069 236.4 504.751C236.52 504.811 236.622 504.901 236.696 505.014C236.769 505.126 236.811 505.257 236.817 505.391C236.844 505.611 236.817 505.835 236.74 506.043C236.662 506.251 236.536 506.438 236.372 506.587C235.259 507.602 232.31 507.241 230.641 506.935L230.613 506.921ZM236.08 505.14C235.301 504.876 233.075 505.766 231.448 506.531C233.729 506.879 235.426 506.754 236.052 506.184C236.157 506.083 236.237 505.958 236.285 505.82C236.334 505.683 236.349 505.536 236.33 505.391C236.332 505.339 236.319 505.287 236.292 505.242C236.264 505.198 236.225 505.162 236.177 505.14H236.08Z" fill="#6F95C9"/>
<path d="M230.613 506.921H230.544C230.508 506.897 230.479 506.863 230.462 506.824C230.445 506.784 230.439 506.741 230.446 506.698C230.446 506.587 230.683 503.805 231.977 502.72C232.165 502.553 232.386 502.428 232.625 502.351C232.865 502.274 233.117 502.248 233.367 502.275C234.035 502.275 234.244 502.664 234.285 502.943C234.494 504.111 232.074 506.364 230.836 506.948C230.8 506.966 230.76 506.972 230.721 506.967C230.681 506.962 230.644 506.946 230.613 506.921ZM233.534 502.748H233.284C233.106 502.731 232.927 502.751 232.757 502.806C232.587 502.861 232.43 502.95 232.296 503.068C231.54 503.973 231.083 505.091 230.989 506.267C232.241 505.488 233.882 503.708 233.771 503.012C233.757 502.957 233.743 502.845 233.534 502.776V502.748Z" fill="#6F95C9"/>
<path d="M141.386 162.767C139.739 148.013 140.495 133.09 143.626 118.578L145.017 118.898C141.923 133.264 141.176 148.037 142.805 162.642L141.386 162.767ZM148.341 107.659L147.047 107.186C148.33 103.7 149.855 100.307 151.609 97.0325L152.847 97.6862C151.11 100.903 149.595 104.235 148.313 107.659H148.341Z" fill="#6F95C9"/>
<path d="M190.43 72.5524C236.719 63.3028 299.213 116.422 330.036 191.183C360.858 265.945 348.326 334.058 302.065 343.294C255.803 352.529 193.337 299.424 162.459 224.663C131.58 149.901 144.168 81.7324 190.43 72.5524ZM186.786 219.808C214.02 285.891 266.068 333.488 302.871 326.116C339.675 318.744 347.547 259.213 320.313 193.131C293.079 127.048 241.031 79.4374 204.214 86.8093C167.396 94.1811 159.538 153.712 186.786 219.808ZM149.662 183.825C152.555 178.749 169.677 171.989 173.461 175.758L149.662 183.825ZM322.288 314.947C326.642 314.418 330.926 324.906 328.019 328.786L322.288 314.947ZM257.736 105.475C260.657 104.682 263.216 100.663 263.564 98.3121L257.736 105.475Z" fill="white"/>
<path d="M291.327 345.032C246.303 345.032 190.36 294.167 161.819 224.927C141.957 176.774 139.439 128.523 155.226 99.0077C163.112 84.264 175.241 74.8754 190.291 71.871C236.803 62.5797 299.784 115.977 330.676 190.919C350.524 239.087 353.056 287.337 337.255 316.839C334.901 321.301 331.984 325.442 328.575 329.162C321.606 336.777 312.377 341.955 302.245 343.934C298.651 344.661 294.994 345.029 291.327 345.032ZM150.441 183.895C153.433 197.75 157.669 211.306 163.098 224.399C193.699 298.743 256.025 351.778 301.926 342.626C311.764 340.7 320.728 335.675 327.504 328.286C328.895 326.158 328.075 321.762 326.378 318.842C325.209 316.811 323.805 315.642 322.553 315.642C317.42 321.376 310.56 325.282 303.01 326.77C265.887 334.211 213.463 286.308 186.174 220.045C180.275 205.877 175.815 191.152 172.863 176.092C171.972 175.369 170.178 175.16 167.758 175.48C161.346 176.315 152.667 180.599 150.441 183.895ZM187.426 219.544C214.507 285.223 266.235 332.737 302.746 325.434C313.484 323.292 321.857 316.727 327.644 305.962C341.024 280.925 337.964 237.807 319.66 193.451C292.579 127.758 240.864 80.2582 204.353 87.5466C193.601 89.6886 185.214 96.2676 179.428 107.019C166.061 132.028 169.121 175.132 187.426 219.544ZM323.624 314.405C325.36 315.115 326.772 316.443 327.588 318.132C328.966 320.464 329.678 323.129 329.646 325.838C332.101 322.843 334.249 319.609 336.059 316.185C351.665 287.045 349.119 239.24 329.424 191.448C313.748 153.42 289.783 120.97 264.051 99.5641C263.157 102.118 261.414 104.288 259.113 105.712C282.884 124.837 305.834 156.007 321.037 192.867C339.494 237.64 342.526 281.203 328.965 306.56C327.454 309.348 325.664 311.976 323.624 314.405ZM190.555 73.2341C175.923 76.155 164.128 85.2933 156.436 99.6615C145.49 120.122 143.473 149.734 150.066 182.129C153.459 178.512 161.819 174.882 167.522 174.117C169.174 173.811 170.874 173.897 172.487 174.367C167.563 147.106 169.358 122.904 178.19 106.352C184.101 95.3079 193.045 88.2699 204.061 86.114C220.182 82.901 239.195 90.1059 257.778 104.724C260.115 103.904 262.271 100.677 262.785 98.5905C238.486 78.7978 212.629 68.8249 190.555 73.2341Z" fill="#6F95C9"/>
<path d="M253.257 151.626L296.612 147.147L295.583 139.275L252.534 146.062L253.257 151.626Z" fill="#6F95C9"/>
<path opacity="0.2" d="M277.571 142.112L278.475 149.011L296.598 147.147L295.569 139.275L277.571 142.112Z" fill="black"/>
<path d="M280.812 148.608C280.868 148.934 281.039 149.23 281.294 149.442C281.549 149.653 281.871 149.767 282.202 149.762L332.484 145.116C334.487 144.852 332.776 131.764 330.787 132.028L280.978 140.373C280.645 140.444 280.348 140.634 280.146 140.908C279.943 141.183 279.848 141.522 279.88 141.862L280.812 148.608Z" fill="#6F95C9"/>
<path d="M253.411 152.766C253.637 152.739 253.844 152.622 253.985 152.442C254.125 152.262 254.189 152.034 254.162 151.807L253.355 145.659C253.324 145.431 253.204 145.224 253.022 145.084C252.84 144.943 252.61 144.88 252.381 144.908C252.156 144.942 251.953 145.063 251.815 145.245C251.677 145.427 251.616 145.655 251.644 145.881L252.451 152.029C252.464 152.141 252.5 152.249 252.556 152.347C252.612 152.445 252.687 152.53 252.776 152.599C252.865 152.668 252.968 152.718 253.076 152.747C253.185 152.775 253.299 152.782 253.411 152.766Z" fill="#6F95C9"/>
<path d="M434.813 362.989C434.904 362.629 435.133 362.32 435.452 362.13C435.77 361.939 436.151 361.883 436.51 361.974C436.87 362.064 437.179 362.293 437.369 362.612C437.56 362.93 437.616 363.311 437.526 363.67C437.739 368.017 436.779 372.342 434.744 376.189C430.349 383.741 421.21 386.426 421.21 386.426L434.813 362.989Z" fill="#6F95C9"/>
<path d="M423.547 402.769C415.814 402.878 408.26 400.434 402.057 395.815C397.007 391.585 392.963 386.282 390.221 380.292C390.103 380.148 390.015 379.982 389.961 379.803C389.907 379.625 389.889 379.438 389.908 379.252C389.927 379.067 389.982 378.887 390.07 378.723C390.158 378.559 390.278 378.414 390.422 378.296C390.567 378.178 390.733 378.09 390.911 378.036C391.09 377.983 391.277 377.965 391.462 377.984C391.648 378.002 391.827 378.057 391.991 378.146C392.155 378.234 392.301 378.353 392.418 378.498L423.547 402.769Z" fill="#6F95C9"/>
<path d="M449.835 420.281C441.782 432.131 426.468 435.456 426.468 435.456L453.257 396.079C453.386 395.759 453.63 395.498 453.94 395.347C454.251 395.197 454.607 395.167 454.938 395.264C455.27 395.361 455.553 395.578 455.733 395.873C455.914 396.167 455.978 396.518 455.914 396.858C456.011 402.324 455.302 412.227 449.835 420.281Z" fill="#6F95C9"/>
<path d="M426.134 483.943H426.051C425.969 483.933 425.889 483.906 425.818 483.864C425.747 483.823 425.684 483.767 425.635 483.701C425.585 483.635 425.55 483.559 425.531 483.479C425.511 483.398 425.508 483.315 425.522 483.233C429.695 453.69 422.059 374.881 413.101 355.464C413.067 355.389 413.047 355.308 413.044 355.226C413.04 355.143 413.053 355.061 413.081 354.983C413.11 354.906 413.153 354.835 413.209 354.774C413.265 354.713 413.332 354.664 413.407 354.63C413.482 354.595 413.563 354.575 413.646 354.572C413.728 354.568 413.81 354.581 413.888 354.61C413.965 354.638 414.037 354.682 414.097 354.737C414.158 354.793 414.207 354.861 414.242 354.936C423.269 374.408 430.933 453.69 426.76 483.414C426.737 483.563 426.66 483.698 426.546 483.795C426.431 483.892 426.285 483.945 426.134 483.943Z" fill="#263238"/>
<path d="M408.678 448.934H443.59C444.026 448.932 444.458 449.021 444.857 449.195C445.257 449.37 445.616 449.625 445.912 449.946C446.207 450.266 446.433 450.645 446.575 451.057C446.716 451.47 446.77 451.907 446.734 452.341L441.796 514.724C441.733 515.513 441.374 516.25 440.791 516.786C440.208 517.323 439.444 517.619 438.652 517.617H413.616C412.824 517.619 412.06 517.323 411.477 516.786C410.894 516.25 410.536 515.513 410.472 514.724L405.521 452.341C405.486 451.906 405.542 451.469 405.685 451.056C405.828 450.644 406.055 450.265 406.352 449.945C406.649 449.625 407.009 449.37 407.409 449.196C407.81 449.021 408.242 448.932 408.678 448.934Z" fill="#6F95C9"/>
<path d="M408.483 358.677C409.174 359.705 410.154 360.505 411.299 360.976C412.445 361.447 413.704 361.568 414.918 361.323C416.132 361.078 417.246 360.478 418.119 359.6C418.992 358.722 419.585 357.604 419.822 356.389C420.06 355.173 419.932 353.915 419.454 352.772C418.976 351.63 418.17 350.655 417.137 349.97C416.105 349.286 414.893 348.924 413.655 348.929C412.416 348.933 411.207 349.306 410.18 349.998C408.806 350.925 407.855 352.359 407.537 353.987C407.218 355.614 407.559 357.301 408.483 358.677Z" fill="white"/>
<path d="M413.685 362.28C411.985 362.283 410.34 361.675 409.05 360.567C407.76 359.459 406.912 357.924 406.658 356.243C406.405 354.561 406.764 352.845 407.67 351.406C408.576 349.967 409.969 348.901 411.595 348.403C413.221 347.905 414.972 348.008 416.528 348.692C418.085 349.377 419.344 350.598 420.076 352.132C420.808 353.667 420.964 355.414 420.516 357.054C420.068 358.695 419.046 360.12 417.636 361.069C416.468 361.856 415.093 362.277 413.685 362.28ZM413.685 349.761C412.479 349.765 411.309 350.171 410.36 350.916C409.411 351.661 408.739 352.702 408.449 353.873C408.159 355.043 408.269 356.278 408.761 357.379C409.253 358.48 410.099 359.385 411.164 359.951C412.23 360.517 413.454 360.71 414.641 360.5C415.829 360.291 416.913 359.69 417.72 358.794C418.528 357.898 419.013 356.758 419.098 355.555C419.184 354.352 418.865 353.155 418.192 352.154C417.69 351.415 417.013 350.812 416.222 350.398C415.431 349.983 414.551 349.769 413.658 349.775L413.685 349.761Z" fill="#6F95C9"/>
<path d="M414.117 376.439C414.168 376.959 414.373 377.451 414.705 377.855C415.036 378.258 415.48 378.554 415.98 378.706C416.479 378.857 417.013 378.857 417.513 378.706C418.012 378.554 418.456 378.258 418.788 377.855C419.119 377.452 419.324 376.959 419.376 376.439C419.428 375.92 419.325 375.396 419.079 374.935C418.834 374.474 418.458 374.096 417.998 373.849C417.538 373.602 417.015 373.496 416.495 373.546C416.149 373.579 415.812 373.68 415.505 373.844C415.198 374.007 414.926 374.23 414.705 374.498C414.484 374.767 414.318 375.077 414.217 375.41C414.116 375.743 414.082 376.093 414.117 376.439Z" fill="#263238"/>
<path d="M420.932 430.114C420.932 430.637 421.087 431.148 421.377 431.583C421.668 432.017 422.081 432.356 422.564 432.556C423.046 432.756 423.578 432.808 424.09 432.706C424.603 432.604 425.074 432.353 425.444 431.983C425.813 431.614 426.065 431.143 426.167 430.63C426.269 430.117 426.216 429.586 426.016 429.103C425.816 428.62 425.478 428.207 425.043 427.917C424.608 427.627 424.098 427.472 423.575 427.472C422.874 427.472 422.202 427.75 421.706 428.246C421.211 428.741 420.932 429.414 420.932 430.114Z" fill="#263238"/>
<path d="M428.707 412.978C429.474 412.867 430.19 412.53 430.766 412.012C431.342 411.493 431.751 410.816 431.942 410.065C432.133 409.314 432.098 408.523 431.84 407.793C431.583 407.062 431.114 406.424 430.494 405.959C429.875 405.494 429.131 405.224 428.357 405.181C427.584 405.138 426.815 405.325 426.148 405.719C425.48 406.113 424.945 406.695 424.608 407.393C424.272 408.091 424.149 408.873 424.256 409.64C424.405 410.673 424.956 411.605 425.791 412.23C426.626 412.856 427.675 413.125 428.707 412.978Z" fill="#263238"/>
</svg>
