<svg width="676" height="511" viewBox="0 0 676 511" fill="none" xmlns="http://www.w3.org/2000/svg">
<path d="M600.869 375.289H356.703C354.604 375.285 352.592 374.45 351.108 372.966C349.624 371.482 348.789 369.47 348.785 367.371V11.641C348.792 9.54455 349.629 7.53619 351.113 6.05502C352.597 4.57385 354.606 3.74038 356.703 3.73682H600.869C602.965 3.74038 604.975 4.57385 606.459 6.05502C607.942 7.53619 608.779 9.54455 608.786 11.641V367.371C608.783 369.47 607.948 371.482 606.463 372.966C604.979 374.45 602.968 375.285 600.869 375.289ZM356.703 4.0746C355.704 4.06748 354.714 4.25783 353.789 4.63472C352.864 5.01161 352.022 5.56761 351.313 6.27075C350.603 6.97389 350.04 7.8103 349.655 8.73192C349.27 9.65354 349.071 10.6422 349.069 11.641V367.371C349.069 369.381 349.867 371.309 351.289 372.731C352.711 374.152 354.638 374.951 356.649 374.951H600.869C602.879 374.951 604.807 374.152 606.229 372.731C607.65 371.309 608.449 369.381 608.449 367.371V11.641C608.449 9.6307 607.65 7.70272 606.229 6.28121C604.807 4.85969 602.879 4.06109 600.869 4.06109L356.703 4.0746Z" fill="#F0F0F0"/>
<path d="M319.249 375.289H75.0293C72.9305 375.285 70.9187 374.45 69.4346 372.966C67.9505 371.482 67.1151 369.47 67.1116 367.371V11.6411C67.1151 9.5423 67.9505 7.53047 69.4346 6.04638C70.9187 4.5623 72.9305 3.72696 75.0293 3.72339H319.249C321.348 3.72696 323.36 4.5623 324.844 6.04638C326.328 7.53047 327.163 9.5423 327.167 11.6411V367.371C327.163 369.47 326.328 371.482 324.844 372.966C323.36 374.45 321.348 375.285 319.249 375.289ZM75.0293 4.07469C73.0213 4.07469 71.0954 4.87143 69.6742 6.29002C68.2531 7.70862 67.4529 9.63313 67.4494 11.6411V367.371C67.4494 369.381 68.248 371.309 69.6695 372.731C71.091 374.152 73.019 374.951 75.0293 374.951H319.249C321.259 374.951 323.188 374.152 324.609 372.731C326.031 371.309 326.829 369.381 326.829 367.371V11.6411C326.829 9.63079 326.031 7.70281 324.609 6.28129C323.188 4.85978 321.259 4.06118 319.249 4.06118L75.0293 4.07469Z" fill="#F0F0F0"/>
<path d="M675.574 457.803H0V458.141H675.574V457.803Z" fill="#E0E0E0"/>
<path d="M643.943 457.803C624.23 440.049 505.248 336.322 430.746 350.13C357.284 363.736 278.066 442.522 263.204 457.803H643.943Z" fill="#E6E6E6"/>
<path d="M442.825 457.803C422.558 430.672 320.56 286.91 243.355 295.423C178.689 302.543 74.0834 429.618 51.6409 457.803H442.825Z" fill="#F5F5F5"/>
<path d="M82.8389 35.9618C82.8389 35.9618 89.5946 25.4229 104.849 27.6117C117.442 29.4088 121.225 11.8303 134.574 11.7493C148.37 11.7493 145.221 24.0312 162.219 25.6391C174.176 26.7605 183.594 13.9516 191.944 35.9618H82.8389Z" fill="#F0F0F0"/>
<path d="M487.318 68.0784C487.318 68.0784 494.074 57.5395 509.329 59.7148C521.921 61.5119 525.718 43.9334 539.054 43.8659C552.849 43.7848 549.701 56.1478 566.698 57.7422C578.656 58.8771 588.073 46.0547 596.424 68.0784H487.318Z" fill="#F0F0F0"/>
<path d="M313.389 53.1694C316.566 39.8195 308.32 26.4211 294.971 23.2431C281.621 20.0652 268.222 28.3112 265.044 41.6611C261.866 55.011 270.112 68.4095 283.462 71.5874C296.812 74.7653 310.211 66.5193 313.389 53.1694Z" fill="#F0F0F0"/>
<path d="M115.618 229.851C114.645 226.636 111.051 217.083 101.201 215.056C92.1482 213.192 83.6359 219.704 78.461 222.92C73.2862 226.136 68.7463 225.393 59.545 223.001C53.3162 221.393 46.8712 226.676 45.1958 229.851H115.618Z" fill="#F0F0F0"/>
<path d="M254.921 132.163C254.919 132.261 254.885 132.355 254.823 132.431C254.76 132.507 254.675 132.559 254.579 132.579C254.483 132.6 254.383 132.587 254.296 132.543C254.208 132.5 254.138 132.428 254.097 132.339C253.767 131.496 253.204 130.765 252.475 130.229C251.745 129.693 250.879 129.375 249.976 129.312C249.304 129.35 248.635 129.21 248.034 128.907C247.434 128.603 246.925 128.146 246.557 127.583V142.446C241.828 146.404 233.559 143.797 235.924 139.365C238.288 134.933 244.504 139.365 244.504 139.365V121.57H246.557C246.557 121.57 248.598 125.989 252.286 126.34C254.732 126.57 255.002 129.934 254.921 132.163Z" fill="#E0E0E0"/>
<path d="M452.634 78.9418L440.69 72.7266V75.5775V88.0215C440.69 88.0215 436.353 84.8869 434.705 88.0215C433.056 91.1562 438.826 92.9397 442.136 90.1699V78.4689L451.202 82.8602V91.3589C451.202 91.3589 446.865 88.2107 445.217 91.3589C443.568 94.5071 449.338 96.2635 452.634 93.4937V78.9013V78.9418ZM450.635 80.8335L442.771 77.0908V75.5775L450.635 79.4553V80.8335Z" fill="#E0E0E0"/>
<path d="M618.826 501.54C618.826 506.688 489.115 510.863 328.991 510.863C168.866 510.863 39.1833 506.688 39.1833 501.54C39.1833 496.392 168.893 492.204 329.018 492.204C489.142 492.204 618.826 496.379 618.826 501.54Z" fill="#F5F5F5"/>
<path d="M119.469 82.198C115.793 83.1438 114.821 84.495 114.064 89.3996C114.049 89.4693 114.011 89.5318 113.956 89.5766C113.9 89.6215 113.831 89.6459 113.76 89.6459C113.689 89.6459 113.62 89.6215 113.564 89.5766C113.509 89.5318 113.471 89.4693 113.456 89.3996C112.74 84.495 111.767 83.1438 108.051 82.198C107.948 82.1729 107.857 82.1139 107.792 82.0306C107.726 81.9474 107.691 81.8445 107.691 81.7386C107.691 81.6327 107.726 81.5299 107.792 81.4466C107.857 81.3633 107.948 81.3044 108.051 81.2792C111.74 80.3334 112.713 78.9823 113.456 74.0776C113.471 74.0079 113.509 73.9455 113.564 73.9006C113.62 73.8558 113.689 73.8313 113.76 73.8313C113.831 73.8313 113.9 73.8558 113.956 73.9006C114.011 73.9455 114.049 74.0079 114.064 74.0776C114.78 78.9823 115.753 80.3334 119.469 81.2792C119.571 81.3044 119.663 81.3633 119.728 81.4466C119.794 81.5299 119.829 81.6327 119.829 81.7386C119.829 81.8445 119.794 81.9474 119.728 82.0306C119.663 82.1139 119.571 82.1729 119.469 82.198Z" fill="#6F95C9"/>
<g opacity="0.6">
<path d="M119.469 82.198C115.793 83.1438 114.821 84.495 114.064 89.3996C114.049 89.4693 114.011 89.5318 113.956 89.5766C113.9 89.6215 113.831 89.6459 113.76 89.6459C113.689 89.6459 113.62 89.6215 113.564 89.5766C113.509 89.5318 113.471 89.4693 113.456 89.3996C112.74 84.495 111.767 83.1438 108.051 82.198C107.948 82.1729 107.857 82.1139 107.792 82.0306C107.726 81.9474 107.691 81.8445 107.691 81.7386C107.691 81.6327 107.726 81.5299 107.792 81.4466C107.857 81.3633 107.948 81.3044 108.051 81.2792C111.74 80.3334 112.713 78.9823 113.456 74.0776C113.471 74.0079 113.509 73.9455 113.564 73.9006C113.62 73.8558 113.689 73.8313 113.76 73.8313C113.831 73.8313 113.9 73.8558 113.956 73.9006C114.011 73.9455 114.049 74.0079 114.064 74.0776C114.78 78.9823 115.753 80.3334 119.469 81.2792C119.571 81.3044 119.663 81.3633 119.728 81.4466C119.794 81.5299 119.829 81.6327 119.829 81.7386C119.829 81.8445 119.794 81.9474 119.728 82.0306C119.663 82.1139 119.571 82.1729 119.469 82.198Z" fill="white"/>
</g>
<path d="M76.4615 116.328C72.7728 117.274 71.8 118.625 71.0569 123.529C71.0421 123.599 71.0038 123.662 70.9485 123.707C70.8932 123.751 70.8241 123.776 70.7529 123.776C70.6816 123.776 70.6126 123.751 70.5572 123.707C70.5019 123.662 70.4636 123.599 70.4488 123.529C69.7327 118.625 68.7599 117.274 65.0443 116.328C64.9414 116.303 64.8499 116.244 64.7845 116.161C64.7191 116.077 64.6836 115.974 64.6836 115.868C64.6836 115.763 64.7191 115.66 64.7845 115.576C64.8499 115.493 64.9414 115.434 65.0443 115.409C68.7194 114.463 69.6922 113.112 70.4488 108.207C70.4636 108.138 70.5019 108.075 70.5572 108.03C70.6126 107.986 70.6816 107.961 70.7529 107.961C70.8241 107.961 70.8932 107.986 70.9485 108.03C71.0038 108.075 71.0421 108.138 71.0569 108.207C71.773 113.112 72.7458 114.463 76.4615 115.409C76.5643 115.434 76.6558 115.493 76.7212 115.576C76.7866 115.66 76.8221 115.763 76.8221 115.868C76.8221 115.974 76.7866 116.077 76.7212 116.161C76.6558 116.244 76.5643 116.303 76.4615 116.328Z" fill="#6F95C9"/>
<g opacity="0.6">
<path d="M76.4615 116.328C72.7728 117.274 71.8 118.625 71.0569 123.529C71.0421 123.599 71.0038 123.662 70.9485 123.707C70.8932 123.751 70.8241 123.776 70.7529 123.776C70.6816 123.776 70.6126 123.751 70.5572 123.707C70.5019 123.662 70.4636 123.599 70.4488 123.529C69.7327 118.625 68.7599 117.274 65.0443 116.328C64.9414 116.303 64.8499 116.244 64.7845 116.161C64.7191 116.077 64.6836 115.974 64.6836 115.868C64.6836 115.763 64.7191 115.66 64.7845 115.576C64.8499 115.493 64.9414 115.434 65.0443 115.409C68.7194 114.463 69.6922 113.112 70.4488 108.207C70.4636 108.138 70.5019 108.075 70.5572 108.03C70.6126 107.986 70.6816 107.961 70.7529 107.961C70.8241 107.961 70.8932 107.986 70.9485 108.03C71.0038 108.075 71.0421 108.138 71.0569 108.207C71.773 113.112 72.7458 114.463 76.4615 115.409C76.5643 115.434 76.6558 115.493 76.7212 115.576C76.7866 115.66 76.8221 115.763 76.8221 115.868C76.8221 115.974 76.7866 116.077 76.7212 116.161C76.6558 116.244 76.5643 116.303 76.4615 116.328Z" fill="white"/>
</g>
<path d="M598.275 155.247C604.248 149.274 604.248 139.59 598.275 133.617C592.302 127.644 582.618 127.644 576.645 133.617C570.672 139.59 570.672 149.274 576.645 155.247C582.618 161.22 592.302 161.22 598.275 155.247Z" fill="#6F95C9"/>
<path opacity="0.6" d="M598.275 155.247C604.248 149.274 604.248 139.59 598.275 133.617C592.302 127.644 582.618 127.644 576.645 133.617C570.672 139.59 570.672 149.274 576.645 155.247C582.618 161.22 592.302 161.22 598.275 155.247Z" fill="white"/>
<path d="M584.074 136.555V152.323L594.978 144.432L584.074 136.555Z" fill="white"/>
<path d="M456.85 19.9371V45.2576C456.85 45.831 456.622 46.3809 456.217 46.7863C455.811 47.1917 455.262 47.4195 454.688 47.4195H428.652C428.078 47.4195 427.528 47.1917 427.123 46.7863C426.718 46.3809 426.49 45.831 426.49 45.2576V19.9371C426.49 19.3638 426.718 18.8139 427.123 18.4085C427.528 18.0031 428.078 17.7753 428.652 17.7753H454.661C454.947 17.7717 455.231 17.825 455.497 17.9321C455.762 18.0391 456.004 18.1978 456.207 18.3989C456.411 18.6 456.573 18.8395 456.683 19.1036C456.793 19.3676 456.85 19.651 456.85 19.9371Z" fill="#6F95C9"/>
<g opacity="0.6">
<path d="M456.85 19.9371V45.2576C456.85 45.831 456.622 46.3809 456.217 46.7863C455.811 47.1917 455.262 47.4195 454.688 47.4195H428.652C428.078 47.4195 427.528 47.1917 427.123 46.7863C426.718 46.3809 426.49 45.831 426.49 45.2576V19.9371C426.49 19.3638 426.718 18.8139 427.123 18.4085C427.528 18.0031 428.078 17.7753 428.652 17.7753H454.661C454.947 17.7717 455.231 17.825 455.497 17.9321C455.762 18.0391 456.004 18.1978 456.207 18.3989C456.411 18.6 456.573 18.8395 456.683 19.1036C456.793 19.3676 456.85 19.651 456.85 19.9371Z" fill="white"/>
</g>
<path d="M448.946 34.1378C446.88 36.6577 444.426 38.8332 441.677 40.5828C438.922 38.8351 436.464 36.6595 434.394 34.1378C431.8 30.6113 433.664 26.0309 437.096 26.3687C438.07 26.4355 439.007 26.7646 439.809 27.3213C440.611 27.878 441.247 28.6414 441.65 29.5304C442.043 28.6371 442.674 27.8694 443.475 27.3116C444.276 26.7539 445.215 26.4276 446.189 26.3687C449.675 26.0985 451.54 30.5573 448.946 34.1378Z" fill="white"/>
<path d="M242.855 55.8372V83.1439C242.852 83.7627 242.604 84.3552 242.167 84.7928C241.729 85.2304 241.137 85.4778 240.518 85.4814H212.454C212.147 85.4831 211.842 85.4239 211.558 85.3071C211.273 85.1902 211.015 85.0181 210.798 84.8007C210.58 84.5833 210.408 84.3249 210.291 84.0405C210.174 83.7561 210.115 83.4513 210.117 83.1439V55.8372C210.117 55.2208 210.362 54.6297 210.798 54.1939C211.233 53.7581 211.825 53.5132 212.441 53.5132H240.504C240.811 53.5114 241.116 53.5701 241.4 53.686C241.684 53.8018 241.943 53.9725 242.161 54.1883C242.379 54.4041 242.553 54.6608 242.672 54.9437C242.791 55.2266 242.854 55.5302 242.855 55.8372Z" fill="#6F95C9"/>
<g opacity="0.6">
<path d="M242.855 55.8372V83.1439C242.852 83.7627 242.604 84.3552 242.167 84.7928C241.729 85.2304 241.137 85.4778 240.518 85.4814H212.454C212.147 85.4831 211.842 85.4239 211.558 85.3071C211.273 85.1902 211.015 85.0181 210.798 84.8007C210.58 84.5833 210.408 84.3249 210.291 84.0405C210.174 83.7561 210.115 83.4513 210.117 83.1439V55.8372C210.117 55.2208 210.362 54.6297 210.798 54.1939C211.233 53.7581 211.825 53.5132 212.441 53.5132H240.504C240.811 53.5114 241.116 53.5701 241.4 53.686C241.684 53.8018 241.943 53.9725 242.161 54.1883C242.379 54.4041 242.553 54.6608 242.672 54.9437C242.791 55.2266 242.854 55.5302 242.855 55.8372Z" fill="white"/>
</g>
<path d="M231.046 73.5777C230.564 73.5777 230.088 73.69 229.656 73.9058C229.225 74.1215 228.85 74.4348 228.56 74.8207L222.507 71.3213C222.659 70.9528 222.737 70.558 222.737 70.1593C222.734 69.8053 222.675 69.454 222.561 69.1189L229.182 65.2952C229.673 65.8274 230.335 66.1712 231.053 66.2674C231.77 66.3635 232.499 66.2059 233.113 65.8217C233.727 65.4375 234.188 64.8509 234.415 64.1632C234.643 63.4756 234.623 62.7301 234.359 62.0555C234.095 61.3809 233.604 60.8197 232.971 60.4688C232.337 60.1178 231.601 59.9992 230.889 60.1334C230.177 60.2676 229.535 60.6463 229.073 61.2039C228.61 61.7615 228.357 62.4631 228.357 63.1874C228.357 63.363 228.357 63.5252 228.357 63.6738L221.453 67.7272C220.996 67.3861 220.454 67.1773 219.886 67.1236C219.319 67.07 218.747 67.1735 218.235 67.4229C217.722 67.6724 217.288 68.0581 216.979 68.5378C216.671 69.0176 216.501 69.5729 216.487 70.1429C216.474 70.7129 216.617 71.2758 216.902 71.7697C217.187 72.2637 217.602 72.6698 218.102 72.9435C218.602 73.2173 219.168 73.3481 219.738 73.3218C220.307 73.2954 220.859 73.1128 221.331 72.794L227.898 76.5772C227.898 76.5772 227.898 76.6853 227.898 76.7529C227.898 77.3702 228.081 77.9736 228.424 78.4869C228.767 79.0002 229.254 79.4002 229.825 79.6364C230.395 79.8727 231.023 79.9345 231.628 79.8141C232.234 79.6936 232.79 79.3964 233.226 78.9599C233.663 78.5234 233.96 77.9672 234.08 77.3618C234.201 76.7563 234.139 76.1288 233.903 75.5585C233.666 74.9882 233.266 74.5007 232.753 74.1577C232.24 73.8148 231.636 73.6317 231.019 73.6317L231.046 73.5777Z" fill="white"/>
<path d="M473.82 271.804L352.514 427.281H473.82V502.945H247.436V431.605L367.039 275.696H247.436V200.464H473.82V271.804Z" fill="#6F95C9"/>
<g opacity="0.3">
<path d="M473.82 271.804L352.514 427.281H473.82V502.945H247.436V431.605L367.039 275.696H247.436V200.464H473.82V271.804Z" fill="#263238"/>
</g>
<path d="M441.663 271.804L320.357 427.281H441.663V502.945H215.278V431.605L334.882 275.696H215.278V200.464H441.663V271.804Z" fill="#6F95C9"/>
<path d="M269.284 171.117L262.798 188.844L252.502 189.668L255.299 168.036L269.284 171.117Z" fill="#B55B52"/>
<path d="M255.961 187.088C255.961 187.088 254.164 184.98 252.043 185.737C249.922 186.493 247.26 189.993 247.26 189.993C247.26 189.993 235.802 193.749 232.667 193.951C229.533 194.154 226.858 195.924 226.006 202.058H264.19C264.19 202.058 264.96 188.263 265.055 185.845C265.149 183.426 261.582 186.426 261.582 186.426L255.961 187.088Z" fill="#6F95C9"/>
<g opacity="0.7">
<path d="M255.961 187.088C255.961 187.088 254.164 184.98 252.043 185.737C249.922 186.493 247.26 189.993 247.26 189.993C247.26 189.993 235.802 193.749 232.667 193.951C229.533 194.154 226.858 195.924 226.006 202.058H264.19C264.19 202.058 264.96 188.263 265.055 185.845C265.149 183.426 261.582 186.426 261.582 186.426L255.961 187.088Z" fill="white"/>
</g>
<path d="M264.041 199.748L233.978 200.086L227.101 200.153C226.723 200.153 226.682 199.572 227.101 199.572L257.164 199.234L264.041 199.167C264.42 199.167 264.447 199.748 264.041 199.748Z" fill="#263238"/>
<path d="M248.8 192.344C248.519 191.899 248.147 191.517 247.71 191.223C247.273 190.929 246.78 190.73 246.261 190.637C245.743 190.544 245.211 190.56 244.699 190.684C244.187 190.808 243.706 191.037 243.288 191.357C242.99 191.587 242.666 191.073 242.963 190.844C245.031 189.222 247.665 189.925 249.287 192.046C249.53 192.357 249.03 192.654 248.8 192.344Z" fill="#263238"/>
<path d="M245.557 193.343C245.277 192.897 244.907 192.514 244.469 192.219C244.032 191.924 243.538 191.723 243.019 191.63C242.5 191.537 241.967 191.554 241.455 191.679C240.943 191.804 240.463 192.035 240.045 192.357C239.761 192.587 239.437 192.073 239.72 191.844C241.801 190.222 244.436 190.925 246.057 193.046C246.287 193.357 245.787 193.654 245.557 193.343Z" fill="#263238"/>
<path d="M242.22 194.33C241.938 193.885 241.567 193.503 241.13 193.209C240.693 192.916 240.199 192.716 239.681 192.623C239.162 192.53 238.63 192.547 238.118 192.671C237.606 192.795 237.126 193.024 236.707 193.343C236.41 193.573 236.086 193.06 236.383 192.844C238.45 191.222 241.085 191.925 242.707 194.033C242.95 194.343 242.45 194.641 242.22 194.33Z" fill="#263238"/>
<path d="M355.757 172.563L354.825 173.036L350.704 175.13L320.911 190.168C319.344 186.966 317.695 183.669 315.993 180.251C313.642 175.562 311.169 170.644 308.616 165.537C302.36 152.998 295.672 139.297 289.294 124.611C290.348 136.771 279.836 158.93 268.581 179.94L249.125 178.994C249.125 178.994 266.176 76.4962 289.294 80.0092C308.21 82.8736 340.638 143 351.839 164.78C352.568 166.131 353.19 167.482 353.744 168.509C355.041 171.076 355.757 172.563 355.757 172.563Z" fill="#263238"/>
<path opacity="0.2" d="M355.162 174.454L350.704 175.103L315.993 180.224C313.642 175.535 311.169 170.617 308.615 165.51C321.735 163.118 336.192 162.97 351.852 164.78L352.893 164.902L353.757 168.509L354.838 173.036L355.162 174.454Z" fill="black"/>
<path d="M247.76 173.509L246.828 179.899L269.946 181.197L272.932 175.116L247.76 173.509Z" fill="#263238"/>
<g opacity="0.3">
<path d="M247.76 173.509L246.828 179.899L269.946 181.197L272.932 175.116L247.76 173.509Z" fill="white"/>
</g>
<path d="M314.304 92.1561C320.708 96.9662 327.491 102.276 334.139 107.019L329.302 115.68C321.357 112.642 313.593 109.151 306.048 105.222C304.143 104.222 302.211 103.181 300.32 102.033C298.281 100.836 296.31 99.5283 294.415 98.1147C293.202 97.2279 292.075 96.2281 291.051 95.1286C290.133 94.1596 289.368 93.0571 288.781 91.8588C288.654 91.5992 288.542 91.3331 288.443 91.0617L288.294 90.6563L288.105 90.1024C288.011 89.724 287.916 89.3592 287.849 88.9539C287.769 88.4349 287.724 87.9114 287.713 87.3865C287.709 86.7753 287.759 86.1649 287.862 85.5625C287.91 85.2389 287.978 84.9186 288.065 84.6032C288.175 84.2226 288.306 83.8482 288.457 83.4817C288.876 82.4467 289.47 81.4915 290.213 80.6578C290.921 79.8372 291.74 79.1187 292.645 78.523C293.145 78.1835 293.664 77.8723 294.199 77.5907C294.949 77.1888 295.72 76.8279 296.509 76.5098C297.861 75.9423 299.036 75.5505 300.185 75.1587C304.738 73.7265 308.899 72.7671 313.129 71.8484C317.358 70.9296 321.506 70.1594 325.667 69.5109C334.017 68.1597 342.273 67.0518 350.731 66.3762L352.866 87.0893C344.84 88.1837 336.652 89.089 328.545 90.0078C324.492 90.5212 320.438 90.9401 316.52 91.494L313.899 91.8453L314.304 92.1561Z" fill="#B55B52"/>
<path d="M355.203 62.5388L323.154 68.3893L330.342 93.7773L352.866 92.4262C352.866 92.4262 360.891 72.9697 355.203 62.5388Z" fill="#6F95C9"/>
<g opacity="0.3">
<path d="M355.203 62.5388L323.154 68.3893L330.342 93.7773L352.866 92.4262C352.866 92.4262 360.891 72.9697 355.203 62.5388Z" fill="white"/>
</g>
<path d="M419.504 118.247C417.643 129.319 415.066 140.259 411.789 150.998C409.665 158.081 407.152 165.041 404.263 171.847C393.008 198.208 384.537 189.641 384.537 189.641C384.537 189.641 355.838 171.482 350.244 166.28C344.651 161.078 332.571 140.608 332.017 137.798C331.463 134.987 330.666 129.988 337.895 124.692C339.27 123.645 340.493 122.413 341.53 121.03C346.015 115.193 349.218 105.749 349.758 97.0877C350.006 93.9209 349.792 90.7349 349.123 87.6297C346.272 75.4694 342.948 68.8893 351.582 64.0792C355.73 61.7552 364.769 60.0258 373.038 58.8097C386.425 56.6493 400.125 59.827 411.195 67.6597C414.792 70.046 417.789 73.2322 419.95 76.9692C423.044 83.1439 422.679 99.2766 419.504 118.247Z" fill="#6F95C9"/>
<path opacity="0.2" d="M419.504 118.247C417.643 129.319 415.066 140.259 411.789 150.998C401.737 147.729 362.094 134.352 341.53 121.03C346.015 115.193 349.218 105.748 349.758 97.0876C358.216 101.695 392.049 119.111 419.504 118.247Z" fill="#263238"/>
<path d="M422.26 83.7788C424.368 93.8854 426.206 104.046 427.881 114.234C429.557 124.421 431.084 134.663 432.597 144.716L433.191 148.364C433.267 148.891 433.371 149.414 433.502 149.931C433.61 150.417 433.705 150.89 433.88 151.498C434.488 153.741 435.232 156.133 436.015 158.524C437.569 163.321 439.19 168.185 440.893 173.036L447.405 197.356L439.19 201.964C434.232 192.789 431.867 188.047 427.327 178.643C425.098 173.927 422.869 169.185 420.761 164.334C419.707 161.889 418.68 159.43 417.68 156.754C417.194 155.511 416.626 153.701 416.248 152.431C415.87 151.16 415.491 149.728 415.153 148.512C412.451 138.325 410.019 128.245 407.749 118.152C405.479 108.059 403.48 97.8848 401.777 87.6701L422.26 83.7788Z" fill="#B55B52"/>
<path d="M464.079 201.977C466.132 201.329 466.862 199.707 464.295 198.613C460.755 197.1 457.012 195.073 453.202 193.587C449.392 192.1 441.042 194.6 440.704 194.843L439.231 201.977H464.079Z" fill="#B55B52"/>
<path d="M398.21 88.8323L403.993 118.949L430.462 111.383C430.462 111.383 429.111 84.0222 420.004 76.9692C411.505 70.3486 398.764 74.0777 397.967 85.0761C397.89 86.3334 397.971 87.5954 398.21 88.8323Z" fill="#B55B52"/>
<path d="M398.21 88.8323L403.993 118.949L430.462 111.383C430.462 111.383 429.111 84.0222 420.004 76.9692C411.505 70.3486 398.764 74.0777 397.967 85.0761C397.89 86.3334 397.971 87.5954 398.21 88.8323Z" fill="#6F95C9"/>
<g opacity="0.3">
<path d="M398.21 88.8323L403.993 118.949L430.462 111.383C430.462 111.383 429.111 84.0222 420.004 76.9692C411.505 70.3486 398.764 74.0777 397.967 85.0761C397.89 86.3334 397.971 87.5954 398.21 88.8323Z" fill="white"/>
</g>
<path d="M379.943 6.76345C377.956 4.50703 371.106 4.18275 367.782 8.38482C364.202 12.8571 359.608 21.2072 356.851 18.9103C357.24 20.1833 358.006 21.3082 359.049 22.1358C360.091 22.9635 361.36 23.4548 362.688 23.5447C362.688 23.5447 359.77 26.5983 356.122 25.3687C356.723 27.1928 357.824 28.8112 359.3 30.0392C360.777 31.2672 362.569 32.0553 364.472 32.3136C370.741 33.354 379.861 15.5324 381.321 12.6139C381.348 9.35765 381.105 9.47925 379.943 6.76345Z" fill="#263238"/>
<path d="M383.834 7.58783C386.605 7.30839 389.405 7.6033 392.057 8.45415C394.71 9.305 397.159 10.6935 399.25 12.533C401.953 14.9921 404.074 18.2078 403.034 21.9911C400.615 30.7465 394.373 44.8254 394.373 44.8254L368.134 23.8016C368.134 23.8016 368.134 15.2488 372.552 11.1008C374.835 8.93897 379.672 8.0202 383.834 7.58783Z" fill="#263238"/>
<path d="M378.943 7.06076C378.943 7.06076 388.266 0.696856 400.305 10.0333C412.343 19.3697 399.71 35.5835 399.71 35.5835C399.71 35.5835 395.657 42.7851 399.061 44.6362C397.84 45.0913 396.539 45.2935 395.238 45.2307C395.238 45.2307 396.373 47.4601 397.94 47.3114C397.94 47.3114 395.805 48.1086 392.09 46.3521C388.374 44.5956 378.943 7.06076 378.943 7.06076Z" fill="#263238"/>
<path d="M378.578 52.4593C378.578 52.4593 378.578 52.4593 378.578 52.5674L379.199 57.9719C379.13 59.8742 378.742 61.7514 378.051 63.5252C376.7 64.8763 375.646 68.3623 379.672 68.9298C384.739 69.6999 395.129 63.6197 395.792 61.4309C394.44 54.1482 393.657 45.7576 394.994 39.1775L388.239 44.5821L378.578 52.4593Z" fill="#B55B52"/>
<g opacity="0.2">
<path d="M378.605 52.5808L379.227 57.9854C382.604 56.9856 386.388 54.3508 387.644 51.081C388.522 48.7165 387.752 46.271 386.793 46.0007L378.605 52.5808Z" fill="black"/>
</g>
<path d="M367.309 39.9341C367.445 41.0961 367.62 42.2446 367.823 43.393C369.647 53.4591 381.334 56.0398 389.766 50.0272C390.525 49.4773 391.243 48.8722 391.914 48.2166C397.494 42.731 396.994 37.8263 397.845 26.9631C398.069 24.4383 397.643 21.8983 396.608 19.5845C395.573 17.2707 393.964 15.26 391.933 13.7435C389.902 12.2271 387.517 11.2552 385.004 10.9203C382.492 10.5855 379.935 10.8987 377.578 11.8303C367.931 15.6 365.904 28.3007 367.309 39.9341Z" fill="#B55B52"/>
<path d="M376.808 43.2311H376.511C376.467 43.2215 376.426 43.2034 376.39 43.1778C376.353 43.1522 376.322 43.1196 376.298 43.0819C376.274 43.0442 376.258 43.0022 376.25 42.9582C376.243 42.9142 376.244 42.8692 376.254 42.8257C376.279 42.742 376.335 42.6707 376.41 42.6257C376.485 42.5808 376.574 42.5654 376.659 42.5825C377.297 42.7238 377.956 42.7347 378.597 42.6145C379.239 42.4944 379.849 42.2457 380.392 41.8834C380.935 41.5211 381.399 41.0527 381.756 40.5064C382.113 39.9602 382.355 39.3473 382.469 38.7047C382.495 38.6182 382.552 38.5447 382.63 38.4994C382.708 38.4541 382.801 38.4406 382.888 38.4615C382.931 38.4739 382.971 38.4946 383.005 38.5224C383.04 38.5502 383.069 38.5845 383.09 38.6234C383.111 38.6623 383.125 38.705 383.129 38.7491C383.134 38.7932 383.13 38.8378 383.118 38.8804C382.842 40.2857 382.028 41.5275 380.849 42.3405C379.67 43.1534 378.22 43.473 376.808 43.2311Z" fill="#263238"/>
<path d="M380.118 32.4217C379.567 32.2152 379.117 31.8037 378.862 31.2733C378.835 31.1889 378.841 31.0975 378.878 31.0173C378.916 30.9372 378.982 30.8742 379.065 30.8409C379.105 30.826 379.149 30.8195 379.192 30.8217C379.235 30.8239 379.278 30.8348 379.317 30.8537C379.356 30.8726 379.391 30.8991 379.419 30.9317C379.448 30.9643 379.47 31.0024 379.483 31.0436C379.654 31.3263 379.891 31.5635 380.173 31.7352C380.456 31.907 380.775 32.008 381.105 32.0299C381.51 32.0874 381.923 32.0349 382.301 31.8781C382.679 31.7212 383.008 31.4656 383.253 31.1381C383.275 31.0947 383.307 31.0567 383.345 31.0265C383.383 30.9964 383.428 30.9749 383.475 30.9636C383.522 30.9522 383.572 30.9512 383.62 30.9607C383.667 30.9702 383.713 30.99 383.752 31.0186C383.792 31.0472 383.824 31.084 383.848 31.1265C383.872 31.169 383.887 31.2161 383.89 31.2647C383.894 31.3133 383.888 31.3622 383.871 31.408C383.854 31.4538 383.828 31.4954 383.794 31.53C383.473 31.9585 383.043 32.2919 382.548 32.4942C382.053 32.6965 381.512 32.7602 380.983 32.6784C380.685 32.6311 380.394 32.5448 380.118 32.4217Z" fill="#263238"/>
<path d="M370.012 32.3678C369.49 32.2021 369.051 31.8448 368.782 31.3679C368.763 31.2908 368.772 31.2094 368.806 31.1381C368.841 31.0667 368.9 31.0099 368.973 30.9776C369.045 30.9453 369.127 30.9397 369.203 30.9617C369.28 30.9836 369.346 31.0318 369.39 31.0977C369.598 31.3497 369.859 31.5526 370.155 31.6918C370.45 31.8311 370.773 31.9033 371.099 31.9033C371.426 31.9033 371.749 31.8311 372.044 31.6918C372.34 31.5526 372.601 31.3497 372.809 31.0977C372.833 31.0622 372.863 31.0318 372.899 31.0082C372.935 30.9845 372.975 30.9682 373.017 30.96C373.059 30.9519 373.102 30.9521 373.144 30.9606C373.186 30.9692 373.226 30.9859 373.261 31.0099C373.297 31.0338 373.327 31.0645 373.351 31.1002C373.374 31.136 373.391 31.176 373.399 31.218C373.407 31.26 373.407 31.3032 373.398 31.3452C373.39 31.3872 373.373 31.427 373.349 31.4625C373.067 31.8551 372.681 32.1616 372.235 32.3477C371.789 32.5338 371.3 32.5922 370.822 32.5164C370.548 32.4953 370.276 32.4455 370.012 32.3678Z" fill="#263238"/>
<path d="M397.845 27.9764C397.845 27.9764 394.589 27.6522 394.035 30.4085C393.481 33.1648 393.724 33.5702 393.724 33.5702L389.779 33.8134C389.779 33.8134 392.4 23.3825 389.59 23.0988C386.779 22.8151 390.509 18.5049 388.928 17.5726C385.212 15.3702 374.457 13.6813 369.336 19.5588C369.336 19.5588 371.376 13.3165 377.011 10.6142C382.645 7.9119 393.035 8.70908 396.454 14.3839C399.872 20.0587 397.845 27.9764 397.845 27.9764Z" fill="#263238"/>
<path d="M402.426 34.2728C401.606 36.8893 399.785 39.0752 397.359 40.353C394.143 42.0149 391.792 39.2991 392.076 35.8807C392.333 32.8001 394.319 28.2197 397.845 27.9765C401.372 27.7332 403.385 31.0571 402.426 34.2728Z" fill="#B55B52"/>
<path d="M396.548 32.6108L395.197 38.5559L396.44 38.2721L397.44 35.205C397.44 35.205 399.696 34.7457 399.521 33.6918C399.345 32.6379 396.548 32.6108 396.548 32.6108Z" fill="white"/>
<path d="M368.431 27.8549C368.508 27.8571 368.584 27.838 368.65 27.7999C368.717 27.7618 368.772 27.706 368.809 27.6387C368.946 27.368 369.136 27.1279 369.368 26.9328C369.601 26.7377 369.87 26.5918 370.16 26.5038C370.762 26.3838 371.388 26.4896 371.917 26.801C372.015 26.8602 372.133 26.8777 372.245 26.8499C372.356 26.822 372.452 26.751 372.511 26.6524C372.57 26.5539 372.588 26.4359 372.56 26.3244C372.532 26.2129 372.461 26.117 372.363 26.0579C371.636 25.6375 370.78 25.4981 369.958 25.6661C369.55 25.7751 369.17 25.9685 368.842 26.2339C368.513 26.4992 368.245 26.8305 368.053 27.2064C368.024 27.2559 368.005 27.3108 367.998 27.3676C367.99 27.4245 367.994 27.4823 368.009 27.5376C368.024 27.5929 368.05 27.6447 368.085 27.6899C368.121 27.7351 368.165 27.7728 368.215 27.8009C368.28 27.8402 368.355 27.859 368.431 27.8549Z" fill="#263238"/>
<path d="M384.955 28.2333H385.145C385.244 28.1789 385.319 28.0875 385.351 27.9788C385.384 27.87 385.373 27.7528 385.32 27.6523C384.899 26.9168 384.22 26.3634 383.415 26.0984C383.01 25.9982 382.589 25.9825 382.177 26.0523C381.766 26.122 381.373 26.2757 381.024 26.5038C380.974 26.5319 380.93 26.5696 380.894 26.6148C380.859 26.66 380.833 26.7118 380.818 26.7671C380.803 26.8224 380.799 26.8802 380.806 26.9371C380.814 26.9939 380.833 27.0487 380.861 27.0983C380.923 27.1942 381.018 27.2639 381.127 27.2938C381.237 27.3238 381.354 27.3119 381.456 27.2604C381.708 27.0893 381.994 26.9722 382.294 26.9164C382.593 26.8606 382.902 26.8673 383.199 26.9362C383.765 27.1425 384.243 27.5388 384.55 28.0576C384.597 28.1186 384.659 28.1667 384.73 28.1974C384.801 28.2281 384.878 28.2404 384.955 28.2333Z" fill="#263238"/>
<path d="M375.295 30.5571C374.784 32.3482 373.766 33.9531 372.363 35.178C370.106 37.0021 374.457 38.7316 374.457 38.7316L375.295 30.5571Z" fill="#A02724"/>
<path d="M306.778 304.164L306.765 321.702L297.239 325.472L296.023 303.908L306.778 304.164Z" fill="#B55B52"/>
<path d="M299.793 321.986C299.793 321.986 297.455 320.5 295.645 321.797C293.834 323.094 292.348 327.202 292.348 327.202C292.348 327.202 282.484 334.119 279.539 335.227C276.593 336.335 274.567 338.808 275.486 344.902L311.967 333.755C311.967 333.755 308.67 320.338 308.089 318.041C307.508 315.744 304.941 319.622 304.941 319.622L299.793 321.986Z" fill="#6F95C9"/>
<g opacity="0.7">
<path d="M299.793 321.986C299.793 321.986 297.455 320.5 295.645 321.797C293.834 323.094 292.348 327.202 292.348 327.202C292.348 327.202 282.484 334.119 279.539 335.227C276.593 336.335 274.567 338.808 275.486 344.902L311.967 333.755C311.967 333.755 308.67 320.338 308.089 318.041C307.508 315.744 304.941 319.622 304.941 319.622L299.793 321.986Z" fill="white"/>
</g>
<path d="M311.21 331.755L282.552 340.821L275.985 342.902C275.621 343.01 275.418 342.456 275.783 342.348L304.454 333.214L311.007 331.133C311.372 331.025 311.575 331.579 311.21 331.701V331.755Z" fill="#263238"/>
<path d="M294.469 329.161C294.071 328.814 293.604 328.555 293.1 328.399C292.595 328.244 292.063 328.196 291.539 328.258C291.015 328.32 290.509 328.492 290.055 328.761C289.601 329.031 289.208 329.392 288.902 329.823C288.7 330.12 288.24 329.728 288.443 329.431C289.956 327.269 292.686 327.175 294.848 328.728C295.172 328.958 294.78 329.39 294.469 329.161Z" fill="#263238"/>
<path d="M291.659 330.998C291.261 330.654 290.795 330.396 290.292 330.242C289.788 330.088 289.258 330.041 288.736 330.103C288.213 330.165 287.709 330.336 287.256 330.604C286.803 330.872 286.411 331.232 286.105 331.66C285.889 331.971 285.43 331.566 285.646 331.269C287.159 329.12 289.875 329.012 292.05 330.566C292.361 330.796 291.969 331.228 291.659 330.998Z" fill="#263238"/>
<path d="M288.754 332.93C288.355 332.584 287.889 332.324 287.384 332.169C286.879 332.014 286.348 331.965 285.824 332.028C285.299 332.09 284.794 332.262 284.34 332.531C283.885 332.801 283.493 333.162 283.187 333.593C282.984 333.89 282.525 333.498 282.728 333.201C284.241 331.039 286.97 330.944 289.132 332.498C289.456 332.728 289.064 333.147 288.754 332.93Z" fill="#263238"/>
<path d="M389.793 200.977L327.761 201.977C320.898 204.207 309.697 310.245 309.697 310.245H294.712C294.712 310.245 281.201 211.773 291.645 189.06C295.699 180.062 322.168 169.239 341.53 166.28C371.255 161.74 402.993 167.199 403.047 175.319C403.142 187.479 394.535 200.802 389.793 200.977Z" fill="#263238"/>
<path d="M292.577 306.502L293.321 311.339H310.683L311.372 306.421L292.577 306.502Z" fill="#263238"/>
<g opacity="0.3">
<path d="M292.577 306.502L293.321 311.339H310.683L311.372 306.421L292.577 306.502Z" fill="white"/>
</g>
<path d="M336.057 108.667C337.774 110.184 339.335 111.868 340.719 113.693C342.529 116.004 344.434 117.963 344.029 119.287C343.624 120.611 338.908 116.895 338.489 116.585C337.534 113.992 336.723 111.349 336.057 108.667Z" fill="#B55B52"/>
<g opacity="0.2">
<path d="M336.057 108.667C337.774 110.184 339.335 111.868 340.719 113.693C342.529 116.004 344.434 117.963 344.029 119.287C343.624 120.611 338.908 116.895 338.489 116.585C337.534 113.992 336.723 111.349 336.057 108.667Z" fill="black"/>
</g>
<path d="M336.436 132.907C334.733 132.001 333.274 126.718 333.274 126.718C333.274 126.718 335.085 131.312 332.166 130.299C330.396 129.704 329.342 123.935 328.869 121.517C327.761 118.22 326.167 114.139 326.167 114.139C326.167 114.139 331.639 106.208 334.071 107.127C336.179 107.91 339.192 112.207 341.273 116.355C341.664 117.034 341.998 117.743 342.273 118.476C342.475 119.017 342.678 119.584 342.867 120.246C346.84 134.015 338.125 133.812 336.436 132.907Z" fill="#B55B52"/>
<path d="M601.261 196.505C601.261 196.505 602.301 187.209 601.261 185.142C600.22 183.075 597.207 191.898 597.207 191.898L601.261 196.505Z" fill="#CE7A63"/>
<path d="M496.709 134.933C496.709 134.933 485.224 125.651 495.709 118.22C506.194 110.788 530.434 122.138 537.892 129.461C545.35 136.784 538.824 143.189 538.824 143.189L496.709 134.933Z" fill="#263238"/>
<path d="M469.199 470.585L467.862 492.015L476.996 492.744L483.13 471.666L469.199 470.585Z" fill="#D5794A"/>
<path d="M474.874 490.609C475.244 490.141 475.737 489.786 476.299 489.586C476.86 489.385 477.467 489.346 478.05 489.474C479.82 490.055 482.103 492.974 482.103 492.974C482.103 492.974 491.75 496.055 494.344 496.217C496.939 496.379 498.655 498.054 498.871 502.891H466.146C466.146 502.891 466.146 491.528 467.254 489.556C468.227 487.853 470.159 490.042 470.159 490.042L474.874 490.609Z" fill="#263238"/>
<path d="M498.168 501.391L492.48 501.324L467.619 501.081C467.562 501.068 467.512 501.036 467.476 500.99C467.44 500.945 467.42 500.889 467.42 500.831C467.42 500.773 467.44 500.717 467.476 500.671C467.512 500.626 467.562 500.594 467.619 500.581H469.307C469.818 499.355 469.837 497.98 469.362 496.74C468.887 495.5 467.953 494.49 466.754 493.92C466.704 493.885 466.67 493.832 466.657 493.773C466.644 493.714 466.654 493.652 466.684 493.599C466.715 493.547 466.764 493.508 466.822 493.49C466.879 493.471 466.942 493.475 466.997 493.501C468.278 494.121 469.279 495.201 469.8 496.525C470.32 497.85 470.323 499.322 469.807 500.648H473.307L498.168 500.919C498.221 500.931 498.268 500.962 498.302 501.005C498.336 501.047 498.354 501.1 498.354 501.155C498.354 501.21 498.336 501.263 498.302 501.306C498.268 501.348 498.221 501.379 498.168 501.391Z" fill="white"/>
<path d="M481.009 494.947C481.233 494.577 481.534 494.26 481.89 494.016C482.246 493.771 482.65 493.605 483.076 493.529C483.501 493.452 483.938 493.466 484.357 493.571C484.776 493.676 485.169 493.868 485.508 494.136C485.765 494.325 486.008 493.893 485.765 493.717C485.369 493.416 484.915 493.202 484.431 493.088C483.948 492.974 483.445 492.963 482.957 493.056C482.469 493.149 482.006 493.344 481.598 493.628C481.19 493.911 480.847 494.278 480.59 494.703C480.401 494.96 480.819 495.203 481.009 494.947Z" fill="white"/>
<path d="M483.711 495.771C483.937 495.401 484.239 495.084 484.596 494.839C484.954 494.595 485.359 494.429 485.785 494.352C486.212 494.275 486.649 494.29 487.07 494.395C487.49 494.5 487.883 494.692 488.224 494.96C488.467 495.149 488.71 494.717 488.467 494.528C488.07 494.229 487.615 494.017 487.131 493.906C486.647 493.794 486.145 493.785 485.658 493.879C485.17 493.973 484.708 494.169 484.3 494.453C483.893 494.737 483.549 495.103 483.292 495.528C483.103 495.784 483.535 496.028 483.711 495.771Z" fill="white"/>
<path d="M486.562 496.595C486.785 496.225 487.085 495.906 487.44 495.66C487.796 495.415 488.2 495.247 488.626 495.169C489.051 495.091 489.488 495.105 489.908 495.208C490.328 495.312 490.721 495.504 491.061 495.771C491.318 495.96 491.561 495.541 491.318 495.352C490.92 495.051 490.464 494.837 489.979 494.724C489.494 494.611 488.99 494.602 488.501 494.696C488.011 494.79 487.547 494.986 487.139 495.272C486.73 495.557 486.386 495.925 486.129 496.352C485.954 496.595 486.372 496.852 486.562 496.595Z" fill="white"/>
<path d="M539.27 470.356L540.54 492.015L549.768 492.744L553.335 471.45L539.27 470.356Z" fill="#D5794A"/>
<path d="M547.634 490.609C548.004 490.142 548.498 489.788 549.059 489.588C549.62 489.387 550.226 489.348 550.809 489.474C552.592 490.055 554.862 492.974 554.862 492.974C554.862 492.974 564.496 496.055 567.104 496.217C569.711 496.379 571.981 497.851 572.954 502.891H541.459C541.459 502.891 540.216 491.501 540.027 489.555C539.838 487.61 542.918 490.042 542.918 490.042L547.634 490.609Z" fill="#263238"/>
<path d="M572.076 501.391L566.387 501.324L541.526 501.081C541.47 501.068 541.42 501.036 541.384 500.99C541.348 500.945 541.328 500.889 541.328 500.831C541.328 500.773 541.348 500.717 541.384 500.671C541.42 500.626 541.47 500.594 541.526 500.581H543.161C543.672 499.355 543.691 497.98 543.216 496.74C542.74 495.5 541.807 494.49 540.608 493.92C540.558 493.885 540.524 493.832 540.511 493.773C540.498 493.714 540.508 493.652 540.538 493.599C540.569 493.547 540.618 493.508 540.675 493.49C540.733 493.471 540.796 493.475 540.851 493.501C542.132 494.121 543.133 495.201 543.653 496.525C544.174 497.85 544.177 499.322 543.661 500.648H547.161L572.022 500.919C572.077 500.924 572.129 500.948 572.169 500.987C572.209 501.026 572.234 501.078 572.241 501.133C572.247 501.189 572.234 501.244 572.204 501.292C572.174 501.339 572.129 501.374 572.076 501.391Z" fill="white"/>
<path d="M553.795 494.947C554.021 494.577 554.322 494.26 554.68 494.015C555.038 493.77 555.443 493.604 555.869 493.528C556.295 493.451 556.733 493.466 557.153 493.571C557.574 493.675 557.967 493.868 558.308 494.136C558.551 494.325 558.794 493.893 558.551 493.717C558.155 493.416 557.701 493.202 557.217 493.088C556.734 492.974 556.232 492.963 555.743 493.056C555.255 493.149 554.792 493.344 554.384 493.628C553.976 493.911 553.633 494.278 553.376 494.703C553.2 494.96 553.619 495.203 553.795 494.947Z" fill="white"/>
<path d="M556.511 495.771C556.737 495.401 557.038 495.084 557.396 494.839C557.753 494.595 558.159 494.429 558.585 494.352C559.011 494.275 559.449 494.29 559.869 494.395C560.29 494.5 560.683 494.692 561.023 494.96C561.28 495.149 561.523 494.717 561.267 494.528C560.87 494.229 560.415 494.017 559.931 493.906C559.447 493.794 558.945 493.785 558.457 493.879C557.97 493.973 557.507 494.169 557.1 494.453C556.692 494.737 556.349 495.103 556.092 495.528C555.916 495.784 556.335 496.028 556.511 495.771Z" fill="white"/>
<path d="M559.375 496.595C559.6 496.224 559.901 495.906 560.258 495.66C560.615 495.414 561.02 495.247 561.446 495.169C561.873 495.091 562.311 495.104 562.731 495.208C563.152 495.312 563.546 495.504 563.888 495.771C564.131 495.96 564.374 495.541 564.131 495.352C563.735 495.051 563.28 494.838 562.795 494.725C562.311 494.612 561.809 494.603 561.32 494.697C560.832 494.791 560.369 494.987 559.962 495.272C559.555 495.558 559.212 495.925 558.956 496.352C558.767 496.595 559.199 496.852 559.375 496.595Z" fill="white"/>
<path d="M560.915 238.931C560.915 238.931 566.144 317.081 565.793 348.86C565.428 381.923 554.646 478.111 554.646 478.111H536.987C536.987 478.111 533.73 383.612 532.149 351.103C530.433 315.717 519.854 238.958 519.854 238.958L560.915 238.931Z" fill="#6F95C9"/>
<path opacity="0.3" d="M565.793 348.86C565.428 381.923 554.646 478.111 554.646 478.111H536.987C536.987 478.111 533.73 383.612 532.149 351.103C531.65 340.605 530.352 326.445 528.785 311.731C527.434 298.746 525.813 285.33 524.367 273.602C521.921 253.848 519.854 238.891 519.854 238.891H560.915C560.915 238.891 566.131 317.081 565.793 348.86Z" fill="white"/>
<path opacity="0.2" d="M528.785 311.772C527.434 298.787 525.813 285.37 524.367 273.642L526.434 261.266C526.434 261.266 533.352 280.587 528.785 311.772Z" fill="#263238"/>
<path d="M535.662 472.774C535.662 474.679 535.838 478.476 535.838 478.476H556.186L556.794 472.774H535.662Z" fill="#263238"/>
<path d="M530.636 238.931C530.636 238.931 525.232 318.649 519.516 348.469C513.206 381.139 484.576 478.111 484.576 478.111H465.484C465.484 478.111 477.739 384.031 481.009 351.671C484.549 316.541 490.223 245.038 490.223 245.038L530.636 238.931Z" fill="#6F95C9"/>
<path opacity="0.3" d="M530.636 238.931C530.636 238.931 525.232 318.649 519.516 348.469C513.206 381.139 484.576 478.111 484.576 478.111H465.484C465.484 478.111 477.739 384.031 481.009 351.671C484.549 316.541 490.223 245.038 490.223 245.038L530.636 238.931Z" fill="white"/>
<path d="M470.118 473.49C470.158 473.488 470.196 473.471 470.226 473.444C470.255 473.417 470.274 473.381 470.28 473.342C470.429 472.369 484.008 388.3 486.94 359.237C490.115 327.688 496.736 257.753 496.803 257.05C496.807 257.026 496.806 257.001 496.8 256.978C496.793 256.954 496.782 256.932 496.767 256.913C496.752 256.894 496.733 256.878 496.711 256.867C496.689 256.856 496.666 256.849 496.641 256.847C496.596 256.847 496.551 256.863 496.516 256.893C496.481 256.923 496.459 256.964 496.452 257.01C496.385 257.712 489.764 327.647 486.589 359.183C483.711 388.246 470.064 472.382 469.929 473.288C469.925 473.311 469.926 473.334 469.932 473.357C469.937 473.38 469.947 473.401 469.961 473.42C469.975 473.439 469.992 473.455 470.012 473.467C470.032 473.479 470.055 473.487 470.078 473.49H470.118Z" fill="#263238"/>
<path d="M464.633 472.639C464.444 474.585 464.146 478.476 464.146 478.476H486.508L487.859 472.639H464.633Z" fill="#263238"/>
<path d="M599.45 201.153C599.148 206.319 598.543 211.462 597.64 216.556C597.153 219.151 596.572 221.772 595.762 224.582C595.313 226.117 594.762 227.62 594.113 229.081C593.723 230.011 593.272 230.914 592.762 231.784C591.941 233.136 590.926 234.361 589.749 235.418C588.288 236.735 586.543 237.697 584.649 238.229C582.755 238.761 580.765 238.849 578.832 238.485C578.222 238.362 577.621 238.195 577.035 237.986C576.509 237.795 575.994 237.574 575.494 237.323C575.03 237.077 574.579 236.807 574.143 236.513C573.724 236.216 573.238 235.837 573.089 235.716L572.454 235.162L572.144 234.864L571.941 234.689L571.171 233.905C569.82 232.378 568.982 231.324 568.185 230.284L567.874 229.879C566.144 227.582 564.685 225.447 563.226 223.299L562.442 222.096C559.889 218.218 557.538 214.354 555.16 210.503C552.606 206.234 550.133 201.937 547.688 197.64C545.242 193.344 542.878 189.02 540.621 184.656C536.014 175.927 531.636 167.172 527.677 158.092L552.106 141.284C556.538 149.864 562.631 163.024 566.658 171.847C568.712 176.238 570.617 180.697 572.643 185.088L578.494 198.343C579.669 201.045 580.872 203.747 582.074 206.45C583.196 203.747 584.29 200.978 585.385 198.343L599.45 201.153Z" fill="#263238"/>
<path opacity="0.2" d="M568.103 230.27L567.793 229.865C566.063 227.568 564.604 225.433 563.145 223.285L562.361 222.082L559.659 171.604C559.659 171.604 566.266 211.76 568.103 230.27Z" fill="black"/>
<path d="M575.224 205.477L575.116 195.33C575.203 194.355 575.559 193.424 576.143 192.639C576.728 191.855 577.518 191.247 578.426 190.884L598.558 184.912C598.772 184.821 599.006 184.786 599.238 184.812C599.469 184.837 599.69 184.922 599.879 185.058C600.068 185.194 600.218 185.376 600.316 185.587C600.414 185.799 600.455 186.031 600.436 186.263L600.545 196.411C600.457 197.382 600.103 198.309 599.521 199.092C598.94 199.874 598.153 200.48 597.248 200.842L577.075 206.814C576.864 206.899 576.634 206.929 576.408 206.901C576.182 206.873 575.966 206.789 575.781 206.655C575.597 206.522 575.449 206.344 575.351 206.138C575.254 205.932 575.21 205.704 575.224 205.477Z" fill="#6F95C9"/>
<g opacity="0.4">
<path d="M575.224 205.477L575.116 195.33C575.203 194.355 575.559 193.424 576.143 192.639C576.728 191.855 577.518 191.247 578.426 190.884L598.558 184.912C598.772 184.821 599.006 184.786 599.238 184.812C599.469 184.837 599.69 184.922 599.879 185.058C600.068 185.194 600.218 185.376 600.316 185.587C600.414 185.799 600.455 186.031 600.436 186.263L600.545 196.411C600.457 197.382 600.103 198.309 599.521 199.092C598.94 199.874 598.153 200.48 597.248 200.842L577.075 206.814C576.864 206.899 576.634 206.929 576.408 206.901C576.182 206.873 575.966 206.789 575.781 206.655C575.597 206.522 575.449 206.344 575.351 206.138C575.254 205.932 575.21 205.704 575.224 205.477Z" fill="#263238"/>
</g>
<path d="M575.237 206.504L575.129 196.357C575.214 195.383 575.567 194.452 576.149 193.668C576.731 192.883 577.519 192.275 578.426 191.911L598.558 185.939C598.772 185.848 599.006 185.813 599.238 185.838C599.469 185.864 599.69 185.949 599.879 186.085C600.068 186.221 600.218 186.403 600.316 186.614C600.414 186.825 600.455 187.058 600.436 187.29L600.544 197.437C600.46 198.413 600.106 199.345 599.521 200.13C598.936 200.916 598.144 201.522 597.234 201.883L577.075 207.855C576.863 207.937 576.634 207.965 576.408 207.935C576.183 207.905 575.968 207.819 575.785 207.684C575.602 207.549 575.456 207.37 575.36 207.164C575.264 206.958 575.222 206.731 575.237 206.504Z" fill="#6F95C9"/>
<g opacity="0.4">
<path d="M588.668 198.559C587.425 199.059 586.411 198.559 586.398 197.532C586.472 196.895 586.72 196.29 587.116 195.784C587.512 195.279 588.04 194.892 588.641 194.668C589.884 194.168 590.897 194.668 590.911 195.695C590.837 196.332 590.588 196.937 590.193 197.443C589.797 197.948 589.269 198.334 588.668 198.559Z" fill="#263238"/>
</g>
<path d="M597.478 190.195C596.856 190.425 596.302 190.195 596.261 189.574C596.266 189.255 596.369 188.945 596.558 188.688C596.747 188.432 597.012 188.24 597.315 188.142C597.937 187.925 598.491 188.209 598.531 188.777C598.529 189.094 598.425 189.403 598.236 189.658C598.046 189.913 597.781 190.101 597.478 190.195Z" fill="#6F95C9"/>
<g opacity="0.3">
<path d="M597.478 190.195C596.856 190.425 596.302 190.195 596.261 189.574C596.266 189.255 596.369 188.945 596.558 188.688C596.747 188.432 597.012 188.24 597.315 188.142C597.937 187.925 598.491 188.209 598.531 188.777C598.529 189.094 598.425 189.403 598.236 189.658C598.046 189.913 597.781 190.101 597.478 190.195Z" fill="#263238"/>
</g>
<path d="M561.064 258.388C537.554 263.725 513.112 263.657 487.899 259.199C486.409 258.917 485.075 258.095 484.152 256.891C483.23 255.687 482.784 254.185 482.9 252.673C483.076 250.146 483.346 247.025 483.67 243.39L484.238 236.756C485.143 225.866 486.183 211.935 486.494 196.843C486.494 194.141 486.562 191.439 486.562 188.655C486.562 187.304 486.562 185.818 486.562 184.399C486.562 182.237 486.562 180.062 486.44 177.887C486.208 167.67 485.396 157.475 484.008 147.351C483.757 145.776 483.82 144.167 484.194 142.616C484.569 141.066 485.247 139.606 486.189 138.319C487.131 137.032 488.319 135.945 489.684 135.121C491.049 134.296 492.564 133.75 494.142 133.515C497.303 133.096 500.776 132.745 504.208 132.569C513.585 132.008 522.988 132.008 532.366 132.569C535.384 132.85 538.384 133.301 541.351 133.92C545.985 134.92 551.214 138.676 553.146 143.135C562.834 165.591 562.496 216.327 563.28 250.565C563.321 253.578 563.874 257.753 561.064 258.388Z" fill="#263238"/>
<path opacity="0.2" d="M499.168 165.672C495.709 175.846 491.926 185.629 486.535 193.587C486.535 192.236 486.535 185.777 486.535 184.358C486.535 182.197 486.535 180.021 486.413 177.846L499.168 165.672Z" fill="black"/>
<path d="M554.994 112.823C555.56 107.195 551.805 102.21 546.608 101.687C541.411 101.165 536.739 105.304 536.173 110.932C535.607 116.559 539.362 121.545 544.559 122.068C549.757 122.59 554.429 118.451 554.994 112.823Z" fill="#263238"/>
<g opacity="0.2">
<path d="M554.994 112.823C555.56 107.195 551.805 102.209 546.608 101.687C541.411 101.164 536.739 105.303 536.173 110.931C535.607 116.559 539.362 121.545 544.559 122.068C549.757 122.59 554.429 118.451 554.994 112.823Z" fill="white"/>
</g>
<path d="M522.327 89.6971C522.327 89.6971 525.272 81.374 527.731 82.1306C530.19 82.8873 528.731 85.8868 528.731 85.8868C528.731 85.8868 533.001 79.9823 535.595 80.4012C538.189 80.82 537.338 83.9547 537.338 83.9547C537.338 83.9547 543.215 81.374 544.891 82.9819C546.566 84.5897 543.81 86.4273 543.81 86.4273C543.81 86.4273 551.728 85.1572 552.917 87.0353C554.106 88.9134 549.796 89.7376 549.796 89.7376C549.796 89.7376 556.457 90.6429 556.457 94.0883C556.479 94.5233 556.401 94.9577 556.228 95.3576C556.055 95.7576 555.793 96.1124 555.461 96.3946C555.129 96.6768 554.737 96.8788 554.314 96.985C553.892 97.0911 553.451 97.0986 553.025 97.0067C553.025 97.0067 557.429 100.858 556.457 103.222C555.484 105.587 552.592 103.898 552.592 103.898C552.592 103.898 552.944 109.059 549.809 108.019C547.834 107.308 546.12 106.018 544.891 104.316L522.327 89.6971Z" fill="#263238"/>
<path d="M539.108 88.481C536.751 87.4893 534.214 86.9944 531.657 87.0269C529.1 87.0594 526.577 87.6188 524.245 88.6701C521.192 90.0213 518.489 92.3453 518.395 95.9123C518.453 103.383 518.931 110.844 519.827 118.26L548.512 106.87C548.512 106.87 550.768 99.3577 548.052 94.5341C546.593 92.021 542.58 89.9132 539.108 88.481Z" fill="#263238"/>
<path d="M531.582 129.191V129.286L529.609 133.798C529.356 134.731 529.193 135.686 529.123 136.649C529.069 137.428 529.069 138.209 529.123 138.987C529.866 141.243 529.934 143.864 526.245 143.311C521.597 142.608 514.085 134.488 514.085 132.393C517.233 126.367 520.178 119.22 520.84 113.099L525.245 119.665L531.582 129.191Z" fill="#CE7A63"/>
<g opacity="0.2">
<path d="M531.528 129.286L529.555 133.798C526.853 132.028 524.245 128.691 524.029 125.475C523.894 123.165 525.218 121.233 526.15 121.26L531.528 129.286Z" fill="black"/>
</g>
<path d="M544.837 121.233C544.404 122.219 543.945 123.178 543.485 124.124C539.175 132.461 528.204 131.569 522.462 124.043C521.958 123.357 521.506 122.635 521.11 121.881C517.706 115.571 519.462 111.396 521.637 101.614C522.118 99.3439 523.17 97.2341 524.696 95.4855C526.221 93.7368 528.168 92.4073 530.352 91.6233C532.536 90.8393 534.884 90.6269 537.174 91.0063C539.463 91.3858 541.617 92.3443 543.431 93.791C550.849 99.736 549.201 111.41 544.837 121.233Z" fill="#CE7A63"/>
<path d="M538.122 121.895H538.392C538.43 121.899 538.469 121.894 538.506 121.883C538.542 121.871 538.576 121.852 538.605 121.827C538.634 121.801 538.658 121.77 538.675 121.736C538.691 121.701 538.701 121.663 538.703 121.625C538.704 121.586 538.698 121.547 538.685 121.51C538.672 121.473 538.651 121.439 538.625 121.41C538.599 121.382 538.567 121.358 538.532 121.342C538.496 121.325 538.458 121.316 538.419 121.314C537.836 121.282 537.266 121.133 536.744 120.874C536.221 120.616 535.756 120.254 535.377 119.81C534.998 119.367 534.713 118.851 534.539 118.295C534.365 117.738 534.306 117.152 534.365 116.571C534.369 116.532 534.365 116.493 534.352 116.456C534.339 116.419 534.319 116.386 534.292 116.357C534.265 116.329 534.232 116.307 534.196 116.293C534.16 116.278 534.121 116.272 534.082 116.274C534.043 116.272 534.004 116.278 533.967 116.291C533.93 116.305 533.896 116.325 533.867 116.352C533.838 116.378 533.815 116.41 533.799 116.445C533.782 116.48 533.773 116.519 533.771 116.558C533.642 117.842 534.028 119.125 534.844 120.125C535.659 121.125 536.838 121.762 538.122 121.895Z" fill="#263238"/>
<path d="M521.286 102.519C521.286 102.519 524.245 103.127 523.988 105.681C523.732 108.235 523.407 108.546 523.407 108.546L526.799 109.816C526.799 109.816 527.312 99.9658 529.852 100.479C532.393 100.993 530.285 96.2096 531.92 95.8177C535.77 94.8855 545.661 96.3042 548.566 102.83C548.39 99.1126 546.856 95.5886 544.256 92.9263C540.054 89.0485 530.744 86.9407 526.191 90.9806C521.637 95.0206 521.286 102.519 521.286 102.519Z" fill="#263238"/>
<path d="M515.584 106.816C515.588 108.06 515.837 109.291 516.317 110.439C516.797 111.587 517.498 112.628 518.381 113.504C520.759 115.828 523.543 114.085 524.218 111.018C524.826 108.235 524.313 103.695 521.286 102.52C520.62 102.277 519.903 102.205 519.201 102.309C518.5 102.414 517.835 102.693 517.269 103.12C516.702 103.547 516.251 104.108 515.957 104.754C515.663 105.4 515.535 106.108 515.584 106.816Z" fill="#CE7A63"/>
<path d="M535.446 109.437C535.217 110.221 535.446 110.964 535.96 111.113C536.473 111.261 537.054 110.748 537.311 109.978C537.568 109.208 537.311 108.437 536.797 108.302C536.284 108.167 535.689 108.667 535.446 109.437Z" fill="#263238"/>
<path d="M544.012 111.802C543.783 112.585 544.012 113.342 544.526 113.491C545.039 113.639 545.634 113.126 545.877 112.342C546.12 111.559 545.877 110.815 545.364 110.667C544.85 110.518 544.269 111.032 544.012 111.802Z" fill="#263238"/>
<path d="M547.12 110.275C547.052 110.256 546.99 110.218 546.942 110.165C546.894 110.113 546.862 110.048 546.85 109.978C546.799 109.704 546.694 109.444 546.541 109.212C546.388 108.98 546.189 108.781 545.958 108.627C545.459 108.369 544.886 108.292 544.337 108.411C544.285 108.429 544.23 108.436 544.176 108.432C544.121 108.428 544.068 108.413 544.02 108.387C543.972 108.361 543.93 108.325 543.896 108.282C543.862 108.239 543.838 108.19 543.825 108.137C543.812 108.083 543.81 108.028 543.819 107.974C543.828 107.92 543.849 107.869 543.879 107.824C543.91 107.778 543.949 107.74 543.995 107.71C544.042 107.681 544.093 107.662 544.148 107.654C544.898 107.476 545.687 107.582 546.363 107.951C546.691 108.157 546.972 108.43 547.188 108.751C547.405 109.072 547.552 109.435 547.62 109.816C547.641 109.918 547.621 110.024 547.566 110.112C547.511 110.2 547.423 110.263 547.323 110.289L547.12 110.275Z" fill="#263238"/>
<path d="M533.703 106.735C533.646 106.717 533.595 106.684 533.555 106.64C533.481 106.567 533.44 106.467 533.44 106.364C533.44 106.26 533.481 106.16 533.555 106.087C534.088 105.527 534.81 105.185 535.581 105.127C535.968 105.122 536.352 105.197 536.708 105.349C537.063 105.5 537.384 105.723 537.649 106.005C537.719 106.081 537.758 106.18 537.758 106.282C537.758 106.385 537.719 106.484 537.649 106.559C537.573 106.634 537.471 106.675 537.365 106.675C537.259 106.675 537.157 106.634 537.081 106.559C536.892 106.353 536.663 106.188 536.407 106.074C536.151 105.96 535.875 105.9 535.595 105.897C535.034 105.952 534.511 106.206 534.122 106.613C534.071 106.672 534.005 106.714 533.93 106.735C533.856 106.757 533.777 106.757 533.703 106.735Z" fill="#263238"/>
<path d="M540.378 110.815C540.705 113.234 541.383 115.592 542.391 117.814C542.567 118.139 538.919 118.206 538.919 118.206L540.378 110.815Z" fill="#BA4D3C"/>
<path d="M518.206 142.595C519.449 159.443 520.381 176.373 520.381 193.263C520.381 197.532 520.381 201.815 520.07 206.085C520.07 206.625 520.881 206.625 520.922 206.085C521.908 189.25 520.922 172.225 519.908 155.417C519.651 151.147 519.368 146.864 519.057 142.595C519.057 142.054 518.165 142.054 518.206 142.595Z" fill="white"/>
<path d="M533.352 142.703C535.176 159.497 536.703 176.373 537.311 193.249C537.459 197.532 537.554 201.802 537.446 206.085C537.446 206.625 538.284 206.598 538.297 206.085C538.689 189.223 537.081 172.239 535.5 155.485C535.095 151.215 534.645 146.954 534.149 142.703C534.082 142.162 533.244 142.189 533.298 142.703H533.352Z" fill="white"/>
<path d="M525.367 100.141C525.367 100.141 546.674 104.6 549.85 107.978C551.93 110.194 549.755 115.464 548.498 117.355C547.661 118.598 543.094 118.571 541.918 116.409C540.743 114.247 541.094 114.369 539.919 113.829C538.743 113.288 537.608 114.734 535.69 114.801C533.771 114.869 529.312 113.356 528.38 110.843C527.447 108.329 528.312 107.127 526.204 106.559L522.813 105.735C522.502 105.664 522.208 105.529 521.951 105.339C521.694 105.15 521.478 104.91 521.318 104.634C521.157 104.358 521.054 104.052 521.016 103.735C520.978 103.417 521.006 103.096 521.097 102.79C521.475 101.52 522.164 100.087 523.381 99.8442L525.367 100.141Z" fill="#6F95C9"/>
<g opacity="0.4">
<path d="M547.976 110.206L533.785 105.699C532.96 105.437 532.078 105.894 531.816 106.719L531.775 106.847C531.513 107.672 531.97 108.554 532.795 108.816L546.986 113.323C547.811 113.585 548.692 113.128 548.954 112.303L548.995 112.175C549.257 111.35 548.801 110.468 547.976 110.206Z" fill="black"/>
</g>
<path d="M510.423 103.33C510.396 105.164 510.904 106.967 511.883 108.518C512.862 110.069 514.272 111.301 515.939 112.066C517.607 112.83 519.461 113.093 521.275 112.822C523.089 112.552 524.786 111.759 526.158 110.542C527.53 109.324 528.518 107.734 529.002 105.965C529.487 104.195 529.446 102.323 528.885 100.577C528.325 98.8302 527.268 97.2843 525.845 96.1275C524.421 94.9707 522.692 94.2528 520.867 94.0613C518.253 93.9062 515.685 94.7954 513.726 96.5335C511.768 98.2716 510.579 100.716 510.423 103.33Z" fill="#263238"/>
<g opacity="0.2">
<path d="M510.423 103.33C510.396 105.164 510.904 106.967 511.883 108.518C512.862 110.069 514.272 111.301 515.939 112.066C517.607 112.83 519.461 113.093 521.275 112.822C523.089 112.552 524.786 111.759 526.158 110.542C527.53 109.324 528.518 107.734 529.002 105.965C529.487 104.195 529.446 102.323 528.885 100.577C528.325 98.8302 527.268 97.2843 525.845 96.1275C524.421 94.9707 522.692 94.2528 520.867 94.0613C518.253 93.9062 515.685 94.7954 513.726 96.5335C511.768 98.2716 510.579 100.716 510.423 103.33Z" fill="white"/>
</g>
<g opacity="0.2">
<path d="M511.261 103.209C511.233 104.451 511.568 105.675 512.225 106.73C512.882 107.785 513.832 108.626 514.959 109.149C516.087 109.673 517.343 109.856 518.573 109.676C519.802 109.497 520.953 108.963 521.884 108.139C522.815 107.316 523.486 106.238 523.814 105.04C524.142 103.841 524.114 102.572 523.732 101.389C523.35 100.206 522.632 99.1605 521.664 98.3797C520.697 97.5989 519.523 97.1171 518.287 96.9933C516.531 96.8861 514.804 97.4806 513.487 98.6462C512.169 99.8117 511.368 101.453 511.261 103.209Z" fill="white"/>
</g>
<path d="M522.381 95.5745L521.421 95.3313C521.421 95.2367 524.016 85.6436 537.297 83.4683L537.446 84.4411C524.813 86.5083 522.394 95.4799 522.381 95.5745Z" fill="white"/>
<path d="M600.963 204.49C600.429 205.018 599.714 205.322 598.964 205.342C596.059 205.855 587.357 207.22 586.682 205.585C585.885 203.612 589.289 202.693 589.289 202.693C588.019 202.279 586.933 201.434 586.22 200.304C585.507 199.174 585.212 197.83 585.385 196.505C586.02 192.046 597.45 189.749 601.125 190.425C602.301 190.668 604.112 200.207 600.963 204.49Z" fill="#CE7A63"/>
<path d="M480.076 214.543C487.359 219.61 496.614 224.001 505.437 228.055L502.181 240.35C496.825 239.666 491.517 238.642 486.292 237.283C480.875 235.928 475.583 234.121 470.47 231.878C467.643 230.583 464.931 229.051 462.363 227.298C460.817 226.256 459.37 225.076 458.039 223.771C456.394 222.18 454.988 220.36 453.864 218.367C453.553 217.772 453.242 217.178 452.959 216.502L452.756 216.002L452.648 215.746L452.526 215.367C452.364 214.867 452.229 214.354 452.094 213.84C451.767 212.327 451.613 210.781 451.635 209.233C451.676 207.165 451.92 205.106 452.364 203.085C453.036 200.026 453.94 197.022 455.066 194.1C457.011 188.924 459.239 183.858 461.741 178.927C464.137 174.126 466.65 169.455 469.281 164.915C474.537 155.768 480.009 147.04 486.17 138.379L507.356 152.877C502.073 161.159 496.547 169.671 491.304 178.062C488.683 182.278 486.102 186.493 483.657 190.695C481.211 194.897 478.887 199.099 476.996 203.126C476.141 204.917 475.383 206.753 474.726 208.625C474.577 209.03 474.469 209.422 474.388 209.692C474.688 210.065 475.008 210.422 475.347 210.76C476.801 212.167 478.385 213.433 480.076 214.543Z" fill="#263238"/>
<path d="M502.465 226.812L499.168 240.12L508.194 243.701C508.194 243.701 513.855 235.418 514.112 232.554C514.368 229.689 502.465 226.812 502.465 226.812Z" fill="#CE7A63"/>
<path d="M504.424 219.718C504.424 219.718 505.897 236.405 500.262 242.971C500.262 242.971 530.893 252.848 553.525 242.971C553.525 242.971 557.348 229.96 553.525 219.718C537.273 222.458 520.676 222.458 504.424 219.718Z" fill="#263238"/>
<path opacity="0.1" d="M504.424 219.718C504.424 219.718 505.897 236.405 500.262 242.971C500.262 242.971 530.893 252.848 553.525 242.971C553.525 242.971 557.348 229.96 553.525 219.718C537.273 222.458 520.676 222.458 504.424 219.718Z" fill="#F0F0F0"/>
<path d="M158.652 160.781C157.422 161.011 156.49 161.159 155.436 161.321L152.369 161.713C150.315 161.916 148.315 162.091 146.221 162.186C142.069 162.4 137.908 162.346 133.764 162.024C131.656 161.862 129.521 161.592 127.373 161.227C125.175 160.881 123 160.403 120.86 159.795C118.593 159.155 116.376 158.351 114.226 157.389C113.086 156.873 111.976 156.291 110.902 155.647C110.362 155.336 109.808 154.971 109.267 154.606L108.457 154.052L108.105 153.795L107.686 153.471C107.45 153.291 107.225 153.097 107.011 152.89C105.887 151.819 104.889 150.622 104.038 149.323C103.349 148.296 102.768 147.323 102.241 146.378C101.174 144.486 100.282 142.635 99.4309 140.797C97.7149 137.149 96.2287 133.515 94.8235 129.867C92.0131 122.57 88.2975 112.113 87.7705 105.735C88.5812 102.898 91.3916 103.965 96.0666 104.208C99.7552 110.829 103.457 117.504 107.173 124.016C109.038 127.259 110.929 130.488 112.834 133.542C113.794 135.069 114.793 136.555 115.753 137.892C116.226 138.555 116.712 139.176 117.104 139.689C117.496 140.203 118.009 140.635 117.901 140.446L117.779 140.311L117.631 140.203L118.05 140.406C118.32 140.551 118.6 140.677 118.887 140.784C119.455 141.041 120.103 141.243 120.739 141.473C122.143 141.93 123.579 142.282 125.035 142.527C128.259 143.072 131.521 143.361 134.79 143.392C138.182 143.486 141.681 143.392 145.194 143.148C146.937 143.027 148.707 142.905 150.464 142.716L153.071 142.459L155.531 142.189L158.652 160.781Z" fill="#263238"/>
<path d="M98.2555 95.8313C98.3711 97.4159 98.2018 99.0084 97.7555 100.533L95.7829 106.546C95.6883 108.964 89.0271 109.073 87.9732 106.397L85.4331 99.2497C83.3793 96.2501 81.2445 91.1428 81.3796 87.292C81.4356 85.5231 81.6299 83.7612 81.9606 82.0226C82.0372 81.6321 82.1992 81.2633 82.4348 80.9426C82.6705 80.622 82.9741 80.3573 83.3239 80.1675C83.6737 79.9778 84.0611 79.8676 84.4584 79.845C84.8557 79.8223 85.2531 79.8877 85.6222 80.0364C88.5906 81.0809 91.2935 82.7645 93.54 84.9681C93.4723 84.1263 93.5315 83.2791 93.7156 82.4549C94.2966 80.9687 96.0126 84.0763 97.8636 87.3191C99.1202 89.5079 98.6338 93.4803 98.2555 95.8313Z" fill="#FFC3BD"/>
<path d="M85.0007 102.046L92.1212 100.222C92.821 99.8971 93.4109 99.375 93.8188 98.72C94.2267 98.0649 94.435 97.3052 94.4182 96.5338L93.6345 78.023C93.6345 77.0097 93.013 76.4557 92.2834 76.6719L85.1223 78.4824C84.4288 78.8158 83.8445 79.3398 83.4378 79.9929C83.031 80.6461 82.8186 81.4016 82.8254 82.1711L83.609 100.682C83.6225 101.695 84.2035 102.249 85.0007 102.046Z" fill="#263238"/>
<g opacity="0.3">
<path d="M85.0007 102.046L92.1212 100.222C92.821 99.8971 93.4109 99.375 93.8188 98.72C94.2267 98.0649 94.435 97.3052 94.4182 96.5338L93.6345 78.023C93.6345 77.0097 93.013 76.4557 92.2834 76.6719L85.1223 78.4824C84.4288 78.8158 83.8445 79.3398 83.4378 79.9929C83.031 80.6461 82.8186 81.4016 82.8254 82.1711L83.609 100.682C83.6225 101.695 84.2035 102.249 85.0007 102.046Z" fill="white"/>
</g>
<path d="M85.7167 101.871L92.8373 100.033C93.5381 99.7132 94.1295 99.1942 94.5378 98.5408C94.9462 97.8874 95.1536 97.1285 95.1343 96.3582L94.3641 77.8475C94.3641 76.8341 93.7291 76.2802 92.9319 76.4964L85.8113 78.3204C85.1119 78.6449 84.5229 79.1672 84.1171 79.8227C83.7113 80.4783 83.5065 81.2383 83.5279 82.009L84.298 100.506C84.3386 101.52 84.9196 102.074 85.7167 101.871Z" fill="#263238"/>
<g opacity="0.4">
<path d="M85.6898 100.425L84.9197 81.9008C84.9204 81.4487 85.0346 81.004 85.2518 80.6074C85.469 80.2108 85.7822 79.8751 86.1627 79.6309L92.9185 77.8879L93.6886 96.3851C93.6879 96.8373 93.5737 97.282 93.3565 97.6786C93.1393 98.0752 92.8261 98.4109 92.4456 98.6551L85.6898 100.425Z" fill="white"/>
</g>
<path d="M178.554 408.135L203.348 420.336L204.064 429.591L173.906 423.011L178.554 408.135Z" fill="#FFC3BD"/>
<path d="M201.726 426.443C201.217 426.868 200.831 427.422 200.61 428.048C200.389 428.673 200.34 429.346 200.47 429.997C201.105 431.902 204.293 434.294 204.293 434.294C204.293 434.294 207.644 444.684 207.82 447.521C207.996 450.359 209.59 452.777 215.116 453.574L215.224 418.999C215.224 418.999 202.74 418.269 200.605 418.161C198.47 418.053 201.118 421.309 201.118 421.309L201.726 426.443Z" fill="#263238"/>
<path d="M205.374 418.62C206.024 419.91 207.156 420.89 208.526 421.348C209.895 421.806 211.389 421.705 212.684 421.066C212.995 420.904 213.265 421.363 212.941 421.512C211.532 422.23 209.896 422.36 208.392 421.874C206.887 421.387 205.637 420.324 204.915 418.917C204.739 418.62 205.212 418.323 205.374 418.62Z" fill="white"/>
<path d="M213.225 419.174L213.427 446.4V452.629C213.427 452.966 212.9 452.993 212.9 452.629L212.698 425.403V419.174C212.698 418.836 213.225 418.809 213.225 419.174Z" fill="white"/>
<path d="M206.469 432.956C206.065 433.209 205.719 433.544 205.451 433.939C205.184 434.334 205.002 434.78 204.917 435.249C204.832 435.718 204.845 436.2 204.957 436.663C205.068 437.127 205.275 437.562 205.564 437.942C205.766 438.212 205.293 438.496 205.091 438.239C204.766 437.797 204.536 437.293 204.416 436.758C204.296 436.224 204.287 435.67 204.391 435.132C204.495 434.594 204.71 434.083 205.021 433.632C205.332 433.181 205.733 432.799 206.199 432.51C206.482 432.294 206.753 432.753 206.469 432.956Z" fill="white"/>
<path d="M207.361 435.901C206.956 436.154 206.608 436.488 206.34 436.882C206.071 437.276 205.888 437.722 205.801 438.192C205.715 438.661 205.727 439.143 205.838 439.607C205.948 440.071 206.154 440.507 206.442 440.887C206.658 441.157 206.185 441.441 205.982 441.184C205.658 440.743 205.428 440.239 205.308 439.704C205.188 439.169 205.179 438.616 205.283 438.078C205.387 437.539 205.602 437.029 205.913 436.577C206.224 436.126 206.625 435.744 207.09 435.455C207.374 435.239 207.644 435.699 207.361 435.901Z" fill="white"/>
<path d="M208.252 438.928C207.846 439.179 207.497 439.512 207.227 439.906C206.957 440.301 206.773 440.747 206.687 441.217C206.6 441.687 206.613 442.169 206.724 442.634C206.836 443.098 207.043 443.534 207.334 443.914C207.55 444.17 207.077 444.468 206.874 444.197C206.55 443.757 206.321 443.254 206.2 442.72C206.08 442.187 206.072 441.634 206.176 441.097C206.28 440.56 206.494 440.05 206.805 439.6C207.116 439.15 207.517 438.769 207.982 438.482C208.266 438.266 208.536 438.712 208.252 438.928Z" fill="white"/>
<path d="M185.283 429.592C185.373 429.599 185.461 429.626 185.54 429.673C184.378 428.511 178.892 428.497 177.433 427.889C140.979 413.351 95.6747 376.451 91.1214 353.9C87.9191 338.146 113.969 271.872 127.008 234.162C127.764 231.973 128.476 229.951 129.143 228.095C129.926 225.879 130.642 223.92 131.264 222.285L155.706 233.675L157.976 234.729L161.111 236.188C161.111 236.188 159.881 240.445 157.882 247.484C148.775 279.614 125.697 349.914 129.913 356.589C131.642 359.291 190.904 412.54 190.904 412.54L185.283 429.592Z" fill="#6F95C9"/>
<path d="M188.026 408.041L178.77 430.727L186.121 432.632L194.943 411.405L188.026 408.041Z" fill="#263238"/>
<g opacity="0.2">
<path d="M145.829 261.752L121.914 393.624C118.928 391.368 112.726 385.261 108.673 381.194C108.673 381.194 106.146 379.126 106.376 372.087C107.132 348.334 145.829 261.752 145.829 261.752Z" fill="black"/>
</g>
<g opacity="0.2">
<path d="M94.3507 355.13C97.1615 356.359 100.327 356.509 103.241 355.549C103.347 355.511 103.433 355.433 103.482 355.332C103.53 355.23 103.536 355.114 103.498 355.008C103.46 354.902 103.382 354.816 103.281 354.768C103.18 354.72 103.063 354.714 102.957 354.751C100.256 355.637 97.3243 355.502 94.7155 354.373C94.2156 354.157 93.8373 354.914 94.3507 355.13Z" fill="black"/>
</g>
<path opacity="0.2" d="M144.749 370.668L147.275 372.992L152.18 415.188L145.829 411.229L144.749 370.668Z" fill="black"/>
<g opacity="0.2">
<path d="M135.79 229.068C135.162 232.84 133.728 236.431 131.585 239.598C129.442 242.764 126.641 245.431 123.373 247.416C122.819 247.754 123.373 248.633 123.887 248.295C127.261 246.244 130.157 243.496 132.38 240.233C134.604 236.97 136.103 233.269 136.777 229.379C136.885 228.744 135.898 228.46 135.79 229.108V229.068Z" fill="black"/>
</g>
<path d="M151.869 467.221L154.45 490.947L144.478 491.758L136.655 468.423L151.869 467.221Z" fill="#FFC3BD"/>
<path d="M146.681 489.42C146.256 488.911 145.702 488.525 145.076 488.304C144.451 488.083 143.778 488.034 143.127 488.164C141.222 488.812 138.844 492.001 138.844 492.001C138.844 492.001 128.467 495.352 125.657 495.568C122.846 495.784 120.401 497.365 119.631 502.891H154.166C154.166 502.891 154.869 490.407 154.963 488.258C155.058 486.11 151.815 488.799 151.815 488.799L146.681 489.42Z" fill="#263238"/>
<path d="M154.517 493.001C153.875 493.318 153.302 493.76 152.832 494.3C152.361 494.841 152.003 495.469 151.778 496.15C151.553 496.83 151.466 497.548 151.521 498.262C151.576 498.977 151.772 499.673 152.099 500.311C152.261 500.621 151.815 500.892 151.653 500.581C150.932 499.173 150.798 497.538 151.279 496.032C151.76 494.525 152.817 493.271 154.22 492.542C154.517 492.366 154.815 492.825 154.517 493.001Z" fill="white"/>
<path d="M154.031 500.892L126.805 501.175L120.576 501.243C120.239 501.243 120.212 500.716 120.576 500.702L147.802 500.419H154.031C154.369 500.419 154.396 500.946 154.031 500.946V500.892Z" fill="white"/>
<path d="M140.182 494.176C139.928 493.772 139.593 493.425 139.198 493.158C138.803 492.891 138.356 492.71 137.886 492.626C137.417 492.542 136.935 492.557 136.471 492.67C136.008 492.784 135.573 492.993 135.196 493.285C134.939 493.487 134.642 493.028 134.899 492.825C135.338 492.497 135.84 492.264 136.374 492.141C136.908 492.017 137.462 492.006 138 492.108C138.539 492.209 139.05 492.422 139.503 492.731C139.955 493.041 140.338 493.441 140.627 493.906C140.844 494.19 140.398 494.46 140.182 494.176Z" fill="white"/>
<path d="M137.25 495.082C136.996 494.677 136.661 494.33 136.266 494.063C135.871 493.796 135.424 493.615 134.954 493.531C134.485 493.447 134.003 493.462 133.539 493.576C133.076 493.689 132.642 493.898 132.264 494.19C132.007 494.393 131.71 493.92 131.967 493.717C132.407 493.392 132.911 493.161 133.445 493.04C133.979 492.919 134.532 492.909 135.07 493.012C135.608 493.115 136.119 493.327 136.571 493.637C137.023 493.947 137.406 494.347 137.696 494.811C137.912 495.095 137.466 495.352 137.25 495.082Z" fill="white"/>
<path d="M134.223 495.973C133.968 495.571 133.633 495.225 133.237 494.96C132.842 494.694 132.396 494.513 131.927 494.429C131.458 494.345 130.976 494.36 130.513 494.472C130.05 494.585 129.616 494.792 129.237 495.082C128.981 495.284 128.683 494.825 128.94 494.622C129.384 494.308 129.887 494.086 130.418 493.97C130.95 493.854 131.499 493.846 132.034 493.947C132.568 494.048 133.077 494.256 133.53 494.557C133.983 494.859 134.37 495.249 134.669 495.703C134.885 495.987 134.439 496.257 134.223 495.973Z" fill="white"/>
<path d="M190.12 253.997C183.634 292.477 143.6 360.035 143.6 360.035C143.6 364.547 146.302 379.478 146.978 389.611C147.586 398.542 148.329 408.865 149.221 419.161C151.491 446.886 154.044 474.45 154.044 474.45L136.304 475.801C136.304 475.801 122.954 437.401 116.672 403.379C114.267 390.449 110.646 371.587 111.362 362.278C113.294 337.43 142.438 273.223 153.112 245.782C155.814 238.891 157.476 234.729 157.476 234.729H160.787H188.958C190.108 236.67 190.784 238.855 190.931 241.107C191.209 245.42 190.937 249.752 190.12 253.997Z" fill="#6F95C9"/>
<path d="M156.355 467.991L132.075 471.193L134.061 478.53L156.868 475.666L156.355 467.991Z" fill="#263238"/>
<g opacity="0.2">
<path d="M114.726 365.439C117.514 366.725 120.674 366.951 123.616 366.074C123.724 366.044 123.815 365.972 123.869 365.874C123.924 365.777 123.937 365.661 123.907 365.554C123.877 365.446 123.805 365.355 123.707 365.301C123.609 365.246 123.494 365.233 123.387 365.263C120.668 366.085 117.743 365.888 115.158 364.709C114.672 364.48 114.24 365.209 114.726 365.439Z" fill="black"/>
</g>
<g opacity="0.2">
<path d="M173.663 239.418C172.205 241.795 171.263 244.452 170.897 247.217C170.531 249.982 170.75 252.793 171.54 255.468C172.33 258.143 173.673 260.622 175.481 262.745C177.29 264.868 179.525 266.587 182.04 267.792C182.621 268.075 183.135 267.197 182.554 266.913C180.149 265.776 178.012 264.144 176.281 262.124C174.55 260.104 173.265 257.742 172.509 255.192C171.753 252.642 171.543 249.961 171.893 247.325C172.243 244.688 173.146 242.155 174.541 239.89C174.879 239.337 174.001 238.823 173.663 239.377V239.418Z" fill="black"/>
</g>
<path d="M212.954 170.59C197.038 201.667 194.268 229.811 195.119 245.174C184.65 245.223 174.199 244.318 163.894 242.471C156.406 241.187 149.002 239.455 141.722 237.283C139.655 236.661 137.668 236.013 135.993 235.378C129.44 232.973 125.495 230.541 126.035 228.69C131.44 210.071 135.304 194.776 136.615 184.102C126.238 172.563 138.236 168.064 140.56 155.876C142.33 146.567 151.788 140.419 162.178 141.635C163.894 141.838 165.651 142.068 167.407 142.311L170.934 142.851C178.066 144.081 185.115 145.755 192.039 147.864L197.065 149.337C199.524 150.053 201.916 150.837 204.158 151.62C212.536 154.566 216.643 163.375 212.954 170.59Z" fill="#263238"/>
<path d="M192.025 147.891C188.742 150.08 185.621 155.674 182.756 162.659C177.771 174.819 173.582 191.182 170.758 201.464C167.488 213.354 167.65 233.148 163.894 242.417C156.407 241.151 149.003 239.436 141.722 237.283C147.018 226.136 151.058 196.816 153.355 178.049C154.214 170.98 156.032 164.062 158.76 157.484C160.926 152.066 163.817 146.966 167.353 142.324L170.88 142.865C178.026 144.097 185.089 145.775 192.025 147.891Z" fill="white"/>
<path d="M192.025 147.891C188.742 150.08 185.621 155.673 182.756 162.659C178.189 166.388 172.731 168.874 166.88 167.469C161.03 166.064 158.976 162.064 158.773 157.498C160.94 152.079 163.83 146.979 167.367 142.338L170.893 142.878C178.035 144.106 185.093 145.781 192.025 147.891Z" fill="#FFC3BD"/>
<path d="M209.279 154.863C214.049 160.335 218.508 165.942 222.885 171.739C225.088 174.644 227.222 177.589 229.357 180.71C230.425 182.305 231.465 183.818 232.654 185.912C233.068 186.648 233.442 187.406 233.775 188.182C234.189 189.219 234.492 190.297 234.681 191.398C234.985 193.381 234.902 195.404 234.438 197.356C233.771 199.965 232.665 202.441 231.168 204.68C229.965 206.544 228.763 208.111 227.574 209.638C225.169 212.624 222.777 215.327 220.372 218.002C216.075 222.758 211.792 227.46 207.415 232.027C206.969 232.499 206.372 232.799 205.727 232.876C205.083 232.952 204.432 232.8 203.888 232.446L199.97 229.905C199.541 229.62 199.229 229.19 199.093 228.693C198.956 228.197 199.004 227.667 199.227 227.203C202.267 221.218 205.469 215.043 208.928 209.463C210.806 206.423 212.725 203.423 214.4 200.545C215.193 199.231 215.919 197.879 216.575 196.492C217.007 195.706 217.278 194.843 217.373 193.951C217.373 193.857 217.237 194.127 217.278 194.587C217.318 195.046 217.643 195.776 217.278 195.154C216.602 194.195 215.562 192.803 214.576 191.506C212.495 188.804 210.252 186.101 208.05 183.399C203.604 177.994 199.064 172.468 194.727 166.929L209.279 154.863Z" fill="#263238"/>
<path d="M199.713 228.446C199.713 228.446 194.876 232.081 192.957 236.067C191.039 240.053 192.471 245.525 193.16 247.565C193.849 249.605 195.754 250.592 198.227 250.686C200.7 250.781 201.51 247.362 202.28 245.038C202.28 245.038 201.889 248.106 202.767 248.349C203.645 248.592 205.32 243.822 205.766 240.026C206.212 236.229 207.036 232.959 206.834 230.46C206.631 227.96 202.807 226.771 199.713 228.446Z" fill="#FFC3BD"/>
<path d="M176.703 139.027L187.647 99.0739C187.647 99.0739 175.703 89.2376 165.083 100.425C156.044 109.991 162.462 120.949 156.612 131.272C154.612 134.812 152.936 136.46 151.815 139.014C157.301 141.554 166.367 140.095 176.703 139.027Z" fill="#6F95C9"/>
<path d="M180.527 140.149C186.35 139.365 193.674 141.108 200.997 141.865C200.848 141.541 199.997 139.5 199.835 139.163C197.93 134.852 204.875 129.556 202.686 123.705C200.497 117.855 200.727 118.463 201.226 111.153C201.861 101.763 185.283 92.7776 182.243 98.8983C182.243 98.8983 179.095 103.749 182.621 113.072C186.148 122.395 186.539 125.421 182.837 128.975C180.149 131.556 180.081 135.731 180.527 140.149Z" fill="#6F95C9"/>
<path d="M173.379 150.931L172.744 150.836C171.974 150.683 171.258 150.329 170.668 149.811C170.078 149.293 169.635 148.629 169.383 147.886C169.131 147.142 169.079 146.345 169.233 145.575C169.387 144.805 169.74 144.09 170.258 143.5C171.136 142.367 171.653 140.998 171.744 139.568C171.876 138.108 171.826 136.638 171.596 135.19L173.866 133.65L185.31 127.056C183.432 133.042 181.135 142.581 184.959 147.161C182.421 149.188 179.381 150.486 176.163 150.917C175.237 151.01 174.305 151.014 173.379 150.931Z" fill="#FFC3BD"/>
<path d="M170.772 159.511C170.189 159.508 169.611 159.417 169.056 159.241C168.397 159.046 167.792 158.7 167.29 158.231C166.788 157.762 166.403 157.182 166.164 156.538C164.286 151.715 169.231 142.892 169.434 142.527C169.455 142.488 169.484 142.453 169.518 142.425C169.553 142.397 169.593 142.376 169.635 142.364C169.678 142.351 169.723 142.347 169.767 142.352C169.811 142.357 169.854 142.37 169.893 142.392C169.97 142.437 170.026 142.51 170.051 142.595C170.076 142.68 170.068 142.772 170.028 142.851C170.028 142.946 165.029 151.769 166.786 156.295C166.991 156.844 167.324 157.337 167.756 157.734C168.187 158.131 168.707 158.42 169.272 158.578C176.217 160.835 185.215 146.053 185.31 145.905C185.356 145.828 185.432 145.772 185.519 145.751C185.607 145.729 185.699 145.743 185.776 145.79C185.853 145.836 185.908 145.912 185.93 145.999C185.951 146.087 185.937 146.179 185.891 146.256C185.54 146.851 177.811 159.511 170.772 159.511Z" fill="white"/>
<g opacity="0.2">
<path d="M171.744 139.568C171.876 138.108 171.826 136.638 171.596 135.19L173.866 133.65L179.095 134.407C179.095 134.407 175.784 139.027 171.744 139.568Z" fill="black"/>
</g>
<path d="M190.85 117.288C187.782 127.11 186.904 129.61 180.689 133.501C171.339 139.365 159.962 135.204 160.084 124.665C160.206 115.207 165.218 100.695 175.784 99.0876C186.35 97.4797 193.93 107.438 190.85 117.274" fill="#FFC3BD"/>
<path d="M190.512 104.871C190.512 104.871 186.458 99.4659 183.053 108.384C181.972 111.167 169.542 106.614 165.488 105.425C161.435 104.235 170.326 97.6959 174.825 96.4664C179.324 95.2368 189.715 101.857 190.512 104.871Z" fill="#6F95C9"/>
<path d="M163.894 122.908C166.67 123.524 169.532 123.657 172.352 123.3C172.352 123.3 169.974 127.124 166.948 126.745C163.921 126.367 163.894 122.908 163.894 122.908Z" fill="white"/>
<path d="M174.217 115.436C174.014 116.247 173.42 116.788 172.866 116.666C172.312 116.544 172.069 115.774 172.271 114.964C172.474 114.153 173.068 113.612 173.622 113.721C174.176 113.829 174.42 114.626 174.217 115.436Z" fill="#263238"/>
<path d="M165.691 113.545C165.489 114.355 164.894 114.896 164.34 114.788C163.786 114.68 163.543 113.883 163.746 113.072C163.948 112.261 164.543 111.721 165.097 111.842C165.651 111.964 165.894 112.734 165.691 113.545Z" fill="#263238"/>
<path d="M165.313 111.937L163.502 110.896C163.502 110.896 164.124 112.666 165.313 111.937Z" fill="#263238"/>
<path d="M168.069 114.328C168.069 114.328 166.137 116.139 164.151 117.639C164.002 117.755 163.882 117.904 163.799 118.073C163.716 118.243 163.673 118.429 163.673 118.618C163.673 118.807 163.716 118.993 163.799 119.163C163.882 119.333 164.002 119.482 164.151 119.598C164.862 120.18 165.637 120.678 166.461 121.084L168.069 114.328Z" fill="#ED847E"/>
<path d="M177 112.977C176.933 112.97 176.868 112.947 176.812 112.909C176.755 112.872 176.709 112.821 176.676 112.761C176.348 112.238 175.903 111.8 175.375 111.481C174.847 111.162 174.251 110.971 173.636 110.924C173.564 110.935 173.491 110.932 173.421 110.912C173.351 110.893 173.286 110.859 173.231 110.812C173.176 110.765 173.131 110.706 173.101 110.64C173.07 110.575 173.054 110.503 173.054 110.43C173.054 110.358 173.07 110.286 173.101 110.22C173.131 110.154 173.176 110.096 173.231 110.049C173.286 110.002 173.351 109.968 173.421 109.948C173.491 109.929 173.564 109.925 173.636 109.937C174.416 109.982 175.173 110.212 175.846 110.609C176.518 111.007 177.085 111.559 177.5 112.221C177.572 112.332 177.596 112.467 177.568 112.596C177.54 112.725 177.462 112.838 177.352 112.91C177.301 112.944 177.243 112.967 177.183 112.979C177.123 112.991 177.06 112.99 177 112.977Z" fill="#263238"/>
<path d="M162.975 109.748C162.855 109.711 162.753 109.629 162.692 109.518C162.658 109.462 162.637 109.399 162.628 109.334C162.62 109.269 162.625 109.203 162.642 109.14C162.66 109.077 162.69 109.018 162.731 108.967C162.772 108.916 162.823 108.874 162.881 108.843C163.552 108.447 164.308 108.217 165.086 108.172C165.864 108.128 166.641 108.27 167.353 108.586C167.411 108.615 167.463 108.655 167.506 108.704C167.548 108.753 167.581 108.81 167.601 108.872C167.621 108.933 167.628 108.998 167.623 109.063C167.618 109.128 167.599 109.191 167.569 109.248C167.509 109.363 167.406 109.45 167.282 109.491C167.158 109.531 167.024 109.521 166.907 109.464C166.339 109.218 165.721 109.111 165.103 109.151C164.485 109.19 163.885 109.377 163.354 109.694C163.294 109.72 163.23 109.733 163.165 109.733C163.099 109.733 163.035 109.72 162.975 109.694" fill="#263238"/>
<path d="M173.852 113.829L172.042 112.775C172.042 112.775 172.663 114.558 173.852 113.829Z" fill="#263238"/>
<path d="M198.821 111.518C197.2 116.544 197.605 118.044 198.727 120.247L189.161 124.678C189.079 124.408 188.431 123.922 187.593 123.219C187.282 122.976 186.958 122.692 186.62 122.381C184.607 120.544 182.283 117.706 183.216 113.923C183.472 112.856 183.661 111.842 183.796 110.897C183.932 109.951 183.999 109.032 184.04 108.194C184.31 104.985 183.674 101.764 182.202 98.8985C184.391 95.2639 201.861 102.168 198.821 111.518Z" fill="#6F95C9"/>
<path d="M190.512 122.908L187.593 123.219C187.282 122.976 186.958 122.692 186.62 122.381C184.607 120.544 182.283 117.706 183.216 113.923C183.472 112.856 183.661 111.842 183.797 110.896C186.782 111.075 189.679 111.975 192.241 113.518C196.281 116.315 190.512 122.908 190.512 122.908Z" fill="#FFC3BD"/>
<g opacity="0.2">
<path d="M190.512 122.908L187.593 123.219C187.282 122.976 186.958 122.692 186.62 122.381C184.607 120.544 182.283 117.706 183.216 113.923C183.472 112.856 183.661 111.842 183.797 110.896C186.782 111.075 189.679 111.975 192.241 113.518C196.281 116.315 190.512 122.908 190.512 122.908Z" fill="black"/>
</g>
<path d="M192.687 125.138C192.114 125.879 191.39 126.49 190.563 126.93C189.736 127.371 188.825 127.63 187.89 127.691C185.512 127.691 185.013 124.989 186.256 122.746C187.364 120.652 189.931 118.112 192.038 119.138C194.146 120.165 194.254 123.192 192.687 125.138Z" fill="#FFC3BD"/>
<path d="M187.269 128.556C187.504 128.789 187.802 128.948 188.127 129.011C188.452 129.075 188.788 129.041 189.093 128.914C189.399 128.787 189.66 128.572 189.843 128.297C190.027 128.021 190.125 127.698 190.125 127.367C190.125 127.036 190.027 126.713 189.843 126.438C189.66 126.162 189.399 125.948 189.093 125.82C188.788 125.693 188.452 125.659 188.127 125.723C187.802 125.787 187.504 125.945 187.269 126.178C187.112 126.334 186.988 126.519 186.903 126.723C186.818 126.927 186.774 127.146 186.774 127.367C186.774 127.588 186.818 127.807 186.903 128.011C186.988 128.215 187.112 128.4 187.269 128.556Z" fill="white"/>
<path d="M159.652 109.654L168.137 111.599C168.137 111.599 166.691 117.152 162.516 117.004C158.341 116.855 159.652 109.654 159.652 109.654Z" fill="#263238"/>
<path d="M169.839 112.113L179.297 113.68C179.297 113.68 177.946 119.274 173.42 119.314C168.893 119.355 169.839 112.113 169.839 112.113Z" fill="#263238"/>
<path d="M170.028 113.369C169.703 112.985 169.281 112.694 168.807 112.525C168.332 112.356 167.821 112.317 167.326 112.41L167.191 111.815C167.803 111.691 168.437 111.736 169.025 111.946C169.613 112.155 170.133 112.521 170.528 113.004L170.028 113.369Z" fill="#263238"/>
<path d="M189.39 119.274C188.964 118.468 188.374 117.76 187.657 117.197C186.94 116.634 186.113 116.227 185.229 116.004C181.932 115.058 178.757 114.234 178.716 114.22L178.878 113.639C178.878 113.639 182.081 114.477 185.391 115.423C186.368 115.663 187.281 116.111 188.069 116.735C188.857 117.36 189.501 118.148 189.958 119.044L189.39 119.274Z" fill="#263238"/>
</svg>
