<svg width="728" height="551" viewBox="0 0 728 551" fill="none" xmlns="http://www.w3.org/2000/svg">
<path d="M647.294 404.285H384.263C382.002 404.282 379.835 403.382 378.236 401.783C376.637 400.184 375.738 398.017 375.734 395.756V12.5408C375.741 10.2823 376.643 8.1188 378.241 6.52319C379.84 4.92758 382.005 4.02971 384.263 4.02588H647.294C649.553 4.02971 651.718 4.92758 653.316 6.52319C654.914 8.1188 655.816 10.2823 655.824 12.5408V395.756C655.82 398.017 654.92 400.184 653.321 401.783C651.722 403.382 649.555 404.282 647.294 404.285ZM384.263 4.38976C383.187 4.38209 382.12 4.58715 381.124 4.99316C380.127 5.39917 379.221 5.99813 378.457 6.7556C377.692 7.51306 377.085 8.4141 376.671 9.40693C376.256 10.3998 376.041 11.4648 376.039 12.5408V395.756C376.039 397.922 376.9 399.998 378.431 401.53C379.962 403.061 382.039 403.921 384.205 403.921H647.294C649.46 403.921 651.537 403.061 653.068 401.53C654.6 399.998 655.46 397.922 655.46 395.756V12.5408C655.46 10.3751 654.6 8.2982 653.068 6.76686C651.537 5.23551 649.46 4.37521 647.294 4.37521L384.263 4.38976Z" fill="#F0F0F0"/>
<path d="M343.916 404.285H80.8263C78.5653 404.281 76.398 403.381 74.7993 401.783C73.2005 400.184 72.3006 398.017 72.2968 395.756V12.5407C72.3006 10.2797 73.2005 8.11246 74.7993 6.51371C76.398 4.91496 78.5653 4.01508 80.8263 4.01123H343.916C346.177 4.01508 348.344 4.91496 349.943 6.51371C351.541 8.11246 352.441 10.2797 352.445 12.5407V395.756C352.441 398.017 351.541 400.184 349.943 401.783C348.344 403.381 346.177 404.281 343.916 404.285ZM80.8263 4.38967C78.6631 4.38967 76.5884 5.24798 75.0575 6.77617C73.5265 8.30437 72.6645 10.3776 72.6607 12.5407V395.756C72.6607 397.921 73.521 399.998 75.0523 401.53C76.5837 403.061 78.6606 403.921 80.8263 403.921H343.916C346.081 403.921 348.158 403.061 349.689 401.53C351.221 399.998 352.081 397.921 352.081 395.756V12.5407C352.081 10.3751 351.221 8.29811 349.689 6.76677C348.158 5.23542 346.081 4.37512 343.916 4.37512L80.8263 4.38967Z" fill="#F0F0F0"/>
<path d="M727.771 493.175H0V493.539H727.771V493.175Z" fill="#E0E0E0"/>
<path d="M693.697 493.175C672.461 474.049 544.285 362.307 464.027 377.183C384.889 391.84 299.551 476.713 283.54 493.175H693.697Z" fill="#E6E6E6"/>
<path d="M477.039 493.175C455.206 463.948 345.327 309.078 262.158 318.248C192.495 325.919 79.8074 462.813 55.6308 493.175H477.039Z" fill="#F5F5F5"/>
<path d="M89.2393 38.7405C89.2393 38.7405 96.517 27.3873 112.95 29.7453C126.516 31.6812 130.591 12.7446 144.972 12.6572C159.833 12.6572 156.442 25.8881 174.752 27.6202C187.634 28.8283 197.779 15.0298 206.774 38.7405H89.2393Z" fill="#F0F0F0"/>
<path d="M524.97 73.3386C524.97 73.3386 532.248 61.9854 548.681 64.3288C562.247 66.2647 566.337 47.3281 580.703 47.2553C595.564 47.168 592.173 60.4862 610.484 62.2037C623.365 63.4264 633.51 49.6133 642.505 73.3386H524.97Z" fill="#F0F0F0"/>
<path d="M337.602 57.2776C341.026 42.8963 332.143 28.4626 317.761 25.0391C303.38 21.6156 288.946 30.4988 285.523 44.8801C282.099 59.2615 290.982 73.6952 305.364 77.1187C319.745 80.5421 334.179 71.659 337.602 57.2776Z" fill="#F0F0F0"/>
<path d="M124.551 247.611C123.503 244.146 119.631 233.856 109.02 231.672C99.268 229.664 90.0981 236.679 84.5233 240.144C78.9486 243.608 74.058 242.807 64.1458 240.231C57.4357 238.499 50.4928 244.19 48.6879 247.611H124.551Z" fill="#F0F0F0"/>
<path d="M274.617 142.375C274.615 142.48 274.578 142.582 274.511 142.663C274.444 142.745 274.352 142.801 274.249 142.823C274.145 142.845 274.038 142.831 273.944 142.784C273.849 142.737 273.774 142.66 273.729 142.564C273.374 141.656 272.768 140.868 271.982 140.291C271.196 139.714 270.262 139.372 269.29 139.304C268.566 139.345 267.845 139.194 267.198 138.867C266.552 138.54 266.003 138.048 265.607 137.441V153.452C260.513 157.716 251.605 154.907 254.152 150.133C256.699 145.359 263.395 150.133 263.395 150.133V130.964H265.607C265.607 130.964 267.805 135.723 271.779 136.102C274.413 136.349 274.704 139.973 274.617 142.375Z" fill="#E0E0E0"/>
<path d="M487.607 85.0412L474.74 78.3457V81.4169V94.8224C474.74 94.8224 470.067 91.4456 468.292 94.8224C466.516 98.1993 472.731 100.121 476.297 97.1367V84.5318L486.064 89.2623V98.4176C486.064 98.4176 481.392 95.0262 479.616 98.4176C477.84 101.809 484.055 103.701 487.607 100.717V84.9975V85.0412ZM485.452 87.079L476.981 83.0471V81.4169L485.452 85.5943V87.079Z" fill="#E0E0E0"/>
<path d="M666.638 540.291C666.638 545.837 526.906 550.334 354.41 550.334C181.914 550.334 42.2107 545.837 42.2107 540.291C42.2107 534.746 181.943 530.233 354.439 530.233C526.935 530.233 666.638 534.731 666.638 540.291Z" fill="#F5F5F5"/>
<path d="M128.699 88.5491C124.74 89.5679 123.692 91.0235 122.877 96.3071C122.861 96.3822 122.82 96.4495 122.76 96.4978C122.701 96.5461 122.626 96.5724 122.549 96.5724C122.473 96.5724 122.398 96.5461 122.339 96.4978C122.279 96.4495 122.238 96.3822 122.222 96.3071C121.45 91.0235 120.402 89.5679 116.4 88.5491C116.289 88.522 116.19 88.4585 116.12 88.3688C116.049 88.279 116.011 88.1683 116.011 88.0542C116.011 87.9401 116.049 87.8293 116.12 87.7396C116.19 87.6498 116.289 87.5863 116.4 87.5593C120.373 86.5404 121.421 85.0849 122.222 79.8012C122.238 79.7262 122.279 79.6589 122.339 79.6106C122.398 79.5623 122.473 79.5359 122.549 79.5359C122.626 79.5359 122.701 79.5623 122.76 79.6106C122.82 79.6589 122.861 79.7262 122.877 79.8012C123.648 85.0849 124.696 86.5404 128.699 87.5593C128.81 87.5863 128.908 87.6498 128.979 87.7396C129.049 87.8293 129.088 87.9401 129.088 88.0542C129.088 88.1683 129.049 88.279 128.979 88.3688C128.908 88.4585 128.81 88.522 128.699 88.5491Z" fill="#0D345F"/>
<g opacity="0.6">
<path d="M128.699 88.5491C124.74 89.5679 123.692 91.0235 122.877 96.3071C122.861 96.3822 122.82 96.4495 122.76 96.4978C122.701 96.5461 122.626 96.5724 122.549 96.5724C122.473 96.5724 122.398 96.5461 122.339 96.4978C122.279 96.4495 122.238 96.3822 122.222 96.3071C121.45 91.0235 120.402 89.5679 116.4 88.5491C116.289 88.522 116.19 88.4585 116.12 88.3688C116.049 88.279 116.011 88.1683 116.011 88.0542C116.011 87.9401 116.049 87.8293 116.12 87.7396C116.19 87.6498 116.289 87.5863 116.4 87.5593C120.373 86.5404 121.421 85.0849 122.222 79.8012C122.238 79.7262 122.279 79.6589 122.339 79.6106C122.398 79.5623 122.473 79.5359 122.549 79.5359C122.626 79.5359 122.701 79.5623 122.76 79.6106C122.82 79.6589 122.861 79.7262 122.877 79.8012C123.648 85.0849 124.696 86.5404 128.699 87.5593C128.81 87.5863 128.908 87.6498 128.979 87.7396C129.049 87.8293 129.088 87.9401 129.088 88.0542C129.088 88.1683 129.049 88.279 128.979 88.3688C128.908 88.4585 128.81 88.522 128.699 88.5491Z" fill="white"/>
</g>
<path d="M82.3691 125.316C78.3955 126.335 77.3475 127.791 76.547 133.074C76.5311 133.149 76.4898 133.217 76.4302 133.265C76.3706 133.313 76.2962 133.34 76.2195 133.34C76.1427 133.34 76.0683 133.313 76.0087 133.265C75.9491 133.217 75.9079 133.149 75.892 133.074C75.1205 127.791 74.0725 126.335 70.0698 125.316C69.959 125.289 69.8605 125.226 69.79 125.136C69.7196 125.046 69.6813 124.935 69.6813 124.821C69.6813 124.707 69.7196 124.596 69.79 124.507C69.8605 124.417 69.959 124.353 70.0698 124.326C74.0289 123.307 75.0769 121.852 75.892 116.568C75.9079 116.493 75.9491 116.426 76.0087 116.378C76.0683 116.329 76.1427 116.303 76.2195 116.303C76.2962 116.303 76.3706 116.329 76.4302 116.378C76.4898 116.426 76.5311 116.493 76.547 116.568C77.3184 121.852 78.3664 123.307 82.3691 124.326C82.48 124.353 82.5785 124.417 82.6489 124.507C82.7194 124.596 82.7577 124.707 82.7577 124.821C82.7577 124.935 82.7194 125.046 82.6489 125.136C82.5785 125.226 82.48 125.289 82.3691 125.316Z" fill="#0D345F"/>
<g opacity="0.6">
<path d="M82.3691 125.316C78.3955 126.335 77.3475 127.791 76.547 133.074C76.5311 133.149 76.4898 133.217 76.4302 133.265C76.3706 133.313 76.2962 133.34 76.2195 133.34C76.1427 133.34 76.0683 133.313 76.0087 133.265C75.9491 133.217 75.9079 133.149 75.892 133.074C75.1205 127.791 74.0725 126.335 70.0698 125.316C69.959 125.289 69.8605 125.226 69.79 125.136C69.7196 125.046 69.6813 124.935 69.6813 124.821C69.6813 124.707 69.7196 124.596 69.79 124.507C69.8605 124.417 69.959 124.353 70.0698 124.326C74.0289 123.307 75.0769 121.852 75.892 116.568C75.9079 116.493 75.9491 116.426 76.0087 116.378C76.0683 116.329 76.1427 116.303 76.2195 116.303C76.2962 116.303 76.3706 116.329 76.4302 116.378C76.4898 116.426 76.5311 116.493 76.547 116.568C77.3184 121.852 78.3664 123.307 82.3691 124.326C82.48 124.353 82.5785 124.417 82.6489 124.507C82.7194 124.596 82.7577 124.707 82.7577 124.821C82.7577 124.935 82.7194 125.046 82.6489 125.136C82.5785 125.226 82.48 125.289 82.3691 125.316Z" fill="white"/>
</g>
<path d="M644.5 167.242C650.935 160.808 650.935 150.375 644.5 143.941C638.066 137.506 627.633 137.506 621.199 143.94C614.764 150.375 614.764 160.808 621.199 167.242C627.633 173.677 638.066 173.677 644.5 167.242Z" fill="#0D345F"/>
<path opacity="0.6" d="M644.5 167.242C650.935 160.808 650.935 150.375 644.5 143.941C638.066 137.506 627.633 137.506 621.199 143.94C614.764 150.375 614.764 160.808 621.199 167.242C627.633 173.677 638.066 173.677 644.5 167.242Z" fill="white"/>
<path d="M629.202 147.105V164.092L640.948 155.591L629.202 147.105Z" fill="white"/>
<path d="M492.148 21.4777V48.7546C492.148 49.3722 491.903 49.9646 491.466 50.4013C491.029 50.8381 490.437 51.0835 489.819 51.0835H461.771C461.153 51.0835 460.561 50.8381 460.124 50.4013C459.687 49.9646 459.442 49.3722 459.442 48.7546V21.4777C459.442 20.8601 459.687 20.2677 460.124 19.831C460.561 19.3942 461.153 19.1489 461.771 19.1489H489.79C490.098 19.145 490.404 19.2024 490.69 19.3177C490.976 19.433 491.236 19.6039 491.456 19.8206C491.675 20.0372 491.849 20.2953 491.968 20.5797C492.087 20.8642 492.148 21.1694 492.148 21.4777Z" fill="#0D345F"/>
<g opacity="0.6">
<path d="M492.148 21.4777V48.7546C492.148 49.3722 491.903 49.9646 491.466 50.4013C491.029 50.8381 490.437 51.0835 489.819 51.0835H461.771C461.153 51.0835 460.561 50.8381 460.124 50.4013C459.687 49.9646 459.442 49.3722 459.442 48.7546V21.4777C459.442 20.8601 459.687 20.2677 460.124 19.831C460.561 19.3942 461.153 19.1489 461.771 19.1489H489.79C490.098 19.145 490.404 19.2024 490.69 19.3177C490.976 19.433 491.236 19.6039 491.456 19.8206C491.675 20.0372 491.849 20.2953 491.968 20.5797C492.087 20.8642 492.148 21.1694 492.148 21.4777Z" fill="white"/>
</g>
<path d="M483.633 36.7756C481.407 39.4902 478.764 41.8337 475.802 43.7185C472.835 41.8358 470.186 39.4921 467.957 36.7756C465.162 32.9766 467.171 28.0423 470.868 28.4062C471.917 28.4781 472.927 28.8327 473.79 29.4324C474.654 30.0321 475.339 30.8545 475.773 31.8122C476.197 30.8498 476.877 30.0228 477.74 29.422C478.603 28.8211 479.614 28.4697 480.664 28.4062C484.419 28.1151 486.428 32.9184 483.633 36.7756Z" fill="white"/>
<path d="M261.619 60.1515V89.568C261.615 90.2347 261.349 90.873 260.877 91.3444C260.406 91.8158 259.768 92.0823 259.101 92.0861H228.869C228.538 92.088 228.21 92.0242 227.904 91.8984C227.597 91.7725 227.319 91.5871 227.085 91.3529C226.85 91.1187 226.665 90.8403 226.539 90.5339C226.413 90.2276 226.349 89.8992 226.351 89.568V60.1515C226.351 59.4875 226.615 58.8508 227.085 58.3813C227.554 57.9118 228.191 57.648 228.855 57.648H259.087C259.417 57.6461 259.745 57.7093 260.051 57.8341C260.358 57.9589 260.636 58.1427 260.871 58.3752C261.107 58.6077 261.294 58.8842 261.422 59.189C261.55 59.4938 261.617 59.8208 261.619 60.1515Z" fill="#0D345F"/>
<g opacity="0.6">
<path d="M261.619 60.1515V89.568C261.615 90.2347 261.349 90.873 260.877 91.3444C260.406 91.8158 259.768 92.0823 259.101 92.0861H228.869C228.538 92.088 228.21 92.0242 227.904 91.8984C227.597 91.7725 227.319 91.5871 227.085 91.3529C226.85 91.1187 226.665 90.8403 226.539 90.5339C226.413 90.2276 226.349 89.8992 226.351 89.568V60.1515C226.351 59.4875 226.615 58.8508 227.085 58.3813C227.554 57.9118 228.191 57.648 228.855 57.648H259.087C259.417 57.6461 259.745 57.7093 260.051 57.8341C260.358 57.9589 260.636 58.1427 260.871 58.3752C261.107 58.6077 261.294 58.8842 261.422 59.189C261.55 59.4938 261.617 59.8208 261.619 60.1515Z" fill="white"/>
</g>
<path d="M248.898 79.2627C248.378 79.2627 247.865 79.3837 247.401 79.6161C246.936 79.8485 246.531 80.186 246.22 80.6018L239.699 76.8319C239.863 76.435 239.947 76.0096 239.946 75.5802C239.944 75.1988 239.88 74.8204 239.757 74.4594L246.889 70.3402C247.418 70.9135 248.131 71.284 248.905 71.3876C249.678 71.4911 250.463 71.3213 251.125 70.9074C251.786 70.4936 252.282 69.8616 252.527 69.1209C252.772 68.3801 252.751 67.577 252.467 66.8503C252.183 66.1236 251.654 65.519 250.971 65.1409C250.288 64.7629 249.495 64.6351 248.729 64.7797C247.962 64.9243 247.27 65.3322 246.772 65.9328C246.274 66.5335 246.001 67.2893 246.001 68.0696C246.001 68.2588 246.001 68.4335 246.001 68.5936L238.563 72.9602C238.071 72.5927 237.487 72.3678 236.876 72.31C236.264 72.2521 235.649 72.3637 235.096 72.6324C234.544 72.9011 234.076 73.3166 233.744 73.8334C233.412 74.3502 233.229 74.9484 233.214 75.5625C233.199 76.1766 233.354 76.7829 233.66 77.3151C233.967 77.8472 234.415 78.2847 234.953 78.5796C235.492 78.8745 236.102 79.0154 236.716 78.987C237.329 78.9586 237.923 78.7619 238.432 78.4185L245.506 82.494C245.506 82.494 245.506 82.6104 245.506 82.6832C245.506 83.3482 245.704 83.9983 246.073 84.5512C246.442 85.1041 246.968 85.5351 247.582 85.7896C248.196 86.0441 248.872 86.1106 249.525 85.9809C250.177 85.8512 250.776 85.5309 251.246 85.0607C251.716 84.5905 252.037 83.9914 252.166 83.3392C252.296 82.6869 252.229 82.0109 251.975 81.3965C251.72 80.7821 251.29 80.257 250.737 79.8876C250.184 79.5181 249.534 79.3209 248.869 79.3209L248.898 79.2627Z" fill="white"/>
<path d="M510.43 292.805L379.751 460.294H510.43V541.805H266.553V464.952L395.398 296.997H266.553V215.953H510.43V292.805Z" fill="#0D345F"/>
<g opacity="0.3">
<path d="M510.43 292.805L379.751 460.294H510.43V541.805H266.553V464.952L395.398 296.997H266.553V215.953H510.43V292.805Z" fill="#263238"/>
</g>
<path d="M475.788 292.805L345.109 460.294H475.788V541.805H231.912V464.952L360.756 296.997H231.912V215.953H475.788V292.805Z" fill="#0D345F"/>
<path d="M290.09 184.338L283.103 203.435L272.012 204.323L275.025 181.02L290.09 184.338Z" fill="#B55B52"/>
<path d="M275.738 201.543C275.738 201.543 273.802 199.272 271.517 200.087C269.232 200.902 266.364 204.672 266.364 204.672C266.364 204.672 254.021 208.719 250.644 208.937C247.268 209.155 244.386 211.062 243.469 217.67H284.602C284.602 217.67 285.432 202.809 285.534 200.204C285.636 197.598 281.793 200.83 281.793 200.83L275.738 201.543Z" fill="#0D345F"/>
<g opacity="0.7">
<path d="M275.738 201.543C275.738 201.543 273.802 199.272 271.517 200.087C269.232 200.902 266.364 204.672 266.364 204.672C266.364 204.672 254.021 208.719 250.644 208.937C247.268 209.155 244.386 211.062 243.469 217.67H284.602C284.602 217.67 285.432 202.809 285.534 200.204C285.636 197.598 281.793 200.83 281.793 200.83L275.738 201.543Z" fill="white"/>
</g>
<path d="M284.442 215.181L252.056 215.545L244.648 215.618C244.24 215.618 244.196 214.992 244.648 214.992L277.033 214.628L284.442 214.555C284.85 214.555 284.879 215.181 284.442 215.181Z" fill="#263238"/>
<path d="M268.024 207.205C267.72 206.725 267.32 206.314 266.849 205.998C266.378 205.681 265.847 205.466 265.288 205.366C264.73 205.266 264.156 205.284 263.605 205.417C263.053 205.551 262.536 205.798 262.085 206.142C261.765 206.39 261.415 205.837 261.736 205.589C263.963 203.843 266.801 204.599 268.548 206.885C268.81 207.219 268.271 207.54 268.024 207.205Z" fill="#263238"/>
<path d="M264.53 208.282C264.228 207.801 263.829 207.388 263.358 207.07C262.887 206.753 262.355 206.537 261.796 206.437C261.237 206.337 260.663 206.355 260.111 206.489C259.559 206.624 259.042 206.873 258.592 207.219C258.286 207.467 257.937 206.914 258.242 206.666C260.484 204.92 263.322 205.677 265.069 207.962C265.316 208.297 264.778 208.617 264.53 208.282Z" fill="#263238"/>
<path d="M260.935 209.345C260.632 208.865 260.232 208.454 259.761 208.138C259.29 207.821 258.758 207.606 258.2 207.506C257.641 207.406 257.068 207.424 256.516 207.557C255.965 207.691 255.447 207.938 254.996 208.282C254.676 208.529 254.327 207.976 254.647 207.743C256.874 205.997 259.712 206.754 261.459 209.024C261.721 209.359 261.183 209.679 260.935 209.345Z" fill="#263238"/>
<path d="M383.244 185.896L382.24 186.405L377.801 188.661L345.706 204.862C344.017 201.412 342.242 197.86 340.408 194.178C337.875 189.127 335.211 183.829 332.46 178.327C325.721 164.82 318.516 150.06 311.646 134.239C312.781 147.339 301.457 171.209 289.333 193.843L268.373 192.824C268.373 192.824 286.742 82.4069 311.646 86.1913C332.024 89.277 366.957 154.049 379.023 177.512C379.809 178.968 380.479 180.423 381.076 181.529C382.473 184.295 383.244 185.896 383.244 185.896Z" fill="#263238"/>
<path opacity="0.2" d="M382.604 187.934L377.801 188.632L340.408 194.149C337.875 189.098 335.211 183.8 332.46 178.298C346.594 175.722 362.168 175.561 379.038 177.512L380.159 177.643L381.09 181.529L382.255 186.405L382.604 187.934Z" fill="black"/>
<path d="M266.903 186.915L265.898 193.799L290.803 195.197L294.02 188.647L266.903 186.915Z" fill="#263238"/>
<g opacity="0.3">
<path d="M266.903 186.915L265.898 193.799L290.803 195.197L294.02 188.647L266.903 186.915Z" fill="white"/>
</g>
<path d="M338.588 99.2764C345.488 104.458 352.794 110.178 359.956 115.287L354.745 124.617C346.186 121.345 337.822 117.584 329.695 113.351C327.643 112.274 325.561 111.154 323.523 109.916C321.327 108.627 319.204 107.218 317.163 105.695C315.856 104.74 314.642 103.663 313.538 102.479C312.55 101.435 311.726 100.247 311.093 98.9561C310.957 98.6764 310.835 98.3898 310.729 98.0974L310.569 97.6607L310.365 97.064C310.263 96.6564 310.162 96.2634 310.089 95.8267C310.004 95.2677 309.955 94.7037 309.943 94.1383C309.938 93.4799 309.992 92.8223 310.103 92.1733C310.155 91.8248 310.228 91.4797 310.322 91.1399C310.44 90.7299 310.581 90.3266 310.744 89.9318C311.195 88.8168 311.835 87.7878 312.636 86.8897C313.399 86.0056 314.28 85.2316 315.256 84.59C315.795 84.2242 316.354 83.8889 316.93 83.5856C317.738 83.1526 318.569 82.7639 319.419 82.4212C320.874 81.8099 322.141 81.3878 323.378 80.9657C328.283 79.4228 332.766 78.3893 337.322 77.3996C341.878 76.4098 346.346 75.5802 350.829 74.8815C359.825 73.426 368.718 72.2324 377.83 71.5046L380.129 93.8181C371.484 94.9971 362.663 95.9723 353.93 96.9621C349.563 97.5152 345.196 97.9664 340.975 98.5632L338.152 98.9416L338.588 99.2764Z" fill="#B55B52"/>
<path d="M382.648 67.3711L348.122 73.6736L355.866 101.023L380.129 99.5677C380.129 99.5677 388.775 78.6079 382.648 67.3711Z" fill="#0D345F"/>
<g opacity="0.3">
<path d="M382.648 67.3711L348.122 73.6736L355.866 101.023L380.129 99.5677C380.129 99.5677 388.775 78.6079 382.648 67.3711Z" fill="white"/>
</g>
<path d="M451.917 127.383C449.912 139.311 447.136 151.097 443.606 162.665C441.317 170.295 438.611 177.792 435.498 185.124C423.374 213.522 414.247 204.294 414.247 204.294C414.247 204.294 383.332 184.731 377.306 179.128C371.28 173.524 358.267 151.472 357.67 148.445C357.074 145.417 356.215 140.032 364.002 134.326C365.483 133.199 366.801 131.871 367.917 130.381C372.75 124.094 376.199 113.919 376.782 104.589C377.049 101.178 376.819 97.7456 376.098 94.4005C373.026 81.3006 369.446 74.2121 378.747 69.0304C383.215 66.5268 392.953 64.6638 401.861 63.3538C416.282 61.0264 431.041 64.4496 442.965 72.8876C446.841 75.4582 450.069 78.8906 452.397 82.9163C455.73 89.5681 455.337 106.947 451.917 127.383Z" fill="#0D345F"/>
<path opacity="0.2" d="M451.917 127.383C449.912 139.311 447.136 151.096 443.606 162.665C432.776 159.143 390.071 144.733 367.917 130.381C372.75 124.093 376.199 113.919 376.782 104.589C385.893 109.553 422.34 128.314 451.917 127.383Z" fill="#263238"/>
<path d="M454.886 90.2522C457.157 101.14 459.136 112.085 460.941 123.06C462.746 134.035 464.391 145.068 466.021 155.897L466.661 159.827C466.743 160.395 466.855 160.959 466.996 161.516C467.113 162.04 467.215 162.549 467.404 163.204C468.059 165.62 468.859 168.196 469.704 170.773C471.377 175.94 473.124 181.18 474.958 186.405L481.974 212.605L473.124 217.568C467.782 207.685 465.235 202.576 460.344 192.446C457.943 187.366 455.541 182.257 453.27 177.032C452.135 174.397 451.029 171.748 449.952 168.866C449.428 167.527 448.816 165.576 448.409 164.208C448.001 162.84 447.594 161.297 447.23 159.987C444.319 149.012 441.699 138.154 439.254 127.281C436.808 116.408 434.654 105.448 432.82 94.4442L454.886 90.2522Z" fill="#B55B52"/>
<path d="M499.935 217.583C502.148 216.884 502.934 215.138 500.168 213.959C496.354 212.328 492.323 210.145 488.218 208.544C484.113 206.943 475.118 209.636 474.754 209.898L473.168 217.583H499.935Z" fill="#B55B52"/>
<path d="M428.977 95.6958L435.207 128.14L463.721 119.989C463.721 119.989 462.266 90.5141 452.455 82.9161C443.3 75.784 429.574 79.8013 428.715 91.6494C428.632 93.0038 428.72 94.3634 428.977 95.6958Z" fill="#B55B52"/>
<path d="M428.977 95.6958L435.207 128.14L463.721 119.989C463.721 119.989 462.266 90.5141 452.455 82.9161C443.3 75.784 429.574 79.8013 428.715 91.6494C428.632 93.0038 428.72 94.3634 428.977 95.6958Z" fill="#0D345F"/>
<g opacity="0.3">
<path d="M428.977 95.6958L435.207 128.14L463.721 119.989C463.721 119.989 462.266 90.5141 452.455 82.9161C443.3 75.784 429.574 79.8013 428.715 91.6494C428.632 93.0038 428.72 94.3634 428.977 95.6958Z" fill="white"/>
</g>
<path d="M409.299 7.28634C407.159 4.85558 399.779 4.50625 396.199 9.03298C392.341 13.8508 387.393 22.8461 384.423 20.3717C384.842 21.743 385.667 22.9548 386.79 23.8464C387.913 24.738 389.281 25.2673 390.711 25.3642C390.711 25.3642 387.567 28.6537 383.637 27.3292C384.284 29.2941 385.471 31.0375 387.062 32.3604C388.652 33.6833 390.583 34.5324 392.633 34.8106C399.386 35.9314 409.211 16.7328 410.783 13.5888C410.812 10.081 410.55 10.212 409.299 7.28634Z" fill="#263238"/>
<path d="M413.49 8.1741C416.476 7.87307 419.492 8.19076 422.349 9.10735C425.207 10.0239 427.845 11.5198 430.098 13.5014C433.009 16.1505 435.294 19.6147 434.174 23.6902C431.568 33.1221 424.844 48.2888 424.844 48.2888L396.577 25.6406C396.577 25.6406 396.577 16.427 401.337 11.9585C403.797 9.62964 409.007 8.63987 413.49 8.1741Z" fill="#263238"/>
<path d="M408.221 7.60646C408.221 7.60646 418.265 0.750853 431.233 10.8086C444.202 20.8664 430.593 38.3329 430.593 38.3329C430.593 38.3329 426.226 46.091 429.894 48.0851C428.579 48.5754 427.177 48.7932 425.775 48.7255C425.775 48.7255 426.998 51.1272 428.686 50.967C428.686 50.967 426.387 51.8258 422.384 49.9336C418.381 48.0414 408.221 7.60646 408.221 7.60646Z" fill="#263238"/>
<path d="M407.828 56.5126C407.828 56.5126 407.828 56.5126 407.828 56.629L408.498 62.4512C408.423 64.5005 408.005 66.5226 407.261 68.4335C405.805 69.889 404.67 73.6443 409.007 74.2556C414.466 75.0853 425.659 68.5353 426.372 66.1774C424.916 58.332 424.072 49.2931 425.513 42.2046L418.236 48.0268L407.828 56.5126Z" fill="#B55B52"/>
<g opacity="0.2">
<path d="M407.857 56.6437L408.527 62.4658C412.166 61.3887 416.241 58.5504 417.595 55.028C418.541 52.4808 417.712 49.8463 416.678 49.5552L407.857 56.6437Z" fill="black"/>
</g>
<path d="M395.689 43.0199C395.835 44.2717 396.024 45.5089 396.242 46.7461C398.207 57.5899 410.798 60.3699 419.88 53.8928C420.699 53.3004 421.472 52.6485 422.195 51.9424C428.206 46.0329 427.667 40.7492 428.584 29.0467C428.825 26.3268 428.366 23.5905 427.252 21.098C426.137 18.6054 424.403 16.4394 422.215 14.8057C420.027 13.1721 417.458 12.1251 414.751 11.7644C412.045 11.4036 409.291 11.7411 406.751 12.7446C396.359 16.8056 394.175 30.4877 395.689 43.0199Z" fill="#B55B52"/>
<path d="M405.922 46.5713H405.601C405.554 46.561 405.51 46.5414 405.471 46.5139C405.431 46.4863 405.398 46.4512 405.372 46.4106C405.346 46.37 405.329 46.3247 405.321 46.2773C405.313 46.23 405.314 46.1815 405.325 46.1346C405.352 46.0444 405.412 45.9676 405.493 45.9192C405.573 45.8707 405.669 45.8541 405.762 45.8726C406.448 46.0248 407.158 46.0365 407.849 45.9071C408.54 45.7777 409.198 45.5098 409.782 45.1195C410.367 44.7292 410.867 44.2246 411.251 43.6361C411.636 43.0477 411.898 42.3874 412.02 41.6952C412.048 41.602 412.11 41.5228 412.194 41.474C412.278 41.4253 412.377 41.4106 412.472 41.4332C412.517 41.4466 412.56 41.4689 412.598 41.4988C412.635 41.5287 412.666 41.5657 412.689 41.6076C412.712 41.6495 412.726 41.6955 412.731 41.743C412.737 41.7905 412.732 41.8386 412.719 41.8844C412.422 43.3984 411.545 44.7361 410.275 45.6118C409.004 46.4876 407.442 46.8319 405.922 46.5713Z" fill="#263238"/>
<path d="M409.488 34.927C408.894 34.7045 408.409 34.2612 408.134 33.6898C408.105 33.5989 408.111 33.5004 408.152 33.4141C408.192 33.3277 408.264 33.2598 408.352 33.224C408.396 33.208 408.443 33.201 408.49 33.2033C408.536 33.2057 408.582 33.2174 408.624 33.2378C408.666 33.2581 408.704 33.2867 408.735 33.3219C408.765 33.357 408.789 33.398 408.804 33.4423C408.988 33.7469 409.243 34.0025 409.547 34.1875C409.851 34.3724 410.195 34.4813 410.55 34.5049C410.987 34.5668 411.432 34.5103 411.839 34.3413C412.246 34.1723 412.6 33.897 412.865 33.5442C412.889 33.4975 412.922 33.4565 412.964 33.424C413.005 33.3915 413.053 33.3684 413.104 33.3561C413.155 33.3439 413.208 33.3429 413.259 33.3531C413.311 33.3633 413.36 33.3846 413.402 33.4154C413.445 33.4462 413.48 33.4859 413.506 33.5317C413.531 33.5774 413.547 33.6282 413.551 33.6806C413.555 33.7329 413.548 33.7856 413.53 33.8349C413.512 33.8842 413.484 33.929 413.447 33.9663C413.102 34.428 412.638 34.7871 412.105 35.005C411.571 35.223 410.989 35.2916 410.419 35.2035C410.098 35.1526 409.785 35.0596 409.488 34.927Z" fill="#263238"/>
<path d="M398.6 34.8688C398.038 34.6904 397.565 34.3054 397.276 33.7917C397.255 33.7086 397.264 33.621 397.302 33.5441C397.339 33.4672 397.403 33.406 397.481 33.3712C397.559 33.3365 397.647 33.3304 397.729 33.354C397.812 33.3777 397.883 33.4296 397.931 33.5006C398.155 33.772 398.436 33.9906 398.754 34.1406C399.072 34.2907 399.42 34.3685 399.772 34.3685C400.124 34.3685 400.471 34.2907 400.79 34.1406C401.108 33.9906 401.389 33.772 401.613 33.5006C401.639 33.4624 401.672 33.4296 401.711 33.4041C401.749 33.3787 401.792 33.3611 401.837 33.3523C401.883 33.3435 401.929 33.3437 401.974 33.3529C402.02 33.3621 402.063 33.3802 402.101 33.406C402.139 33.4318 402.172 33.4649 402.197 33.5033C402.223 33.5418 402.24 33.5849 402.249 33.6302C402.258 33.6755 402.258 33.722 402.248 33.7672C402.239 33.8124 402.221 33.8553 402.195 33.8936C401.892 34.3165 401.476 34.6467 400.995 34.8471C400.515 35.0476 399.988 35.1105 399.474 35.0289C399.178 35.0062 398.885 34.9525 398.6 34.8688Z" fill="#263238"/>
<path d="M428.584 30.1381C428.584 30.1381 425.077 29.7888 424.48 32.7581C423.883 35.7274 424.145 36.1641 424.145 36.1641L419.895 36.4261C419.895 36.4261 422.719 25.1893 419.691 24.8836C416.664 24.578 420.681 19.9348 418.978 18.9305C414.975 16.5579 403.389 14.7385 397.872 21.0701C397.872 21.0701 400.07 14.3455 406.14 11.4344C412.21 8.52334 423.403 9.38211 427.085 15.4954C430.768 21.6087 428.584 30.1381 428.584 30.1381Z" fill="#263238"/>
<path d="M433.519 36.9211C432.636 39.7398 430.674 42.0946 428.06 43.4711C424.596 45.2614 422.064 42.3358 422.369 38.6532C422.646 35.3346 424.785 30.4003 428.584 30.1383C432.383 29.8763 434.552 33.457 433.519 36.9211Z" fill="#B55B52"/>
<path d="M427.187 35.1309L425.732 41.5352L427.071 41.2296L428.148 37.9255C428.148 37.9255 430.579 37.4306 430.389 36.2953C430.2 35.16 427.187 35.1309 427.187 35.1309Z" fill="white"/>
<path d="M396.897 30.0072C396.98 30.0095 397.062 29.989 397.134 29.9479C397.206 29.9068 397.265 29.8468 397.305 29.7743C397.452 29.4827 397.657 29.224 397.907 29.0138C398.158 28.8037 398.448 28.6465 398.76 28.5517C399.409 28.4224 400.083 28.5364 400.653 28.8719C400.759 28.9356 400.886 28.9545 401.006 28.9245C401.126 28.8944 401.229 28.8179 401.293 28.7118C401.357 28.6056 401.376 28.4785 401.346 28.3584C401.316 28.2383 401.239 28.135 401.133 28.0713C400.35 27.6184 399.428 27.4683 398.542 27.6492C398.103 27.7666 397.693 27.975 397.34 28.2609C396.986 28.5467 396.697 28.9036 396.49 29.3085C396.459 29.3619 396.439 29.421 396.431 29.4822C396.422 29.5435 396.427 29.6057 396.443 29.6653C396.459 29.7249 396.487 29.7807 396.525 29.8294C396.563 29.8781 396.61 29.9187 396.664 29.949C396.734 29.9913 396.816 30.0116 396.897 30.0072Z" fill="#263238"/>
<path d="M414.699 30.4148H414.902C415.01 30.3563 415.09 30.2578 415.125 30.1407C415.161 30.0236 415.149 29.8972 415.092 29.789C414.638 28.9967 413.907 28.4005 413.039 28.1151C412.603 28.0071 412.149 27.9902 411.706 28.0653C411.262 28.1405 410.839 28.306 410.463 28.5517C410.409 28.582 410.362 28.6226 410.324 28.6713C410.286 28.72 410.258 28.7758 410.241 28.8354C410.225 28.895 410.221 28.9572 410.229 29.0185C410.237 29.0797 410.257 29.1388 410.288 29.1922C410.354 29.2955 410.457 29.3706 410.575 29.4028C410.693 29.4351 410.819 29.4223 410.929 29.3668C411.201 29.1825 411.508 29.0563 411.831 28.9962C412.154 28.9361 412.486 28.9434 412.806 29.0175C413.417 29.2399 413.931 29.6668 414.262 30.2256C414.313 30.2913 414.38 30.3431 414.456 30.3762C414.532 30.4092 414.616 30.4225 414.699 30.4148Z" fill="#263238"/>
<path d="M404.291 32.9185C403.741 34.8479 402.644 36.5768 401.133 37.8964C398.702 39.8614 403.389 41.7245 403.389 41.7245L404.291 32.9185Z" fill="#A02724"/>
<path d="M330.481 327.665L330.466 346.558L320.205 350.619L318.895 327.389L330.481 327.665Z" fill="#B55B52"/>
<path d="M322.956 346.864C322.956 346.864 320.438 345.263 318.487 346.66C316.537 348.058 314.936 352.483 314.936 352.483C314.936 352.483 304.31 359.935 301.137 361.129C297.964 362.322 295.781 364.986 296.771 371.55L336.07 359.542C336.07 359.542 332.519 345.088 331.893 342.614C331.267 340.14 328.501 344.317 328.501 344.317L322.956 346.864Z" fill="#0D345F"/>
<g opacity="0.7">
<path d="M322.956 346.864C322.956 346.864 320.438 345.263 318.487 346.66C316.537 348.058 314.936 352.483 314.936 352.483C314.936 352.483 304.31 359.935 301.137 361.129C297.964 362.322 295.781 364.986 296.771 371.55L336.07 359.542C336.07 359.542 332.519 345.088 331.893 342.614C331.267 340.14 328.501 344.317 328.501 344.317L322.956 346.864Z" fill="white"/>
</g>
<path d="M335.255 357.388L304.383 367.154L297.309 369.396C296.916 369.512 296.698 368.916 297.091 368.799L327.977 358.96L335.037 356.718C335.43 356.602 335.648 357.198 335.255 357.329V357.388Z" fill="#263238"/>
<path d="M317.221 354.593C316.792 354.22 316.289 353.94 315.746 353.773C315.202 353.605 314.629 353.553 314.064 353.621C313.5 353.688 312.955 353.873 312.466 354.163C311.977 354.453 311.554 354.843 311.224 355.306C311.006 355.626 310.511 355.204 310.729 354.884C312.359 352.555 315.3 352.453 317.628 354.127C317.978 354.375 317.556 354.84 317.221 354.593Z" fill="#263238"/>
<path d="M314.193 356.573C313.764 356.202 313.263 355.924 312.721 355.758C312.179 355.592 311.608 355.541 311.045 355.608C310.482 355.675 309.939 355.859 309.451 356.148C308.963 356.437 308.541 356.824 308.211 357.286C307.978 357.621 307.483 357.184 307.716 356.864C309.346 354.549 312.272 354.433 314.615 356.107C314.95 356.354 314.528 356.82 314.193 356.573Z" fill="#263238"/>
<path d="M311.064 358.654C310.635 358.281 310.132 358.001 309.589 357.834C309.045 357.666 308.472 357.614 307.907 357.682C307.343 357.749 306.798 357.934 306.309 358.224C305.82 358.514 305.397 358.904 305.067 359.367C304.849 359.687 304.354 359.265 304.572 358.945C306.202 356.616 309.143 356.514 311.472 358.188C311.821 358.436 311.399 358.887 311.064 358.654Z" fill="#263238"/>
<path d="M419.909 216.506L353.085 217.583C345.691 219.985 333.625 334.216 333.625 334.216H317.483C317.483 334.216 302.927 228.136 314.179 203.668C318.545 193.974 347.06 182.315 367.917 179.128C399.939 174.237 434.13 180.117 434.188 188.865C434.29 201.965 425.018 216.317 419.909 216.506Z" fill="#263238"/>
<path d="M315.183 330.184L315.984 335.395H334.687L335.43 330.096L315.183 330.184Z" fill="#263238"/>
<g opacity="0.3">
<path d="M315.183 330.184L315.984 335.395H334.687L335.43 330.096L315.183 330.184Z" fill="white"/>
</g>
<path d="M362.022 117.063C363.872 118.697 365.554 120.511 367.044 122.478C368.995 124.967 371.047 127.077 370.61 128.504C370.174 129.93 365.094 125.927 364.642 125.593C363.614 122.8 362.739 119.952 362.022 117.063Z" fill="#B55B52"/>
<g opacity="0.2">
<path d="M362.022 117.063C363.872 118.697 365.554 120.511 367.044 122.478C368.995 124.967 371.047 127.077 370.61 128.504C370.174 129.93 365.094 125.927 364.642 125.593C363.614 122.8 362.739 119.952 362.022 117.063Z" fill="black"/>
</g>
<path d="M362.43 143.176C360.596 142.2 359.024 136.509 359.024 136.509C359.024 136.509 360.974 141.458 357.831 140.366C355.924 139.726 354.788 133.511 354.279 130.905C353.085 127.354 351.368 122.958 351.368 122.958C351.368 122.958 357.263 114.414 359.883 115.404C362.153 116.248 365.399 120.877 367.641 125.345C368.062 126.076 368.422 126.84 368.718 127.63C368.936 128.213 369.155 128.824 369.358 129.537C373.638 144.369 364.249 144.151 362.43 143.176Z" fill="#B55B52"/>
<path d="M647.716 211.688C647.716 211.688 648.837 201.674 647.716 199.447C646.596 197.22 643.35 206.725 643.35 206.725L647.716 211.688Z" fill="#CE7A63"/>
<path d="M535.086 145.359C535.086 145.359 522.714 135.359 534.009 127.354C545.304 119.348 571.417 131.575 579.451 139.464C587.486 147.353 580.456 154.252 580.456 154.252L535.086 145.359Z" fill="#263238"/>
<path d="M505.452 506.945L504.011 530.03L513.85 530.816L520.458 508.109L505.452 506.945Z" fill="#D5794A"/>
<path d="M511.565 528.516C511.963 528.011 512.494 527.629 513.099 527.413C513.704 527.197 514.358 527.155 514.985 527.293C516.892 527.919 519.352 531.063 519.352 531.063C519.352 531.063 529.745 534.382 532.539 534.556C535.334 534.731 537.182 536.536 537.415 541.747H502.162C502.162 541.747 502.162 529.506 503.356 527.381C504.404 525.547 506.485 527.905 506.485 527.905L511.565 528.516Z" fill="#263238"/>
<path d="M536.658 540.131L530.531 540.058L503.749 539.796C503.688 539.782 503.634 539.748 503.595 539.699C503.556 539.65 503.535 539.589 503.535 539.527C503.535 539.465 503.556 539.404 503.595 539.355C503.634 539.306 503.688 539.272 503.749 539.258H505.568C506.118 537.937 506.139 536.456 505.627 535.12C505.115 533.784 504.109 532.697 502.817 532.082C502.764 532.044 502.727 531.988 502.713 531.924C502.699 531.86 502.71 531.793 502.742 531.737C502.775 531.68 502.828 531.638 502.89 531.619C502.952 531.599 503.02 531.603 503.079 531.631C504.459 532.299 505.537 533.462 506.098 534.889C506.659 536.316 506.662 537.902 506.107 539.331H509.876L536.658 539.622C536.716 539.635 536.766 539.668 536.803 539.714C536.839 539.76 536.859 539.818 536.859 539.876C536.859 539.935 536.839 539.992 536.803 540.038C536.766 540.085 536.716 540.117 536.658 540.131Z" fill="white"/>
<path d="M518.173 533.188C518.415 532.79 518.739 532.449 519.122 532.185C519.506 531.922 519.942 531.743 520.4 531.66C520.858 531.578 521.329 531.594 521.78 531.706C522.232 531.819 522.654 532.026 523.02 532.315C523.297 532.518 523.559 532.053 523.297 531.864C522.871 531.539 522.381 531.308 521.86 531.185C521.339 531.063 520.798 531.051 520.272 531.151C519.746 531.252 519.248 531.461 518.808 531.767C518.369 532.073 517.999 532.468 517.722 532.926C517.518 533.203 517.969 533.465 518.173 533.188Z" fill="white"/>
<path d="M521.084 534.076C521.328 533.678 521.653 533.336 522.038 533.072C522.423 532.809 522.859 532.63 523.319 532.548C523.778 532.465 524.25 532.481 524.702 532.594C525.155 532.707 525.579 532.914 525.946 533.203C526.208 533.406 526.47 532.941 526.208 532.737C525.78 532.415 525.29 532.187 524.768 532.067C524.247 531.947 523.706 531.937 523.181 532.038C522.656 532.14 522.158 532.35 521.719 532.656C521.28 532.962 520.91 533.356 520.633 533.814C520.429 534.091 520.895 534.353 521.084 534.076Z" fill="white"/>
<path d="M524.155 534.964C524.396 534.565 524.719 534.222 525.102 533.957C525.485 533.692 525.921 533.512 526.379 533.428C526.837 533.344 527.308 533.359 527.76 533.47C528.212 533.582 528.636 533.788 529.002 534.076C529.279 534.28 529.541 533.829 529.279 533.625C528.851 533.301 528.359 533.071 527.837 532.949C527.314 532.827 526.771 532.817 526.244 532.918C525.717 533.02 525.217 533.231 524.777 533.538C524.337 533.846 523.967 534.242 523.69 534.702C523.5 534.964 523.952 535.24 524.155 534.964Z" fill="white"/>
<path d="M580.936 506.697L582.304 530.03L592.246 530.816L596.088 507.876L580.936 506.697Z" fill="#D5794A"/>
<path d="M589.946 528.516C590.345 528.013 590.877 527.632 591.481 527.416C592.086 527.199 592.739 527.157 593.366 527.293C595.288 527.919 597.733 531.063 597.733 531.063C597.733 531.063 608.111 534.382 610.92 534.556C613.729 534.731 616.175 536.318 617.223 541.747H583.294C583.294 541.747 581.955 529.477 581.751 527.381C581.547 525.285 584.866 527.905 584.866 527.905L589.946 528.516Z" fill="#263238"/>
<path d="M616.277 540.131L610.149 540.058L583.367 539.796C583.306 539.782 583.252 539.748 583.213 539.699C583.174 539.65 583.153 539.589 583.153 539.527C583.153 539.465 583.174 539.404 583.213 539.355C583.252 539.306 583.306 539.272 583.367 539.258H585.128C585.678 537.937 585.699 536.456 585.187 535.12C584.675 533.784 583.669 532.697 582.377 532.082C582.324 532.044 582.287 531.988 582.273 531.924C582.259 531.86 582.27 531.793 582.302 531.737C582.335 531.68 582.388 531.638 582.45 531.619C582.512 531.599 582.58 531.603 582.639 531.631C584.019 532.299 585.097 533.462 585.658 534.889C586.219 536.316 586.222 537.902 585.667 539.331H589.436L616.218 539.622C616.278 539.627 616.334 539.653 616.377 539.695C616.42 539.737 616.447 539.793 616.454 539.853C616.461 539.912 616.447 539.973 616.415 540.023C616.382 540.074 616.334 540.112 616.277 540.131Z" fill="white"/>
<path d="M596.583 533.188C596.827 532.79 597.152 532.448 597.537 532.184C597.922 531.921 598.358 531.742 598.818 531.66C599.277 531.577 599.749 531.593 600.201 531.706C600.654 531.819 601.078 532.026 601.445 532.315C601.707 532.518 601.969 532.053 601.707 531.864C601.281 531.539 600.791 531.308 600.27 531.185C599.749 531.063 599.208 531.051 598.682 531.151C598.156 531.252 597.658 531.461 597.218 531.767C596.779 532.073 596.409 532.468 596.132 532.926C595.943 533.203 596.394 533.465 596.583 533.188Z" fill="white"/>
<path d="M599.509 534.076C599.752 533.678 600.077 533.336 600.462 533.072C600.847 532.809 601.284 532.63 601.743 532.548C602.203 532.465 602.674 532.481 603.127 532.594C603.58 532.707 604.003 532.914 604.37 533.203C604.647 533.406 604.909 532.941 604.632 532.737C604.205 532.415 603.714 532.187 603.193 532.067C602.672 531.947 602.131 531.937 601.606 532.038C601.081 532.14 600.582 532.35 600.143 532.656C599.705 532.962 599.335 533.356 599.058 533.814C598.868 534.091 599.319 534.353 599.509 534.076Z" fill="white"/>
<path d="M602.594 534.964C602.837 534.565 603.161 534.221 603.545 533.956C603.93 533.692 604.366 533.511 604.826 533.427C605.285 533.343 605.757 533.358 606.21 533.47C606.664 533.582 607.088 533.788 607.456 534.076C607.718 534.28 607.98 533.829 607.718 533.625C607.291 533.301 606.801 533.071 606.279 532.949C605.758 532.828 605.216 532.817 604.69 532.919C604.164 533.021 603.666 533.232 603.227 533.539C602.788 533.846 602.419 534.243 602.143 534.702C601.939 534.964 602.405 535.24 602.594 534.964Z" fill="white"/>
<path d="M604.254 257.392C604.254 257.392 609.887 341.581 609.508 375.815C609.115 411.432 597.5 515.052 597.5 515.052H578.476C578.476 515.052 574.968 413.251 573.265 378.231C571.417 340.111 560.02 257.421 560.02 257.421L604.254 257.392Z" fill="#0D345F"/>
<path opacity="0.3" d="M609.508 375.815C609.115 411.432 597.5 515.052 597.5 515.052H578.476C578.476 515.052 574.968 413.251 573.265 378.231C572.727 366.922 571.329 351.668 569.641 335.817C568.185 321.829 566.439 307.375 564.881 294.741C562.247 273.461 560.02 257.348 560.02 257.348H604.254C604.254 257.348 609.872 341.581 609.508 375.815Z" fill="white"/>
<path opacity="0.2" d="M569.641 335.86C568.185 321.873 566.439 307.419 564.881 294.785L567.108 281.452C567.108 281.452 574.561 302.266 569.641 335.86Z" fill="#263238"/>
<path d="M577.05 509.303C577.05 511.355 577.239 515.445 577.239 515.445H599.159L599.814 509.303H577.05Z" fill="#263238"/>
<path d="M571.635 257.392C571.635 257.392 565.813 343.269 559.656 375.393C552.859 410.588 522.016 515.052 522.016 515.052H501.449C501.449 515.052 514.651 413.703 518.173 378.843C521.987 340.998 528.1 263.971 528.1 263.971L571.635 257.392Z" fill="#0D345F"/>
<path opacity="0.3" d="M571.635 257.392C571.635 257.392 565.813 343.269 559.656 375.393C552.859 410.588 522.016 515.052 522.016 515.052H501.449C501.449 515.052 514.651 413.703 518.173 378.843C521.987 340.998 528.1 263.971 528.1 263.971L571.635 257.392Z" fill="white"/>
<path d="M506.441 510.074C506.484 510.071 506.525 510.054 506.557 510.025C506.589 509.995 506.61 509.956 506.616 509.914C506.776 508.866 521.404 418.302 524.563 386.993C527.983 353.006 535.116 277.668 535.188 276.911C535.192 276.885 535.191 276.858 535.184 276.833C535.178 276.807 535.166 276.784 535.149 276.763C535.133 276.742 535.112 276.726 535.089 276.713C535.066 276.701 535.04 276.694 535.014 276.692C534.964 276.692 534.916 276.709 534.879 276.741C534.841 276.774 534.817 276.818 534.81 276.867C534.737 277.624 527.605 352.963 524.184 386.935C521.084 418.244 506.383 508.88 506.238 509.856C506.233 509.881 506.234 509.906 506.24 509.93C506.246 509.955 506.257 509.978 506.272 509.998C506.287 510.019 506.305 510.036 506.327 510.049C506.349 510.062 506.373 510.07 506.398 510.074H506.441Z" fill="#263238"/>
<path d="M500.532 509.157C500.328 511.253 500.008 515.445 500.008 515.445H524.097L525.553 509.157H500.532Z" fill="#263238"/>
<path d="M645.766 216.695C645.44 222.259 644.789 227.8 643.815 233.288C643.291 236.083 642.666 238.907 641.792 241.934C641.309 243.588 640.716 245.207 640.016 246.781C639.596 247.783 639.11 248.755 638.561 249.692C637.677 251.149 636.583 252.469 635.315 253.608C633.741 255.026 631.861 256.062 629.821 256.635C627.781 257.208 625.637 257.303 623.554 256.912C622.897 256.779 622.25 256.599 621.618 256.373C621.052 256.168 620.498 255.93 619.959 255.66C619.459 255.395 618.973 255.103 618.504 254.787C618.052 254.466 617.528 254.059 617.368 253.928L616.684 253.331L616.349 253.011L616.131 252.822L615.301 251.977C613.846 250.333 612.943 249.197 612.085 248.077L611.75 247.64C609.887 245.165 608.315 242.866 606.743 240.551L605.899 239.256C603.148 235.078 600.615 230.916 598.053 226.767C595.302 222.168 592.639 217.539 590.004 212.911C587.37 208.282 584.822 203.624 582.392 198.923C577.428 189.52 572.712 180.088 568.447 170.307L594.764 152.2C599.538 161.443 606.102 175.62 610.44 185.124C612.652 189.855 614.705 194.658 616.888 199.389L623.19 213.667C624.457 216.579 625.752 219.49 627.048 222.401C628.256 219.49 629.435 216.506 630.614 213.667L645.766 216.695Z" fill="#263238"/>
<path opacity="0.2" d="M611.997 248.062L611.663 247.625C609.799 245.151 608.227 242.851 606.655 240.537L605.811 239.241L602.9 184.862C602.9 184.862 610.018 228.121 611.997 248.062Z" fill="black"/>
<path d="M619.668 221.353L619.552 210.422C619.646 209.372 620.029 208.369 620.658 207.524C621.288 206.678 622.139 206.024 623.118 205.633L644.805 199.2C645.036 199.101 645.288 199.064 645.537 199.091C645.786 199.118 646.024 199.21 646.228 199.356C646.431 199.503 646.593 199.699 646.699 199.927C646.804 200.154 646.849 200.405 646.828 200.655L646.945 211.586C646.851 212.632 646.47 213.632 645.843 214.474C645.216 215.317 644.368 215.97 643.393 216.36L621.662 222.794C621.434 222.885 621.187 222.917 620.943 222.887C620.699 222.857 620.467 222.766 620.268 222.622C620.069 222.479 619.91 222.287 619.805 222.065C619.7 221.843 619.653 221.598 619.668 221.353Z" fill="#0D345F"/>
<g opacity="0.4">
<path d="M619.668 221.353L619.552 210.422C619.646 209.372 620.029 208.369 620.658 207.524C621.288 206.678 622.139 206.024 623.118 205.633L644.805 199.2C645.036 199.101 645.288 199.064 645.537 199.091C645.786 199.118 646.024 199.21 646.228 199.356C646.431 199.503 646.593 199.699 646.699 199.927C646.804 200.154 646.849 200.405 646.828 200.655L646.945 211.586C646.851 212.632 646.47 213.632 645.843 214.474C645.216 215.317 644.368 215.97 643.393 216.36L621.662 222.794C621.434 222.885 621.187 222.917 620.943 222.887C620.699 222.857 620.467 222.766 620.268 222.622C620.069 222.479 619.91 222.287 619.805 222.065C619.7 221.843 619.653 221.598 619.668 221.353Z" fill="#263238"/>
</g>
<path d="M619.683 222.459L619.566 211.528C619.657 210.479 620.038 209.477 620.665 208.631C621.292 207.786 622.141 207.131 623.118 206.739L644.805 200.306C645.036 200.207 645.288 200.17 645.537 200.197C645.786 200.225 646.024 200.316 646.228 200.462C646.431 200.609 646.593 200.805 646.699 201.033C646.804 201.26 646.849 201.511 646.828 201.761L646.945 212.692C646.854 213.743 646.472 214.748 645.842 215.593C645.212 216.439 644.359 217.093 643.379 217.481L621.662 223.915C621.434 224.003 621.187 224.033 620.944 224.001C620.701 223.969 620.47 223.876 620.272 223.731C620.075 223.585 619.918 223.393 619.814 223.171C619.711 222.948 619.666 222.704 619.683 222.459Z" fill="#0D345F"/>
<g opacity="0.4">
<path d="M634.151 213.9C632.812 214.439 631.72 213.9 631.705 212.794C631.785 212.107 632.053 211.456 632.479 210.911C632.905 210.367 633.474 209.951 634.122 209.709C635.461 209.17 636.552 209.709 636.567 210.815C636.487 211.502 636.22 212.153 635.793 212.698C635.367 213.242 634.798 213.658 634.151 213.9Z" fill="#263238"/>
</g>
<path d="M643.641 204.891C642.971 205.138 642.374 204.891 642.331 204.221C642.335 203.878 642.447 203.544 642.651 203.267C642.854 202.991 643.139 202.785 643.466 202.678C644.136 202.445 644.732 202.751 644.776 203.362C644.773 203.704 644.661 204.037 644.457 204.311C644.253 204.586 643.967 204.789 643.641 204.891Z" fill="#0D345F"/>
<g opacity="0.3">
<path d="M643.641 204.891C642.971 205.138 642.374 204.891 642.331 204.221C642.335 203.878 642.447 203.544 642.651 203.267C642.854 202.991 643.139 202.785 643.466 202.678C644.136 202.445 644.732 202.751 644.776 203.362C644.773 203.704 644.661 204.037 644.457 204.311C644.253 204.586 643.967 204.789 643.641 204.891Z" fill="#263238"/>
</g>
<path d="M604.414 278.352C579.087 284.101 552.757 284.028 525.596 279.225C523.991 278.922 522.553 278.037 521.56 276.74C520.566 275.442 520.086 273.824 520.211 272.195C520.4 269.473 520.691 266.111 521.04 262.195L521.652 255.049C522.627 243.317 523.748 228.31 524.083 212.052C524.083 209.141 524.155 206.23 524.155 203.231C524.155 201.776 524.155 200.175 524.155 198.646C524.155 196.317 524.155 193.974 524.024 191.631C523.774 180.625 522.899 169.642 521.404 158.735C521.134 157.039 521.202 155.305 521.605 153.635C522.008 151.965 522.738 150.392 523.754 149.006C524.769 147.62 526.049 146.449 527.519 145.561C528.99 144.672 530.622 144.084 532.321 143.831C535.727 143.379 539.468 143.001 543.165 142.812C553.267 142.207 563.396 142.207 573.498 142.812C576.749 143.115 579.981 143.601 583.178 144.267C588.17 145.344 593.803 149.391 595.884 154.194C606.321 178.385 605.957 233.041 606.801 269.924C606.845 273.17 607.441 277.668 604.414 278.352Z" fill="#263238"/>
<path opacity="0.2" d="M537.736 178.472C534.009 189.433 529.934 199.971 524.126 208.544C524.126 207.088 524.126 200.131 524.126 198.603C524.126 196.274 524.126 193.93 523.995 191.587L537.736 178.472Z" fill="black"/>
<path d="M597.875 121.54C598.484 115.478 594.44 110.106 588.841 109.544C583.242 108.981 578.209 113.44 577.6 119.502C576.99 125.565 581.035 130.936 586.634 131.499C592.233 132.062 597.266 127.603 597.875 121.54Z" fill="#263238"/>
<g opacity="0.2">
<path d="M597.875 121.54C598.485 115.478 594.44 110.106 588.841 109.544C583.242 108.981 578.209 113.44 577.6 119.502C576.99 125.565 581.035 130.936 586.634 131.499C592.233 132.062 597.266 127.603 597.875 121.54Z" fill="white"/>
</g>
<path d="M562.683 96.6274C562.683 96.6274 565.857 87.6612 568.506 88.4763C571.155 89.2914 569.583 92.5227 569.583 92.5227C569.583 92.5227 574.182 86.162 576.977 86.6133C579.772 87.0645 578.855 90.4413 578.855 90.4413C578.855 90.4413 585.186 87.6612 586.991 89.3933C588.796 91.1254 585.827 93.105 585.827 93.105C585.827 93.105 594.356 91.7368 595.637 93.76C596.918 95.7832 592.275 96.6711 592.275 96.6711C592.275 96.6711 599.451 97.6463 599.451 101.358C599.474 101.827 599.39 102.294 599.204 102.725C599.018 103.156 598.736 103.538 598.378 103.842C598.021 104.146 597.598 104.364 597.143 104.478C596.688 104.593 596.212 104.601 595.753 104.502C595.753 104.502 600.498 108.65 599.451 111.197C598.403 113.745 595.288 111.925 595.288 111.925C595.288 111.925 595.666 117.485 592.289 116.365C590.162 115.599 588.315 114.209 586.991 112.376L562.683 96.6274Z" fill="#263238"/>
<path d="M580.761 95.3173C578.222 94.2491 575.489 93.7158 572.735 93.7509C569.98 93.786 567.262 94.3886 564.75 95.5211C561.461 96.9766 558.55 99.4802 558.448 103.323C558.51 111.37 559.026 119.408 559.991 127.397L590.892 115.127C590.892 115.127 593.323 107.034 590.397 101.838C588.825 99.1309 584.502 96.8602 580.761 95.3173Z" fill="#263238"/>
<path d="M572.654 139.173V139.275L570.529 144.136C570.256 145.141 570.08 146.169 570.005 147.208C569.947 148.046 569.947 148.887 570.005 149.726C570.805 152.156 570.878 154.98 566.905 154.383C561.898 153.626 553.805 144.879 553.805 142.623C557.196 136.131 560.369 128.431 561.082 121.837L565.827 128.911L572.654 139.173Z" fill="#CE7A63"/>
<g opacity="0.2">
<path d="M572.596 139.275L570.471 144.136C567.56 142.229 564.75 138.634 564.518 135.17C564.372 132.681 565.798 130.6 566.803 130.629L572.596 139.275Z" fill="black"/>
</g>
<path d="M586.933 130.6C586.467 131.662 585.972 132.696 585.477 133.715C580.834 142.695 569.015 141.735 562.829 133.627C562.286 132.889 561.8 132.11 561.374 131.298C557.706 124.501 559.598 120.003 561.941 109.465C562.458 107.02 563.593 104.747 565.236 102.863C566.879 100.979 568.977 99.547 571.329 98.7024C573.682 97.8579 576.212 97.6291 578.678 98.0378C581.144 98.4466 583.465 99.4792 585.419 101.038C593.41 107.442 591.634 120.018 586.933 130.6Z" fill="#CE7A63"/>
<path d="M579.699 131.313H579.99C580.031 131.317 580.073 131.313 580.112 131.3C580.152 131.287 580.189 131.267 580.22 131.239C580.251 131.212 580.277 131.179 580.295 131.142C580.313 131.104 580.323 131.063 580.325 131.022C580.327 130.98 580.32 130.938 580.306 130.898C580.292 130.859 580.27 130.822 580.241 130.791C580.213 130.76 580.179 130.735 580.141 130.717C580.102 130.699 580.061 130.689 580.019 130.687C579.392 130.653 578.778 130.492 578.214 130.213C577.651 129.935 577.15 129.545 576.742 129.068C576.334 128.59 576.027 128.034 575.839 127.435C575.652 126.835 575.588 126.203 575.652 125.578C575.657 125.536 575.652 125.494 575.638 125.454C575.625 125.414 575.602 125.378 575.573 125.348C575.544 125.317 575.509 125.293 575.47 125.278C575.431 125.262 575.389 125.256 575.347 125.258C575.305 125.256 575.263 125.262 575.223 125.277C575.183 125.291 575.147 125.313 575.116 125.341C575.085 125.37 575.06 125.404 575.042 125.442C575.024 125.48 575.014 125.522 575.012 125.564C574.874 126.947 575.289 128.329 576.168 129.407C577.046 130.484 578.316 131.17 579.699 131.313Z" fill="#263238"/>
<path d="M561.563 110.44C561.563 110.44 564.75 111.095 564.474 113.846C564.197 116.597 563.848 116.932 563.848 116.932L567.501 118.3C567.501 118.3 568.054 107.689 570.791 108.243C573.527 108.796 571.257 103.643 573.018 103.221C577.166 102.217 587.821 103.745 590.95 110.775C590.761 106.77 589.109 102.974 586.307 100.106C581.78 95.9287 571.752 93.658 566.846 98.0101C561.941 102.362 561.563 110.44 561.563 110.44Z" fill="#263238"/>
<path d="M555.42 115.069C555.424 116.409 555.692 117.735 556.209 118.972C556.726 120.208 557.482 121.33 558.433 122.274C560.995 124.778 563.994 122.9 564.721 119.596C565.376 116.597 564.823 111.707 561.563 110.441C560.845 110.179 560.073 110.101 559.317 110.214C558.561 110.327 557.845 110.627 557.235 111.087C556.624 111.547 556.139 112.152 555.822 112.848C555.505 113.543 555.367 114.307 555.42 115.069Z" fill="#CE7A63"/>
<path d="M576.817 117.893C576.569 118.737 576.817 119.538 577.37 119.698C577.923 119.858 578.549 119.305 578.825 118.475C579.102 117.645 578.825 116.816 578.272 116.67C577.719 116.525 577.079 117.063 576.817 117.893Z" fill="#263238"/>
<path d="M586.045 120.44C585.798 121.284 586.045 122.099 586.598 122.259C587.151 122.42 587.792 121.866 588.054 121.022C588.316 120.178 588.054 119.377 587.501 119.217C586.947 119.057 586.322 119.61 586.045 120.44Z" fill="#263238"/>
<path d="M589.393 118.795C589.319 118.775 589.253 118.734 589.201 118.677C589.15 118.62 589.115 118.55 589.102 118.475C589.047 118.18 588.934 117.9 588.769 117.65C588.604 117.4 588.39 117.186 588.141 117.019C587.603 116.741 586.986 116.659 586.394 116.787C586.339 116.806 586.28 116.814 586.221 116.81C586.162 116.806 586.105 116.789 586.053 116.761C586.001 116.733 585.956 116.695 585.92 116.648C585.883 116.602 585.857 116.548 585.843 116.491C585.829 116.434 585.826 116.375 585.837 116.317C585.847 116.259 585.869 116.203 585.902 116.154C585.934 116.105 585.977 116.064 586.027 116.032C586.076 116.001 586.132 115.98 586.191 115.971C586.998 115.78 587.849 115.894 588.578 116.292C588.931 116.514 589.233 116.807 589.466 117.153C589.699 117.499 589.858 117.89 589.931 118.3C589.953 118.41 589.933 118.524 589.873 118.619C589.813 118.714 589.72 118.782 589.611 118.81L589.393 118.795Z" fill="#263238"/>
<path d="M574.939 114.982C574.878 114.962 574.823 114.927 574.779 114.88C574.7 114.801 574.656 114.694 574.656 114.582C574.656 114.47 574.7 114.362 574.779 114.283C575.354 113.68 576.132 113.312 576.962 113.25C577.379 113.244 577.792 113.325 578.176 113.488C578.559 113.651 578.904 113.892 579.189 114.196C579.265 114.277 579.307 114.383 579.307 114.494C579.307 114.605 579.265 114.712 579.189 114.793C579.108 114.873 578.998 114.917 578.884 114.917C578.769 114.917 578.66 114.873 578.578 114.793C578.374 114.57 578.127 114.392 577.852 114.27C577.576 114.147 577.278 114.082 576.977 114.079C576.373 114.138 575.81 114.412 575.39 114.851C575.335 114.913 575.264 114.959 575.184 114.982C575.104 115.005 575.019 115.005 574.939 114.982Z" fill="#263238"/>
<path d="M582.13 119.377C582.482 121.983 583.213 124.523 584.298 126.917C584.488 127.266 580.558 127.339 580.558 127.339L582.13 119.377Z" fill="#BA4D3C"/>
<path d="M558.244 153.612C559.583 171.763 560.588 190 560.588 208.195C560.588 212.794 560.588 217.408 560.253 222.008C560.253 222.59 561.126 222.59 561.17 222.008C562.232 203.872 561.17 185.532 560.078 167.425C559.802 162.826 559.496 158.211 559.161 153.612C559.161 153.03 558.2 153.03 558.244 153.612Z" fill="white"/>
<path d="M574.561 153.728C576.526 171.821 578.17 190 578.825 208.18C578.986 212.794 579.087 217.394 578.971 222.008C578.971 222.59 579.873 222.561 579.888 222.008C580.31 203.843 578.578 185.546 576.875 167.498C576.438 162.898 575.953 158.308 575.419 153.728C575.347 153.146 574.444 153.175 574.503 153.728H574.561Z" fill="white"/>
<path d="M565.958 107.879C565.958 107.879 588.912 112.682 592.333 116.321C594.574 118.708 592.231 124.385 590.877 126.422C589.975 127.762 585.055 127.732 583.789 125.404C582.523 123.075 582.901 123.206 581.635 122.623C580.368 122.041 579.146 123.599 577.079 123.671C575.012 123.744 570.209 122.114 569.204 119.407C568.2 116.699 569.132 115.404 566.861 114.793L563.208 113.905C562.872 113.828 562.556 113.682 562.279 113.478C562.002 113.274 561.77 113.016 561.596 112.718C561.423 112.421 561.313 112.091 561.272 111.75C561.231 111.408 561.261 111.061 561.359 110.732C561.767 109.363 562.509 107.821 563.819 107.559L565.958 107.879Z" fill="#0D345F"/>
<g opacity="0.4">
<path d="M590.314 118.721L575.027 113.866C574.138 113.584 573.189 114.075 572.906 114.964L572.862 115.103C572.58 115.992 573.072 116.941 573.961 117.223L589.248 122.079C590.137 122.361 591.086 121.869 591.368 120.98L591.412 120.842C591.695 119.953 591.203 119.004 590.314 118.721Z" fill="black"/>
</g>
<path d="M549.86 111.314C549.831 113.29 550.378 115.231 551.433 116.902C552.488 118.573 554.006 119.901 555.803 120.724C557.599 121.548 559.596 121.831 561.551 121.539C563.505 121.248 565.333 120.394 566.811 119.083C568.289 117.771 569.354 116.058 569.875 114.152C570.397 112.246 570.353 110.229 569.749 108.348C569.145 106.466 568.007 104.801 566.473 103.555C564.94 102.308 563.077 101.535 561.112 101.329C558.296 101.162 555.529 102.12 553.419 103.992C551.309 105.864 550.029 108.498 549.86 111.314Z" fill="#263238"/>
<g opacity="0.2">
<path d="M549.86 111.314C549.831 113.29 550.378 115.231 551.433 116.902C552.488 118.573 554.006 119.901 555.803 120.724C557.599 121.548 559.596 121.831 561.551 121.539C563.505 121.248 565.333 120.394 566.811 119.083C568.289 117.771 569.354 116.058 569.875 114.152C570.397 112.246 570.353 110.229 569.749 108.348C569.145 106.466 568.007 104.801 566.473 103.555C564.94 102.308 563.077 101.535 561.112 101.329C558.296 101.162 555.529 102.12 553.419 103.992C551.309 105.864 550.029 108.498 549.86 111.314Z" fill="white"/>
</g>
<g opacity="0.2">
<path d="M550.763 111.183C550.733 112.522 551.093 113.84 551.801 114.977C552.509 116.113 553.533 117.019 554.747 117.583C555.962 118.146 557.314 118.344 558.639 118.15C559.964 117.957 561.204 117.382 562.207 116.495C563.21 115.607 563.933 114.447 564.286 113.155C564.64 111.864 564.609 110.497 564.197 109.223C563.786 107.949 563.012 106.822 561.97 105.981C560.928 105.14 559.664 104.621 558.331 104.487C556.44 104.372 554.58 105.012 553.161 106.268C551.741 107.524 550.879 109.291 550.763 111.183Z" fill="white"/>
</g>
<path d="M562.742 102.959L561.708 102.697C561.708 102.595 564.503 92.2607 578.811 89.9172L578.971 90.9652C565.362 93.1922 562.756 102.857 562.742 102.959Z" fill="white"/>
<path d="M647.396 220.29C646.82 220.858 646.05 221.186 645.242 221.207C642.112 221.76 632.739 223.23 632.011 221.469C631.152 219.344 634.82 218.354 634.82 218.354C633.452 217.908 632.282 216.998 631.514 215.78C630.746 214.563 630.427 213.115 630.614 211.688C631.298 206.885 643.612 204.41 647.571 205.138C648.837 205.4 650.788 215.676 647.396 220.29Z" fill="#CE7A63"/>
<path d="M517.169 231.119C525.014 236.578 534.985 241.308 544.489 245.675L540.981 258.92C535.211 258.184 529.494 257.08 523.864 255.616C518.029 254.157 512.328 252.21 506.82 249.794C503.775 248.399 500.853 246.748 498.087 244.86C496.422 243.737 494.863 242.466 493.429 241.061C491.657 239.347 490.142 237.386 488.931 235.239C488.596 234.598 488.262 233.958 487.956 233.23L487.738 232.691L487.621 232.415L487.49 232.007C487.316 231.469 487.17 230.916 487.024 230.363C486.672 228.732 486.506 227.067 486.53 225.399C486.574 223.171 486.837 220.953 487.316 218.776C488.039 215.481 489.013 212.245 490.227 209.097C492.321 203.521 494.722 198.064 497.417 192.751C499.998 187.579 502.705 182.548 505.539 177.657C511.201 167.803 517.096 158.401 523.733 149.071L546.556 164.689C540.865 173.611 534.912 182.781 529.264 191.82C526.441 196.361 523.66 200.902 521.026 205.429C518.391 209.956 515.888 214.483 513.85 218.82C512.929 220.75 512.113 222.727 511.405 224.744C511.245 225.181 511.128 225.603 511.041 225.894C511.364 226.296 511.709 226.68 512.074 227.044C513.641 228.559 515.346 229.924 517.169 231.119Z" fill="#263238"/>
<path d="M541.287 244.336L537.736 258.673L547.459 262.53C547.459 262.53 553.557 253.607 553.834 250.522C554.11 247.436 541.287 244.336 541.287 244.336Z" fill="#CE7A63"/>
<path d="M543.398 236.694C543.398 236.694 544.984 254.67 538.915 261.744C538.915 261.744 571.912 272.384 596.292 261.744C596.292 261.744 600.411 247.727 596.292 236.694C578.784 239.646 560.905 239.646 543.398 236.694Z" fill="#263238"/>
<path opacity="0.1" d="M543.398 236.694C543.398 236.694 544.984 254.67 538.915 261.744C538.915 261.744 571.912 272.384 596.292 261.744C596.292 261.744 600.411 247.727 596.292 236.694C578.784 239.646 560.905 239.646 543.398 236.694Z" fill="#F0F0F0"/>
<path d="M170.91 173.203C169.585 173.451 168.581 173.611 167.446 173.786L164.142 174.208C161.929 174.426 159.775 174.615 157.519 174.717C153.046 174.947 148.564 174.889 144.099 174.543C141.828 174.368 139.528 174.077 137.214 173.684C134.846 173.311 132.504 172.796 130.198 172.141C127.756 171.451 125.368 170.586 123.052 169.55C121.823 168.993 120.628 168.366 119.471 167.672C118.889 167.338 118.292 166.945 117.71 166.552L116.836 165.955L116.458 165.678L116.007 165.329C115.752 165.134 115.509 164.925 115.279 164.703C114.068 163.549 112.993 162.26 112.077 160.86C111.334 159.754 110.709 158.706 110.141 157.687C108.991 155.65 108.03 153.655 107.113 151.676C105.265 147.746 103.664 143.831 102.15 139.901C99.1224 132.041 95.1197 120.775 94.552 113.905C95.4254 110.848 98.4529 111.998 103.489 112.26C107.463 119.392 111.451 126.582 115.454 133.598C117.462 137.091 119.5 140.57 121.552 143.86C122.586 145.504 123.663 147.106 124.696 148.547C125.206 149.26 125.73 149.929 126.152 150.482C126.574 151.036 127.127 151.501 127.011 151.298L126.88 151.152L126.72 151.036L127.171 151.254C127.462 151.41 127.763 151.546 128.073 151.661C128.684 151.938 129.383 152.156 130.067 152.404C131.58 152.896 133.127 153.276 134.696 153.539C138.169 154.126 141.683 154.438 145.205 154.471C148.858 154.572 152.628 154.471 156.413 154.209C158.29 154.078 160.197 153.947 162.089 153.743L164.898 153.466L167.547 153.175L170.91 173.203Z" fill="#263238"/>
<path d="M105.847 103.235C105.972 104.943 105.789 106.658 105.308 108.301L103.183 114.778C103.081 117.383 95.9057 117.5 94.7703 114.618L92.0339 106.918C89.8215 103.687 87.5217 98.1848 87.6673 94.0365C87.7276 92.1308 87.9369 90.2328 88.2932 88.3599C88.3757 87.9392 88.5502 87.5419 88.804 87.1965C89.0579 86.851 89.3849 86.5659 89.7618 86.3615C90.1386 86.1571 90.5559 86.0384 90.9839 86.014C91.4119 85.9896 91.8401 86.06 92.2377 86.2202C95.4354 87.3455 98.3472 89.1591 100.767 91.5329C100.694 90.6261 100.758 89.7135 100.956 88.8256C101.582 87.2245 103.431 90.5723 105.425 94.0656C106.779 96.4235 106.255 100.703 105.847 103.235Z" fill="#FFC3BD"/>
<path d="M91.5682 109.931L99.2389 107.966C99.9927 107.616 100.628 107.053 101.068 106.348C101.507 105.642 101.731 104.823 101.713 103.992L100.869 84.0514C100.869 82.9598 100.2 82.363 99.4135 82.5959L91.6992 84.5463C90.9521 84.9055 90.3227 85.4699 89.8845 86.1735C89.4463 86.8772 89.2175 87.691 89.2247 88.5199L90.069 108.461C90.0835 109.553 90.7094 110.149 91.5682 109.931Z" fill="#263238"/>
<g opacity="0.3">
<path d="M91.5682 109.931L99.2389 107.966C99.9927 107.616 100.628 107.053 101.068 106.348C101.507 105.642 101.731 104.823 101.713 103.992L100.869 84.0514C100.869 82.9598 100.2 82.363 99.4135 82.5959L91.6992 84.5463C90.9521 84.9055 90.3227 85.4699 89.8845 86.1735C89.4463 86.8772 89.2175 87.691 89.2247 88.5199L90.069 108.461C90.0835 109.553 90.7094 110.149 91.5682 109.931Z" fill="white"/>
</g>
<path d="M92.3396 109.742L100.01 107.762C100.765 107.417 101.402 106.858 101.842 106.154C102.282 105.451 102.506 104.633 102.485 103.803L101.655 83.8622C101.655 82.7706 100.971 82.1738 100.112 82.4067L92.4415 84.3717C91.6881 84.7212 91.0536 85.2838 90.6164 85.99C90.1792 86.6962 89.9585 87.5151 89.9816 88.3453L90.8113 108.272C90.8549 109.363 91.4808 109.96 92.3396 109.742Z" fill="#263238"/>
<g opacity="0.4">
<path d="M92.3105 108.184L91.4808 88.229C91.4816 87.7419 91.6047 87.2628 91.8386 86.8356C92.0726 86.4084 92.41 86.0467 92.8199 85.7837L100.098 83.906L100.927 103.832C100.926 104.319 100.803 104.799 100.57 105.226C100.336 105.653 99.9982 106.015 99.5882 106.278L92.3105 108.184Z" fill="white"/>
</g>
<path d="M192.35 439.669L219.059 452.813L219.831 462.783L187.343 455.695L192.35 439.669Z" fill="#FFC3BD"/>
<path d="M217.312 459.392C216.763 459.85 216.348 460.447 216.11 461.12C215.872 461.794 215.819 462.519 215.959 463.22C216.643 465.273 220.078 467.849 220.078 467.849C220.078 467.849 223.688 479.042 223.877 482.099C224.066 485.155 225.784 487.761 231.737 488.619L231.853 451.372C231.853 451.372 218.404 450.586 216.104 450.47C213.805 450.353 216.657 453.861 216.657 453.861L217.312 459.392Z" fill="#263238"/>
<path d="M221.242 450.964C221.942 452.354 223.162 453.41 224.637 453.903C226.112 454.397 227.722 454.287 229.117 453.599C229.452 453.424 229.743 453.919 229.393 454.079C227.876 454.853 226.114 454.993 224.493 454.469C222.872 453.945 221.525 452.8 220.748 451.285C220.558 450.964 221.068 450.644 221.242 450.964Z" fill="white"/>
<path d="M229.699 451.561L229.917 480.89V487.601C229.917 487.964 229.35 487.994 229.35 487.601L229.131 458.271V451.561C229.131 451.197 229.699 451.168 229.699 451.561Z" fill="white"/>
<path d="M222.421 466.408C221.986 466.681 221.613 467.042 221.325 467.467C221.038 467.892 220.842 468.373 220.75 468.878C220.658 469.383 220.673 469.902 220.793 470.402C220.912 470.901 221.135 471.37 221.446 471.779C221.665 472.07 221.155 472.375 220.937 472.099C220.587 471.623 220.34 471.08 220.21 470.504C220.08 469.928 220.071 469.332 220.183 468.752C220.296 468.172 220.526 467.622 220.861 467.136C221.196 466.65 221.628 466.238 222.13 465.927C222.436 465.694 222.727 466.189 222.421 466.408Z" fill="white"/>
<path d="M223.382 469.581C222.946 469.853 222.571 470.212 222.282 470.637C221.993 471.062 221.796 471.543 221.702 472.048C221.609 472.553 221.623 473.073 221.741 473.573C221.86 474.073 222.082 474.542 222.392 474.952C222.625 475.243 222.116 475.548 221.897 475.272C221.548 474.796 221.3 474.253 221.171 473.677C221.041 473.101 221.032 472.505 221.144 471.925C221.256 471.345 221.487 470.795 221.822 470.309C222.157 469.823 222.589 469.412 223.091 469.1C223.397 468.868 223.688 469.362 223.382 469.581Z" fill="white"/>
<path d="M224.343 472.841C223.905 473.112 223.529 473.471 223.238 473.895C222.948 474.32 222.749 474.801 222.656 475.307C222.563 475.813 222.577 476.333 222.697 476.834C222.817 477.334 223.04 477.804 223.353 478.212C223.586 478.489 223.076 478.809 222.858 478.518C222.509 478.043 222.262 477.502 222.132 476.927C222.003 476.352 221.994 475.756 222.106 475.178C222.218 474.599 222.449 474.05 222.784 473.566C223.119 473.081 223.55 472.671 224.052 472.361C224.357 472.128 224.648 472.608 224.343 472.841Z" fill="white"/>
<path d="M199.599 462.783C199.696 462.791 199.791 462.821 199.875 462.871C198.623 461.619 192.714 461.605 191.142 460.95C151.871 445.288 103.067 405.537 98.1618 381.244C94.7121 364.272 122.775 292.878 136.821 252.254C137.636 249.896 138.403 247.717 139.121 245.719C139.965 243.331 140.736 241.221 141.406 239.46L167.737 251.73L170.182 252.865L173.559 254.437C173.559 254.437 172.234 259.022 170.08 266.606C160.27 301.218 135.409 376.95 139.95 384.141C141.813 387.052 205.654 444.415 205.654 444.415L199.599 462.783Z" fill="#0D345F"/>
<path d="M202.553 439.568L192.583 464.006L200.501 466.058L210.006 443.192L202.553 439.568Z" fill="#263238"/>
<g opacity="0.2">
<path d="M157.097 281.976L131.334 424.037C128.117 421.606 121.436 415.027 117.069 410.646C117.069 410.646 114.347 408.419 114.595 400.836C115.41 375.247 157.097 281.976 157.097 281.976Z" fill="black"/>
</g>
<g opacity="0.2">
<path d="M101.641 382.568C104.669 383.893 108.079 384.054 111.218 383.02C111.332 382.979 111.425 382.895 111.477 382.786C111.529 382.677 111.535 382.551 111.495 382.437C111.454 382.324 111.37 382.23 111.261 382.179C111.152 382.127 111.026 382.12 110.912 382.161C108.002 383.114 104.844 382.969 102.033 381.753C101.495 381.52 101.087 382.336 101.641 382.568Z" fill="black"/>
</g>
<path opacity="0.2" d="M155.932 399.307L158.654 401.811L163.938 447.267L157.097 443.002L155.932 399.307Z" fill="black"/>
<g opacity="0.2">
<path d="M146.282 246.767C145.605 250.83 144.06 254.699 141.752 258.11C139.443 261.521 136.426 264.394 132.906 266.533C132.309 266.897 132.906 267.843 133.459 267.479C137.094 265.27 140.214 262.309 142.609 258.794C145.004 255.279 146.619 251.292 147.345 247.101C147.461 246.417 146.398 246.112 146.282 246.81V246.767Z" fill="black"/>
</g>
<path d="M163.603 503.32L166.383 528.88L155.641 529.753L147.214 504.616L163.603 503.32Z" fill="#FFC3BD"/>
<path d="M158.014 527.235C157.556 526.686 156.959 526.27 156.286 526.032C155.612 525.794 154.886 525.742 154.186 525.881C152.133 526.58 149.572 530.015 149.572 530.015C149.572 530.015 138.393 533.625 135.365 533.858C132.338 534.09 129.703 535.793 128.874 541.747H166.077C166.077 541.747 166.834 528.297 166.936 525.983C167.038 523.669 163.545 526.565 163.545 526.565L158.014 527.235Z" fill="#263238"/>
<path d="M166.456 531.092C165.764 531.434 165.146 531.909 164.64 532.492C164.133 533.074 163.748 533.751 163.505 534.484C163.263 535.217 163.168 535.99 163.228 536.76C163.287 537.529 163.499 538.279 163.85 538.966C164.025 539.301 163.545 539.592 163.37 539.258C162.594 537.741 162.449 535.98 162.967 534.357C163.485 532.734 164.624 531.383 166.136 530.597C166.456 530.408 166.776 530.903 166.456 531.092Z" fill="white"/>
<path d="M165.932 539.592L136.603 539.898L129.893 539.971C129.529 539.971 129.5 539.403 129.893 539.389L159.222 539.083H165.932C166.296 539.083 166.325 539.651 165.932 539.651V539.592Z" fill="white"/>
<path d="M151.013 532.358C150.74 531.923 150.379 531.549 149.953 531.261C149.527 530.974 149.046 530.778 148.54 530.688C148.034 530.597 147.515 530.614 147.016 530.736C146.516 530.858 146.048 531.084 145.642 531.398C145.365 531.616 145.045 531.121 145.321 530.903C145.794 530.55 146.336 530.299 146.911 530.166C147.486 530.033 148.083 530.02 148.663 530.13C149.243 530.239 149.794 530.468 150.281 530.802C150.768 531.135 151.181 531.566 151.493 532.067C151.726 532.373 151.245 532.664 151.013 532.358Z" fill="white"/>
<path d="M147.854 533.334C147.581 532.898 147.22 532.524 146.794 532.237C146.369 531.949 145.887 531.754 145.381 531.663C144.875 531.573 144.356 531.589 143.857 531.711C143.358 531.834 142.89 532.059 142.483 532.373C142.206 532.591 141.886 532.082 142.163 531.864C142.638 531.513 143.18 531.265 143.755 531.134C144.331 531.003 144.927 530.993 145.506 531.104C146.086 531.215 146.636 531.444 147.123 531.778C147.61 532.111 148.022 532.542 148.334 533.043C148.567 533.348 148.087 533.625 147.854 533.334Z" fill="white"/>
<path d="M144.594 534.294C144.319 533.86 143.958 533.488 143.532 533.202C143.106 532.916 142.625 532.721 142.12 532.631C141.614 532.54 141.096 532.556 140.597 532.677C140.098 532.798 139.63 533.022 139.223 533.334C138.946 533.552 138.626 533.057 138.902 532.839C139.381 532.5 139.922 532.261 140.495 532.136C141.067 532.011 141.659 532.003 142.235 532.112C142.811 532.22 143.359 532.444 143.847 532.769C144.335 533.094 144.752 533.513 145.074 534.003C145.307 534.309 144.826 534.6 144.594 534.294Z" fill="white"/>
<path d="M204.809 273.621C197.823 315.075 154.695 387.852 154.695 387.852C154.695 392.714 157.606 408.797 158.334 419.714C158.989 429.335 159.789 440.455 160.75 451.547C163.195 481.414 165.946 511.107 165.946 511.107L146.835 512.563C146.835 512.563 132.454 471.197 125.686 434.546C123.095 420.616 119.194 400.297 119.966 390.268C122.047 363.501 153.443 294.334 164.942 264.772C167.853 257.348 169.643 252.865 169.643 252.865H173.21H203.558C204.797 254.956 205.525 257.31 205.683 259.735C205.983 264.382 205.689 269.049 204.809 273.621Z" fill="#0D345F"/>
<path d="M168.435 504.15L142.279 507.6L144.419 515.503L168.988 512.417L168.435 504.15Z" fill="#263238"/>
<g opacity="0.2">
<path d="M123.59 393.674C126.593 395.06 129.998 395.303 133.168 394.359C133.283 394.326 133.381 394.248 133.44 394.143C133.499 394.038 133.513 393.914 133.481 393.798C133.448 393.682 133.37 393.584 133.265 393.526C133.16 393.467 133.036 393.452 132.92 393.485C129.991 394.37 126.84 394.158 124.056 392.888C123.532 392.641 123.066 393.427 123.59 393.674Z" fill="black"/>
</g>
<g opacity="0.2">
<path d="M187.081 257.916C185.51 260.477 184.495 263.34 184.101 266.318C183.707 269.297 183.943 272.325 184.794 275.206C185.645 278.088 187.091 280.759 189.04 283.046C190.988 285.333 193.395 287.185 196.105 288.482C196.731 288.788 197.284 287.842 196.658 287.536C194.068 286.311 191.766 284.553 189.901 282.377C188.037 280.201 186.652 277.657 185.838 274.91C185.023 272.162 184.797 269.274 185.174 266.434C185.552 263.594 186.524 260.865 188.027 258.425C188.391 257.829 187.445 257.275 187.081 257.872V257.916Z" fill="black"/>
</g>
<path d="M229.408 183.771C212.262 217.248 209.278 247.567 210.195 264.117C198.917 264.17 187.658 263.195 176.557 261.206C168.491 259.822 160.515 257.956 152.672 255.616C150.445 254.947 148.305 254.248 146.5 253.564C139.441 250.973 135.191 248.353 135.773 246.359C141.595 226.302 145.758 209.825 147.17 198.326C135.991 185.896 148.917 181.049 151.42 167.92C153.327 157.891 163.516 151.268 174.709 152.578C176.557 152.797 178.449 153.044 180.342 153.306L184.141 153.888C191.824 155.213 199.418 157.016 206.876 159.289L212.291 160.875C214.94 161.646 217.516 162.491 219.932 163.335C228.957 166.508 233.382 175.998 229.408 183.771Z" fill="#263238"/>
<path d="M206.862 159.318C203.325 161.676 199.962 167.702 196.877 175.227C191.506 188.327 186.993 205.953 183.951 217.03C180.429 229.839 180.604 251.162 176.557 261.147C168.492 259.783 160.516 257.936 152.672 255.616C158.378 243.608 162.73 212.023 165.204 191.805C166.129 184.191 168.088 176.738 171.026 169.652C173.36 163.815 176.474 158.321 180.283 153.321L184.082 153.903C191.781 155.23 199.389 157.039 206.862 159.318Z" fill="white"/>
<path d="M206.862 159.317C203.325 161.675 199.962 167.701 196.877 175.227C191.957 179.244 186.077 181.922 179.774 180.408C173.472 178.895 171.259 174.586 171.041 169.666C173.374 163.829 176.489 158.336 180.298 153.335L184.097 153.917C191.79 155.241 199.394 157.044 206.862 159.317Z" fill="#FFC3BD"/>
<path d="M225.449 166.828C230.587 172.723 235.39 178.764 240.106 185.008C242.479 188.137 244.779 191.31 247.078 194.673C248.228 196.39 249.349 198.02 250.63 200.276C251.076 201.069 251.479 201.886 251.838 202.722C252.283 203.839 252.61 205 252.813 206.186C253.141 208.322 253.052 210.502 252.551 212.605C251.833 215.415 250.642 218.083 249.029 220.494C247.733 222.503 246.438 224.191 245.157 225.836C242.566 229.053 239.99 231.964 237.399 234.846C232.77 239.969 228.156 245.034 223.44 249.954C222.96 250.463 222.317 250.786 221.623 250.869C220.928 250.951 220.227 250.787 219.641 250.405L215.42 247.669C214.958 247.362 214.622 246.898 214.475 246.363C214.328 245.828 214.38 245.258 214.62 244.758C217.895 238.31 221.344 231.658 225.07 225.647C227.094 222.372 229.161 219.14 230.965 216.04C231.82 214.625 232.602 213.167 233.309 211.673C233.774 210.827 234.066 209.897 234.168 208.937C234.168 208.835 234.022 209.126 234.066 209.621C234.109 210.116 234.459 210.902 234.066 210.232C233.338 209.199 232.217 207.7 231.155 206.302C228.913 203.391 226.497 200.48 224.124 197.569C219.336 191.747 214.445 185.794 209.773 179.826L225.449 166.828Z" fill="#263238"/>
<path d="M215.144 246.097C215.144 246.097 209.933 250.012 207.866 254.306C205.799 258.6 207.342 264.495 208.084 266.693C208.827 268.891 210.879 269.953 213.543 270.055C216.206 270.157 217.08 266.474 217.909 263.971C217.909 263.971 217.487 267.275 218.433 267.537C219.379 267.799 221.184 262.661 221.665 258.571C222.145 254.481 223.033 250.958 222.814 248.266C222.596 245.573 218.477 244.292 215.144 246.097Z" fill="#FFC3BD"/>
<path d="M190.356 149.769L202.146 106.729C202.146 106.729 189.279 96.1324 177.838 108.184C168.101 118.49 175.014 130.294 168.712 141.414C166.558 145.228 164.753 147.004 163.545 149.755C169.454 152.491 179.221 150.919 190.356 149.769Z" fill="#0D345F"/>
<path d="M194.475 150.977C200.748 150.133 208.637 152.011 216.526 152.826C216.366 152.476 215.449 150.279 215.275 149.915C213.222 145.272 220.704 139.566 218.346 133.263C215.988 126.961 216.235 127.616 216.774 119.741C217.458 109.625 199.599 99.946 196.324 106.54C196.324 106.54 192.932 111.765 196.731 121.808C200.53 131.851 200.952 135.112 196.964 138.94C194.067 141.72 193.995 146.218 194.475 150.977Z" fill="#0D345F"/>
<path d="M186.775 162.592L186.091 162.491C185.262 162.325 184.49 161.944 183.855 161.386C183.219 160.828 182.742 160.113 182.47 159.312C182.199 158.511 182.143 157.653 182.308 156.823C182.474 155.994 182.855 155.223 183.413 154.587C184.358 153.367 184.916 151.892 185.014 150.351C185.155 148.779 185.102 147.195 184.854 145.635L187.299 143.976L199.628 136.873C197.604 143.321 195.13 153.597 199.249 158.532C196.516 160.715 193.241 162.113 189.774 162.578C188.777 162.677 187.773 162.682 186.775 162.592Z" fill="#FFC3BD"/>
<path d="M183.966 171.835C183.339 171.832 182.715 171.734 182.117 171.544C181.408 171.334 180.757 170.962 180.216 170.457C179.675 169.951 179.26 169.327 179.003 168.633C176.979 163.437 182.307 153.932 182.525 153.539C182.548 153.497 182.579 153.46 182.616 153.43C182.653 153.399 182.696 153.377 182.742 153.363C182.788 153.35 182.836 153.346 182.884 153.351C182.932 153.356 182.978 153.37 183.02 153.393C183.102 153.442 183.163 153.52 183.19 153.612C183.217 153.704 183.208 153.803 183.165 153.888C183.165 153.99 177.78 163.495 179.672 168.371C179.894 168.963 180.252 169.494 180.717 169.921C181.182 170.349 181.742 170.66 182.35 170.831C189.832 173.262 199.526 157.338 199.628 157.178C199.678 157.095 199.759 157.035 199.853 157.012C199.947 156.989 200.047 157.004 200.13 157.054C200.213 157.104 200.272 157.185 200.296 157.28C200.319 157.374 200.304 157.473 200.254 157.556C199.875 158.197 191.549 171.835 183.966 171.835Z" fill="white"/>
<g opacity="0.2">
<path d="M185.014 150.351C185.155 148.779 185.102 147.195 184.854 145.635L187.299 143.976L192.932 144.791C192.932 144.791 189.366 149.769 185.014 150.351Z" fill="black"/>
</g>
<path d="M205.595 126.35C202.291 136.931 201.345 139.624 194.65 143.816C184.577 150.133 172.322 145.65 172.453 134.297C172.584 124.108 177.984 108.476 189.366 106.743C200.748 105.011 208.914 115.739 205.595 126.335" fill="#FFC3BD"/>
<path d="M205.231 112.973C205.231 112.973 200.865 107.151 197.197 116.758C196.032 119.756 182.641 114.851 178.275 113.57C173.908 112.289 183.486 105.244 188.333 103.92C193.18 102.595 204.373 109.727 205.231 112.973Z" fill="#0D345F"/>
<path d="M176.557 132.405C179.548 133.068 182.63 133.211 185.669 132.827C185.669 132.827 183.107 136.946 179.847 136.538C176.586 136.131 176.557 132.405 176.557 132.405Z" fill="white"/>
<path d="M187.678 124.356C187.459 125.229 186.819 125.811 186.222 125.68C185.625 125.549 185.363 124.719 185.582 123.846C185.8 122.973 186.44 122.391 187.037 122.507C187.634 122.623 187.896 123.482 187.678 124.356Z" fill="#263238"/>
<path d="M178.493 122.318C178.275 123.191 177.634 123.773 177.038 123.657C176.441 123.54 176.179 122.682 176.397 121.808C176.615 120.935 177.256 120.353 177.853 120.484C178.449 120.615 178.711 121.444 178.493 122.318Z" fill="#263238"/>
<path d="M178.086 120.586L176.135 119.465C176.135 119.465 176.805 121.372 178.086 120.586Z" fill="#263238"/>
<path d="M181.055 123.162C181.055 123.162 178.973 125.112 176.834 126.728C176.673 126.853 176.544 127.013 176.455 127.196C176.365 127.379 176.319 127.58 176.319 127.783C176.319 127.987 176.365 128.187 176.455 128.37C176.544 128.553 176.673 128.713 176.834 128.838C177.6 129.465 178.435 130.002 179.323 130.44L181.055 123.162Z" fill="#ED847E"/>
<path d="M190.676 121.706C190.603 121.699 190.533 121.674 190.473 121.633C190.412 121.592 190.362 121.538 190.327 121.473C189.974 120.91 189.493 120.438 188.925 120.094C188.356 119.75 187.714 119.545 187.052 119.494C186.975 119.507 186.896 119.503 186.82 119.482C186.745 119.461 186.675 119.424 186.615 119.373C186.556 119.323 186.508 119.26 186.475 119.189C186.442 119.118 186.425 119.041 186.425 118.963C186.425 118.884 186.442 118.807 186.475 118.736C186.508 118.665 186.556 118.602 186.615 118.552C186.675 118.501 186.745 118.464 186.82 118.443C186.896 118.423 186.975 118.419 187.052 118.431C187.892 118.479 188.708 118.728 189.432 119.156C190.156 119.584 190.767 120.179 191.215 120.891C191.291 121.011 191.318 121.156 191.288 121.295C191.258 121.434 191.174 121.556 191.054 121.634C190.999 121.67 190.938 121.696 190.873 121.708C190.808 121.721 190.741 121.72 190.676 121.706Z" fill="#263238"/>
<path d="M175.568 118.228C175.437 118.188 175.328 118.099 175.262 117.98C175.226 117.919 175.203 117.852 175.194 117.782C175.185 117.712 175.19 117.641 175.209 117.573C175.228 117.505 175.26 117.441 175.304 117.386C175.349 117.331 175.403 117.286 175.466 117.252C176.189 116.826 177.003 116.578 177.841 116.53C178.679 116.482 179.516 116.635 180.283 116.976C180.346 117.007 180.402 117.05 180.448 117.103C180.494 117.155 180.529 117.217 180.55 117.283C180.572 117.35 180.58 117.42 180.574 117.49C180.568 117.559 180.549 117.627 180.516 117.689C180.451 117.813 180.34 117.907 180.207 117.95C180.074 117.994 179.929 117.983 179.803 117.922C179.191 117.657 178.525 117.541 177.859 117.584C177.194 117.627 176.548 117.828 175.975 118.169C175.911 118.197 175.841 118.212 175.771 118.212C175.701 118.212 175.632 118.197 175.568 118.169" fill="#263238"/>
<path d="M187.285 122.623L185.334 121.488C185.334 121.488 186.004 123.409 187.285 122.623Z" fill="#263238"/>
<path d="M214.183 120.134C212.436 125.549 212.873 127.165 214.081 129.537L203.776 134.311C203.689 134.02 202.99 133.496 202.087 132.739C201.753 132.477 201.403 132.172 201.039 131.837C198.871 129.857 196.367 126.801 197.372 122.725C197.648 121.575 197.852 120.484 197.997 119.465C198.143 118.446 198.216 117.456 198.259 116.554C198.551 113.096 197.865 109.626 196.28 106.54C198.638 102.624 217.458 110.062 214.183 120.134Z" fill="#0D345F"/>
<path d="M205.231 132.405L202.087 132.739C201.753 132.477 201.403 132.172 201.039 131.837C198.871 129.857 196.367 126.801 197.372 122.725C197.648 121.575 197.852 120.484 197.997 119.465C201.213 119.657 204.335 120.626 207.095 122.289C211.447 125.302 205.231 132.405 205.231 132.405Z" fill="#FFC3BD"/>
<g opacity="0.2">
<path d="M205.231 132.405L202.087 132.739C201.753 132.477 201.403 132.172 201.039 131.837C198.871 129.857 196.367 126.801 197.372 122.725C197.648 121.575 197.852 120.484 197.997 119.465C201.213 119.657 204.335 120.626 207.095 122.289C211.447 125.302 205.231 132.405 205.231 132.405Z" fill="black"/>
</g>
<path d="M207.575 134.806C206.958 135.605 206.178 136.263 205.287 136.737C204.396 137.212 203.415 137.491 202.408 137.557C199.846 137.557 199.307 134.646 200.647 132.23C201.84 129.974 204.606 127.237 206.876 128.343C209.147 129.45 209.263 132.71 207.575 134.806Z" fill="#FFC3BD"/>
<path d="M201.738 138.489C201.991 138.74 202.313 138.91 202.662 138.979C203.012 139.047 203.374 139.011 203.703 138.874C204.032 138.737 204.314 138.506 204.511 138.209C204.709 137.913 204.815 137.564 204.815 137.208C204.815 136.851 204.709 136.503 204.511 136.206C204.314 135.91 204.032 135.678 203.703 135.541C203.374 135.404 203.012 135.368 202.662 135.437C202.313 135.505 201.991 135.676 201.738 135.927C201.569 136.095 201.435 136.294 201.344 136.514C201.252 136.734 201.205 136.97 201.205 137.208C201.205 137.446 201.252 137.682 201.344 137.901C201.435 138.121 201.569 138.321 201.738 138.489Z" fill="white"/>
<path d="M171.987 118.126L181.128 120.222C181.128 120.222 179.57 126.204 175.073 126.044C170.575 125.884 171.987 118.126 171.987 118.126Z" fill="#263238"/>
<path d="M182.962 120.775L193.15 122.463C193.15 122.463 191.695 128.489 186.819 128.533C181.943 128.576 182.962 120.775 182.962 120.775Z" fill="#263238"/>
<path d="M183.165 122.128C182.815 121.714 182.361 121.401 181.849 121.219C181.338 121.038 180.788 120.995 180.254 121.095L180.109 120.455C180.768 120.321 181.451 120.37 182.084 120.595C182.718 120.821 183.278 121.215 183.704 121.736L183.165 122.128Z" fill="#263238"/>
<path d="M204.023 128.489C203.564 127.621 202.928 126.859 202.156 126.252C201.384 125.645 200.492 125.207 199.54 124.967C195.989 123.948 192.568 123.06 192.525 123.045L192.699 122.419C192.699 122.419 196.149 123.322 199.715 124.341C200.767 124.599 201.751 125.082 202.6 125.755C203.449 126.428 204.143 127.276 204.635 128.242L204.023 128.489Z" fill="#263238"/>
</svg>
