<svg width="734" height="711" viewBox="0 0 734 711" fill="none" xmlns="http://www.w3.org/2000/svg">
<path d="M679.225 216.248H531.049V552.383H679.225V216.248Z" stroke="#263238" stroke-width="0.75" stroke-linecap="round" stroke-linejoin="round"/>
<path d="M666.219 229.254H544.055V539.377H666.219V229.254Z" stroke="#263238" stroke-width="0.75" stroke-linecap="round" stroke-linejoin="round"/>
<path d="M557.94 366.184L554.605 371.973" stroke="#263238" stroke-width="0.75" stroke-linecap="round" stroke-linejoin="round"/>
<path d="M593.01 305.466L561.789 359.548" stroke="#263238" stroke-width="0.75" stroke-linecap="round" stroke-linejoin="round"/>
<path d="M621.66 255.831L598.004 296.807" stroke="#263238" stroke-width="0.75" stroke-linecap="round" stroke-linejoin="round"/>
<path d="M626.67 247.171L624.148 251.517" stroke="#263238" stroke-width="0.75" stroke-linecap="round" stroke-linejoin="round"/>
<path d="M567.877 513.58L565.04 518.491" stroke="#263238" stroke-width="0.75" stroke-linecap="round" stroke-linejoin="round"/>
<path d="M574.447 502.2L571.444 507.426" stroke="#263238" stroke-width="0.75" stroke-linecap="round" stroke-linejoin="round"/>
<path d="M614.51 432.807L580.883 491.069" stroke="#263238" stroke-width="0.75" stroke-linecap="round" stroke-linejoin="round"/>
<path d="M644.288 381.23L617.96 426.851" stroke="#263238" stroke-width="0.75" stroke-linecap="round" stroke-linejoin="round"/>
<path d="M650.808 369.949L648.203 374.462" stroke="#263238" stroke-width="0.75" stroke-linecap="round" stroke-linejoin="round"/>
<path d="M605.137 476.47L580.883 518.491" stroke="#263238" stroke-width="0.75" stroke-linecap="round" stroke-linejoin="round"/>
<path d="M636.159 422.737L608.671 470.348" stroke="#263238" stroke-width="0.75" stroke-linecap="round" stroke-linejoin="round"/>
<path d="M642.613 411.572L639.361 417.196" stroke="#263238" stroke-width="0.75" stroke-linecap="round" stroke-linejoin="round"/>
<path d="M554.606 409.681L550.923 416.068" stroke="#263238" stroke-width="0.75" stroke-linecap="round" stroke-linejoin="round"/>
<path d="M586.839 353.858L557.558 404.571" stroke="#263238" stroke-width="0.75" stroke-linecap="round" stroke-linejoin="round"/>
<path d="M627.068 284.182L590.289 347.869" stroke="#263238" stroke-width="0.75" stroke-linecap="round" stroke-linejoin="round"/>
<path d="M651.239 242.31L629.905 279.272" stroke="#263238" stroke-width="0.75" stroke-linecap="round" stroke-linejoin="round"/>
<path d="M202.545 216.248H54.3682V552.383H202.545V216.248Z" stroke="#263238" stroke-width="0.75" stroke-linecap="round" stroke-linejoin="round"/>
<path d="M189.539 229.254H67.3743V539.377H189.539V229.254Z" stroke="#263238" stroke-width="0.75" stroke-linecap="round" stroke-linejoin="round"/>
<path d="M81.2596 366.184L77.9252 371.973" stroke="#263238" stroke-width="0.75" stroke-linecap="round" stroke-linejoin="round"/>
<path d="M116.313 305.466L85.0918 359.548" stroke="#263238" stroke-width="0.75" stroke-linecap="round" stroke-linejoin="round"/>
<path d="M144.98 255.831L121.323 296.807" stroke="#263238" stroke-width="0.75" stroke-linecap="round" stroke-linejoin="round"/>
<path d="M149.973 247.171L147.468 251.517" stroke="#263238" stroke-width="0.75" stroke-linecap="round" stroke-linejoin="round"/>
<path d="M91.1967 513.58L88.3599 518.491" stroke="#263238" stroke-width="0.75" stroke-linecap="round" stroke-linejoin="round"/>
<path d="M97.7661 502.2L94.7468 507.426" stroke="#263238" stroke-width="0.75" stroke-linecap="round" stroke-linejoin="round"/>
<path d="M137.83 432.807L104.186 491.069" stroke="#263238" stroke-width="0.75" stroke-linecap="round" stroke-linejoin="round"/>
<path d="M167.608 381.23L141.264 426.851" stroke="#263238" stroke-width="0.75" stroke-linecap="round" stroke-linejoin="round"/>
<path d="M174.127 369.949L171.506 374.462" stroke="#263238" stroke-width="0.75" stroke-linecap="round" stroke-linejoin="round"/>
<path d="M128.456 476.47L104.186 518.491" stroke="#263238" stroke-width="0.75" stroke-linecap="round" stroke-linejoin="round"/>
<path d="M159.479 422.737L131.99 470.348" stroke="#263238" stroke-width="0.75" stroke-linecap="round" stroke-linejoin="round"/>
<path d="M165.915 411.572L162.681 417.196" stroke="#263238" stroke-width="0.75" stroke-linecap="round" stroke-linejoin="round"/>
<path d="M77.9252 409.681L74.2257 416.068" stroke="#263238" stroke-width="0.75" stroke-linecap="round" stroke-linejoin="round"/>
<path d="M110.142 353.858L80.8615 404.571" stroke="#263238" stroke-width="0.75" stroke-linecap="round" stroke-linejoin="round"/>
<path d="M150.371 284.182L113.609 347.869" stroke="#263238" stroke-width="0.75" stroke-linecap="round" stroke-linejoin="round"/>
<path d="M174.542 242.31L153.208 279.272" stroke="#263238" stroke-width="0.75" stroke-linecap="round" stroke-linejoin="round"/>
<path d="M1 692.497H732.594" stroke="#263238" stroke-linecap="round" stroke-linejoin="round"/>
<path d="M255.133 561.076H242.442V604.225H255.133V561.076Z" fill="#6F95C9"/>
<path opacity="0.2" d="M255.133 561.076H242.442V604.225H255.133V561.076Z" fill="black"/>
<path d="M267.841 565.821H255.15V604.225H267.841V565.821Z" fill="#6F95C9"/>
<path d="M283.684 565.821H274.725V604.225H283.684V565.821Z" fill="#6F95C9"/>
<path opacity="0.9" d="M283.684 565.821H274.725V604.225H283.684V565.821Z" fill="white"/>
<path d="M274.742 561.773H266.613V604.242H274.742V561.773Z" fill="#6F95C9"/>
<path opacity="0.1" d="M274.742 561.773H266.613V604.242H274.742V561.773Z" fill="black"/>
<path d="M296.391 561.076H283.7V604.225H296.391V561.076Z" fill="#6F95C9"/>
<path d="M309.082 565.821H296.391V604.225H309.082V565.821Z" fill="#6F95C9"/>
<path opacity="0.2" d="M309.082 565.821H296.391V604.225H309.082V565.821Z" fill="#263238"/>
<path d="M324.942 565.821H315.983V604.225H324.942V565.821Z" fill="#6F95C9"/>
<path opacity="0.8" d="M324.942 565.821H315.983V604.225H324.942V565.821Z" fill="white"/>
<path d="M315.983 561.773H307.854V604.242H315.983V561.773Z" fill="#6F95C9"/>
<path opacity="0.1" d="M315.983 561.773H307.854V604.242H315.983V561.773Z" fill="black"/>
<path d="M385.493 604.242H398.184V561.093H385.493V604.242Z" fill="#6F95C9"/>
<path opacity="0.2" d="M385.493 604.242H398.184V561.093H385.493V604.242Z" fill="black"/>
<path d="M372.786 604.242H385.476V565.837H372.786V604.242Z" fill="#6F95C9"/>
<path d="M356.943 604.242H365.901V565.837H356.943V604.242Z" fill="#6F95C9"/>
<path opacity="0.9" d="M356.943 604.242H365.901V565.837H356.943V604.242Z" fill="white"/>
<path d="M365.884 604.225H374.013V561.756H365.884V604.225Z" fill="#6F95C9"/>
<path opacity="0.1" d="M365.884 604.225H374.013V561.756H365.884V604.225Z" fill="black"/>
<path d="M344.235 604.242H356.926V561.093H344.235V604.242Z" fill="#6F95C9"/>
<path d="M331.544 604.242H344.235V565.837H331.544V604.242Z" fill="#6F95C9"/>
<path opacity="0.2" d="M331.544 604.242H344.235V565.837H331.544V604.242Z" fill="#263238"/>
<path d="M324.643 604.225H332.772V561.756H324.643V604.225Z" fill="#6F95C9"/>
<path opacity="0.1" d="M324.643 604.225H332.772V561.756H324.643V604.225Z" fill="black"/>
<path d="M458.652 604.242H471.343V561.093H458.652V604.242Z" fill="#6F95C9"/>
<path opacity="0.2" d="M458.652 604.242H471.343V561.093H458.652V604.242Z" fill="black"/>
<path d="M445.945 604.242H458.636V565.837H445.945V604.242Z" fill="#6F95C9"/>
<path d="M430.102 604.242H439.06V565.837H430.102V604.242Z" fill="#6F95C9"/>
<path opacity="0.9" d="M430.102 604.242H439.06V565.837H430.102V604.242Z" fill="white"/>
<path d="M439.044 604.225H447.172V561.756H439.044V604.225Z" fill="#6F95C9"/>
<path opacity="0.1" d="M439.044 604.225H447.172V561.756H439.044V604.225Z" fill="black"/>
<path d="M417.394 604.242H430.085V561.093H417.394V604.242Z" fill="#6F95C9"/>
<path d="M479.604 602.717L487.94 600.483L476.721 558.628L468.386 560.863L479.604 602.717Z" fill="#6F95C9"/>
<path d="M404.704 604.242H417.394V565.837H404.704V604.242Z" fill="#6F95C9"/>
<path opacity="0.2" d="M404.704 604.242H417.394V565.837H404.704V604.242Z" fill="#263238"/>
<path d="M397.802 604.225H405.931V561.756H397.802V604.225Z" fill="#6F95C9"/>
<path opacity="0.1" d="M397.802 604.225H405.931V561.756H397.802V604.225Z" fill="black"/>
<path d="M483.854 660.292L492.379 658.007L481.211 616.329L472.686 618.613L483.854 660.292Z" fill="#6F95C9"/>
<path opacity="0.2" d="M483.854 660.292L492.379 658.007L481.211 616.329L472.686 618.613L483.854 660.292Z" fill="black"/>
<path d="M461.954 659.866H474.645V621.462H461.954V659.866Z" fill="#6F95C9"/>
<path d="M446.078 659.866H455.036V621.462H446.078V659.866Z" fill="#6F95C9"/>
<path opacity="0.9" d="M446.078 659.866H455.036V621.462H446.078V659.866Z" fill="white"/>
<path d="M455.036 659.883H463.165V617.414H455.036V659.883Z" fill="#6F95C9"/>
<path opacity="0.1" d="M455.036 659.883H463.165V617.414H455.036V659.883Z" fill="black"/>
<path d="M433.403 659.883H446.094V616.734H433.403V659.883Z" fill="#6F95C9"/>
<path d="M420.696 659.866H433.387V621.462H420.696V659.866Z" fill="#6F95C9"/>
<path opacity="0.2" d="M420.696 659.866H433.387V621.462H420.696V659.866Z" fill="#263238"/>
<path d="M404.853 659.866H413.811V621.462H404.853V659.866Z" fill="#6F95C9"/>
<path opacity="0.8" d="M404.853 659.866H413.811V621.462H404.853V659.866Z" fill="white"/>
<path d="M413.795 659.883H421.923V617.414H413.795V659.883Z" fill="#6F95C9"/>
<path opacity="0.1" d="M413.795 659.883H421.923V617.414H413.795V659.883Z" fill="black"/>
<path d="M344.301 616.734H331.61V659.883H344.301V616.734Z" fill="#6F95C9"/>
<path opacity="0.2" d="M344.301 616.734H331.61V659.883H344.301V616.734Z" fill="black"/>
<path d="M356.992 621.478H344.301V659.883H356.992V621.478Z" fill="#6F95C9"/>
<path d="M372.852 621.478H363.894V659.883H372.852V621.478Z" fill="#6F95C9"/>
<path opacity="0.9" d="M372.852 621.478H363.894V659.883H372.852V621.478Z" fill="white"/>
<path d="M363.894 617.414H355.765V659.883H363.894V617.414Z" fill="#6F95C9"/>
<path opacity="0.1" d="M363.894 617.414H355.765V659.883H363.894V617.414Z" fill="black"/>
<path d="M385.543 616.734H372.852V659.883H385.543V616.734Z" fill="#6F95C9"/>
<path d="M398.234 621.478H385.543V659.883H398.234V621.478Z" fill="#6F95C9"/>
<path opacity="0.2" d="M398.234 621.478H385.543V659.883H398.234V621.478Z" fill="#263238"/>
<path d="M405.135 617.414H397.006V659.883H405.135V617.414Z" fill="#6F95C9"/>
<path opacity="0.1" d="M405.135 617.414H397.006V659.883H405.135V617.414Z" fill="black"/>
<path d="M271.142 616.734H258.451V659.883H271.142V616.734Z" fill="#6F95C9"/>
<path opacity="0.2" d="M271.142 616.734H258.451V659.883H271.142V616.734Z" fill="black"/>
<path d="M283.833 621.478H271.142V659.883H283.833V621.478Z" fill="#6F95C9"/>
<path d="M299.692 621.478H290.734V659.883H299.692V621.478Z" fill="#6F95C9"/>
<path opacity="0.9" d="M299.692 621.478H290.734V659.883H299.692V621.478Z" fill="white"/>
<path d="M290.734 617.414H282.605V659.883H290.734V617.414Z" fill="#6F95C9"/>
<path opacity="0.1" d="M290.734 617.414H282.605V659.883H290.734V617.414Z" fill="black"/>
<path d="M312.383 616.734H299.693V659.883H312.383V616.734Z" fill="#6F95C9"/>
<path d="M258.425 618.578L250.124 616.354L238.956 658.032L247.257 660.256L258.425 618.578Z" fill="#6F95C9"/>
<path d="M325.074 621.478H312.383V659.883H325.074V621.478Z" fill="#6F95C9"/>
<path opacity="0.2" d="M325.074 621.478H312.383V659.883H325.074V621.478Z" fill="#263238"/>
<path d="M331.975 617.414H323.847V659.883H331.975V617.414Z" fill="#6F95C9"/>
<path opacity="0.1" d="M331.975 617.414H323.847V659.883H331.975V617.414Z" fill="black"/>
<path d="M252.197 692.497H239.506L237.764 667.945H253.939L252.197 692.497Z" fill="#263238"/>
<path d="M494.087 692.497H481.396L479.655 667.945H495.829L494.087 692.497Z" fill="#263238"/>
<path d="M508.072 544.785H225.521C223.906 544.785 222.358 545.427 221.216 546.568C220.074 547.71 219.433 549.259 219.433 550.874V666.303C219.433 667.917 220.074 669.466 221.216 670.608C222.358 671.75 223.906 672.391 225.521 672.391H508.072C509.687 672.391 511.236 671.75 512.377 670.608C513.519 669.466 514.161 667.917 514.161 666.303V550.874C514.161 549.259 513.519 547.71 512.377 546.568C511.236 545.427 509.687 544.785 508.072 544.785ZM501.967 556.978V604.242H231.56V556.978H501.967ZM231.626 660.264V612.951H502.034V660.264H231.626Z" fill="white" stroke="#263238" stroke-width="0.75" stroke-linecap="round" stroke-linejoin="round"/>
<path d="M466.3 302.331H270.794C264.509 302.331 259.413 307.426 259.413 313.711V355.682C259.413 361.968 264.509 367.063 270.794 367.063H466.3C472.585 367.063 477.68 361.968 477.68 355.682V313.711C477.68 307.426 472.585 302.331 466.3 302.331Z" fill="#263238" stroke="#263238" stroke-linecap="round" stroke-linejoin="round"/>
<path d="M462.816 298.847H267.31C261.025 298.847 255.93 303.942 255.93 310.227V352.199C255.93 358.484 261.025 363.579 267.31 363.579H462.816C469.102 363.579 474.197 358.484 474.197 352.199V310.227C474.197 303.942 469.102 298.847 462.816 298.847Z" fill="white" stroke="#263238" stroke-linecap="round" stroke-linejoin="round"/>
<path d="M462.816 298.847H267.31C261.025 298.847 255.93 303.942 255.93 310.227V352.199C255.93 358.484 261.025 363.579 267.31 363.579H462.816C469.102 363.579 474.197 358.484 474.197 352.199V310.227C474.197 303.942 469.102 298.847 462.816 298.847Z" stroke="#263238" stroke-linecap="round" stroke-linejoin="round"/>
<path d="M304.255 350.324H275.505V313.96H294.666L304.255 323.549V350.324Z" fill="#6F95C9"/>
<mask id="mask0_901_13734" style="mask-type:luminance" maskUnits="userSpaceOnUse" x="275" y="313" width="30" height="38">
<path d="M304.255 350.324H275.505V313.96H294.666L304.255 323.549V350.324Z" fill="white"/>
</mask>
<g mask="url(#mask0_901_13734)">
<path opacity="0.5" d="M304.255 350.324H275.505V313.96H294.666L304.255 323.549V350.324Z" fill="white"/>
</g>
<path d="M304.255 350.324H275.505V313.96H294.666L304.255 323.549V350.324Z" stroke="#263238" stroke-linecap="round" stroke-linejoin="round"/>
<path d="M294.666 323.549H304.255L294.666 313.96V323.549Z" fill="#6F95C9" stroke="#263238" stroke-linecap="round" stroke-linejoin="round"/>
<path d="M281.892 333.253C281.44 333.21 281.021 333 280.716 332.664C280.41 332.328 280.241 331.891 280.241 331.437C280.241 330.983 280.41 330.545 280.716 330.21C281.021 329.874 281.44 329.664 281.892 329.62H297.868C298.32 329.664 298.739 329.874 299.044 330.21C299.35 330.545 299.519 330.983 299.519 331.437C299.519 331.891 299.35 332.328 299.044 332.664C298.739 333 298.32 333.21 297.868 333.253H281.892Z" fill="#858585" stroke="#263238" stroke-width="0.75" stroke-linecap="round" stroke-linejoin="round"/>
<path d="M281.892 340.901C281.44 340.858 281.021 340.648 280.716 340.312C280.41 339.976 280.241 339.539 280.241 339.085C280.241 338.631 280.41 338.193 280.716 337.857C281.021 337.521 281.44 337.311 281.892 337.268H294.384C294.836 337.311 295.255 337.521 295.561 337.857C295.866 338.193 296.035 338.631 296.035 339.085C296.035 339.539 295.866 339.976 295.561 340.312C295.255 340.648 294.836 340.858 294.384 340.901H281.892Z" fill="#858585" stroke="#263238" stroke-width="0.75" stroke-linecap="round" stroke-linejoin="round"/>
<path d="M376.933 335.344H323.432C322.479 335.407 321.585 335.831 320.932 336.528C320.279 337.226 319.916 338.146 319.916 339.101C319.916 340.057 320.279 340.977 320.932 341.674C321.585 342.372 322.479 342.795 323.432 342.859H376.933V335.344Z" fill="#6F95C9"/>
<path d="M323.432 342.859C322.479 342.795 321.585 342.372 320.932 341.674C320.279 340.977 319.916 340.057 319.916 339.101C319.916 338.146 320.279 337.226 320.932 336.528C321.585 335.831 322.479 335.407 323.432 335.344H450.839C451.353 335.31 451.869 335.381 452.355 335.555C452.84 335.728 453.285 335.999 453.662 336.352C454.038 336.704 454.338 337.13 454.543 337.603C454.749 338.076 454.854 338.586 454.854 339.101C454.854 339.617 454.749 340.127 454.543 340.6C454.338 341.073 454.038 341.499 453.662 341.851C453.285 342.203 452.84 342.474 452.355 342.648C451.869 342.821 451.353 342.893 450.839 342.859H323.432Z" stroke="#263238" stroke-linecap="round" stroke-linejoin="round"/>
<path d="M378.144 325.158H374.113V323.25L377.945 314.176H380.251V323.25H381.246V325.158H380.251V327.596H378.144V325.158ZM378.144 323.25V318.024L376.07 323.267L378.144 323.25Z" fill="#263238"/>
<path d="M382.225 324.428V323.383H384.216V324.577C384.216 325.539 384.63 325.888 385.311 325.888C385.991 325.888 386.405 325.539 386.405 324.577V321.575C386.405 320.612 385.974 320.247 385.311 320.247C384.647 320.247 384.216 320.612 384.216 321.575V321.691H382.225L382.606 314.192H388.164V316.117H384.481L384.315 319.318C384.5 319.004 384.768 318.746 385.09 318.573C385.412 318.4 385.775 318.32 386.14 318.34C387.683 318.34 388.479 319.434 388.479 321.409V324.428C388.479 326.585 387.401 327.746 385.327 327.746C383.253 327.746 382.225 326.585 382.225 324.428Z" fill="#263238"/>
<path d="M389.823 319.501V316.183C389.797 315.901 389.831 315.616 389.921 315.348C390.012 315.079 390.157 314.832 390.349 314.623C390.54 314.414 390.773 314.246 391.032 314.132C391.291 314.018 391.572 313.959 391.855 313.959C392.139 313.959 392.419 314.018 392.678 314.132C392.938 314.246 393.17 314.414 393.361 314.623C393.553 314.832 393.698 315.079 393.789 315.348C393.879 315.616 393.913 315.901 393.887 316.183V319.501C393.913 319.783 393.879 320.068 393.789 320.336C393.698 320.605 393.553 320.852 393.361 321.061C393.17 321.27 392.938 321.437 392.678 321.552C392.419 321.666 392.139 321.725 391.855 321.725C391.572 321.725 391.291 321.666 391.032 321.552C390.773 321.437 390.54 321.27 390.349 321.061C390.157 320.852 390.012 320.605 389.921 320.336C389.831 320.068 389.797 319.783 389.823 319.501ZM392.544 319.6V316.05C392.544 315.47 392.278 315.221 391.863 315.221C391.449 315.221 391.167 315.47 391.167 316.05V319.6C391.167 320.198 391.415 320.446 391.863 320.446C392.311 320.446 392.544 320.181 392.544 319.6ZM396.724 314.192H398.068L392.875 327.613H391.532L396.724 314.192ZM395.712 325.656V322.338C395.687 322.055 395.72 321.771 395.811 321.502C395.901 321.234 396.047 320.987 396.238 320.778C396.429 320.568 396.662 320.401 396.921 320.287C397.18 320.172 397.461 320.113 397.744 320.113C398.028 320.113 398.308 320.172 398.568 320.287C398.827 320.401 399.06 320.568 399.251 320.778C399.442 320.987 399.587 321.234 399.678 321.502C399.768 321.771 399.802 322.055 399.777 322.338V325.656C399.802 325.938 399.768 326.222 399.678 326.491C399.587 326.76 399.442 327.006 399.251 327.216C399.06 327.425 398.827 327.592 398.568 327.706C398.308 327.821 398.028 327.88 397.744 327.88C397.461 327.88 397.18 327.821 396.921 327.706C396.662 327.592 396.429 327.425 396.238 327.216C396.047 327.006 395.901 326.76 395.811 326.491C395.72 326.222 395.687 325.938 395.712 325.656ZM398.433 325.755V322.205C398.433 321.608 398.167 321.359 397.736 321.359C397.305 321.359 397.056 321.608 397.056 322.205V325.755C397.056 326.352 397.305 326.601 397.736 326.601C398.167 326.601 398.433 326.352 398.433 325.755Z" fill="#263238"/>
<path d="M466.3 377.448H270.794C264.509 377.448 259.413 382.543 259.413 388.828V430.799C259.413 437.084 264.509 442.18 270.794 442.18H466.3C472.585 442.18 477.68 437.084 477.68 430.799V388.828C477.68 382.543 472.585 377.448 466.3 377.448Z" fill="#263238" stroke="#263238" stroke-linecap="round" stroke-linejoin="round"/>
<path d="M462.816 373.964H267.31C261.025 373.964 255.93 379.059 255.93 385.344V427.315C255.93 433.601 261.025 438.696 267.31 438.696H462.816C469.102 438.696 474.197 433.601 474.197 427.315V385.344C474.197 379.059 469.102 373.964 462.816 373.964Z" fill="white" stroke="#263238" stroke-linecap="round" stroke-linejoin="round"/>
<path d="M419.136 409.996H323.432C322.479 410.06 321.585 410.483 320.932 411.181C320.279 411.878 319.916 412.798 319.916 413.754C319.916 414.709 320.279 415.629 320.932 416.327C321.585 417.024 322.479 417.448 323.432 417.511H419.136V409.996Z" fill="#6F95C9"/>
<path d="M323.432 417.511C322.479 417.448 321.585 417.024 320.932 416.327C320.279 415.629 319.916 414.709 319.916 413.754C319.916 412.798 320.279 411.878 320.932 411.181C321.585 410.483 322.479 410.06 323.432 409.996H450.839C451.353 409.962 451.869 410.034 452.355 410.207C452.84 410.38 453.285 410.652 453.662 411.004C454.038 411.356 454.338 411.782 454.543 412.255C454.749 412.728 454.854 413.238 454.854 413.754C454.854 414.269 454.749 414.779 454.543 415.252C454.338 415.725 454.038 416.151 453.662 416.503C453.285 416.856 452.84 417.127 452.355 417.3C451.869 417.474 451.353 417.545 450.839 417.511H323.432Z" stroke="#263238" stroke-linecap="round" stroke-linejoin="round"/>
<path d="M374.362 399.147V397.952C374.296 397.411 374.392 396.863 374.637 396.376C374.882 395.889 375.265 395.485 375.738 395.215C375.287 394.952 374.923 394.561 374.693 394.091C374.463 393.622 374.377 393.096 374.445 392.577V392.03C374.445 391.176 374.784 390.358 375.387 389.754C375.991 389.151 376.809 388.811 377.663 388.811C378.516 388.811 379.335 389.151 379.939 389.754C380.542 390.358 380.881 391.176 380.881 392.03V392.577C380.941 393.097 380.849 393.622 380.617 394.09C380.384 394.558 380.021 394.949 379.571 395.215C380.047 395.483 380.434 395.886 380.681 396.373C380.929 396.86 381.028 397.409 380.964 397.952V399.147C380.964 400.027 380.615 400.871 379.992 401.493C379.37 402.115 378.526 402.465 377.646 402.465C376.766 402.465 375.922 402.115 375.3 401.493C374.678 400.871 374.328 400.027 374.328 399.147H374.362ZM378.857 399.031V397.737C378.857 396.725 378.443 396.227 377.663 396.227C376.883 396.227 376.468 396.725 376.468 397.737V399.031C376.468 400.042 376.883 400.54 377.663 400.54C378.443 400.54 378.857 400.042 378.857 399.031ZM378.857 392.975V391.914C378.857 391.034 378.476 390.57 377.746 390.57C377.016 390.57 376.634 391.034 376.634 391.914V392.975C376.634 393.855 377.016 394.319 377.746 394.319C378.476 394.319 378.774 393.855 378.774 392.975H378.857Z" fill="#263238"/>
<path d="M382.225 399.08V398.035H384.216V399.23C384.216 400.192 384.63 400.54 385.311 400.54C385.991 400.54 386.405 400.192 386.405 399.23V396.227C386.405 395.265 385.974 394.9 385.311 394.9C384.647 394.9 384.216 395.265 384.216 396.227V396.343H382.225L382.607 388.845H388.164V390.769H384.481L384.315 393.971C384.5 393.656 384.768 393.398 385.09 393.225C385.412 393.053 385.775 392.972 386.14 392.992C387.683 392.992 388.479 394.087 388.479 396.061V399.08C388.511 399.512 388.453 399.946 388.309 400.355C388.165 400.763 387.939 401.138 387.644 401.455C387.349 401.773 386.991 402.026 386.594 402.199C386.197 402.372 385.769 402.461 385.335 402.461C384.902 402.461 384.474 402.372 384.077 402.199C383.679 402.026 383.322 401.773 383.027 401.455C382.732 401.138 382.506 400.763 382.362 400.355C382.218 399.946 382.16 399.512 382.192 399.08H382.225Z" fill="#263238"/>
<path d="M389.823 394.153V390.835C389.797 390.553 389.831 390.269 389.921 390C390.012 389.731 390.157 389.484 390.349 389.275C390.54 389.066 390.773 388.899 391.032 388.784C391.291 388.67 391.572 388.611 391.855 388.611C392.139 388.611 392.419 388.67 392.678 388.784C392.938 388.899 393.17 389.066 393.361 389.275C393.553 389.484 393.698 389.731 393.789 390C393.879 390.269 393.913 390.553 393.887 390.835V394.153C393.913 394.436 393.879 394.72 393.789 394.989C393.698 395.257 393.553 395.504 393.361 395.713C393.17 395.923 392.938 396.09 392.678 396.204C392.419 396.318 392.139 396.378 391.855 396.378C391.572 396.378 391.291 396.318 391.032 396.204C390.773 396.09 390.54 395.923 390.349 395.713C390.157 395.504 390.012 395.257 389.921 394.989C389.831 394.72 389.797 394.436 389.823 394.153ZM392.544 394.253V390.703C392.544 390.122 392.278 389.857 391.863 389.857C391.449 389.857 391.167 390.122 391.167 390.703V394.253C391.167 394.85 391.415 395.099 391.863 395.099C392.311 395.099 392.544 394.833 392.544 394.253ZM396.724 388.845H398.068L392.875 402.265H391.532L396.724 388.845ZM395.712 400.308V396.99C395.687 396.708 395.72 396.423 395.811 396.155C395.901 395.886 396.047 395.639 396.238 395.43C396.429 395.221 396.662 395.054 396.921 394.939C397.18 394.825 397.461 394.766 397.744 394.766C398.028 394.766 398.308 394.825 398.568 394.939C398.827 395.054 399.06 395.221 399.251 395.43C399.442 395.639 399.587 395.886 399.678 396.155C399.768 396.423 399.802 396.708 399.777 396.99V400.308C399.802 400.59 399.768 400.875 399.678 401.143C399.587 401.412 399.442 401.659 399.251 401.868C399.06 402.077 398.827 402.244 398.568 402.359C398.308 402.473 398.028 402.532 397.744 402.532C397.461 402.532 397.18 402.473 396.921 402.359C396.662 402.244 396.429 402.077 396.238 401.868C396.047 401.659 395.901 401.412 395.811 401.143C395.72 400.875 395.687 400.59 395.712 400.308ZM398.433 400.407V396.857C398.433 396.26 398.167 396.011 397.736 396.011C397.305 396.011 397.056 396.26 397.056 396.857V400.407C397.056 401.005 397.305 401.254 397.736 401.254C398.167 401.254 398.433 401.005 398.433 400.407Z" fill="#263238"/>
<path d="M304.255 424.976H275.505V388.612H294.666L304.255 398.201V424.976Z" fill="#6F95C9"/>
<mask id="mask1_901_13734" style="mask-type:luminance" maskUnits="userSpaceOnUse" x="275" y="388" width="30" height="37">
<path d="M304.255 424.976H275.505V388.612H294.666L304.255 398.201V424.976Z" fill="white"/>
</mask>
<g mask="url(#mask1_901_13734)">
<path opacity="0.5" d="M304.255 424.976H275.505V388.612H294.666L304.255 398.201V424.976Z" fill="white" stroke="#263238" stroke-linecap="round" stroke-linejoin="round"/>
</g>
<path d="M304.255 424.976H275.505V388.612H294.666L304.255 398.201V424.976Z" stroke="#263238" stroke-linecap="round" stroke-linejoin="round"/>
<path d="M281.892 407.906C281.44 407.863 281.021 407.653 280.716 407.317C280.41 406.981 280.241 406.543 280.241 406.089C280.241 405.635 280.41 405.198 280.716 404.862C281.021 404.526 281.44 404.316 281.892 404.273H297.868C298.32 404.316 298.739 404.526 299.044 404.862C299.35 405.198 299.519 405.635 299.519 406.089C299.519 406.543 299.35 406.981 299.044 407.317C298.739 407.653 298.32 407.863 297.868 407.906H281.892Z" fill="#858585" stroke="#263238" stroke-width="0.75" stroke-linecap="round" stroke-linejoin="round"/>
<path d="M281.892 415.554C281.44 415.51 281.021 415.3 280.716 414.964C280.41 414.629 280.241 414.191 280.241 413.737C280.241 413.283 280.41 412.846 280.716 412.51C281.021 412.174 281.44 411.964 281.892 411.921H294.384C294.836 411.964 295.255 412.174 295.561 412.51C295.866 412.846 296.035 413.283 296.035 413.737C296.035 414.191 295.866 414.629 295.561 414.964C295.255 415.3 294.836 415.51 294.384 415.554H281.892Z" fill="#858585" stroke="#263238" stroke-width="0.75" stroke-linecap="round" stroke-linejoin="round"/>
<path d="M294.666 398.201H304.255L294.666 388.612V398.201Z" fill="#6F95C9" stroke="#263238" stroke-linecap="round" stroke-linejoin="round"/>
<path d="M493.026 202.031H244.052C237.766 202.031 232.671 207.126 232.671 213.412V271.259C232.671 277.544 237.766 282.639 244.052 282.639H493.026C499.311 282.639 504.406 277.544 504.406 271.259V213.412C504.406 207.126 499.311 202.031 493.026 202.031Z" fill="#263238" stroke="#263238" stroke-linecap="round" stroke-linejoin="round"/>
<path d="M489.542 198.547H240.568C234.283 198.547 229.188 203.643 229.188 209.928V267.775C229.188 274.06 234.283 279.155 240.568 279.155H489.542C495.827 279.155 500.922 274.06 500.922 267.775V209.928C500.922 203.643 495.827 198.547 489.542 198.547Z" fill="white" stroke="#263238" stroke-linecap="round" stroke-linejoin="round"/>
<path d="M324.029 272.52H270.794V205.183H306.279L324.029 222.917V272.52Z" fill="#6F95C9"/>
<mask id="mask2_901_13734" style="mask-type:luminance" maskUnits="userSpaceOnUse" x="270" y="205" width="55" height="68">
<path d="M324.029 272.52H270.794V205.183H306.279L324.029 222.917V272.52Z" fill="white"/>
</mask>
<g mask="url(#mask2_901_13734)">
<path opacity="0.7" d="M324.029 272.52H270.794V205.183H306.279L324.029 222.917V272.52Z" fill="white"/>
</g>
<path d="M324.029 272.52H270.794V205.183H306.279L324.029 222.917V272.52Z" stroke="#263238" stroke-linecap="round" stroke-linejoin="round"/>
<path d="M306.279 222.917H324.029L306.279 205.183V222.917Z" fill="#6F95C9" stroke="#263238" stroke-linecap="round" stroke-linejoin="round"/>
<path d="M286.504 231.212H276.053V241.663H286.504V231.212Z" stroke="white" stroke-width="0.75" stroke-linecap="round" stroke-linejoin="round"/>
<path d="M297.254 231.212H286.803V241.663H297.254V231.212Z" stroke="white" stroke-width="0.75" stroke-linecap="round" stroke-linejoin="round"/>
<path d="M308.02 231.212H297.569V241.663H308.02V231.212Z" stroke="white" stroke-width="0.75" stroke-linecap="round" stroke-linejoin="round"/>
<path d="M318.77 231.212H308.319V241.663H318.77V231.212Z" stroke="white" stroke-width="0.75" stroke-linecap="round" stroke-linejoin="round"/>
<path d="M286.504 241.663H276.053V252.115H286.504V241.663Z" stroke="white" stroke-width="0.75" stroke-linecap="round" stroke-linejoin="round"/>
<path d="M297.254 241.663H286.803V252.115H297.254V241.663Z" stroke="white" stroke-width="0.75" stroke-linecap="round" stroke-linejoin="round"/>
<path d="M308.02 241.663H297.569V252.115H308.02V241.663Z" stroke="white" stroke-width="0.75" stroke-linecap="round" stroke-linejoin="round"/>
<path d="M318.77 241.663H308.319V252.115H318.77V241.663Z" stroke="white" stroke-width="0.75" stroke-linecap="round" stroke-linejoin="round"/>
<path d="M286.504 252.115H276.053V262.566H286.504V252.115Z" stroke="white" stroke-width="0.75" stroke-linecap="round" stroke-linejoin="round"/>
<path d="M297.254 252.115H286.803V262.566H297.254V252.115Z" stroke="white" stroke-width="0.75" stroke-linecap="round" stroke-linejoin="round"/>
<path d="M308.02 252.115H297.569V262.566H308.02V252.115Z" stroke="white" stroke-width="0.75" stroke-linecap="round" stroke-linejoin="round"/>
<path d="M318.77 252.115H308.319V262.566H318.77V252.115Z" stroke="white" stroke-width="0.75" stroke-linecap="round" stroke-linejoin="round"/>
<path d="M276.252 261.554L286.803 251.866L292.028 252.115L297.735 241.813L302.795 246.889L308.468 240.933L313.545 231.212" stroke="#6F95C9" stroke-width="2" stroke-linecap="round" stroke-linejoin="round"/>
<path d="M307.556 234.248L313.545 231.212L314.756 237.748" stroke="#6F95C9" stroke-width="2" stroke-linecap="round" stroke-linejoin="round"/>
<path d="M344.965 236.703H341.913V234.679C344.335 234.679 345.23 234.148 345.861 232.373H347.785V250.622H344.915L344.965 236.703Z" fill="#263238"/>
<path d="M351.186 246.325V236.703C351.186 235.546 351.646 234.436 352.464 233.618C353.282 232.8 354.392 232.34 355.549 232.34C356.706 232.34 357.816 232.8 358.634 233.618C359.453 234.436 359.912 235.546 359.912 236.703V246.325C359.912 247.482 359.453 248.592 358.634 249.41C357.816 250.228 356.706 250.688 355.549 250.688C354.392 250.688 353.282 250.228 352.464 249.41C351.646 248.592 351.186 247.482 351.186 246.325ZM357.042 246.507V236.554C357.042 235.26 356.462 234.762 355.549 234.762C354.637 234.762 354.056 235.26 354.056 236.554V246.507C354.056 247.818 354.637 248.316 355.549 248.316C356.462 248.316 357.042 247.818 357.042 246.507Z" fill="#263238"/>
<path d="M361.637 246.325V236.703C361.637 235.546 362.097 234.436 362.915 233.618C363.734 232.8 364.843 232.34 366 232.34C367.158 232.34 368.267 232.8 369.086 233.618C369.904 234.436 370.363 235.546 370.363 236.703V246.325C370.363 247.482 369.904 248.592 369.086 249.41C368.267 250.228 367.158 250.688 366 250.688C364.843 250.688 363.734 250.228 362.915 249.41C362.097 248.592 361.637 247.482 361.637 246.325ZM367.494 246.507V236.554C367.494 235.26 366.913 234.762 366 234.762C365.088 234.762 364.507 235.26 364.507 236.554V246.507C364.507 247.818 365.088 248.316 366 248.316C366.913 248.316 367.494 247.818 367.494 246.507Z" fill="#263238"/>
<path d="M372.139 239.606V235.044C372.139 234.309 372.43 233.605 372.95 233.085C373.47 232.566 374.174 232.274 374.909 232.274C375.644 232.274 376.348 232.566 376.868 233.085C377.388 233.605 377.679 234.309 377.679 235.044V239.606C377.679 240.341 377.388 241.046 376.868 241.565C376.348 242.085 375.644 242.377 374.909 242.377C374.174 242.377 373.47 242.085 372.95 241.565C372.43 241.046 372.139 240.341 372.139 239.606ZM375.855 239.739V234.911C375.855 234.099 375.49 233.75 374.909 233.75C374.328 233.75 373.963 234.099 373.963 234.911V239.739C373.963 240.552 374.312 240.884 374.909 240.884C375.506 240.884 375.855 240.552 375.855 239.739ZM381.545 232.373H383.386L376.302 250.622H374.478L381.545 232.373ZM380.151 248V243.422C380.151 243.058 380.223 242.698 380.362 242.362C380.501 242.025 380.705 241.72 380.963 241.463C381.22 241.206 381.525 241.001 381.861 240.862C382.198 240.723 382.558 240.651 382.922 240.651C383.285 240.651 383.646 240.723 383.982 240.862C384.318 241.001 384.623 241.206 384.881 241.463C385.138 241.72 385.342 242.025 385.481 242.362C385.62 242.698 385.692 243.058 385.692 243.422V248C385.692 248.364 385.62 248.724 385.481 249.061C385.342 249.397 385.138 249.702 384.881 249.959C384.623 250.217 384.318 250.421 383.982 250.56C383.646 250.699 383.285 250.771 382.922 250.771C382.558 250.771 382.198 250.699 381.861 250.56C381.525 250.421 381.22 250.217 380.963 249.959C380.705 249.702 380.501 249.397 380.362 249.061C380.223 248.724 380.151 248.364 380.151 248ZM383.867 248.133V243.289C383.867 242.476 383.502 242.144 382.922 242.144C382.341 242.144 381.993 242.476 381.993 243.289V248.133C381.993 248.929 382.324 249.278 382.922 249.278C383.519 249.278 383.867 248.929 383.867 248.133Z" fill="#263238"/>
<path d="M390.337 244.948V237.732C390.337 236.909 390.664 236.12 391.246 235.538C391.828 234.956 392.617 234.629 393.439 234.629C394.262 234.629 395.051 234.956 395.633 235.538C396.215 236.12 396.542 236.909 396.542 237.732V239.158H394.551V237.599C394.551 236.72 394.12 236.355 393.489 236.355C392.859 236.355 392.444 236.72 392.444 237.599V245.097C392.444 245.977 392.859 246.325 393.489 246.325C394.12 246.325 394.551 245.977 394.551 245.097V243.04H396.542V244.948C396.542 245.771 396.215 246.56 395.633 247.142C395.051 247.723 394.262 248.05 393.439 248.05C392.617 248.05 391.828 247.723 391.246 247.142C390.664 246.56 390.337 245.771 390.337 244.948Z" fill="#263238"/>
<path d="M397.686 244.865V237.815C397.686 236.965 398.024 236.151 398.624 235.551C399.224 234.95 400.039 234.613 400.888 234.613C401.737 234.613 402.552 234.95 403.152 235.551C403.752 236.151 404.09 236.965 404.09 237.815V244.865C404.09 245.714 403.752 246.529 403.152 247.129C402.552 247.729 401.737 248.067 400.888 248.067C400.039 248.067 399.224 247.729 398.624 247.129C398.024 246.529 397.686 245.714 397.686 244.865ZM401.983 244.998V237.682C401.983 236.72 401.568 236.355 400.888 236.355C400.208 236.355 399.793 236.72 399.793 237.682V244.998C399.793 245.96 400.224 246.325 400.888 246.325C401.552 246.325 401.983 245.96 401.983 244.998Z" fill="#263238"/>
<path d="M405.5 234.629H408.519L409.863 244.235L411.207 234.629H414.209V248.05H412.219V237.897L410.676 248.05H408.917L407.391 237.897V248.05H405.55L405.5 234.629Z" fill="#263238"/>
<path d="M415.818 234.629H418.921C421.028 234.629 422.056 235.807 422.056 237.947V239.274C422.056 241.414 421.028 242.592 418.921 242.592H417.925V248.05H415.818V234.629ZM418.921 240.668C419.584 240.668 419.949 240.369 419.949 239.407V237.748C419.949 236.786 419.584 236.487 418.921 236.487H417.925V240.602L418.921 240.668Z" fill="#263238"/>
<path d="M423.201 234.629H425.308V246.126H428.775V248.05H423.201V234.629Z" fill="#263238"/>
<path d="M429.837 234.629H435.576V236.554H431.943V240.087H434.813V242.012H431.927V246.126H435.56V248.05H429.837V234.629Z" fill="#263238"/>
<path d="M438.397 236.554H436.207V234.629H442.71V236.554H440.504V248.05H438.397V236.554Z" fill="#263238"/>
<path d="M443.739 234.629H449.478V236.554H445.845V240.087H448.732V242.012H445.845V246.126H449.478V248.05H443.739V234.629Z" fill="#263238"/>
<path d="M450.689 234.629H453.908C456.015 234.629 457.043 235.807 457.043 237.947V244.732C457.043 246.872 456.015 248.05 453.908 248.05H450.689V234.629ZM453.858 246.126C454.538 246.126 454.936 245.777 454.936 244.832V237.848C454.936 236.902 454.538 236.554 453.858 236.554H452.796V246.126H453.858Z" fill="#263238"/>
<path d="M466.3 452.581H270.794C264.509 452.581 259.413 457.676 259.413 463.962V505.933C259.413 512.218 264.509 517.313 270.794 517.313H466.3C472.585 517.313 477.68 512.218 477.68 505.933V463.962C477.68 457.676 472.585 452.581 466.3 452.581Z" fill="#263238" stroke="#263238" stroke-linecap="round" stroke-linejoin="round"/>
<path d="M462.816 449.097H267.31C261.025 449.097 255.93 454.193 255.93 460.478V502.449C255.93 508.734 261.025 513.829 267.31 513.829H462.816C469.102 513.829 474.197 508.734 474.197 502.449V460.478C474.197 454.193 469.102 449.097 462.816 449.097Z" fill="white" stroke="#263238" stroke-linecap="round" stroke-linejoin="round"/>
<path d="M412.385 484.665H323.432C322.438 484.665 321.484 485.06 320.781 485.763C320.078 486.466 319.683 487.42 319.683 488.414C319.683 489.409 320.078 490.362 320.781 491.065C321.484 491.769 322.438 492.164 323.432 492.164H412.385V484.665Z" fill="#6F95C9"/>
<path d="M323.432 492.164C322.438 492.164 321.484 491.769 320.781 491.065C320.078 490.362 319.683 489.409 319.683 488.414C319.683 487.42 320.078 486.466 320.781 485.763C321.484 485.06 322.438 484.665 323.432 484.665H450.839C451.331 484.665 451.819 484.762 452.274 484.951C452.728 485.139 453.142 485.415 453.49 485.763C453.838 486.111 454.114 486.525 454.303 486.98C454.491 487.434 454.588 487.922 454.588 488.414C454.588 488.907 454.491 489.394 454.303 489.849C454.114 490.304 453.838 490.717 453.49 491.065C453.142 491.414 452.728 491.69 452.274 491.878C451.819 492.067 451.331 492.164 450.839 492.164H323.432Z" stroke="#263238" stroke-linecap="round" stroke-linejoin="round"/>
<path d="M304.255 499.645H275.505V463.281H294.666L304.255 472.853V499.645Z" fill="#6F95C9"/>
<mask id="mask3_901_13734" style="mask-type:luminance" maskUnits="userSpaceOnUse" x="275" y="463" width="30" height="37">
<path d="M304.255 499.645H275.505V463.281H294.666L304.255 472.853V499.645Z" fill="white"/>
</mask>
<g mask="url(#mask3_901_13734)">
<path opacity="0.5" d="M304.255 499.645H275.505V463.281H294.666L304.255 472.853V499.645Z" fill="white"/>
</g>
<path d="M304.255 499.645H275.505V463.281H294.666L304.255 472.853V499.645Z" stroke="#263238" stroke-linecap="round" stroke-linejoin="round"/>
<path d="M281.892 482.575C281.44 482.532 281.021 482.322 280.716 481.986C280.41 481.65 280.241 481.212 280.241 480.758C280.241 480.304 280.41 479.867 280.716 479.531C281.021 479.195 281.44 478.985 281.892 478.942H297.868C298.32 478.985 298.739 479.195 299.044 479.531C299.35 479.867 299.519 480.304 299.519 480.758C299.519 481.212 299.35 481.65 299.044 481.986C298.739 482.322 298.32 482.532 297.868 482.575H281.892Z" fill="#858585" stroke="#263238" stroke-width="0.75" stroke-linecap="round" stroke-linejoin="round"/>
<path d="M281.892 490.206C281.413 490.206 280.953 490.015 280.613 489.676C280.274 489.337 280.084 488.877 280.084 488.398C280.084 487.918 280.274 487.458 280.613 487.119C280.953 486.78 281.413 486.59 281.892 486.59H294.384C294.864 486.59 295.323 486.78 295.663 487.119C296.002 487.458 296.192 487.918 296.192 488.398C296.192 488.877 296.002 489.337 295.663 489.676C295.323 490.015 294.864 490.206 294.384 490.206H281.892Z" fill="#858585" stroke="#263238" stroke-width="0.75" stroke-linecap="round" stroke-linejoin="round"/>
<path d="M294.666 472.853H304.255L294.666 463.281V472.853Z" fill="#6F95C9" stroke="#263238" stroke-linecap="round" stroke-linejoin="round"/>
<path d="M378.741 465.421H374.478V463.514H380.798V465.355L377.48 476.968H375.324L378.741 465.421Z" fill="#263238"/>
<path d="M382.125 473.749V466.699C382.125 465.85 382.463 465.035 383.063 464.435C383.664 463.834 384.478 463.497 385.327 463.497C386.176 463.497 386.991 463.834 387.591 464.435C388.192 465.035 388.529 465.85 388.529 466.699V473.749C388.529 474.598 388.192 475.413 387.591 476.013C386.991 476.614 386.176 476.951 385.327 476.951C384.478 476.951 383.664 476.614 383.063 476.013C382.463 475.413 382.125 474.598 382.125 473.749ZM386.422 473.882V466.566C386.422 465.604 385.991 465.239 385.327 465.239C384.664 465.239 384.232 465.604 384.232 466.566V473.882C384.232 474.844 384.664 475.193 385.327 475.193C385.991 475.193 386.422 474.844 386.422 473.882Z" fill="#263238"/>
<path d="M389.823 468.822V465.504C389.797 465.222 389.831 464.938 389.921 464.669C390.012 464.4 390.157 464.154 390.349 463.944C390.54 463.735 390.773 463.568 391.032 463.453C391.291 463.339 391.572 463.28 391.855 463.28C392.139 463.28 392.419 463.339 392.678 463.453C392.938 463.568 393.17 463.735 393.361 463.944C393.553 464.154 393.698 464.4 393.789 464.669C393.879 464.938 393.913 465.222 393.887 465.504V468.822C393.913 469.105 393.879 469.389 393.789 469.658C393.698 469.926 393.553 470.173 393.361 470.382C393.17 470.592 392.938 470.759 392.678 470.873C392.419 470.987 392.139 471.047 391.855 471.047C391.572 471.047 391.291 470.987 391.032 470.873C390.773 470.759 390.54 470.592 390.349 470.382C390.157 470.173 390.012 469.926 389.921 469.658C389.831 469.389 389.797 469.105 389.823 468.822ZM392.544 468.922V465.372C392.544 464.774 392.278 464.526 391.863 464.526C391.449 464.526 391.167 464.774 391.167 465.372V468.922C391.167 469.502 391.415 469.751 391.863 469.751C392.311 469.751 392.544 469.486 392.544 468.922ZM396.658 463.514H398.001L392.809 476.918H391.465L396.658 463.514ZM395.646 474.977V471.659C395.62 471.377 395.654 471.092 395.744 470.824C395.835 470.555 395.98 470.308 396.172 470.099C396.363 469.89 396.595 469.722 396.855 469.608C397.114 469.494 397.394 469.435 397.678 469.435C397.961 469.435 398.242 469.494 398.501 469.608C398.76 469.722 398.993 469.89 399.184 470.099C399.376 470.308 399.521 470.555 399.612 470.824C399.702 471.092 399.736 471.377 399.71 471.659V474.977C399.736 475.259 399.702 475.544 399.612 475.812C399.521 476.081 399.376 476.328 399.184 476.537C398.993 476.746 398.76 476.913 398.501 477.028C398.242 477.142 397.961 477.201 397.678 477.201C397.394 477.201 397.114 477.142 396.855 477.028C396.595 476.913 396.363 476.746 396.172 476.537C395.98 476.328 395.835 476.081 395.744 475.812C395.654 475.544 395.62 475.259 395.646 474.977ZM398.366 475.06V471.526C398.366 470.929 398.101 470.68 397.67 470.68C397.238 470.68 396.99 470.929 396.99 471.526V475.06C396.99 475.657 397.238 475.906 397.67 475.906C398.101 475.906 398.433 475.657 398.433 475.06H398.366Z" fill="#263238"/>
<path d="M148.546 121.44L192.326 87.5974L236.105 121.44H148.546Z" fill="#263238" stroke="#263238" stroke-linecap="round" stroke-linejoin="round"/>
<path d="M203.773 84.9431H180.879V104.519H203.773V84.9431Z" fill="#263238" stroke="#263238" stroke-linecap="round" stroke-linejoin="round"/>
<path d="M192.326 36.3029V104.519" stroke="#263238" stroke-width="0.75" stroke-linecap="round" stroke-linejoin="round"/>
<path d="M497.472 121.44L541.268 87.5974L585.047 121.44H497.472Z" fill="#263238" stroke="#263238" stroke-linecap="round" stroke-linejoin="round"/>
<path d="M552.714 84.9431H529.821V104.519H552.714V84.9431Z" fill="#263238" stroke="#263238" stroke-linecap="round" stroke-linejoin="round"/>
<path d="M541.268 32.985V104.519" stroke="#263238" stroke-width="0.75" stroke-linecap="round" stroke-linejoin="round"/>
<path d="M558.355 649.63L557.426 677.003L571.593 677.683L576.752 649.63H558.355Z" fill="white" stroke="#263238" stroke-linecap="round" stroke-linejoin="round"/>
<path d="M530.634 685.397C535.412 683.738 543.673 680.918 546.775 678.977C549.264 677.418 552.731 672.341 555.302 670.915C555.842 670.681 556.423 670.56 557.011 670.56C557.599 670.56 558.18 670.681 558.72 670.915C559.137 671.379 559.409 671.956 559.499 672.574C559.571 672.841 559.719 673.082 559.926 673.266C560.133 673.45 560.39 673.569 560.664 673.608C560.939 673.647 561.218 673.604 561.468 673.485C561.719 673.366 561.928 673.176 562.071 672.938C562.468 672.159 563.035 671.479 563.73 670.948C565.92 669.72 571.842 669.372 573.783 670.948C577.001 673.585 578.163 682.676 578.76 686.774C578.909 687.67 578.76 692.647 578.76 692.647H527.067V690.374C527.06 689.274 527.401 688.2 528.042 687.306C528.683 686.412 529.59 685.744 530.634 685.397Z" fill="white" stroke="#263238" stroke-linecap="round" stroke-linejoin="round"/>
<path d="M578.793 692.614H527.067V690.341C527.066 689.776 527.162 689.215 527.349 688.682H578.859C578.859 690.424 578.793 692.614 578.793 692.614Z" fill="#858585" stroke="#263238" stroke-linecap="round" stroke-linejoin="round"/>
<path d="M567.296 437.418L556.43 660.048L576.338 663.366C576.338 663.366 588.879 598.933 590.406 577.831C590.771 572.854 590.406 557.841 590.406 557.841L604.49 488.514C604.49 488.514 613.763 479.954 614.842 439.194L567.296 437.418Z" fill="#263238" stroke="#263238" stroke-linecap="round" stroke-linejoin="round"/>
<path opacity="0.7" d="M596.759 523.584C597.522 520.366 598.418 517.197 599.497 514.045C599.662 513.597 599.861 513.182 600.061 512.768C600.555 508.056 601.314 503.376 602.333 498.75C602.685 497.021 603.615 495.465 604.971 494.337C605.358 493.462 605.936 492.685 606.662 492.062C607.388 491.439 608.245 490.986 609.168 490.737C608.558 486.454 607.627 482.222 606.381 478.079C605.12 473.733 603.063 469.569 602.449 465.073C602.284 463.912 601.62 462.701 601.836 462.568C600.409 462.012 599.014 461.381 597.655 460.677L597.406 460.478C596.135 481.489 595.919 502.551 596.759 523.584Z" fill="black"/>
<path d="M566.351 564.759C569.875 563.943 573.109 562.182 575.707 559.666" stroke="#7F7F7F" stroke-width="0.75" stroke-linecap="round" stroke-linejoin="round"/>
<path d="M553.809 664.279L577.881 666.253L579.672 658.456L553.809 656.432V664.279Z" fill="#6F95C9" stroke="#263238" stroke-linecap="round" stroke-linejoin="round"/>
<path d="M623.319 646.263L628.445 678.264L641.551 677.235L641.119 644.471L623.319 646.263Z" fill="white" stroke="#263238" stroke-linecap="round" stroke-linejoin="round"/>
<path d="M601.371 685.397C606.166 683.738 614.427 680.918 617.513 678.977C620.001 677.418 623.485 672.341 626.04 670.915C626.582 670.68 627.166 670.56 627.757 670.56C628.347 670.56 628.932 670.68 629.474 670.915C629.773 671.224 629.985 671.608 630.087 672.026C630.177 672.344 630.358 672.627 630.609 672.841C630.86 673.055 631.169 673.189 631.497 673.226C631.824 673.264 632.155 673.203 632.448 673.051C632.741 672.899 632.982 672.664 633.14 672.374C633.478 671.802 633.93 671.305 634.467 670.915C636.657 669.687 642.579 669.339 644.52 670.915C647.739 673.552 648.9 682.643 649.497 686.741C649.63 687.637 649.497 692.614 649.497 692.614H597.821V690.341C597.82 689.249 598.162 688.184 598.799 687.297C599.436 686.409 600.336 685.745 601.371 685.397Z" fill="white" stroke="#263238" stroke-linecap="round" stroke-linejoin="round"/>
<path d="M649.547 692.614H597.821V690.341C597.815 689.777 597.905 689.216 598.087 688.682H649.597C649.597 690.424 649.547 692.614 649.547 692.614Z" fill="#858585" stroke="#263238" stroke-linecap="round" stroke-linejoin="round"/>
<path d="M595.001 444.137C595.001 444.137 599.978 472.953 604.556 497.124C607.675 513.514 607.874 561.939 607.874 561.939L623.767 661.923L643.359 659.285C643.359 659.285 643.591 597.739 641.385 577.997C640.887 573.601 640.074 560.545 640.074 560.545C640.074 560.545 640.821 508.322 644.852 490.87C647.739 478.428 653.479 465.355 646.511 439.857L595.001 444.137Z" fill="#263238" stroke="#263238" stroke-linecap="round" stroke-linejoin="round"/>
<path d="M612.171 564.759C614.165 567.517 617.128 569.419 620.466 570.084" stroke="#7F7F7F" stroke-width="0.75" stroke-linecap="round" stroke-linejoin="round"/>
<path d="M620.482 657.427L621.61 664.76L645.897 662.155L645.731 654.259L620.482 657.427Z" fill="#6F95C9" stroke="#263238" stroke-linecap="round" stroke-linejoin="round"/>
<path d="M502.548 310.841L497.19 301.833C497.19 301.833 495.896 287.118 492.91 284.248C489.923 281.378 483.288 272.934 482.342 274.593C480.849 277.248 486.373 281.976 486.373 281.976L487.385 287.45C487.385 287.45 478.444 281.013 475.922 281.013C475.922 281.013 468.789 272.569 466.267 272.553C463.745 272.536 467.295 278.392 467.295 278.392C467.295 278.392 464.89 276.551 464.426 277.696C463.961 278.84 467.528 282.755 467.528 282.755C467.528 282.755 466.151 284.248 468.225 287.45C467.938 288.484 467.941 289.578 468.233 290.611C468.526 291.643 469.097 292.576 469.883 293.306C472.637 295.496 487.435 303.874 487.435 303.874L492.412 315.586L502.548 310.841Z" fill="#858585" stroke="#263238" stroke-linecap="round" stroke-linejoin="round"/>
<path d="M469.485 282.988C469.485 282.988 471.443 283.784 470.63 286.654C471.411 287.764 471.85 289.079 471.891 290.436C472.09 292.958 484.864 291.714 488.314 297.072" stroke="#263238" stroke-width="0.75" stroke-linecap="round" stroke-linejoin="round"/>
<path d="M469.485 279.885L474.694 285.393" stroke="#263238" stroke-width="0.75" stroke-linecap="round" stroke-linejoin="round"/>
<path d="M557.857 308.568L523.666 335.211L500.242 303.293L488.314 309.265C488.314 309.265 507.06 361.057 521.244 361.057C536.324 361.057 564.991 336.837 564.991 336.837C564.991 336.837 566.799 332.208 557.857 308.568Z" fill="#6F95C9" stroke="#263238" stroke-linecap="round" stroke-linejoin="round"/>
<path d="M524.96 337.749C525.76 339.448 526.356 341.236 526.735 343.074" stroke="#263238" stroke-width="0.75" stroke-linecap="round" stroke-linejoin="round"/>
<path d="M557.857 308.568L565.14 404.97V445.016C565.14 445.016 607.095 449.993 648.485 443.955L647.058 402.73L651.256 310.841C651.256 310.841 632.045 296.956 602.549 296.956C573.053 296.956 557.857 308.568 557.857 308.568Z" fill="#6F95C9" stroke="#263238" stroke-linecap="round" stroke-linejoin="round"/>
<path opacity="0.2" d="M648.485 443.955L647.158 407.01C646.445 424.81 626.803 418.125 622.357 417.296C617.596 416.4 612.121 432.093 612.121 432.093C612.121 432.093 593.873 435.229 579.589 434.117C565.306 433.006 565.09 419.966 565.09 419.966V445.016C565.09 445.016 607.094 450.06 648.485 443.955Z" fill="black"/>
<path d="M584.798 404.041C602.392 402.149 619.276 396.067 634.036 386.306L584.798 404.041Z" fill="#6F95C9"/>
<path d="M584.798 404.041C602.392 402.149 619.276 396.067 634.036 386.306" stroke="#263238" stroke-width="0.75" stroke-linecap="round" stroke-linejoin="round"/>
<path d="M577.482 404.538C577.482 404.538 578.893 404.538 581.381 404.356L577.482 404.538Z" fill="#6F95C9"/>
<path d="M577.482 404.538C577.482 404.538 578.893 404.538 581.381 404.356" stroke="#263238" stroke-width="0.75" stroke-linecap="round" stroke-linejoin="round"/>
<path d="M591.683 313.213L584.417 310.576L577.482 317.278L582.559 296.541L588.68 291.73L591.799 293.704L605.734 293.173L616.567 294.053L621.726 292.46L627.234 297.968L614.975 321.409L609.832 312.533L598.485 313.943L591.683 313.213Z" fill="#6F95C9"/>
<mask id="mask4_901_13734" style="mask-type:luminance" maskUnits="userSpaceOnUse" x="577" y="291" width="51" height="31">
<path d="M591.683 313.213L584.417 310.576L577.482 317.278L582.559 296.541L588.68 291.73L591.799 293.704L605.734 293.173L616.567 294.053L621.726 292.46L627.234 297.968L614.975 321.409L609.832 312.533L598.485 313.943L591.683 313.213Z" fill="white"/>
</mask>
<g mask="url(#mask4_901_13734)">
<path opacity="0.5" d="M591.683 313.213L584.417 310.576L577.482 317.278L582.559 296.541L588.68 291.73L591.799 293.704L605.734 293.173L616.567 294.053L621.726 292.46L627.234 297.968L614.975 321.409L609.832 312.533L598.485 313.943L591.683 313.213Z" fill="white"/>
</g>
<path d="M591.683 313.213L584.417 310.576L577.482 317.278L582.559 296.541L588.68 291.73L591.799 293.704L605.734 293.173L616.567 294.053L621.726 292.46L627.234 297.968L614.975 321.409L609.832 312.533L598.485 313.943L591.683 313.213Z" stroke="#263238" stroke-linecap="round" stroke-linejoin="round"/>
<path d="M615.821 297.901L614.162 272.553L598.136 275.39L594.818 287.301L591.5 297.619L589.924 297.785L594.287 321.475L617.413 298.25L615.821 297.901Z" fill="#858585"/>
<mask id="mask5_901_13734" style="mask-type:luminance" maskUnits="userSpaceOnUse" x="589" y="272" width="29" height="50">
<path d="M615.821 297.901L614.162 272.553L598.136 275.39L594.818 287.301L591.5 297.619L589.924 297.785L594.287 321.475L617.413 298.25L615.821 297.901Z" fill="white"/>
</mask>
<g mask="url(#mask5_901_13734)">
<path d="M576.421 274.311C576.421 280.748 577.416 295.148 586.258 296.823C595.416 298.565 605.917 288.147 609.682 283.983C610.626 282.948 611.363 281.743 611.856 280.433L613.863 275.108C615.174 275.208 616.486 274.932 617.645 274.311H576.421Z" fill="#263238" stroke="#263238" stroke-width="0.5" stroke-linecap="round" stroke-linejoin="round"/>
</g>
<path d="M615.821 297.901L614.162 272.553L598.136 275.39L594.818 287.301L591.5 297.619L589.924 297.785L594.287 321.475L617.413 298.25L615.821 297.901Z" stroke="#263238" stroke-linecap="round" stroke-linejoin="round"/>
<path d="M587.104 241.763C587.104 241.763 579.523 235.99 583.239 231.444C585.18 229.088 587.701 232.191 587.701 232.191C587.701 232.191 586.358 224.958 591.749 223.896C596.726 222.967 596.527 228.674 596.527 228.674C596.527 228.674 599.098 223.78 603.594 224.875C607.177 225.737 605.801 230.814 605.801 230.814C605.801 230.814 610.578 224.875 615.522 227.496C619.785 229.735 616.268 235.11 616.268 235.11C616.268 235.11 621.345 233.319 624.182 236.172C627.018 239.026 624.182 242.808 624.182 242.808C624.182 242.808 629.772 242.808 630.021 246.988C630.27 251.169 625.691 251.965 625.691 251.965C625.691 251.965 632.161 254.056 632.211 259.132C632.261 264.208 627.931 262.583 627.931 262.583C627.931 262.583 630.618 267.36 628.379 269.898C628.127 270.238 627.8 270.514 627.422 270.704C627.045 270.894 626.628 270.993 626.206 270.993C625.783 270.993 625.366 270.894 624.989 270.704C624.611 270.514 624.284 270.238 624.032 269.898C624.032 269.898 626.836 275.92 623.286 277.679C620.748 278.923 619.255 275.871 619.255 275.871C619.255 275.871 617.115 281.08 614.527 277.895C611.939 274.709 599.098 250.174 599.098 250.174L587.104 241.763Z" fill="#263238" stroke="#263238" stroke-width="0.75" stroke-linecap="round" stroke-linejoin="round"/>
<path d="M584.914 241.995L580.137 251.949C579.647 252.986 579.392 254.119 579.39 255.267V258.385L576.752 265.021C576.617 265.367 576.506 265.722 576.421 266.083C575.575 269.616 571.543 288.595 581.397 292.46C590.09 295.877 602.333 287.633 606.829 284.248C607.95 283.404 608.897 282.351 609.616 281.146L612.602 276.302C613.87 276.681 615.225 276.649 616.473 276.211C617.722 275.773 618.8 274.951 619.553 273.863C622.224 270.031 625.31 267.958 621.643 264.507C617.977 261.056 614.593 266.581 614.593 266.581L615.091 256.843L610.844 249.377L610.628 244.683C610.628 244.683 596.726 243.14 587.403 238.047L584.914 241.995Z" fill="white" stroke="#263238" stroke-width="0.75" stroke-linecap="round" stroke-linejoin="round"/>
<path d="M584.914 241.995L580.137 251.949C579.647 252.986 579.392 254.119 579.39 255.267V258.385L576.752 265.021C576.617 265.367 576.506 265.722 576.421 266.083C575.575 269.616 571.543 288.595 581.397 292.46C590.09 295.877 602.333 287.633 606.829 284.248C607.95 283.404 608.897 282.351 609.616 281.146L612.602 276.302C613.87 276.681 615.225 276.649 616.473 276.211C617.722 275.773 618.8 274.951 619.553 273.863C622.224 270.031 625.31 267.958 621.643 264.507C617.977 261.056 614.593 266.581 614.593 266.581L615.091 256.843L610.844 249.377L610.628 244.683C610.628 244.683 596.726 243.14 587.403 238.047L584.914 241.995Z" fill="#858585" stroke="#263238" stroke-linecap="round" stroke-linejoin="round"/>
<path d="M593.375 275.987C590.688 281.179 587.038 280.317 584.749 279.023" stroke="#263238" stroke-width="0.75" stroke-linecap="round" stroke-linejoin="round"/>
<path d="M593.425 264.192C593.06 265.37 592.313 266.182 591.766 266.017C591.218 265.851 591.036 264.739 591.401 263.561C591.766 262.383 592.512 261.554 593.06 261.736C593.607 261.919 593.79 263.014 593.425 264.192Z" fill="#263238"/>
<path d="M582.343 260.758C581.978 261.952 581.232 262.765 580.684 262.583C580.137 262.4 579.954 261.305 580.319 260.127C580.684 258.949 581.447 258.137 581.978 258.319C582.509 258.502 582.708 259.58 582.343 260.758Z" fill="#263238"/>
<path d="M581.547 253.093C581.986 252.97 582.446 252.939 582.898 253.002C583.35 253.065 583.785 253.22 584.174 253.458C584.563 253.696 584.899 254.012 585.161 254.386C585.422 254.76 585.604 255.184 585.694 255.632" stroke="#263238" stroke-width="0.75" stroke-linecap="round" stroke-linejoin="round"/>
<path d="M591.086 257.622C591.086 257.622 594.951 253.558 597.556 257.871" stroke="#263238" stroke-width="0.75" stroke-linecap="round" stroke-linejoin="round"/>
<path d="M585.777 261.803C585.43 263.388 584.684 264.858 583.61 266.074C582.536 267.291 581.169 268.213 579.639 268.754L582.658 273.548" stroke="#263238" stroke-width="0.75" stroke-linecap="round" stroke-linejoin="round"/>
<path d="M605.037 452.001L604.191 457.127C604.07 457.973 604.28 458.834 604.777 459.529C605.275 460.225 606.022 460.701 606.862 460.859L660.065 469.585C660.911 469.707 661.772 469.497 662.467 468.999C663.163 468.502 663.639 467.755 663.797 466.914L664.627 461.788L605.037 452.001Z" fill="#6F95C9" stroke="#263238" stroke-width="0.75" stroke-linecap="round" stroke-linejoin="round"/>
<path d="M667.01 429.487L613.2 420.656C611.6 420.393 610.089 421.477 609.827 423.078L604.494 455.573C604.231 457.173 605.316 458.684 606.916 458.946L660.726 467.777C662.326 468.04 663.836 466.955 664.099 465.355L669.432 432.86C669.694 431.26 668.61 429.749 667.01 429.487Z" fill="#6F95C9"/>
<mask id="mask6_901_13734" style="mask-type:luminance" maskUnits="userSpaceOnUse" x="604" y="420" width="66" height="48">
<path d="M667.01 429.487L613.2 420.656C611.6 420.393 610.089 421.477 609.827 423.078L604.494 455.573C604.231 457.173 605.316 458.684 606.916 458.946L660.726 467.777C662.326 468.04 663.836 466.955 664.099 465.355L669.432 432.86C669.694 431.259 668.61 429.749 667.01 429.487Z" fill="white"/>
</mask>
<g mask="url(#mask6_901_13734)">
<path opacity="0.5" d="M667.01 429.487L613.2 420.656C611.6 420.393 610.089 421.477 609.827 423.078L604.494 455.573C604.231 457.173 605.316 458.684 606.916 458.946L660.726 467.777C662.326 468.04 663.836 466.955 664.099 465.355L669.432 432.86C669.694 431.259 668.61 429.749 667.01 429.487Z" fill="white"/>
</g>
<path d="M667.01 429.487L613.2 420.656C611.6 420.393 610.089 421.477 609.827 423.078L604.494 455.573C604.231 457.173 605.316 458.684 606.916 458.946L660.726 467.777C662.326 468.04 663.836 466.955 664.099 465.355L669.432 432.86C669.694 431.26 668.61 429.749 667.01 429.487Z" stroke="#263238" stroke-linecap="round" stroke-linejoin="round"/>
<path d="M646.246 435.544L643.309 445.498L633.356 452.614C631.947 456.971 630.285 461.242 628.379 465.405C628.252 465.637 628.186 465.897 628.188 466.162C628.189 466.426 628.258 466.686 628.387 466.916C628.516 467.147 628.702 467.341 628.927 467.48C629.152 467.619 629.409 467.698 629.673 467.711C631.05 467.711 632.659 467.064 633.538 464.393C633.538 464.393 633.92 469.635 637.155 466.433C637.155 466.433 639.129 471.51 642.214 467.512C642.214 467.512 649.364 468.573 650.509 463.414C651.654 458.255 653.346 449.164 653.346 449.164L657.891 438.497L646.246 435.544Z" fill="#858585" stroke="#263238" stroke-linecap="round" stroke-linejoin="round"/>
<path d="M633.472 462.352L634.6 454.671" stroke="#263238" stroke-width="0.75" stroke-linecap="round" stroke-linejoin="round"/>
<path d="M635.247 462.85C635.247 462.85 636.027 465.388 637.785 464.973C639.543 464.559 642.048 466.516 647.523 464.21" stroke="#263238" stroke-width="0.75" stroke-linecap="round" stroke-linejoin="round"/>
<path d="M651.256 310.841C651.256 310.841 676.14 379.986 675.675 390.089C675.211 400.192 657.51 444.137 657.51 444.137L643.84 439.791L652.964 388.247L644.786 352.431C644.786 352.431 642.928 326.17 651.256 310.841Z" fill="#6F95C9" stroke="#263238" stroke-linecap="round" stroke-linejoin="round"/>
<path d="M656.033 387.103C656.951 386.4 658.014 385.912 659.145 385.674C660.276 385.435 661.446 385.453 662.57 385.726" stroke="#263238" stroke-width="0.75" stroke-linecap="round" stroke-linejoin="round"/>
<path d="M639.859 440.886C639.363 440.229 638.992 439.486 638.764 438.696C637.807 438.677 636.879 439.022 636.167 439.661C635.454 440.299 635.01 441.184 634.924 442.137C634.838 443.089 635.116 444.04 635.702 444.796C636.288 445.552 637.139 446.057 638.084 446.211C639.075 446.374 640.092 446.137 640.909 445.553C641.727 444.968 642.28 444.083 642.447 443.092C641.379 442.638 640.475 441.868 639.859 440.886Z" fill="white"/>
<path d="M154.353 294.949L157.372 309.829L123.828 311.239L129.651 269.998L152.246 272.619L154.353 294.949Z" fill="white"/>
<mask id="mask7_901_13734" style="mask-type:luminance" maskUnits="userSpaceOnUse" x="123" y="269" width="35" height="43">
<path d="M154.353 294.949L157.372 309.829L123.828 311.239L129.651 269.998L152.246 272.619L154.353 294.949Z" fill="white"/>
</mask>
<g mask="url(#mask7_901_13734)">
<path d="M169.383 272.37L141.33 280.665C141.68 283.88 142.347 287.053 143.321 290.138C144.98 294.915 155.083 303.409 161.569 303.31C168.056 303.21 168.785 282.54 168.785 282.54L172.701 280.366C172.925 280.239 173.119 280.065 173.271 279.857C173.423 279.648 173.53 279.41 173.583 279.158C173.636 278.905 173.635 278.645 173.581 278.393C173.526 278.14 173.418 277.903 173.265 277.696L169.383 272.37Z" fill="#263238" stroke="#263238" stroke-width="0.75" stroke-linecap="round" stroke-linejoin="round"/>
</g>
<path d="M154.353 294.949L157.372 309.829L123.828 311.239L129.651 269.998L152.246 272.619L154.353 294.949Z" stroke="#263238" stroke-linecap="round" stroke-linejoin="round"/>
<path d="M155.896 242.526C155.896 242.526 164.041 244.185 163.211 235.343C162.382 226.501 147.203 231.909 139.29 232.904C131.376 233.899 105.829 243.438 114.87 258.502C114.87 258.502 109.545 266.995 128.722 281.246C128.722 281.246 137.83 276.966 142.823 283.22L146.722 275.622L156.675 258.137L155.896 242.526Z" fill="#263238" stroke="#263238" stroke-linecap="round" stroke-linejoin="round"/>
<path d="M155.298 241.199C155.298 241.199 163.095 245.545 167.574 240.104C167.574 240.104 168.072 251.717 155.298 241.199Z" fill="#263238" stroke="#263238" stroke-linecap="round" stroke-linejoin="round"/>
<path d="M156.111 239.988C156.111 239.988 167.724 252.214 167.326 260.592V268.24L173.464 275.141C173.635 275.317 173.765 275.53 173.845 275.763C173.924 275.997 173.95 276.244 173.921 276.489C173.893 276.734 173.81 276.969 173.679 277.178C173.548 277.386 173.373 277.563 173.165 277.696L169.598 280.167C169.598 280.167 170.643 299.743 164.505 300.44C158.367 301.136 148.148 293.804 146.108 289.491C144.571 285.533 143.459 281.424 142.79 277.231C141.003 276.747 139.402 275.74 138.193 274.338C136.984 272.937 136.222 271.206 136.005 269.368C135.291 262.931 141.778 263.113 143.453 267.327L144.814 270.761L149.027 270.612C149.027 270.612 146.622 264.54 148.049 262.748C149.475 260.957 155.083 256.594 152.511 252.43C149.94 248.266 150.803 241.182 156.111 239.988Z" fill="white" stroke="#263238" stroke-linecap="round" stroke-linejoin="round"/>
<path d="M162.747 284C163.23 284.857 163.971 285.541 164.864 285.955C165.757 286.369 166.757 286.491 167.724 286.305" stroke="#263238" stroke-width="0.75" stroke-linecap="round" stroke-linejoin="round"/>
<path d="M159.694 260.642C159.694 260.642 162.332 256.975 164.837 260.326" stroke="#263238" stroke-linecap="round" stroke-linejoin="round"/>
<path d="M163.858 268.289C163.858 269.434 163.41 270.38 162.797 270.396C162.183 270.413 161.652 269.5 161.619 268.356C161.586 267.211 162.067 266.265 162.681 266.249C163.294 266.232 163.825 267.095 163.858 268.289Z" fill="#263238"/>
<path d="M110.656 635.778L105.812 677.467L120.228 679.69L128.175 638.482L110.656 635.778Z" fill="white" stroke="#263238" stroke-linecap="round" stroke-linejoin="round"/>
<path d="M103.871 451.569C103.871 451.569 104.452 475.723 112.979 492.711L114.92 556.813L105.082 660.098L126.964 662.189L146.871 554.158L153.507 456.281L103.871 451.569Z" fill="#6F95C9" stroke="#263238" stroke-linecap="round" stroke-linejoin="round"/>
<path opacity="0.2" d="M150.421 503.345L148.596 491.848L140.301 455.667L138.775 454.887L103.937 451.569C103.937 451.569 103.937 455.534 104.717 461.39L121.92 471.145C122.326 477.27 123.709 483.291 126.018 488.978C126.225 489.475 126.3 490.016 126.237 490.551C126.174 491.085 125.975 491.594 125.658 492.029C125.342 492.464 124.918 492.81 124.429 493.034C123.94 493.258 123.402 493.352 122.866 493.308C121.091 493.176 119.548 493.308 119.548 494.47C119.548 497.157 132.521 505.833 132.521 505.833C132.521 505.833 145.61 548.136 145.145 563.764L146.921 554.142L150.421 503.345Z" fill="black"/>
<path d="M154.651 638.515L156.227 680.454H170.809L172.369 638.515H154.651Z" fill="white" stroke="#263238" stroke-linecap="round" stroke-linejoin="round"/>
<path d="M194.035 686.359C189.221 684.893 184.538 683.028 180.033 680.785C177.876 679.442 174.857 675.045 172.634 673.801C172.168 673.6 171.665 673.497 171.158 673.497C170.65 673.497 170.148 673.6 169.681 673.801C168.62 674.664 168.57 679.16 168.57 679.16C168.57 679.16 166.695 674.581 165.335 673.801C163.444 672.739 158.301 672.424 156.625 673.801C153.838 676.074 152.826 683.97 152.279 687.521C152.146 688.3 152.279 692.614 152.279 692.614H197.07V690.639C197.074 689.699 196.783 688.78 196.239 688.013C195.694 687.245 194.924 686.667 194.035 686.359Z" fill="#263238" stroke="#263238" stroke-linecap="round" stroke-linejoin="round"/>
<path d="M185.159 453.56L181.576 550.459L175.587 661.094H152.793C152.793 661.094 148.015 576.172 149.21 551.603L137.249 494.785C137.249 494.785 124.691 478.029 127.677 457.707L185.159 453.56Z" fill="#6F95C9" stroke="#263238" stroke-linecap="round" stroke-linejoin="round"/>
<path d="M150.769 652.865L151.516 666.17H176.483L178.424 652.865H150.769Z" fill="#6F95C9" stroke="#263238" stroke-linecap="round" stroke-linejoin="round"/>
<path d="M103.257 651.721L102.743 665.025L127.594 667.398L130.796 654.342L103.257 651.721Z" fill="#6F95C9" stroke="#263238" stroke-linecap="round" stroke-linejoin="round"/>
<path d="M222.95 389.774L188.46 367.842L224.808 331.495L259.314 353.426L222.95 389.774Z" fill="#6F95C9" stroke="#263238" stroke-linecap="round" stroke-linejoin="round"/>
<path d="M224.924 382.275L197.187 364.641L226.417 335.41L254.155 353.045L224.924 382.275Z" fill="white" stroke="#263238" stroke-width="0.75" stroke-linecap="round" stroke-linejoin="round"/>
<path d="M226.948 352L231.792 347.155L225.571 343.207L220.727 348.035L226.948 352Z" stroke="#263238" stroke-width="0.75" stroke-linecap="round" stroke-linejoin="round"/>
<path d="M219.433 359.531L224.277 354.687L218.039 350.722L213.212 355.566L219.433 359.531Z" stroke="#263238" stroke-width="0.75" stroke-linecap="round" stroke-linejoin="round"/>
<path d="M211.653 367.312L216.48 362.467L210.259 358.503L205.415 363.347L211.653 367.312Z" stroke="#263238" stroke-width="0.75" stroke-linecap="round" stroke-linejoin="round"/>
<path d="M238.809 337.152L234.231 341.747C234.014 341.963 233.849 342.226 233.747 342.514C233.645 342.803 233.61 343.111 233.643 343.415C233.677 343.72 233.778 344.013 233.94 344.272C234.102 344.532 234.321 344.752 234.579 344.916L241.215 349.179C241.946 349.646 242.815 349.849 243.677 349.756C244.54 349.662 245.345 349.277 245.959 348.665L250.19 344.418L238.809 337.152Z" fill="#858585" stroke="#263238" stroke-linecap="round" stroke-linejoin="round"/>
<path d="M116.081 308.834L122.07 295.678C122.07 295.678 156.758 291.797 166.015 320.795L116.081 308.834Z" fill="#858585" stroke="#263238" stroke-linecap="round" stroke-linejoin="round"/>
<path d="M96.3892 320.048C96.3892 320.048 87.8291 385.626 90.1018 408.868C91.8935 427.249 104.004 442.81 104.004 442.81L121.954 435.776L112.829 408.868C112.829 408.868 115.666 360.427 118.354 349.146L96.3892 320.048Z" fill="#858585" stroke="#263238" stroke-linecap="round" stroke-linejoin="round"/>
<path d="M98.8113 439.592L103.871 445.647L124.608 437.568L121.92 429.489L98.8113 439.592Z" fill="#858585" stroke="#263238" stroke-linecap="round" stroke-linejoin="round"/>
<path d="M96.3892 320.048C96.3892 320.048 93.6852 357.723 101.366 384.2C109.047 410.676 101.366 454.157 101.366 454.157C101.366 454.157 136.718 477.034 190.949 459.532C190.949 459.532 184.23 330.798 175.255 323.632C166.28 316.465 115.633 289.109 96.3892 320.048Z" fill="#858585" stroke="#263238" stroke-linecap="round" stroke-linejoin="round"/>
<path opacity="0.2" d="M190.949 459.532C190.949 459.532 188.643 415.404 184.944 377.381C177.097 358.337 164.273 332.971 163.593 368.589C162.598 420.099 194.3 417.063 169.184 426.038C163.568 428.165 157.552 429.027 151.564 428.563C145.577 428.098 139.766 426.319 134.545 423.351C134.127 423.137 133.649 423.072 133.19 423.167C132.731 423.263 132.318 423.512 132.02 423.874C131.721 424.236 131.556 424.689 131.551 425.158C131.545 425.627 131.7 426.084 131.99 426.453C138.294 434.466 147.866 439.459 155.215 442.329C155.879 442.583 156.44 443.049 156.811 443.655C157.182 444.26 157.342 444.972 157.266 445.678C157.191 446.385 156.883 447.046 156.392 447.56C155.901 448.073 155.254 448.41 154.552 448.517C130.895 452.017 112.348 439.442 103.838 432.126C102.843 444.801 101.2 454.157 101.2 454.157C101.2 454.157 136.718 477.034 190.949 459.532Z" fill="black"/>
<path d="M175.288 323.648C178.522 325.132 181.329 327.41 183.446 330.27C185.563 333.13 186.923 336.479 187.399 340.005C189.19 352.348 200.67 390.255 200.67 390.255L204.486 387.783C207.671 389.214 210.296 391.656 211.951 394.73C213.607 397.805 214.202 401.34 213.643 404.787C213.643 404.787 204.32 423.035 194.134 419.601C183.666 416.051 177.81 407.491 172.568 393.49C169.797 386.024 161.801 363.529 161.801 363.529" fill="#858585"/>
<path d="M175.288 323.648C178.522 325.132 181.329 327.41 183.446 330.27C185.563 333.13 186.923 336.479 187.399 340.005C189.19 352.348 200.67 390.255 200.67 390.255L204.486 387.783C207.671 389.214 210.296 391.656 211.951 394.73C213.607 397.805 214.202 401.34 213.643 404.787C213.643 404.787 204.32 423.035 194.134 419.601C183.666 416.051 177.81 407.491 172.568 393.49C169.797 386.024 161.801 363.529 161.801 363.529" stroke="#263238" stroke-linecap="round" stroke-linejoin="round"/>
<path d="M205.249 401.237C205.309 402.212 205.264 403.191 205.116 404.157" stroke="#263238" stroke-width="0.75" stroke-linecap="round" stroke-linejoin="round"/>
<path d="M198.398 408.868C198.398 408.868 201.533 403.891 201.085 393.158C202.593 394.3 203.743 395.848 204.403 397.62" stroke="#263238" stroke-width="0.75" stroke-linecap="round" stroke-linejoin="round"/>
<path d="M206.991 386.738L218.952 378.211C219.55 375.56 220.851 373.119 222.72 371.145C224.588 369.172 226.954 367.738 229.569 366.996C229.569 366.996 235.093 357.872 238.229 358.934C241.364 359.996 234.496 363.712 233.899 368.489L236.437 371.89C236.437 371.89 244.732 370.43 246.756 367.743C246.756 367.743 246.308 373.433 243.023 374.379C243.023 374.379 243.023 378.709 240.783 378.559L224.327 383.204L214.755 401.071L206.991 386.738Z" fill="white" stroke="#263238" stroke-linecap="round" stroke-linejoin="round"/>
<path d="M158.019 428.211C159.91 428.037 161.785 427.715 163.626 427.249" stroke="#263238" stroke-width="0.75" stroke-linecap="round" stroke-linejoin="round"/>
<path d="M111.005 401.021C111.005 401.021 128.639 427.996 154.137 428.361" stroke="#263238" stroke-width="0.75" stroke-linecap="round" stroke-linejoin="round"/>
<path d="M201.832 387.036C201.832 387.036 214.307 396.459 213.112 407.823L217.608 399.213C217.608 399.213 217.459 391.963 207.14 384.283L201.832 387.036Z" fill="#858585" stroke="#263238" stroke-linecap="round" stroke-linejoin="round"/>
<path d="M152.279 692.614H197.07V690.639C197.07 690.154 196.992 689.673 196.838 689.213H152.213C152.213 690.722 152.279 692.614 152.279 692.614Z" fill="white" stroke="#263238" stroke-width="0.75" stroke-linecap="round" stroke-linejoin="round"/>
<path d="M142.84 686.359C138.026 684.893 133.343 683.028 128.838 680.785C126.681 679.442 123.662 675.045 121.456 673.801C120.987 673.6 120.482 673.496 119.971 673.496C119.461 673.496 118.955 673.6 118.486 673.801C117.425 674.664 117.375 679.16 117.375 679.16C117.375 679.16 115.517 674.581 114.14 673.801C112.249 672.739 107.106 672.424 105.43 673.801C102.643 676.074 101.631 683.97 101.084 687.521C100.951 688.3 101.084 692.614 101.084 692.614H145.875V690.639C145.879 689.699 145.588 688.78 145.044 688.013C144.499 687.245 143.729 686.667 142.84 686.359Z" fill="#263238" stroke="#263238" stroke-linecap="round" stroke-linejoin="round"/>
<path d="M101.051 692.614H145.842V690.639C145.842 690.154 145.764 689.673 145.61 689.213H100.984C100.984 690.722 101.051 692.614 101.051 692.614Z" fill="white" stroke="#263238" stroke-width="0.75" stroke-linecap="round" stroke-linejoin="round"/>
<path d="M167.126 552.25C167.126 552.25 162.365 560.462 154.651 557.327" stroke="#263238" stroke-width="0.75" stroke-linecap="round" stroke-linejoin="round"/>
<path d="M133.931 555.137C133.931 555.137 125.388 562.436 118.32 557.327" stroke="#263238" stroke-width="0.75" stroke-linecap="round" stroke-linejoin="round"/>
<path d="M223.083 342.627L224.277 348.566H234.861L226.251 346.558L226.666 342.51L223.083 342.627Z" fill="#6F95C9"/>
</svg>
