<svg width="717" height="672" viewBox="0 0 717 672" fill="none" xmlns="http://www.w3.org/2000/svg">
<g opacity="0.2">
<path d="M482.12 23.7301H283.032V583.895H482.12V23.7301Z" stroke="#263238" stroke-miterlimit="10" stroke-linecap="round"/>
<path d="M284.089 40.7624H481.722L477.081 25.3537" stroke="#263238" stroke-miterlimit="10" stroke-linecap="round"/>
<path d="M284.089 59.4182H481.722L477.081 44.0095" stroke="#263238" stroke-miterlimit="10" stroke-linecap="round"/>
<path d="M284.089 78.0587H481.722L477.081 62.6653" stroke="#263238" stroke-miterlimit="10" stroke-linecap="round"/>
<path d="M284.089 96.7145H481.722L477.081 81.3058" stroke="#263238" stroke-miterlimit="10" stroke-linecap="round"/>
<path d="M284.089 115.355H481.722L477.081 99.9617" stroke="#263238" stroke-miterlimit="10" stroke-linecap="round"/>
<path d="M284.089 134.011H481.722L477.081 118.617" stroke="#263238" stroke-miterlimit="10" stroke-linecap="round"/>
<path d="M284.089 152.667H481.722L477.081 137.258" stroke="#263238" stroke-miterlimit="10" stroke-linecap="round"/>
<path d="M284.089 171.307H481.722L477.081 155.914" stroke="#263238" stroke-miterlimit="10" stroke-linecap="round"/>
<path d="M284.089 189.963H481.722L477.081 174.554" stroke="#263238" stroke-miterlimit="10" stroke-linecap="round"/>
<path d="M284.089 208.604H481.722L477.081 193.21" stroke="#263238" stroke-miterlimit="10" stroke-linecap="round"/>
<path d="M284.089 227.259H481.722L477.081 211.866" stroke="#263238" stroke-miterlimit="10" stroke-linecap="round"/>
<path d="M284.089 245.915H481.722L477.081 230.506" stroke="#263238" stroke-miterlimit="10" stroke-linecap="round"/>
<path d="M284.089 264.556H481.722L477.081 249.162" stroke="#263238" stroke-miterlimit="10" stroke-linecap="round"/>
<path d="M284.089 283.211H481.722L477.081 267.803" stroke="#263238" stroke-miterlimit="10" stroke-linecap="round"/>
<path d="M284.089 301.852H481.722L477.081 286.459" stroke="#263238" stroke-miterlimit="10" stroke-linecap="round"/>
<path d="M284.089 320.508H481.722L477.081 305.115" stroke="#263238" stroke-miterlimit="10" stroke-linecap="round"/>
<path d="M284.089 339.164H481.722L477.081 323.755" stroke="#263238" stroke-miterlimit="10" stroke-linecap="round"/>
<path d="M284.089 357.804H481.722L477.081 342.411" stroke="#263238" stroke-miterlimit="10" stroke-linecap="round"/>
<path d="M284.089 376.46H481.722L477.081 361.067" stroke="#263238" stroke-miterlimit="10" stroke-linecap="round"/>
<path d="M284.089 395.1H481.722L477.081 379.707" stroke="#263238" stroke-miterlimit="10" stroke-linecap="round"/>
<path d="M284.089 413.756H481.722L477.081 398.363" stroke="#263238" stroke-miterlimit="10" stroke-linecap="round"/>
<path d="M284.089 432.412H481.722L477.081 417.003" stroke="#263238" stroke-miterlimit="10" stroke-linecap="round"/>
<path d="M284.089 451.053H481.722L477.081 435.659" stroke="#263238" stroke-miterlimit="10" stroke-linecap="round"/>
<path d="M284.089 469.708H481.722L477.081 454.315" stroke="#263238" stroke-miterlimit="10" stroke-linecap="round"/>
<path d="M284.089 488.364H481.722L477.081 472.956" stroke="#263238" stroke-miterlimit="10" stroke-linecap="round"/>
<path d="M284.089 507.005H481.722L477.081 491.611" stroke="#263238" stroke-miterlimit="10" stroke-linecap="round"/>
<path d="M284.089 525.661H481.722L477.081 510.252" stroke="#263238" stroke-miterlimit="10" stroke-linecap="round"/>
<path d="M284.089 544.301H481.722L477.081 528.908" stroke="#263238" stroke-miterlimit="10" stroke-linecap="round"/>
<path d="M284.089 562.957H481.722L477.081 547.564" stroke="#263238" stroke-miterlimit="10" stroke-linecap="round"/>
</g>
<g opacity="0.2">
<path d="M696.202 23.7301H497.115V583.895H696.202V23.7301Z" stroke="#263238" stroke-miterlimit="10" stroke-linecap="round"/>
<path d="M498.187 40.7624H695.804L691.163 25.3537" stroke="#263238" stroke-miterlimit="10" stroke-linecap="round"/>
<path d="M498.187 59.4182H695.804L691.163 44.0095" stroke="#263238" stroke-miterlimit="10" stroke-linecap="round"/>
<path d="M498.187 78.0587H695.804L691.163 62.6653" stroke="#263238" stroke-miterlimit="10" stroke-linecap="round"/>
<path d="M498.187 96.7145H695.804L691.163 81.3058" stroke="#263238" stroke-miterlimit="10" stroke-linecap="round"/>
<path d="M498.187 115.355H695.804L691.163 99.9617" stroke="#263238" stroke-miterlimit="10" stroke-linecap="round"/>
<path d="M498.187 134.011H695.804L691.163 118.617" stroke="#263238" stroke-miterlimit="10" stroke-linecap="round"/>
<path d="M498.187 152.667H695.804L691.163 137.258" stroke="#263238" stroke-miterlimit="10" stroke-linecap="round"/>
<path d="M498.187 171.307H695.804L691.163 155.914" stroke="#263238" stroke-miterlimit="10" stroke-linecap="round"/>
<path d="M498.187 189.963H695.804L691.163 174.554" stroke="#263238" stroke-miterlimit="10" stroke-linecap="round"/>
<path d="M498.187 208.604H695.804L691.163 193.21" stroke="#263238" stroke-miterlimit="10" stroke-linecap="round"/>
<path d="M498.187 227.259H695.804L691.163 211.866" stroke="#263238" stroke-miterlimit="10" stroke-linecap="round"/>
<path d="M498.187 245.915H695.804L691.163 230.506" stroke="#263238" stroke-miterlimit="10" stroke-linecap="round"/>
<path d="M498.187 264.556H695.804L691.163 249.162" stroke="#263238" stroke-miterlimit="10" stroke-linecap="round"/>
<path d="M498.187 283.211H695.804L691.163 267.803" stroke="#263238" stroke-miterlimit="10" stroke-linecap="round"/>
<path d="M498.187 301.852H695.804L691.163 286.459" stroke="#263238" stroke-miterlimit="10" stroke-linecap="round"/>
<path d="M498.187 320.508H695.804L691.163 305.115" stroke="#263238" stroke-miterlimit="10" stroke-linecap="round"/>
<path d="M498.187 339.164H695.804L691.163 323.755" stroke="#263238" stroke-miterlimit="10" stroke-linecap="round"/>
<path d="M498.187 357.804H695.804L691.163 342.411" stroke="#263238" stroke-miterlimit="10" stroke-linecap="round"/>
<path d="M498.187 376.46H695.804L691.163 361.067" stroke="#263238" stroke-miterlimit="10" stroke-linecap="round"/>
<path d="M498.187 395.1H695.804L691.163 379.707" stroke="#263238" stroke-miterlimit="10" stroke-linecap="round"/>
<path d="M498.187 413.756H695.804L691.163 398.363" stroke="#263238" stroke-miterlimit="10" stroke-linecap="round"/>
<path d="M498.187 432.412H695.804L691.163 417.003" stroke="#263238" stroke-miterlimit="10" stroke-linecap="round"/>
<path d="M498.187 451.053H695.804L691.163 435.659" stroke="#263238" stroke-miterlimit="10" stroke-linecap="round"/>
<path d="M498.187 469.708H695.804L691.163 454.315" stroke="#263238" stroke-miterlimit="10" stroke-linecap="round"/>
<path d="M498.187 488.364H695.804L691.163 472.956" stroke="#263238" stroke-miterlimit="10" stroke-linecap="round"/>
<path d="M498.187 507.005H695.804L691.163 491.611" stroke="#263238" stroke-miterlimit="10" stroke-linecap="round"/>
<path d="M498.187 525.661H695.804L691.163 510.252" stroke="#263238" stroke-miterlimit="10" stroke-linecap="round"/>
<path d="M498.187 544.301H695.804L691.163 528.908" stroke="#263238" stroke-miterlimit="10" stroke-linecap="round"/>
<path d="M498.187 562.957H695.804L691.163 547.564" stroke="#263238" stroke-miterlimit="10" stroke-linecap="round"/>
</g>
<path d="M140.02 364.099C140.02 364.099 117.473 351.509 115.804 379.952C114.134 408.395 109.968 592.855 109.968 592.855" stroke="#263238" stroke-width="2" stroke-miterlimit="10" stroke-linecap="round"/>
<path d="M104.102 382.464C104.102 382.464 122.482 423.375 114.135 590.359" stroke="#263238" stroke-width="2" stroke-miterlimit="10" stroke-linecap="round"/>
<path d="M122.161 369.889C122.161 369.889 113.537 375.403 108.636 369.093C103.734 362.782 111.96 351.187 104.699 346.225C97.4393 341.262 84.9408 348.828 84.9408 348.828C84.9408 348.828 94.575 351.662 94.2687 356.931C93.9624 362.2 89.3214 364.176 88.6934 361.878C88.0654 359.581 83.4857 347.986 75.6588 352.811C73.4065 354.139 71.4463 355.91 69.8959 358.016C68.3455 360.121 67.2371 362.519 66.6372 365.064C66.6372 365.064 84.8489 363.134 85.9517 369.981C87.0545 376.828 78.4771 368.786 70.9719 368.342C63.4667 367.898 56.5894 369.001 57.0796 373.55C57.255 377.576 57.019 381.61 56.375 385.589C56.375 385.589 62.7468 379.922 71.0025 380.412C79.2583 380.902 78.9672 386.155 71.4467 385.727C63.9262 385.298 57.4931 392.389 57.4931 392.389C57.4931 392.389 64.3397 404.107 73.055 409.896C81.7702 415.686 84.8948 413.618 85.921 409.161C86.9473 404.704 84.5885 393.232 89.8575 393.553C95.1264 393.875 81.1422 413.465 87.8663 414.553C94.5903 415.64 99.9818 413.756 101.743 409.33L103.443 404.918C103.443 404.918 101.1 393.462 102.111 388.989C103.122 384.517 104.378 389.127 105.572 394.472C106.767 399.818 107.502 412.699 109.8 412.071C112.097 411.443 119.449 402.085 121.165 398.409C122.88 394.733 111.485 383.521 111.623 381.254C111.76 378.987 120.552 383.291 121.931 385.635C122.92 387.401 123.819 389.216 124.627 391.072C124.627 391.072 130.11 387.626 129.972 377.057C129.834 366.489 122.161 369.889 122.161 369.889Z" fill="#6F95C9"/>
<path opacity="0.3" d="M122.161 369.889C122.161 369.889 113.537 375.403 108.636 369.093C103.734 362.782 111.96 351.187 104.699 346.225C97.4393 341.262 84.9408 348.828 84.9408 348.828C84.9408 348.828 94.575 351.662 94.2687 356.931C93.9624 362.2 89.3214 364.176 88.6934 361.878C88.0654 359.581 83.4857 347.986 75.6588 352.811C73.4065 354.139 71.4463 355.91 69.8959 358.016C68.3455 360.121 67.2371 362.519 66.6372 365.064C66.6372 365.064 84.8489 363.134 85.9517 369.981C87.0545 376.828 78.4771 368.786 70.9719 368.342C63.4667 367.898 56.5894 369.001 57.0796 373.55C57.255 377.576 57.019 381.61 56.375 385.589C56.375 385.589 62.7468 379.922 71.0025 380.412C79.2583 380.902 78.9672 386.155 71.4467 385.727C63.9262 385.298 57.4931 392.389 57.4931 392.389C57.4931 392.389 64.3397 404.107 73.055 409.896C81.7702 415.686 84.8948 413.618 85.921 409.161C86.9473 404.704 84.5885 393.232 89.8575 393.553C95.1264 393.875 81.1422 413.465 87.8663 414.553C94.5903 415.64 99.9818 413.756 101.743 409.33L103.443 404.918C103.443 404.918 101.1 393.462 102.111 388.989C103.122 384.517 104.378 389.127 105.572 394.472C106.767 399.818 107.502 412.699 109.8 412.071C112.097 411.443 119.449 402.085 121.165 398.409C122.88 394.733 111.485 383.521 111.623 381.254C111.76 378.987 120.552 383.291 121.931 385.635C122.92 387.401 123.819 389.216 124.627 391.072C124.627 391.072 130.11 387.626 129.972 377.057C129.834 366.489 122.161 369.889 122.161 369.889Z" fill="#263238"/>
<path d="M78.4464 394.58C84.0677 387.641 92.354 378.221 99.3079 373.734" stroke="#263238" stroke-miterlimit="10" stroke-linecap="round"/>
<path d="M71.9368 403.05C71.9368 403.05 73.3765 401.043 75.72 398.041" stroke="#263238" stroke-miterlimit="10" stroke-linecap="round"/>
<path d="M102.984 375.464C102.984 375.464 111.332 387.274 112.879 399.435" stroke="#263238" stroke-miterlimit="10" stroke-linecap="round"/>
<path d="M93.5181 382.449C93.5181 382.449 95.8615 381.086 95.0497 396.111" stroke="#263238" stroke-miterlimit="10" stroke-linecap="round"/>
<path d="M99.6141 368.48C99.6141 368.48 104.393 364.237 101.881 355.782" stroke="#263238" stroke-miterlimit="10" stroke-linecap="round"/>
<path d="M93.1659 375.633L89.7502 369.399" stroke="#263238" stroke-miterlimit="10" stroke-linecap="round"/>
<path d="M85.9975 382.005C85.9975 382.005 75.1686 373.825 68.3986 373.427" stroke="#263238" stroke-miterlimit="10" stroke-linecap="round"/>
<path d="M152.901 347.527C152.901 347.527 152.549 359.933 142.884 360.531C133.219 361.128 127.215 344.999 117.32 348.89C107.426 352.78 106.507 370.456 106.507 370.456C106.507 370.456 115.911 362.797 120.966 366.627C126.02 370.456 124.856 376.537 122.13 375.587C119.403 374.637 104.669 371.344 104.163 382.464C103.956 385.628 104.392 388.801 105.445 391.791C106.498 394.782 108.146 397.528 110.29 399.864C110.29 399.864 120.767 380.305 128.379 383.873C135.991 387.442 122.084 390.536 116.524 397.766C110.964 404.995 107.334 412.608 112.281 415.227C116.425 417.79 120.295 420.772 123.83 424.126C123.83 424.126 122.513 413.894 128.639 405.945C134.766 397.995 139.821 401.901 134.245 409.131C128.67 416.36 131.442 427.695 131.442 427.695C131.442 427.695 147.847 428.828 159.595 424.049C171.343 419.27 171.389 414.721 167.605 410.662C163.822 406.603 150.757 401.135 154.663 396.081C158.568 391.026 168.601 418.336 174.329 412.393C180.058 406.45 181.804 399.711 178.572 394.932L175.356 390.153C175.356 390.153 162.29 384.685 158.507 380.626C154.724 376.567 160.177 378.451 166.334 380.902C172.491 383.353 185.909 391.379 186.858 388.652C187.808 385.926 183.427 372.187 180.916 367.959C178.404 363.732 159.472 367.5 157.236 365.83C155 364.161 165.369 358.279 168.647 358.493C171.088 358.706 173.516 359.043 175.922 359.504C175.922 359.504 176.213 351.662 165.538 344.601C154.862 337.54 152.901 347.527 152.901 347.527Z" fill="#6F95C9"/>
<path opacity="0.2" d="M152.901 347.527C152.901 347.527 152.549 359.933 142.884 360.531C133.219 361.128 127.215 344.999 117.32 348.89C107.426 352.78 106.507 370.456 106.507 370.456C106.507 370.456 115.911 362.797 120.966 366.627C126.02 370.456 124.856 376.537 122.13 375.587C119.403 374.637 104.669 371.344 104.163 382.464C103.956 385.628 104.392 388.801 105.445 391.791C106.498 394.782 108.146 397.528 110.29 399.864C110.29 399.864 120.767 380.305 128.379 383.873C135.991 387.442 122.084 390.536 116.524 397.766C110.964 404.995 107.334 412.608 112.281 415.227C116.425 417.79 120.295 420.772 123.83 424.126C123.83 424.126 122.513 413.894 128.639 405.945C134.766 397.995 139.821 401.901 134.245 409.131C128.67 416.36 131.442 427.695 131.442 427.695C131.442 427.695 147.847 428.828 159.595 424.049C171.343 419.27 171.389 414.721 167.605 410.662C163.822 406.603 150.757 401.135 154.663 396.081C158.568 391.026 168.601 418.336 174.329 412.393C180.058 406.45 181.804 399.711 178.572 394.932L175.356 390.153C175.356 390.153 162.29 384.685 158.507 380.626C154.724 376.567 160.177 378.451 166.334 380.902C172.491 383.353 185.909 391.379 186.858 388.652C187.808 385.926 183.427 372.187 180.916 367.959C178.404 363.732 159.472 367.5 157.236 365.83C155 364.161 165.369 358.279 168.647 358.493C171.088 358.706 173.516 359.043 175.922 359.504C175.922 359.504 176.213 351.662 165.538 344.601C154.862 337.54 152.901 347.527 152.901 347.527Z" fill="#263238"/>
<path d="M147.862 408.181C144.799 397.812 140.969 383.092 141.215 373.09" stroke="#263238" stroke-miterlimit="10" stroke-linecap="round"/>
<path d="M151.936 420.434C151.936 420.434 150.91 417.631 149.501 413.235" stroke="#263238" stroke-miterlimit="10" stroke-linecap="round"/>
<path d="M145.488 370.594C145.488 370.594 162.995 370.287 176.229 377.027" stroke="#263238" stroke-miterlimit="10" stroke-linecap="round"/>
<path d="M146.024 384.838C146.024 384.838 146.254 381.56 160.698 392.696" stroke="#263238" stroke-miterlimit="10" stroke-linecap="round"/>
<path d="M136.206 369.2C136.206 369.2 135.21 361.541 125.04 358.294" stroke="#263238" stroke-miterlimit="10" stroke-linecap="round"/>
<path d="M138.963 380.55L130.401 379.707" stroke="#263238" stroke-miterlimit="10" stroke-linecap="round"/>
<path d="M140.464 392.052C140.464 392.052 124.887 397.321 119.878 403.831" stroke="#263238" stroke-miterlimit="10" stroke-linecap="round"/>
<path d="M49.0229 430.053C49.0229 430.053 98.2817 462.617 97.4393 588.689" stroke="#263238" stroke-width="2" stroke-miterlimit="10" stroke-linecap="round"/>
<path d="M109.754 421.445C109.754 421.445 108.222 435.721 96.9644 435.506C85.7066 435.292 80.3457 416.115 68.5518 419.653C56.7579 423.191 53.9855 443.517 53.9855 443.517C53.9855 443.517 65.565 435.491 71.0331 440.453C76.5012 445.416 74.5866 452.247 71.5232 450.9C68.4599 449.552 51.7799 444.359 50.0798 457.133C49.5458 460.771 49.7551 464.478 50.695 468.033C51.6349 471.587 53.2857 474.913 55.5478 477.811C55.5478 477.811 69.4708 456.214 77.9256 461.054C86.3805 465.895 70.0375 468.161 62.9305 475.958C55.8236 483.754 50.9988 492.224 56.3903 495.701C61.7818 499.178 68.8888 507.081 68.8888 507.081C68.8888 507.081 68.322 495.15 76.1336 486.557C83.9451 477.964 89.4285 482.942 82.2603 490.738C75.092 498.535 77.4049 511.922 77.4049 511.922C77.4049 511.922 96.2292 514.77 110.229 510.39C124.228 506.009 124.718 500.74 120.751 495.701C116.784 490.662 102.218 483.111 107.181 477.643C112.143 472.174 121.165 504.646 128.348 498.32C135.532 491.994 138.151 484.413 134.889 478.577L131.626 472.757C131.626 472.757 117.06 465.221 113.093 460.181C109.126 455.142 115.222 457.838 122.115 461.254C129.007 464.669 143.696 475.177 145.09 472.129C146.484 469.08 142.685 452.799 140.204 447.622C137.722 442.445 115.421 445.064 113.078 442.935C110.734 440.806 123.156 434.97 126.863 435.552C129.666 436.023 132.442 436.642 135.18 437.405C135.18 437.405 136.237 428.384 124.596 419.209C112.955 410.034 109.754 421.445 109.754 421.445Z" fill="#6F95C9"/>
<path opacity="0.3" d="M109.754 421.445C109.754 421.445 108.222 435.721 96.9644 435.506C85.7066 435.292 80.3457 416.115 68.5518 419.653C56.7579 423.191 53.9855 443.517 53.9855 443.517C53.9855 443.517 65.565 435.491 71.0331 440.453C76.5012 445.416 74.5866 452.247 71.5232 450.9C68.4599 449.552 51.7799 444.359 50.0798 457.133C49.5458 460.771 49.7551 464.478 50.695 468.033C51.6349 471.587 53.2857 474.913 55.5478 477.811C55.5478 477.811 69.4708 456.214 77.9256 461.054C86.3805 465.895 70.0375 468.161 62.9305 475.958C55.8236 483.754 50.9988 492.224 56.3903 495.701C61.7818 499.178 68.8888 507.081 68.8888 507.081C68.8888 507.081 68.322 495.15 76.1336 486.557C83.9451 477.964 89.4285 482.942 82.2603 490.738C75.092 498.535 77.4049 511.922 77.4049 511.922C77.4049 511.922 96.2292 514.77 110.229 510.39C124.228 506.009 124.718 500.74 120.751 495.701C116.784 490.662 102.218 483.111 107.181 477.643C112.143 472.174 121.165 504.646 128.348 498.32C135.532 491.994 138.151 484.413 134.889 478.577L131.626 472.757C131.626 472.757 117.06 465.221 113.093 460.181C109.126 455.142 115.222 457.838 122.115 461.254C129.007 464.669 143.696 475.177 145.09 472.129C146.484 469.08 142.685 452.799 140.204 447.622C137.722 442.445 115.421 445.064 113.078 442.935C110.734 440.806 123.156 434.97 126.863 435.552C129.666 436.023 132.442 436.642 135.18 437.405C135.18 437.405 136.237 428.384 124.596 419.209C112.955 410.034 109.754 421.445 109.754 421.445Z" fill="#263238"/>
<path d="M98.2663 490.968C95.6472 478.715 92.6757 461.391 93.9011 449.858" stroke="#263238" stroke-miterlimit="10" stroke-linecap="round"/>
<path d="M101.759 505.55C101.759 505.55 100.84 502.195 99.6295 497.003" stroke="#263238" stroke-miterlimit="10" stroke-linecap="round"/>
<path d="M99.0168 447.377C99.0168 447.377 119.266 448.663 133.893 457.685" stroke="#263238" stroke-miterlimit="10" stroke-linecap="round"/>
<path d="M98.297 463.842C98.297 463.842 98.8637 460.09 114.487 474.304" stroke="#263238" stroke-miterlimit="10" stroke-linecap="round"/>
<path d="M88.4329 444.941C88.4329 444.941 88.0194 435.996 76.5778 431.294" stroke="#263238" stroke-miterlimit="10" stroke-linecap="round"/>
<path d="M90.562 458.236L80.7593 456.459" stroke="#263238" stroke-miterlimit="10" stroke-linecap="round"/>
<path d="M91.1899 471.654C91.1899 471.654 72.7179 476.249 66.3308 483.294" stroke="#263238" stroke-miterlimit="10" stroke-linecap="round"/>
<path d="M68.2148 529.413C68.2148 529.413 99.9512 553.69 103.29 589.532L96.6121 469.295" stroke="#263238" stroke-width="2" stroke-miterlimit="10" stroke-linecap="round"/>
<path d="M145.028 511.876C103.29 504.355 103.29 589.531 103.29 589.531" stroke="#263238" stroke-width="2" stroke-miterlimit="10" stroke-linecap="round"/>
<path d="M108.299 588.689C108.299 588.689 84.083 412.546 154.249 412.546" stroke="#263238" stroke-width="2" stroke-miterlimit="10" stroke-linecap="round"/>
<path d="M129.13 506.806C123.416 500.403 111.301 500.403 104.179 516.792C97.0563 533.181 103.459 530.332 103.459 530.332C103.459 530.332 117.014 526.059 125.561 523.21C134.108 520.361 145.473 513.223 146.238 517.497C147.004 521.77 140.525 526.059 132.683 527.483C124.841 528.908 104.179 534.606 106.323 538.894C108.467 543.183 113.445 555.988 113.445 555.988C119.536 550.82 125.963 546.062 132.683 541.743C141.873 536.03 147.663 538.174 142.67 544.592C137.676 551.01 123.355 558.132 126.281 566.694C129.206 575.256 146.192 585.932 146.192 585.932C146.192 585.932 148.322 568.119 153.315 562.406C158.308 556.692 158.308 563.125 156.884 573.127C156.172 577.376 155.696 581.661 155.459 585.963L175.371 593.085C175.371 593.085 182.493 582.363 186.093 578.84L189.646 575.272C189.646 575.272 173.977 561.732 173.257 553.17C172.537 544.607 183.979 553.17 187.517 554.594C191.055 556.018 196.707 566.005 196.707 566.005C196.707 566.005 200.261 549.616 200.981 543.903L201.7 538.205C201.7 538.205 186.721 532.507 181.023 532.507C175.325 532.507 172.461 536.781 172.461 531.083C172.461 525.385 178.174 521.816 184.592 522.521C190.397 523.496 196.118 524.925 201.7 526.794C201.7 526.794 205.974 523.241 204.549 512.549C203.125 501.858 199.556 501.828 190.994 504.707C182.432 507.587 176.749 513.974 170.332 513.974C163.914 513.974 167.483 506.132 171.756 503.987C176.03 501.843 186.721 497.57 188.865 496.865C191.009 496.16 177.454 486.143 170.332 484.749C163.209 483.356 153.973 488.349 154.647 495.471C156.21 510.374 134.827 513.223 129.13 506.806Z" fill="#6F95C9"/>
<path d="M175.003 580.204C175.218 582.348 175.371 584.508 175.463 586.652" stroke="#263238" stroke-miterlimit="10" stroke-linecap="round"/>
<path d="M160.698 529.03C166.946 543.156 171.452 557.989 174.115 573.204" stroke="#263238" stroke-miterlimit="10" stroke-linecap="round"/>
<path d="M158.124 523.317C154.586 515.659 151.998 511.064 151.998 511.064C155.861 509.212 159.067 506.225 161.188 502.502C162.851 499.128 165.292 496.199 168.31 493.955" stroke="#263238" stroke-miterlimit="10" stroke-linecap="round"/>
<path d="M126.985 535.31C126.985 535.31 152.641 524.588 152.641 526.748" stroke="#263238" stroke-miterlimit="10" stroke-linecap="round"/>
<path d="M166.901 521.785C166.901 521.785 178.312 516.072 188.344 516.072" stroke="#263238" stroke-miterlimit="10" stroke-linecap="round"/>
<path d="M162.627 538.894C157.681 542.953 153.146 547.488 149.087 552.434C144.917 557.338 141.546 562.869 139.101 568.823" stroke="#263238" stroke-miterlimit="10" stroke-linecap="round"/>
<path d="M170.47 541.743C170.47 541.743 185.434 537.47 193.276 544.592" stroke="#263238" stroke-miterlimit="10" stroke-linecap="round"/>
<path d="M197.58 445.431C189.815 440.836 181.237 440.729 177.04 435.889C172.844 431.049 181.084 428.598 185.511 430.421C189.937 432.244 200.153 437.528 202.099 438.677C204.044 439.825 202.696 423.054 199.035 416.728C195.375 410.402 185.603 406.741 180.655 411.903C170.286 422.793 154.111 408.518 155.214 400.002C156.317 391.486 148.383 382.342 131.335 387.748C114.288 393.155 120.613 396.081 120.613 396.081C120.613 396.081 132.729 403.509 140.525 408.104C148.321 412.699 161.142 416.636 158.385 419.975C155.628 423.314 148.184 421.277 141.965 416.284C135.746 411.29 117.887 399.435 116.064 403.846C114.242 408.258 107.885 420.434 107.885 420.434C115.786 421.647 123.599 423.377 131.274 425.612C141.659 428.874 143.772 434.587 135.67 435.016C127.567 435.445 112.817 429.364 108.238 437.13C103.658 444.895 106.782 464.853 106.782 464.853C106.782 464.853 121.64 454.775 129.221 454.805C136.803 454.836 131.948 459.048 123.478 464.516C119.804 466.754 116.26 469.198 112.863 471.838L120.522 491.596C120.522 491.596 133.28 489.957 138.304 490.31L143.328 490.677C143.328 490.677 143.328 469.954 149.271 463.812C155.214 457.67 156.271 471.883 157.542 475.498C158.813 479.113 155 489.973 155 489.973C155 489.973 169.719 481.916 174.483 478.73L179.261 475.529C179.261 475.529 173.763 460.488 170.071 456.168C166.38 451.849 161.249 452.523 165.476 448.786C169.704 445.048 176.198 447.009 179.874 452.324C182.944 457.349 185.612 462.609 187.854 468.054C187.854 468.054 193.353 468.943 200.49 460.855C207.628 452.768 205.346 450.011 197.58 445.431ZM130.186 468.238C124.489 465.389 138.029 459.691 138.029 459.691C142.961 458.971 135.823 471.087 130.125 468.238H130.186ZM139.79 441.633C137.355 440.407 144.645 437.987 144.645 437.987C155.122 440.009 142.164 442.843 139.729 441.633H139.79Z" fill="#6F95C9"/>
<path d="M129.972 482.758C128.44 484.29 126.909 485.822 125.377 487.353" stroke="#263238" stroke-miterlimit="10" stroke-linecap="round"/>
<path d="M159.227 438.401C152.683 452.381 144.453 465.508 134.72 477.489" stroke="#263238" stroke-miterlimit="10" stroke-linecap="round"/>
<path d="M161.862 432.688C165.277 425.029 167.039 419.99 167.039 419.99C170.973 421.728 175.347 422.215 179.568 421.384C183.21 420.433 187.025 420.354 190.703 421.154" stroke="#263238" stroke-miterlimit="10" stroke-linecap="round"/>
<path d="M132.377 417.08C132.377 417.08 157.282 429.441 155.658 430.865" stroke="#263238" stroke-miterlimit="10" stroke-linecap="round"/>
<path d="M168.769 438.34C168.769 438.34 180.563 443.21 187.15 450.746" stroke="#263238" stroke-miterlimit="10" stroke-linecap="round"/>
<path d="M153.054 446.32C146.747 445.249 140.35 444.787 133.954 444.941C127.514 445.017 121.126 446.102 115.023 448.158" stroke="#263238" stroke-miterlimit="10" stroke-linecap="round"/>
<path d="M156.041 454.131C156.041 454.131 169.091 462.632 168.846 473.231" stroke="#263238" stroke-miterlimit="10" stroke-linecap="round"/>
<path d="M86.8246 544.194C80.5754 540.503 73.6675 540.426 70.2825 536.535C66.8975 532.645 73.545 530.669 77.0985 532.14C80.652 533.61 88.8924 537.853 90.4547 538.772C92.017 539.691 90.9448 526.12 88.1266 521.096C85.3083 516.072 77.3129 513.055 73.3459 517.206C64.9982 525.982 51.9943 514.479 52.8827 507.633C53.7711 500.786 47.384 493.419 33.6601 497.738C19.9363 502.057 25.0521 504.447 25.0521 504.447C25.0521 504.447 34.7936 510.42 41.0428 514.127C47.2921 517.834 57.6309 520.989 55.41 523.669C53.189 526.35 47.2002 524.726 42.2069 520.713C37.2136 516.7 22.8312 507.143 21.3608 510.696C19.8904 514.25 14.6061 524.052 14.6061 524.052C20.9671 525.025 27.256 526.422 33.4304 528.234C41.778 530.853 43.4935 535.448 36.9686 535.8C30.4436 536.153 18.5884 531.205 14.8818 537.485C11.1751 543.765 13.7483 559.817 13.7483 559.817C13.7483 559.817 25.7107 551.714 31.8068 551.745C37.9029 551.776 33.9971 555.145 27.2118 559.541C24.2569 561.354 21.4037 563.328 18.665 565.454L24.8377 581.26C29.5806 580.624 34.3583 580.282 39.1435 580.234L43.1872 580.525C43.1872 580.525 43.1872 563.845 47.966 558.898C52.7448 553.951 53.6026 565.408 54.6135 568.318C55.6244 571.228 52.5763 579.974 52.5763 579.974C52.5763 579.974 64.4162 573.48 68.2607 570.906L72.1052 568.333C72.1052 568.333 67.6634 556.233 64.6613 552.771C61.6592 549.31 57.5543 549.815 61.0159 546.813C64.4775 543.811 69.6545 545.389 72.6107 549.662C75.0785 553.704 77.2244 557.935 79.0284 562.314C79.0284 562.314 83.4549 563.034 89.1987 556.524C94.9425 550.014 93.0586 547.885 86.8246 544.194ZM32.5267 562.574C27.9317 560.276 38.8372 555.681 38.8372 555.681C42.8655 555.099 37.1217 564.856 32.5267 562.559V562.574ZM40.1851 541.131C38.2245 540.15 44.0909 538.19 44.0909 538.19C52.6529 539.905 42.1763 542.111 40.2617 541.146L40.1851 541.131Z" fill="#6F95C9"/>
<path d="M32.4195 574.245C31.2248 575.501 29.9994 576.727 28.7281 577.906" stroke="#263238" stroke-miterlimit="10" stroke-linecap="round"/>
<path d="M55.9614 538.542C50.6747 549.794 44.0343 560.359 36.1875 570.003" stroke="#263238" stroke-miterlimit="10" stroke-linecap="round"/>
<path d="M58.0751 533.962C60.8321 527.836 62.2412 523.761 62.2412 523.761C65.4085 525.152 68.9247 525.542 72.3197 524.879C75.2488 524.103 78.3214 524.04 81.28 524.696" stroke="#263238" stroke-miterlimit="10" stroke-linecap="round"/>
<path d="M34.3495 521.372C34.3495 521.372 54.3838 531.328 53.0819 532.461" stroke="#263238" stroke-miterlimit="10" stroke-linecap="round"/>
<path d="M63.6198 538.496C63.6198 538.496 73.1008 542.417 78.3698 548.483" stroke="#263238" stroke-miterlimit="10" stroke-linecap="round"/>
<path d="M50.9834 544.914C45.9241 544.064 40.7952 543.7 35.6666 543.826C30.4876 543.888 25.3502 544.761 20.4418 546.415" stroke="#263238" stroke-miterlimit="10" stroke-linecap="round"/>
<path d="M53.3882 551.194C53.3882 551.194 63.8802 558.025 63.6964 566.51" stroke="#263238" stroke-miterlimit="10" stroke-linecap="round"/>
<path d="M61.3529 426.561C61.3529 426.561 53.5107 432.274 48.5174 426.561C43.5242 420.848 50.6618 409.452 43.5395 405.118C36.4172 400.783 25.0062 408.686 25.0062 408.686C25.0062 408.686 34.2729 410.815 34.2729 415.809C34.2729 420.802 29.9995 422.946 29.2796 420.802C28.5597 418.658 23.5817 407.967 16.4441 412.96C14.3922 414.341 12.64 416.121 11.2924 418.195C9.94492 420.269 9.02983 422.593 8.60195 425.029C8.60195 425.029 25.7108 422.18 27.1352 428.598C28.5597 435.016 20.0129 427.878 12.8906 427.878C5.76834 427.878 -0.664697 429.303 0.0551915 433.591C0.438071 437.38 0.438071 441.198 0.0551915 444.987C3.74366 441.532 8.54642 439.511 13.5952 439.289C21.4374 439.289 21.4374 444.283 14.3151 444.283C7.1928 444.283 1.47965 451.405 1.47965 451.405C1.47965 451.405 8.60195 462.127 17.164 467.089C25.7261 472.052 28.5597 469.938 29.2796 465.665C29.9995 461.391 27.1352 450.685 32.1285 450.685C37.1218 450.685 25.0062 469.938 31.4239 470.597C37.8417 471.255 42.8196 469.157 44.2441 464.884L45.6685 460.61C45.6685 460.61 42.8196 449.889 43.5395 445.646C44.2594 441.403 45.6685 445.646 47.093 450.624C48.5174 455.602 49.9572 467.733 52.0863 467.028C54.2153 466.323 60.6483 457.195 62.0881 453.58C63.5279 449.965 52.1016 440.025 52.1016 437.896C52.1016 435.766 60.6636 439.32 62.0881 441.464C63.1201 443.083 64.066 444.755 64.9217 446.473C64.9217 446.473 69.915 442.919 69.1951 432.933C68.4752 422.946 61.3529 426.561 61.3529 426.561Z" fill="#6F95C9"/>
<path d="M21.4221 452.339C26.3541 445.462 33.6755 436.103 39.9707 431.478" stroke="#263238" stroke-miterlimit="10" stroke-linecap="round"/>
<path d="M15.7395 460.702C15.7395 460.702 16.9955 458.726 19.0326 455.755" stroke="#263238" stroke-miterlimit="10" stroke-linecap="round"/>
<path d="M43.5396 432.902C43.5396 432.902 52.0863 443.624 54.2613 455.004" stroke="#263238" stroke-miterlimit="10" stroke-linecap="round"/>
<path d="M34.9774 440.025C34.9774 440.025 37.1218 438.6 37.1218 452.86" stroke="#263238" stroke-miterlimit="10" stroke-linecap="round"/>
<path d="M39.9707 426.561C39.9707 426.561 44.2441 422.288 41.3952 414.446" stroke="#263238" stroke-miterlimit="10" stroke-linecap="round"/>
<path d="M34.2729 433.622L30.7041 427.909" stroke="#263238" stroke-miterlimit="10" stroke-linecap="round"/>
<path d="M27.8552 440.025C27.8552 440.025 17.1334 432.902 10.7463 432.902" stroke="#263238" stroke-miterlimit="10" stroke-linecap="round"/>
<path d="M133.342 586.193H78.2319V665.503H133.342V586.193Z" fill="#263238" stroke="#263238" stroke-width="2" stroke-miterlimit="10" stroke-linecap="round"/>
<path d="M604.118 1H121.517V525.676H604.118V1Z" fill="white" stroke="#263238" stroke-miterlimit="10"/>
<path d="M604.118 147.015H121.517V268.569H604.118V147.015Z" fill="white" stroke="#263238" stroke-linecap="round" stroke-linejoin="round"/>
<path d="M604.118 1H121.517V194.022H604.118V1Z" fill="#6F95C9" stroke="#263238" stroke-linecap="round" stroke-linejoin="round"/>
<path d="M558.642 94.7233C558.642 93.6169 558.314 92.5354 557.699 91.6157C557.084 90.696 556.21 89.9795 555.188 89.5568C554.165 89.1341 553.04 89.0243 551.956 89.2412C550.871 89.4582 549.874 89.9922 549.093 90.7756C548.312 91.559 547.781 92.5566 547.567 93.642C547.353 94.7275 547.466 95.8521 547.891 96.8734C548.317 97.8946 549.036 98.7667 549.957 99.3792C550.878 99.9916 551.961 100.317 553.067 100.314C553.801 100.314 554.527 100.169 555.204 99.8881C555.882 99.6069 556.497 99.1949 557.015 98.6755C557.533 98.1562 557.943 97.5398 558.222 96.8616C558.502 96.1834 558.644 95.4567 558.642 94.7233Z" fill="white"/>
<path d="M430.793 89.7606C430.793 88.6543 430.465 87.5728 429.85 86.6531C429.235 85.7334 428.361 85.0168 427.339 84.5941C426.316 84.1714 425.191 84.0616 424.107 84.2786C423.022 84.4956 422.025 85.0295 421.244 85.8129C420.463 86.5963 419.932 87.5939 419.718 88.6794C419.504 89.7649 419.617 90.8894 420.042 91.9107C420.468 92.932 421.187 93.8041 422.108 94.4165C423.029 95.029 424.112 95.3543 425.218 95.3513C426.698 95.3472 428.116 94.7564 429.161 93.7084C430.207 92.6604 430.793 91.2407 430.793 89.7606Z" fill="white"/>
<path d="M493.485 171.062C493.485 169.956 493.157 168.875 492.543 167.956C491.928 167.037 491.055 166.32 490.034 165.897C489.012 165.474 487.888 165.363 486.804 165.579C485.719 165.795 484.723 166.327 483.941 167.109C483.159 167.891 482.627 168.887 482.411 169.971C482.195 171.056 482.306 172.18 482.729 173.201C483.152 174.223 483.869 175.096 484.788 175.71C485.708 176.325 486.789 176.653 487.894 176.653C488.629 176.653 489.355 176.508 490.034 176.227C490.712 175.946 491.328 175.534 491.847 175.015C492.367 174.496 492.778 173.88 493.059 173.201C493.34 172.523 493.485 171.796 493.485 171.062Z" fill="white"/>
<path d="M500.929 85.426C504.017 85.426 506.52 82.923 506.52 79.8354C506.52 76.7478 504.017 74.2448 500.929 74.2448C497.841 74.2448 495.338 76.7478 495.338 79.8354C495.338 82.923 497.841 85.426 500.929 85.426Z" fill="white"/>
<path d="M334.604 157.415C334.607 156.308 334.282 155.226 333.669 154.305C333.057 153.383 332.185 152.664 331.164 152.239C330.142 151.813 329.018 151.7 327.932 151.914C326.847 152.128 325.849 152.66 325.066 153.441C324.282 154.222 323.748 155.218 323.531 156.303C323.314 157.388 323.424 158.513 323.847 159.535C324.27 160.558 324.986 161.432 325.906 162.047C326.826 162.662 327.907 162.99 329.013 162.99C329.747 162.992 330.474 162.849 331.152 162.57C331.83 162.291 332.446 161.881 332.966 161.363C333.485 160.845 333.897 160.229 334.178 159.552C334.459 158.875 334.604 158.148 334.604 157.415Z" fill="white"/>
<path d="M288.776 185.72C288.776 184.615 288.448 183.534 287.834 182.614C287.22 181.695 286.347 180.978 285.325 180.555C284.304 180.132 283.18 180.021 282.095 180.237C281.011 180.453 280.014 180.985 279.233 181.767C278.451 182.549 277.918 183.545 277.703 184.63C277.487 185.714 277.598 186.838 278.021 187.86C278.444 188.881 279.16 189.754 280.08 190.369C280.999 190.983 282.08 191.311 283.186 191.311C284.667 191.307 286.087 190.717 287.134 189.669C288.182 188.621 288.772 187.202 288.776 185.72Z" fill="white"/>
<path d="M308.535 71.2121C308.538 70.105 308.212 69.022 307.599 68.1003C306.986 67.1786 306.113 66.4597 305.091 66.0346C304.069 65.6096 302.943 65.4976 301.857 65.7128C300.772 65.928 299.774 66.4608 298.991 67.2436C298.208 68.0264 297.676 69.0239 297.46 70.1098C297.245 71.1957 297.357 72.3211 297.782 73.3433C298.207 74.3654 298.926 75.2384 299.848 75.8516C300.77 76.4647 301.853 76.7904 302.96 76.7874C304.438 76.7874 305.856 76.2 306.902 75.1544C307.948 74.1088 308.535 72.6907 308.535 71.2121Z" fill="white"/>
<path d="M212.346 70.5228C215.433 70.5228 217.936 68.0198 217.936 64.9322C217.936 61.8446 215.433 59.3416 212.346 59.3416C209.258 59.3416 206.755 61.8446 206.755 64.9322C206.755 68.0198 209.258 70.5228 212.346 70.5228Z" fill="white"/>
<path d="M157.052 95.964C157.052 94.8583 156.724 93.7774 156.11 92.858C155.496 91.9386 154.622 91.2221 153.601 90.7989C152.579 90.3758 151.455 90.2651 150.371 90.4808C149.286 90.6965 148.29 91.229 147.508 92.0108C146.726 92.7927 146.194 93.7888 145.978 94.8733C145.763 95.9578 145.873 97.0819 146.296 98.1034C146.72 99.125 147.436 99.9981 148.355 100.612C149.275 101.227 150.356 101.555 151.461 101.555C152.944 101.555 154.366 100.966 155.415 99.9171C156.463 98.8687 157.052 97.4467 157.052 95.964Z" fill="white"/>
<path d="M289.925 140.03C293.013 140.03 295.516 137.527 295.516 134.44C295.516 131.352 293.013 128.849 289.925 128.849C286.837 128.849 284.334 131.352 284.334 134.44C284.334 137.527 286.837 140.03 289.925 140.03Z" fill="white"/>
<path d="M582.858 154.934C582.861 153.827 582.536 152.744 581.922 151.822C581.309 150.9 580.436 150.181 579.414 149.756C578.392 149.331 577.267 149.219 576.181 149.434C575.095 149.65 574.097 150.182 573.314 150.965C572.532 151.748 571.999 152.745 571.784 153.831C571.568 154.917 571.68 156.043 572.106 157.065C572.531 158.087 573.249 158.96 574.171 159.573C575.093 160.186 576.176 160.512 577.283 160.509C578.762 160.509 580.18 159.921 581.225 158.876C582.271 157.83 582.858 156.412 582.858 154.934Z" fill="white"/>
<path d="M380.524 84.1854C383.611 84.1854 386.114 81.6824 386.114 78.5948C386.114 75.5072 383.611 73.0042 380.524 73.0042C377.436 73.0042 374.933 75.5072 374.933 78.5948C374.933 81.6824 377.436 84.1854 380.524 84.1854Z" fill="white"/>
<path d="M501.557 82.3167L487.894 171.062L553.067 94.7233" stroke="white" stroke-miterlimit="10"/>
<path d="M425.218 89.7607L329.013 157.415L485.413 170.434" stroke="white" stroke-miterlimit="10"/>
<path d="M427.071 89.7607L487.894 171.062" stroke="white" stroke-miterlimit="10"/>
<path d="M212.346 64.9322L289.925 134.44" stroke="white" stroke-miterlimit="10"/>
<path d="M326.379 157.047L282.925 189.32L157.726 135.68" stroke="white" stroke-miterlimit="10"/>
<path d="M282.925 189.32L291.778 133.827L157.726 135.68L151.523 95.964L212.346 64.9322L302.96 71.1508L380.524 78.5947L487.894 171.062L577.268 154.934L553.067 94.7233L500.929 79.8354L425.218 89.7607L380.524 78.5947L329.013 157.415L289.925 134.44L302.96 76.7261" stroke="white" stroke-miterlimit="10"/>
<path d="M425.218 89.7606L440.29 45.1276L520.611 42.4931L500.929 79.8354L579.871 43.1517" stroke="white" stroke-miterlimit="10"/>
<path d="M302.96 71.1508L307.938 45.7863H394.202L380.524 78.5948" stroke="white" stroke-miterlimit="10"/>
<path d="M151.523 95.964V49.0793" stroke="white" stroke-miterlimit="10"/>
<path d="M214.444 66.1882L178.894 30.6379" stroke="white" stroke-miterlimit="10"/>
<path d="M604.118 1H121.517V54.3024H604.118V1Z" fill="#E8E8E8" stroke="#263238" stroke-linecap="round" stroke-linejoin="round"/>
<path d="M604.118 1H121.517V24.8482H604.118V1Z" fill="#263238" stroke="#263238" stroke-linecap="round" stroke-linejoin="round"/>
<path d="M553.266 11.4766C553.266 10.6466 553.02 9.83519 552.559 9.14503C552.098 8.45487 551.442 7.91696 550.676 7.59931C549.909 7.28166 549.065 7.19855 548.251 7.36049C547.437 7.52242 546.689 7.92213 546.102 8.50906C545.515 9.09599 545.115 9.84379 544.953 10.6579C544.791 11.472 544.874 12.3158 545.192 13.0827C545.51 13.8496 546.048 14.505 546.738 14.9661C547.428 15.4273 548.239 15.6734 549.069 15.6734C550.183 15.6734 551.25 15.2313 552.037 14.4442C552.824 13.6572 553.266 12.5897 553.266 11.4766Z" fill="#E8E8E8"/>
<path d="M570.038 11.4767C570.038 10.646 569.792 9.83397 569.33 9.14348C568.868 8.45299 568.212 7.91509 567.444 7.5979C566.676 7.28071 565.831 7.1985 565.017 7.36168C564.202 7.52486 563.455 7.92609 562.868 8.51455C562.282 9.10302 561.884 9.85224 561.723 10.6673C561.563 11.4825 561.648 12.3268 561.968 13.0934C562.288 13.86 562.829 14.5143 563.521 14.9736C564.213 15.4329 565.026 15.6765 565.857 15.6735C566.967 15.6694 568.031 15.2255 568.814 14.4389C569.598 13.6522 570.038 12.5871 570.038 11.4767Z" fill="#E8E8E8"/>
<path d="M586.825 11.4766C586.825 10.6466 586.579 9.83519 586.118 9.14503C585.657 8.45487 585.001 7.91696 584.234 7.59931C583.468 7.28166 582.624 7.19855 581.81 7.36049C580.996 7.52242 580.248 7.92213 579.661 8.50906C579.074 9.09599 578.674 9.84379 578.512 10.6579C578.35 11.472 578.433 12.3158 578.751 13.0827C579.069 13.8496 579.607 14.505 580.297 14.9661C580.987 15.4273 581.798 15.6734 582.628 15.6734C583.741 15.6734 584.809 15.2313 585.596 14.4442C586.383 13.6572 586.825 12.5897 586.825 11.4766Z" fill="#E8E8E8"/>
<path d="M221.073 228.252C256.347 219.907 278.177 184.547 269.832 149.272C261.487 113.998 226.127 92.168 190.853 100.513C155.579 108.858 133.748 144.218 142.093 179.492C150.438 214.766 185.799 236.597 221.073 228.252Z" fill="white"/>
<path d="M191.959 126.184C191.959 126.184 189.723 126.184 189.508 123.35C189.294 120.517 190.933 119.996 190.933 119.996C190.42 119.326 190.096 118.53 189.996 117.692C189.897 116.854 190.024 116.004 190.366 115.232C191.622 112.828 195.88 113.517 195.88 113.517C195.88 113.517 193.123 109.672 197.856 106.854C202.589 104.036 206.663 107.038 205.162 107.283C203.661 107.528 202.237 105.047 205.04 103.285C207.843 101.524 214.061 103.408 213.739 105.966C213.418 108.524 211.702 102.336 217.033 103.592C222.363 104.848 224.293 109.718 222.516 110.423C220.739 111.128 224.783 106.134 227.616 109.519C230.45 112.904 230.511 117.377 229.347 117.285C228.183 117.193 230.695 111.48 235.367 114.957C240.038 118.434 239.962 121.834 238.246 122.814C236.531 123.795 239.778 115.6 242.566 120.808C245.353 126.015 240.544 129.508 237.021 133.291C233.498 137.074 234.57 146.402 234.356 147.076C234.141 147.75 223.542 151.993 220.142 152.605C216.742 153.218 218.993 148.914 217.814 143.676C216.634 138.437 212.713 135.16 214.153 131.131C215.593 127.103 215.44 124.453 210.86 123.473C206.28 122.493 191.959 126.184 191.959 126.184Z" fill="#263238"/>
<path d="M205.958 230.032C215.04 230.04 224.023 228.159 232.338 224.507C240.652 220.855 248.115 215.512 254.252 208.818C251.044 204.811 247.514 201.071 243.699 197.637C231.538 186.486 226.452 186.486 226.452 186.486C219.162 181.968 206.403 180.895 203.707 180.589C200.552 180.252 189.738 175.703 189.738 175.703C189.738 175.703 174.421 165.931 168.8 165.579C163.179 165.226 155.52 170.465 155.52 179.961C155.52 184.204 155.75 195.661 155.995 206.949C162.148 214.193 169.805 220.01 178.433 223.996C187.061 227.982 196.454 230.042 205.958 230.032Z" fill="#6F95C9" stroke="#263238" stroke-linecap="round" stroke-linejoin="round"/>
<path d="M183.657 190.698L190.565 227.719" stroke="#263238" stroke-linecap="round" stroke-linejoin="round"/>
<path d="M181.559 179.364L182.723 185.628" stroke="#263238" stroke-linecap="round" stroke-linejoin="round"/>
<path d="M218.564 165.272L211.672 184.954C211.275 186.089 210.645 187.128 209.822 188.004C208.999 188.88 208.001 189.573 206.893 190.04C204.657 191.005 202.327 191.734 199.939 192.215C194.869 193.134 189.554 183.913 188.406 181.83C187.257 179.747 190.948 170.296 190.948 170.296L218.564 165.272Z" fill="#C9C9C9" stroke="#263238" stroke-linecap="round" stroke-linejoin="round"/>
<path d="M199.51 170.036H193.062L190.489 171.384C189.585 173.896 187.425 180.222 188.344 181.876C188.62 182.381 189.156 183.316 189.876 184.434L210.385 175.244L199.51 170.036Z" fill="#263238" stroke="#263238" stroke-miterlimit="10"/>
<path d="M223.221 125.694C222.899 124.668 220.157 119.46 211.396 117.239C202.635 115.018 191.806 123.534 188.727 128.083C185.649 132.632 185.664 139.341 184.04 141.868C182.417 144.396 177.255 145.33 177.531 151.288C177.806 157.246 185.74 173.421 191.882 178.031C198.024 182.642 206.096 179.012 212.407 172.563C216.475 168.304 220.155 163.69 223.404 158.778C223.404 158.778 231.645 160.034 235.658 157.246C239.671 154.459 240.253 146.846 237.189 145.345C234.126 143.844 223.956 149.006 223.956 149.006L221.75 147.673L223.649 144.38C223.649 144.38 216.496 136.507 217.523 134.164C219.239 131.222 221.142 128.392 223.221 125.694Z" fill="#C9C9C9" stroke="#263238" stroke-linecap="round" stroke-linejoin="round"/>
<path d="M205.821 135.022C205.821 135.022 204.503 132.77 207.352 131.514C210.201 130.258 215.317 135.757 214.03 136.538C212.744 137.319 205.821 135.022 205.821 135.022Z" fill="#263238"/>
<path d="M196.033 131.866C196.033 131.866 195.375 130.595 192.97 130.856C190.565 131.116 187.027 134.363 188.099 135.206C189.171 136.048 193.46 134.7 195.375 134.026C197.289 133.352 196.692 132.939 196.033 131.866Z" fill="#263238"/>
<path d="M206.296 143.492C209.705 143.031 213.169 143.176 216.527 143.921" stroke="#263238" stroke-linecap="round" stroke-linejoin="round"/>
<path d="M209.573 140.352C209.573 141.623 208.899 142.665 208.042 142.665C207.184 142.665 206.51 141.623 206.51 140.352C206.51 139.081 207.184 138.039 208.042 138.039C208.899 138.039 209.573 139.081 209.573 140.352Z" fill="#263238"/>
<path d="M196.309 139.892C196.309 141.164 195.635 142.205 194.777 142.205C193.92 142.205 193.246 141.164 193.246 139.892C193.246 138.621 193.92 137.58 194.777 137.58C195.635 137.58 196.309 138.606 196.309 139.892Z" fill="#263238"/>
<path d="M200.337 138.284L198.959 142.879C198.959 142.879 189.493 147.03 189.263 148.638C189.033 150.247 195.727 152.789 198.959 153.034C199.97 153.023 200.959 152.73 201.813 152.189C202.668 151.648 203.356 150.88 203.799 149.971" fill="#C9C9C9"/>
<path d="M200.337 138.284L198.959 142.879C198.959 142.879 189.493 147.03 189.263 148.638C189.033 150.247 195.727 152.789 198.959 153.034C199.97 153.023 200.959 152.73 201.813 152.189C202.668 151.648 203.356 150.88 203.799 149.971" stroke="#263238" stroke-linecap="round" stroke-linejoin="round"/>
<path d="M186.537 142.205H194.808" stroke="#263238" stroke-linecap="round" stroke-linejoin="round"/>
<path d="M220.219 177.587L228.918 161.167C229.114 160.752 229.224 160.302 229.241 159.844C229.259 159.385 229.184 158.928 229.021 158.499C228.858 158.07 228.61 157.679 228.293 157.348C227.975 157.017 227.594 156.753 227.172 156.572L223.021 155.347L220.219 177.587Z" fill="#C9C9C9" stroke="#263238" stroke-linecap="round" stroke-linejoin="round"/>
<path d="M218.656 163.496L223.19 161.397L222.133 158.61" stroke="#263238" stroke-linecap="round" stroke-linejoin="round"/>
<path d="M203.14 159.115C203.14 159.115 194.348 161.811 189.279 157.078" stroke="#263238" stroke-linecap="round" stroke-linejoin="round"/>
<path d="M207.123 180.252C208.179 183.729 213.066 190.024 213.066 190.024C213.066 190.024 226.131 209.032 236.041 222.741C242.891 219.199 249.065 214.481 254.283 208.803C242.03 199.919 218.319 184.434 218.319 184.434L225.978 162.776C226.328 161.779 226.392 160.703 226.161 159.672C225.931 158.64 225.417 157.694 224.676 156.94C223.557 155.807 222.302 154.765 221.49 154.765C219.744 154.765 215.899 160.693 215.899 160.693L218.702 163.496C218.702 163.496 206.066 176.76 207.123 180.252Z" fill="#C9C9C9" stroke="#263238" stroke-linecap="round" stroke-linejoin="round"/>
<path d="M218.656 163.496C218.656 163.496 223.787 162.454 223.251 161.397C222.715 160.34 221.719 158.211 220.525 158.931" fill="#C9C9C9"/>
<path d="M218.656 163.496C218.656 163.496 223.787 162.454 223.251 161.397C222.715 160.34 221.719 158.211 220.525 158.931" stroke="#263238" stroke-linecap="round" stroke-linejoin="round"/>
<path d="M221.073 228.252C256.347 219.907 278.177 184.547 269.832 149.272C261.487 113.998 226.127 92.168 190.853 100.513C155.579 108.858 133.748 144.218 142.093 179.492C150.438 214.766 185.799 236.597 221.073 228.252Z" stroke="#263238" stroke-miterlimit="10"/>
<path d="M135.517 240.998H271.315" stroke="#263238" stroke-miterlimit="10"/>
<path d="M135.517 251.199H309.102" stroke="#263238" stroke-miterlimit="10"/>
<path d="M520.151 315.208H577.038" stroke="#263238" stroke-miterlimit="10"/>
<path d="M382.53 315.208H513.504" stroke="#263238" stroke-miterlimit="10"/>
<path d="M279.693 315.208H373.83" stroke="#263238" stroke-miterlimit="10"/>
<path d="M165.093 315.208H273.551" stroke="#263238" stroke-miterlimit="10"/>
<path d="M135.517 315.208H160.483" stroke="#263238" stroke-miterlimit="10"/>
<path d="M549.314 326.466H577.038" stroke="#263238" stroke-miterlimit="10"/>
<path d="M512.999 326.466H542.667" stroke="#263238" stroke-miterlimit="10"/>
<path d="M419.367 326.466H508.388" stroke="#263238" stroke-miterlimit="10"/>
<path d="M344.667 326.466H411.693" stroke="#263238" stroke-miterlimit="10"/>
<path d="M226.483 326.466H337.514" stroke="#263238" stroke-miterlimit="10"/>
<path d="M135.517 326.466H218.809" stroke="#263238" stroke-miterlimit="10"/>
<path d="M267.425 337.724H363.093" stroke="#263238" stroke-miterlimit="10"/>
<path d="M149.241 337.724H261.283" stroke="#263238" stroke-miterlimit="10"/>
<path d="M135.517 337.724H144.63" stroke="#263238" stroke-miterlimit="10"/>
<path d="M520.151 364.804H577.038" stroke="#263238" stroke-miterlimit="10"/>
<path d="M382.53 364.804H513.504" stroke="#263238" stroke-miterlimit="10"/>
<path d="M279.693 364.804H373.83" stroke="#263238" stroke-miterlimit="10"/>
<path d="M165.093 364.804H273.551" stroke="#263238" stroke-miterlimit="10"/>
<path d="M135.517 364.804H160.483" stroke="#263238" stroke-miterlimit="10"/>
<path d="M549.314 376.062H577.038" stroke="#263238" stroke-miterlimit="10"/>
<path d="M512.999 376.062H542.667" stroke="#263238" stroke-miterlimit="10"/>
<path d="M419.367 376.062H508.388" stroke="#263238" stroke-miterlimit="10"/>
<path d="M344.667 376.062H411.693" stroke="#263238" stroke-miterlimit="10"/>
<path d="M226.483 376.062H337.514" stroke="#263238" stroke-miterlimit="10"/>
<path d="M135.517 376.062H218.809" stroke="#263238" stroke-miterlimit="10"/>
<path d="M368.714 387.32H437.272" stroke="#263238" stroke-miterlimit="10"/>
<path d="M267.425 387.32H363.093" stroke="#263238" stroke-miterlimit="10"/>
<path d="M149.241 387.32H261.283" stroke="#263238" stroke-miterlimit="10"/>
<path d="M135.517 387.32H144.63" stroke="#263238" stroke-miterlimit="10"/>
<path d="M520.151 414.4H577.038" stroke="#263238" stroke-miterlimit="10"/>
<path d="M382.53 414.4H513.504" stroke="#263238" stroke-miterlimit="10"/>
<path d="M279.693 414.4H373.83" stroke="#263238" stroke-miterlimit="10"/>
<path d="M165.093 414.4H273.551" stroke="#263238" stroke-miterlimit="10"/>
<path d="M135.517 414.4H160.483" stroke="#263238" stroke-miterlimit="10"/>
<path d="M549.314 425.657H577.038" stroke="#263238" stroke-miterlimit="10"/>
<path d="M512.999 425.657H542.667" stroke="#263238" stroke-miterlimit="10"/>
<path d="M419.367 425.657H508.388" stroke="#263238" stroke-miterlimit="10"/>
<path d="M344.667 425.657H411.693" stroke="#263238" stroke-miterlimit="10"/>
<path d="M226.483 425.657H337.514" stroke="#263238" stroke-miterlimit="10"/>
<path d="M135.517 425.657H218.809" stroke="#263238" stroke-miterlimit="10"/>
<path d="M556.483 436.915H577.038" stroke="#263238" stroke-miterlimit="10"/>
<path d="M473.083 436.915H550.846" stroke="#263238" stroke-miterlimit="10"/>
<path d="M442.909 436.915H467.967" stroke="#263238" stroke-miterlimit="10"/>
<path d="M368.714 436.915H437.272" stroke="#263238" stroke-miterlimit="10"/>
<path d="M267.425 436.915H363.093" stroke="#263238" stroke-miterlimit="10"/>
<path d="M149.241 436.915H261.283" stroke="#263238" stroke-miterlimit="10"/>
<path d="M135.517 436.915H144.63" stroke="#263238" stroke-miterlimit="10"/>
<path d="M520.151 448.678H577.038" stroke="#263238" stroke-miterlimit="10"/>
<path d="M382.53 448.678H513.504" stroke="#263238" stroke-miterlimit="10"/>
<path d="M279.693 448.678H373.83" stroke="#263238" stroke-miterlimit="10"/>
<path d="M165.093 448.678H273.551" stroke="#263238" stroke-miterlimit="10"/>
<path d="M135.517 448.678H160.483" stroke="#263238" stroke-miterlimit="10"/>
<path d="M549.314 459.936H577.038" stroke="#263238" stroke-miterlimit="10"/>
<path d="M512.999 459.936H542.667" stroke="#263238" stroke-miterlimit="10"/>
<path d="M419.367 459.936H508.388" stroke="#263238" stroke-miterlimit="10"/>
<path d="M344.667 459.936H411.693" stroke="#263238" stroke-miterlimit="10"/>
<path d="M226.483 459.936H337.514" stroke="#263238" stroke-miterlimit="10"/>
<path d="M135.517 459.936H218.809" stroke="#263238" stroke-miterlimit="10"/>
<path d="M149.241 471.194H261.283" stroke="#263238" stroke-miterlimit="10"/>
<path d="M135.517 471.194H144.63" stroke="#263238" stroke-miterlimit="10"/>
<path d="M493.914 201.175H433.673V219.555H493.914V201.175Z" fill="white" stroke="#263238" stroke-linecap="round" stroke-linejoin="round"/>
<path d="M566.423 201.175H506.182V219.555H566.423V201.175Z" fill="white" stroke="#263238" stroke-linecap="round" stroke-linejoin="round"/>
<path d="M144.508 297.594L143.849 300.994H142.118L145.35 284.146H148.077L151.308 300.994H149.394L148.735 297.594H144.508ZM144.753 295.97H148.505L146.606 286.244L144.753 295.97Z" fill="#263238"/>
<path d="M156.547 284.115C159.181 284.115 160.207 285.371 160.207 287.852V288.71C160.207 290.502 159.702 291.605 158.232 292.065C159.87 292.524 160.498 293.826 160.498 295.679V297.104C160.578 297.632 160.534 298.171 160.371 298.679C160.208 299.187 159.929 299.651 159.557 300.033C159.184 300.416 158.729 300.707 158.225 300.885C157.722 301.062 157.184 301.12 156.654 301.055H152.763V284.115H156.547ZM156.087 291.283C157.619 291.283 158.354 290.793 158.354 289.032V288.052C158.354 286.52 157.849 285.831 156.501 285.831H154.647V291.283H156.087ZM156.654 299.279C158.017 299.279 158.645 298.559 158.645 296.981V295.45C158.645 293.566 157.895 292.938 156.286 292.938H154.647V299.233L156.654 299.279Z" fill="#263238"/>
<path d="M162.061 288.189C162.061 285.616 163.347 283.947 165.921 283.947C168.494 283.947 169.796 285.616 169.796 288.189V296.92C169.796 299.463 168.524 301.163 165.921 301.163C163.317 301.163 162.061 299.463 162.061 296.92V288.189ZM163.929 297.012C163.929 298.544 164.573 299.447 165.921 299.447C167.268 299.447 167.927 298.559 167.927 297.012V288.098C167.927 286.566 167.299 285.662 165.921 285.662C164.542 285.662 163.929 286.581 163.929 288.098V297.012Z" fill="#263238"/>
<path d="M173.364 297.012C173.364 298.544 173.962 299.447 175.34 299.447C176.719 299.447 177.286 298.528 177.286 297.012V284.115H179.047V296.92C179.047 299.463 177.868 301.178 175.264 301.178C172.66 301.178 171.511 299.463 171.511 296.92V284.115H173.364V297.012Z" fill="#263238"/>
<path d="M183.336 300.964V285.8H180.272V284.115H188.344V285.831H185.281V300.964H183.336Z" fill="#263238"/>
<path d="M446.11 212.356C446.11 213.137 446.416 213.597 447.106 213.597C447.795 213.597 448.101 213.137 448.101 212.356V205.816H449.005V212.31C449.005 213.612 448.392 214.485 447.075 214.485C445.758 214.485 445.161 213.612 445.161 212.31V205.816H446.11V212.356Z" fill="#263238"/>
<path d="M450.782 214.378H449.924V205.816H451.149L453.125 211.943V205.816H453.968V214.378H452.972L450.782 207.531V214.378Z" fill="#263238"/>
<path d="M457.889 209.798V210.671H455.913V214.378H454.948V205.816H458.364V206.674H455.913V209.737L457.889 209.798Z" fill="#263238"/>
<path d="M459.053 207.884C459.053 206.566 459.696 205.724 461.013 205.724C462.331 205.724 462.974 206.566 462.974 207.884V212.31C462.974 213.612 462.331 214.47 461.013 214.47C459.696 214.47 459.053 213.612 459.053 212.31V207.884ZM459.987 212.356C459.987 213.153 460.324 213.597 461.013 213.597C461.703 213.597 462.024 213.153 462.024 212.356V207.761C462.024 206.995 461.703 206.536 461.013 206.536C460.324 206.536 459.987 206.995 459.987 207.761V212.356Z" fill="#263238"/>
<path d="M463.893 214.378V205.816H464.919V213.474H467.37V214.347L463.893 214.378Z" fill="#263238"/>
<path d="M467.983 214.378V205.816H468.948V213.474H471.383V214.347L467.983 214.378Z" fill="#263238"/>
<path d="M472.072 207.884C472.072 206.566 472.715 205.724 474.033 205.724C475.35 205.724 476.008 206.566 476.008 207.884V212.31C476.05 212.588 476.029 212.871 475.947 213.139C475.865 213.407 475.725 213.654 475.535 213.861C475.346 214.068 475.113 214.23 474.853 214.335C474.593 214.441 474.313 214.487 474.033 214.47C472.715 214.47 472.072 213.612 472.072 212.31V207.884ZM473.022 212.356C473.022 213.153 473.343 213.597 474.033 213.597C474.722 213.597 475.043 213.153 475.043 212.356V207.761C475.043 206.995 474.737 206.536 474.033 206.536C473.328 206.536 473.022 206.995 473.022 207.761V212.356Z" fill="#263238"/>
<path d="M479.194 214.378H477.877L476.698 205.816H477.632L478.643 213.107L479.593 205.816H480.542L481.477 213.122L482.442 205.816H483.299L482.135 214.378H480.879L480.052 208.573L479.194 214.378Z" fill="#263238"/>
<path d="M529.847 214.378H528.928L527.503 207.547V214.378H526.676V205.816H528.009L529.418 212.662L530.781 205.816H532.114V214.378H531.21V207.531L529.847 214.378Z" fill="#263238"/>
<path d="M533.033 207.884C533.033 206.566 533.676 205.724 534.978 205.724C536.28 205.724 536.954 206.566 536.954 207.884V212.31C536.954 213.612 536.31 214.47 534.978 214.47C533.645 214.47 533.033 213.612 533.033 212.31V207.884ZM533.967 212.356C533.967 213.153 534.304 213.597 534.978 213.597C535.652 213.597 536.004 213.153 536.004 212.356V207.761C536.004 206.995 535.682 206.536 534.978 206.536C534.273 206.536 533.967 206.995 533.967 207.761V212.356Z" fill="#263238"/>
<path d="M539.772 205.816C541.12 205.816 541.687 206.49 541.687 207.776V208.466C541.687 209.415 541.35 209.997 540.615 210.227C541.411 210.457 541.702 211.1 541.702 212.019V213.352C541.675 213.702 541.733 214.054 541.871 214.378H540.906C540.767 214.049 540.709 213.692 540.737 213.336V211.988C540.737 211.023 540.293 210.717 539.496 210.717H538.823V214.378H537.873V205.816H539.772ZM539.527 209.844C540.293 209.844 540.737 209.599 540.737 208.68V207.853C540.737 207.087 540.461 206.674 539.757 206.674H538.823V209.844H539.527Z" fill="#263238"/>
<path d="M545.746 209.599V210.457H543.647V213.52H546.22V214.393H542.698V205.831H546.22V206.689H543.647V209.614L545.746 209.599Z" fill="#263238"/>
<path d="M548.028 213.198V214.378H547.109V213.198H548.028Z" fill="#263238"/>
<path d="M549.927 213.198V214.378H549.008V213.198H549.927Z" fill="#263238"/>
<path d="M551.826 213.198V214.378H550.907V213.198H551.826Z" fill="#263238"/>
<path d="M444.87 228.224H432.616V240.478H444.87V228.224Z" stroke="#263238" stroke-miterlimit="10"/>
<path d="M450.996 236.403H510.226" stroke="#263238" stroke-miterlimit="10"/>
<path d="M444.87 246.359H432.616V258.613H444.87V246.359Z" stroke="#263238" stroke-miterlimit="10"/>
<path d="M450.996 254.523H510.226" stroke="#263238" stroke-miterlimit="10"/>
<path d="M409.12 30.1631H176.566V44.8826H409.12V30.1631Z" fill="white" stroke="#263238" stroke-linecap="round" stroke-linejoin="round"/>
<path d="M551.995 560.659L568.001 665.717C568.054 666.099 568.029 666.489 567.926 666.861C567.822 667.233 567.644 667.579 567.401 667.879C567.159 668.18 566.857 668.427 566.515 668.605C566.173 668.784 565.797 668.891 565.412 668.918C564.756 668.963 564.106 668.776 563.574 668.39C563.042 668.003 562.662 667.442 562.502 666.805L535.193 560.659H551.995Z" fill="white" stroke="#263238" stroke-linecap="round" stroke-linejoin="round"/>
<path d="M559.393 566.373L545.317 665.717C545.263 666.098 545.289 666.486 545.391 666.857C545.493 667.228 545.67 667.574 545.911 667.874C546.152 668.174 546.452 668.421 546.793 668.601C547.133 668.781 547.506 668.889 547.89 668.918C548.547 668.961 549.199 668.773 549.733 668.387C550.267 668.002 550.65 667.442 550.816 666.805L576.195 566.373H559.393Z" fill="white" stroke="#263238" stroke-linecap="round" stroke-linejoin="round"/>
<path d="M491.815 566.373L477.739 665.717C477.686 666.098 477.711 666.486 477.813 666.857C477.915 667.228 478.093 667.574 478.334 667.874C478.575 668.174 478.875 668.421 479.215 668.601C479.555 668.781 479.929 668.889 480.312 668.918C480.97 668.961 481.621 668.773 482.155 668.387C482.689 668.002 483.072 667.442 483.238 666.805L508.618 566.373H491.815Z" fill="white" stroke="#263238" stroke-linecap="round" stroke-linejoin="round"/>
<path d="M624.688 560.659L640.694 665.717C640.748 666.099 640.722 666.489 640.619 666.861C640.516 667.233 640.337 667.579 640.095 667.879C639.852 668.18 639.55 668.427 639.208 668.605C638.866 668.784 638.491 668.891 638.106 668.918C637.45 668.963 636.799 668.776 636.267 668.39C635.735 668.003 635.356 667.442 635.196 666.805L607.886 560.659H624.688Z" fill="white" stroke="#263238" stroke-linecap="round" stroke-linejoin="round"/>
<path d="M509.767 569.436C509.767 569.436 597.961 573.633 617.428 567.904C636.896 562.176 636.896 555.651 642.624 543.474C648.353 531.297 673.932 438.478 676.995 417.478C680.058 396.479 652.488 400.63 645.305 402.162C638.121 403.693 627.353 405.592 618.577 404.827C609.8 404.061 601.391 398.348 588.418 398.348C575.445 398.348 570.85 415.196 565.121 436.9C559.393 458.604 546.037 483.478 538.011 488.824C529.985 494.169 472.731 496.084 463.954 506.009C455.178 515.934 458.609 531.205 468.151 545.71C477.693 560.215 487.619 567.858 495.262 568.685C502.905 569.513 509.767 569.436 509.767 569.436Z" fill="white" stroke="#263238" stroke-linecap="round" stroke-linejoin="round"/>
<path d="M465.47 645.407C465.47 645.407 453.217 653.065 446.003 657.661C438.789 662.256 433.397 663.389 433.397 666.054C433.397 668.719 436.461 669.868 440.274 670.251C444.088 670.634 479.608 670.634 486.47 670.634C493.332 670.634 494.879 668.352 495.66 666.039C496.441 663.726 494.526 653.448 494.526 653.448C494.526 653.448 471.965 649.987 465.47 645.407Z" fill="white" stroke="#263238" stroke-linecap="round" stroke-linejoin="round"/>
<path d="M475.013 668.321C457.781 669.853 440.32 667.126 433.428 665.87C433.421 665.921 433.421 665.973 433.428 666.023C433.428 668.704 436.491 669.837 440.305 670.22C444.119 670.603 479.639 670.603 486.5 670.603C493.362 670.603 494.909 668.321 495.69 666.008C495.762 665.784 495.808 665.553 495.828 665.319C488.967 666.799 482.012 667.802 475.013 668.321Z" fill="white" stroke="#263238" stroke-linecap="round" stroke-linejoin="round"/>
<path d="M526.83 494.414L522.051 492.178L519.523 495.242C519.523 495.242 504.069 469.693 491.708 462.663C479.347 455.632 464.138 462.938 464.751 474.748C465.363 486.557 487.496 529.52 487.496 529.52C487.496 529.52 452.39 544.684 452.114 549.172C451.839 553.66 468.672 638.499 468.672 638.499C468.672 638.499 463.617 637.381 463.617 640.184C463.484 643.005 463.203 645.817 462.775 648.608C466.549 651.953 470.94 654.529 475.702 656.19C483.284 658.717 494.526 656.757 494.526 656.757C494.526 656.757 494.802 652.545 494.802 650.293C494.802 648.042 492.275 641.869 492.275 641.869L491.999 560.414C491.999 560.414 580.469 554.517 590.026 546.369C599.584 538.22 603.505 510.42 603.505 510.42C589.499 513.401 574.921 512.126 561.645 506.76C540.017 497.769 531.317 492.163 531.317 492.163L526.83 494.414Z" fill="#263238" stroke="#263238" stroke-linecap="round" stroke-linejoin="round"/>
<path d="M586.932 405.378C586.932 405.378 560.251 411.842 555.472 412.96C550.693 414.078 548.166 414.645 547.89 417.463C547.614 420.281 525.972 454.821 522.326 460.151C518.681 465.481 513.626 469.984 516.705 473.936C519.784 477.888 520.917 483.769 525.129 483.769C529.341 483.769 534.687 477.015 534.687 477.015C534.687 477.015 524.854 490.8 526.829 494.43C528.805 498.06 547.89 511.569 570.36 515.215C592.829 518.86 601.529 514.372 603.781 512.978C606.032 511.585 621.763 470.566 625.975 453.427C630.187 436.287 638.611 418.321 635.808 415.227C633.005 412.133 616.984 406.803 612.496 406.037C608.008 405.271 605.19 404.903 605.19 404.903L586.932 405.378Z" fill="#6F95C9" stroke="#263238" stroke-linecap="round" stroke-linejoin="round"/>
<path d="M531.899 479.68C531.899 479.68 536.265 469.862 532.267 464.363C528.269 458.864 520.994 460.013 515.556 463.643C510.119 467.273 508.281 469.448 508.648 473.813C509.016 478.179 513.734 486.526 520.642 486.526C527.549 486.526 530.092 483.677 531.899 479.68Z" fill="white" stroke="#263238" stroke-linecap="round" stroke-linejoin="round"/>
<path d="M534.687 476.999C534.687 476.999 544.796 451.727 548.472 444.712C550.806 439.993 552.505 434.987 553.527 429.824" stroke="#263238" stroke-linecap="round" stroke-linejoin="round"/>
<path d="M552.715 488.701C548.503 491.948 541.61 496.85 542.836 500.036C544.229 503.696 545.899 507.066 545.899 507.066" stroke="#263238" stroke-linecap="round" stroke-linejoin="round"/>
<path d="M575.751 444.053C572.933 451.145 569.824 459.079 569.517 460.426C568.997 462.739 559.868 480.675 555.472 486.174" stroke="#263238" stroke-linecap="round" stroke-linejoin="round"/>
<path d="M580.469 432.351C580.469 432.351 579.213 435.414 577.559 439.55" stroke="#263238" stroke-linecap="round" stroke-linejoin="round"/>
<path d="M617.26 456.505L608.56 435.43" stroke="#263238" stroke-linecap="round" stroke-linejoin="round"/>
<path d="M617.26 460.151L602.663 445.83" stroke="#263238" stroke-linecap="round" stroke-linejoin="round"/>
<path d="M527.718 460.151C527.718 460.151 508.327 470.26 507.806 475.605C507.285 480.951 510.333 484.872 516.506 486.327C522.679 487.782 526.048 482.391 528.591 478.454C531.134 474.518 535.882 466.936 535.882 466.936L527.718 460.151Z" fill="white" stroke="#263238" stroke-linecap="round" stroke-linejoin="round"/>
<path d="M580.469 410.157L568.399 428.69L577.099 423.636L581.311 429.257L584.405 406.496L580.469 410.157Z" fill="white" stroke="#263238" stroke-linecap="round" stroke-linejoin="round"/>
<path d="M557.999 363.242C557.999 363.242 557.432 385.436 560.526 394.151C563.452 402.391 568.813 420.526 580.438 410.157L581.281 429.257L587.744 419.423L604.302 403.693L603.168 387.687L603.459 370.839C603.459 370.839 604.302 358.478 597.838 353.424C591.374 348.369 569.196 353.699 563.574 356.226C557.953 358.754 557.999 363.242 557.999 363.242Z" fill="white" stroke="#263238" stroke-linecap="round" stroke-linejoin="round"/>
<path d="M566.99 384.884L566.699 398.914L572.045 398.363" stroke="#263238" stroke-linecap="round" stroke-linejoin="round"/>
<path d="M568.951 401.166C568.951 401.166 573.73 405.945 580.193 398.103" stroke="#263238" stroke-linecap="round" stroke-linejoin="round"/>
<path d="M580.469 410.157L587.775 403.126L581.311 422.793L580.469 410.157Z" fill="#263238" stroke="#263238" stroke-linecap="round" stroke-linejoin="round"/>
<path d="M577.942 384.593C577.942 384.593 582.429 388.53 586.09 384.318" stroke="#263238" stroke-linecap="round" stroke-linejoin="round"/>
<path d="M560.526 384.593C561.152 385.293 562.013 385.738 562.945 385.842C563.878 385.947 564.816 385.704 565.581 385.16" stroke="#263238" stroke-linecap="round" stroke-linejoin="round"/>
<path d="M588.342 381.499C584.976 380.464 581.461 379.993 577.942 380.105C572.611 380.381 572.611 385.436 573.729 387.687C574.848 389.939 578.217 391.899 583.272 391.333C588.326 390.766 588.893 384.869 588.893 384.869C588.893 384.869 589.735 382.342 588.342 381.499Z" stroke="#263238" stroke-linecap="round" stroke-linejoin="round"/>
<path d="M572.887 382.908C572.887 382.908 569.824 380.657 566.99 382.633" stroke="#263238" stroke-linecap="round" stroke-linejoin="round"/>
<path d="M566.99 381.223C566.99 381.223 566.148 379.539 560.863 379.814C555.579 380.09 554.966 382.633 555.809 384.869C556.651 387.105 558.872 393.86 566.531 390.214" stroke="#263238" stroke-linecap="round" stroke-linejoin="round"/>
<path d="M575.2 378.972C575.2 378.972 578.003 377.287 584.175 378.972" stroke="#263238" stroke-linecap="round" stroke-linejoin="round"/>
<path d="M566.714 378.972C564.548 377.855 562.053 377.556 559.684 378.13" stroke="#263238" stroke-linecap="round" stroke-linejoin="round"/>
<path d="M588.342 381.499L600.135 375.602" stroke="#263238" stroke-linecap="round" stroke-linejoin="round"/>
<path d="M552.761 354.343C551.03 358.386 551.704 362.154 557.723 364.375C568.445 368.311 572.611 364.084 581.036 361.557C589.46 359.029 594.239 360.714 590.578 364.375C586.917 368.036 588.051 372.033 591.42 372.524C594.79 373.014 591.42 382.066 594.239 380.948C597.057 379.83 599.569 376.169 602.372 376.736C605.175 377.302 605.435 375.602 605.435 375.602C605.435 375.602 614.15 359.872 611.562 350.605C608.973 341.339 592.048 334.661 578.263 337.969C570.697 339.822 561.66 342.472 556.452 348.691C554.966 350.395 553.723 352.297 552.761 354.343Z" fill="#263238" stroke="#263238" stroke-linecap="round" stroke-linejoin="round"/>
<path d="M598.175 381.499C598.175 381.499 596.49 373.642 602.678 372.799C608.866 371.957 607.166 378.696 605.205 383.184C604.775 384.407 604.028 385.494 603.041 386.333C602.053 387.173 600.86 387.735 599.584 387.963" fill="white"/>
<path d="M598.175 381.499C598.175 381.499 596.49 373.642 602.678 372.799C608.866 371.957 607.166 378.696 605.205 383.184C604.775 384.407 604.028 385.494 603.041 386.333C602.053 387.173 600.86 387.735 599.584 387.963" stroke="#263238" stroke-linecap="round" stroke-linejoin="round"/>
<path d="M607.151 399.205L585.248 420.833L591.987 431.508L612.496 405.945L607.151 399.205Z" fill="white" stroke="#263238" stroke-linecap="round" stroke-linejoin="round"/>
<path d="M619.236 437.114L613.201 487.828C613.201 487.828 610.811 489.942 619.236 493.878C627.66 497.815 632.255 497.171 633.649 495.211C635.042 493.25 645.014 465.68 643.114 432.412C642.486 421.476 644.233 418.918 640.296 416.115C636.36 413.312 626.817 412.47 626.817 412.47" fill="#6F95C9"/>
<path d="M619.236 437.114L613.201 487.828C613.201 487.828 610.811 489.942 619.236 493.878C627.66 497.815 632.255 497.171 633.649 495.211C635.042 493.25 645.014 465.68 643.114 432.412C642.486 421.476 644.232 418.918 640.296 416.115C636.36 413.312 626.817 412.47 626.817 412.47" stroke="#263238" stroke-linecap="round" stroke-linejoin="round"/>
<path d="M613.89 483.463C613.89 483.463 616.953 479.526 618.393 479.526C619.833 479.526 626.817 483.754 630.187 485.148C633.557 486.542 634.399 494.414 634.399 498.627C634.399 502.839 629.069 509.348 625.408 509.869C621.747 510.39 608.284 504.248 607.717 503.13C607.151 502.012 613.89 483.463 613.89 483.463Z" fill="white" stroke="#263238" stroke-linecap="round" stroke-linejoin="round"/>
<path d="M554.629 473.078L538.899 444.987L522.326 442.169L538.899 471.102L554.629 473.078Z" fill="#263238" stroke="#263238" stroke-linecap="round" stroke-linejoin="round"/>
<path d="M529.357 454.53C529.357 454.53 524.011 457.057 524.578 457.899C524.908 458.402 525.098 458.983 525.129 459.584C525.129 459.584 533.845 469.417 535.254 471.102C536.663 472.787 540.308 471.669 542.545 471.393C544.781 471.118 544.796 466.048 543.678 464.087C542.56 462.127 534.963 457.348 534.12 457.057C533.278 456.766 534.12 459.033 534.12 455.372C534.12 451.711 529.357 454.53 529.357 454.53Z" fill="white" stroke="#263238" stroke-linecap="round" stroke-linejoin="round"/>
<path d="M625.837 489.819C625.647 488.457 625.07 487.179 624.174 486.136C623.278 485.093 622.1 484.33 620.783 483.938C610.245 480.874 582.491 472.42 576.532 469.708C571.777 467.455 567.173 464.897 562.747 462.05C562.747 462.05 557.969 454.468 557.126 454.193C556.284 453.917 550.999 455.602 549.269 455.602C547.468 455.458 545.681 455.177 543.923 454.759L548.426 459.814C548.426 459.814 536.066 455.311 534.09 455.311C532.114 455.311 531.026 455.311 532.129 457.562C533.232 459.814 534.656 459.814 536.908 460.626C539.211 461.631 541.461 462.756 543.647 463.995C543.647 463.995 535.223 462.586 533.247 462.31C531.271 462.035 528.759 461.468 528.759 462.586C528.759 463.704 531.823 465.65 533.247 466.247C534.672 466.844 539.711 469.31 539.711 469.31C539.711 469.31 532.696 467.35 532.696 468.468C532.696 469.586 534.656 471.837 536.617 472.68C539.713 474.289 542.715 476.074 545.608 478.025C547.293 479.144 560.771 478.577 560.771 478.577C560.771 478.577 583.241 488.701 593.366 494.307C603.49 499.913 615.269 506.116 618.638 506.116C622.008 506.116 625.378 500.495 625.944 495.395C626.122 493.538 626.086 491.668 625.837 489.819Z" fill="white" stroke="#263238" stroke-linecap="round" stroke-linejoin="round"/>
<path d="M536.647 472.787L546.205 475.314" stroke="#263238" stroke-linecap="round" stroke-linejoin="round"/>
<path d="M548.457 459.875L554.905 461.56" stroke="#263238" stroke-linecap="round" stroke-linejoin="round"/>
<path d="M490.866 473.921C490.866 473.921 504.069 520.545 507.714 530.087C511.36 539.63 512.478 546.936 514.163 547.793C515.847 548.651 516.69 548.345 516.69 550.857C516.69 553.369 515.005 556.478 515.005 557.32C515.005 558.163 516.414 563.784 516.414 563.784C516.414 563.784 507.99 564.626 495.629 560.721C483.269 556.815 479.623 555.666 479.056 553.415C478.49 551.163 475.687 549.494 477.938 547.518C480.19 545.542 476.529 542.754 475.12 537.409C473.711 532.063 462.775 501.721 461.09 489.36C459.405 476.999 460.324 466.048 466.451 460.717C472.577 455.387 479.654 457.654 482.733 458.466C485.5 459.47 488.142 460.791 490.605 462.402" fill="#263238"/>
<path d="M490.866 473.921C490.866 473.921 504.069 520.545 507.714 530.087C511.36 539.63 512.478 546.936 514.163 547.793C515.847 548.651 516.69 548.345 516.69 550.857C516.69 553.369 515.005 556.478 515.005 557.32C515.005 558.163 516.414 563.784 516.414 563.784C516.414 563.784 507.99 564.626 495.629 560.721C483.269 556.815 479.623 555.666 479.057 553.415C478.49 551.163 475.687 549.494 477.938 547.518C480.19 545.542 476.529 542.754 475.12 537.409C473.711 532.063 462.775 501.721 461.09 489.36C459.405 476.999 460.324 466.048 466.451 460.717C472.577 455.387 479.654 457.654 482.733 458.466C485.5 459.47 488.142 460.791 490.605 462.402" stroke="#263238" stroke-linecap="round" stroke-linejoin="round"/>
<path d="M545.669 514.479C547.078 514.204 548.395 513.974 549.575 513.805" stroke="#6B6B6B" stroke-linecap="round" stroke-linejoin="round"/>
<path d="M506.029 525.324C506.029 525.324 526.937 518.676 541.687 515.337" stroke="#6B6B6B" stroke-linecap="round" stroke-linejoin="round"/>
<path d="M526.263 519.411C526.263 519.411 521.208 505.381 520.366 500.311" stroke="#6B6B6B" stroke-linecap="round" stroke-linejoin="round"/>
<path d="M498.157 484.214L497.176 478.929" stroke="#6B6B6B" stroke-linecap="round" stroke-linejoin="round"/>
<path d="M508.296 538.634L498.984 488.64" stroke="#6B6B6B" stroke-linecap="round" stroke-linejoin="round"/>
<path d="M504.911 559.296L498.172 552.557C494.235 548.636 485.811 552.005 483.851 553.966C481.89 555.926 484.126 556.493 476.269 556.493C468.411 556.493 459.42 556.769 458.563 559.863C457.705 562.957 459.972 566.893 466.144 571.105C472.317 575.318 486.378 579.53 494.526 579.53C502.675 579.53 516.996 579.53 517.502 573.403C518.007 567.276 517.793 560.767 515.265 560.215C511.833 559.726 508.376 559.42 504.911 559.296Z" fill="white" stroke="#263238" stroke-linecap="round" stroke-linejoin="round"/>
<path d="M517.548 573.342C517.548 572.683 517.67 572.009 517.701 571.335C512.575 570.664 507.534 569.458 502.66 567.736C495.078 564.917 481.323 557.611 469.53 557.014C466.2 556.695 462.843 557.184 459.742 558.438C459.188 558.731 458.766 559.224 458.563 559.817C457.72 562.88 459.972 566.847 466.144 571.059C472.317 575.272 486.378 579.484 494.526 579.484C502.675 579.484 516.996 579.53 517.548 573.342Z" fill="white" stroke="#263238" stroke-linecap="round" stroke-linejoin="round"/>
<path d="M458.532 562.36C459.114 564.963 461.595 567.95 466.19 571.105C472.317 575.318 486.424 579.53 494.572 579.53C501.97 579.53 514.484 579.53 517.103 574.935C513.157 574.327 509.279 573.336 505.524 571.979C497.865 569.16 483.897 561.257 469.284 560.736C462.729 560.46 459.788 561.349 458.532 562.36Z" fill="white" stroke="#263238" stroke-linecap="round" stroke-linejoin="round"/>
<path d="M558.612 570.845C582.46 571.121 607.993 570.677 617.428 567.904C636.896 562.176 636.896 555.651 642.624 543.474C648.353 531.297 673.932 438.478 676.995 417.478C677.393 415.13 677.294 412.725 676.704 410.417C675.571 411.949 674.269 418.75 672.4 425.121C669.735 434.311 662.475 459.094 662.475 459.094C662.475 459.094 651.033 496.513 635.747 506.821C620.461 517.129 596.046 507.587 587.269 511.416C578.493 515.245 558.627 570.539 558.627 570.539L558.612 570.845Z" fill="white" stroke="#263238" stroke-linecap="round" stroke-linejoin="round"/>
<path d="M563.973 570.539C563.973 570.539 581.541 523.578 589.552 518.615C597.562 513.652 615.896 522.429 629.268 516.7C642.64 510.972 654.847 494.935 660.193 476.233" stroke="#263238" stroke-linecap="round" stroke-linejoin="round"/>
<path d="M682.172 667.387H716.865" stroke="#263238" stroke-miterlimit="10"/>
<path d="M188.406 667.387H670.623" stroke="#263238" stroke-miterlimit="10"/>
<path d="M31.5311 667.387H178.496" stroke="#263238" stroke-miterlimit="10"/>
</svg>
